<?xml version="1.0" standalone="no"?>
<!DOCTYPE svg PUBLIC "-//W3C//DTD SVG 1.1//EN" "http://www.w3.org/Graphics/SVG/1.1/DTD/svg11.dtd" >
<svg xmlns="http://www.w3.org/2000/svg" xmlns:xlink="http://www.w3.org/1999/xlink" version="1.1">
<metadata>
Created by FontForge 20201107 at Fri Aug 21 16:48:05 2020
 By 
Copyright 2019 The Merriweather Project Authors (https://github.com/SorkinType/Merriweather-Sans)
</metadata>
<defs>
<font id="MerriweatherSans-Medium" horiz-adv-x="0" >
  <font-face 
    font-family="Merriweather Sans Medium"
    font-weight="500"
    font-stretch="normal"
    units-per-em="2000"
    panose-1="0 0 0 0 0 0 0 0 0 0"
    ascent="1600"
    descent="-400"
    x-height="1114"
    cap-height="1486"
    bbox="-574 -591 3039.04 2490"
    underline-thickness="110"
    underline-position="-299"
    unicode-range="U+000D-FB02"
  />
<missing-glyph horiz-adv-x="1831" 
d="M224 0v1382h1383v-1382h-1383zM574 214l339 360l353 -360l119 120l-354 358l354 350l-125 122l-343 -358l-349 360l-120 -124l350 -354l-349 -334z" />
    <glyph glyph-name="fi" unicode="fi" horiz-adv-x="1414" 
d="M235 0v930h-159v145l159 39v101q0 123 37.5 205.5t98.5 131.5t133.5 69.5t141.5 20.5q56 0 101 -7.5t61 -12.5v-191q-27 9 -63 14.5t-98 5.5q-68 0 -111.5 -51t-43.5 -155v-131h266v-184h-266v-930h-257zM985 0v1112h255v-1112h-255zM1099 1298q-63 0 -109 40t-46 107
q0 46 25.5 83.5t65.5 60t84 22.5q75 0 114.5 -42t39.5 -105q0 -71 -52 -118.5t-122 -47.5z" />
    <glyph glyph-name="fl" unicode="fl" horiz-adv-x="1411" 
d="M235 0v930h-159v145l159 39v101q0 123 37.5 205.5t98.5 131.5t133.5 69.5t141.5 20.5q56 0 101 -7.5t61 -12.5v-191q-27 9 -63 14.5t-98 5.5q-68 0 -111.5 -51t-43.5 -155v-131h266v-184h-266v-930h-257zM982 0v1626h257v-1626h-257z" />
    <glyph glyph-name="f_f" unicode="ff" horiz-adv-x="1623" 
d="M235 0v930h-159v145l159 39v101q0 123 37.5 205.5t98.5 131.5t133.5 69.5t141.5 20.5q56 0 101 -7.5t61 -12.5v-191q-27 9 -63 14.5t-98 5.5q-68 0 -111.5 -51t-43.5 -155v-131h266v-184h-266v-930h-257zM1046 0v930h-159v145l159 39v101q0 123 37.5 205.5t98.5 131.5
t133.5 69.5t141.5 20.5q56 0 101 -7.5t61 -12.5v-191q-27 9 -63 14.5t-98 5.5q-68 0 -111.5 -51t-43.5 -155v-131h266v-184h-266v-930h-257z" />
    <glyph glyph-name="f_f_i" unicode="ffi" horiz-adv-x="2226" 
d="M235 0v930h-159v145l159 39v101q0 123 37.5 205.5t98.5 131.5t133.5 69.5t141.5 20.5q56 0 101 -7.5t61 -12.5v-191q-27 9 -63 14.5t-98 5.5q-68 0 -111.5 -51t-43.5 -155v-131h266v-184h-266v-930h-257zM1046 0v930h-159v145l159 39v101q0 123 37.5 205.5t98.5 131.5
t133.5 69.5t141.5 20.5q56 0 101 -7.5t61 -12.5v-191q-27 9 -63 14.5t-98 5.5q-68 0 -111.5 -51t-43.5 -155v-131h266v-184h-266v-930h-257zM1797 0v1112h255v-1112h-255zM1910 1298q-63 0 -109 40t-46 107q0 46 25.5 83.5t65.5 60t84 22.5q75 0 114.5 -42t39.5 -105
q0 -71 -52 -118.5t-122 -47.5z" />
    <glyph glyph-name="f_f_l" unicode="ffl" horiz-adv-x="2222" 
d="M235 0v930h-159v145l159 39v101q0 123 37.5 205.5t98.5 131.5t133.5 69.5t141.5 20.5q56 0 101 -7.5t61 -12.5v-191q-27 9 -63 14.5t-98 5.5q-68 0 -111.5 -51t-43.5 -155v-131h266v-184h-266v-930h-257zM1046 0v930h-159v145l159 39v101q0 123 37.5 205.5t98.5 131.5
t133.5 69.5t141.5 20.5q56 0 101 -7.5t61 -12.5v-191q-27 9 -63 14.5t-98 5.5q-68 0 -111.5 -51t-43.5 -155v-131h266v-184h-266v-930h-257zM1794 0v1626h257v-1626h-257z" />
    <glyph glyph-name=".notdef" horiz-adv-x="1831" 
d="M224 0v1382h1383v-1382h-1383zM574 214l339 360l353 -360l119 120l-354 358l354 350l-125 122l-343 -358l-349 360l-120 -124l350 -354l-349 -334z" />
    <glyph glyph-name="uni0000" 
 />
    <glyph glyph-name="uni0000" 
 />
    <glyph glyph-name="nonmarkingreturn" horiz-adv-x="666" 
 />
    <glyph glyph-name="CR" unicode="&#xd;" 
 />
    <glyph glyph-name="space" unicode=" " horiz-adv-x="359" 
 />
    <glyph glyph-name="exclam" unicode="!" horiz-adv-x="606" 
d="M200 517l-35 1221h285l-28 -1221h-222zM295 -22q-67 0 -112.5 47.5t-46.5 117.5q-1 51 23 93t64.5 67t86.5 25q77 0 118 -48.5t42 -114.5q0 -52 -24 -94.5t-63.5 -67.5t-87.5 -25z" />
    <glyph glyph-name="quotedbl" unicode="&#x22;" horiz-adv-x="1243" 
d="M274 921l-36 728h264l-34 -728h-194zM776 921l-36 728h264l-34 -728h-194z" />
    <glyph glyph-name="numbersign" unicode="#" horiz-adv-x="1492" 
d="M316 0l124 1340h216l-127 -1340h-213zM822 0l121 1340h216l-127 -1340h-210zM1336 849h-1145v170h1145v-170zM1292 334h-1136v177h1136v-177z" />
    <glyph glyph-name="dollar" unicode="$" horiz-adv-x="1352" 
d="M613 1455l4 265h170l-5 -265h-169zM567 -228l5 261h171l-5 -261h-171zM653 -16q-98 0 -186.5 14.5t-152 35t-91.5 37.5l49 210q37 -22 95.5 -43t128 -35t140.5 -14q131 0 198.5 43t67.5 140q0 66 -34.5 110.5t-105 85.5t-178.5 92q-92 45 -176 107.5t-138 148t-54 197.5
q0 106 42 180.5t113.5 120.5t162 67t187.5 21q142 0 234.5 -27.5t131.5 -52.5l-48 -203q-50 33 -123.5 59t-188.5 26q-72 0 -131 -18.5t-94 -55t-35 -93.5q0 -64 28.5 -108.5t91 -83.5t163.5 -91q79 -39 152.5 -83t132 -97t92.5 -121.5t34 -156.5q0 -135 -63.5 -227
t-177.5 -138.5t-267 -46.5z" />
    <glyph glyph-name="percent" unicode="%" horiz-adv-x="2008" 
d="M445 630q-118 -1 -199 55.5t-122.5 152t-41.5 208.5q0 136 56 230t146 143.5t192 51.5q127 3 207.5 -53t118 -151.5t37.5 -213.5q0 -135 -55.5 -229t-145.5 -143t-193 -51zM593 0l608 1494h211l-609 -1494h-210zM459 796q81 0 123.5 67t42.5 182q0 118 -42 189.5
t-120 71.5q-80 0 -123.5 -67.5t-43.5 -184.5q0 -112 43 -185t120 -73zM1532 34q-119 -2 -199.5 55t-122 152.5t-41.5 208.5q0 135 55.5 229t145.5 144t193 52q127 2 207 -54t117.5 -151.5t37.5 -211.5q0 -136 -55 -230t-145 -143t-193 -51zM1546 200q81 0 123 67t42 183
q0 117 -41.5 188.5t-119.5 71.5q-80 0 -124 -67t-44 -184q0 -113 43.5 -186t120.5 -73z" />
    <glyph glyph-name="ampersand" unicode="&#x26;" horiz-adv-x="1499" 
d="M943 223q11 7 20.5 16t17.5 17.5t12 12.5q44 26 74.5 64.5t47 88.5t16.5 111q0 68 -11.5 118.5t-17.5 69.5h217q5 -23 14.5 -71t9.5 -118q0 -140 -53 -236t-146 -156q-5 -4 -12.5 -14t-15.5 -19t-14 -12q-66 -42 -168 -76.5t-204 -34.5q-188 0 -325 46t-211 136t-74 222
q0 104 51 182.5t136.5 135t188.5 95.5q5 2 19 6t29 8t19 6q89 32 155.5 76t102 108.5t35.5 156.5q0 37 -18 77.5t-56.5 68.5t-98.5 28q-76 0 -129.5 -44t-53.5 -135q0 -55 11.5 -94.5t35 -77t59.5 -85.5t86 -119l32 -40q26 -37 72.5 -99t102 -132t108.5 -132.5t93 -101.5
q55 -50 102 -79.5t96.5 -43.5t114.5 -19v-134q-21 -6 -52 -11t-72 -5q-114 0 -194 40.5t-163 111.5q-47 48 -106.5 117.5t-120 145.5t-114.5 147t-92 123l-27 35q-45 60 -92.5 128t-79.5 146.5t-32 171.5q0 169 113 264.5t303 95.5q120 0 206.5 -48t133 -126.5t46.5 -170.5
q0 -98 -27.5 -171.5t-77 -128.5t-118.5 -98t-152 -79q-8 -3 -29 -9.5t-42 -12.5t-29 -9q-70 -30 -123.5 -68.5t-83 -86t-29.5 -104.5q0 -61 33.5 -114t110 -85t204.5 -32q79 0 131.5 16.5t104.5 39.5z" />
    <glyph glyph-name="quotesingle" unicode="'" horiz-adv-x="741" 
d="M274 921l-36 728h264l-34 -728h-194z" />
    <glyph glyph-name="parenleft" unicode="(" horiz-adv-x="803" 
d="M563 -332q-26 17 -79 66t-115 131.5t-119 201.5t-94 278t-37 358q0 173 36 319t91.5 264t117.5 205t116 140t83 71l160 -89q-28 -22 -87 -90t-122 -181.5t-108.5 -273.5t-49.5 -367q-4 -169 23 -307t71 -246t95.5 -186.5t99 -129.5t78.5 -75z" />
    <glyph glyph-name="parenright" unicode=")" horiz-adv-x="803" 
d="M240 1725q26 -17 79 -66t115 -131.5t119 -201.5t94 -278t37 -358q0 -173 -36 -319t-91.5 -264t-117.5 -205t-116 -140t-83 -71l-160 89q28 22 87 90t122 181.5t108.5 273.5t49.5 367q4 169 -23 307t-71 246t-95.5 186.5t-99 129.5t-78.5 75z" />
    <glyph glyph-name="asterisk" unicode="*" horiz-adv-x="1237" 
d="M521 614l15 272l37 166l-123 -122l-223 -153l-104 180l240 127l162 48q-4 2 -27 8.5t-53 14.5t-54.5 15t-29.5 8l-243 120l100 182l228 -152l125 -114q0 3 -6.5 26t-14 53t-13.5 54.5t-7 29.5l-23 273h208l-16 -269l-36 -165q2 2 19.5 19t39.5 39t40.5 39t21.5 21
l227 153l101 -179l-240 -122l-162 -52l163 -46l245 -116l-106 -186l-221 150l-128 114q1 -3 7 -26.5t13.5 -53.5t13 -54.5t6.5 -29.5l26 -272h-208z" />
    <glyph glyph-name="plus" unicode="+" horiz-adv-x="1363" 
d="M579 268v219l8 176l-161 -7h-212v199h212l161 -8l-8 176v215h203v-215l-8 -176l143 8h232v-199h-232l-143 7l8 -176v-219h-203z" />
    <glyph glyph-name="comma" unicode="," horiz-adv-x="619" 
d="M155 -398v24q48 27 82 96.5t34 154.5q0 43 -17.5 87.5t-43.5 76t-55 34.5v72l170 130q65 -24 105 -78t58 -118t18 -121q0 -108 -36 -201t-95.5 -158.5t-131.5 -91.5z" />
    <glyph glyph-name="hyphen" unicode="-" horiz-adv-x="1190" 
d="M180 552v202h830v-202h-830z" />
    <glyph glyph-name="period" unicode="." horiz-adv-x="606" 
d="M296 -22q-66 0 -112.5 47.5t-47.5 117.5q-1 51 23.5 93t64.5 67t86 25q77 0 118 -48.5t42 -114.5q1 -52 -23 -94.5t-64 -67.5t-87 -25z" />
    <glyph glyph-name="slash" unicode="/" horiz-adv-x="915" 
d="M72 -354l553 1916h218l-553 -1916h-218z" />
    <glyph glyph-name="zero" unicode="0" horiz-adv-x="1373" 
d="M679 -16q-150 0 -256 64t-171.5 174t-95.5 250.5t-28 293.5q3 226 79 392t205 257t291 91q153 0 257 -59.5t167 -163t90.5 -239t26.5 -288.5q-2 -231 -73.5 -404.5t-198 -270.5t-293.5 -97zM686 202q143 -2 215.5 134t72.5 408q0 160 -30 282t-93 191.5t-161 69.5
q-141 0 -215.5 -132t-74.5 -381q0 -157 30.5 -286t94 -206.5t161.5 -79.5z" />
    <glyph glyph-name="one" unicode="1" horiz-adv-x="907" 
d="M354 0v1206q-57 -15 -111 -27t-110 -23l-27 153q48 14 106 38t114.5 52.5t102 56.5t69.5 48l120 -19v-1485h-264z" />
    <glyph glyph-name="two" unicode="2" horiz-adv-x="1232" 
d="M151 0l-37 124q89 59 184 137t183 169t158.5 190.5t112 201.5t41.5 201q0 130 -64.5 198t-179.5 68q-101 0 -189 -39t-140 -94l-101 150q40 41 106 85.5t159 75.5t212 31q163 0 266 -62t151 -166t48 -230q0 -150 -73 -301t-201 -289t-294 -252l624 15v-213h-966z" />
    <glyph glyph-name="three" unicode="3" horiz-adv-x="1133" 
d="M141 9l-2 172q43 -8 88.5 -14t85.5 -6q135 0 237.5 34t160 95.5t57.5 142.5q0 75 -31.5 133t-101 88.5t-183.5 23.5l-104 -25l-45 169q54 10 104 25.5t91 34.5q95 41 147 103t53 136q3 98 -59.5 141t-155.5 43q-105 0 -178 -33t-125 -70l-89 152q35 31 101 66t150 59.5
t173 24.5q127 0 226.5 -40t156.5 -116.5t57 -188.5q0 -96 -44.5 -173.5t-119.5 -133t-164 -87.5v30q136 0 226.5 -51.5t136 -133.5t45.5 -174q0 -120 -81 -224t-229.5 -168t-352.5 -64q-66 0 -124 9.5t-107 19.5z" />
    <glyph glyph-name="four" unicode="4" horiz-adv-x="1364" 
d="M161 293l-61 111q40 83 77 163t71.5 158t67.5 154.5t66 153.5t67.5 154t70.5 157.5t76 163.5h83l169 -97q-37 -71 -69.5 -136t-62.5 -127.5t-58.5 -124.5t-58.5 -124.5t-62.5 -128t-70.5 -135.5l-88 -150h901v-192h-1118zM804 0v496l24 461h227v-957h-251z" />
    <glyph glyph-name="five" unicode="5" horiz-adv-x="1211" 
d="M304 -21q-24 0 -61.5 2.5t-64.5 9.5v176q16 0 33.5 -1t33.5 -1q166 0 293 45t198.5 123.5t71.5 178.5q0 131 -71 189t-230 58q-59 0 -128.5 -14.5t-142.5 -37.5l-51 30l57 749h785l-24 -216h-569l-37 -354q63 15 121 23.5t110 8.5q216 0 328 -110.5t112 -311.5
q0 -105 -50.5 -203t-148 -175.5t-239.5 -123t-326 -45.5z" />
    <glyph glyph-name="six" unicode="6" horiz-adv-x="1361" 
d="M144 569q0 164 50 306.5t135.5 259.5t193 205t223.5 143t226 74l65 -159q-138 -36 -251 -112.5t-193.5 -179t-125.5 -218t-47 -230.5q-4 -134 19.5 -247t85 -181t172.5 -68q87 0 145 44.5t86.5 118t28.5 159.5q0 115 -29.5 180t-76.5 91.5t-100 26.5q-57 0 -98 -14.5
t-63 -27.5l-60 147q17 18 56.5 39t96.5 36.5t129 15.5q127 0 217 -60t137.5 -160.5t47.5 -221.5q0 -108 -33 -207t-101 -177t-170.5 -123t-241.5 -45q-162 0 -279.5 79.5t-181 212.5t-63.5 293z" />
    <glyph glyph-name="seven" unicode="7" horiz-adv-x="1232" 
d="M327 0q48 100 95 206t94 216t92 220t87.5 218t82.5 210.5t76 196.5l-719 2l1 218h946l57 -77l-522 -1410h-290z" />
    <glyph glyph-name="eight" unicode="8" horiz-adv-x="1304" 
d="M663 -16q-105 0 -200.5 22.5t-170 69t-117.5 120t-43 176.5q0 74 36 150.5t117 146t215 120.5l125 -105q-72 -27 -128.5 -70.5t-89 -100.5t-32.5 -125q0 -70 31 -122.5t95.5 -82t165.5 -29.5q64 0 121 24t93 70t36 112q0 68 -39.5 117.5t-104.5 90t-143 78.5t-156 81.5
t-143.5 99.5t-105 131.5t-39.5 178.5q0 117 62 200t168.5 127t242.5 44q138 0 239.5 -43.5t157.5 -121t56 -179.5q0 -76 -34 -157t-107 -149.5t-190 -109.5l-119 106q113 35 164 116t54 170q4 88 -56.5 143.5t-169.5 55.5q-98 0 -164.5 -50.5t-66.5 -134.5
q0 -70 40.5 -124.5t107 -100t146 -87.5t159.5 -86t147 -96.5t108 -118.5t42 -151q1 -136 -68.5 -226t-185.5 -135t-256 -45z" />
    <glyph glyph-name="nine" unicode="9" horiz-adv-x="1380" 
d="M156 966q0 158 63.5 280t186 191.5t298.5 69.5q167 0 282 -79t174.5 -212t59.5 -295q0 -172 -52 -321.5t-140 -273t-199 -216.5t-229 -151.5t-229 -79.5l-76 153q149 37 268.5 124t205 202t131.5 238t49 233q3 143 -22.5 255t-87 177t-169.5 65q-79 0 -136.5 -40.5
t-89.5 -106t-32 -141.5q0 -172 63.5 -256t158.5 -84q66 0 98.5 11.5t59.5 23.5l54 -142q-24 -27 -94.5 -57.5t-188.5 -30.5q-128 0 -219 64.5t-139.5 170t-48.5 228.5z" />
    <glyph glyph-name="colon" unicode=":" horiz-adv-x="606" 
d="M296 -22q-66 0 -112.5 47.5t-47.5 117.5q-1 51 23.5 93t64.5 67t86 25q77 0 118 -48.5t42 -114.5q1 -52 -23 -94.5t-64 -67.5t-87 -25zM296 740q-66 0 -112.5 47.5t-47.5 117.5q-1 51 23.5 93t64.5 67t86 25q77 0 118 -48.5t42 -114.5q1 -52 -23 -94.5t-64 -67.5t-87 -25
z" />
    <glyph glyph-name="semicolon" unicode=";" horiz-adv-x="606" 
d="M148 -398v24q48 27 82 96.5t34 154.5q0 43 -17.5 87.5t-43.5 76t-55 34.5v72l170 130q65 -24 105 -78t58 -118t18 -121q0 -108 -36 -201t-95.5 -158.5t-131.5 -91.5zM296 740q-66 0 -112.5 47.5t-47.5 117.5q-1 51 23.5 93t64.5 67t86 25q77 0 118 -48.5t42 -114.5
q1 -52 -23 -94.5t-64 -67.5t-87 -25z" />
    <glyph glyph-name="less" unicode="&#x3c;" horiz-adv-x="1339" 
d="M176 680v151l937 451v-232l-683 -308v26l683 -295v-237z" />
    <glyph glyph-name="equal" unicode="=" horiz-adv-x="1375" 
d="M240 914v186h895v-186h-895zM240 412v185h895v-185h-895z" />
    <glyph glyph-name="greater" unicode="&#x3e;" horiz-adv-x="1338" 
d="M1160 680v151l-937 451v-232l683 -308v26l-683 -295v-237z" />
    <glyph glyph-name="question" unicode="?" horiz-adv-x="1053" 
d="M345 491q-30 41 -55 108.5t-28 156.5q-2 72 36 126.5t96 98.5t117.5 85t102.5 86.5t49 105.5q33 159 -63.5 245.5t-293.5 86.5q-76 0 -122 -8.5t-68 -15.5v186q15 10 51.5 20.5t86 18t102.5 7.5q168 0 284 -43t184 -117t92.5 -168t9.5 -195q-8 -80 -41.5 -138t-80.5 -101
t-98 -78.5t-96.5 -69.5t-75.5 -74t-34 -92q-6 -61 7.5 -111.5t32.5 -119.5h-195zM466 -22q-60 0 -106 45.5t-47 114.5q-1 47 23 86.5t63 64.5t84 25q73 0 113.5 -46.5t40.5 -109.5q2 -50 -22 -91t-63.5 -65t-85.5 -24z" />
    <glyph glyph-name="at" unicode="@" horiz-adv-x="2108" 
d="M990 -461q-176 0 -330.5 53t-271 161t-182.5 273.5t-66 389.5q0 247 79.5 447.5t221 344.5t329.5 221t404 77q222 0 393.5 -81t268.5 -238.5t97 -384.5q0 -195 -48 -345.5t-130 -253t-183 -155t-206 -52.5q-80 0 -119 46t-45 136q-4 47 3.5 126.5t46.5 215.5h14.5h25.5
h15q-31 -89 -75 -181t-102 -169.5t-129 -125.5t-156 -48q-67 0 -133 47t-108.5 142t-39.5 242q2 101 36 209t101.5 200t172.5 149.5t249 57.5q62 0 123.5 -12.5t103.5 -41.5l175 32q-13 -53 -29.5 -127t-34 -156.5t-33.5 -164.5t-28 -151q-20 -129 -16 -192.5t39 -63.5
q54 0 111 45t105.5 126t78.5 191.5t30 241.5q0 175 -48 288t-132 177t-193 90t-230 26q-165 0 -313 -65t-262 -186t-179 -291t-65 -378q0 -206 57.5 -347.5t155 -227t220 -124t251.5 -38.5q107 0 187.5 15.5t137.5 37t93 40.5l39 -138q-65 -41 -191 -75.5t-286 -34.5z
M898 190q41 0 87 42.5t91.5 112.5t85 152.5t66.5 165.5t36 150q-23 35 -70.5 49.5t-93.5 14.5q-75 0 -134.5 -36.5t-101.5 -97.5t-65.5 -135t-24.5 -148q-4 -123 26.5 -196.5t97.5 -73.5z" />
    <glyph glyph-name="A" unicode="A" horiz-adv-x="1385" 
d="M283 0h-275l555 1501h266l549 -1501h-281l-357 1095l-43 153l-45 -153zM296 348l41 190h682l41 -190h-764z" />
    <glyph glyph-name="B" unicode="B" horiz-adv-x="1342" 
d="M185 0v1488l124 -2q49 0 100.5 3.5t110.5 7t133 3.5q178 0 291 -44.5t166.5 -125t53.5 -189.5q0 -72 -23.5 -143t-73.5 -124.5t-128 -74.5q90 -6 161.5 -55.5t114 -126.5t42.5 -169q0 -136 -54.5 -240t-186 -163t-364.5 -59q-90 0 -186 5.5t-151 8.5h-130zM443 857
q24 -4 54.5 -5.5t63 -1t62.5 0.5h54q105 0 170.5 62.5t65.5 194.5q0 110 -77.5 160.5t-221.5 50.5q-17 0 -53.5 -1.5t-70.5 -4.5t-47 -8v-448zM443 191q16 -9 56.5 -14t86.5 -7t81 -2q154 0 240 57.5t86 202.5q0 127 -78 186.5t-244 59.5q-26 0 -58 0.5t-64 -0.5t-59.5 -2
t-46.5 -4v-477z" />
    <glyph glyph-name="C" unicode="C" horiz-adv-x="1282" 
d="M91 738q0 185 56 327.5t154.5 240t226.5 147t271 49.5q110 0 185 -11.5t124.5 -24.5t82.5 -21l-37 -230q-17 11 -56 29.5t-107.5 34t-174.5 15.5q-138 0 -242 -65.5t-161.5 -186.5t-57.5 -289q0 -166 55.5 -293t160.5 -199.5t253 -72.5q71 0 143 14t128.5 35.5t82.5 42.5
v-218q-42 -17 -94 -35t-119.5 -30.5t-158.5 -12.5q-219 0 -379.5 94t-248 264t-87.5 396z" />
    <glyph glyph-name="D" unicode="D" horiz-adv-x="1454" 
d="M173 0v1486h41h39.5h39.5q45 0 104.5 4t126 8t133.5 4q365 0 539.5 -188.5t174.5 -528.5q0 -254 -89.5 -434.5t-255 -275t-393.5 -91.5q-84 2 -181 9t-176 7h-34.5h-34.5h-34zM435 196q45 -10 108 -14t122 -3q128 1 225.5 60.5t152.5 185.5t55 326q0 208 -53.5 331
t-160.5 176.5t-267 53.5q-54 0 -102.5 -4t-79.5 -10v-1102z" />
    <glyph glyph-name="E" unicode="E" horiz-adv-x="1191" 
d="M173 0v1486h878v-199h-617v-425h461v-196h-461v-463h685v-203h-946z" />
    <glyph glyph-name="F" unicode="F" horiz-adv-x="1070" 
d="M173 0v1486h874v-199h-612v-448h459v-198h-459v-641h-262z" />
    <glyph glyph-name="G" unicode="G" horiz-adv-x="1422" 
d="M94 736q0 195 55 339t152 239t226.5 141.5t278.5 46.5q111 0 180 -9.5t122 -23t117 -25.5l-10 -229q-69 35 -161.5 59t-253.5 24q-130 0 -228.5 -64t-154 -183.5t-55.5 -288.5q0 -163 46.5 -295t141 -208.5t238.5 -76.5q80 0 156 12t117 36v377l54 -42l-307 15v189h500
v-679q-35 -2 -76.5 -18.5t-99 -36.5t-140 -35.5t-198.5 -15.5q-221 0 -377.5 96t-239.5 265.5t-83 390.5z" />
    <glyph glyph-name="H" unicode="H" horiz-adv-x="1514" 
d="M173 0v1486h262v-638h646v638h260v-1486h-260v652h-646v-652h-262z" />
    <glyph glyph-name="I" unicode="I" horiz-adv-x="658" 
d="M197 0v1486h263v-1486h-263z" />
    <glyph glyph-name="J" unicode="J" horiz-adv-x="724" 
d="M35 -324l-71 135q76 29 153.5 92t108.5 177q23 86 27.5 219t4.5 295v892h262v-888q0 -145 1 -275t-19 -237q-18 -99 -69.5 -173t-120 -124.5t-141.5 -78.5t-136 -34z" />
    <glyph glyph-name="K" unicode="K" horiz-adv-x="1355" 
d="M173 0v1486h257v-715l559 715h296l-593 -734l-40 -38l-272 -312l50 198v-600h-257zM949 112q-40 73 -89.5 153t-102 160.5t-101.5 154.5t-87 136l90 71l88 99q21 -34 65 -101t100.5 -154t117.5 -180.5t116 -182.5t96 -160q11 -18 21.5 -36l21 -36t21.5 -36h-297
q-13 20 -23.5 43t-36.5 69z" />
    <glyph glyph-name="L" unicode="L" horiz-adv-x="1057" 
d="M173 0v1486h259v-1278h569v-208h-828z" />
    <glyph glyph-name="M" unicode="M" horiz-adv-x="1885" 
d="M109 0l157 1486h363l246 -822l75 -324l66 324l233 822h348l179 -1486h-258l-83 878l-26 414l-101 -416l-275 -889h-177l-290 889l-106 416l-29 -414l-74 -878h-248z" />
    <glyph glyph-name="N" unicode="N" horiz-adv-x="1521" 
d="M173 0v1486h239l601 -934l196 -376h-69l-33 444v866h241v-1486h-253l-576 901l-227 426h85l33 -481v-846h-237z" />
    <glyph glyph-name="O" unicode="O" horiz-adv-x="1533" 
d="M761 -16q-210 -4 -362 93.5t-232 272.5t-75 403q5 252 98.5 417.5t249.5 247.5t350 84q201 2 348.5 -91t227 -264.5t74.5 -402.5q-5 -251 -94 -418.5t-240.5 -252.5t-344.5 -89zM767 181q187 0 298 143t111 430q0 152 -44 277t-131.5 199.5t-217.5 74.5
q-116 0 -212.5 -58.5t-155 -183t-58.5 -323.5q0 -151 46 -278.5t137 -204t227 -76.5z" />
    <glyph glyph-name="P" unicode="P" horiz-adv-x="1264" 
d="M173 0v1486h110q94 0 186.5 8t194.5 8q165 0 284 -50.5t183.5 -159.5t64.5 -285q0 -247 -148.5 -384t-431.5 -137q-67 0 -110.5 1t-70.5 1v-488h-262zM435 686q43 -5 86 -7t84 -2q89 0 165 26.5t122 98t46 206.5q0 161 -85.5 237.5t-250.5 71.5q-41 -1 -85 -5t-82 -12
v-614z" />
    <glyph glyph-name="Q" unicode="Q" horiz-adv-x="1543" 
d="M1196 -303q-125 0 -209 28t-149 99t-134 200l119 40h103q32 -63 66 -99t85 -50.5t132 -14.5q39 0 75.5 5t69.5 16v-182q-23 -15 -60 -28.5t-98 -13.5zM761 -16q-210 -4 -362 93.5t-232 272.5t-75 403q5 252 98.5 417.5t249.5 247.5t350 84q201 2 348.5 -91t227 -264.5
t74.5 -402.5q-5 -251 -94 -418.5t-240.5 -252.5t-344.5 -89zM767 181q187 0 298 143t111 430q0 152 -44 277t-131.5 199.5t-217.5 74.5q-116 0 -212.5 -58.5t-155 -183t-58.5 -323.5q0 -151 46 -278.5t137 -204t227 -76.5z" />
    <glyph glyph-name="R" unicode="R" horiz-adv-x="1352" 
d="M435 0h-262v1486h36.5h35.5h37q72 0 170.5 8t223.5 8q109 0 203 -23t165 -74t110.5 -133.5t39.5 -202.5q0 -138 -46 -231t-130.5 -146t-199.5 -71q-41 -6 -83.5 -10.5t-111.5 -6.5t-188 -2v-602zM435 787q21 -3 62.5 -4.5t84.5 -1.5h69q138 0 211 71t73 208
q0 80 -27 136.5t-91.5 86.5t-176.5 30q-55 0 -108.5 -4.5t-96.5 -13.5v-508zM1006 0q-13 19 -22 40t-32 69q-31 67 -60 149.5t-62 159.5t-76.5 129.5t-102.5 60.5l89 69l158 -3q59 -25 104.5 -88.5t84 -147t74.5 -170t76 -158.5q15 -28 30.5 -55.5t30.5 -54.5h-292z" />
    <glyph glyph-name="S" unicode="S" horiz-adv-x="1143" 
d="M557 -16q-99 0 -187.5 14.5t-152 35t-91.5 37.5l49 210q37 -22 95.5 -43t128 -35t140.5 -14q131 0 198.5 43t67.5 140q0 66 -34.5 110.5t-105 85.5t-178.5 92q-92 45 -176 107.5t-138 148t-54 197.5q0 106 42 180.5t113.5 120.5t162 67t187.5 21q142 0 234.5 -27.5
t131.5 -52.5l-48 -203q-50 33 -123.5 59t-188.5 26q-72 0 -131 -18.5t-94 -55t-35 -93.5q0 -64 28.5 -108.5t91 -83.5t163.5 -91q79 -39 152.5 -83t132 -97t92.5 -121.5t34 -156.5q0 -135 -63.5 -227t-177.5 -138.5t-266 -46.5z" />
    <glyph glyph-name="T" unicode="T" horiz-adv-x="1256" 
d="M497 0v1286h-446v200h1154v-200h-446v-1286h-262z" />
    <glyph glyph-name="U" unicode="U" horiz-adv-x="1452" 
d="M733 -16q-211 0 -339.5 77t-186 220t-57.5 341l1 864h260l-2 -819q0 -191 38 -294.5t111.5 -143.5t179.5 -40q97 0 165.5 41t105 144.5t36.5 292.5v819h258v-868q0 -304 -140 -469t-430 -165z" />
    <glyph glyph-name="V" unicode="V" horiz-adv-x="1338" 
d="M564 -10l-553 1496h277l319 -926l70 -249l71 249l304 926h274l-541 -1496h-221z" />
    <glyph glyph-name="W" unicode="W" horiz-adv-x="1896" 
d="M416 -15l-403 1501h264l214 -926l66 -402h-35l70 402l254 926h209l261 -926l84 -403h-40l64 403l200 926h259l-386 -1501h-258l-254 916l-78 451l77 -1l-74 -450l-257 -916h-237z" />
    <glyph glyph-name="X" unicode="X" horiz-adv-x="1308" 
d="M36 0l484 805l10 -93l-488 774l288 2l233 -390l128 -219h-52l126 219l221 388h275l-474 -781l-21 93l505 -798h-291l-248 424l-124 211l67 2l-120 -213l-243 -424h-276z" />
    <glyph glyph-name="Y" unicode="Y" horiz-adv-x="1235" 
d="M487 0v624l35 -129l-524 991h281l301 -603l67 -168h-38l56 168l298 603h275l-520 -992l34 128v-622h-265z" />
    <glyph glyph-name="Z" unicode="Z" horiz-adv-x="1233" 
d="M99 0l-43 82l719 1129l57 74h-696v201h1000l45 -78l-704 -1119l-72 -89h724v-200h-1030z" />
    <glyph glyph-name="bracketleft" unicode="[" horiz-adv-x="807" 
d="M176 60v1392q0 96 16 149.5t56.5 75t115.5 21.5q100 0 166 -7.5t143 -16.5v-134h-259v-1578l259 -2v-127q-77 -10 -143 -17t-166 -7q-76 0 -116.5 22.5t-56 77.5t-15.5 151z" />
    <glyph glyph-name="backslash" unicode="\" horiz-adv-x="915" 
d="M817 -354l-553 1916h-218l553 -1916h218z" />
    <glyph glyph-name="bracketright" unicode="]" horiz-adv-x="807" 
d="M631 60v1392q0 96 -16 149.5t-56.5 75t-115.5 21.5q-100 0 -166 -7.5t-143 -16.5v-134h259v-1578l-259 -2v-127q77 -10 143 -17t166 -7q76 0 116.5 22.5t56 77.5t15.5 151z" />
    <glyph glyph-name="asciicircum" unicode="^" horiz-adv-x="1337" 
d="M176 494l409 1002h167l410 -1002h-251l-249 677h15l-247 -677h-254z" />
    <glyph glyph-name="underscore" unicode="_" horiz-adv-x="1655" 
d="M-38 -404v145h1732v-145h-1732z" />
    <glyph glyph-name="grave" unicode="`" horiz-adv-x="611" 
d="M561 1352l-124 -107q-31 15 -84.5 56t-113.5 95t-111 110.5t-76 99.5l178 147q44 -62 100.5 -133t116.5 -140.5t114 -127.5z" />
    <glyph glyph-name="a" unicode="a" horiz-adv-x="1140" 
d="M438 -16q-102 0 -180.5 40.5t-123 114.5t-44.5 174q0 106 57 180t153 115q65 27 140.5 42t151.5 21.5t141 6.5l49 -62l-49 -86q-38 0 -89.5 -5.5t-100.5 -16.5t-83 -27q-47 -21 -80 -55t-33 -97q0 -83 46 -124.5t131 -41.5q44 0 88 12.5t77 29t44 29.5l48 -54l-34 -86
q-44 -40 -125.5 -75t-183.5 -35zM989 0h-242v166h-14v609q0 94 -49.5 124t-140.5 30q-63 0 -130.5 -12t-125 -30.5t-91.5 -38.5l-58 175q27 16 94.5 41.5t157 46t177.5 20.5q135 0 229 -31t143.5 -112t49.5 -231v-757z" />
    <glyph glyph-name="b" unicode="b" horiz-adv-x="1250" 
d="M165 1622h254v-444l-8 -206l8 -6v-801l-254 -103v1560zM590 -18q-66 0 -135 8.5t-129.5 21.5t-103.5 26.5t-57 23.5l254 139q25 -19 72.5 -29t116.5 -10q82 0 147 47t103 138.5t40 223.5q1 192 -66.5 277t-186.5 85q-74 0 -133 -27.5t-93 -53.5l-36 128q23 24 63.5 59
t107 62t166.5 27q118 0 218 -57.5t161 -175t61 -297.5q0 -183 -71 -321.5t-199 -216.5t-300 -78z" />
    <glyph glyph-name="c" unicode="c" horiz-adv-x="982" 
d="M78 544q0 165 60 297t180.5 209.5t303.5 77.5q107 0 182 -18.5t102 -37.5l-37 -199q-40 27 -98 41.5t-141 14.5q-72 0 -139.5 -34.5t-112.5 -110.5t-49 -202q-4 -134 35 -223.5t108 -134.5t154 -45q80 0 149 19.5t105 40.5l44 -152q-50 -48 -144 -75.5t-200 -27.5
q-164 0 -275.5 74t-169 200.5t-57.5 285.5z" />
    <glyph glyph-name="d" unicode="d" horiz-adv-x="1247" 
d="M847 0v145l-15 9v777l8 6l-8 241v448h254v-1626h-239zM531 -16q-118 0 -218 58t-161.5 176t-61.5 299q0 183 70 320.5t196 214t295 76.5q103 0 172 -23.5t88 -40.5l-79 -162q-28 24 -76.5 33.5t-113.5 9.5q-80 0 -145 -45t-103.5 -135t-39.5 -223q-2 -188 65 -273.5
t187 -85.5q73 0 133 26.5t93 52.5l38 -127q-24 -25 -65 -60.5t-107.5 -63t-166.5 -27.5z" />
    <glyph glyph-name="e" unicode="e" horiz-adv-x="1130" 
d="M606 -16q-246 0 -378.5 152.5t-132.5 422.5q0 162 59.5 290t174 202.5t281.5 76.5q85 2 160.5 -23t134 -77.5t93.5 -134t37 -193.5q0 -62 -1 -112.5t-9 -87.5h-786l20 152h538q5 80 -9.5 148.5t-59 109.5t-130.5 41q-75 0 -133.5 -41.5t-90 -141t-26.5 -273.5
q5 -120 48 -190.5t114 -100.5t160 -30q41 0 97 8t107 21.5t78 29.5l47 -144q-37 -30 -101 -53.5t-140.5 -37.5t-151.5 -14z" />
    <glyph glyph-name="f" unicode="f" horiz-adv-x="811" 
d="M235 0v930h-159v145l159 39v101q0 123 37.5 205.5t98.5 131.5t133.5 69.5t141.5 20.5q56 0 101 -7.5t61 -12.5v-191q-27 9 -63 14.5t-98 5.5q-68 0 -111.5 -51t-43.5 -155v-131h266v-184h-266v-930h-257z" />
    <glyph glyph-name="g" unicode="g" horiz-adv-x="1225" 
d="M581 -504q-234 1 -362.5 83.5t-128.5 246.5q0 61 29.5 109t75 81.5t94.5 50.5l156 -20q-19 -17 -44 -38t-43.5 -55t-18.5 -90q0 -63 24.5 -109.5t79.5 -72.5t148 -26q84 0 154 18.5t112 55.5t42 94q0 56 -20.5 95.5t-76.5 61t-164 21.5h-135q-51 0 -90 3.5t-71 11.5
q-15 4 -24.5 10.5t-24.5 10.5q-75 27 -103 74.5t-28 101.5q1 39 20 80t57 79t93 67l153 -34q-37 -15 -64.5 -48.5t-27.5 -70.5q0 -57 30 -77.5t101 -20.5h200q129 0 211 -26.5t127.5 -71t63 -100t17.5 -113.5q0 -91 -44.5 -162.5t-123 -120.5t-180 -74t-214.5 -25zM571 379
q-129 0 -231.5 45.5t-161 128.5t-58.5 193q0 128 58.5 212.5t161 126t234.5 43.5q131 2 235.5 -38t166 -122.5t61.5 -210.5q0 -122 -58 -206.5t-163 -128t-245 -43.5zM576 536q98 0 156.5 44.5t58.5 169.5q0 106 -50.5 161t-154.5 55q-60 0 -109.5 -17.5t-78.5 -63.5
t-29 -131q0 -88 48.5 -153t158.5 -65zM911 926l-58 104q21 27 85 58.5t144 31.5h118v-194h-289z" />
    <glyph glyph-name="h" unicode="h" horiz-adv-x="1277" 
d="M165 0v1626h255v-451l-13 -210l-11 27q39 32 100 63t132 52t143 23q182 5 265.5 -100.5t83.5 -345.5v-684h-256v674q0 135 -41 192.5t-154 52.5q-49 -1 -118.5 -23.5t-130.5 -69.5v-826h-255z" />
    <glyph glyph-name="i" unicode="i" horiz-adv-x="603" 
d="M174 0v1112h255v-1112h-255zM288 1298q-63 0 -109 40t-46 107q0 46 25.5 83.5t65.5 60t84 22.5q75 0 114.5 -42t39.5 -105q0 -71 -52 -118.5t-122 -47.5z" />
    <glyph glyph-name="j" unicode="j" horiz-adv-x="589" 
d="M-86 -478v177q15 -7 53 -13.5t65 -6.5q84 0 116.5 70t32.5 221v1142h254v-1061q0 -200 -43.5 -319.5t-126 -173.5t-199.5 -54q-19 0 -51.5 2.5t-61.5 6.5t-39 9zM298 1298q-63 0 -109 40t-46 107q0 46 25.5 83.5t65.5 60t84 22.5q75 0 114.5 -42t39.5 -105
q0 -71 -52 -118.5t-122 -47.5z" />
    <glyph glyph-name="k" unicode="k" horiz-adv-x="1171" 
d="M1125 1114l-733 -769l18 57l4 -192v-210h-249v662v960h249v-804l-9 -275l-52 40l475 531h297zM524 532l172 169l472 -701h-288z" />
    <glyph glyph-name="l" unicode="l" horiz-adv-x="599" 
d="M171 0v1626h257v-1626h-257z" />
    <glyph glyph-name="m" unicode="m" horiz-adv-x="1946" 
d="M167 0v1112h230l2 -118q41 29 101.5 60t132 52.5t143.5 23.5q119 4 192 -37t107.5 -136.5t34.5 -258.5v-698h-255v674q0 89 -15 144.5t-54.5 80t-116.5 21.5q-49 -1 -118.5 -24.5t-129.5 -69.5v-826h-254zM1098 824l-52 160q37 31 100 64.5t140.5 57t159.5 24.5
q117 2 193 -38t113 -135t37 -258v-699h-256v674q0 90 -14 145t-53.5 79.5t-116.5 21.5q-58 -1 -127.5 -28.5t-123.5 -67.5z" />
    <glyph glyph-name="n" unicode="n" horiz-adv-x="1272" 
d="M167 0v1112h230l2 -120q40 29 101.5 60.5t133.5 53.5t145 24q177 5 256.5 -92.5t79.5 -341.5v-696h-257v674q0 137 -36.5 195t-152.5 52q-33 -1 -76 -12t-87.5 -31.5t-84.5 -51.5v-826h-254z" />
    <glyph glyph-name="o" unicode="o" horiz-adv-x="1208" 
d="M594 -16q-139 0 -236.5 48t-157.5 131t-87 190.5t-26 226.5q3 179 72 301t187.5 184.5t267.5 62.5q187 0 299 -82.5t161 -218t47 -293.5q-3 -179 -71.5 -301.5t-186.5 -185.5t-269 -63zM601 164q131 -2 195 98.5t64 281.5q0 111 -26 202t-81.5 145.5t-144.5 55.5
q-131 2 -195 -94.5t-64 -277.5q0 -111 26 -204t81.5 -149.5t144.5 -57.5z" />
    <glyph glyph-name="p" unicode="p" horiz-adv-x="1248" 
d="M161 -494v1608h235v-136l20 -24v-852l-2 -57l2 -181v-358h-255zM597 -16q-103 0 -170.5 25t-87.5 41l77 163q30 -26 77 -37t111 -11q82 0 147 47t103.5 137.5t39.5 220.5q2 193 -65.5 278t-187.5 85q-73 0 -131.5 -27.5t-93.5 -54.5l-36 128q23 24 63.5 59.5t106.5 62.5
t166 27q118 0 219 -57.5t162 -175t61 -297.5q0 -183 -70 -321t-196 -215.5t-295 -77.5z" />
    <glyph glyph-name="q" unicode="q" horiz-adv-x="1248" 
d="M834 -136l4 242l-4 89v759l22 24l10 97l223 39v-1608h-255v358zM532 -16q-118 0 -218.5 58t-162 176t-61.5 299q0 183 70.5 320.5t196.5 214t295 76.5q103 0 184.5 -24t104.5 -42l-107 -160q-29 24 -77.5 33.5t-112.5 9.5q-81 0 -146 -45t-103.5 -135t-39.5 -223
q-2 -188 65 -273.5t187 -85.5q73 0 133.5 26.5t93.5 52.5l36 -127q-23 -25 -64 -60.5t-107.5 -63t-166.5 -27.5z" />
    <glyph glyph-name="r" unicode="r" horiz-adv-x="830" 
d="M390 787l-14 173q16 37 64 76.5t113.5 66.5t135.5 27q35 0 62 -3t40 -11v-243q-15 9 -45 18t-95 9t-115.5 -18.5t-87 -45t-58.5 -49.5zM149 0v1112h219l16 -152l20 -74v-886h-255z" />
    <glyph glyph-name="s" unicode="s" horiz-adv-x="973" 
d="M101 68l32 185q16 -12 64 -31.5t115 -35.5t138 -17q94 -1 142 30.5t48 88.5q0 41 -29.5 71t-81 55.5t-116.5 53.5q-96 42 -165.5 91t-106.5 114t-36 155q2 101 58.5 167.5t151 99.5t210.5 33q111 0 192.5 -22t108.5 -38l-33 -189q-19 15 -57.5 31t-88.5 25.5t-101 9.5
q-101 0 -150.5 -27.5t-50.5 -77.5q-1 -67 48.5 -100.5t124.5 -67.5q109 -50 191.5 -98.5t128.5 -111t46 -153.5q0 -160 -111 -242.5t-302 -82.5q-80 0 -154.5 12.5t-131.5 32t-84 39.5z" />
    <glyph glyph-name="t" unicode="t" horiz-adv-x="860" 
d="M486 -16q-87 0 -149 28t-95.5 94.5t-33.5 184.5v640h-141v137q74 21 115 37t60 64q8 22 18.5 52.5t23 67.5t26.5 79h153v-254h308v-183h-308v-516q0 -107 10 -156t37 -62.5t78 -13.5q28 0 63.5 6.5t68 16.5t50.5 21l39 -145q-29 -24 -81 -46.5t-115 -37t-127 -14.5z" />
    <glyph glyph-name="u" unicode="u" horiz-adv-x="1231" 
d="M487 -16q-112 0 -180.5 34t-104 98t-48 151.5t-12.5 193.5v653h254v-653q0 -123 20 -181.5t61.5 -76t107.5 -17.5q39 0 83 11.5t82 28t59 31.5v857h255v-1130h-135q-44 0 -69 13t-25 64v77l5 -39q-44 -31 -104 -57t-125 -42t-124 -16z" />
    <glyph glyph-name="v" unicode="v" horiz-adv-x="1114" 
d="M448 -16l-435 1130h275l199 -594l110 -382h-61l102 382l192 594h270l-425 -1130h-227z" />
    <glyph glyph-name="w" unicode="w" horiz-adv-x="1638" 
d="M355 -16l-339 1130h254l159 -608l84 -380h-64l82 378l171 610h245l172 -608l81 -376h-61l82 370l155 614h246l-343 -1130h-231l-190 674l-63 311h50l-66 -311l-185 -674h-239z" />
    <glyph glyph-name="x" unicode="x" horiz-adv-x="1109" 
d="M19 0l414 594l3 -66l-418 586h287l220 -337l71 -119h-76l61 121l217 335h285l-420 -582v75l428 -607h-291l-224 346l-81 131h86l-65 -133l-207 -344h-290z" />
    <glyph glyph-name="y" unicode="y" horiz-adv-x="1117" 
d="M134 -479v205q17 -6 51 -10.5t52 -4.5q44 0 101.5 21.5t110 89t80.5 206.5l14 -28h-108l-395 1114h273l219 -696l92 -322h-54l82 322l184 696h273l-366 -1146q-65 -201 -156.5 -306.5t-199.5 -136.5q-24 -9 -62 -15t-65 -6q-15 0 -42.5 2.5t-52.5 6.5t-31 8z" />
    <glyph glyph-name="z" unicode="z" horiz-adv-x="1034" 
d="M97 0l-42 80l517 764l58 84h-511l1 186h818l34 -94l-512 -754l-59 -83h548v-183h-852z" />
    <glyph glyph-name="braceleft" unicode="{" horiz-adv-x="964" 
d="M326 58v489q0 31 -41.5 60t-99.5 49t-107 25v156q49 5 107 22.5t99.5 44.5t41.5 59v489q0 144 45.5 199.5t157.5 55.5q81 0 152 -8t134 -16v-138h-257v-583q0 -29 -10.5 -53t-30.5 -44q-24 -25 -61.5 -46t-81 -38.5t-84.5 -34.5v24q41 -15 84 -34t81.5 -42t62.5 -50
q19 -19 29.5 -41.5t10.5 -50.5v-590h257v-126q-63 -17 -134 -25.5t-152 -8.5q-112 0 -157.5 56t-45.5 200z" />
    <glyph glyph-name="bar" unicode="|" horiz-adv-x="837" 
d="M308 -184v1922h221v-1922h-221z" />
    <glyph glyph-name="braceright" unicode="}" horiz-adv-x="964" 
d="M637 58v489q0 31 41.5 60t99.5 49t107 25v156q-49 5 -107 22.5t-99.5 44.5t-41.5 59v489q0 144 -45.5 199.5t-157.5 55.5q-81 0 -152 -8t-134 -16v-138h257v-583q0 -29 10.5 -53t30.5 -44q24 -25 61.5 -46t81 -38.5t84.5 -34.5v24q-41 -15 -84 -34t-81.5 -42t-62.5 -50
q-19 -19 -29.5 -41.5t-10.5 -50.5v-590h-257v-126q63 -17 134 -25.5t152 -8.5q112 0 157.5 56t45.5 200z" />
    <glyph glyph-name="asciitilde" unicode="~" horiz-adv-x="1407" 
d="M325 662l-120 102q15 40 58 90t109.5 87t147.5 37q73 0 122 -24.5t87.5 -56t77.5 -56t91 -24.5q69 0 116 33t81 74l106 -113q-17 -48 -59.5 -94.5t-107.5 -77.5t-149 -31q-73 0 -120 24.5t-83 56.5t-74.5 56.5t-93.5 24.5q-69 0 -111.5 -33t-77.5 -75z" />
    <glyph glyph-name="uni00A0" unicode="&#xa0;" horiz-adv-x="359" 
 />
    <glyph glyph-name="exclamdown" unicode="&#xa1;" horiz-adv-x="606" 
d="M403 795l35 -1221h-285l28 1221h222zM308 1334q67 0 112.5 -47.5t46.5 -117.5q1 -51 -23 -93t-64.5 -67t-86.5 -25q-77 0 -118 48.5t-42 114.5q0 52 24 94.5t63.5 67.5t87.5 25z" />
    <glyph glyph-name="cent" unicode="&#xa2;" horiz-adv-x="1159" 
d="M591 1042l8 302h155l-6 -302h-157zM559 -210l6 300h156l-6 -300h-156zM133 544q0 165 60 297t180.5 209.5t303.5 77.5q107 0 182 -18.5t102 -37.5l-37 -199q-40 27 -98 41.5t-141 14.5q-72 0 -139.5 -34.5t-112.5 -110.5t-49 -202q-4 -134 35 -223.5t108 -134.5t154 -45
q80 0 148.5 19.5t104.5 40.5l45 -152q-50 -48 -144 -75.5t-200 -27.5q-164 0 -275.5 74t-169 200.5t-57.5 285.5z" />
    <glyph glyph-name="sterling" unicode="&#xa3;" horiz-adv-x="1518" 
d="M130 91q0 49 31 87.5t88.5 62t137.5 27.5q13 23 19 59.5t8.5 77.5t2.5 77v531q0 146 56.5 256t165 171.5t264.5 61.5q126 0 208 -30t129 -67l-113 -186q-37 32 -92 59t-138 27q-55 0 -106.5 -22.5t-84.5 -93.5t-32 -214l2 -322q1 -168 -16 -272t-69 -157q57 -10 102 -26
t97.5 -28t130.5 -12q132 0 182.5 52t50.5 124q0 53 -24 93.5t-46 50.5l179 90q23 -13 53.5 -45t53.5 -83t23 -119q0 -166 -109 -253t-324 -87q-104 0 -183 17t-139 39.5t-105.5 38t-83.5 13.5q-30 -33 -85 -63t-114 -30q-26 0 -53.5 11t-47 32t-19.5 52zM243 720v161h758
v-161h-758z" />
    <glyph glyph-name="currency" unicode="&#xa4;" horiz-adv-x="1501" 
d="M749 319q-119 0 -218 58t-158 157t-59 220q0 123 59 222t157.5 157t218.5 58t219 -58t158 -157t59 -222q0 -121 -59 -220t-158 -157t-219 -58zM751 503q67 0 121.5 34.5t86.5 91.5t32 125q0 70 -32 127t-86.5 91.5t-121.5 34.5t-122.5 -34.5t-88 -91.5t-32.5 -127
q0 -68 32.5 -125t88 -91.5t122.5 -34.5zM416 983l-219 220l129 134l219 -223zM1085 980l-130 135l226 226l130 -133zM327 171l-130 132l218 221l132 -132zM1174 174l-219 221l130 133l219 -222z" />
    <glyph glyph-name="yen" unicode="&#xa5;" horiz-adv-x="1511" 
d="M634 0v812l61 -189l-542 863h273l269 -468l95 -197h-17h-20.5h-17.5l88 201l278 464h269l-541 -850l52 176v-812h-247zM268 646v159h960v-159h-960zM268 275v159h960v-159h-960z" />
    <glyph glyph-name="brokenbar" unicode="&#xa6;" horiz-adv-x="837" 
d="M308 -182v798h221v-798h-221zM308 934v804h221v-804h-221z" />
    <glyph glyph-name="section" unicode="&#xa7;" horiz-adv-x="1341" 
d="M227 1298q0 96 41.5 160.5t109.5 103.5t148.5 55.5t157.5 16.5q139 0 228.5 -23t131.5 -49l-41 -189q-34 23 -109 49.5t-204 25.5q-60 0 -112 -13.5t-83.5 -43.5t-31.5 -80q0 -53 37 -93t97.5 -74t133.5 -67t145 -71.5t133 -87t98 -114t37 -153.5q0 -112 -61 -204.5
t-154 -158.5l-107 56q20 26 43.5 72.5t40 98t16.5 92.5q0 68 -37.5 117t-99.5 86t-136 70.5t-148.5 70t-136.5 83t-99.5 111t-37.5 153.5zM1120 153q0 -96 -43.5 -161.5t-114.5 -105t-155.5 -57t-166.5 -17.5q-137 0 -248.5 29.5t-156.5 60.5l41 189q40 -28 134 -61t224 -32
q67 0 124 14t92 45t35 83q0 56 -49.5 95.5t-127.5 72t-165 68t-165 83.5t-127.5 117.5t-49.5 170.5q0 106 60.5 196t149.5 151l115 -58q-19 -26 -42.5 -68.5t-41 -89.5t-17.5 -88q0 -64 38 -108.5t100 -77.5t136 -61.5t148 -60.5t135.5 -75t99.5 -104t38 -150z" />
    <glyph glyph-name="dieresis" unicode="&#xa8;" horiz-adv-x="890" 
d="M204 1309q-61 0 -102.5 39t-41.5 104q0 67 51 114t115 47q71 0 106 -41.5t35 -102.5q0 -69 -48.5 -114.5t-114.5 -45.5zM666 1309q-61 0 -102.5 39t-41.5 104q0 67 50.5 114t115.5 47q72 0 106.5 -41.5t34.5 -102.5q0 -69 -48.5 -114.5t-114.5 -45.5z" />
    <glyph glyph-name="copyright" unicode="&#xa9;" horiz-adv-x="2068" 
d="M184 940q0 179 65 334t181.5 272.5t271 183.5t332.5 66t332 -66t270.5 -183.5t182 -272.5t65.5 -334q0 -178 -65.5 -334t-182 -274.5t-270.5 -185t-332 -66.5t-332.5 66.5t-271 185t-181.5 274.5t-65 334zM322 940q0 -151 53 -284t149 -234.5t226 -158.5t284 -57
q153 0 282.5 57t225.5 158.5t149 234.5t53 284q0 152 -53 284.5t-149 234t-225.5 158.5t-282.5 57q-154 0 -284 -57t-226 -158.5t-149 -234t-53 -284.5zM599 933q0 138 55.5 247t163.5 173t265 64q91 0 151.5 -19t87.5 -34l-35 -174q-37 25 -92 41.5t-124 16.5
q-125 0 -195 -83t-70 -210q0 -160 73.5 -239.5t187.5 -79.5q77 0 138 20t96 39l44 -134q-47 -40 -131 -67.5t-182 -27.5q-134 0 -231 65t-149 172t-53 230z" />
    <glyph glyph-name="ordfeminine" unicode="&#xaa;" horiz-adv-x="1023" 
d="M414 658q-132 0 -212.5 66.5t-80.5 184.5q0 100 50 160.5t129 90.5q57 22 119 34t123.5 17t116.5 5l42 -65l-42 -63q-67 0 -130 -4.5t-114 -29.5q-42 -22 -60.5 -52t-18.5 -77q0 -54 39.5 -81t94.5 -27q67 0 120.5 21.5t68.5 34.5l42 -62l-32 -60q-30 -33 -99.5 -63
t-155.5 -30zM880 666h-96q-55 0 -85 7t-30 66v62h-10v468q0 89 -44.5 111.5t-135.5 22.5q-45 0 -102 -13t-106 -30.5t-70 -32.5l-56 133q18 17 79 43t142 46.5t157 20.5q169 0 263 -64t94 -232v-135v-473z" />
    <glyph glyph-name="guillemotleft" unicode="&#xab;" horiz-adv-x="1916" 
d="M234 494v207l613 416l63 -182l-490 -381v92l490 -377l-63 -180zM971 494v207l633 416l63 -182l-510 -381v92l510 -377l-63 -180z" />
    <glyph glyph-name="logicalnot" unicode="&#xac;" horiz-adv-x="1439" 
d="M236 649v183h968v-521h-216v338h-752z" />
    <glyph glyph-name="uni00AD" unicode="&#xad;" horiz-adv-x="1190" 
d="M180 552v202h830v-202h-830z" />
    <glyph glyph-name="registered" unicode="&#xae;" horiz-adv-x="2068" 
d="M182 940q0 179 65.5 334t182 272.5t271.5 183.5t333 66t332.5 -66t271.5 -183.5t182.5 -272.5t65.5 -334q0 -178 -65.5 -334t-182.5 -274.5t-271.5 -185t-332.5 -66.5t-333 66.5t-271.5 185t-182 274.5t-65.5 334zM321 940q0 -151 53.5 -284t150 -234.5t226.5 -158.5
t283 -57t282.5 57t226 158.5t150 234.5t53.5 284q0 152 -53.5 284.5t-150 233.5t-226 158t-282.5 57t-283 -57t-226.5 -158t-150 -233.5t-53.5 -284.5zM709 469v941h40.5h40.5q37 0 76 1t83 2.5t95 1.5q182 0 266.5 -78t84.5 -190q0 -106 -41.5 -186t-145.5 -112
q38 -26 65.5 -67t49.5 -87t46 -89q15 -27 33 -54t56 -82h-215q-21 26 -36 54.5t-32 63.5q-19 43 -41.5 93t-52.5 90t-75 54q-10 -1 -28.5 -1.5t-39.5 -0.5h-41v-354h-188zM897 962q14 -2 36.5 -3.5t46 -1.5h39.5q91 0 137 38.5t46 127.5q0 73 -41 115t-161 39
q-31 -1 -53.5 -2.5t-49.5 -9.5v-303z" />
    <glyph glyph-name="macron" unicode="&#xaf;" horiz-adv-x="654" 
d="M50 1387v179h554v-179h-554z" />
    <glyph glyph-name="degree" unicode="&#xb0;" horiz-adv-x="909" 
d="M111 1248q0 99 45 176t123.5 121.5t175.5 44.5q96 0 174 -45t124 -122t46 -175q0 -99 -46 -176.5t-123.5 -122t-174.5 -44.5q-96 0 -174 45.5t-124 123t-46 174.5zM285 1248q0 -77 50 -127t120 -50t119 50t49 127t-49 127t-119 50q-71 0 -120.5 -49.5t-49.5 -127.5z" />
    <glyph glyph-name="plusminus" unicode="&#xb1;" horiz-adv-x="1363" 
d="M240 0v179h880v-179h-880zM579 268v219l8 176l-161 -7h-212v199h212l161 -8l-8 176v215h203v-215l-8 -176l143 8h232v-199h-232l-143 7l8 -176v-219h-203z" />
    <glyph glyph-name="uni00B2" unicode="&#xb2;" horiz-adv-x="1000" 
d="M112 800l-32 92q62 31 136.5 83.5t148 119t134.5 142.5t97.5 157t36.5 160q0 83 -51 128t-153 45q-78 0 -153 -31.5t-115 -68.5l-73 129q34 35 93 69t136 56t165 22q141 0 224.5 -48.5t120 -126.5t36.5 -166q0 -116 -60.5 -218t-164.5 -193.5t-238 -178.5l500 14v-186
h-788z" />
    <glyph glyph-name="uni00B3" unicode="&#xb3;" horiz-adv-x="875" 
d="M100 820l-2 142q38 -7 83 -12t78 -5q101 0 174 20.5t112 62t39 101.5q0 43 -21.5 82t-71.5 62t-136 17l-106 -26l-30 136q53 11 98.5 25.5t78.5 29.5q67 30 103 69.5t37 89.5q2 61 -47.5 91.5t-125.5 30.5q-87 0 -145 -26.5t-94 -51.5l-66 139q23 23 76 48.5t122.5 43.5
t142.5 18q117 0 197.5 -32t121.5 -90.5t41 -137.5q0 -108 -73.5 -181.5t-175.5 -108.5l-1 18q107 2 175 -36t100.5 -96.5t32.5 -121.5q0 -98 -59 -173.5t-170 -119t-267 -43.5q-79 0 -137.5 14t-83.5 21z" />
    <glyph glyph-name="acute" unicode="&#xb4;" horiz-adv-x="609" 
d="M173 1248l-126 107q53 57 111.5 122t115 135t103.5 141l178 -147q-19 -38 -70 -94t-113 -112t-116.5 -98t-82.5 -54z" />
    <glyph glyph-name="uni00B5" unicode="&#xb5;" horiz-adv-x="1343" 
d="M191 -362v1476h253v-695q0 -130 54.5 -183t167.5 -53q34 0 69.5 11.5t68 29t55.5 35.5v855h255v-864q0 -45 11.5 -59.5t27.5 -14.5q9 0 29.5 5t47.5 21l30 -118q-7 -10 -38 -34.5t-79.5 -46t-108.5 -21.5q-59 0 -96.5 30.5t-36.5 105.5q-22 -27 -54.5 -58.5t-82.5 -53.5
t-121 -22q-110 0 -181 35t-114 129l41 10l36 -520h-234z" />
    <glyph glyph-name="paragraph" unicode="&#xb6;" horiz-adv-x="1393" 
d="M562 0v758q-133 0 -227.5 47.5t-144.5 149t-50 263.5q0 210 142.5 331t427.5 121q39 0 102 -2.5t135 -6t140 -6t115 -3.5v-1652h-208v1499h-223v-1499h-209z" />
    <glyph glyph-name="periodcentered" unicode="&#xb7;" horiz-adv-x="606" 
d="M296 554q-66 0 -112.5 47.5t-47.5 117.5q-1 51 23.5 93t64.5 67t86 25q77 0 118 -48.5t42 -114.5q1 -52 -23 -94.5t-64 -67.5t-87 -25z" />
    <glyph glyph-name="cedilla" unicode="&#xb8;" horiz-adv-x="487" 
d="M41 -426l16 148q13 -7 34.5 -9.5t43.5 -2.5q48 0 83 34.5t39 111.5q7 68 -1.5 107.5t-22.5 66.5l102 4l45 -4q23 -22 37 -62t19.5 -88.5t1.5 -100.5q-8 -123 -79.5 -178t-161.5 -55q-27 0 -59 3.5t-59 10t-38 14.5z" />
    <glyph glyph-name="uni00B9" unicode="&#xb9;" horiz-adv-x="751" 
d="M327 800v834q-36 -17 -69.5 -27t-73 -15.5t-94.5 -8.5l-30 125q100 18 170 55t116 78t75 71l4 -1l126 -35l-1 -1076h-223z" />
    <glyph glyph-name="ordmasculine" unicode="&#xba;" horiz-adv-x="1021" 
d="M96 1126q2 121 41 206t101.5 137.5t138 77t150.5 24.5q130 0 218.5 -59t134 -163.5t43.5 -242.5q-3 -161 -63.5 -259.5t-155.5 -143t-198 -44.5q-199 0 -305.5 127.5t-104.5 339.5zM326 1126q0 -139 49.5 -222t140.5 -82q88 2 133 66.5t45 215.5q0 142 -45 223.5
t-133 79.5q-83 -1 -136.5 -65t-53.5 -216z" />
    <glyph glyph-name="guillemotright" unicode="&#xbb;" horiz-adv-x="1937" 
d="M1700 494l-619 -404l-63 178l497 378v-92l-497 380l63 183l619 -416v-207zM935 494l-626 -404l-63 178l503 378v-92l-503 380l63 183l626 -416v-207z" />
    <glyph glyph-name="onequarter" unicode="&#xbc;" horiz-adv-x="2153" 
d="M327 780v834q-36 -17 -69.5 -27t-73 -15.5t-94.5 -8.5l-30 125q100 18 170 55t116 78t75 71l4 -1l126 -35l-1 -1076h-223zM1382 1916h183l-978 -2018h-183zM1210 241l-53 88q28 53 67.5 129t84.5 164.5t90.5 178t84.5 171t66 142.5h270q-75 -125 -139 -234.5t-120 -206
t-108 -181.5l-58 -92h709v-159h-894zM1714 0v442l24 282h185v-724h-209z" />
    <glyph glyph-name="onehalf" unicode="&#xbd;" horiz-adv-x="2273" 
d="M327 780v834q-36 -17 -69.5 -27t-73 -15.5t-94.5 -8.5l-30 125q100 18 170 55t116 78t75 71l4 -1l126 -35l-1 -1076h-223zM1382 1916h183l-978 -2018h-183zM1385 0l-32 92q62 31 136.5 83.5t148 119t134.5 142.5t97.5 157t36.5 160q0 83 -51 128t-153 45
q-78 0 -153 -31.5t-115 -68.5l-73 129q34 35 93 69t136 56t165 22q141 0 224.5 -48.5t120 -126.5t36.5 -166q0 -116 -60.5 -218t-164.5 -193.5t-238 -178.5l500 14v-186h-788z" />
    <glyph glyph-name="threequarters" unicode="&#xbe;" horiz-adv-x="2329" 
d="M100 800l-2 142q38 -7 83 -12t78 -5q101 0 174 20.5t112 62t39 101.5q0 43 -21.5 82t-71.5 62t-136 17l-106 -26l-30 136q53 11 98.5 25.5t78.5 29.5q67 30 103 69.5t37 89.5q2 61 -47.5 91.5t-125.5 30.5q-87 0 -145 -26.5t-94 -51.5l-66 139q23 23 76 48.5t122.5 43.5
t142.5 18q117 0 197.5 -32t121.5 -90.5t41 -137.5q0 -108 -73.5 -181.5t-175.5 -108.5l-1 18q107 2 175 -36t100.5 -96.5t32.5 -121.5q0 -98 -59 -173.5t-170 -119t-267 -43.5q-79 0 -137.5 14t-83.5 21zM1558 1916h183l-978 -2018h-183zM1386 241l-53 88q28 53 67.5 129
t84.5 164.5t90.5 178t84.5 171t66 142.5h270q-75 -125 -139 -234.5t-120 -206t-108 -181.5l-58 -92h709v-159h-894zM1890 0v442l24 282h185v-724h-209z" />
    <glyph glyph-name="questiondown" unicode="&#xbf;" horiz-adv-x="1053" 
d="M693 997q30 -40 55.5 -108t27.5 -157q2 -72 -36 -126.5t-96 -98.5t-117.5 -85t-102 -86.5t-49.5 -105.5q-32 -159 64 -245.5t294 -86.5q76 0 122 9t67 15v-186q-14 -9 -50.5 -20t-86 -18.5t-103.5 -7.5q-168 0 -284 43t-184 117t-92 168t-9 195q8 81 41 138.5t80 100.5
t98 78.5t97 69.5t76 74t33 92q7 61 -6.5 111.5t-32.5 119.5h194zM572 1510q62 0 107.5 -45.5t45.5 -114.5q1 -47 -23 -87t-63 -64.5t-83 -24.5q-74 0 -113.5 46.5t-41.5 109.5q-1 51 22.5 91.5t63 64.5t85.5 24z" />
    <glyph glyph-name="Agrave" unicode="&#xc0;" horiz-adv-x="1385" 
d="M283 0h-275l555 1501h266l549 -1501h-281l-357 1095l-43 153l-45 -153zM296 348l41 190h682l41 -190h-764zM823 1717l-112 -102q-34 12 -85 43.5t-107 73.5t-104.5 85.5t-77.5 79.5l175 130q3 -10 34 -43t75 -76t89 -85t77 -71.5t36 -34.5z" />
    <glyph glyph-name="Aacute" unicode="&#xc1;" horiz-adv-x="1385" 
d="M283 0h-275l555 1501h266l549 -1501h-281l-357 1095l-43 153l-45 -153zM296 348l41 190h682l41 -190h-764zM640 1615l-113 100q4 4 36.5 34t77.5 72.5t90.5 86t77 76.5t34.5 40l171 -129q-33 -37 -80 -80t-100 -83.5t-103.5 -71.5t-90.5 -45z" />
    <glyph glyph-name="Acircumflex" unicode="&#xc2;" horiz-adv-x="1385" 
d="M283 0h-275l555 1501h266l549 -1501h-281l-357 1095l-43 153l-45 -153zM296 348l41 190h682l41 -190h-764zM474 1607l-145 70l260 297h204l262 -295l-149 -72l-216 195z" />
    <glyph glyph-name="Atilde" unicode="&#xc3;" horiz-adv-x="1385" 
d="M283 0h-275l555 1501h266l549 -1501h-281l-357 1095l-43 153l-45 -153zM296 348l41 190h682l41 -190h-764zM838 1618q-58 0 -97 20.5t-68.5 47.5t-58 48t-65.5 21q-43 0 -70 -12t-44.5 -33t-30.5 -49l-105 46q15 58 46.5 109.5t80.5 84t116 32.5q56 0 95 -20t69 -47
t59.5 -47t66.5 -20q36 0 63.5 11t46.5 32t32 50l107 -51q-9 -62 -44 -112.5t-87 -80.5t-112 -30z" />
    <glyph glyph-name="Adieresis" unicode="&#xc4;" horiz-adv-x="1385" 
d="M283 0h-275l555 1501h266l549 -1501h-281l-357 1095l-43 153l-45 -153zM296 348l41 190h682l41 -190h-764zM433 1620q-61 0 -103.5 38.5t-42.5 103.5q0 69 51 115.5t116 46.5q73 0 109.5 -40.5t36.5 -102.5q0 -71 -49 -116t-118 -45zM929 1620q-62 0 -103.5 38.5
t-41.5 103.5q0 69 51 115.5t115 46.5q73 0 110 -40.5t37 -102.5q0 -71 -49.5 -116t-118.5 -45z" />
    <glyph glyph-name="Aring" unicode="&#xc5;" horiz-adv-x="1385" 
d="M283 0h-275l555 1501h266l549 -1501h-281l-357 1095l-43 153l-45 -153zM296 348l41 190h682l41 -190h-764zM688 1477q-149 0 -236 72.5t-85 201.5q1 96 49 153.5t122.5 82.5t153.5 25q149 0 237 -67t88 -198q-1 -96 -47 -155.5t-120.5 -87t-161.5 -27.5zM688 1612
q74 -1 120 28t46 107q0 66 -47.5 99t-118.5 33q-58 2 -107 -24t-49 -105q0 -63 42.5 -100t113.5 -38z" />
    <glyph glyph-name="AE" unicode="&#xc6;" horiz-adv-x="1848" 
d="M-85 0l713 1486l214 -110l-643 -1376h-284zM827 1486l73 -142h-239l-33 142h199zM239 363l43 187h679l31 -187h-753zM827 0v1486h876v-199h-617v-423h459v-197h-459v-464h686v-203h-945z" />
    <glyph glyph-name="Ccedilla" unicode="&#xc7;" horiz-adv-x="1282" 
d="M91 738q0 185 56 327.5t154.5 240t226.5 147t271 49.5q110 0 185 -11.5t124.5 -24.5t82.5 -21l-37 -230q-17 11 -56 29.5t-107.5 34t-174.5 15.5q-138 0 -242 -65.5t-161.5 -186.5t-57.5 -289q0 -166 55.5 -293t160.5 -199.5t253 -72.5q71 0 143 14t128.5 35.5t82.5 42.5
v-218q-42 -17 -94 -35t-119.5 -30.5t-158.5 -12.5q-219 0 -379.5 94t-248 264t-87.5 396zM473 -426l16 148q14 -7 35 -9.5t44 -2.5q57 0 92 34.5t36 111.5q2 64 -7.5 105.5t-23.5 68.5l102 4l46 -4q20 -22 33 -59.5t19 -84.5t6 -98q-1 -84 -36 -137.5t-90 -79t-115 -25.5
q-28 0 -60 3.5t-58.5 10t-38.5 14.5z" />
    <glyph glyph-name="Egrave" unicode="&#xc8;" horiz-adv-x="1191" 
d="M173 0v1486h878v-199h-617v-425h461v-196h-461v-463h685v-203h-946zM762 1717l-112 -102q-34 12 -85 43.5t-107 73.5t-104.5 85.5t-77.5 79.5l175 130q3 -10 34 -43t75 -76t89 -85t77 -71.5t36 -34.5z" />
    <glyph glyph-name="Eacute" unicode="&#xc9;" horiz-adv-x="1191" 
d="M173 0v1486h878v-199h-617v-425h461v-196h-461v-463h685v-203h-946zM579 1615l-113 100q4 4 36.5 34t77.5 72.5t90.5 86t77 76.5t34.5 40l171 -129q-33 -37 -80 -80t-100 -83.5t-103.5 -71.5t-90.5 -45z" />
    <glyph glyph-name="Ecircumflex" unicode="&#xca;" horiz-adv-x="1191" 
d="M173 0v1486h878v-199h-617v-425h461v-196h-461v-463h685v-203h-946zM413 1607l-145 70l260 297h204l262 -295l-149 -72l-216 195z" />
    <glyph glyph-name="Edieresis" unicode="&#xcb;" horiz-adv-x="1191" 
d="M173 0v1486h878v-199h-617v-425h461v-196h-461v-463h685v-203h-946zM372 1620q-61 0 -103.5 38.5t-42.5 103.5q0 69 51 115.5t116 46.5q73 0 109.5 -40.5t36.5 -102.5q0 -71 -49 -116t-118 -45zM868 1620q-62 0 -103.5 38.5t-41.5 103.5q0 69 51 115.5t115 46.5
q73 0 110 -40.5t37 -102.5q0 -71 -49.5 -116t-118.5 -45z" />
    <glyph glyph-name="Igrave" unicode="&#xcc;" horiz-adv-x="658" 
d="M197 0v1486h263v-1486h-263zM461 1717l-112 -102q-34 12 -85 43.5t-107 73.5t-104.5 85.5t-77.5 79.5l175 130q3 -10 34 -43t75 -76t89 -85t77 -71.5t36 -34.5z" />
    <glyph glyph-name="Iacute" unicode="&#xcd;" horiz-adv-x="658" 
d="M197 0v1486h263v-1486h-263zM278 1615l-113 100q4 4 36.5 34t77.5 72.5t90.5 86t77 76.5t34.5 40l171 -129q-33 -37 -80 -80t-100 -83.5t-103.5 -71.5t-90.5 -45z" />
    <glyph glyph-name="Icircumflex" unicode="&#xce;" horiz-adv-x="658" 
d="M197 0v1486h263v-1486h-263zM112 1607l-145 70l260 297h204l262 -295l-149 -72l-216 195z" />
    <glyph glyph-name="Idieresis" unicode="&#xcf;" horiz-adv-x="658" 
d="M197 0v1486h263v-1486h-263zM71 1620q-61 0 -103.5 38.5t-42.5 103.5q0 69 51 115.5t116 46.5q73 0 109.5 -40.5t36.5 -102.5q0 -71 -49 -116t-118 -45zM567 1620q-62 0 -103.5 38.5t-41.5 103.5q0 69 51 115.5t115 46.5q73 0 110 -40.5t37 -102.5q0 -71 -49.5 -116
t-118.5 -45z" />
    <glyph glyph-name="Eth" unicode="&#xd0;" horiz-adv-x="1466" 
d="M64 692v168h740v-168h-740zM173 0v1486h41h39.5h39.5q45 0 104.5 4t126 8t133.5 4q365 0 539.5 -188.5t174.5 -528.5q0 -254 -89.5 -434.5t-255 -275t-393.5 -91.5q-84 2 -181 9t-176 7h-34.5h-34.5h-34zM435 196q45 -10 108 -14t122 -3q128 1 225.5 60.5t152.5 185.5
t55 326q0 208 -53.5 331t-160.5 176.5t-267 53.5q-54 0 -102.5 -4t-79.5 -10v-1102z" />
    <glyph glyph-name="Ntilde" unicode="&#xd1;" horiz-adv-x="1521" 
d="M173 0v1486h239l601 -934l196 -376h-69l-33 444v866h241v-1486h-253l-576 901l-227 426h85l33 -481v-846h-237zM917 1618q-58 0 -97 20.5t-68.5 47.5t-58 48t-65.5 21q-43 0 -70 -12t-44.5 -33t-30.5 -49l-105 46q15 58 46.5 109.5t80.5 84t116 32.5q56 0 95 -20t69 -47
t59.5 -47t66.5 -20q36 0 63.5 11t46.5 32t32 50l107 -51q-9 -62 -44 -112.5t-87 -80.5t-112 -30z" />
    <glyph glyph-name="Ograve" unicode="&#xd2;" horiz-adv-x="1533" 
d="M761 -16q-210 -4 -362 93.5t-232 272.5t-75 403q5 252 98.5 417.5t249.5 247.5t350 84q201 2 348.5 -91t227 -264.5t74.5 -402.5q-5 -251 -94 -418.5t-240.5 -252.5t-344.5 -89zM767 181q187 0 298 143t111 430q0 152 -44 277t-131.5 199.5t-217.5 74.5
q-116 0 -212.5 -58.5t-155 -183t-58.5 -323.5q0 -151 46 -278.5t137 -204t227 -76.5zM919 1717l-112 -102q-34 12 -85 43.5t-107 73.5t-104.5 85.5t-77.5 79.5l175 130q3 -10 34 -43t75 -76t89 -85t77 -71.5t36 -34.5z" />
    <glyph glyph-name="Oacute" unicode="&#xd3;" horiz-adv-x="1533" 
d="M761 -16q-210 -4 -362 93.5t-232 272.5t-75 403q5 252 98.5 417.5t249.5 247.5t350 84q201 2 348.5 -91t227 -264.5t74.5 -402.5q-5 -251 -94 -418.5t-240.5 -252.5t-344.5 -89zM767 181q187 0 298 143t111 430q0 152 -44 277t-131.5 199.5t-217.5 74.5
q-116 0 -212.5 -58.5t-155 -183t-58.5 -323.5q0 -151 46 -278.5t137 -204t227 -76.5zM736 1615l-113 100q4 4 36.5 34t77.5 72.5t90.5 86t77 76.5t34.5 40l171 -129q-33 -37 -80 -80t-100 -83.5t-103.5 -71.5t-90.5 -45z" />
    <glyph glyph-name="Ocircumflex" unicode="&#xd4;" horiz-adv-x="1533" 
d="M761 -16q-210 -4 -362 93.5t-232 272.5t-75 403q5 252 98.5 417.5t249.5 247.5t350 84q201 2 348.5 -91t227 -264.5t74.5 -402.5q-5 -251 -94 -418.5t-240.5 -252.5t-344.5 -89zM767 181q187 0 298 143t111 430q0 152 -44 277t-131.5 199.5t-217.5 74.5
q-116 0 -212.5 -58.5t-155 -183t-58.5 -323.5q0 -151 46 -278.5t137 -204t227 -76.5zM570 1607l-145 70l260 297h204l262 -295l-149 -72l-216 195z" />
    <glyph glyph-name="Otilde" unicode="&#xd5;" horiz-adv-x="1533" 
d="M761 -16q-210 -4 -362 93.5t-232 272.5t-75 403q5 252 98.5 417.5t249.5 247.5t350 84q201 2 348.5 -91t227 -264.5t74.5 -402.5q-5 -251 -94 -418.5t-240.5 -252.5t-344.5 -89zM767 181q187 0 298 143t111 430q0 152 -44 277t-131.5 199.5t-217.5 74.5
q-116 0 -212.5 -58.5t-155 -183t-58.5 -323.5q0 -151 46 -278.5t137 -204t227 -76.5zM934 1618q-58 0 -97 20.5t-68.5 47.5t-58 48t-65.5 21q-43 0 -70 -12t-44.5 -33t-30.5 -49l-105 46q15 58 46.5 109.5t80.5 84t116 32.5q56 0 95 -20t69 -47t59.5 -47t66.5 -20
q36 0 63.5 11t46.5 32t32 50l107 -51q-9 -62 -44 -112.5t-87 -80.5t-112 -30z" />
    <glyph glyph-name="Odieresis" unicode="&#xd6;" horiz-adv-x="1533" 
d="M761 -16q-210 -4 -362 93.5t-232 272.5t-75 403q5 252 98.5 417.5t249.5 247.5t350 84q201 2 348.5 -91t227 -264.5t74.5 -402.5q-5 -251 -94 -418.5t-240.5 -252.5t-344.5 -89zM767 181q187 0 298 143t111 430q0 152 -44 277t-131.5 199.5t-217.5 74.5
q-116 0 -212.5 -58.5t-155 -183t-58.5 -323.5q0 -151 46 -278.5t137 -204t227 -76.5zM529 1620q-61 0 -103.5 38.5t-42.5 103.5q0 69 51 115.5t116 46.5q73 0 109.5 -40.5t36.5 -102.5q0 -71 -49 -116t-118 -45zM1025 1620q-62 0 -103.5 38.5t-41.5 103.5q0 69 51 115.5
t115 46.5q73 0 110 -40.5t37 -102.5q0 -71 -49.5 -116t-118.5 -45z" />
    <glyph glyph-name="multiply" unicode="&#xd7;" horiz-adv-x="1346" 
d="M204 415l340 341l-340 352l143 140l327 -358l326 358l144 -140l-340 -350l340 -343l-144 -141l-327 346l-326 -346z" />
    <glyph glyph-name="Oslash" unicode="&#xd8;" horiz-adv-x="1543" 
d="M359 -205l-119 33l947 1889l118 -33zM765 -16q-209 -4 -361 93.5t-232 272.5t-76 402q5 253 98.5 418.5t250 247.5t350.5 84q201 2 348.5 -91t227 -264.5t75.5 -402.5q-5 -252 -94 -419.5t-241 -252t-346 -88.5zM771 181q187 0 298 143.5t111 429.5q0 152 -43.5 276.5
t-131 199.5t-218.5 75q-115 0 -211.5 -59t-155.5 -183.5t-59 -322.5q0 -150 46 -277.5t137 -204.5t227 -77z" />
    <glyph glyph-name="Ugrave" unicode="&#xd9;" horiz-adv-x="1452" 
d="M733 -16q-211 0 -339.5 77t-186 220t-57.5 341l1 864h260l-2 -819q0 -191 38 -294.5t111.5 -143.5t179.5 -40q97 0 165.5 41t105 144.5t36.5 292.5v819h258v-868q0 -304 -140 -469t-430 -165zM867 1717l-112 -102q-34 12 -85 43.5t-107 73.5t-104.5 85.5t-77.5 79.5
l175 130q3 -10 34 -43t75 -76t89 -85t77 -71.5t36 -34.5z" />
    <glyph glyph-name="Uacute" unicode="&#xda;" horiz-adv-x="1452" 
d="M733 -16q-211 0 -339.5 77t-186 220t-57.5 341l1 864h260l-2 -819q0 -191 38 -294.5t111.5 -143.5t179.5 -40q97 0 165.5 41t105 144.5t36.5 292.5v819h258v-868q0 -304 -140 -469t-430 -165zM684 1615l-113 100q4 4 36.5 34t77.5 72.5t90.5 86t77 76.5t34.5 40l171 -129
q-33 -37 -80 -80t-100 -83.5t-103.5 -71.5t-90.5 -45z" />
    <glyph glyph-name="Ucircumflex" unicode="&#xdb;" horiz-adv-x="1452" 
d="M733 -16q-211 0 -339.5 77t-186 220t-57.5 341l1 864h260l-2 -819q0 -191 38 -294.5t111.5 -143.5t179.5 -40q97 0 165.5 41t105 144.5t36.5 292.5v819h258v-868q0 -304 -140 -469t-430 -165zM518 1607l-145 70l260 297h204l262 -295l-149 -72l-216 195z" />
    <glyph glyph-name="Udieresis" unicode="&#xdc;" horiz-adv-x="1452" 
d="M733 -16q-211 0 -339.5 77t-186 220t-57.5 341l1 864h260l-2 -819q0 -191 38 -294.5t111.5 -143.5t179.5 -40q97 0 165.5 41t105 144.5t36.5 292.5v819h258v-868q0 -304 -140 -469t-430 -165zM477 1620q-61 0 -103.5 38.5t-42.5 103.5q0 69 51 115.5t116 46.5
q73 0 109.5 -40.5t36.5 -102.5q0 -71 -49 -116t-118 -45zM973 1620q-62 0 -103.5 38.5t-41.5 103.5q0 69 51 115.5t115 46.5q73 0 110 -40.5t37 -102.5q0 -71 -49.5 -116t-118.5 -45z" />
    <glyph glyph-name="Yacute" unicode="&#xdd;" horiz-adv-x="1235" 
d="M487 0v624l35 -129l-524 991h281l301 -603l67 -168h-38l56 168l298 603h275l-520 -992l34 128v-622h-265zM575 1615l-113 100q4 4 36.5 34t77.5 72.5t90.5 86t77 76.5t34.5 40l171 -129q-33 -37 -80 -80t-100 -83.5t-103.5 -71.5t-90.5 -45z" />
    <glyph glyph-name="Thorn" unicode="&#xde;" horiz-adv-x="1260" 
d="M622 266q-74 0 -123.5 3.5t-78.5 4.5v192q46 -8 87.5 -9.5t79.5 -1.5q90 0 168 24t125.5 92.5t47.5 202.5q0 146 -85.5 214.5t-259.5 62.5q-41 0 -83.5 -4.5t-79.5 -16.5l-60 195q65 2 143 8.5t162 6.5q250 0 385 -114t135 -348q0 -242 -144 -377t-419 -135zM173 0v1486
h262v-1486h-262z" />
    <glyph glyph-name="germandbls" unicode="&#xdf;" horiz-adv-x="1301" 
d="M183 0v949q0 210 75.5 340.5t202.5 191.5t283 61q114 0 203 -33.5t140 -96t51 -151.5q0 -66 -22.5 -114t-56 -85t-67 -67.5t-56.5 -62t-23 -70.5q0 -54 35 -94.5t86 -80t102.5 -88t86 -115.5t34.5 -164q0 -95 -34 -160t-92 -103.5t-129 -55.5t-145 -17q-76 0 -138.5 10.5
t-90.5 22.5v190q24 -12 77.5 -30t131.5 -18q37 0 74 12.5t61 43.5t24 86q0 62 -32 107t-78.5 85t-93 85t-78 104.5t-31.5 145.5q0 68 30 116t69.5 88.5t69.5 85.5t30 109q0 69 -45.5 105.5t-131.5 36.5q-79 0 -138.5 -40t-93.5 -136.5t-34 -265.5v-927h-256zM48 931v152
l164 38l31 -105l-53 -85h-142z" />
    <glyph glyph-name="agrave" unicode="&#xe0;" horiz-adv-x="1140" 
d="M438 -16q-102 0 -180.5 40.5t-123 114.5t-44.5 174q0 106 57 180t153 115q65 27 140.5 42t151.5 21.5t141 6.5l49 -62l-49 -86q-38 0 -89.5 -5.5t-100.5 -16.5t-83 -27q-47 -21 -80 -55t-33 -97q0 -83 46 -124.5t131 -41.5q44 0 88 12.5t77 29t44 29.5l48 -54l-34 -86
q-44 -40 -125.5 -75t-183.5 -35zM989 0h-242v166h-14v609q0 94 -49.5 124t-140.5 30q-63 0 -130.5 -12t-125 -30.5t-91.5 -38.5l-58 175q27 16 94.5 41.5t157 46t177.5 20.5q135 0 229 -31t143.5 -112t49.5 -231v-757zM654 1363l-102 -102q-31 15 -85 56t-113.5 95.5
t-110.5 110.5t-77 99l157 142q44 -63 100.5 -134t116.5 -140t114 -127z" />
    <glyph glyph-name="aacute" unicode="&#xe1;" horiz-adv-x="1140" 
d="M438 -16q-102 0 -180.5 40.5t-123 114.5t-44.5 174q0 106 57 180t153 115q65 27 140.5 42t151.5 21.5t141 6.5l49 -62l-49 -86q-38 0 -89.5 -5.5t-100.5 -16.5t-83 -27q-47 -21 -80 -55t-33 -97q0 -83 46 -124.5t131 -41.5q44 0 88 12.5t77 29t44 29.5l48 -54l-34 -86
q-44 -40 -125.5 -75t-183.5 -35zM989 0h-242v166h-14v609q0 94 -49.5 124t-140.5 30q-63 0 -130.5 -12t-125 -30.5t-91.5 -38.5l-58 175q27 16 94.5 41.5t157 46t177.5 20.5q135 0 229 -31t143.5 -112t49.5 -231v-757zM498 1261l-116 100q54 57 112.5 125.5t114.5 142
t102 144.5l167 -135q-16 -31 -52.5 -75t-82.5 -92t-94 -92.5t-88 -76t-63 -41.5z" />
    <glyph glyph-name="acircumflex" unicode="&#xe2;" horiz-adv-x="1140" 
d="M438 -16q-102 0 -180.5 40.5t-123 114.5t-44.5 174q0 106 57 180t153 115q65 27 140.5 42t151.5 21.5t141 6.5l49 -62l-49 -86q-38 0 -89.5 -5.5t-100.5 -16.5t-83 -27q-47 -21 -80 -55t-33 -97q0 -83 46 -124.5t131 -41.5q44 0 88 12.5t77 29t44 29.5l48 -54l-34 -86
q-44 -40 -125.5 -75t-183.5 -35zM989 0h-242v166h-14v609q0 94 -49.5 124t-140.5 30q-63 0 -130.5 -12t-125 -30.5t-91.5 -38.5l-58 175q27 16 94.5 41.5t157 46t177.5 20.5q135 0 229 -31t143.5 -112t49.5 -231v-757zM303 1239l-122 68l284 345h188l276 -345l-130 -67
l-244 214z" />
    <glyph glyph-name="atilde" unicode="&#xe3;" horiz-adv-x="1140" 
d="M438 -16q-102 0 -180.5 40.5t-123 114.5t-44.5 174q0 106 57 180t153 115q65 27 140.5 42t151.5 21.5t141 6.5l49 -62l-49 -86q-38 0 -89.5 -5.5t-100.5 -16.5t-83 -27q-47 -21 -80 -55t-33 -97q0 -83 46 -124.5t131 -41.5q44 0 88 12.5t77 29t44 29.5l48 -54l-34 -86
q-44 -40 -125.5 -75t-183.5 -35zM989 0h-242v166h-14v609q0 94 -49.5 124t-140.5 30q-63 0 -130.5 -12t-125 -30.5t-91.5 -38.5l-58 175q27 16 94.5 41.5t157 46t177.5 20.5q135 0 229 -31t143.5 -112t49.5 -231v-757zM688 1287q-54 0 -90.5 21.5t-64 49t-54.5 49t-61 21.5
q-39 0 -64 -12t-41.5 -32.5t-29.5 -48.5l-98 46q15 58 45.5 109t78 83.5t113.5 32.5q52 0 88 -20.5t64 -48.5t54.5 -48.5t59.5 -20.5q35 0 60 11t43 31.5t30 48.5l102 -50q-10 -63 -43.5 -112.5t-83 -79.5t-108.5 -30z" />
    <glyph glyph-name="adieresis" unicode="&#xe4;" horiz-adv-x="1140" 
d="M438 -16q-102 0 -180.5 40.5t-123 114.5t-44.5 174q0 106 57 180t153 115q65 27 140.5 42t151.5 21.5t141 6.5l49 -62l-49 -86q-38 0 -89.5 -5.5t-100.5 -16.5t-83 -27q-47 -21 -80 -55t-33 -97q0 -83 46 -124.5t131 -41.5q44 0 88 12.5t77 29t44 29.5l48 -54l-34 -86
q-44 -40 -125.5 -75t-183.5 -35zM989 0h-242v166h-14v609q0 94 -49.5 124t-140.5 30q-63 0 -130.5 -12t-125 -30.5t-91.5 -38.5l-58 175q27 16 94.5 41.5t157 46t177.5 20.5q135 0 229 -31t143.5 -112t49.5 -231v-757zM315 1296q-61 0 -102.5 39.5t-41.5 103.5
q0 68 51.5 114.5t113.5 46.5q72 0 107 -41t35 -102q0 -70 -48.5 -115.5t-114.5 -45.5zM777 1296q-60 0 -102 39.5t-42 103.5q0 68 51 114.5t115 46.5q72 0 106.5 -41t34.5 -102q0 -70 -48.5 -115.5t-114.5 -45.5z" />
    <glyph glyph-name="aring" unicode="&#xe5;" horiz-adv-x="1140" 
d="M438 -16q-102 0 -180.5 40.5t-123 114.5t-44.5 174q0 106 57 180t153 115q65 27 140.5 42t151.5 21.5t141 6.5l49 -62l-49 -86q-38 0 -89.5 -5.5t-100.5 -16.5t-83 -27q-47 -21 -80 -55t-33 -97q0 -83 46 -124.5t131 -41.5q44 0 88 12.5t77 29t44 29.5l48 -54l-34 -86
q-44 -40 -125.5 -75t-183.5 -35zM989 0h-242v166h-14v609q0 94 -49.5 124t-140.5 30q-63 0 -130.5 -12t-125 -30.5t-91.5 -38.5l-58 175q27 16 94.5 41.5t157 46t177.5 20.5q135 0 229 -31t143.5 -112t49.5 -231v-757zM551 1289q-148 0 -235 76.5t-86 204.5q1 97 49.5 155.5
t122.5 85.5t153 27q149 0 238 -69.5t87 -200.5q-1 -97 -47 -158.5t-121 -91t-161 -29.5zM552 1424q72 -1 117.5 31.5t45.5 110.5q0 68 -47 104t-116 36q-40 0 -75.5 -12.5t-58.5 -42t-23 -81.5q0 -64 43 -104.5t114 -41.5z" />
    <glyph glyph-name="ae" unicode="&#xe6;" horiz-adv-x="1766" 
d="M1245 -16q-245 0 -377.5 148t-132.5 427q0 162 59 290t173.5 202.5t281.5 76.5q85 2 160.5 -22.5t134 -77.5t93 -134.5t37.5 -194.5q0 -60 -2 -111t-10 -89h-781l18 153h537q5 81 -9.5 149.5t-59 109.5t-129.5 41q-75 0 -133 -42t-89.5 -141.5t-27.5 -273.5
q6 -123 48 -192.5t113 -98.5t161 -29q41 0 97 8t108 21.5t79 29.5l45 -145q-36 -30 -100 -53.5t-141 -37.5t-153 -14zM92 307q0 106 60 182t154 118q95 40 209 55.5t219 15.5l48 -62l-44 -86q-77 0 -151 -12.5t-124 -36.5q-47 -21 -79.5 -55t-32.5 -100q0 -81 44 -122
t128 -41q51 0 105 16.5t97.5 46t64.5 66.5l51 -40l29 -68q-81 -107 -191.5 -153.5t-233.5 -46.5q-99 0 -179 38t-127 110.5t-47 174.5zM205 858l-60 165q22 12 89.5 38t160.5 48t192 22q122 0 205.5 -30.5t126 -112t42.5 -235.5v-172l-227 -1v193q0 70 -22.5 106t-69.5 48.5
t-120 12.5q-52 0 -116 -13.5t-119 -32.5t-82 -36z" />
    <glyph glyph-name="ccedilla" unicode="&#xe7;" horiz-adv-x="982" 
d="M78 544q0 165 60 297t180.5 209.5t303.5 77.5q107 0 182 -18.5t102 -37.5l-37 -199q-40 27 -98 41.5t-141 14.5q-72 0 -139.5 -34.5t-112.5 -110.5t-49 -202q-4 -134 35 -223.5t108 -134.5t154 -45q80 0 149 19.5t105 40.5l44 -152q-50 -48 -144 -75.5t-200 -27.5
q-164 0 -275.5 74t-169 200.5t-57.5 285.5zM205 -426l16 148q14 -7 35 -9.5t44 -2.5q57 0 92 34.5t36 111.5q2 64 -7.5 105.5t-23.5 68.5l102 4l46 -4q20 -22 33 -59.5t19 -84.5t6 -98q-1 -84 -36 -137.5t-90 -79t-115 -25.5q-28 0 -60 3.5t-58.5 10t-38.5 14.5z" />
    <glyph glyph-name="egrave" unicode="&#xe8;" horiz-adv-x="1130" 
d="M606 -16q-246 0 -378.5 152.5t-132.5 422.5q0 162 59.5 290t174 202.5t281.5 76.5q85 2 160.5 -23t134 -77.5t93.5 -134t37 -193.5q0 -62 -1 -112.5t-9 -87.5h-786l20 152h538q5 80 -9.5 148.5t-59 109.5t-130.5 41q-75 0 -133.5 -41.5t-90 -141t-26.5 -273.5
q5 -120 48 -190.5t114 -100.5t160 -30q41 0 97 8t107 21.5t78 29.5l47 -144q-37 -30 -101 -53.5t-140.5 -37.5t-151.5 -14zM701 1363l-102 -102q-31 15 -85 56t-113.5 95.5t-110.5 110.5t-77 99l157 142q44 -63 100.5 -134t116.5 -140t114 -127z" />
    <glyph glyph-name="eacute" unicode="&#xe9;" horiz-adv-x="1130" 
d="M606 -16q-246 0 -378.5 152.5t-132.5 422.5q0 162 59.5 290t174 202.5t281.5 76.5q85 2 160.5 -23t134 -77.5t93.5 -134t37 -193.5q0 -62 -1 -112.5t-9 -87.5h-786l20 152h538q5 80 -9.5 148.5t-59 109.5t-130.5 41q-75 0 -133.5 -41.5t-90 -141t-26.5 -273.5
q5 -120 48 -190.5t114 -100.5t160 -30q41 0 97 8t107 21.5t78 29.5l47 -144q-37 -30 -101 -53.5t-140.5 -37.5t-151.5 -14zM545 1261l-116 100q54 57 112.5 125.5t114.5 142t102 144.5l167 -135q-16 -31 -52.5 -75t-82.5 -92t-94 -92.5t-88 -76t-63 -41.5z" />
    <glyph glyph-name="ecircumflex" unicode="&#xea;" horiz-adv-x="1130" 
d="M606 -16q-246 0 -378.5 152.5t-132.5 422.5q0 162 59.5 290t174 202.5t281.5 76.5q85 2 160.5 -23t134 -77.5t93.5 -134t37 -193.5q0 -62 -1 -112.5t-9 -87.5h-786l20 152h538q5 80 -9.5 148.5t-59 109.5t-130.5 41q-75 0 -133.5 -41.5t-90 -141t-26.5 -273.5
q5 -120 48 -190.5t114 -100.5t160 -30q41 0 97 8t107 21.5t78 29.5l47 -144q-37 -30 -101 -53.5t-140.5 -37.5t-151.5 -14zM350 1239l-122 68l284 345h188l276 -345l-130 -67l-244 214z" />
    <glyph glyph-name="edieresis" unicode="&#xeb;" horiz-adv-x="1130" 
d="M606 -16q-246 0 -378.5 152.5t-132.5 422.5q0 162 59.5 290t174 202.5t281.5 76.5q85 2 160.5 -23t134 -77.5t93.5 -134t37 -193.5q0 -62 -1 -112.5t-9 -87.5h-786l20 152h538q5 80 -9.5 148.5t-59 109.5t-130.5 41q-75 0 -133.5 -41.5t-90 -141t-26.5 -273.5
q5 -120 48 -190.5t114 -100.5t160 -30q41 0 97 8t107 21.5t78 29.5l47 -144q-37 -30 -101 -53.5t-140.5 -37.5t-151.5 -14zM362 1296q-61 0 -102.5 39.5t-41.5 103.5q0 68 51.5 114.5t113.5 46.5q72 0 107 -41t35 -102q0 -70 -48.5 -115.5t-114.5 -45.5zM824 1296
q-60 0 -102 39.5t-42 103.5q0 68 51 114.5t115 46.5q72 0 106.5 -41t34.5 -102q0 -70 -48.5 -115.5t-114.5 -45.5z" />
    <glyph glyph-name="igrave" unicode="&#xec;" horiz-adv-x="603" 
d="M174 0v1112h255v-1112h-255zM399 1363l-102 -102q-31 15 -85 56t-113.5 95.5t-110.5 110.5t-77 99l157 142q44 -63 100.5 -134t116.5 -140t114 -127z" />
    <glyph glyph-name="iacute" unicode="&#xed;" horiz-adv-x="603" 
d="M174 0v1112h255v-1112h-255zM243 1261l-116 100q54 57 112.5 125.5t114.5 142t102 144.5l167 -135q-16 -31 -52.5 -75t-82.5 -92t-94 -92.5t-88 -76t-63 -41.5z" />
    <glyph glyph-name="icircumflex" unicode="&#xee;" horiz-adv-x="603" 
d="M174 0v1112h255v-1112h-255zM48 1239l-122 68l284 345h188l276 -345l-130 -67l-244 214z" />
    <glyph glyph-name="idieresis" unicode="&#xef;" horiz-adv-x="603" 
d="M174 0v1112h255v-1112h-255zM60 1296q-61 0 -102.5 39.5t-41.5 103.5q0 68 51.5 114.5t113.5 46.5q72 0 107 -41t35 -102q0 -70 -48.5 -115.5t-114.5 -45.5zM522 1296q-60 0 -102 39.5t-42 103.5q0 68 51 114.5t115 46.5q72 0 106.5 -41t34.5 -102q0 -70 -48.5 -115.5
t-114.5 -45.5z" />
    <glyph glyph-name="eth" unicode="&#xf0;" horiz-adv-x="1201" 
d="M609 -26q-157 -2 -274 68t-181 198t-64 300q0 179 62.5 310.5t176 203t267.5 70.5q91 0 156 -33.5t105.5 -86.5t55.5 -111l-82 41q-23 154 -108.5 280.5t-204.5 214.5q-11 8 -24.5 18.5t-24.5 17.5q-59 42 -123 76.5t-131 56.5l53 141q95 -29 174 -65t152 -84
q14 -9 33 -21t31 -21q149 -100 253.5 -244.5t160.5 -321t56 -372.5q0 -213 -67 -354t-184 -210.5t-268 -71.5zM617 153q75 0 132 47t89 136.5t32 214.5q0 44 0.5 89.5t-0.5 90.5t-5 89q-14 42 -74.5 82.5t-172.5 40.5q-133 0 -200.5 -109.5t-67.5 -291.5q0 -176 68.5 -282.5
t198.5 -106.5zM422 1258l-127 94l167 192l25 30q17 16 46 50.5t58.5 72t50 63.5l20.5 26l129 -94l-20.5 -24.5t-50.5 -60t-61 -69t-51 -52.5l-24 -34z" />
    <glyph glyph-name="ntilde" unicode="&#xf1;" horiz-adv-x="1272" 
d="M167 0v1112h230l2 -120q40 29 101.5 60.5t133.5 53.5t145 24q177 5 256.5 -92.5t79.5 -341.5v-696h-257v674q0 137 -36.5 195t-152.5 52q-33 -1 -76 -12t-87.5 -31.5t-84.5 -51.5v-826h-254zM780 1287q-54 0 -90.5 21.5t-64 49t-54.5 49t-61 21.5q-39 0 -64 -12
t-41.5 -32.5t-29.5 -48.5l-98 46q15 58 45.5 109t78 83.5t113.5 32.5q52 0 88 -20.5t64 -48.5t54.5 -48.5t59.5 -20.5q35 0 60 11t43 31.5t30 48.5l102 -50q-10 -63 -43.5 -112.5t-83 -79.5t-108.5 -30z" />
    <glyph glyph-name="ograve" unicode="&#xf2;" horiz-adv-x="1208" 
d="M594 -16q-139 0 -236.5 48t-157.5 131t-87 190.5t-26 226.5q3 179 72 301t187.5 184.5t267.5 62.5q187 0 299 -82.5t161 -218t47 -293.5q-3 -179 -71.5 -301.5t-186.5 -185.5t-269 -63zM601 164q131 -2 195 98.5t64 281.5q0 111 -26 202t-81.5 145.5t-144.5 55.5
q-131 2 -195 -94.5t-64 -277.5q0 -111 26 -204t81.5 -149.5t144.5 -57.5zM712 1363l-102 -102q-31 15 -85 56t-113.5 95.5t-110.5 110.5t-77 99l157 142q44 -63 100.5 -134t116.5 -140t114 -127z" />
    <glyph glyph-name="oacute" unicode="&#xf3;" horiz-adv-x="1208" 
d="M594 -16q-139 0 -236.5 48t-157.5 131t-87 190.5t-26 226.5q3 179 72 301t187.5 184.5t267.5 62.5q187 0 299 -82.5t161 -218t47 -293.5q-3 -179 -71.5 -301.5t-186.5 -185.5t-269 -63zM601 164q131 -2 195 98.5t64 281.5q0 111 -26 202t-81.5 145.5t-144.5 55.5
q-131 2 -195 -94.5t-64 -277.5q0 -111 26 -204t81.5 -149.5t144.5 -57.5zM556 1261l-116 100q54 57 112.5 125.5t114.5 142t102 144.5l167 -135q-16 -31 -52.5 -75t-82.5 -92t-94 -92.5t-88 -76t-63 -41.5z" />
    <glyph glyph-name="ocircumflex" unicode="&#xf4;" horiz-adv-x="1208" 
d="M594 -16q-139 0 -236.5 48t-157.5 131t-87 190.5t-26 226.5q3 179 72 301t187.5 184.5t267.5 62.5q187 0 299 -82.5t161 -218t47 -293.5q-3 -179 -71.5 -301.5t-186.5 -185.5t-269 -63zM601 164q131 -2 195 98.5t64 281.5q0 111 -26 202t-81.5 145.5t-144.5 55.5
q-131 2 -195 -94.5t-64 -277.5q0 -111 26 -204t81.5 -149.5t144.5 -57.5zM361 1239l-122 68l284 345h188l276 -345l-130 -67l-244 214z" />
    <glyph glyph-name="otilde" unicode="&#xf5;" horiz-adv-x="1208" 
d="M594 -16q-139 0 -236.5 48t-157.5 131t-87 190.5t-26 226.5q3 179 72 301t187.5 184.5t267.5 62.5q187 0 299 -82.5t161 -218t47 -293.5q-3 -179 -71.5 -301.5t-186.5 -185.5t-269 -63zM601 164q131 -2 195 98.5t64 281.5q0 111 -26 202t-81.5 145.5t-144.5 55.5
q-131 2 -195 -94.5t-64 -277.5q0 -111 26 -204t81.5 -149.5t144.5 -57.5zM746 1287q-54 0 -90.5 21.5t-64 49t-54.5 49t-61 21.5q-39 0 -64 -12t-41.5 -32.5t-29.5 -48.5l-98 46q15 58 45.5 109t78 83.5t113.5 32.5q52 0 88 -20.5t64 -48.5t54.5 -48.5t59.5 -20.5
q35 0 60 11t43 31.5t30 48.5l102 -50q-10 -63 -43.5 -112.5t-83 -79.5t-108.5 -30z" />
    <glyph glyph-name="odieresis" unicode="&#xf6;" horiz-adv-x="1208" 
d="M594 -16q-139 0 -236.5 48t-157.5 131t-87 190.5t-26 226.5q3 179 72 301t187.5 184.5t267.5 62.5q187 0 299 -82.5t161 -218t47 -293.5q-3 -179 -71.5 -301.5t-186.5 -185.5t-269 -63zM601 164q131 -2 195 98.5t64 281.5q0 111 -26 202t-81.5 145.5t-144.5 55.5
q-131 2 -195 -94.5t-64 -277.5q0 -111 26 -204t81.5 -149.5t144.5 -57.5zM373 1296q-61 0 -102.5 39.5t-41.5 103.5q0 68 51.5 114.5t113.5 46.5q72 0 107 -41t35 -102q0 -70 -48.5 -115.5t-114.5 -45.5zM835 1296q-60 0 -102 39.5t-42 103.5q0 68 51 114.5t115 46.5
q72 0 106.5 -41t34.5 -102q0 -70 -48.5 -115.5t-114.5 -45.5z" />
    <glyph glyph-name="divide" unicode="&#xf7;" horiz-adv-x="1366" 
d="M685 1003q-65 0 -110.5 44t-45.5 112q0 49 25 88.5t65.5 63.5t86.5 24q77 0 116 -45t39 -111q0 -49 -24.5 -89t-64 -63.5t-87.5 -23.5zM683 184q-65 0 -110.5 42.5t-45.5 112.5q0 48 25.5 87.5t66 63.5t86.5 24q75 0 115 -45t40 -110q0 -50 -24 -89.5t-64.5 -62.5
t-88.5 -23zM213 658v193h940v-193h-940z" />
    <glyph glyph-name="oslash" unicode="&#xf8;" horiz-adv-x="1220" 
d="M290 -172l517 1493l124 -32l-518 -1494zM599 -16q-139 0 -236.5 48t-158 131t-87 190.5t-25.5 226.5q2 179 71.5 301t188 184.5t267.5 62.5q187 0 299 -82.5t161.5 -218t46.5 -293.5q-2 -179 -71 -301.5t-187 -185.5t-269 -63zM606 164q131 -2 196.5 98.5t65.5 281.5
q0 111 -26.5 202t-83 145.5t-145.5 55.5q-130 2 -195.5 -94.5t-65.5 -277.5q0 -111 27 -204t83 -149.5t144 -57.5z" />
    <glyph glyph-name="ugrave" unicode="&#xf9;" horiz-adv-x="1231" 
d="M487 -16q-112 0 -180.5 34t-104 98t-48 151.5t-12.5 193.5v653h254v-653q0 -123 20 -181.5t61.5 -76t107.5 -17.5q39 0 83 11.5t82 28t59 31.5v857h255v-1130h-135q-44 0 -69 13t-25 64v77l5 -39q-44 -31 -104 -57t-125 -42t-124 -16zM712 1363l-102 -102q-31 15 -85 56
t-113.5 95.5t-110.5 110.5t-77 99l157 142q44 -63 100.5 -134t116.5 -140t114 -127z" />
    <glyph glyph-name="uacute" unicode="&#xfa;" horiz-adv-x="1231" 
d="M487 -16q-112 0 -180.5 34t-104 98t-48 151.5t-12.5 193.5v653h254v-653q0 -123 20 -181.5t61.5 -76t107.5 -17.5q39 0 83 11.5t82 28t59 31.5v857h255v-1130h-135q-44 0 -69 13t-25 64v77l5 -39q-44 -31 -104 -57t-125 -42t-124 -16zM556 1261l-116 100
q54 57 112.5 125.5t114.5 142t102 144.5l167 -135q-16 -31 -52.5 -75t-82.5 -92t-94 -92.5t-88 -76t-63 -41.5z" />
    <glyph glyph-name="ucircumflex" unicode="&#xfb;" horiz-adv-x="1231" 
d="M487 -16q-112 0 -180.5 34t-104 98t-48 151.5t-12.5 193.5v653h254v-653q0 -123 20 -181.5t61.5 -76t107.5 -17.5q39 0 83 11.5t82 28t59 31.5v857h255v-1130h-135q-44 0 -69 13t-25 64v77l5 -39q-44 -31 -104 -57t-125 -42t-124 -16zM361 1239l-122 68l284 345h188
l276 -345l-130 -67l-244 214z" />
    <glyph glyph-name="udieresis" unicode="&#xfc;" horiz-adv-x="1231" 
d="M487 -16q-112 0 -180.5 34t-104 98t-48 151.5t-12.5 193.5v653h254v-653q0 -123 20 -181.5t61.5 -76t107.5 -17.5q39 0 83 11.5t82 28t59 31.5v857h255v-1130h-135q-44 0 -69 13t-25 64v77l5 -39q-44 -31 -104 -57t-125 -42t-124 -16zM373 1296q-61 0 -102.5 39.5
t-41.5 103.5q0 68 51.5 114.5t113.5 46.5q72 0 107 -41t35 -102q0 -70 -48.5 -115.5t-114.5 -45.5zM835 1296q-60 0 -102 39.5t-42 103.5q0 68 51 114.5t115 46.5q72 0 106.5 -41t34.5 -102q0 -70 -48.5 -115.5t-114.5 -45.5z" />
    <glyph glyph-name="yacute" unicode="&#xfd;" horiz-adv-x="1117" 
d="M134 -479v205q17 -6 51 -10.5t52 -4.5q44 0 101.5 21.5t110 89t80.5 206.5l14 -28h-108l-395 1114h273l219 -696l92 -322h-54l82 322l184 696h273l-366 -1146q-65 -201 -156.5 -306.5t-199.5 -136.5q-24 -9 -62 -15t-65 -6q-15 0 -42.5 2.5t-52.5 6.5t-31 8zM538 1261
l-116 100q54 57 112.5 125.5t114.5 142t102 144.5l167 -135q-16 -31 -52.5 -75t-82.5 -92t-94 -92.5t-88 -76t-63 -41.5z" />
    <glyph glyph-name="thorn" unicode="&#xfe;" horiz-adv-x="1258" 
d="M168 62l247 -46l10 -182v-330h-257v558zM172 1622h254v-444l-8 -206l8 -6v-801l-254 -103v1560zM597 -18q-66 0 -134.5 8.5t-129.5 21.5t-104 26.5t-57 23.5l254 139q25 -19 72.5 -29t117.5 -10q81 0 146 47t103 138.5t40 223.5q2 192 -65.5 277t-187.5 85
q-74 0 -133 -27.5t-93 -53.5l-36 128q23 24 63.5 59t107 62t166.5 27q119 0 218.5 -57.5t160.5 -175t61 -297.5q0 -183 -70.5 -321.5t-199 -216.5t-300.5 -78z" />
    <glyph glyph-name="ydieresis" unicode="&#xff;" horiz-adv-x="1117" 
d="M134 -479v205q17 -6 51 -10.5t52 -4.5q44 0 101.5 21.5t110 89t80.5 206.5l14 -28h-108l-395 1114h273l219 -696l92 -322h-54l82 322l184 696h273l-366 -1146q-65 -201 -156.5 -306.5t-199.5 -136.5q-24 -9 -62 -15t-65 -6q-15 0 -42.5 2.5t-52.5 6.5t-31 8zM355 1296
q-61 0 -102.5 39.5t-41.5 103.5q0 68 51.5 114.5t113.5 46.5q72 0 107 -41t35 -102q0 -70 -48.5 -115.5t-114.5 -45.5zM817 1296q-60 0 -102 39.5t-42 103.5q0 68 51 114.5t115 46.5q72 0 106.5 -41t34.5 -102q0 -70 -48.5 -115.5t-114.5 -45.5z" />
    <glyph glyph-name="Amacron" unicode="&#x100;" horiz-adv-x="1385" 
d="M283 0h-275l555 1501h266l549 -1501h-281l-357 1095l-43 153l-45 -153zM296 348l41 190h682l41 -190h-764zM413 1672v177h558v-177h-558z" />
    <glyph glyph-name="amacron" unicode="&#x101;" horiz-adv-x="1140" 
d="M438 -16q-102 0 -180.5 40.5t-123 114.5t-44.5 174q0 106 57 180t153 115q65 27 140.5 42t151.5 21.5t141 6.5l49 -62l-49 -86q-38 0 -89.5 -5.5t-100.5 -16.5t-83 -27q-47 -21 -80 -55t-33 -97q0 -83 46 -124.5t131 -41.5q44 0 88 12.5t77 29t44 29.5l48 -54l-34 -86
q-44 -40 -125.5 -75t-183.5 -35zM989 0h-242v166h-14v609q0 94 -49.5 124t-140.5 30q-63 0 -130.5 -12t-125 -30.5t-91.5 -38.5l-58 175q27 16 94.5 41.5t157 46t177.5 20.5q135 0 229 -31t143.5 -112t49.5 -231v-757zM279 1320v179h555v-179h-555z" />
    <glyph glyph-name="Abreve" unicode="&#x102;" horiz-adv-x="1385" 
d="M283 0h-275l555 1501h266l549 -1501h-281l-357 1095l-43 153l-45 -153zM296 348l41 190h682l41 -190h-764zM692 1596q-113 0 -193 52t-119 133.5t-33 171.5h170q1 -12 5 -39.5t19.5 -58t51.5 -52t101 -21.5q64 0 99.5 21.5t52 52t21 58t5.5 39.5h167q6 -90 -36 -171.5
t-122 -133.5t-189 -52z" />
    <glyph glyph-name="abreve" unicode="&#x103;" horiz-adv-x="1140" 
d="M438 -16q-102 0 -180.5 40.5t-123 114.5t-44.5 174q0 106 57 180t153 115q65 27 140.5 42t151.5 21.5t141 6.5l49 -62l-49 -86q-38 0 -89.5 -5.5t-100.5 -16.5t-83 -27q-47 -21 -80 -55t-33 -97q0 -83 46 -124.5t131 -41.5q44 0 88 12.5t77 29t44 29.5l48 -54l-34 -86
q-44 -40 -125.5 -75t-183.5 -35zM989 0h-242v166h-14v609q0 94 -49.5 124t-140.5 30q-63 0 -130.5 -12t-125 -30.5t-91.5 -38.5l-58 175q27 16 94.5 41.5t157 46t177.5 20.5q135 0 229 -31t143.5 -112t49.5 -231v-757zM555 1272q-113 0 -193 52.5t-119 138t-33 183.5h170
q1 -12 5 -42t19.5 -63t51.5 -57t101 -24q64 0 99.5 24t52 57t21 63t5.5 42h167q6 -98 -36 -183.5t-122 -138t-189 -52.5z" />
    <glyph glyph-name="Aogonek" unicode="&#x104;" horiz-adv-x="1385" 
d="M899 -297q-2 67 37.5 124t99 102t117.5 73l144 35l52 -27q-58 -31 -109 -71t-81 -85t-29 -92q2 -58 37.5 -78.5t86.5 -20.5q31 0 64 7.5t64 18.5v-129q-43 -31 -106 -46.5t-129 -15.5q-67 0 -123 24t-89.5 70t-35.5 111zM283 0h-275l555 1501h266l549 -1501h-281
l-357 1095l-43 153l-45 -153zM296 348l41 190h682l41 -190h-764z" />
    <glyph glyph-name="aogonek" unicode="&#x105;" horiz-adv-x="1140" 
d="M438 -16q-102 0 -180.5 40.5t-123 114.5t-44.5 174q0 106 57 180t153 115q65 27 140.5 42t151.5 21.5t141 6.5l49 -62l-49 -86q-38 0 -89.5 -5.5t-100.5 -16.5t-83 -27q-47 -21 -80 -55t-33 -97q0 -83 46 -124.5t131 -41.5q44 0 88 12.5t77 29t44 29.5l48 -54l-34 -86
q-44 -40 -125.5 -75t-183.5 -35zM989 0h-242v166h-14v609q0 94 -49.5 124t-140.5 30q-63 0 -130.5 -12t-125 -30.5t-91.5 -38.5l-58 175q27 16 94.5 41.5t157 46t177.5 20.5q135 0 229 -31t143.5 -112t49.5 -231v-757zM756 -501q-63 0 -119 22.5t-92 66t-38 107.5
q-2 59 30.5 117t90 106.5t130.5 81.5l66 30l121 -30q-55 -27 -108 -68t-86.5 -88.5t-33.5 -95.5q1 -48 32.5 -71t90.5 -23q46 0 93.5 15.5t73.5 24.5l13 -124q-39 -26 -105 -48.5t-159 -22.5z" />
    <glyph glyph-name="Cacute" unicode="&#x106;" horiz-adv-x="1282" 
d="M91 738q0 185 56 327.5t154.5 240t226.5 147t271 49.5q110 0 185 -11.5t124.5 -24.5t82.5 -21l-37 -230q-17 11 -56 29.5t-107.5 34t-174.5 15.5q-138 0 -242 -65.5t-161.5 -186.5t-57.5 -289q0 -166 55.5 -293t160.5 -199.5t253 -72.5q71 0 143 14t128.5 35.5t82.5 42.5
v-218q-42 -17 -94 -35t-119.5 -30.5t-158.5 -12.5q-219 0 -379.5 94t-248 264t-87.5 396zM737 1615l-113 100q4 4 36.5 34t77.5 72.5t90.5 86t77 76.5t34.5 40l171 -129q-33 -37 -80 -80t-100 -83.5t-103.5 -71.5t-90.5 -45z" />
    <glyph glyph-name="cacute" unicode="&#x107;" horiz-adv-x="982" 
d="M78 544q0 165 60 297t180.5 209.5t303.5 77.5q107 0 182 -18.5t102 -37.5l-37 -199q-40 27 -98 41.5t-141 14.5q-72 0 -139.5 -34.5t-112.5 -110.5t-49 -202q-4 -134 35 -223.5t108 -134.5t154 -45q80 0 149 19.5t105 40.5l44 -152q-50 -48 -144 -75.5t-200 -27.5
q-164 0 -275.5 74t-169 200.5t-57.5 285.5zM533 1261l-116 100q54 57 112.5 125.5t114.5 142t102 144.5l167 -135q-16 -31 -52.5 -75t-82.5 -92t-94 -92.5t-88 -76t-63 -41.5z" />
    <glyph glyph-name="Ccircumflex" unicode="&#x108;" horiz-adv-x="1282" 
d="M91 738q0 185 56 327.5t154.5 240t226.5 147t271 49.5q110 0 185 -11.5t124.5 -24.5t82.5 -21l-37 -230q-17 11 -56 29.5t-107.5 34t-174.5 15.5q-138 0 -242 -65.5t-161.5 -186.5t-57.5 -289q0 -166 55.5 -293t160.5 -199.5t253 -72.5q71 0 143 14t128.5 35.5t82.5 42.5
v-218q-42 -17 -94 -35t-119.5 -30.5t-158.5 -12.5q-219 0 -379.5 94t-248 264t-87.5 396zM571 1607l-145 70l260 297h204l262 -295l-149 -72l-216 195z" />
    <glyph glyph-name="ccircumflex" unicode="&#x109;" horiz-adv-x="982" 
d="M78 544q0 165 60 297t180.5 209.5t303.5 77.5q107 0 182 -18.5t102 -37.5l-37 -199q-40 27 -98 41.5t-141 14.5q-72 0 -139.5 -34.5t-112.5 -110.5t-49 -202q-4 -134 35 -223.5t108 -134.5t154 -45q80 0 149 19.5t105 40.5l44 -152q-50 -48 -144 -75.5t-200 -27.5
q-164 0 -275.5 74t-169 200.5t-57.5 285.5zM338 1239l-122 68l284 345h188l276 -345l-130 -67l-244 214z" />
    <glyph glyph-name="Cdotaccent" unicode="&#x10a;" horiz-adv-x="1282" 
d="M91 738q0 185 56 327.5t154.5 240t226.5 147t271 49.5q110 0 185 -11.5t124.5 -24.5t82.5 -21l-37 -230q-17 11 -56 29.5t-107.5 34t-174.5 15.5q-138 0 -242 -65.5t-161.5 -186.5t-57.5 -289q0 -166 55.5 -293t160.5 -199.5t253 -72.5q71 0 143 14t128.5 35.5t82.5 42.5
v-218q-42 -17 -94 -35t-119.5 -30.5t-158.5 -12.5q-219 0 -379.5 94t-248 264t-87.5 396zM779 1653q-63 0 -106.5 37.5t-43.5 105.5t52.5 114t119.5 46q74 0 111 -39.5t37 -102.5q0 -71 -50 -116t-120 -45z" />
    <glyph glyph-name="cdotaccent" unicode="&#x10b;" horiz-adv-x="982" 
d="M78 544q0 165 60 297t180.5 209.5t303.5 77.5q107 0 182 -18.5t102 -37.5l-37 -199q-40 27 -98 41.5t-141 14.5q-72 0 -139.5 -34.5t-112.5 -110.5t-49 -202q-4 -134 35 -223.5t108 -134.5t154 -45q80 0 149 19.5t105 40.5l44 -152q-50 -48 -144 -75.5t-200 -27.5
q-164 0 -275.5 74t-169 200.5t-57.5 285.5zM580 1289q-63 0 -109 40t-46 108q0 46 25.5 83.5t65.5 60t85 22.5q74 0 113.5 -42t39.5 -105q0 -72 -52 -119.5t-122 -47.5z" />
    <glyph glyph-name="Ccaron" unicode="&#x10c;" horiz-adv-x="1282" 
d="M91 738q0 185 56 327.5t154.5 240t226.5 147t271 49.5q110 0 185 -11.5t124.5 -24.5t82.5 -21l-37 -230q-17 11 -56 29.5t-107.5 34t-174.5 15.5q-138 0 -242 -65.5t-161.5 -186.5t-57.5 -289q0 -166 55.5 -293t160.5 -199.5t253 -72.5q71 0 143 14t128.5 35.5t82.5 42.5
v-218q-42 -17 -94 -35t-119.5 -30.5t-158.5 -12.5q-219 0 -379.5 94t-248 264t-87.5 396zM690 1624l-252 264l139 74l212 -170l217 170l132 -72l-246 -266h-202z" />
    <glyph glyph-name="ccaron" unicode="&#x10d;" horiz-adv-x="982" 
d="M78 544q0 165 60 297t180.5 209.5t303.5 77.5q107 0 182 -18.5t102 -37.5l-37 -199q-40 27 -98 41.5t-141 14.5q-72 0 -139.5 -34.5t-112.5 -110.5t-49 -202q-4 -134 35 -223.5t108 -134.5t154 -45q80 0 149 19.5t105 40.5l44 -152q-50 -48 -144 -75.5t-200 -27.5
q-164 0 -275.5 74t-169 200.5t-57.5 285.5zM214 1620l136 70l241 -223l227 223l144 -72l-271 -336h-200z" />
    <glyph glyph-name="Dcaron" unicode="&#x10e;" horiz-adv-x="1454" 
d="M173 0v1486h41h39.5h39.5q45 0 104.5 4t126 8t133.5 4q365 0 539.5 -188.5t174.5 -528.5q0 -254 -89.5 -434.5t-255 -275t-393.5 -91.5q-84 2 -181 9t-176 7h-34.5h-34.5h-34zM435 196q45 -10 108 -14t122 -3q128 1 225.5 60.5t152.5 185.5t55 326q0 208 -53.5 331
t-160.5 176.5t-267 53.5q-54 0 -102.5 -4t-79.5 -10v-1102zM615 1624l-252 264l139 74l212 -170l217 170l132 -72l-246 -266h-202z" />
    <glyph glyph-name="dcaron" unicode="&#x10f;" horiz-adv-x="1270" 
d="M847 0v145l-15 9v777l8 6l-8 241v448h254v-1626h-239zM531 -16q-118 0 -218 58t-161.5 176t-61.5 299q0 183 70 320.5t196 214t295 76.5q103 0 172 -23.5t88 -40.5l-79 -162q-28 24 -76.5 33.5t-113.5 9.5q-80 0 -145 -45t-103.5 -135t-39.5 -223q-2 -188 65 -273.5
t187 -85.5q73 0 133 26.5t93 52.5l38 -127q-24 -25 -65 -60.5t-107.5 -63t-166.5 -27.5zM1357 1194l-151 1l-7 14q6 40 9.5 90.5t3.5 110.5q0 59 -6 104t-17 70l9 37h206q10 -29 14 -63t4 -85q0 -36 -9 -89.5t-23.5 -105.5t-32.5 -84z" />
    <glyph glyph-name="Dcroat" unicode="&#x110;" horiz-adv-x="1466" 
d="M64 692v168h740v-168h-740zM173 0v1486h41h39.5h39.5q45 0 104.5 4t126 8t133.5 4q365 0 539.5 -188.5t174.5 -528.5q0 -254 -89.5 -434.5t-255 -275t-393.5 -91.5q-84 2 -181 9t-176 7h-34.5h-34.5h-34zM435 196q45 -10 108 -14t122 -3q128 1 225.5 60.5t152.5 185.5
t55 326q0 208 -53.5 331t-160.5 176.5t-267 53.5q-54 0 -102.5 -4t-79.5 -10v-1102z" />
    <glyph glyph-name="dcroat" unicode="&#x111;" horiz-adv-x="1249" 
d="M585 1272v154h637v-154h-637zM847 0v145l-15 9v777l8 6l-8 241v448h254v-1626h-239zM531 -16q-118 0 -218 58t-161.5 176t-61.5 299q0 183 70 320.5t196 214t295 76.5q103 0 172 -23.5t88 -40.5l-79 -162q-28 24 -76.5 33.5t-113.5 9.5q-80 0 -145 -45t-103.5 -135
t-39.5 -223q-2 -188 65 -273.5t187 -85.5q73 0 133 26.5t93 52.5l38 -127q-24 -25 -65 -60.5t-107.5 -63t-166.5 -27.5z" />
    <glyph glyph-name="Emacron" unicode="&#x112;" horiz-adv-x="1191" 
d="M173 0v1486h878v-199h-617v-425h461v-196h-461v-463h685v-203h-946zM352 1672v177h558v-177h-558z" />
    <glyph glyph-name="emacron" unicode="&#x113;" horiz-adv-x="1130" 
d="M606 -16q-246 0 -378.5 152.5t-132.5 422.5q0 162 59.5 290t174 202.5t281.5 76.5q85 2 160.5 -23t134 -77.5t93.5 -134t37 -193.5q0 -62 -1 -112.5t-9 -87.5h-786l20 152h538q5 80 -9.5 148.5t-59 109.5t-130.5 41q-75 0 -133.5 -41.5t-90 -141t-26.5 -273.5
q5 -120 48 -190.5t114 -100.5t160 -30q41 0 97 8t107 21.5t78 29.5l47 -144q-37 -30 -101 -53.5t-140.5 -37.5t-151.5 -14zM326 1320v179h555v-179h-555z" />
    <glyph glyph-name="Ebreve" unicode="&#x114;" horiz-adv-x="1191" 
d="M173 0v1486h878v-199h-617v-425h461v-196h-461v-463h685v-203h-946zM631 1596q-113 0 -193 52t-119 133.5t-33 171.5h170q1 -12 5 -39.5t19.5 -58t51.5 -52t101 -21.5q64 0 99.5 21.5t52 52t21 58t5.5 39.5h167q6 -90 -36 -171.5t-122 -133.5t-189 -52z" />
    <glyph glyph-name="ebreve" unicode="&#x115;" horiz-adv-x="1130" 
d="M606 -16q-246 0 -378.5 152.5t-132.5 422.5q0 162 59.5 290t174 202.5t281.5 76.5q85 2 160.5 -23t134 -77.5t93.5 -134t37 -193.5q0 -62 -1 -112.5t-9 -87.5h-786l20 152h538q5 80 -9.5 148.5t-59 109.5t-130.5 41q-75 0 -133.5 -41.5t-90 -141t-26.5 -273.5
q5 -120 48 -190.5t114 -100.5t160 -30q41 0 97 8t107 21.5t78 29.5l47 -144q-37 -30 -101 -53.5t-140.5 -37.5t-151.5 -14zM602 1272q-113 0 -193 52.5t-119 138t-33 183.5h170q1 -12 5 -42t19.5 -63t51.5 -57t101 -24q64 0 99.5 24t52 57t21 63t5.5 42h167
q6 -98 -36 -183.5t-122 -138t-189 -52.5z" />
    <glyph glyph-name="Edotaccent" unicode="&#x116;" horiz-adv-x="1191" 
d="M173 0v1486h878v-199h-617v-425h461v-196h-461v-463h685v-203h-946zM621 1653q-63 0 -106.5 37.5t-43.5 105.5t52.5 114t119.5 46q74 0 111 -39.5t37 -102.5q0 -71 -50 -116t-120 -45z" />
    <glyph glyph-name="edotaccent" unicode="&#x117;" horiz-adv-x="1130" 
d="M606 -16q-246 0 -378.5 152.5t-132.5 422.5q0 162 59.5 290t174 202.5t281.5 76.5q85 2 160.5 -23t134 -77.5t93.5 -134t37 -193.5q0 -62 -1 -112.5t-9 -87.5h-786l20 152h538q5 80 -9.5 148.5t-59 109.5t-130.5 41q-75 0 -133.5 -41.5t-90 -141t-26.5 -273.5
q5 -120 48 -190.5t114 -100.5t160 -30q41 0 97 8t107 21.5t78 29.5l47 -144q-37 -30 -101 -53.5t-140.5 -37.5t-151.5 -14zM592 1289q-63 0 -109 40t-46 108q0 46 25.5 83.5t65.5 60t85 22.5q74 0 113.5 -42t39.5 -105q0 -72 -52 -119.5t-122 -47.5z" />
    <glyph glyph-name="Eogonek" unicode="&#x118;" horiz-adv-x="1191" 
d="M173 0v1486h878v-199h-617v-425h461v-196h-461v-463h685v-203h-946zM920 -499q-62 0 -118.5 22.5t-92 66t-37.5 107.5q-2 67 34.5 125t95 103.5t119.5 74.5l26 13l157 -13q-53 -28 -105 -68.5t-85.5 -87.5t-32.5 -94q1 -48 32.5 -70t89.5 -22q48 0 95 14.5t72 23.5
l14 -124q-39 -26 -105.5 -48t-158.5 -23z" />
    <glyph glyph-name="eogonek" unicode="&#x119;" horiz-adv-x="1130" 
d="M606 -16q-246 0 -378.5 152.5t-132.5 422.5q0 162 59.5 290t174 202.5t281.5 76.5q85 2 160.5 -23t134 -77.5t93.5 -134t37 -193.5q0 -62 -1 -112.5t-9 -87.5h-786l20 152h538q5 80 -9.5 148.5t-59 109.5t-130.5 41q-75 0 -133.5 -41.5t-90 -141t-26.5 -273.5
q5 -120 48 -190.5t114 -100.5t160 -30q41 0 97 8t107 21.5t78 29.5l47 -144q-37 -30 -101 -53.5t-140.5 -37.5t-151.5 -14zM574 -501q-63 0 -119 22.5t-92 66t-38 107.5q-2 59 30.5 117t90 106.5t130.5 81.5l66 30l121 -30q-55 -27 -108 -68t-86.5 -88.5t-33.5 -95.5
q1 -48 32.5 -71t90.5 -23q46 0 93.5 15.5t73.5 24.5l13 -124q-39 -26 -105 -48.5t-159 -22.5z" />
    <glyph glyph-name="Ecaron" unicode="&#x11a;" horiz-adv-x="1191" 
d="M173 0v1486h878v-199h-617v-425h461v-196h-461v-463h685v-203h-946zM532 1624l-252 264l139 74l212 -170l217 170l132 -72l-246 -266h-202z" />
    <glyph glyph-name="ecaron" unicode="&#x11b;" horiz-adv-x="1130" 
d="M606 -16q-246 0 -378.5 152.5t-132.5 422.5q0 162 59.5 290t174 202.5t281.5 76.5q85 2 160.5 -23t134 -77.5t93.5 -134t37 -193.5q0 -62 -1 -112.5t-9 -87.5h-786l20 152h538q5 80 -9.5 148.5t-59 109.5t-130.5 41q-75 0 -133.5 -41.5t-90 -141t-26.5 -273.5
q5 -120 48 -190.5t114 -100.5t160 -30q41 0 97 8t107 21.5t78 29.5l47 -144q-37 -30 -101 -53.5t-140.5 -37.5t-151.5 -14zM226 1620l136 70l241 -223l227 223l144 -72l-271 -336h-200z" />
    <glyph glyph-name="Gcircumflex" unicode="&#x11c;" horiz-adv-x="1422" 
d="M94 736q0 195 55 339t152 239t226.5 141.5t278.5 46.5q111 0 180 -9.5t122 -23t117 -25.5l-10 -229q-69 35 -161.5 59t-253.5 24q-130 0 -228.5 -64t-154 -183.5t-55.5 -288.5q0 -163 46.5 -295t141 -208.5t238.5 -76.5q80 0 156 12t117 36v377l54 -42l-307 15v189h500
v-679q-35 -2 -76.5 -18.5t-99 -36.5t-140 -35.5t-198.5 -15.5q-221 0 -377.5 96t-239.5 265.5t-83 390.5zM581 1607l-145 70l260 297h204l262 -295l-149 -72l-216 195z" />
    <glyph glyph-name="gcircumflex" unicode="&#x11d;" horiz-adv-x="1225" 
d="M581 -504q-234 1 -362.5 83.5t-128.5 246.5q0 61 29.5 109t75 81.5t94.5 50.5l156 -20q-19 -17 -44 -38t-43.5 -55t-18.5 -90q0 -63 24.5 -109.5t79.5 -72.5t148 -26q84 0 154 18.5t112 55.5t42 94q0 56 -20.5 95.5t-76.5 61t-164 21.5h-135q-51 0 -90 3.5t-71 11.5
q-15 4 -24.5 10.5t-24.5 10.5q-75 27 -103 74.5t-28 101.5q1 39 20 80t57 79t93 67l153 -34q-37 -15 -64.5 -48.5t-27.5 -70.5q0 -57 30 -77.5t101 -20.5h200q129 0 211 -26.5t127.5 -71t63 -100t17.5 -113.5q0 -91 -44.5 -162.5t-123 -120.5t-180 -74t-214.5 -25zM571 379
q-129 0 -231.5 45.5t-161 128.5t-58.5 193q0 128 58.5 212.5t161 126t234.5 43.5q131 2 235.5 -38t166 -122.5t61.5 -210.5q0 -122 -58 -206.5t-163 -128t-245 -43.5zM576 536q98 0 156.5 44.5t58.5 169.5q0 106 -50.5 161t-154.5 55q-60 0 -109.5 -17.5t-78.5 -63.5
t-29 -131q0 -88 48.5 -153t158.5 -65zM911 926l-58 104q21 27 85 58.5t144 31.5h118v-194h-289zM321 1239l-122 68l284 345h188l276 -345l-130 -67l-244 214z" />
    <glyph glyph-name="Gbreve" unicode="&#x11e;" horiz-adv-x="1422" 
d="M94 736q0 195 55 339t152 239t226.5 141.5t278.5 46.5q111 0 180 -9.5t122 -23t117 -25.5l-10 -229q-69 35 -161.5 59t-253.5 24q-130 0 -228.5 -64t-154 -183.5t-55.5 -288.5q0 -163 46.5 -295t141 -208.5t238.5 -76.5q80 0 156 12t117 36v377l54 -42l-307 15v189h500
v-679q-35 -2 -76.5 -18.5t-99 -36.5t-140 -35.5t-198.5 -15.5q-221 0 -377.5 96t-239.5 265.5t-83 390.5zM799 1596q-113 0 -193 52t-119 133.5t-33 171.5h170q1 -12 5 -39.5t19.5 -58t51.5 -52t101 -21.5q64 0 99.5 21.5t52 52t21 58t5.5 39.5h167q6 -90 -36 -171.5
t-122 -133.5t-189 -52z" />
    <glyph glyph-name="gbreve" unicode="&#x11f;" horiz-adv-x="1225" 
d="M581 -504q-234 1 -362.5 83.5t-128.5 246.5q0 61 29.5 109t75 81.5t94.5 50.5l156 -20q-19 -17 -44 -38t-43.5 -55t-18.5 -90q0 -63 24.5 -109.5t79.5 -72.5t148 -26q84 0 154 18.5t112 55.5t42 94q0 56 -20.5 95.5t-76.5 61t-164 21.5h-135q-51 0 -90 3.5t-71 11.5
q-15 4 -24.5 10.5t-24.5 10.5q-75 27 -103 74.5t-28 101.5q1 39 20 80t57 79t93 67l153 -34q-37 -15 -64.5 -48.5t-27.5 -70.5q0 -57 30 -77.5t101 -20.5h200q129 0 211 -26.5t127.5 -71t63 -100t17.5 -113.5q0 -91 -44.5 -162.5t-123 -120.5t-180 -74t-214.5 -25zM571 379
q-129 0 -231.5 45.5t-161 128.5t-58.5 193q0 128 58.5 212.5t161 126t234.5 43.5q131 2 235.5 -38t166 -122.5t61.5 -210.5q0 -122 -58 -206.5t-163 -128t-245 -43.5zM576 536q98 0 156.5 44.5t58.5 169.5q0 106 -50.5 161t-154.5 55q-60 0 -109.5 -17.5t-78.5 -63.5
t-29 -131q0 -88 48.5 -153t158.5 -65zM911 926l-58 104q21 27 85 58.5t144 31.5h118v-194h-289zM573 1272q-113 0 -193 52.5t-119 138t-33 183.5h170q1 -12 5 -42t19.5 -63t51.5 -57t101 -24q64 0 99.5 24t52 57t21 63t5.5 42h167q6 -98 -36 -183.5t-122 -138t-189 -52.5z
" />
    <glyph glyph-name="Gdotaccent" unicode="&#x120;" horiz-adv-x="1422" 
d="M94 736q0 195 55 339t152 239t226.5 141.5t278.5 46.5q111 0 180 -9.5t122 -23t117 -25.5l-10 -229q-69 35 -161.5 59t-253.5 24q-130 0 -228.5 -64t-154 -183.5t-55.5 -288.5q0 -163 46.5 -295t141 -208.5t238.5 -76.5q80 0 156 12t117 36v377l54 -42l-307 15v189h500
v-679q-35 -2 -76.5 -18.5t-99 -36.5t-140 -35.5t-198.5 -15.5q-221 0 -377.5 96t-239.5 265.5t-83 390.5zM789 1653q-63 0 -106.5 37.5t-43.5 105.5t52.5 114t119.5 46q74 0 111 -39.5t37 -102.5q0 -71 -50 -116t-120 -45z" />
    <glyph glyph-name="gdotaccent" unicode="&#x121;" horiz-adv-x="1225" 
d="M581 -504q-234 1 -362.5 83.5t-128.5 246.5q0 61 29.5 109t75 81.5t94.5 50.5l156 -20q-19 -17 -44 -38t-43.5 -55t-18.5 -90q0 -63 24.5 -109.5t79.5 -72.5t148 -26q84 0 154 18.5t112 55.5t42 94q0 56 -20.5 95.5t-76.5 61t-164 21.5h-135q-51 0 -90 3.5t-71 11.5
q-15 4 -24.5 10.5t-24.5 10.5q-75 27 -103 74.5t-28 101.5q1 39 20 80t57 79t93 67l153 -34q-37 -15 -64.5 -48.5t-27.5 -70.5q0 -57 30 -77.5t101 -20.5h200q129 0 211 -26.5t127.5 -71t63 -100t17.5 -113.5q0 -91 -44.5 -162.5t-123 -120.5t-180 -74t-214.5 -25zM571 379
q-129 0 -231.5 45.5t-161 128.5t-58.5 193q0 128 58.5 212.5t161 126t234.5 43.5q131 2 235.5 -38t166 -122.5t61.5 -210.5q0 -122 -58 -206.5t-163 -128t-245 -43.5zM576 536q98 0 156.5 44.5t58.5 169.5q0 106 -50.5 161t-154.5 55q-60 0 -109.5 -17.5t-78.5 -63.5
t-29 -131q0 -88 48.5 -153t158.5 -65zM911 926l-58 104q21 27 85 58.5t144 31.5h118v-194h-289zM563 1289q-63 0 -109 40t-46 108q0 46 25.5 83.5t65.5 60t85 22.5q74 0 113.5 -42t39.5 -105q0 -72 -52 -119.5t-122 -47.5z" />
    <glyph glyph-name="uni0122" unicode="&#x122;" horiz-adv-x="1422" 
d="M94 736q0 195 55 339t152 239t226.5 141.5t278.5 46.5q111 0 180 -9.5t122 -23t117 -25.5l-10 -229q-69 35 -161.5 59t-253.5 24q-130 0 -228.5 -64t-154 -183.5t-55.5 -288.5q0 -163 46.5 -295t141 -208.5t238.5 -76.5q80 0 156 12t117 36v377l54 -42l-307 15v189h500
v-679q-35 -2 -76.5 -18.5t-99 -36.5t-140 -35.5t-198.5 -15.5q-221 0 -377.5 96t-239.5 265.5t-83 390.5zM700 -546l-96 41v25q15 17 25 53.5t10 85.5q0 38 -17.5 75.5t-44.5 44.5v49l171 91q33 -14 64.5 -66.5t31.5 -134.5q0 -71 -25 -126t-58.5 -91t-60.5 -47z" />
    <glyph glyph-name="uni0123" unicode="&#x123;" horiz-adv-x="1225" 
d="M581 -504q-234 1 -362.5 83.5t-128.5 246.5q0 61 29.5 109t75 81.5t94.5 50.5l156 -20q-19 -17 -44 -38t-43.5 -55t-18.5 -90q0 -63 24.5 -109.5t79.5 -72.5t148 -26q84 0 154 18.5t112 55.5t42 94q0 56 -20.5 95.5t-76.5 61t-164 21.5h-135q-51 0 -90 3.5t-71 11.5
q-15 4 -24.5 10.5t-24.5 10.5q-75 27 -103 74.5t-28 101.5q1 39 20 80t57 79t93 67l153 -34q-37 -15 -64.5 -48.5t-27.5 -70.5q0 -57 30 -77.5t101 -20.5h200q129 0 211 -26.5t127.5 -71t63 -100t17.5 -113.5q0 -91 -44.5 -162.5t-123 -120.5t-180 -74t-214.5 -25zM571 379
q-129 0 -231.5 45.5t-161 128.5t-58.5 193q0 128 58.5 212.5t161 126t234.5 43.5q131 2 235.5 -38t166 -122.5t61.5 -210.5q0 -122 -58 -206.5t-163 -128t-245 -43.5zM576 536q98 0 156.5 44.5t58.5 169.5q0 106 -50.5 161t-154.5 55q-60 0 -109.5 -17.5t-78.5 -63.5
t-29 -131q0 -88 48.5 -153t158.5 -65zM911 926l-58 104q21 27 85 58.5t144 31.5h118v-194h-289zM582 1248q-69 0 -110.5 44.5t-41.5 128.5q0 63 23 115t55 90.5t61.5 61.5t41.5 26h4l76 -39l1 -14q-34 -14 -55 -57t-21 -90q0 -33 16 -50t33 -28q18 -12 32 -31t14 -55
q0 -43 -22 -65t-50.5 -29.5t-47.5 -7.5h-9z" />
    <glyph glyph-name="Hcircumflex" unicode="&#x124;" horiz-adv-x="1514" 
d="M173 0v1486h262v-638h646v638h260v-1486h-260v652h-646v-652h-262zM539 1607l-145 70l260 297h204l262 -295l-149 -72l-216 195z" />
    <glyph glyph-name="hcircumflex" unicode="&#x125;" horiz-adv-x="1277" 
d="M165 0v1626h255v-451l-13 -210l-11 27q39 32 100 63t132 52t143 23q182 5 265.5 -100.5t83.5 -345.5v-684h-256v674q0 135 -41 192.5t-154 52.5q-49 -1 -118.5 -23.5t-130.5 -69.5v-826h-255zM75 1685l-145 70l260 297h204l262 -295l-149 -72l-216 195z" />
    <glyph glyph-name="Hbar" unicode="&#x126;" horiz-adv-x="1549" 
d="M185 0v1486h262v-660h657v660h260v-1486h-260v632h-657v-632h-262zM14 1031v160h1525v-160h-1525z" />
    <glyph glyph-name="hbar" unicode="&#x127;" horiz-adv-x="1284" 
d="M35 1257v149h611v-149h-611zM165 0v1626h255v-451l-13 -210l-11 27q39 32 100 63t132 52t143 23q182 5 265.5 -100.5t83.5 -345.5v-684h-256v674q0 135 -41 192.5t-154 52.5q-49 -1 -118.5 -23.5t-130.5 -69.5v-826h-255z" />
    <glyph glyph-name="Itilde" unicode="&#x128;" horiz-adv-x="658" 
d="M197 0v1486h263v-1486h-263zM476 1618q-58 0 -97 20.5t-68.5 47.5t-58 48t-65.5 21q-43 0 -70 -12t-44.5 -33t-30.5 -49l-105 46q15 58 46.5 109.5t80.5 84t116 32.5q56 0 95 -20t69 -47t59.5 -47t66.5 -20q36 0 63.5 11t46.5 32t32 50l107 -51q-9 -62 -44 -112.5
t-87 -80.5t-112 -30z" />
    <glyph glyph-name="itilde" unicode="&#x129;" horiz-adv-x="603" 
d="M174 0v1112h255v-1112h-255zM433 1287q-54 0 -90.5 21.5t-64 49t-54.5 49t-61 21.5q-39 0 -64 -12t-41.5 -32.5t-29.5 -48.5l-98 46q15 58 45.5 109t78 83.5t113.5 32.5q52 0 88 -20.5t64 -48.5t54.5 -48.5t59.5 -20.5q35 0 60 11t43 31.5t30 48.5l102 -50
q-10 -63 -43.5 -112.5t-83 -79.5t-108.5 -30z" />
    <glyph glyph-name="Imacron" unicode="&#x12a;" horiz-adv-x="658" 
d="M197 0v1486h263v-1486h-263zM51 1672v177h558v-177h-558z" />
    <glyph glyph-name="imacron" unicode="&#x12b;" horiz-adv-x="603" 
d="M174 0v1112h255v-1112h-255zM24 1320v179h555v-179h-555z" />
    <glyph glyph-name="Ibreve" unicode="&#x12c;" horiz-adv-x="658" 
d="M197 0v1486h263v-1486h-263zM330 1596q-113 0 -193 52t-119 133.5t-33 171.5h170q1 -12 5 -39.5t19.5 -58t51.5 -52t101 -21.5q64 0 99.5 21.5t52 52t21 58t5.5 39.5h167q6 -90 -36 -171.5t-122 -133.5t-189 -52z" />
    <glyph glyph-name="ibreve" unicode="&#x12d;" horiz-adv-x="603" 
d="M174 0v1112h255v-1112h-255zM300 1272q-113 0 -193 52.5t-119 138t-33 183.5h170q1 -12 5 -42t19.5 -63t51.5 -57t101 -24q64 0 99.5 24t52 57t21 63t5.5 42h167q6 -98 -36 -183.5t-122 -138t-189 -52.5z" />
    <glyph glyph-name="Iogonek" unicode="&#x12e;" horiz-adv-x="658" 
d="M197 0v1486h263v-1486h-263zM275 -499q-62 0 -118.5 22.5t-92 66t-37.5 107.5q-2 67 34.5 125t95 103.5t119.5 74.5l26 13l157 -13q-53 -28 -105 -68.5t-85.5 -87.5t-32.5 -94q1 -48 32.5 -70t89.5 -22q48 0 95 14.5t72 23.5l14 -124q-39 -26 -105.5 -48t-158.5 -23z" />
    <glyph glyph-name="iogonek" unicode="&#x12f;" horiz-adv-x="603" 
d="M174 0v1112h255v-1112h-255zM290 1289q-63 0 -109 40t-46 108q0 46 25.5 83.5t65.5 60t85 22.5q74 0 113.5 -42t39.5 -105q0 -72 -52 -119.5t-122 -47.5zM240 -501q-63 0 -119 22.5t-92 66t-38 107.5q-2 59 30.5 117t90 106.5t130.5 81.5l66 30l121 -30q-55 -27 -108 -68
t-86.5 -88.5t-33.5 -95.5q1 -48 32.5 -71t90.5 -23q46 0 93.5 15.5t73.5 24.5l13 -124q-39 -26 -105 -48.5t-159 -22.5z" />
    <glyph glyph-name="Idotaccent" unicode="&#x130;" horiz-adv-x="658" 
d="M197 0v1486h263v-1486h-263zM320 1653q-63 0 -106.5 37.5t-43.5 105.5t52.5 114t119.5 46q74 0 111 -39.5t37 -102.5q0 -71 -50 -116t-120 -45z" />
    <glyph glyph-name="dotlessi" unicode="&#x131;" horiz-adv-x="603" 
d="M174 0v1112h255v-1112h-255z" />
    <glyph glyph-name="IJ" unicode="&#x132;" horiz-adv-x="1383" 
d="M197 0v1486h263v-1486h-263zM693 -324l-71 135q76 29 153.5 92t108.5 177q23 86 27.5 219t4.5 295v892h262v-888q0 -145 1 -275t-19 -237q-18 -99 -69.5 -173t-120 -124.5t-141.5 -78.5t-136 -34z" />
    <glyph glyph-name="ij" unicode="&#x133;" horiz-adv-x="1192" 
d="M174 0v1112h255v-1112h-255zM288 1298q-63 0 -109 40t-46 107q0 46 25.5 83.5t65.5 60t84 22.5q75 0 114.5 -42t39.5 -105q0 -71 -52 -118.5t-122 -47.5zM517 -478v177q15 -7 53 -13.5t65 -6.5q84 0 116.5 70t32.5 221v1142h254v-1061q0 -200 -43.5 -319.5t-126 -173.5
t-199.5 -54q-19 0 -51.5 2.5t-61.5 6.5t-39 9zM901 1298q-63 0 -109 40t-46 107q0 46 25.5 83.5t65.5 60t84 22.5q75 0 114.5 -42t39.5 -105q0 -71 -52 -118.5t-122 -47.5z" />
    <glyph glyph-name="Jcircumflex" unicode="&#x134;" horiz-adv-x="724" 
d="M35 -324l-71 135q76 29 153.5 92t108.5 177q23 86 27.5 219t4.5 295v892h262v-888q0 -145 1 -275t-19 -237q-18 -99 -69.5 -173t-120 -124.5t-141.5 -78.5t-136 -34zM166 1607l-145 70l260 297h204l262 -295l-149 -72l-216 195z" />
    <glyph glyph-name="jcircumflex" unicode="&#x135;" horiz-adv-x="589" 
d="M-86 -478v177q15 -7 53 -13.5t65 -6.5q84 0 116.5 70t32.5 221v1142h254v-1061q0 -200 -43.5 -319.5t-126 -173.5t-199.5 -54q-19 0 -51.5 2.5t-61.5 6.5t-39 9zM59 1239l-122 68l284 345h188l276 -345l-130 -67l-244 214z" />
    <glyph glyph-name="uni0136" unicode="&#x136;" horiz-adv-x="1355" 
d="M173 0v1486h257v-715l559 715h296l-593 -734l-40 -38l-272 -312l50 198v-600h-257zM949 112q-40 73 -89.5 153t-102 160.5t-101.5 154.5t-87 136l90 71l88 99q21 -34 65 -101t100.5 -154t117.5 -180.5t116 -182.5t96 -160q11 -18 21.5 -36l21 -36t21.5 -36h-297
q-13 20 -23.5 43t-36.5 69zM662 -546l-96 41v25q15 17 25 53.5t10 85.5q0 38 -17.5 75.5t-44.5 44.5v49l171 91q33 -14 64.5 -66.5t31.5 -134.5q0 -71 -25 -126t-58.5 -91t-60.5 -47z" />
    <glyph glyph-name="uni0137" unicode="&#x137;" horiz-adv-x="1171" 
d="M1125 1114l-733 -769l18 57l4 -192v-210h-249v662v960h249v-804l-9 -275l-52 40l475 531h297zM524 532l172 169l472 -701h-288zM601 -540l-121 35v25q15 17 25 46t10 76q0 45 -17.5 84t-44.5 47v48l176 82q30 -13 61 -67t31 -142q0 -53 -19 -102t-46.5 -84.5t-54.5 -47.5
z" />
    <glyph glyph-name="kgreenlandic" unicode="&#x138;" horiz-adv-x="1173" 
d="M1143 1114l-736 -827l19 58l4 -168v-177h-255l-3 1114h257v-421l-10 -201l-49 33l485 589h288zM540 498l173 171l465 -669h-291z" />
    <glyph glyph-name="Lacute" unicode="&#x139;" horiz-adv-x="1057" 
d="M173 0v1486h259v-1278h569v-208h-828zM252 1615l-113 100q4 4 36.5 34t77.5 72.5t90.5 86t77 76.5t34.5 40l171 -129q-33 -37 -80 -80t-100 -83.5t-103.5 -71.5t-90.5 -45z" />
    <glyph glyph-name="lacute" unicode="&#x13a;" horiz-adv-x="599" 
d="M171 0v1626h257v-1626h-257zM249 1724l-113 100q4 4 36.5 34t77.5 72.5t90.5 86t77 76.5t34.5 40l171 -129q-33 -37 -80 -80t-100 -83.5t-103.5 -71.5t-90.5 -45z" />
    <glyph glyph-name="uni013B" unicode="&#x13b;" horiz-adv-x="1057" 
d="M173 0v1486h259v-1278h569v-208h-828zM513 -546l-96 41v25q15 17 25 53.5t10 85.5q0 38 -17.5 75.5t-44.5 44.5v49l171 91q33 -14 64.5 -66.5t31.5 -134.5q0 -71 -25 -126t-58.5 -91t-60.5 -47z" />
    <glyph glyph-name="uni013C" unicode="&#x13c;" horiz-adv-x="599" 
d="M171 0v1626h257v-1626h-257zM314 -540l-121 35v25q15 17 25 46t10 76q0 45 -17.5 84t-44.5 47v48l176 82q30 -13 61 -67t31 -142q0 -53 -19 -102t-46.5 -84.5t-54.5 -47.5z" />
    <glyph glyph-name="Lcaron" unicode="&#x13d;" horiz-adv-x="1068" 
d="M173 0v1486h259v-1278h569v-208h-828zM727 1192l-151 1l-7 14q6 40 9.5 90.5t3.5 110.5q0 59 -6 104t-17 70l9 37h206q10 -29 14 -63t4 -85q0 -36 -9 -89.5t-23.5 -105.5t-32.5 -84z" />
    <glyph glyph-name="lcaron" unicode="&#x13e;" horiz-adv-x="707" 
d="M171 0v1626h257v-1626h-257zM710 1181l-151 1l-7 14q6 40 9.5 90.5t3.5 110.5q0 59 -6 104t-17 70l9 37h206q10 -29 14 -63t4 -85q0 -36 -9 -89.5t-23.5 -105.5t-32.5 -84z" />
    <glyph glyph-name="Ldot" unicode="&#x13f;" horiz-adv-x="1345" 
d="M1034 643q-66 0 -112.5 47.5t-47.5 117.5q-1 51 23.5 93t64.5 67t86 25q77 0 118 -48.5t42 -114.5q1 -52 -23 -94.5t-64 -67.5t-87 -25zM173 0v1486h259v-1278h569v-208h-828z" />
    <glyph glyph-name="ldot" unicode="&#x140;" horiz-adv-x="1016" 
d="M171 0v1626h257v-1626h-257zM814 659q-66 0 -112.5 47.5t-47.5 117.5q-1 51 23.5 93t64.5 67t86 25q77 0 118 -48.5t42 -114.5q1 -52 -23 -94.5t-64 -67.5t-87 -25z" />
    <glyph glyph-name="Lslash" unicode="&#x141;" horiz-adv-x="1057" 
d="M18 702l774 286l59 -152l-776 -284zM173 0v1486h259v-1278h569v-208h-828z" />
    <glyph glyph-name="lslash" unicode="&#x142;" horiz-adv-x="687" 
d="M50 727v166l587 233v-178zM194 0v1626h257v-1626h-257z" />
    <glyph glyph-name="Nacute" unicode="&#x143;" horiz-adv-x="1521" 
d="M173 0v1486h239l601 -934l196 -376h-69l-33 444v866h241v-1486h-253l-576 901l-227 426h85l33 -481v-846h-237zM719 1615l-113 100q4 4 36.5 34t77.5 72.5t90.5 86t77 76.5t34.5 40l171 -129q-33 -37 -80 -80t-100 -83.5t-103.5 -71.5t-90.5 -45z" />
    <glyph glyph-name="nacute" unicode="&#x144;" horiz-adv-x="1272" 
d="M167 0v1112h230l2 -120q40 29 101.5 60.5t133.5 53.5t145 24q177 5 256.5 -92.5t79.5 -341.5v-696h-257v674q0 137 -36.5 195t-152.5 52q-33 -1 -76 -12t-87.5 -31.5t-84.5 -51.5v-826h-254zM590 1261l-116 100q54 57 112.5 125.5t114.5 142t102 144.5l167 -135
q-16 -31 -52.5 -75t-82.5 -92t-94 -92.5t-88 -76t-63 -41.5z" />
    <glyph glyph-name="uni0145" unicode="&#x145;" horiz-adv-x="1521" 
d="M173 0v1486h239l601 -934l196 -376h-69l-33 444v866h241v-1486h-253l-576 901l-227 426h85l33 -481v-846h-237zM750 -546l-96 41v25q15 17 25 53.5t10 85.5q0 38 -17.5 75.5t-44.5 44.5v49l171 91q33 -14 64.5 -66.5t31.5 -134.5q0 -71 -25 -126t-58.5 -91t-60.5 -47z
" />
    <glyph glyph-name="uni0146" unicode="&#x146;" horiz-adv-x="1272" 
d="M167 0v1112h230l2 -120q40 29 101.5 60.5t133.5 53.5t145 24q177 5 256.5 -92.5t79.5 -341.5v-696h-257v674q0 137 -36.5 195t-152.5 52q-33 -1 -76 -12t-87.5 -31.5t-84.5 -51.5v-826h-254zM651 -540l-121 35v25q15 17 25 46t10 76q0 45 -17.5 84t-44.5 47v48l176 82
q30 -13 61 -67t31 -142q0 -53 -19 -102t-46.5 -84.5t-54.5 -47.5z" />
    <glyph glyph-name="Ncaron" unicode="&#x147;" horiz-adv-x="1521" 
d="M173 0v1486h239l601 -934l196 -376h-69l-33 444v866h241v-1486h-253l-576 901l-227 426h85l33 -481v-846h-237zM672 1624l-252 264l139 74l212 -170l217 170l132 -72l-246 -266h-202z" />
    <glyph glyph-name="ncaron" unicode="&#x148;" horiz-adv-x="1272" 
d="M167 0v1112h230l2 -120q40 29 101.5 60.5t133.5 53.5t145 24q177 5 256.5 -92.5t79.5 -341.5v-696h-257v674q0 137 -36.5 195t-152.5 52q-33 -1 -76 -12t-87.5 -31.5t-84.5 -51.5v-826h-254zM271 1620l136 70l241 -223l227 223l144 -72l-271 -336h-200z" />
    <glyph glyph-name="napostrophe" unicode="&#x149;" horiz-adv-x="1862" 
d="M331 926l-109 70v30q21 24 37 67.5t24.5 94.5t8.5 99q0 82 -30 144t-60 80v64l154 115q45 -19 82 -60t59 -105.5t22 -155.5q0 -124 -34 -214.5t-77.5 -147.5t-76.5 -81zM758 0v1112h230l2 -120q40 29 101.5 60.5t133.5 53.5t145 24q177 5 256.5 -92.5t79.5 -341.5v-696
h-257v674q0 137 -36.5 195t-152.5 52q-33 -1 -76 -12t-87.5 -31.5t-84.5 -51.5v-826h-254z" />
    <glyph glyph-name="Eng" unicode="&#x14a;" horiz-adv-x="1560" 
d="M437 0h-252l-2 1486h245l611 -940l192 -369h-74l-34 440v869h253v-1019q0 -91 -0.5 -170t-6 -149.5t-21.5 -136.5q-22 -93 -77 -168t-132 -129.5t-165 -86.5t-175 -40l-60 113q62 18 126.5 52.5t118.5 80.5t87.5 97.5t33.5 102.5l-573 875l-221 417h90l36 -478v-847z" />
    <glyph glyph-name="eng" unicode="&#x14b;" horiz-adv-x="1279" 
d="M170 0v1112h229l4 -118q40 28 101 59t132.5 53t143.5 24q119 4 193 -36.5t109 -136t36 -258.5v-717q0 -237 -85.5 -357.5t-241.5 -120.5q-27 0 -62 2t-65 5.5t-43 7.5v169q15 -4 51 -7.5t55 -3.5q52 0 81 23.5t40.5 85t11.5 173.5v716q0 134 -35 192t-147 53
q-32 -1 -75.5 -11.5t-90.5 -31t-86 -52.5v-825h-256z" />
    <glyph glyph-name="Omacron" unicode="&#x14c;" horiz-adv-x="1533" 
d="M761 -16q-210 -4 -362 93.5t-232 272.5t-75 403q5 252 98.5 417.5t249.5 247.5t350 84q201 2 348.5 -91t227 -264.5t74.5 -402.5q-5 -251 -94 -418.5t-240.5 -252.5t-344.5 -89zM767 181q187 0 298 143t111 430q0 152 -44 277t-131.5 199.5t-217.5 74.5
q-116 0 -212.5 -58.5t-155 -183t-58.5 -323.5q0 -151 46 -278.5t137 -204t227 -76.5zM509 1672v177h558v-177h-558z" />
    <glyph glyph-name="omacron" unicode="&#x14d;" horiz-adv-x="1208" 
d="M594 -16q-139 0 -236.5 48t-157.5 131t-87 190.5t-26 226.5q3 179 72 301t187.5 184.5t267.5 62.5q187 0 299 -82.5t161 -218t47 -293.5q-3 -179 -71.5 -301.5t-186.5 -185.5t-269 -63zM601 164q131 -2 195 98.5t64 281.5q0 111 -26 202t-81.5 145.5t-144.5 55.5
q-131 2 -195 -94.5t-64 -277.5q0 -111 26 -204t81.5 -149.5t144.5 -57.5zM337 1320v179h555v-179h-555z" />
    <glyph glyph-name="Obreve" unicode="&#x14e;" horiz-adv-x="1533" 
d="M761 -16q-210 -4 -362 93.5t-232 272.5t-75 403q5 252 98.5 417.5t249.5 247.5t350 84q201 2 348.5 -91t227 -264.5t74.5 -402.5q-5 -251 -94 -418.5t-240.5 -252.5t-344.5 -89zM767 181q187 0 298 143t111 430q0 152 -44 277t-131.5 199.5t-217.5 74.5
q-116 0 -212.5 -58.5t-155 -183t-58.5 -323.5q0 -151 46 -278.5t137 -204t227 -76.5zM788 1596q-113 0 -193 52t-119 133.5t-33 171.5h170q1 -12 5 -39.5t19.5 -58t51.5 -52t101 -21.5q64 0 99.5 21.5t52 52t21 58t5.5 39.5h167q6 -90 -36 -171.5t-122 -133.5t-189 -52z" />
    <glyph glyph-name="obreve" unicode="&#x14f;" horiz-adv-x="1208" 
d="M594 -16q-139 0 -236.5 48t-157.5 131t-87 190.5t-26 226.5q3 179 72 301t187.5 184.5t267.5 62.5q187 0 299 -82.5t161 -218t47 -293.5q-3 -179 -71.5 -301.5t-186.5 -185.5t-269 -63zM601 164q131 -2 195 98.5t64 281.5q0 111 -26 202t-81.5 145.5t-144.5 55.5
q-131 2 -195 -94.5t-64 -277.5q0 -111 26 -204t81.5 -149.5t144.5 -57.5zM613 1272q-113 0 -193 52.5t-119 138t-33 183.5h170q1 -12 5 -42t19.5 -63t51.5 -57t101 -24q64 0 99.5 24t52 57t21 63t5.5 42h167q6 -98 -36 -183.5t-122 -138t-189 -52.5z" />
    <glyph glyph-name="Ohungarumlaut" unicode="&#x150;" horiz-adv-x="1533" 
d="M761 -16q-210 -4 -362 93.5t-232 272.5t-75 403q5 252 98.5 417.5t249.5 247.5t350 84q201 2 348.5 -91t227 -264.5t74.5 -402.5q-5 -251 -94 -418.5t-240.5 -252.5t-344.5 -89zM767 181q187 0 298 143t111 430q0 152 -44 277t-131.5 199.5t-217.5 74.5
q-116 0 -212.5 -58.5t-155 -183t-58.5 -323.5q0 -151 46 -278.5t137 -204t227 -76.5zM568 1610l-136 85q4 5 25.5 32t50 65.5t57.5 78.5t49 71t23 40l192 -95q-39 -56 -86 -112t-93 -100t-82 -65zM1041 1610l-137 85q5 5 27 31.5t52 65t59.5 77.5t50.5 68.5t24 38.5l186 -96
q-36 -52 -82.5 -106.5t-94 -98.5t-85.5 -65z" />
    <glyph glyph-name="ohungarumlaut" unicode="&#x151;" horiz-adv-x="1208" 
d="M594 -16q-139 0 -236.5 48t-157.5 131t-87 190.5t-26 226.5q3 179 72 301t187.5 184.5t267.5 62.5q187 0 299 -82.5t161 -218t47 -293.5q-3 -179 -71.5 -301.5t-186.5 -185.5t-269 -63zM601 164q131 -2 195 98.5t64 281.5q0 111 -26 202t-81.5 145.5t-144.5 55.5
q-131 2 -195 -94.5t-64 -277.5q0 -111 26 -204t81.5 -149.5t144.5 -57.5zM358 1302l-111 79q25 38 52 80t55 85.5t55.5 86t53 82t46.5 72.5l173 -118q-24 -41 -65.5 -95.5t-90 -109.5t-93.5 -99t-75 -63zM849 1302l-109 79q24 36 52 76.5t57 83.5t57 85t54.5 82t48.5 73
l168 -119q-20 -38 -61.5 -92t-91.5 -109t-96.5 -98.5t-78.5 -60.5z" />
    <glyph glyph-name="OE" unicode="&#x152;" horiz-adv-x="2041" 
d="M98 750q5 248 95 413t244.5 249.5t351.5 89.5q77 2 154.5 -16t134.5 -63l7 -262q-45 66 -116.5 104t-177.5 38q-81 0 -158 -30t-138.5 -95.5t-97.5 -173.5t-36 -264q0 -157 47 -284t139 -201.5t227 -74.5q103 0 180.5 38t127.5 123l7 -247q-61 -47 -140 -77t-191 -33
q-207 -3 -357 96t-229 273t-74 397zM1020 0v1486h878v-199h-618v-423h455v-197h-455v-464h685v-203h-945z" />
    <glyph glyph-name="oe" unicode="&#x153;" horiz-adv-x="1895" 
d="M1373 -16q-246 0 -376 152.5t-130 422.5q0 162 58 290t171.5 202.5t280.5 76.5q84 2 160 -22.5t135 -77.5t93.5 -134.5t36.5 -194.5q0 -60 -1.5 -111t-8.5 -89h-783l19 153h536q5 81 -9.5 149.5t-59 109.5t-129.5 41q-75 0 -133 -42t-89.5 -141.5t-27.5 -273.5
q5 -119 47.5 -189.5t113 -100.5t159.5 -30q41 0 97.5 8t109 21.5t80.5 29.5l43 -145q-37 -30 -100.5 -53.5t-140 -37.5t-152.5 -14zM601 164q134 -2 198 98.5t64 281.5q0 111 -25.5 202t-81 145.5t-144.5 55.5q-130 2 -194 -94.5t-64 -277.5q0 -111 26 -204t80 -149.5
t141 -57.5zM597 -16q-140 0 -236.5 48t-156.5 131t-86.5 190.5t-25.5 226.5q3 179 71.5 301t187 184.5t268.5 62.5q138 0 234 -47.5t154.5 -130.5t84 -190t24.5 -226q-3 -179 -70 -301.5t-183.5 -185.5t-265.5 -63z" />
    <glyph glyph-name="Racute" unicode="&#x154;" horiz-adv-x="1352" 
d="M435 0h-262v1486h36.5h35.5h37q72 0 170.5 8t223.5 8q109 0 203 -23t165 -74t110.5 -133.5t39.5 -202.5q0 -138 -46 -231t-130.5 -146t-199.5 -71q-41 -6 -83.5 -10.5t-111.5 -6.5t-188 -2v-602zM435 787q21 -3 62.5 -4.5t84.5 -1.5h69q138 0 211 71t73 208
q0 80 -27 136.5t-91.5 86.5t-176.5 30q-55 0 -108.5 -4.5t-96.5 -13.5v-508zM1006 0q-13 19 -22 40t-32 69q-31 67 -60 149.5t-62 159.5t-76.5 129.5t-102.5 60.5l89 69l158 -3q59 -25 104.5 -88.5t84 -147t74.5 -170t76 -158.5q15 -28 30.5 -55.5t30.5 -54.5h-292z
M589 1615l-113 100q4 4 36.5 34t77.5 72.5t90.5 86t77 76.5t34.5 40l171 -129q-33 -37 -80 -80t-100 -83.5t-103.5 -71.5t-90.5 -45z" />
    <glyph glyph-name="racute" unicode="&#x155;" horiz-adv-x="830" 
d="M390 787l-14 173q16 37 64 76.5t113.5 66.5t135.5 27q35 0 62 -3t40 -11v-243q-15 9 -45 18t-95 9t-115.5 -18.5t-87 -45t-58.5 -49.5zM149 0v1112h219l16 -152l20 -74v-886h-255zM429 1261l-116 100q54 57 112.5 125.5t114.5 142t102 144.5l167 -135q-16 -31 -52.5 -75
t-82.5 -92t-94 -92.5t-88 -76t-63 -41.5z" />
    <glyph glyph-name="uni0156" unicode="&#x156;" horiz-adv-x="1352" 
d="M435 0h-262v1486h36.5h35.5h37q72 0 170.5 8t223.5 8q109 0 203 -23t165 -74t110.5 -133.5t39.5 -202.5q0 -138 -46 -231t-130.5 -146t-199.5 -71q-41 -6 -83.5 -10.5t-111.5 -6.5t-188 -2v-602zM435 787q21 -3 62.5 -4.5t84.5 -1.5h69q138 0 211 71t73 208
q0 80 -27 136.5t-91.5 86.5t-176.5 30q-55 0 -108.5 -4.5t-96.5 -13.5v-508zM1006 0q-13 19 -22 40t-32 69q-31 67 -60 149.5t-62 159.5t-76.5 129.5t-102.5 60.5l89 69l158 -3q59 -25 104.5 -88.5t84 -147t74.5 -170t76 -158.5q15 -28 30.5 -55.5t30.5 -54.5h-292z
M660 -546l-96 41v25q15 17 25 53.5t10 85.5q0 38 -17.5 75.5t-44.5 44.5v49l171 91q33 -14 64.5 -66.5t31.5 -134.5q0 -71 -25 -126t-58.5 -91t-60.5 -47z" />
    <glyph glyph-name="uni0157" unicode="&#x157;" horiz-adv-x="830" 
d="M390 787l-14 173q16 37 64 76.5t113.5 66.5t135.5 27q35 0 62 -3t40 -11v-243q-15 9 -45 18t-95 9t-115.5 -18.5t-87 -45t-58.5 -49.5zM149 0v1112h219l16 -152l20 -74v-886h-255zM292 -540l-121 35v25q15 17 25 46t10 76q0 45 -17.5 84t-44.5 47v48l176 82
q30 -13 61 -67t31 -142q0 -53 -19 -102t-46.5 -84.5t-54.5 -47.5z" />
    <glyph glyph-name="Rcaron" unicode="&#x158;" horiz-adv-x="1352" 
d="M435 0h-262v1486h36.5h35.5h37q72 0 170.5 8t223.5 8q109 0 203 -23t165 -74t110.5 -133.5t39.5 -202.5q0 -138 -46 -231t-130.5 -146t-199.5 -71q-41 -6 -83.5 -10.5t-111.5 -6.5t-188 -2v-602zM435 787q21 -3 62.5 -4.5t84.5 -1.5h69q138 0 211 71t73 208
q0 80 -27 136.5t-91.5 86.5t-176.5 30q-55 0 -108.5 -4.5t-96.5 -13.5v-508zM1006 0q-13 19 -22 40t-32 69q-31 67 -60 149.5t-62 159.5t-76.5 129.5t-102.5 60.5l89 69l158 -3q59 -25 104.5 -88.5t84 -147t74.5 -170t76 -158.5q15 -28 30.5 -55.5t30.5 -54.5h-292z
M542 1624l-252 264l139 74l212 -170l217 170l132 -72l-246 -266h-202z" />
    <glyph glyph-name="rcaron" unicode="&#x159;" horiz-adv-x="830" 
d="M390 787l-14 173q16 37 64 76.5t113.5 66.5t135.5 27q35 0 62 -3t40 -11v-243q-15 9 -45 18t-95 9t-115.5 -18.5t-87 -45t-58.5 -49.5zM149 0v1112h219l16 -152l20 -74v-886h-255zM110 1620l136 70l241 -223l227 223l144 -72l-271 -336h-200z" />
    <glyph glyph-name="Sacute" unicode="&#x15a;" horiz-adv-x="1143" 
d="M557 -16q-99 0 -187.5 14.5t-152 35t-91.5 37.5l49 210q37 -22 95.5 -43t128 -35t140.5 -14q131 0 198.5 43t67.5 140q0 66 -34.5 110.5t-105 85.5t-178.5 92q-92 45 -176 107.5t-138 148t-54 197.5q0 106 42 180.5t113.5 120.5t162 67t187.5 21q142 0 234.5 -27.5
t131.5 -52.5l-48 -203q-50 33 -123.5 59t-188.5 26q-72 0 -131 -18.5t-94 -55t-35 -93.5q0 -64 28.5 -108.5t91 -83.5t163.5 -91q79 -39 152.5 -83t132 -97t92.5 -121.5t34 -156.5q0 -135 -63.5 -227t-177.5 -138.5t-266 -46.5zM551 1615l-113 100q4 4 36.5 34t77.5 72.5
t90.5 86t77 76.5t34.5 40l171 -129q-33 -37 -80 -80t-100 -83.5t-103.5 -71.5t-90.5 -45z" />
    <glyph glyph-name="sacute" unicode="&#x15b;" horiz-adv-x="973" 
d="M101 68l32 185q16 -12 64 -31.5t115 -35.5t138 -17q94 -1 142 30.5t48 88.5q0 41 -29.5 71t-81 55.5t-116.5 53.5q-96 42 -165.5 91t-106.5 114t-36 155q2 101 58.5 167.5t151 99.5t210.5 33q111 0 192.5 -22t108.5 -38l-33 -189q-19 15 -57.5 31t-88.5 25.5t-101 9.5
q-101 0 -150.5 -27.5t-50.5 -77.5q-1 -67 48.5 -100.5t124.5 -67.5q109 -50 191.5 -98.5t128.5 -111t46 -153.5q0 -160 -111 -242.5t-302 -82.5q-80 0 -154.5 12.5t-131.5 32t-84 39.5zM441 1261l-116 100q54 57 112.5 125.5t114.5 142t102 144.5l167 -135
q-16 -31 -52.5 -75t-82.5 -92t-94 -92.5t-88 -76t-63 -41.5z" />
    <glyph glyph-name="Scircumflex" unicode="&#x15c;" horiz-adv-x="1143" 
d="M557 -16q-99 0 -187.5 14.5t-152 35t-91.5 37.5l49 210q37 -22 95.5 -43t128 -35t140.5 -14q131 0 198.5 43t67.5 140q0 66 -34.5 110.5t-105 85.5t-178.5 92q-92 45 -176 107.5t-138 148t-54 197.5q0 106 42 180.5t113.5 120.5t162 67t187.5 21q142 0 234.5 -27.5
t131.5 -52.5l-48 -203q-50 33 -123.5 59t-188.5 26q-72 0 -131 -18.5t-94 -55t-35 -93.5q0 -64 28.5 -108.5t91 -83.5t163.5 -91q79 -39 152.5 -83t132 -97t92.5 -121.5t34 -156.5q0 -135 -63.5 -227t-177.5 -138.5t-266 -46.5zM385 1607l-145 70l260 297h204l262 -295
l-149 -72l-216 195z" />
    <glyph glyph-name="scircumflex" unicode="&#x15d;" horiz-adv-x="973" 
d="M101 68l32 185q16 -12 64 -31.5t115 -35.5t138 -17q94 -1 142 30.5t48 88.5q0 41 -29.5 71t-81 55.5t-116.5 53.5q-96 42 -165.5 91t-106.5 114t-36 155q2 101 58.5 167.5t151 99.5t210.5 33q111 0 192.5 -22t108.5 -38l-33 -189q-19 15 -57.5 31t-88.5 25.5t-101 9.5
q-101 0 -150.5 -27.5t-50.5 -77.5q-1 -67 48.5 -100.5t124.5 -67.5q109 -50 191.5 -98.5t128.5 -111t46 -153.5q0 -160 -111 -242.5t-302 -82.5q-80 0 -154.5 12.5t-131.5 32t-84 39.5zM246 1239l-122 68l284 345h188l276 -345l-130 -67l-244 214z" />
    <glyph glyph-name="Scedilla" unicode="&#x15e;" horiz-adv-x="1143" 
d="M557 -16q-99 0 -187.5 14.5t-152 35t-91.5 37.5l49 210q37 -22 95.5 -43t128 -35t140.5 -14q131 0 198.5 43t67.5 140q0 66 -34.5 110.5t-105 85.5t-178.5 92q-92 45 -176 107.5t-138 148t-54 197.5q0 106 42 180.5t113.5 120.5t162 67t187.5 21q142 0 234.5 -27.5
t131.5 -52.5l-48 -203q-50 33 -123.5 59t-188.5 26q-72 0 -131 -18.5t-94 -55t-35 -93.5q0 -64 28.5 -108.5t91 -83.5t163.5 -91q79 -39 152.5 -83t132 -97t92.5 -121.5t34 -156.5q0 -135 -63.5 -227t-177.5 -138.5t-266 -46.5zM267 -426l16 148q14 -7 35 -9.5t44 -2.5
q57 0 92 34.5t36 111.5q2 64 -7.5 105.5t-23.5 68.5l102 4l46 -4q20 -22 33 -59.5t19 -84.5t6 -98q-1 -84 -36 -137.5t-90 -79t-115 -25.5q-28 0 -60 3.5t-58.5 10t-38.5 14.5z" />
    <glyph glyph-name="scedilla" unicode="&#x15f;" horiz-adv-x="973" 
d="M101 68l32 185q16 -12 64 -31.5t115 -35.5t138 -17q94 -1 142 30.5t48 88.5q0 41 -29.5 71t-81 55.5t-116.5 53.5q-96 42 -165.5 91t-106.5 114t-36 155q2 101 58.5 167.5t151 99.5t210.5 33q111 0 192.5 -22t108.5 -38l-33 -189q-19 15 -57.5 31t-88.5 25.5t-101 9.5
q-101 0 -150.5 -27.5t-50.5 -77.5q-1 -67 48.5 -100.5t124.5 -67.5q109 -50 191.5 -98.5t128.5 -111t46 -153.5q0 -160 -111 -242.5t-302 -82.5q-80 0 -154.5 12.5t-131.5 32t-84 39.5zM206 -426l16 148q14 -7 35 -9.5t44 -2.5q57 0 92 34.5t36 111.5q2 64 -7.5 105.5
t-23.5 68.5l102 4l46 -4q20 -22 33 -59.5t19 -84.5t6 -98q-1 -84 -36 -137.5t-90 -79t-115 -25.5q-28 0 -60 3.5t-58.5 10t-38.5 14.5z" />
    <glyph glyph-name="Scaron" unicode="&#x160;" horiz-adv-x="1143" 
d="M557 -16q-99 0 -187.5 14.5t-152 35t-91.5 37.5l49 210q37 -22 95.5 -43t128 -35t140.5 -14q131 0 198.5 43t67.5 140q0 66 -34.5 110.5t-105 85.5t-178.5 92q-92 45 -176 107.5t-138 148t-54 197.5q0 106 42 180.5t113.5 120.5t162 67t187.5 21q142 0 234.5 -27.5
t131.5 -52.5l-48 -203q-50 33 -123.5 59t-188.5 26q-72 0 -131 -18.5t-94 -55t-35 -93.5q0 -64 28.5 -108.5t91 -83.5t163.5 -91q79 -39 152.5 -83t132 -97t92.5 -121.5t34 -156.5q0 -135 -63.5 -227t-177.5 -138.5t-266 -46.5zM504 1624l-252 264l139 74l212 -170l217 170
l132 -72l-246 -266h-202z" />
    <glyph glyph-name="scaron" unicode="&#x161;" horiz-adv-x="973" 
d="M101 68l32 185q16 -12 64 -31.5t115 -35.5t138 -17q94 -1 142 30.5t48 88.5q0 41 -29.5 71t-81 55.5t-116.5 53.5q-96 42 -165.5 91t-106.5 114t-36 155q2 101 58.5 167.5t151 99.5t210.5 33q111 0 192.5 -22t108.5 -38l-33 -189q-19 15 -57.5 31t-88.5 25.5t-101 9.5
q-101 0 -150.5 -27.5t-50.5 -77.5q-1 -67 48.5 -100.5t124.5 -67.5q109 -50 191.5 -98.5t128.5 -111t46 -153.5q0 -160 -111 -242.5t-302 -82.5q-80 0 -154.5 12.5t-131.5 32t-84 39.5zM122 1620l136 70l241 -223l227 223l144 -72l-271 -336h-200z" />
    <glyph glyph-name="uni0162" unicode="&#x162;" horiz-adv-x="1256" 
d="M497 0v1286h-446v200h1154v-200h-446v-1286h-262zM329 -426l16 148q14 -7 35 -9.5t44 -2.5q57 0 92 34.5t36 111.5q2 64 -7.5 105.5t-23.5 68.5l102 4l46 -4q20 -22 33 -59.5t19 -84.5t6 -98q-1 -84 -36 -137.5t-90 -79t-115 -25.5q-28 0 -60 3.5t-58.5 10t-38.5 14.5z
" />
    <glyph glyph-name="uni0163" unicode="&#x163;" horiz-adv-x="860" 
d="M486 -16q-87 0 -149 28t-95.5 94.5t-33.5 184.5v640h-141v137q74 21 115 37t60 64q8 22 18.5 52.5t23 67.5t26.5 79h153v-254h308v-183h-308v-516q0 -107 10 -156t37 -62.5t78 -13.5q28 0 63.5 6.5t68 16.5t50.5 21l39 -145q-29 -24 -81 -46.5t-115 -37t-127 -14.5z
M145 -426l16 148q14 -7 35 -9.5t44 -2.5q57 0 92 34.5t36 111.5q2 64 -7.5 105.5t-23.5 68.5l102 4l46 -4q20 -22 33 -59.5t19 -84.5t6 -98q-1 -84 -36 -137.5t-90 -79t-115 -25.5q-28 0 -60 3.5t-58.5 10t-38.5 14.5z" />
    <glyph glyph-name="Tcaron" unicode="&#x164;" horiz-adv-x="1256" 
d="M497 0v1286h-446v200h1154v-200h-446v-1286h-262zM522 1624l-252 264l139 74l212 -170l217 170l132 -72l-246 -266h-202z" />
    <glyph glyph-name="tcaron" unicode="&#x165;" horiz-adv-x="874" 
d="M486 -16q-87 0 -149 28t-95.5 94.5t-33.5 184.5v640h-141v137q74 21 115 37t60 64q8 22 18.5 52.5t23 67.5t26.5 79h153v-254h308v-183h-308v-516q0 -107 10 -156t37 -62.5t78 -13.5q28 0 63.5 6.5t68 16.5t50.5 21l39 -145q-29 -24 -81 -46.5t-115 -37t-127 -14.5z
M714 1192l-151 1l-7 14q6 40 9.5 90.5t3.5 110.5q0 59 -6 104t-17 70l9 37h206q10 -29 14 -63t4 -85q0 -36 -9 -89.5t-23.5 -105.5t-32.5 -84z" />
    <glyph glyph-name="Tbar" unicode="&#x166;" horiz-adv-x="1256" 
d="M222 611v167h823v-167h-823zM497 0v1286h-446v200h1154v-200h-446v-1286h-262z" />
    <glyph glyph-name="tbar" unicode="&#x167;" horiz-adv-x="853" 
d="M76 552v183h700v-183h-700zM486 -16q-87 0 -149 28t-95.5 94.5t-33.5 184.5v640h-141v137q74 21 115 37t60 64q8 22 18.5 52.5t23 67.5t26.5 79h153v-254h308v-183h-308v-516q0 -107 10 -156t37 -62.5t78 -13.5q28 0 63.5 6.5t68 16.5t50.5 21l39 -145q-29 -24 -81 -46.5
t-115 -37t-127 -14.5z" />
    <glyph glyph-name="Utilde" unicode="&#x168;" horiz-adv-x="1452" 
d="M733 -16q-211 0 -339.5 77t-186 220t-57.5 341l1 864h260l-2 -819q0 -191 38 -294.5t111.5 -143.5t179.5 -40q97 0 165.5 41t105 144.5t36.5 292.5v819h258v-868q0 -304 -140 -469t-430 -165zM882 1618q-58 0 -97 20.5t-68.5 47.5t-58 48t-65.5 21q-43 0 -70 -12
t-44.5 -33t-30.5 -49l-105 46q15 58 46.5 109.5t80.5 84t116 32.5q56 0 95 -20t69 -47t59.5 -47t66.5 -20q36 0 63.5 11t46.5 32t32 50l107 -51q-9 -62 -44 -112.5t-87 -80.5t-112 -30z" />
    <glyph glyph-name="utilde" unicode="&#x169;" horiz-adv-x="1231" 
d="M487 -16q-112 0 -180.5 34t-104 98t-48 151.5t-12.5 193.5v653h254v-653q0 -123 20 -181.5t61.5 -76t107.5 -17.5q39 0 83 11.5t82 28t59 31.5v857h255v-1130h-135q-44 0 -69 13t-25 64v77l5 -39q-44 -31 -104 -57t-125 -42t-124 -16zM746 1287q-54 0 -90.5 21.5t-64 49
t-54.5 49t-61 21.5q-39 0 -64 -12t-41.5 -32.5t-29.5 -48.5l-98 46q15 58 45.5 109t78 83.5t113.5 32.5q52 0 88 -20.5t64 -48.5t54.5 -48.5t59.5 -20.5q35 0 60 11t43 31.5t30 48.5l102 -50q-10 -63 -43.5 -112.5t-83 -79.5t-108.5 -30z" />
    <glyph glyph-name="Umacron" unicode="&#x16a;" horiz-adv-x="1452" 
d="M733 -16q-211 0 -339.5 77t-186 220t-57.5 341l1 864h260l-2 -819q0 -191 38 -294.5t111.5 -143.5t179.5 -40q97 0 165.5 41t105 144.5t36.5 292.5v819h258v-868q0 -304 -140 -469t-430 -165zM457 1672v177h558v-177h-558z" />
    <glyph glyph-name="umacron" unicode="&#x16b;" horiz-adv-x="1231" 
d="M487 -16q-112 0 -180.5 34t-104 98t-48 151.5t-12.5 193.5v653h254v-653q0 -123 20 -181.5t61.5 -76t107.5 -17.5q39 0 83 11.5t82 28t59 31.5v857h255v-1130h-135q-44 0 -69 13t-25 64v77l5 -39q-44 -31 -104 -57t-125 -42t-124 -16zM337 1320v179h555v-179h-555z" />
    <glyph glyph-name="Ubreve" unicode="&#x16c;" horiz-adv-x="1452" 
d="M733 -16q-211 0 -339.5 77t-186 220t-57.5 341l1 864h260l-2 -819q0 -191 38 -294.5t111.5 -143.5t179.5 -40q97 0 165.5 41t105 144.5t36.5 292.5v819h258v-868q0 -304 -140 -469t-430 -165zM736 1596q-113 0 -193 52t-119 133.5t-33 171.5h170q1 -12 5 -39.5t19.5 -58
t51.5 -52t101 -21.5q64 0 99.5 21.5t52 52t21 58t5.5 39.5h167q6 -90 -36 -171.5t-122 -133.5t-189 -52z" />
    <glyph glyph-name="ubreve" unicode="&#x16d;" horiz-adv-x="1231" 
d="M487 -16q-112 0 -180.5 34t-104 98t-48 151.5t-12.5 193.5v653h254v-653q0 -123 20 -181.5t61.5 -76t107.5 -17.5q39 0 83 11.5t82 28t59 31.5v857h255v-1130h-135q-44 0 -69 13t-25 64v77l5 -39q-44 -31 -104 -57t-125 -42t-124 -16zM613 1272q-113 0 -193 52.5
t-119 138t-33 183.5h170q1 -12 5 -42t19.5 -63t51.5 -57t101 -24q64 0 99.5 24t52 57t21 63t5.5 42h167q6 -98 -36 -183.5t-122 -138t-189 -52.5z" />
    <glyph glyph-name="Uring" unicode="&#x16e;" horiz-adv-x="1452" 
d="M733 -16q-211 0 -339.5 77t-186 220t-57.5 341l1 864h260l-2 -819q0 -191 38 -294.5t111.5 -143.5t179.5 -40q97 0 165.5 41t105 144.5t36.5 292.5v819h258v-868q0 -304 -140 -469t-430 -165zM732 1477q-149 0 -236 72.5t-85 201.5q1 96 49 153.5t122.5 82.5t153.5 25
q149 0 237 -67t88 -198q-1 -96 -47 -155.5t-120.5 -87t-161.5 -27.5zM732 1612q74 -1 120 28t46 107q0 66 -47.5 99t-118.5 33q-58 2 -107 -24t-49 -105q0 -63 42.5 -100t113.5 -38z" />
    <glyph glyph-name="uring" unicode="&#x16f;" horiz-adv-x="1231" 
d="M487 -16q-112 0 -180.5 34t-104 98t-48 151.5t-12.5 193.5v653h254v-653q0 -123 20 -181.5t61.5 -76t107.5 -17.5q39 0 83 11.5t82 28t59 31.5v857h255v-1130h-135q-44 0 -69 13t-25 64v77l5 -39q-44 -31 -104 -57t-125 -42t-124 -16zM609 1289q-148 0 -235 76.5
t-86 204.5q1 97 49.5 155.5t122.5 85.5t153 27q149 0 238 -69.5t87 -200.5q-1 -97 -47 -158.5t-121 -91t-161 -29.5zM610 1424q72 -1 117.5 31.5t45.5 110.5q0 68 -47 104t-116 36q-40 0 -75.5 -12.5t-58.5 -42t-23 -81.5q0 -64 43 -104.5t114 -41.5z" />
    <glyph glyph-name="Uhungarumlaut" unicode="&#x170;" horiz-adv-x="1452" 
d="M733 -16q-211 0 -339.5 77t-186 220t-57.5 341l1 864h260l-2 -819q0 -191 38 -294.5t111.5 -143.5t179.5 -40q97 0 165.5 41t105 144.5t36.5 292.5v819h258v-868q0 -304 -140 -469t-430 -165zM516 1610l-136 85q4 5 25.5 32t50 65.5t57.5 78.5t49 71t23 40l192 -95
q-39 -56 -86 -112t-93 -100t-82 -65zM989 1610l-137 85q5 5 27 31.5t52 65t59.5 77.5t50.5 68.5t24 38.5l186 -96q-36 -52 -82.5 -106.5t-94 -98.5t-85.5 -65z" />
    <glyph glyph-name="uhungarumlaut" unicode="&#x171;" horiz-adv-x="1231" 
d="M487 -16q-112 0 -180.5 34t-104 98t-48 151.5t-12.5 193.5v653h254v-653q0 -123 20 -181.5t61.5 -76t107.5 -17.5q39 0 83 11.5t82 28t59 31.5v857h255v-1130h-135q-44 0 -69 13t-25 64v77l5 -39q-44 -31 -104 -57t-125 -42t-124 -16zM358 1302l-111 79q25 38 52 80
t55 85.5t55.5 86t53 82t46.5 72.5l173 -118q-24 -41 -65.5 -95.5t-90 -109.5t-93.5 -99t-75 -63zM849 1302l-109 79q24 36 52 76.5t57 83.5t57 85t54.5 82t48.5 73l168 -119q-20 -38 -61.5 -92t-91.5 -109t-96.5 -98.5t-78.5 -60.5z" />
    <glyph glyph-name="Uogonek" unicode="&#x172;" horiz-adv-x="1452" 
d="M733 -16q-211 0 -339.5 77t-186 220t-57.5 341l1 864h260l-2 -819q0 -191 38 -294.5t111.5 -143.5t179.5 -40q97 0 165.5 41t105 144.5t36.5 292.5v819h258v-868q0 -304 -140 -469t-430 -165zM704 -499q-62 0 -118.5 22.5t-92 66t-37.5 107.5q-2 67 34.5 125t95 103.5
t119.5 74.5l26 13l157 -13q-53 -28 -105 -68.5t-85.5 -87.5t-32.5 -94q1 -48 32.5 -70t89.5 -22q48 0 95 14.5t72 23.5l14 -124q-39 -26 -105.5 -48t-158.5 -23z" />
    <glyph glyph-name="uogonek" unicode="&#x173;" horiz-adv-x="1231" 
d="M487 -16q-112 0 -180.5 34t-104 98t-48 151.5t-12.5 193.5v653h254v-653q0 -123 20 -181.5t61.5 -76t107.5 -17.5q39 0 83 11.5t82 28t59 31.5v857h255v-1130h-135q-44 0 -69 13t-25 64v77l5 -39q-44 -31 -104 -57t-125 -42t-124 -16zM875 -501q-63 0 -119 22.5t-92 66
t-38 107.5q-2 59 30.5 117t90 106.5t130.5 81.5l66 30l121 -30q-55 -27 -108 -68t-86.5 -88.5t-33.5 -95.5q1 -48 32.5 -71t90.5 -23q46 0 93.5 15.5t73.5 24.5l13 -124q-39 -26 -105 -48.5t-159 -22.5z" />
    <glyph glyph-name="Wcircumflex" unicode="&#x174;" horiz-adv-x="1896" 
d="M416 -15l-403 1501h264l214 -926l66 -402h-35l70 402l254 926h209l261 -926l84 -403h-40l64 403l200 926h259l-386 -1501h-258l-254 916l-78 451l77 -1l-74 -450l-257 -916h-237zM726 1607l-145 70l260 297h204l262 -295l-149 -72l-216 195z" />
    <glyph glyph-name="wcircumflex" unicode="&#x175;" horiz-adv-x="1638" 
d="M355 -16l-339 1130h254l159 -608l84 -380h-64l82 378l171 610h245l172 -608l81 -376h-61l82 370l155 614h246l-343 -1130h-231l-190 674l-63 311h50l-66 -311l-185 -674h-239zM572 1247l-122 68l284 345h188l276 -345l-130 -67l-244 214z" />
    <glyph glyph-name="Ycircumflex" unicode="&#x176;" horiz-adv-x="1235" 
d="M487 0v624l35 -129l-524 991h281l301 -603l67 -168h-38l56 168l298 603h275l-520 -992l34 128v-622h-265zM409 1607l-145 70l260 297h204l262 -295l-149 -72l-216 195z" />
    <glyph glyph-name="ycircumflex" unicode="&#x177;" horiz-adv-x="1117" 
d="M134 -479v205q17 -6 51 -10.5t52 -4.5q44 0 101.5 21.5t110 89t80.5 206.5l14 -28h-108l-395 1114h273l219 -696l92 -322h-54l82 322l184 696h273l-366 -1146q-65 -201 -156.5 -306.5t-199.5 -136.5q-24 -9 -62 -15t-65 -6q-15 0 -42.5 2.5t-52.5 6.5t-31 8zM343 1239
l-122 68l284 345h188l276 -345l-130 -67l-244 214z" />
    <glyph glyph-name="Ydieresis" unicode="&#x178;" horiz-adv-x="1235" 
d="M487 0v624l35 -129l-524 991h281l301 -603l67 -168h-38l56 168l298 603h275l-520 -992l34 128v-622h-265zM368 1620q-61 0 -103.5 38.5t-42.5 103.5q0 69 51 115.5t116 46.5q73 0 109.5 -40.5t36.5 -102.5q0 -71 -49 -116t-118 -45zM864 1620q-62 0 -103.5 38.5
t-41.5 103.5q0 69 51 115.5t115 46.5q73 0 110 -40.5t37 -102.5q0 -71 -49.5 -116t-118.5 -45z" />
    <glyph glyph-name="Zacute" unicode="&#x179;" horiz-adv-x="1233" 
d="M99 0l-43 82l719 1129l57 74h-696v201h1000l45 -78l-704 -1119l-72 -89h724v-200h-1030zM575 1615l-113 100q4 4 36.5 34t77.5 72.5t90.5 86t77 76.5t34.5 40l171 -129q-33 -37 -80 -80t-100 -83.5t-103.5 -71.5t-90.5 -45z" />
    <glyph glyph-name="zacute" unicode="&#x17a;" horiz-adv-x="1034" 
d="M97 0l-42 80l517 764l58 84h-511l1 186h818l34 -94l-512 -754l-59 -83h548v-183h-852zM461 1261l-116 100q54 57 112.5 125.5t114.5 142t102 144.5l167 -135q-16 -31 -52.5 -75t-82.5 -92t-94 -92.5t-88 -76t-63 -41.5z" />
    <glyph glyph-name="Zdotaccent" unicode="&#x17b;" horiz-adv-x="1233" 
d="M99 0l-43 82l719 1129l57 74h-696v201h1000l45 -78l-704 -1119l-72 -89h724v-200h-1030zM617 1653q-63 0 -106.5 37.5t-43.5 105.5t52.5 114t119.5 46q74 0 111 -39.5t37 -102.5q0 -71 -50 -116t-120 -45z" />
    <glyph glyph-name="zdotaccent" unicode="&#x17c;" horiz-adv-x="1034" 
d="M97 0l-42 80l517 764l58 84h-511l1 186h818l34 -94l-512 -754l-59 -83h548v-183h-852zM508 1289q-63 0 -109 40t-46 108q0 46 25.5 83.5t65.5 60t85 22.5q74 0 113.5 -42t39.5 -105q0 -72 -52 -119.5t-122 -47.5z" />
    <glyph glyph-name="Zcaron" unicode="&#x17d;" horiz-adv-x="1233" 
d="M99 0l-43 82l719 1129l57 74h-696v201h1000l45 -78l-704 -1119l-72 -89h724v-200h-1030zM528 1624l-252 264l139 74l212 -170l217 170l132 -72l-246 -266h-202z" />
    <glyph glyph-name="zcaron" unicode="&#x17e;" horiz-adv-x="1034" 
d="M97 0l-42 80l517 764l58 84h-511l1 186h818l34 -94l-512 -754l-59 -83h548v-183h-852zM142 1620l136 70l241 -223l227 223l144 -72l-271 -336h-200z" />
    <glyph glyph-name="uni018F" unicode="&#x18f;" horiz-adv-x="1480" 
d="M683 -16q-113 0 -219 36.5t-190 113t-133 195.5t-49 283q0 81 4 122.5t10 87.5h1127l-26 -196h-867q-4 -82 12.5 -161t59.5 -143t116 -101.5t180 -37.5q143 0 237 76.5t140.5 208t46.5 294.5q0 169 -54.5 289t-150 183.5t-219.5 63.5q-163 0 -281.5 -46t-201.5 -125
l-57 200q55 51 136.5 90.5t186 62.5t228.5 24q137 1 257.5 -46t213 -141.5t145.5 -237.5t53 -335q0 -229 -80 -400t-237 -265.5t-388 -94.5z" />
    <glyph glyph-name="florin" unicode="&#x192;" horiz-adv-x="1171" 
d="M286 -348l110 1276h-187l9 139l191 47l8 71q15 128 58.5 216t108 142t142.5 78.5t163 24.5q65 0 107 -7.5t54 -12.5l-15 -198q-15 9 -55 15t-103 6q-76 0 -131 -49.5t-70 -179.5l-13 -106h281l-14 -186h-282l-108 -1276h-254z" />
    <glyph glyph-name="Ohorn" unicode="&#x1a0;" horiz-adv-x="1533" 
d="M761 -16q-210 -4 -362 93.5t-232 272.5t-75 403q5 252 98.5 417.5t249.5 247.5t350 84q201 2 348.5 -91t227 -264.5t74.5 -402.5q-5 -251 -94 -418.5t-240.5 -252.5t-344.5 -89zM767 181q187 0 298 143t111 430q0 152 -44 277t-131.5 199.5t-217.5 74.5
q-116 0 -212.5 -58.5t-155 -183t-58.5 -323.5q0 -151 46 -278.5t137 -204t227 -76.5zM1024 1290v150q72 0 119 22.5t74 57.5t39.5 73t15.5 69q2 14 2.5 23t-1.5 15h171q2 -12 3 -24t1 -26q0 -105 -58 -186.5t-154.5 -127.5t-211.5 -46z" />
    <glyph glyph-name="ohorn" unicode="&#x1a1;" horiz-adv-x="1208" 
d="M594 -16q-139 0 -236.5 48t-157.5 131t-87 190.5t-26 226.5q3 179 72 301t187.5 184.5t267.5 62.5q187 0 299 -82.5t161 -218t47 -293.5q-3 -179 -71.5 -301.5t-186.5 -185.5t-269 -63zM601 164q131 -2 195 98.5t64 281.5q0 111 -26 202t-81.5 145.5t-144.5 55.5
q-131 2 -195 -94.5t-64 -277.5q0 -111 26 -204t81.5 -149.5t144.5 -57.5zM817 904v150q72 0 119 22.5t74 57.5t39.5 73t15.5 69q2 14 2.5 23t-1.5 15h171q2 -12 3 -24t1 -26q0 -105 -58 -186.5t-154.5 -127.5t-211.5 -46z" />
    <glyph glyph-name="Uhorn" unicode="&#x1af;" horiz-adv-x="1452" 
d="M733 -16q-211 0 -339.5 77t-186 220t-57.5 341l1 864h260l-2 -819q0 -191 38 -294.5t111.5 -143.5t179.5 -40q97 0 165.5 41t105 144.5t36.5 292.5v819h258v-868q0 -304 -140 -469t-430 -165zM1140 1334v150q72 0 119 22.5t74 57.5t39.5 73t15.5 69q2 14 2.5 23t-1.5 15
h171q2 -12 3 -24t1 -26q0 -105 -58 -186.5t-154.5 -127.5t-211.5 -46z" />
    <glyph glyph-name="uhorn" unicode="&#x1b0;" horiz-adv-x="1231" 
d="M487 -16q-112 0 -180.5 34t-104 98t-48 151.5t-12.5 193.5v653h254v-653q0 -123 20 -181.5t61.5 -76t107.5 -17.5q39 0 83 11.5t82 28t59 31.5v857h255v-1130h-135q-44 0 -69 13t-25 64v77l5 -39q-44 -31 -104 -57t-125 -42t-124 -16zM975 964v150q72 0 119 22.5t74 57.5
t39.5 73t15.5 69q2 14 2.5 23t-1.5 15h171q2 -12 3 -24t1 -26q0 -105 -58 -186.5t-154.5 -127.5t-211.5 -46z" />
    <glyph glyph-name="uni01B7" unicode="&#x1b7;" horiz-adv-x="1148" 
d="M365 -20q-73 0 -138 9t-112 15v185q31 -7 66.5 -12.5t66.5 -8.5t51 -3q165 0 276.5 36.5t167.5 104.5t56 164q0 82 -40 133.5t-103 75t-132 23.5q-55 1 -109 -14t-93 -43l-3 213l289 320l126 109h-605l1 199h879l-2 -190l-407 -439q116 7 206 -26.5t151.5 -92
t93.5 -130.5t32 -145q0 -130 -74.5 -239.5t-232.5 -176.5t-411 -67z" />
    <glyph glyph-name="uni01C4" unicode="&#x1c4;" horiz-adv-x="2647" 
d="M173 0v1486h41h39.5h39.5q45 0 104.5 4t126 8t133.5 4q365 0 539.5 -188.5t174.5 -528.5q0 -254 -89.5 -434.5t-255 -275t-393.5 -91.5q-84 2 -181 9t-176 7h-34.5h-34.5h-34zM435 196q45 -10 108 -14t122 -3q128 1 225.5 60.5t152.5 185.5t55 326q0 208 -53.5 331
t-160.5 176.5t-267 53.5q-54 0 -102.5 -4t-79.5 -10v-1102zM1513 0l-43 82l719 1129l57 74h-696v201h1000l45 -78l-704 -1119l-72 -89h724v-200h-1030zM1942 1624l-252 264l139 74l212 -170l217 170l132 -72l-246 -266h-202z" />
    <glyph glyph-name="uni01C5" unicode="&#x1c5;" horiz-adv-x="2468" 
d="M173 0v1486h41h39.5h39.5q45 0 104.5 4t126 8t133.5 4q365 0 539.5 -188.5t174.5 -528.5q0 -254 -89.5 -434.5t-255 -275t-393.5 -91.5q-84 2 -181 9t-176 7h-34.5h-34.5h-34zM435 196q45 -10 108 -14t122 -3q128 1 225.5 60.5t152.5 185.5t55 326q0 208 -53.5 331
t-160.5 176.5t-267 53.5q-54 0 -102.5 -4t-79.5 -10v-1102zM1531 0l-42 80l517 764l58 84h-511l1 186h818l34 -94l-512 -754l-59 -83h548v-183h-852zM1576 1620l136 70l241 -223l227 223l144 -72l-271 -336h-200z" />
    <glyph glyph-name="uni01C6" unicode="&#x1c6;" horiz-adv-x="2281" 
d="M847 0v145l-15 9v777l8 6l-8 241v448h254v-1626h-239zM531 -16q-118 0 -218 58t-161.5 176t-61.5 299q0 183 70 320.5t196 214t295 76.5q103 0 172 -23.5t88 -40.5l-79 -162q-28 24 -76.5 33.5t-113.5 9.5q-80 0 -145 -45t-103.5 -135t-39.5 -223q-2 -188 65 -273.5
t187 -85.5q73 0 133 26.5t93 52.5l38 -127q-24 -25 -65 -60.5t-107.5 -63t-166.5 -27.5zM1344 0l-42 80l517 764l58 84h-511l1 186h818l34 -94l-512 -754l-59 -83h548v-183h-852zM1388 1605l137 70l240 -222l228 222l143 -71l-270 -337h-201z" />
    <glyph glyph-name="uni01C7" unicode="&#x1c7;" horiz-adv-x="1782" 
d="M173 0v1486h259v-1278h569v-208h-828zM1092 -324l-71 135q76 29 153.5 92t108.5 177q23 86 27.5 219t4.5 295v892h262v-888q0 -145 1 -275t-19 -237q-18 -99 -69.5 -173t-120 -124.5t-141.5 -78.5t-136 -34z" />
    <glyph glyph-name="uni01C8" unicode="&#x1c8;" horiz-adv-x="1646" 
d="M173 0v1486h259v-1278h569v-208h-828zM971 -478v177q15 -7 53 -13.5t65 -6.5q84 0 116.5 70t32.5 221v1142h254v-1061q0 -200 -43.5 -319.5t-126 -173.5t-199.5 -54q-19 0 -51.5 2.5t-61.5 6.5t-39 9zM1356 1298q-63 0 -109 40t-46 107q0 46 25.5 83.5t65.5 60t84 22.5
q75 0 114.5 -42t39.5 -105q0 -71 -52 -118.5t-122 -47.5z" />
    <glyph glyph-name="uni01C9" unicode="&#x1c9;" horiz-adv-x="1188" 
d="M171 0v1626h257v-1626h-257zM513 -478v177q15 -7 53 -13.5t65 -6.5q84 0 116.5 70t32.5 221v1142h254v-1061q0 -200 -43.5 -319.5t-126 -173.5t-199.5 -54q-19 0 -51.5 2.5t-61.5 6.5t-39 9zM898 1298q-63 0 -109 40t-46 107q0 46 25.5 83.5t65.5 60t84 22.5
q75 0 114.5 -42t39.5 -105q0 -71 -52 -118.5t-122 -47.5z" />
    <glyph glyph-name="uni01CA" unicode="&#x1ca;" horiz-adv-x="2245" 
d="M173 0v1486h239l601 -934l196 -376h-69l-33 444v866h241v-1486h-253l-576 901l-227 426h85l33 -481v-846h-237zM1556 -324l-71 135q76 29 153.5 92t108.5 177q23 86 27.5 219t4.5 295v892h262v-888q0 -145 1 -275t-19 -237q-18 -99 -69.5 -173t-120 -124.5t-141.5 -78.5
t-136 -34z" />
    <glyph glyph-name="uni01CB" unicode="&#x1cb;" horiz-adv-x="2110" 
d="M173 0v1486h239l601 -934l196 -376h-69l-33 444v866h241v-1486h-253l-576 901l-227 426h85l33 -481v-846h-237zM1435 -478v177q15 -7 53 -13.5t65 -6.5q84 0 116.5 70t32.5 221v1142h254v-1061q0 -200 -43.5 -319.5t-126 -173.5t-199.5 -54q-19 0 -51.5 2.5t-61.5 6.5
t-39 9zM1819 1298q-63 0 -109 40t-46 107q0 46 25.5 83.5t65.5 60t84 22.5q75 0 114.5 -42t39.5 -105q0 -71 -52 -118.5t-122 -47.5z" />
    <glyph glyph-name="uni01CC" unicode="&#x1cc;" horiz-adv-x="1861" 
d="M167 0v1112h230l2 -120q40 29 101.5 60.5t133.5 53.5t145 24q177 5 256.5 -92.5t79.5 -341.5v-696h-257v674q0 137 -36.5 195t-152.5 52q-33 -1 -76 -12t-87.5 -31.5t-84.5 -51.5v-826h-254zM1186 -478v177q15 -7 53 -13.5t65 -6.5q84 0 116.5 70t32.5 221v1142h254
v-1061q0 -200 -43.5 -319.5t-126 -173.5t-199.5 -54q-19 0 -51.5 2.5t-61.5 6.5t-39 9zM1570 1298q-63 0 -109 40t-46 107q0 46 25.5 83.5t65.5 60t84 22.5q75 0 114.5 -42t39.5 -105q0 -71 -52 -118.5t-122 -47.5z" />
    <glyph glyph-name="uni01CD" unicode="&#x1cd;" horiz-adv-x="1385" 
d="M283 0h-275l555 1501h266l549 -1501h-281l-357 1095l-43 153l-45 -153zM296 348l41 190h682l41 -190h-764zM593 1624l-252 264l139 74l212 -170l217 170l132 -72l-246 -266h-202z" />
    <glyph glyph-name="uni01CE" unicode="&#x1ce;" horiz-adv-x="1140" 
d="M438 -16q-102 0 -180.5 40.5t-123 114.5t-44.5 174q0 106 57 180t153 115q65 27 140.5 42t151.5 21.5t141 6.5l49 -62l-49 -86q-38 0 -89.5 -5.5t-100.5 -16.5t-83 -27q-47 -21 -80 -55t-33 -97q0 -83 46 -124.5t131 -41.5q44 0 88 12.5t77 29t44 29.5l48 -54l-34 -86
q-44 -40 -125.5 -75t-183.5 -35zM989 0h-242v166h-14v609q0 94 -49.5 124t-140.5 30q-63 0 -130.5 -12t-125 -30.5t-91.5 -38.5l-58 175q27 16 94.5 41.5t157 46t177.5 20.5q135 0 229 -31t143.5 -112t49.5 -231v-757zM179 1620l136 70l241 -223l227 223l144 -72l-271 -336
h-200z" />
    <glyph glyph-name="uni01CF" unicode="&#x1cf;" horiz-adv-x="658" 
d="M197 0v1486h263v-1486h-263zM231 1624l-252 264l139 74l212 -170l217 170l132 -72l-246 -266h-202z" />
    <glyph glyph-name="uni01D0" unicode="&#x1d0;" horiz-adv-x="603" 
d="M174 0v1112h255v-1112h-255zM-76 1620l136 70l241 -223l227 223l144 -72l-271 -336h-200z" />
    <glyph glyph-name="uni01D1" unicode="&#x1d1;" horiz-adv-x="1533" 
d="M761 -16q-210 -4 -362 93.5t-232 272.5t-75 403q5 252 98.5 417.5t249.5 247.5t350 84q201 2 348.5 -91t227 -264.5t74.5 -402.5q-5 -251 -94 -418.5t-240.5 -252.5t-344.5 -89zM767 181q187 0 298 143t111 430q0 152 -44 277t-131.5 199.5t-217.5 74.5
q-116 0 -212.5 -58.5t-155 -183t-58.5 -323.5q0 -151 46 -278.5t137 -204t227 -76.5zM689 1624l-252 264l139 74l212 -170l217 170l132 -72l-246 -266h-202z" />
    <glyph glyph-name="uni01D2" unicode="&#x1d2;" horiz-adv-x="1208" 
d="M594 -16q-139 0 -236.5 48t-157.5 131t-87 190.5t-26 226.5q3 179 72 301t187.5 184.5t267.5 62.5q187 0 299 -82.5t161 -218t47 -293.5q-3 -179 -71.5 -301.5t-186.5 -185.5t-269 -63zM601 164q131 -2 195 98.5t64 281.5q0 111 -26 202t-81.5 145.5t-144.5 55.5
q-131 2 -195 -94.5t-64 -277.5q0 -111 26 -204t81.5 -149.5t144.5 -57.5zM237 1620l136 70l241 -223l227 223l144 -72l-271 -336h-200z" />
    <glyph glyph-name="uni01D3" unicode="&#x1d3;" horiz-adv-x="1452" 
d="M733 -16q-211 0 -339.5 77t-186 220t-57.5 341l1 864h260l-2 -819q0 -191 38 -294.5t111.5 -143.5t179.5 -40q97 0 165.5 41t105 144.5t36.5 292.5v819h258v-868q0 -304 -140 -469t-430 -165zM637 1624l-252 264l139 74l212 -170l217 170l132 -72l-246 -266h-202z" />
    <glyph glyph-name="uni01D4" unicode="&#x1d4;" horiz-adv-x="1231" 
d="M487 -16q-112 0 -180.5 34t-104 98t-48 151.5t-12.5 193.5v653h254v-653q0 -123 20 -181.5t61.5 -76t107.5 -17.5q39 0 83 11.5t82 28t59 31.5v857h255v-1130h-135q-44 0 -69 13t-25 64v77l5 -39q-44 -31 -104 -57t-125 -42t-124 -16zM237 1620l136 70l241 -223l227 223
l144 -72l-271 -336h-200z" />
    <glyph glyph-name="uni01D5" unicode="&#x1d5;" horiz-adv-x="1452" 
d="M733 -16q-211 0 -339.5 77t-186 220t-57.5 341l1 864h260l-2 -819q0 -191 38 -294.5t111.5 -143.5t179.5 -40q97 0 165.5 41t105 144.5t36.5 292.5v819h258v-868q0 -304 -140 -469t-430 -165zM477 1620q-61 0 -103.5 38.5t-42.5 103.5q0 69 51 115.5t116 46.5
q73 0 109.5 -40.5t36.5 -102.5q0 -71 -49 -116t-118 -45zM973 1620q-62 0 -103.5 38.5t-41.5 103.5q0 69 51 115.5t115 46.5q73 0 110 -40.5t37 -102.5q0 -71 -49.5 -116t-118.5 -45zM457 2045v177h558v-177h-558z" />
    <glyph glyph-name="uni01D6" unicode="&#x1d6;" horiz-adv-x="1231" 
d="M487 -16q-112 0 -180.5 34t-104 98t-48 151.5t-12.5 193.5v653h254v-653q0 -123 20 -181.5t61.5 -76t107.5 -17.5q39 0 83 11.5t82 28t59 31.5v857h255v-1130h-135q-44 0 -69 13t-25 64v77l5 -39q-44 -31 -104 -57t-125 -42t-124 -16zM373 1296q-61 0 -102.5 39.5
t-41.5 103.5q0 68 51.5 114.5t113.5 46.5q72 0 107 -41t35 -102q0 -70 -48.5 -115.5t-114.5 -45.5zM835 1296q-60 0 -102 39.5t-42 103.5q0 68 51 114.5t115 46.5q72 0 106.5 -41t34.5 -102q0 -70 -48.5 -115.5t-114.5 -45.5zM337 1716v179h555v-179h-555z" />
    <glyph glyph-name="uni01D7" unicode="&#x1d7;" horiz-adv-x="1452" 
d="M733 -16q-211 0 -339.5 77t-186 220t-57.5 341l1 864h260l-2 -819q0 -191 38 -294.5t111.5 -143.5t179.5 -40q97 0 165.5 41t105 144.5t36.5 292.5v819h258v-868q0 -304 -140 -469t-430 -165zM477 1620q-61 0 -103.5 38.5t-42.5 103.5q0 69 51 115.5t116 46.5
q73 0 109.5 -40.5t36.5 -102.5q0 -71 -49 -116t-118 -45zM973 1620q-62 0 -103.5 38.5t-41.5 103.5q0 69 51 115.5t115 46.5q73 0 110 -40.5t37 -102.5q0 -71 -49.5 -116t-118.5 -45zM684 1988l-113 100q4 4 36.5 34t77.5 72.5t90.5 86t77 76.5t34.5 40l171 -129
q-33 -37 -80 -80t-100 -83.5t-103.5 -71.5t-90.5 -45z" />
    <glyph glyph-name="uni01D8" unicode="&#x1d8;" horiz-adv-x="1231" 
d="M487 -16q-112 0 -180.5 34t-104 98t-48 151.5t-12.5 193.5v653h254v-653q0 -123 20 -181.5t61.5 -76t107.5 -17.5q39 0 83 11.5t82 28t59 31.5v857h255v-1130h-135q-44 0 -69 13t-25 64v77l5 -39q-44 -31 -104 -57t-125 -42t-124 -16zM373 1296q-61 0 -102.5 39.5
t-41.5 103.5q0 68 51.5 114.5t113.5 46.5q72 0 107 -41t35 -102q0 -70 -48.5 -115.5t-114.5 -45.5zM835 1296q-60 0 -102 39.5t-42 103.5q0 68 51 114.5t115 46.5q72 0 106.5 -41t34.5 -102q0 -70 -48.5 -115.5t-114.5 -45.5zM556 1657l-116 100q54 57 112.5 125.5
t114.5 142t102 144.5l167 -135q-16 -31 -52.5 -75t-82.5 -92t-94 -92.5t-88 -76t-63 -41.5z" />
    <glyph glyph-name="uni01D9" unicode="&#x1d9;" horiz-adv-x="1452" 
d="M733 -16q-211 0 -339.5 77t-186 220t-57.5 341l1 864h260l-2 -819q0 -191 38 -294.5t111.5 -143.5t179.5 -40q97 0 165.5 41t105 144.5t36.5 292.5v819h258v-868q0 -304 -140 -469t-430 -165zM477 1620q-61 0 -103.5 38.5t-42.5 103.5q0 69 51 115.5t116 46.5
q73 0 109.5 -40.5t36.5 -102.5q0 -71 -49 -116t-118 -45zM973 1620q-62 0 -103.5 38.5t-41.5 103.5q0 69 51 115.5t115 46.5q73 0 110 -40.5t37 -102.5q0 -71 -49.5 -116t-118.5 -45zM637 1997l-252 264l139 74l212 -170l217 170l132 -72l-246 -266h-202z" />
    <glyph glyph-name="uni01DA" unicode="&#x1da;" horiz-adv-x="1231" 
d="M487 -16q-112 0 -180.5 34t-104 98t-48 151.5t-12.5 193.5v653h254v-653q0 -123 20 -181.5t61.5 -76t107.5 -17.5q39 0 83 11.5t82 28t59 31.5v857h255v-1130h-135q-44 0 -69 13t-25 64v77l5 -39q-44 -31 -104 -57t-125 -42t-124 -16zM373 1296q-61 0 -102.5 39.5
t-41.5 103.5q0 68 51.5 114.5t113.5 46.5q72 0 107 -41t35 -102q0 -70 -48.5 -115.5t-114.5 -45.5zM835 1296q-60 0 -102 39.5t-42 103.5q0 68 51 114.5t115 46.5q72 0 106.5 -41t34.5 -102q0 -70 -48.5 -115.5t-114.5 -45.5zM237 2016l136 70l241 -223l227 223l144 -72
l-271 -336h-200z" />
    <glyph glyph-name="uni01DB" unicode="&#x1db;" horiz-adv-x="1452" 
d="M733 -16q-211 0 -339.5 77t-186 220t-57.5 341l1 864h260l-2 -819q0 -191 38 -294.5t111.5 -143.5t179.5 -40q97 0 165.5 41t105 144.5t36.5 292.5v819h258v-868q0 -304 -140 -469t-430 -165zM477 1620q-61 0 -103.5 38.5t-42.5 103.5q0 69 51 115.5t116 46.5
q73 0 109.5 -40.5t36.5 -102.5q0 -71 -49 -116t-118 -45zM973 1620q-62 0 -103.5 38.5t-41.5 103.5q0 69 51 115.5t115 46.5q73 0 110 -40.5t37 -102.5q0 -71 -49.5 -116t-118.5 -45zM867 2090l-112 -102q-34 12 -85 43.5t-107 73.5t-104.5 85.5t-77.5 79.5l175 130
q3 -10 34 -43t75 -76t89 -85t77 -71.5t36 -34.5z" />
    <glyph glyph-name="uni01DC" unicode="&#x1dc;" horiz-adv-x="1231" 
d="M487 -16q-112 0 -180.5 34t-104 98t-48 151.5t-12.5 193.5v653h254v-653q0 -123 20 -181.5t61.5 -76t107.5 -17.5q39 0 83 11.5t82 28t59 31.5v857h255v-1130h-135q-44 0 -69 13t-25 64v77l5 -39q-44 -31 -104 -57t-125 -42t-124 -16zM373 1296q-61 0 -102.5 39.5
t-41.5 103.5q0 68 51.5 114.5t113.5 46.5q72 0 107 -41t35 -102q0 -70 -48.5 -115.5t-114.5 -45.5zM835 1296q-60 0 -102 39.5t-42 103.5q0 68 51 114.5t115 46.5q72 0 106.5 -41t34.5 -102q0 -70 -48.5 -115.5t-114.5 -45.5zM712 1759l-102 -102q-31 15 -85 56t-113.5 95.5
t-110.5 110.5t-77 99l157 142q44 -63 100.5 -134t116.5 -140t114 -127z" />
    <glyph glyph-name="Gcaron" unicode="&#x1e6;" horiz-adv-x="1422" 
d="M94 736q0 195 55 339t152 239t226.5 141.5t278.5 46.5q111 0 180 -9.5t122 -23t117 -25.5l-10 -229q-69 35 -161.5 59t-253.5 24q-130 0 -228.5 -64t-154 -183.5t-55.5 -288.5q0 -163 46.5 -295t141 -208.5t238.5 -76.5q80 0 156 12t117 36v377l54 -42l-307 15v189h500
v-679q-35 -2 -76.5 -18.5t-99 -36.5t-140 -35.5t-198.5 -15.5q-221 0 -377.5 96t-239.5 265.5t-83 390.5zM700 1624l-252 264l139 74l212 -170l217 170l132 -72l-246 -266h-202z" />
    <glyph glyph-name="gcaron" unicode="&#x1e7;" horiz-adv-x="1225" 
d="M581 -504q-234 1 -362.5 83.5t-128.5 246.5q0 61 29.5 109t75 81.5t94.5 50.5l156 -20q-19 -17 -44 -38t-43.5 -55t-18.5 -90q0 -63 24.5 -109.5t79.5 -72.5t148 -26q84 0 154 18.5t112 55.5t42 94q0 56 -20.5 95.5t-76.5 61t-164 21.5h-135q-51 0 -90 3.5t-71 11.5
q-15 4 -24.5 10.5t-24.5 10.5q-75 27 -103 74.5t-28 101.5q1 39 20 80t57 79t93 67l153 -34q-37 -15 -64.5 -48.5t-27.5 -70.5q0 -57 30 -77.5t101 -20.5h200q129 0 211 -26.5t127.5 -71t63 -100t17.5 -113.5q0 -91 -44.5 -162.5t-123 -120.5t-180 -74t-214.5 -25zM571 379
q-129 0 -231.5 45.5t-161 128.5t-58.5 193q0 128 58.5 212.5t161 126t234.5 43.5q131 2 235.5 -38t166 -122.5t61.5 -210.5q0 -122 -58 -206.5t-163 -128t-245 -43.5zM576 536q98 0 156.5 44.5t58.5 169.5q0 106 -50.5 161t-154.5 55q-60 0 -109.5 -17.5t-78.5 -63.5
t-29 -131q0 -88 48.5 -153t158.5 -65zM911 926l-58 104q21 27 85 58.5t144 31.5h118v-194h-289zM197 1620l136 70l241 -223l227 223l144 -72l-271 -336h-200z" />
    <glyph glyph-name="uni01EA" unicode="&#x1ea;" horiz-adv-x="1533" 
d="M761 -16q-210 -4 -362 93.5t-232 272.5t-75 403q5 252 98.5 417.5t249.5 247.5t350 84q201 2 348.5 -91t227 -264.5t74.5 -402.5q-5 -251 -94 -418.5t-240.5 -252.5t-344.5 -89zM767 181q187 0 298 143t111 430q0 152 -44 277t-131.5 199.5t-217.5 74.5
q-116 0 -212.5 -58.5t-155 -183t-58.5 -323.5q0 -151 46 -278.5t137 -204t227 -76.5zM720 -499q-62 0 -118.5 22.5t-92 66t-37.5 107.5q-2 67 34.5 125t95 103.5t119.5 74.5l26 13l157 -13q-53 -28 -105 -68.5t-85.5 -87.5t-32.5 -94q1 -48 32.5 -70t89.5 -22q48 0 95 14.5
t72 23.5l14 -124q-39 -26 -105.5 -48t-158.5 -23z" />
    <glyph glyph-name="uni01EB" unicode="&#x1eb;" horiz-adv-x="1208" 
d="M594 -16q-139 0 -236.5 48t-157.5 131t-87 190.5t-26 226.5q3 179 72 301t187.5 184.5t267.5 62.5q187 0 299 -82.5t161 -218t47 -293.5q-3 -179 -71.5 -301.5t-186.5 -185.5t-269 -63zM601 164q131 -2 195 98.5t64 281.5q0 111 -26 202t-81.5 145.5t-144.5 55.5
q-131 2 -195 -94.5t-64 -277.5q0 -111 26 -204t81.5 -149.5t144.5 -57.5zM533 -501q-63 0 -119 22.5t-92 66t-38 107.5q-2 59 30.5 117t90 106.5t130.5 81.5l66 30l121 -30q-55 -27 -108 -68t-86.5 -88.5t-33.5 -95.5q1 -48 32.5 -71t90.5 -23q46 0 93.5 15.5t73.5 24.5
l13 -124q-39 -26 -105 -48.5t-159 -22.5z" />
    <glyph glyph-name="uni01EE" unicode="&#x1ee;" horiz-adv-x="1148" 
d="M365 -20q-73 0 -138 9t-112 15v185q31 -7 66.5 -12.5t66.5 -8.5t51 -3q165 0 276.5 36.5t167.5 104.5t56 164q0 82 -40 133.5t-103 75t-132 23.5q-55 1 -109 -14t-93 -43l-3 213l289 320l126 109h-605l1 199h879l-2 -190l-407 -439q116 7 206 -26.5t151.5 -92
t93.5 -130.5t32 -145q0 -130 -74.5 -239.5t-232.5 -176.5t-411 -67zM475 1624l-252 264l139 74l212 -170l217 170l132 -72l-246 -266h-202z" />
    <glyph glyph-name="uni01EF" unicode="&#x1ef;" horiz-adv-x="957" 
d="M294 -295q-51 0 -100 4t-98 5l-2 196q43 -8 80.5 -12.5t83.5 -6.5q118 -2 198.5 31.5t121.5 92.5t41 134q0 83 -40.5 130t-107 65.5t-145.5 15.5l-130 123l270 334l104 106h-479v191h706l74 -118l-387 -480q107 -12 194 -57.5t138.5 -119.5t51.5 -172q0 -129 -66 -234
t-194 -166.5t-314 -61.5zM74 1622l136 70l241 -223l227 223l144 -72l-271 -336h-200z" />
    <glyph glyph-name="uni01F1" unicode="&#x1f1;" horiz-adv-x="2647" 
d="M173 0v1486h41h39.5h39.5q45 0 104.5 4t126 8t133.5 4q365 0 539.5 -188.5t174.5 -528.5q0 -254 -89.5 -434.5t-255 -275t-393.5 -91.5q-84 2 -181 9t-176 7h-34.5h-34.5h-34zM435 196q45 -10 108 -14t122 -3q128 1 225.5 60.5t152.5 185.5t55 326q0 208 -53.5 331
t-160.5 176.5t-267 53.5q-54 0 -102.5 -4t-79.5 -10v-1102zM1513 0l-43 82l719 1129l57 74h-696v201h1000l45 -78l-704 -1119l-72 -89h724v-200h-1030z" />
    <glyph glyph-name="uni01F2" unicode="&#x1f2;" horiz-adv-x="2468" 
d="M173 0v1486h41h39.5h39.5q45 0 104.5 4t126 8t133.5 4q365 0 539.5 -188.5t174.5 -528.5q0 -254 -89.5 -434.5t-255 -275t-393.5 -91.5q-84 2 -181 9t-176 7h-34.5h-34.5h-34zM435 196q45 -10 108 -14t122 -3q128 1 225.5 60.5t152.5 185.5t55 326q0 208 -53.5 331
t-160.5 176.5t-267 53.5q-54 0 -102.5 -4t-79.5 -10v-1102zM1531 0l-42 80l517 764l58 84h-511l1 186h818l34 -94l-512 -754l-59 -83h548v-183h-852z" />
    <glyph glyph-name="uni01F3" unicode="&#x1f3;" horiz-adv-x="2281" 
d="M847 0v145l-15 9v777l8 6l-8 241v448h254v-1626h-239zM531 -16q-118 0 -218 58t-161.5 176t-61.5 299q0 183 70 320.5t196 214t295 76.5q103 0 172 -23.5t88 -40.5l-79 -162q-28 24 -76.5 33.5t-113.5 9.5q-80 0 -145 -45t-103.5 -135t-39.5 -223q-2 -188 65 -273.5
t187 -85.5q73 0 133 26.5t93 52.5l38 -127q-24 -25 -65 -60.5t-107.5 -63t-166.5 -27.5zM1344 0l-42 80l517 764l58 84h-511l1 186h818l34 -94l-512 -754l-59 -83h548v-183h-852z" />
    <glyph glyph-name="Aringacute" unicode="&#x1fa;" horiz-adv-x="1385" 
d="M283 0h-275l555 1501h266l549 -1501h-281l-357 1095l-43 153l-45 -153zM296 348l41 190h682l41 -190h-764zM688 1477q-149 0 -236 72.5t-85 201.5q1 96 49 153.5t122.5 82.5t153.5 25q149 0 237 -67t88 -198q-1 -96 -47 -155.5t-120.5 -87t-161.5 -27.5zM688 1612
q74 -1 120 28t46 107q0 66 -47.5 99t-118.5 33q-58 2 -107 -24t-49 -105q0 -63 42.5 -100t113.5 -38zM770 1896l-113 100q4 4 36.5 34t77.5 72.5t90.5 86t77 76.5t34.5 40l171 -129q-33 -37 -80 -80t-100 -83.5t-103.5 -71.5t-90.5 -45z" />
    <glyph glyph-name="aringacute" unicode="&#x1fb;" horiz-adv-x="1140" 
d="M438 -16q-102 0 -180.5 40.5t-123 114.5t-44.5 174q0 106 57 180t153 115q65 27 140.5 42t151.5 21.5t141 6.5l49 -62l-49 -86q-38 0 -89.5 -5.5t-100.5 -16.5t-83 -27q-47 -21 -80 -55t-33 -97q0 -83 46 -124.5t131 -41.5q44 0 88 12.5t77 29t44 29.5l48 -54l-34 -86
q-44 -40 -125.5 -75t-183.5 -35zM989 0h-242v166h-14v609q0 94 -49.5 124t-140.5 30q-63 0 -130.5 -12t-125 -30.5t-91.5 -38.5l-58 175q27 16 94.5 41.5t157 46t177.5 20.5q135 0 229 -31t143.5 -112t49.5 -231v-757zM551 1289q-148 0 -235 76.5t-86 204.5q1 97 49.5 155.5
t122.5 85.5t153 27q149 0 238 -69.5t87 -200.5q-1 -97 -47 -158.5t-121 -91t-161 -29.5zM552 1424q72 -1 117.5 31.5t45.5 110.5q0 68 -47 104t-116 36q-40 0 -75.5 -12.5t-58.5 -42t-23 -81.5q0 -64 43 -104.5t114 -41.5zM692 1675l-116 100q54 57 112.5 125.5t114.5 142
t102 144.5l167 -135q-16 -31 -52.5 -75t-82.5 -92t-94 -92.5t-88 -76t-63 -41.5z" />
    <glyph glyph-name="AEacute" unicode="&#x1fc;" horiz-adv-x="1848" 
d="M-85 0l713 1486l214 -110l-643 -1376h-284zM827 1486l73 -142h-239l-33 142h199zM239 363l43 187h679l31 -187h-753zM827 0v1486h876v-199h-617v-423h459v-197h-459v-464h686v-203h-945zM955 1615l-113 100q4 4 36.5 34t77.5 72.5t90.5 86t77 76.5t34.5 40l171 -129
q-33 -37 -80 -80t-100 -83.5t-103.5 -71.5t-90.5 -45z" />
    <glyph glyph-name="aeacute" unicode="&#x1fd;" horiz-adv-x="1766" 
d="M1245 -16q-245 0 -377.5 148t-132.5 427q0 162 59 290t173.5 202.5t281.5 76.5q85 2 160.5 -22.5t134 -77.5t93 -134.5t37.5 -194.5q0 -60 -2 -111t-10 -89h-781l18 153h537q5 81 -9.5 149.5t-59 109.5t-129.5 41q-75 0 -133 -42t-89.5 -141.5t-27.5 -273.5
q6 -123 48 -192.5t113 -98.5t161 -29q41 0 97 8t108 21.5t79 29.5l45 -145q-36 -30 -100 -53.5t-141 -37.5t-153 -14zM92 307q0 106 60 182t154 118q95 40 209 55.5t219 15.5l48 -62l-44 -86q-77 0 -151 -12.5t-124 -36.5q-47 -21 -79.5 -55t-32.5 -100q0 -81 44 -122
t128 -41q51 0 105 16.5t97.5 46t64.5 66.5l51 -40l29 -68q-81 -107 -191.5 -153.5t-233.5 -46.5q-99 0 -179 38t-127 110.5t-47 174.5zM205 858l-60 165q22 12 89.5 38t160.5 48t192 22q122 0 205.5 -30.5t126 -112t42.5 -235.5v-172l-227 -1v193q0 70 -22.5 106t-69.5 48.5
t-120 12.5q-52 0 -116 -13.5t-119 -32.5t-82 -36zM836 1261l-116 100q54 57 112.5 125.5t114.5 142t102 144.5l167 -135q-16 -31 -52.5 -75t-82.5 -92t-94 -92.5t-88 -76t-63 -41.5z" />
    <glyph glyph-name="Oslashacute" unicode="&#x1fe;" horiz-adv-x="1543" 
d="M359 -205l-119 33l947 1889l118 -33zM765 -16q-209 -4 -361 93.5t-232 272.5t-76 402q5 253 98.5 418.5t250 247.5t350.5 84q201 2 348.5 -91t227 -264.5t75.5 -402.5q-5 -252 -94 -419.5t-241 -252t-346 -88.5zM771 181q187 0 298 143.5t111 429.5q0 152 -43.5 276.5
t-131 199.5t-218.5 75q-115 0 -211.5 -59t-155.5 -183.5t-59 -322.5q0 -150 46 -277.5t137 -204.5t227 -77zM702 1615l-113 100q4 4 36.5 34t77.5 72.5t90.5 86t77 76.5t34.5 40l171 -129q-33 -37 -80 -80t-100 -83.5t-103.5 -71.5t-90.5 -45z" />
    <glyph glyph-name="oslashacute" unicode="&#x1ff;" horiz-adv-x="1220" 
d="M290 -172l517 1493l124 -32l-518 -1494zM599 -16q-139 0 -236.5 48t-158 131t-87 190.5t-25.5 226.5q2 179 71.5 301t188 184.5t267.5 62.5q187 0 299 -82.5t161.5 -218t46.5 -293.5q-2 -179 -71 -301.5t-187 -185.5t-269 -63zM606 164q131 -2 196.5 98.5t65.5 281.5
q0 111 -26.5 202t-83 145.5t-145.5 55.5q-130 2 -195.5 -94.5t-65.5 -277.5q0 -111 27 -204t83 -149.5t144 -57.5zM587 1261l-116 100q54 57 112.5 125.5t114.5 142t102 144.5l167 -135q-16 -31 -52.5 -75t-82.5 -92t-94 -92.5t-88 -76t-63 -41.5z" />
    <glyph glyph-name="uni0200" unicode="&#x200;" horiz-adv-x="1385" 
d="M283 0h-275l555 1501h266l549 -1501h-281l-357 1095l-43 153l-45 -153zM296 348l41 190h682l41 -190h-764zM931 1610q-36 21 -81.5 65t-93.5 100.5t-88 111.5l194 95q4 -9 24 -39.5t48.5 -70.5t57 -79t49.5 -66t27 -32zM457 1610q-38 21 -85 65t-93.5 99t-82.5 108
l185 95q4 -9 24.5 -38.5t50.5 -68.5t60 -77.5t51.5 -65.5t27.5 -32z" />
    <glyph glyph-name="uni0201" unicode="&#x201;" horiz-adv-x="1140" 
d="M438 -16q-102 0 -180.5 40.5t-123 114.5t-44.5 174q0 106 57 180t153 115q65 27 140.5 42t151.5 21.5t141 6.5l49 -62l-49 -86q-38 0 -89.5 -5.5t-100.5 -16.5t-83 -27q-47 -21 -80 -55t-33 -97q0 -83 46 -124.5t131 -41.5q44 0 88 12.5t77 29t44 29.5l48 -54l-34 -86
q-44 -40 -125.5 -75t-183.5 -35zM989 0h-242v166h-14v609q0 94 -49.5 124t-140.5 30q-63 0 -130.5 -12t-125 -30.5t-91.5 -38.5l-58 175q27 16 94.5 41.5t157 46t177.5 20.5q135 0 229 -31t143.5 -112t49.5 -231v-757zM825 1302q-30 19 -75 63t-93.5 99t-90 109.5
t-65.5 95.5l174 118q22 -33 47 -72.5t52 -82t55 -86t55.5 -85.5t51.5 -80zM341 1302q-32 17 -78.5 60.5t-96.5 98.5t-91 109t-62 92l169 119q22 -33 48 -73t54 -82t57 -85t56.5 -83.5t52.5 -76.5z" />
    <glyph glyph-name="uni0202" unicode="&#x202;" horiz-adv-x="1385" 
d="M283 0h-275l555 1501h266l549 -1501h-281l-357 1095l-43 153l-45 -153zM296 348l41 190h682l41 -190h-764zM692 1990q109 0 189 -52t122 -134t36 -173h-167q-1 12 -5.5 39.5t-21 58t-52 52t-99.5 21.5q-65 0 -101 -21.5t-51.5 -52t-19.5 -58t-5 -39.5h-170q-6 91 33 173
t119 134t193 52z" />
    <glyph glyph-name="uni0203" unicode="&#x203;" horiz-adv-x="1140" 
d="M438 -16q-102 0 -180.5 40.5t-123 114.5t-44.5 174q0 106 57 180t153 115q65 27 140.5 42t151.5 21.5t141 6.5l49 -62l-49 -86q-38 0 -89.5 -5.5t-100.5 -16.5t-83 -27q-47 -21 -80 -55t-33 -97q0 -83 46 -124.5t131 -41.5q44 0 88 12.5t77 29t44 29.5l48 -54l-34 -86
q-44 -40 -125.5 -75t-183.5 -35zM989 0h-242v166h-14v609q0 94 -49.5 124t-140.5 30q-63 0 -130.5 -12t-125 -30.5t-91.5 -38.5l-58 175q27 16 94.5 41.5t157 46t177.5 20.5q135 0 229 -31t143.5 -112t49.5 -231v-757zM555 1646q109 0 189 -52.5t122 -137.5t36 -184h-167
q-1 12 -5.5 42t-21 63.5t-52 57.5t-99.5 24q-65 0 -101 -24t-51.5 -57.5t-19.5 -63.5t-5 -42h-170q-6 99 33 184t119 137.5t193 52.5z" />
    <glyph glyph-name="uni0204" unicode="&#x204;" horiz-adv-x="1191" 
d="M173 0v1486h878v-199h-617v-425h461v-196h-461v-463h685v-203h-946zM870 1610q-36 21 -81.5 65t-93.5 100.5t-88 111.5l194 95q4 -9 24 -39.5t48.5 -70.5t57 -79t49.5 -66t27 -32zM396 1610q-38 21 -85 65t-93.5 99t-82.5 108l185 95q4 -9 24.5 -38.5t50.5 -68.5
t60 -77.5t51.5 -65.5t27.5 -32z" />
    <glyph glyph-name="uni0205" unicode="&#x205;" horiz-adv-x="1130" 
d="M606 -16q-246 0 -378.5 152.5t-132.5 422.5q0 162 59.5 290t174 202.5t281.5 76.5q85 2 160.5 -23t134 -77.5t93.5 -134t37 -193.5q0 -62 -1 -112.5t-9 -87.5h-786l20 152h538q5 80 -9.5 148.5t-59 109.5t-130.5 41q-75 0 -133.5 -41.5t-90 -141t-26.5 -273.5
q5 -120 48 -190.5t114 -100.5t160 -30q41 0 97 8t107 21.5t78 29.5l47 -144q-37 -30 -101 -53.5t-140.5 -37.5t-151.5 -14zM872 1303q-30 19 -75 63t-93.5 99t-90 109.5t-65.5 95.5l174 118q22 -33 47 -72.5t52 -82t55 -86t55.5 -85.5t51.5 -80zM388 1303q-32 17 -78.5 60.5
t-96.5 98.5t-91 109t-62 92l169 119q22 -33 48 -73t54 -82t57 -85t56.5 -83.5t52.5 -76.5z" />
    <glyph glyph-name="uni0206" unicode="&#x206;" horiz-adv-x="1191" 
d="M173 0v1486h878v-199h-617v-425h461v-196h-461v-463h685v-203h-946zM631 1990q109 0 189 -52t122 -134t36 -173h-167q-1 12 -5.5 39.5t-21 58t-52 52t-99.5 21.5q-65 0 -101 -21.5t-51.5 -52t-19.5 -58t-5 -39.5h-170q-6 91 33 173t119 134t193 52z" />
    <glyph glyph-name="uni0207" unicode="&#x207;" horiz-adv-x="1130" 
d="M606 -16q-246 0 -378.5 152.5t-132.5 422.5q0 162 59.5 290t174 202.5t281.5 76.5q85 2 160.5 -23t134 -77.5t93.5 -134t37 -193.5q0 -62 -1 -112.5t-9 -87.5h-786l20 152h538q5 80 -9.5 148.5t-59 109.5t-130.5 41q-75 0 -133.5 -41.5t-90 -141t-26.5 -273.5
q5 -120 48 -190.5t114 -100.5t160 -30q41 0 97 8t107 21.5t78 29.5l47 -144q-37 -30 -101 -53.5t-140.5 -37.5t-151.5 -14zM602 1646q109 0 189 -52.5t122 -137.5t36 -184h-167q-1 12 -5.5 42t-21 63.5t-52 57.5t-99.5 24q-65 0 -101 -24t-51.5 -57.5t-19.5 -63.5t-5 -42
h-170q-6 99 33 184t119 137.5t193 52.5z" />
    <glyph glyph-name="uni0208" unicode="&#x208;" horiz-adv-x="658" 
d="M197 0v1486h263v-1486h-263zM569 1610q-36 21 -81.5 65t-93.5 100.5t-88 111.5l194 95q4 -9 24 -39.5t48.5 -70.5t57 -79t49.5 -66t27 -32zM95 1610q-38 21 -85 65t-93.5 99t-82.5 108l185 95q4 -9 24.5 -38.5t50.5 -68.5t60 -77.5t51.5 -65.5t27.5 -32z" />
    <glyph glyph-name="uni0209" unicode="&#x209;" horiz-adv-x="603" 
d="M174 0v1112h255v-1112h-255zM570 1302q-30 19 -75 63t-93.5 99t-90 109.5t-65.5 95.5l174 118q22 -33 47 -72.5t52 -82t55 -86t55.5 -85.5t51.5 -80zM86 1302q-32 17 -78.5 60.5t-96.5 98.5t-91 109t-62 92l169 119q22 -33 48 -73t54 -82t57 -85t56.5 -83.5t52.5 -76.5z
" />
    <glyph glyph-name="uni020A" unicode="&#x20a;" horiz-adv-x="658" 
d="M197 0v1486h263v-1486h-263zM330 1990q109 0 189 -52t122 -134t36 -173h-167q-1 12 -5.5 39.5t-21 58t-52 52t-99.5 21.5q-65 0 -101 -21.5t-51.5 -52t-19.5 -58t-5 -39.5h-170q-6 91 33 173t119 134t193 52z" />
    <glyph glyph-name="uni020B" unicode="&#x20b;" horiz-adv-x="603" 
d="M174 0v1112h255v-1112h-255zM300 1646q109 0 189 -52.5t122 -137.5t36 -184h-167q-1 12 -5.5 42t-21 63.5t-52 57.5t-99.5 24q-65 0 -101 -24t-51.5 -57.5t-19.5 -63.5t-5 -42h-170q-6 99 33 184t119 137.5t193 52.5z" />
    <glyph glyph-name="uni020C" unicode="&#x20c;" horiz-adv-x="1533" 
d="M761 -16q-210 -4 -362 93.5t-232 272.5t-75 403q5 252 98.5 417.5t249.5 247.5t350 84q201 2 348.5 -91t227 -264.5t74.5 -402.5q-5 -251 -94 -418.5t-240.5 -252.5t-344.5 -89zM767 181q187 0 298 143t111 430q0 152 -44 277t-131.5 199.5t-217.5 74.5
q-116 0 -212.5 -58.5t-155 -183t-58.5 -323.5q0 -151 46 -278.5t137 -204t227 -76.5zM1027 1610q-36 21 -81.5 65t-93.5 100.5t-88 111.5l194 95q4 -9 24 -39.5t48.5 -70.5t57 -79t49.5 -66t27 -32zM553 1610q-38 21 -85 65t-93.5 99t-82.5 108l185 95q4 -9 24.5 -38.5
t50.5 -68.5t60 -77.5t51.5 -65.5t27.5 -32z" />
    <glyph glyph-name="uni020D" unicode="&#x20d;" horiz-adv-x="1208" 
d="M594 -16q-139 0 -236.5 48t-157.5 131t-87 190.5t-26 226.5q3 179 72 301t187.5 184.5t267.5 62.5q187 0 299 -82.5t161 -218t47 -293.5q-3 -179 -71.5 -301.5t-186.5 -185.5t-269 -63zM601 164q131 -2 195 98.5t64 281.5q0 111 -26 202t-81.5 145.5t-144.5 55.5
q-131 2 -195 -94.5t-64 -277.5q0 -111 26 -204t81.5 -149.5t144.5 -57.5zM883 1302q-30 19 -75 63t-93.5 99t-90 109.5t-65.5 95.5l174 118q22 -33 47 -72.5t52 -82t55 -86t55.5 -85.5t51.5 -80zM399 1302q-32 17 -78.5 60.5t-96.5 98.5t-91 109t-62 92l169 119
q22 -33 48 -73t54 -82t57 -85t56.5 -83.5t52.5 -76.5z" />
    <glyph glyph-name="uni020E" unicode="&#x20e;" horiz-adv-x="1533" 
d="M761 -16q-210 -4 -362 93.5t-232 272.5t-75 403q5 252 98.5 417.5t249.5 247.5t350 84q201 2 348.5 -91t227 -264.5t74.5 -402.5q-5 -251 -94 -418.5t-240.5 -252.5t-344.5 -89zM767 181q187 0 298 143t111 430q0 152 -44 277t-131.5 199.5t-217.5 74.5
q-116 0 -212.5 -58.5t-155 -183t-58.5 -323.5q0 -151 46 -278.5t137 -204t227 -76.5zM788 1990q109 0 189 -52t122 -134t36 -173h-167q-1 12 -5.5 39.5t-21 58t-52 52t-99.5 21.5q-65 0 -101 -21.5t-51.5 -52t-19.5 -58t-5 -39.5h-170q-6 91 33 173t119 134t193 52z" />
    <glyph glyph-name="uni020F" unicode="&#x20f;" horiz-adv-x="1208" 
d="M594 -16q-139 0 -236.5 48t-157.5 131t-87 190.5t-26 226.5q3 179 72 301t187.5 184.5t267.5 62.5q187 0 299 -82.5t161 -218t47 -293.5q-3 -179 -71.5 -301.5t-186.5 -185.5t-269 -63zM601 164q131 -2 195 98.5t64 281.5q0 111 -26 202t-81.5 145.5t-144.5 55.5
q-131 2 -195 -94.5t-64 -277.5q0 -111 26 -204t81.5 -149.5t144.5 -57.5zM613 1646q109 0 189 -52.5t122 -137.5t36 -184h-167q-1 12 -5.5 42t-21 63.5t-52 57.5t-99.5 24q-65 0 -101 -24t-51.5 -57.5t-19.5 -63.5t-5 -42h-170q-6 99 33 184t119 137.5t193 52.5z" />
    <glyph glyph-name="uni0210" unicode="&#x210;" horiz-adv-x="1352" 
d="M435 0h-262v1486h36.5h35.5h37q72 0 170.5 8t223.5 8q109 0 203 -23t165 -74t110.5 -133.5t39.5 -202.5q0 -138 -46 -231t-130.5 -146t-199.5 -71q-41 -6 -83.5 -10.5t-111.5 -6.5t-188 -2v-602zM435 787q21 -3 62.5 -4.5t84.5 -1.5h69q138 0 211 71t73 208
q0 80 -27 136.5t-91.5 86.5t-176.5 30q-55 0 -108.5 -4.5t-96.5 -13.5v-508zM1006 0q-13 19 -22 40t-32 69q-31 67 -60 149.5t-62 159.5t-76.5 129.5t-102.5 60.5l89 69l158 -3q59 -25 104.5 -88.5t84 -147t74.5 -170t76 -158.5q15 -28 30.5 -55.5t30.5 -54.5h-292z
M879 1610q-36 21 -81.5 65t-93.5 100.5t-88 111.5l194 95q4 -9 24 -39.5t48.5 -70.5t57 -79t49.5 -66t27 -32zM405 1610q-38 21 -85 65t-93.5 99t-82.5 108l185 95q4 -9 24.5 -38.5t50.5 -68.5t60 -77.5t51.5 -65.5t27.5 -32z" />
    <glyph glyph-name="uni0211" unicode="&#x211;" horiz-adv-x="830" 
d="M390 787l-14 173q16 37 64 76.5t113.5 66.5t135.5 27q35 0 62 -3t40 -11v-243q-15 9 -45 18t-95 9t-115.5 -18.5t-87 -45t-58.5 -49.5zM149 0v1112h219l16 -152l20 -74v-886h-255zM756 1303q-30 19 -75 63t-93.5 99t-90 109.5t-65.5 95.5l174 118q22 -33 47 -72.5t52 -82
t55 -86t55.5 -85.5t51.5 -80zM272 1303q-32 17 -78.5 60.5t-96.5 98.5t-91 109t-62 92l169 119q22 -33 48 -73t54 -82t57 -85t56.5 -83.5t52.5 -76.5z" />
    <glyph glyph-name="uni0212" unicode="&#x212;" horiz-adv-x="1352" 
d="M435 0h-262v1486h36.5h35.5h37q72 0 170.5 8t223.5 8q109 0 203 -23t165 -74t110.5 -133.5t39.5 -202.5q0 -138 -46 -231t-130.5 -146t-199.5 -71q-41 -6 -83.5 -10.5t-111.5 -6.5t-188 -2v-602zM435 787q21 -3 62.5 -4.5t84.5 -1.5h69q138 0 211 71t73 208
q0 80 -27 136.5t-91.5 86.5t-176.5 30q-55 0 -108.5 -4.5t-96.5 -13.5v-508zM1006 0q-13 19 -22 40t-32 69q-31 67 -60 149.5t-62 159.5t-76.5 129.5t-102.5 60.5l89 69l158 -3q59 -25 104.5 -88.5t84 -147t74.5 -170t76 -158.5q15 -28 30.5 -55.5t30.5 -54.5h-292z
M641 1990q109 0 189 -52t122 -134t36 -173h-167q-1 12 -5.5 39.5t-21 58t-52 52t-99.5 21.5q-65 0 -101 -21.5t-51.5 -52t-19.5 -58t-5 -39.5h-170q-6 91 33 173t119 134t193 52z" />
    <glyph glyph-name="uni0213" unicode="&#x213;" horiz-adv-x="830" 
d="M390 787l-14 173q16 37 64 76.5t113.5 66.5t135.5 27q35 0 62 -3t40 -11v-243q-15 9 -45 18t-95 9t-115.5 -18.5t-87 -45t-58.5 -49.5zM149 0v1112h219l16 -152l20 -74v-886h-255zM486 1646q109 0 189 -52.5t122 -137.5t36 -184h-167q-1 12 -5.5 42t-21 63.5t-52 57.5
t-99.5 24q-65 0 -101 -24t-51.5 -57.5t-19.5 -63.5t-5 -42h-170q-6 99 33 184t119 137.5t193 52.5z" />
    <glyph glyph-name="uni0214" unicode="&#x214;" horiz-adv-x="1452" 
d="M733 -16q-211 0 -339.5 77t-186 220t-57.5 341l1 864h260l-2 -819q0 -191 38 -294.5t111.5 -143.5t179.5 -40q97 0 165.5 41t105 144.5t36.5 292.5v819h258v-868q0 -304 -140 -469t-430 -165zM974 1610q-36 21 -81.5 65t-93.5 100.5t-88 111.5l194 95q4 -9 24 -39.5
t48.5 -70.5t57 -79t49.5 -66t27 -32zM500 1610q-38 21 -85 65t-93.5 99t-82.5 108l185 95q4 -9 24.5 -38.5t50.5 -68.5t60 -77.5t51.5 -65.5t27.5 -32z" />
    <glyph glyph-name="uni0215" unicode="&#x215;" horiz-adv-x="1231" 
d="M487 -16q-112 0 -180.5 34t-104 98t-48 151.5t-12.5 193.5v653h254v-653q0 -123 20 -181.5t61.5 -76t107.5 -17.5q39 0 83 11.5t82 28t59 31.5v857h255v-1130h-135q-44 0 -69 13t-25 64v77l5 -39q-44 -31 -104 -57t-125 -42t-124 -16zM883 1302q-30 19 -75 63t-93.5 99
t-90 109.5t-65.5 95.5l174 118q22 -33 47 -72.5t52 -82t55 -86t55.5 -85.5t51.5 -80zM399 1302q-32 17 -78.5 60.5t-96.5 98.5t-91 109t-62 92l169 119q22 -33 48 -73t54 -82t57 -85t56.5 -83.5t52.5 -76.5z" />
    <glyph glyph-name="uni0216" unicode="&#x216;" horiz-adv-x="1452" 
d="M733 -16q-211 0 -339.5 77t-186 220t-57.5 341l1 864h260l-2 -819q0 -191 38 -294.5t111.5 -143.5t179.5 -40q97 0 165.5 41t105 144.5t36.5 292.5v819h258v-868q0 -304 -140 -469t-430 -165zM736 1990q109 0 189 -52t122 -134t36 -173h-167q-1 12 -5.5 39.5t-21 58
t-52 52t-99.5 21.5q-65 0 -101 -21.5t-51.5 -52t-19.5 -58t-5 -39.5h-170q-6 91 33 173t119 134t193 52z" />
    <glyph glyph-name="uni0217" unicode="&#x217;" horiz-adv-x="1231" 
d="M487 -16q-112 0 -180.5 34t-104 98t-48 151.5t-12.5 193.5v653h254v-653q0 -123 20 -181.5t61.5 -76t107.5 -17.5q39 0 83 11.5t82 28t59 31.5v857h255v-1130h-135q-44 0 -69 13t-25 64v77l5 -39q-44 -31 -104 -57t-125 -42t-124 -16zM613 1646q109 0 189 -52.5
t122 -137.5t36 -184h-167q-1 12 -5.5 42t-21 63.5t-52 57.5t-99.5 24q-65 0 -101 -24t-51.5 -57.5t-19.5 -63.5t-5 -42h-170q-6 99 33 184t119 137.5t193 52.5z" />
    <glyph glyph-name="uni0218" unicode="&#x218;" horiz-adv-x="1143" 
d="M557 -16q-99 0 -187.5 14.5t-152 35t-91.5 37.5l49 210q37 -22 95.5 -43t128 -35t140.5 -14q131 0 198.5 43t67.5 140q0 66 -34.5 110.5t-105 85.5t-178.5 92q-92 45 -176 107.5t-138 148t-54 197.5q0 106 42 180.5t113.5 120.5t162 67t187.5 21q142 0 234.5 -27.5
t131.5 -52.5l-48 -203q-50 33 -123.5 59t-188.5 26q-72 0 -131 -18.5t-94 -55t-35 -93.5q0 -64 28.5 -108.5t91 -83.5t163.5 -91q79 -39 152.5 -83t132 -97t92.5 -121.5t34 -156.5q0 -135 -63.5 -227t-177.5 -138.5t-266 -46.5zM554 -546l-96 41v25q15 17 25 53.5t10 85.5
q0 38 -17.5 75.5t-44.5 44.5v49l171 91q33 -14 64.5 -66.5t31.5 -134.5q0 -71 -25 -126t-58.5 -91t-60.5 -47z" />
    <glyph glyph-name="uni0219" unicode="&#x219;" horiz-adv-x="973" 
d="M101 68l32 185q16 -12 64 -31.5t115 -35.5t138 -17q94 -1 142 30.5t48 88.5q0 41 -29.5 71t-81 55.5t-116.5 53.5q-96 42 -165.5 91t-106.5 114t-36 155q2 101 58.5 167.5t151 99.5t210.5 33q111 0 192.5 -22t108.5 -38l-33 -189q-19 15 -57.5 31t-88.5 25.5t-101 9.5
q-101 0 -150.5 -27.5t-50.5 -77.5q-1 -67 48.5 -100.5t124.5 -67.5q109 -50 191.5 -98.5t128.5 -111t46 -153.5q0 -160 -111 -242.5t-302 -82.5q-80 0 -154.5 12.5t-131.5 32t-84 39.5zM499 -540l-121 35v25q15 17 25 46t10 76q0 45 -17.5 84t-44.5 47v48l176 82
q30 -13 61 -67t31 -142q0 -53 -19 -102t-46.5 -84.5t-54.5 -47.5z" />
    <glyph glyph-name="uni021A" unicode="&#x21a;" horiz-adv-x="1256" 
d="M497 0v1286h-446v200h1154v-200h-446v-1286h-262zM616 -546l-96 41v25q15 17 25 53.5t10 85.5q0 38 -17.5 75.5t-44.5 44.5v49l171 91q33 -14 64.5 -66.5t31.5 -134.5q0 -71 -25 -126t-58.5 -91t-60.5 -47z" />
    <glyph glyph-name="uni021B" unicode="&#x21b;" horiz-adv-x="860" 
d="M486 -16q-87 0 -149 28t-95.5 94.5t-33.5 184.5v640h-141v137q74 21 115 37t60 64q8 22 18.5 52.5t23 67.5t26.5 79h153v-254h308v-183h-308v-516q0 -107 10 -156t37 -62.5t78 -13.5q28 0 63.5 6.5t68 16.5t50.5 21l39 -145q-29 -24 -81 -46.5t-115 -37t-127 -14.5z
M437 -540l-121 35v25q15 17 25 46t10 76q0 45 -17.5 84t-44.5 47v48l176 82q30 -13 61 -67t31 -142q0 -53 -19 -102t-46.5 -84.5t-54.5 -47.5z" />
    <glyph glyph-name="uni022A" unicode="&#x22a;" horiz-adv-x="1533" 
d="M761 -16q-210 -4 -362 93.5t-232 272.5t-75 403q5 252 98.5 417.5t249.5 247.5t350 84q201 2 348.5 -91t227 -264.5t74.5 -402.5q-5 -251 -94 -418.5t-240.5 -252.5t-344.5 -89zM767 181q187 0 298 143t111 430q0 152 -44 277t-131.5 199.5t-217.5 74.5
q-116 0 -212.5 -58.5t-155 -183t-58.5 -323.5q0 -151 46 -278.5t137 -204t227 -76.5zM529 1620q-61 0 -103.5 38.5t-42.5 103.5q0 69 51 115.5t116 46.5q73 0 109.5 -40.5t36.5 -102.5q0 -71 -49 -116t-118 -45zM1025 1620q-62 0 -103.5 38.5t-41.5 103.5q0 69 51 115.5
t115 46.5q73 0 110 -40.5t37 -102.5q0 -71 -49.5 -116t-118.5 -45zM509 2045v177h558v-177h-558z" />
    <glyph glyph-name="uni022B" unicode="&#x22b;" horiz-adv-x="1208" 
d="M594 -16q-139 0 -236.5 48t-157.5 131t-87 190.5t-26 226.5q3 179 72 301t187.5 184.5t267.5 62.5q187 0 299 -82.5t161 -218t47 -293.5q-3 -179 -71.5 -301.5t-186.5 -185.5t-269 -63zM601 164q131 -2 195 98.5t64 281.5q0 111 -26 202t-81.5 145.5t-144.5 55.5
q-131 2 -195 -94.5t-64 -277.5q0 -111 26 -204t81.5 -149.5t144.5 -57.5zM373 1296q-61 0 -102.5 39.5t-41.5 103.5q0 68 51.5 114.5t113.5 46.5q72 0 107 -41t35 -102q0 -70 -48.5 -115.5t-114.5 -45.5zM835 1296q-60 0 -102 39.5t-42 103.5q0 68 51 114.5t115 46.5
q72 0 106.5 -41t34.5 -102q0 -70 -48.5 -115.5t-114.5 -45.5zM337 1716v179h555v-179h-555z" />
    <glyph glyph-name="uni022C" unicode="&#x22c;" horiz-adv-x="1533" 
d="M761 -16q-210 -4 -362 93.5t-232 272.5t-75 403q5 252 98.5 417.5t249.5 247.5t350 84q201 2 348.5 -91t227 -264.5t74.5 -402.5q-5 -251 -94 -418.5t-240.5 -252.5t-344.5 -89zM767 181q187 0 298 143t111 430q0 152 -44 277t-131.5 199.5t-217.5 74.5
q-116 0 -212.5 -58.5t-155 -183t-58.5 -323.5q0 -151 46 -278.5t137 -204t227 -76.5zM934 1618q-58 0 -97 20.5t-68.5 47.5t-58 48t-65.5 21q-43 0 -70 -12t-44.5 -33t-30.5 -49l-105 46q15 58 46.5 109.5t80.5 84t116 32.5q56 0 95 -20t69 -47t59.5 -47t66.5 -20
q36 0 63.5 11t46.5 32t32 50l107 -51q-9 -62 -44 -112.5t-87 -80.5t-112 -30zM509 2070v177h558v-177h-558z" />
    <glyph glyph-name="uni022D" unicode="&#x22d;" horiz-adv-x="1208" 
d="M594 -16q-139 0 -236.5 48t-157.5 131t-87 190.5t-26 226.5q3 179 72 301t187.5 184.5t267.5 62.5q187 0 299 -82.5t161 -218t47 -293.5q-3 -179 -71.5 -301.5t-186.5 -185.5t-269 -63zM601 164q131 -2 195 98.5t64 281.5q0 111 -26 202t-81.5 145.5t-144.5 55.5
q-131 2 -195 -94.5t-64 -277.5q0 -111 26 -204t81.5 -149.5t144.5 -57.5zM746 1287q-54 0 -90.5 21.5t-64 49t-54.5 49t-61 21.5q-39 0 -64 -12t-41.5 -32.5t-29.5 -48.5l-98 46q15 58 45.5 109t78 83.5t113.5 32.5q52 0 88 -20.5t64 -48.5t54.5 -48.5t59.5 -20.5
q35 0 60 11t43 31.5t30 48.5l102 -50q-10 -63 -43.5 -112.5t-83 -79.5t-108.5 -30zM337 1725v179h555v-179h-555z" />
    <glyph glyph-name="uni0230" unicode="&#x230;" horiz-adv-x="1533" 
d="M761 -16q-210 -4 -362 93.5t-232 272.5t-75 403q5 252 98.5 417.5t249.5 247.5t350 84q201 2 348.5 -91t227 -264.5t74.5 -402.5q-5 -251 -94 -418.5t-240.5 -252.5t-344.5 -89zM767 181q187 0 298 143t111 430q0 152 -44 277t-131.5 199.5t-217.5 74.5
q-116 0 -212.5 -58.5t-155 -183t-58.5 -323.5q0 -151 46 -278.5t137 -204t227 -76.5zM778 1653q-63 0 -106.5 37.5t-43.5 105.5t52.5 114t119.5 46q74 0 111 -39.5t37 -102.5q0 -71 -50 -116t-120 -45zM509 2071v177h558v-177h-558z" />
    <glyph glyph-name="uni0231" unicode="&#x231;" horiz-adv-x="1208" 
d="M594 -16q-139 0 -236.5 48t-157.5 131t-87 190.5t-26 226.5q3 179 72 301t187.5 184.5t267.5 62.5q187 0 299 -82.5t161 -218t47 -293.5q-3 -179 -71.5 -301.5t-186.5 -185.5t-269 -63zM601 164q131 -2 195 98.5t64 281.5q0 111 -26 202t-81.5 145.5t-144.5 55.5
q-131 2 -195 -94.5t-64 -277.5q0 -111 26 -204t81.5 -149.5t144.5 -57.5zM603 1289q-63 0 -109 40t-46 108q0 46 25.5 83.5t65.5 60t85 22.5q74 0 113.5 -42t39.5 -105q0 -72 -52 -119.5t-122 -47.5zM337 1688v179h555v-179h-555z" />
    <glyph glyph-name="uni0232" unicode="&#x232;" horiz-adv-x="1235" 
d="M487 0v624l35 -129l-524 991h281l301 -603l67 -168h-38l56 168l298 603h275l-520 -992l34 128v-622h-265zM348 1672v177h558v-177h-558z" />
    <glyph glyph-name="uni0233" unicode="&#x233;" horiz-adv-x="1117" 
d="M134 -479v205q17 -6 51 -10.5t52 -4.5q44 0 101.5 21.5t110 89t80.5 206.5l14 -28h-108l-395 1114h273l219 -696l92 -322h-54l82 322l184 696h273l-366 -1146q-65 -201 -156.5 -306.5t-199.5 -136.5q-24 -9 -62 -15t-65 -6q-15 0 -42.5 2.5t-52.5 6.5t-31 8zM319 1320
v179h555v-179h-555z" />
    <glyph glyph-name="uni0237" unicode="&#x237;" horiz-adv-x="589" 
d="M-86 -478v177q15 -7 53 -13.5t65 -6.5q84 0 116.5 70t32.5 221v1142h254v-1061q0 -200 -43.5 -319.5t-126 -173.5t-199.5 -54q-19 0 -51.5 2.5t-61.5 6.5t-39 9z" />
    <glyph glyph-name="uni0259" unicode="&#x259;" horiz-adv-x="1124" 
d="M522 1130q246 0 378 -152t132 -423q0 -162 -59 -290t-173.5 -202.5t-281.5 -76.5q-85 -1 -161 23t-134.5 77t-93 134.5t-37.5 194.5q0 61 2 112t8 88h786l-20 -153h-537q-5 -80 9.5 -148.5t58.5 -110t129 -41.5q75 0 133.5 42t90.5 141.5t26 273.5q-4 120 -47 190.5
t-114 101t-161 30.5q-40 0 -96 -8.5t-107 -22t-79 -30.5l-45 145q37 30 100.5 53.5t140 37.5t152.5 14z" />
    <glyph glyph-name="uni0292" unicode="&#x292;" horiz-adv-x="957" 
d="M294 -295q-51 0 -100 4t-98 5l-2 196q43 -8 80.5 -12.5t83.5 -6.5q118 -2 198.5 31.5t121.5 92.5t41 134q0 83 -40.5 130t-107 65.5t-145.5 15.5l-130 123l270 334l104 106h-479v191h706l74 -118l-387 -480q107 -12 194 -57.5t138.5 -119.5t51.5 -172q0 -129 -66 -234
t-194 -166.5t-314 -61.5z" />
    <glyph glyph-name="uni02B9" unicode="&#x2b9;" horiz-adv-x="669" 
d="M172 1162l99 603h255l-164 -603h-190z" />
    <glyph glyph-name="uni02BA" unicode="&#x2ba;" horiz-adv-x="1097" 
d="M172 1162l99 603h255l-164 -603h-190zM600 1162l99 603h255l-164 -603h-190z" />
    <glyph glyph-name="uni02BB" unicode="&#x2bb;" horiz-adv-x="533" 
d="M293 926q-54 20 -98.5 69t-71 122.5t-26.5 164.5q0 110 35.5 195t83 141t83.5 79l109 -69v-30q-26 -23 -44.5 -67t-29 -95.5t-10.5 -98.5q0 -80 34 -140t69 -77v-65z" />
    <glyph glyph-name="uni02BC" unicode="&#x2bc;" horiz-adv-x="591" 
d="M235 926l-109 70v30q21 24 37 67.5t24.5 94.5t8.5 99q0 82 -30 144t-60 80v64l154 115q45 -19 82 -60t59 -105.5t22 -155.5q0 -124 -34 -214.5t-77.5 -147.5t-76.5 -81z" />
    <glyph glyph-name="uni02BE" unicode="&#x2be;" horiz-adv-x="424" 
d="M58 1289v135q83 0 121.5 34t38.5 112q0 45 -19.5 75t-55.5 45.5t-85 15.5v132q80 0 154 -27t122 -86t49 -155q2 -130 -86.5 -205.5t-238.5 -75.5z" />
    <glyph glyph-name="uni02BF" unicode="&#x2bf;" horiz-adv-x="424" 
d="M365 1289q-150 0 -238 75.5t-86 205.5q1 96 49 155t122.5 86t152.5 27v-132q-48 0 -84 -15.5t-55.5 -45.5t-19.5 -75q0 -78 38.5 -112t120.5 -34v-135z" />
    <glyph glyph-name="circumflex" unicode="&#x2c6;" horiz-adv-x="833" 
d="M179 1246l-137 71l277 337h201l270 -337l-143 -69l-228 220z" />
    <glyph glyph-name="caron" unicode="&#x2c7;" horiz-adv-x="807" 
d="M42 1584l137 70l240 -222l228 222l143 -71l-270 -337h-201z" />
    <glyph glyph-name="uni02C8" unicode="&#x2c8;" horiz-adv-x="706" 
d="M467 2083l-45 -775h-140l-44 775h229z" />
    <glyph glyph-name="uni02C9" unicode="&#x2c9;" horiz-adv-x="649" 
d="M47 1723v179h555v-179h-555z" />
    <glyph glyph-name="uni02CA" unicode="&#x2ca;" 
d="M-6 1248l-126 107q54 57 112.5 122t115 135t103.5 141l177 -147q-19 -38 -69.5 -94t-112.5 -112t-117 -98t-83 -54z" />
    <glyph glyph-name="uni02CB" unicode="&#x2cb;" 
d="M-6 1248l-126 107q54 57 112.5 122t115 135t103.5 141l177 -147q-19 -38 -69.5 -94t-112.5 -112t-117 -98t-83 -54z" />
    <glyph glyph-name="uni02CC" unicode="&#x2cc;" horiz-adv-x="709" 
d="M470 190l-47 -781h-140l-45 781h232z" />
    <glyph glyph-name="breve" unicode="&#x2d8;" 
d="M389 1272q-115 0 -194 52.5t-118.5 138t-33.5 183.5h170q1 -12 5 -42t20 -63t52 -57t100 -24t100 24t52.5 57t21 63t5.5 42h166q6 -98 -35.5 -183.5t-121.5 -138t-189 -52.5z" />
    <glyph glyph-name="dotaccent" unicode="&#x2d9;" horiz-adv-x="430" 
d="M205 1298q-63 0 -109 40t-46 107q0 46 25.5 83.5t65.5 60t84 22.5q75 0 114.5 -42t39.5 -105q0 -71 -52 -118.5t-122 -47.5z" />
    <glyph glyph-name="ring" unicode="&#x2da;" horiz-adv-x="728" 
d="M361 1289q-149 0 -236 76.5t-84 204.5q1 97 49 155.5t122 85.5t153 27q148 0 235.5 -69.5t87.5 -200.5q-1 -97 -46.5 -158.5t-120 -91t-160.5 -29.5zM362 1424q72 -1 117.5 31.5t45.5 110.5q0 68 -47 104t-116 36q-59 0 -108 -29t-49 -107q0 -64 42.5 -104.5t114.5 -41.5
z" />
    <glyph glyph-name="ogonek" unicode="&#x2db;" horiz-adv-x="629" 
d="M302 -501q-63 0 -119 22t-92 65.5t-37 107.5q-2 67 33.5 124.5t93 103t118.5 74.5l106 12l105 2q-43 -20 -87 -49t-81 -64t-58.5 -73t-20.5 -77q1 -47 32.5 -69.5t89.5 -22.5q48 0 95 14.5t72 23.5l14 -122q-39 -27 -105 -49.5t-159 -22.5z" />
    <glyph glyph-name="tilde" unicode="&#x2dc;" horiz-adv-x="909" 
d="M134 1341l-97 83q21 52 60.5 98.5t94.5 75t121 28.5q61 0 101 -19.5t68.5 -46t56 -46.5t65.5 -20q61 0 102 32.5t70 66.5l97 -88q-23 -55 -62.5 -100.5t-92.5 -73t-119 -27.5q-63 0 -102.5 20.5t-67.5 46.5t-56 46.5t-68 20.5q-54 0 -98.5 -32.5t-72.5 -64.5z" />
    <glyph glyph-name="hungarumlaut" unicode="&#x2dd;" horiz-adv-x="1013" 
d="M152 1281l-111 79l262 406l172 -118q-23 -41 -64.5 -95.5t-89.5 -109.5t-93 -99t-76 -63zM643 1281l-109 79l270 400l167 -119q-20 -38 -61.5 -92t-91.5 -109t-96.5 -98.5t-78.5 -60.5z" />
    <glyph glyph-name="gravecomb" unicode="&#x300;" 
d="M99 1363l-102 -102q-31 15 -85 56t-113.5 95.5t-110.5 110.5t-77 99l157 142q44 -63 100.5 -134t116.5 -140t114 -127z" />
    <glyph glyph-name="acutecomb" unicode="&#x301;" 
d="M-57 1261l-116 100q54 57 112.5 125.5t114.5 142t102 144.5l167 -135q-16 -31 -52.5 -75t-82.5 -92t-94 -92.5t-88 -76t-63 -41.5z" />
    <glyph glyph-name="uni0302" unicode="&#x302;" 
d="M-252 1239l-122 68l284 345h188l276 -345l-130 -67l-244 214z" />
    <glyph glyph-name="tildecomb" unicode="&#x303;" 
d="M133 1287q-54 0 -90.5 21.5t-64 49t-54.5 49t-61 21.5q-39 0 -64 -12t-41.5 -32.5t-29.5 -48.5l-98 46q15 58 45.5 109t78 83.5t113.5 32.5q52 0 88 -20.5t64 -48.5t54.5 -48.5t59.5 -20.5q35 0 60 11t43 31.5t30 48.5l102 -50q-10 -63 -43.5 -112.5t-83 -79.5
t-108.5 -30z" />
    <glyph glyph-name="uni0304" unicode="&#x304;" 
d="M-276 1320v179h555v-179h-555z" />
    <glyph glyph-name="uni0306" unicode="&#x306;" 
d="M0 1272q-113 0 -193 52.5t-119 138t-33 183.5h170q1 -12 5 -42t19.5 -63t51.5 -57t101 -24q64 0 99.5 24t52 57t21 63t5.5 42h167q6 -98 -36 -183.5t-122 -138t-189 -52.5z" />
    <glyph glyph-name="uni0307" unicode="&#x307;" 
d="M-10 1289q-63 0 -109 40t-46 108q0 46 25.5 83.5t65.5 60t85 22.5q74 0 113.5 -42t39.5 -105q0 -72 -52 -119.5t-122 -47.5z" />
    <glyph glyph-name="uni0308" unicode="&#x308;" 
d="M-240 1296q-61 0 -102.5 39.5t-41.5 103.5q0 68 51.5 114.5t113.5 46.5q72 0 107 -41t35 -102q0 -70 -48.5 -115.5t-114.5 -45.5zM222 1296q-60 0 -102 39.5t-42 103.5q0 68 51 114.5t115 46.5q72 0 106.5 -41t34.5 -102q0 -70 -48.5 -115.5t-114.5 -45.5z" />
    <glyph glyph-name="hookabovecomb" unicode="&#x309;" 
d="M-64 1278q-10 21 -17.5 41.5t-7.5 47.5q0 37 17 59.5t39.5 40.5t39.5 38t17 50q0 39 -27 59t-82 20q-34 0 -70.5 -10.5t-54.5 -22.5l-4 137q33 21 86.5 30.5t99.5 9.5q108 0 174 -51t66 -136q0 -51 -18 -84t-45.5 -57t-53.5 -47q-18 -15 -29.5 -50t0.5 -75h-130z" />
    <glyph glyph-name="uni030A" unicode="&#x30a;" 
d="M-4 1289q-148 0 -235 76.5t-86 204.5q1 97 49.5 155.5t122.5 85.5t153 27q149 0 238 -69.5t87 -200.5q-1 -97 -47 -158.5t-121 -91t-161 -29.5zM-3 1424q72 -1 117.5 31.5t45.5 110.5q0 68 -47 104t-116 36q-40 0 -75.5 -12.5t-58.5 -42t-23 -81.5q0 -64 43 -104.5
t114 -41.5z" />
    <glyph glyph-name="uni030B" unicode="&#x30b;" 
d="M-255 1281l-111 79q25 38 52 80t55 85.5t55.5 86t53 82t46.5 72.5l173 -118q-24 -41 -65.5 -95.5t-90 -109.5t-93.5 -99t-75 -63zM236 1281l-109 79q24 36 52 76.5t57 83.5t57 85t54.5 82t48.5 73l168 -119q-20 -38 -61.5 -92t-91.5 -109t-96.5 -98.5t-78.5 -60.5z" />
    <glyph glyph-name="uni030C" unicode="&#x30c;" 
d="M-376 1620l136 70l241 -223l227 223l144 -72l-271 -336h-200z" />
    <glyph glyph-name="uni030F" unicode="&#x30f;" 
d="M270 1281q-30 19 -75 63t-93.5 99t-90 109.5t-65.5 95.5l174 118q22 -33 47 -72.5t52 -82t55 -86t55.5 -85.5t51.5 -80zM-214 1281q-32 17 -78.5 60.5t-96.5 98.5t-91 109t-62 92l169 119q22 -33 48 -73t54 -82t57 -85t56.5 -83.5t52.5 -76.5z" />
    <glyph glyph-name="uni0311" unicode="&#x311;" 
d="M0 1646q109 0 189 -52.5t122 -137.5t36 -184h-167q-1 12 -5.5 42t-21 63.5t-52 57.5t-99.5 24q-65 0 -101 -24t-51.5 -57.5t-19.5 -63.5t-5 -42h-170q-6 99 33 184t119 137.5t193 52.5z" />
    <glyph glyph-name="uni0312" unicode="&#x312;" 
d="M9 1262q-69 0 -110.5 44.5t-41.5 128.5q0 63 23 115t55 90.5t61.5 61.5t41.5 26h4l76 -39l1 -14q-34 -14 -55 -57t-21 -90q0 -33 16 -50t33 -28q18 -12 32 -31t14 -55q0 -43 -22 -65t-50.5 -29.5t-47.5 -7.5h-9z" />
    <glyph glyph-name="uni031B" unicode="&#x31b;" 
d="M-24 964v150q72 0 119 22.5t74 57.5t39.5 73t15.5 69q2 14 2.5 23t-1.5 15h171q2 -12 3 -24t1 -26q0 -105 -58 -186.5t-154.5 -127.5t-211.5 -46z" />
    <glyph glyph-name="dotbelowcomb" unicode="&#x323;" 
d="M-10 -466q-63 0 -109.5 40.5t-46.5 106.5q0 45 25.5 83t66 61t84.5 23q75 0 114.5 -42t39.5 -106q0 -71 -52 -118.5t-122 -47.5z" />
    <glyph glyph-name="uni0324" unicode="&#x324;" 
d="M-240 -417q-61 0 -102.5 39t-41.5 103q0 68 51.5 114.5t113.5 46.5q72 0 107 -41t35 -102q0 -69 -48.5 -114.5t-114.5 -45.5zM222 -417q-60 0 -102 39t-42 103q0 68 51 114.5t115 46.5q72 0 106.5 -41t34.5 -102q0 -69 -48.5 -114.5t-114.5 -45.5z" />
    <glyph glyph-name="uni0326" unicode="&#x326;" 
d="M189 -540l-121 35v25q15 17 25 46t10 76q0 45 -17.5 84t-44.5 47v48l176 82q30 -13 61 -67t31 -142q0 -53 -19 -102t-46.5 -84.5t-54.5 -47.5z" />
    <glyph glyph-name="uni0327" unicode="&#x327;" 
d="M-355 -426l16 148q14 -7 35 -9.5t44 -2.5q57 0 92 34.5t36 111.5q2 64 -7.5 105.5t-23.5 68.5l102 4l46 -4q20 -22 33 -59.5t19 -84.5t6 -98q-1 -84 -36 -137.5t-90 -79t-115 -25.5q-28 0 -60 3.5t-58.5 10t-38.5 14.5z" />
    <glyph glyph-name="uni0328" unicode="&#x328;" 
d="M-178 -501q-63 0 -119 22.5t-92 66t-38 107.5q-2 59 30.5 117t90 106.5t130.5 81.5l66 30l121 -30q-55 -27 -108 -68t-86.5 -88.5t-33.5 -95.5q1 -48 32.5 -71t90.5 -23q46 0 93.5 15.5t73.5 24.5l13 -124q-39 -26 -105 -48.5t-159 -22.5z" />
    <glyph glyph-name="uni032E" unicode="&#x32e;" 
d="M0 -468q-113 0 -193 52.5t-119 138t-33 183.5h170q1 -12 5 -42t19.5 -63t51.5 -57t101 -24q64 0 99.5 24t52 57t21 63t5.5 42h167q6 -98 -36 -183.5t-122 -138t-189 -52.5z" />
    <glyph glyph-name="uni0331" unicode="&#x331;" 
d="M-278 -351v179h556v-179h-556z" />
    <glyph glyph-name="uni0335" unicode="&#x335;" 
d="M410 680v-244h-820v244h820z" />
    <glyph glyph-name="uni0336" unicode="&#x336;" 
d="M574 655v-194h-1148v194h1148z" />
    <glyph glyph-name="uni0337" unicode="&#x337;" 
d="M278 1111l186 -1l-739 -1312l-189 1z" />
    <glyph glyph-name="uni0338" unicode="&#x338;" 
d="M283 1607h196l-755 -1809l-199 1z" />
    <glyph glyph-name="uni0394" unicode="&#x394;" horiz-adv-x="1555" 
d="M75 0l-14 22l673 1450h32l727 -1446l-16 -26h-1402zM380 203h772l-397 831z" />
    <glyph glyph-name="uni0394" unicode="&#x3b4;" horiz-adv-x="1555" 
d="M75 0l-14 22l673 1450h32l727 -1446l-16 -26h-1402zM380 203h772l-397 831z" />
    <glyph glyph-name="uni03A9" unicode="&#x3a9;" horiz-adv-x="1771" 
d="M756 163v-163l-177 125q-62 31 -130.5 98.5t-129 162.5t-98 209.5t-37.5 240.5q1 177 60.5 304.5t159 209t224 120t254.5 38.5q197 0 351.5 -74.5t243 -224t86.5 -374.5q0 -125 -33.5 -239t-90 -210t-128.5 -166t-148 -107q-9 -4 -29.5 -20.5t-44.5 -36t-44 -36
t-27 -20.5v163q70 45 135.5 137.5t107 225t40.5 295.5q0 121 -36 209t-97 144t-135 82.5t-151 26.5q-109 0 -208.5 -47.5t-163 -149.5t-63.5 -265q1 -163 49.5 -295t120 -225t139.5 -138zM182 0v177h397l177 -177h-574zM1599 0h-581l109 177h472v-177z" />
    <glyph glyph-name="uni03A9" unicode="&#x3c9;" horiz-adv-x="1771" 
d="M756 163v-163l-177 125q-62 31 -130.5 98.5t-129 162.5t-98 209.5t-37.5 240.5q1 177 60.5 304.5t159 209t224 120t254.5 38.5q197 0 351.5 -74.5t243 -224t86.5 -374.5q0 -125 -33.5 -239t-90 -210t-128.5 -166t-148 -107q-9 -4 -29.5 -20.5t-44.5 -36t-44 -36
t-27 -20.5v163q70 45 135.5 137.5t107 225t40.5 295.5q0 121 -36 209t-97 144t-135 82.5t-151 26.5q-109 0 -208.5 -47.5t-163 -149.5t-63.5 -265q1 -163 49.5 -295t120 -225t139.5 -138zM182 0v177h397l177 -177h-574zM1599 0h-581l109 177h472v-177z" />
    <glyph glyph-name="uni03BC" unicode="&#x3bc;" horiz-adv-x="1343" 
d="M191 -362v1476h253v-695q0 -130 54.5 -183t167.5 -53q34 0 69.5 11.5t68 29t55.5 35.5v855h255v-864q0 -45 11.5 -59.5t27.5 -14.5q9 0 29.5 5t47.5 21l30 -118q-7 -10 -38 -34.5t-79.5 -46t-108.5 -21.5q-59 0 -96.5 30.5t-36.5 105.5q-22 -27 -54.5 -58.5t-82.5 -53.5
t-121 -22q-110 0 -181 35t-114 129l41 10l36 -520h-234z" />
    <glyph glyph-name="pi" unicode="&#x3c0;" horiz-adv-x="1534" 
d="M92 882q2 21 15 59.5t34 65.5q39 53 103.5 80t173.5 27h741q60 0 92.5 16.5t45.5 55.5h156q-7 -153 -81.5 -218t-215.5 -65l-772 2q-72 0 -112.5 -29t-67.5 -57zM894 254l62 802l197 2l-32 -780q-3 -63 17 -87t48 -24q32 0 62.5 22t55 52t39.5 56l106 -73
q-15 -60 -62.5 -117t-120.5 -94t-164 -37q-117 0 -167 75t-41 203zM162 102q14 3 45 18.5t64 39.5q53 40 79.5 87.5t37 104.5t16.5 124l52 580h205l-34 -643q-6 -110 -25.5 -175t-52 -107t-76.5 -83q-28 -24 -69.5 -43.5t-91.5 -28.5z" />
    <glyph glyph-name="uni058F" unicode="&#x58f;" horiz-adv-x="1684" 
d="M686 1486q291 0 430.5 -164.5t139.5 -469.5v-868h-258v818q0 189 -36.5 293t-105.5 145t-165 41q-79 0 -141.5 -21.5t-106 -74t-65 -146t-17.5 -237.5l3 -84h-260l-1 130q-1 149 36.5 267t112 201t184 126.5t250.5 43.5zM661 585v158h900v-158h-900zM631 219v159h892
v-159h-892z" />
    <glyph glyph-name="uni1E02" unicode="&#x1e02;" horiz-adv-x="1342" 
d="M185 0v1488l124 -2q49 0 100.5 3.5t110.5 7t133 3.5q178 0 291 -44.5t166.5 -125t53.5 -189.5q0 -72 -23.5 -143t-73.5 -124.5t-128 -74.5q90 -6 161.5 -55.5t114 -126.5t42.5 -169q0 -136 -54.5 -240t-186 -163t-364.5 -59q-90 0 -186 5.5t-151 8.5h-130zM443 857
q24 -4 54.5 -5.5t63 -1t62.5 0.5h54q105 0 170.5 62.5t65.5 194.5q0 110 -77.5 160.5t-221.5 50.5q-17 0 -53.5 -1.5t-70.5 -4.5t-47 -8v-448zM443 191q16 -9 56.5 -14t86.5 -7t81 -2q154 0 240 57.5t86 202.5q0 127 -78 186.5t-244 59.5q-26 0 -58 0.5t-64 -0.5t-59.5 -2
t-46.5 -4v-477zM653 1653q-63 0 -106.5 37.5t-43.5 105.5t52.5 114t119.5 46q74 0 111 -39.5t37 -102.5q0 -71 -50 -116t-120 -45z" />
    <glyph glyph-name="uni1E03" unicode="&#x1e03;" horiz-adv-x="1250" 
d="M165 1622h254v-444l-8 -206l8 -6v-801l-254 -103v1560zM590 -18q-66 0 -135 8.5t-129.5 21.5t-103.5 26.5t-57 23.5l254 139q25 -19 72.5 -29t116.5 -10q82 0 147 47t103 138.5t40 223.5q1 192 -66.5 277t-186.5 85q-74 0 -133 -27.5t-93 -53.5l-36 128q23 24 63.5 59
t107 62t166.5 27q118 0 218 -57.5t161 -175t61 -297.5q0 -183 -71 -321.5t-199 -216.5t-300 -78zM760 1289q-63 0 -109 40t-46 108q0 46 25.5 83.5t65.5 60t85 22.5q74 0 113.5 -42t39.5 -105q0 -72 -52 -119.5t-122 -47.5z" />
    <glyph glyph-name="uni1E08" unicode="&#x1e08;" horiz-adv-x="1282" 
d="M91 738q0 185 56 327.5t154.5 240t226.5 147t271 49.5q110 0 185 -11.5t124.5 -24.5t82.5 -21l-37 -230q-17 11 -56 29.5t-107.5 34t-174.5 15.5q-138 0 -242 -65.5t-161.5 -186.5t-57.5 -289q0 -166 55.5 -293t160.5 -199.5t253 -72.5q71 0 143 14t128.5 35.5t82.5 42.5
v-218q-42 -17 -94 -35t-119.5 -30.5t-158.5 -12.5q-219 0 -379.5 94t-248 264t-87.5 396zM473 -426l16 148q14 -7 35 -9.5t44 -2.5q57 0 92 34.5t36 111.5q2 64 -7.5 105.5t-23.5 68.5l102 4l46 -4q20 -22 33 -59.5t19 -84.5t6 -98q-1 -84 -36 -137.5t-90 -79t-115 -25.5
q-28 0 -60 3.5t-58.5 10t-38.5 14.5zM737 1615l-113 100q4 4 36.5 34t77.5 72.5t90.5 86t77 76.5t34.5 40l171 -129q-33 -37 -80 -80t-100 -83.5t-103.5 -71.5t-90.5 -45z" />
    <glyph glyph-name="uni1E09" unicode="&#x1e09;" horiz-adv-x="982" 
d="M78 544q0 165 60 297t180.5 209.5t303.5 77.5q107 0 182 -18.5t102 -37.5l-37 -199q-40 27 -98 41.5t-141 14.5q-72 0 -139.5 -34.5t-112.5 -110.5t-49 -202q-4 -134 35 -223.5t108 -134.5t154 -45q80 0 149 19.5t105 40.5l44 -152q-50 -48 -144 -75.5t-200 -27.5
q-164 0 -275.5 74t-169 200.5t-57.5 285.5zM205 -426l16 148q14 -7 35 -9.5t44 -2.5q57 0 92 34.5t36 111.5q2 64 -7.5 105.5t-23.5 68.5l102 4l46 -4q20 -22 33 -59.5t19 -84.5t6 -98q-1 -84 -36 -137.5t-90 -79t-115 -25.5q-28 0 -60 3.5t-58.5 10t-38.5 14.5zM533 1261
l-116 100q54 57 112.5 125.5t114.5 142t102 144.5l167 -135q-16 -31 -52.5 -75t-82.5 -92t-94 -92.5t-88 -76t-63 -41.5z" />
    <glyph glyph-name="uni1E0A" unicode="&#x1e0a;" horiz-adv-x="1454" 
d="M173 0v1486h41h39.5h39.5q45 0 104.5 4t126 8t133.5 4q365 0 539.5 -188.5t174.5 -528.5q0 -254 -89.5 -434.5t-255 -275t-393.5 -91.5q-84 2 -181 9t-176 7h-34.5h-34.5h-34zM435 196q45 -10 108 -14t122 -3q128 1 225.5 60.5t152.5 185.5t55 326q0 208 -53.5 331
t-160.5 176.5t-267 53.5q-54 0 -102.5 -4t-79.5 -10v-1102zM704 1653q-63 0 -106.5 37.5t-43.5 105.5t52.5 114t119.5 46q74 0 111 -39.5t37 -102.5q0 -71 -50 -116t-120 -45z" />
    <glyph glyph-name="uni1E0B" unicode="&#x1e0b;" horiz-adv-x="1247" 
d="M847 0v145l-15 9v777l8 6l-8 241v448h254v-1626h-239zM531 -16q-118 0 -218 58t-161.5 176t-61.5 299q0 183 70 320.5t196 214t295 76.5q103 0 172 -23.5t88 -40.5l-79 -162q-28 24 -76.5 33.5t-113.5 9.5q-80 0 -145 -45t-103.5 -135t-39.5 -223q-2 -188 65 -273.5
t187 -85.5q73 0 133 26.5t93 52.5l38 -127q-24 -25 -65 -60.5t-107.5 -63t-166.5 -27.5zM364 1289q-63 0 -109 40t-46 108q0 46 25.5 83.5t65.5 60t85 22.5q74 0 113.5 -42t39.5 -105q0 -72 -52 -119.5t-122 -47.5z" />
    <glyph glyph-name="uni1E0C" unicode="&#x1e0c;" horiz-adv-x="1454" 
d="M173 0v1486h41h39.5h39.5q45 0 104.5 4t126 8t133.5 4q365 0 539.5 -188.5t174.5 -528.5q0 -254 -89.5 -434.5t-255 -275t-393.5 -91.5q-84 2 -181 9t-176 7h-34.5h-34.5h-34zM435 196q45 -10 108 -14t122 -3q128 1 225.5 60.5t152.5 185.5t55 326q0 208 -53.5 331
t-160.5 176.5t-267 53.5q-54 0 -102.5 -4t-79.5 -10v-1102zM714 -447q-64 0 -109.5 39.5t-45.5 107.5q0 46 25 83.5t65.5 60t85.5 22.5q74 0 113.5 -42t39.5 -105q0 -72 -52.5 -119t-121.5 -47z" />
    <glyph glyph-name="uni1E0D" unicode="&#x1e0d;" horiz-adv-x="1247" 
d="M847 0v145l-15 9v777l8 6l-8 241v448h254v-1626h-239zM531 -16q-118 0 -218 58t-161.5 176t-61.5 299q0 183 70 320.5t196 214t295 76.5q103 0 172 -23.5t88 -40.5l-79 -162q-28 24 -76.5 33.5t-113.5 9.5q-80 0 -145 -45t-103.5 -135t-39.5 -223q-2 -188 65 -273.5
t187 -85.5q73 0 133 26.5t93 52.5l38 -127q-24 -25 -65 -60.5t-107.5 -63t-166.5 -27.5zM614 -466q-63 0 -109.5 40.5t-46.5 106.5q0 45 25.5 83t66 61t84.5 23q75 0 114.5 -42t39.5 -106q0 -71 -52 -118.5t-122 -47.5z" />
    <glyph glyph-name="uni1E0E" unicode="&#x1e0e;" horiz-adv-x="1454" 
d="M173 0v1486h41h39.5h39.5q45 0 104.5 4t126 8t133.5 4q365 0 539.5 -188.5t174.5 -528.5q0 -254 -89.5 -434.5t-255 -275t-393.5 -91.5q-84 2 -181 9t-176 7h-34.5h-34.5h-34zM435 196q45 -10 108 -14t122 -3q128 1 225.5 60.5t152.5 185.5t55 326q0 208 -53.5 331
t-160.5 176.5t-267 53.5q-54 0 -102.5 -4t-79.5 -10v-1102zM425 -335v179h596v-179h-596z" />
    <glyph glyph-name="uni1E0F" unicode="&#x1e0f;" horiz-adv-x="1247" 
d="M847 0v145l-15 9v777l8 6l-8 241v448h254v-1626h-239zM531 -16q-118 0 -218 58t-161.5 176t-61.5 299q0 183 70 320.5t196 214t295 76.5q103 0 172 -23.5t88 -40.5l-79 -162q-28 24 -76.5 33.5t-113.5 9.5q-80 0 -145 -45t-103.5 -135t-39.5 -223q-2 -188 65 -273.5
t187 -85.5q73 0 133 26.5t93 52.5l38 -127q-24 -25 -65 -60.5t-107.5 -63t-166.5 -27.5zM345 -351v179h556v-179h-556z" />
    <glyph glyph-name="uni1E14" unicode="&#x1e14;" horiz-adv-x="1191" 
d="M173 0v1486h878v-199h-617v-425h461v-196h-461v-463h685v-203h-946zM352 1672v177h558v-177h-558zM762 2054l-112 -102q-34 12 -85 43.5t-107 73.5t-104.5 85.5t-77.5 79.5l175 130q3 -10 34 -43t75 -76t89 -85t77 -71.5t36 -34.5z" />
    <glyph glyph-name="uni1E15" unicode="&#x1e15;" horiz-adv-x="1130" 
d="M606 -16q-246 0 -378.5 152.5t-132.5 422.5q0 162 59.5 290t174 202.5t281.5 76.5q85 2 160.5 -23t134 -77.5t93.5 -134t37 -193.5q0 -62 -1 -112.5t-9 -87.5h-786l20 152h538q5 80 -9.5 148.5t-59 109.5t-130.5 41q-75 0 -133.5 -41.5t-90 -141t-26.5 -273.5
q5 -120 48 -190.5t114 -100.5t160 -30q41 0 97 8t107 21.5t78 29.5l47 -144q-37 -30 -101 -53.5t-140.5 -37.5t-151.5 -14zM326 1320v179h555v-179h-555zM701 1713l-102 -102q-31 15 -85 56t-113.5 95.5t-110.5 110.5t-77 99l157 142q44 -63 100.5 -134t116.5 -140t114 -127
z" />
    <glyph glyph-name="uni1E16" unicode="&#x1e16;" horiz-adv-x="1191" 
d="M173 0v1486h878v-199h-617v-425h461v-196h-461v-463h685v-203h-946zM352 1672v177h558v-177h-558zM579 1952l-113 100q4 4 36.5 34t77.5 72.5t90.5 86t77 76.5t34.5 40l171 -129q-33 -37 -80 -80t-100 -83.5t-103.5 -71.5t-90.5 -45z" />
    <glyph glyph-name="uni1E17" unicode="&#x1e17;" horiz-adv-x="1130" 
d="M606 -16q-246 0 -378.5 152.5t-132.5 422.5q0 162 59.5 290t174 202.5t281.5 76.5q85 2 160.5 -23t134 -77.5t93.5 -134t37 -193.5q0 -62 -1 -112.5t-9 -87.5h-786l20 152h538q5 80 -9.5 148.5t-59 109.5t-130.5 41q-75 0 -133.5 -41.5t-90 -141t-26.5 -273.5
q5 -120 48 -190.5t114 -100.5t160 -30q41 0 97 8t107 21.5t78 29.5l47 -144q-37 -30 -101 -53.5t-140.5 -37.5t-151.5 -14zM326 1320v179h555v-179h-555zM545 1611l-116 100q54 57 112.5 125.5t114.5 142t102 144.5l167 -135q-16 -31 -52.5 -75t-82.5 -92t-94 -92.5t-88 -76
t-63 -41.5z" />
    <glyph glyph-name="uni1E1C" unicode="&#x1e1c;" horiz-adv-x="1191" 
d="M173 0v1486h878v-199h-617v-425h461v-196h-461v-463h685v-203h-946zM349 -426l16 148q14 -7 35 -9.5t44 -2.5q57 0 92 34.5t36 111.5q2 64 -7.5 105.5t-23.5 68.5l102 4l46 -4q20 -22 33 -59.5t19 -84.5t6 -98q-1 -84 -36 -137.5t-90 -79t-115 -25.5q-28 0 -60 3.5
t-58.5 10t-38.5 14.5zM631 1596q-113 0 -193 52t-119 133.5t-33 171.5h170q1 -12 5 -39.5t19.5 -58t51.5 -52t101 -21.5q64 0 99.5 21.5t52 52t21 58t5.5 39.5h167q6 -90 -36 -171.5t-122 -133.5t-189 -52z" />
    <glyph glyph-name="uni1E1D" unicode="&#x1e1d;" horiz-adv-x="1130" 
d="M606 -16q-246 0 -378.5 152.5t-132.5 422.5q0 162 59.5 290t174 202.5t281.5 76.5q85 2 160.5 -23t134 -77.5t93.5 -134t37 -193.5q0 -62 -1 -112.5t-9 -87.5h-786l20 152h538q5 80 -9.5 148.5t-59 109.5t-130.5 41q-75 0 -133.5 -41.5t-90 -141t-26.5 -273.5
q5 -120 48 -190.5t114 -100.5t160 -30q41 0 97 8t107 21.5t78 29.5l47 -144q-37 -30 -101 -53.5t-140.5 -37.5t-151.5 -14zM287 -426l16 148q14 -7 35 -9.5t44 -2.5q57 0 92 34.5t36 111.5q2 64 -7.5 105.5t-23.5 68.5l102 4l46 -4q20 -22 33 -59.5t19 -84.5t6 -98
q-1 -84 -36 -137.5t-90 -79t-115 -25.5q-28 0 -60 3.5t-58.5 10t-38.5 14.5zM602 1272q-113 0 -193 52.5t-119 138t-33 183.5h170q1 -12 5 -42t19.5 -63t51.5 -57t101 -24q64 0 99.5 24t52 57t21 63t5.5 42h167q6 -98 -36 -183.5t-122 -138t-189 -52.5z" />
    <glyph glyph-name="uni1E1E" unicode="&#x1e1e;" horiz-adv-x="1070" 
d="M173 0v1486h874v-199h-612v-448h459v-198h-459v-641h-262zM638 1653q-63 0 -106.5 37.5t-43.5 105.5t52.5 114t119.5 46q74 0 111 -39.5t37 -102.5q0 -71 -50 -116t-120 -45z" />
    <glyph glyph-name="uni1E1F" unicode="&#x1e1f;" horiz-adv-x="811" 
d="M235 0v930h-159v145l159 39v101q0 123 37.5 205.5t98.5 131.5t133.5 69.5t141.5 20.5q56 0 101 -7.5t61 -12.5v-191q-27 9 -63 14.5t-98 5.5q-68 0 -111.5 -51t-43.5 -155v-131h266v-184h-266v-930h-257zM278 1670q-63 0 -109 40t-46 108q0 46 25.5 83.5t65.5 60t85 22.5
q74 0 113.5 -42t39.5 -105q0 -72 -52 -119.5t-122 -47.5z" />
    <glyph glyph-name="uni1E20" unicode="&#x1e20;" horiz-adv-x="1422" 
d="M94 736q0 195 55 339t152 239t226.5 141.5t278.5 46.5q111 0 180 -9.5t122 -23t117 -25.5l-10 -229q-69 35 -161.5 59t-253.5 24q-130 0 -228.5 -64t-154 -183.5t-55.5 -288.5q0 -163 46.5 -295t141 -208.5t238.5 -76.5q80 0 156 12t117 36v377l54 -42l-307 15v189h500
v-679q-35 -2 -76.5 -18.5t-99 -36.5t-140 -35.5t-198.5 -15.5q-221 0 -377.5 96t-239.5 265.5t-83 390.5zM520 1672v177h558v-177h-558z" />
    <glyph glyph-name="uni1E21" unicode="&#x1e21;" horiz-adv-x="1225" 
d="M581 -504q-234 1 -362.5 83.5t-128.5 246.5q0 61 29.5 109t75 81.5t94.5 50.5l156 -20q-19 -17 -44 -38t-43.5 -55t-18.5 -90q0 -63 24.5 -109.5t79.5 -72.5t148 -26q84 0 154 18.5t112 55.5t42 94q0 56 -20.5 95.5t-76.5 61t-164 21.5h-135q-51 0 -90 3.5t-71 11.5
q-15 4 -24.5 10.5t-24.5 10.5q-75 27 -103 74.5t-28 101.5q1 39 20 80t57 79t93 67l153 -34q-37 -15 -64.5 -48.5t-27.5 -70.5q0 -57 30 -77.5t101 -20.5h200q129 0 211 -26.5t127.5 -71t63 -100t17.5 -113.5q0 -91 -44.5 -162.5t-123 -120.5t-180 -74t-214.5 -25zM571 379
q-129 0 -231.5 45.5t-161 128.5t-58.5 193q0 128 58.5 212.5t161 126t234.5 43.5q131 2 235.5 -38t166 -122.5t61.5 -210.5q0 -122 -58 -206.5t-163 -128t-245 -43.5zM576 536q98 0 156.5 44.5t58.5 169.5q0 106 -50.5 161t-154.5 55q-60 0 -109.5 -17.5t-78.5 -63.5
t-29 -131q0 -88 48.5 -153t158.5 -65zM911 926l-58 104q21 27 85 58.5t144 31.5h118v-194h-289zM297 1320v179h555v-179h-555z" />
    <glyph glyph-name="uni1E24" unicode="&#x1e24;" horiz-adv-x="1514" 
d="M173 0v1486h262v-638h646v638h260v-1486h-260v652h-646v-652h-262zM748 -447q-64 0 -109.5 39.5t-45.5 107.5q0 46 25 83.5t65.5 60t85.5 22.5q74 0 113.5 -42t39.5 -105q0 -72 -52.5 -119t-121.5 -47z" />
    <glyph glyph-name="uni1E25" unicode="&#x1e25;" horiz-adv-x="1277" 
d="M165 0v1626h255v-451l-13 -210l-11 27q39 32 100 63t132 52t143 23q182 5 265.5 -100.5t83.5 -345.5v-684h-256v674q0 135 -41 192.5t-154 52.5q-49 -1 -118.5 -23.5t-130.5 -69.5v-826h-255zM630 -466q-63 0 -109.5 40.5t-46.5 106.5q0 45 25.5 83t66 61t84.5 23
q75 0 114.5 -42t39.5 -106q0 -71 -52 -118.5t-122 -47.5z" />
    <glyph glyph-name="uni1E2A" unicode="&#x1e2a;" horiz-adv-x="1514" 
d="M173 0v1486h262v-638h646v638h260v-1486h-260v652h-646v-652h-262zM757 -468q-113 0 -193 52.5t-119 138t-33 183.5h170q1 -12 5 -42t19.5 -63t51.5 -57t101 -24q64 0 99.5 24t52 57t21 63t5.5 42h167q6 -98 -36 -183.5t-122 -138t-189 -52.5z" />
    <glyph glyph-name="uni1E2B" unicode="&#x1e2b;" horiz-adv-x="1277" 
d="M165 0v1626h255v-451l-13 -210l-11 27q39 32 100 63t132 52t143 23q182 5 265.5 -100.5t83.5 -345.5v-684h-256v674q0 135 -41 192.5t-154 52.5q-49 -1 -118.5 -23.5t-130.5 -69.5v-826h-255zM639 -468q-113 0 -193 52.5t-119 138t-33 183.5h170q1 -12 5 -42t19.5 -63
t51.5 -57t101 -24q64 0 99.5 24t52 57t21 63t5.5 42h167q6 -98 -36 -183.5t-122 -138t-189 -52.5z" />
    <glyph glyph-name="uni1E2E" unicode="&#x1e2e;" horiz-adv-x="658" 
d="M197 0v1486h263v-1486h-263zM71 1620q-61 0 -103.5 38.5t-42.5 103.5q0 69 51 115.5t116 46.5q73 0 109.5 -40.5t36.5 -102.5q0 -71 -49 -116t-118 -45zM567 1620q-62 0 -103.5 38.5t-41.5 103.5q0 69 51 115.5t115 46.5q73 0 110 -40.5t37 -102.5q0 -71 -49.5 -116
t-118.5 -45zM278 1988l-113 100q4 4 36.5 34t77.5 72.5t90.5 86t77 76.5t34.5 40l171 -129q-33 -37 -80 -80t-100 -83.5t-103.5 -71.5t-90.5 -45z" />
    <glyph glyph-name="uni1E2F" unicode="&#x1e2f;" horiz-adv-x="603" 
d="M174 0v1112h255v-1112h-255zM60 1296q-61 0 -102.5 39.5t-41.5 103.5q0 68 51.5 114.5t113.5 46.5q72 0 107 -41t35 -102q0 -70 -48.5 -115.5t-114.5 -45.5zM522 1296q-60 0 -102 39.5t-42 103.5q0 68 51 114.5t115 46.5q72 0 106.5 -41t34.5 -102q0 -70 -48.5 -115.5
t-114.5 -45.5zM243 1657l-116 100q54 57 112.5 125.5t114.5 142t102 144.5l167 -135q-16 -31 -52.5 -75t-82.5 -92t-94 -92.5t-88 -76t-63 -41.5z" />
    <glyph glyph-name="uni1E36" unicode="&#x1e36;" horiz-adv-x="1057" 
d="M173 0v1486h259v-1278h569v-208h-828zM515 -447q-64 0 -109.5 39.5t-45.5 107.5q0 46 25 83.5t65.5 60t85.5 22.5q74 0 113.5 -42t39.5 -105q0 -72 -52.5 -119t-121.5 -47z" />
    <glyph glyph-name="uni1E37" unicode="&#x1e37;" horiz-adv-x="599" 
d="M171 0v1626h257v-1626h-257zM291 -466q-63 0 -109.5 40.5t-46.5 106.5q0 45 25.5 83t66 61t84.5 23q75 0 114.5 -42t39.5 -106q0 -71 -52 -118.5t-122 -47.5z" />
    <glyph glyph-name="uni1E3A" unicode="&#x1e3a;" horiz-adv-x="1057" 
d="M173 0v1486h259v-1278h569v-208h-828zM226 -335v179h596v-179h-596z" />
    <glyph glyph-name="uni1E3B" unicode="&#x1e3b;" horiz-adv-x="599" 
d="M171 0v1626h257v-1626h-257zM22 -351v179h556v-179h-556z" />
    <glyph glyph-name="uni1E40" unicode="&#x1e40;" horiz-adv-x="1885" 
d="M109 0l157 1486h363l246 -822l75 -324l66 324l233 822h348l179 -1486h-258l-83 878l-26 414l-101 -416l-275 -889h-177l-290 889l-106 416l-29 -414l-74 -878h-248zM938 1593q-63 0 -106.5 37.5t-43.5 105.5t52.5 114t119.5 46q74 0 111 -39.5t37 -102.5q0 -71 -50 -116
t-120 -45z" />
    <glyph glyph-name="uni1E41" unicode="&#x1e41;" horiz-adv-x="1946" 
d="M167 0v1112h230l2 -118q41 29 101.5 60t132 52.5t143.5 23.5q119 4 192 -37t107.5 -136.5t34.5 -258.5v-698h-255v674q0 89 -15 144.5t-54.5 80t-116.5 21.5q-49 -1 -118.5 -24.5t-129.5 -69.5v-826h-254zM1098 824l-52 160q37 31 100 64.5t140.5 57t159.5 24.5
q117 2 193 -38t113 -135t37 -258v-699h-256v674q0 90 -14 145t-53.5 79.5t-116.5 21.5q-58 -1 -127.5 -28.5t-123.5 -67.5zM970 1289q-63 0 -109 40t-46 108q0 46 25.5 83.5t65.5 60t85 22.5q74 0 113.5 -42t39.5 -105q0 -72 -52 -119.5t-122 -47.5z" />
    <glyph glyph-name="uni1E42" unicode="&#x1e42;" horiz-adv-x="1885" 
d="M109 0l157 1486h363l246 -822l75 -324l66 324l233 822h348l179 -1486h-258l-83 878l-26 414l-101 -416l-275 -889h-177l-290 889l-106 416l-29 -414l-74 -878h-248zM935 -447q-64 0 -109.5 39.5t-45.5 107.5q0 46 25 83.5t65.5 60t85.5 22.5q74 0 113.5 -42t39.5 -105
q0 -72 -52.5 -119t-121.5 -47z" />
    <glyph glyph-name="uni1E43" unicode="&#x1e43;" horiz-adv-x="1946" 
d="M167 0v1112h230l2 -118q41 29 101.5 60t132 52.5t143.5 23.5q119 4 192 -37t107.5 -136.5t34.5 -258.5v-698h-255v674q0 89 -15 144.5t-54.5 80t-116.5 21.5q-49 -1 -118.5 -24.5t-129.5 -69.5v-826h-254zM1098 824l-52 160q37 31 100 64.5t140.5 57t159.5 24.5
q117 2 193 -38t113 -135t37 -258v-699h-256v674q0 90 -14 145t-53.5 79.5t-116.5 21.5q-58 -1 -127.5 -28.5t-123.5 -67.5zM965 -466q-63 0 -109.5 40.5t-46.5 106.5q0 45 25.5 83t66 61t84.5 23q75 0 114.5 -42t39.5 -106q0 -71 -52 -118.5t-122 -47.5z" />
    <glyph glyph-name="uni1E44" unicode="&#x1e44;" horiz-adv-x="1521" 
d="M173 0v1486h239l601 -934l196 -376h-69l-33 444v866h241v-1486h-253l-576 901l-227 426h85l33 -481v-846h-237zM761 1653q-63 0 -106.5 37.5t-43.5 105.5t52.5 114t119.5 46q74 0 111 -39.5t37 -102.5q0 -71 -50 -116t-120 -45z" />
    <glyph glyph-name="uni1E45" unicode="&#x1e45;" horiz-adv-x="1272" 
d="M167 0v1112h230l2 -120q40 29 101.5 60.5t133.5 53.5t145 24q177 5 256.5 -92.5t79.5 -341.5v-696h-257v674q0 137 -36.5 195t-152.5 52q-33 -1 -76 -12t-87.5 -31.5t-84.5 -51.5v-826h-254zM637 1289q-63 0 -109 40t-46 108q0 46 25.5 83.5t65.5 60t85 22.5
q74 0 113.5 -42t39.5 -105q0 -72 -52 -119.5t-122 -47.5z" />
    <glyph glyph-name="uni1E46" unicode="&#x1e46;" horiz-adv-x="1521" 
d="M173 0v1486h239l601 -934l196 -376h-69l-33 444v866h241v-1486h-253l-576 901l-227 426h85l33 -481v-846h-237zM751 -447q-64 0 -109.5 39.5t-45.5 107.5q0 46 25 83.5t65.5 60t85.5 22.5q74 0 113.5 -42t39.5 -105q0 -72 -52.5 -119t-121.5 -47z" />
    <glyph glyph-name="uni1E47" unicode="&#x1e47;" horiz-adv-x="1272" 
d="M167 0v1112h230l2 -120q40 29 101.5 60.5t133.5 53.5t145 24q177 5 256.5 -92.5t79.5 -341.5v-696h-257v674q0 137 -36.5 195t-152.5 52q-33 -1 -76 -12t-87.5 -31.5t-84.5 -51.5v-826h-254zM628 -466q-63 0 -109.5 40.5t-46.5 106.5q0 45 25.5 83t66 61t84.5 23
q75 0 114.5 -42t39.5 -106q0 -71 -52 -118.5t-122 -47.5z" />
    <glyph glyph-name="uni1E48" unicode="&#x1e48;" horiz-adv-x="1521" 
d="M173 0v1486h239l601 -934l196 -376h-69l-33 444v866h241v-1486h-253l-576 901l-227 426h85l33 -481v-846h-237zM462 -335v179h596v-179h-596z" />
    <glyph glyph-name="uni1E49" unicode="&#x1e49;" horiz-adv-x="1272" 
d="M167 0v1112h230l2 -120q40 29 101.5 60.5t133.5 53.5t145 24q177 5 256.5 -92.5t79.5 -341.5v-696h-257v674q0 137 -36.5 195t-152.5 52q-33 -1 -76 -12t-87.5 -31.5t-84.5 -51.5v-826h-254zM359 -351v179h556v-179h-556z" />
    <glyph glyph-name="uni1E4C" unicode="&#x1e4c;" horiz-adv-x="1533" 
d="M761 -16q-210 -4 -362 93.5t-232 272.5t-75 403q5 252 98.5 417.5t249.5 247.5t350 84q201 2 348.5 -91t227 -264.5t74.5 -402.5q-5 -251 -94 -418.5t-240.5 -252.5t-344.5 -89zM767 181q187 0 298 143t111 430q0 152 -44 277t-131.5 199.5t-217.5 74.5
q-116 0 -212.5 -58.5t-155 -183t-58.5 -323.5q0 -151 46 -278.5t137 -204t227 -76.5zM934 1618q-58 0 -97 20.5t-68.5 47.5t-58 48t-65.5 21q-43 0 -70 -12t-44.5 -33t-30.5 -49l-105 46q15 58 46.5 109.5t80.5 84t116 32.5q56 0 95 -20t69 -47t59.5 -47t66.5 -20
q36 0 63.5 11t46.5 32t32 50l107 -51q-9 -62 -44 -112.5t-87 -80.5t-112 -30zM736 2081l-113 100q4 4 36.5 34t77.5 72.5t90.5 86t77 76.5t34.5 40l171 -129q-33 -37 -80 -80t-100 -83.5t-103.5 -71.5t-90.5 -45z" />
    <glyph glyph-name="uni1E4D" unicode="&#x1e4d;" horiz-adv-x="1208" 
d="M594 -16q-139 0 -236.5 48t-157.5 131t-87 190.5t-26 226.5q3 179 72 301t187.5 184.5t267.5 62.5q187 0 299 -82.5t161 -218t47 -293.5q-3 -179 -71.5 -301.5t-186.5 -185.5t-269 -63zM601 164q131 -2 195 98.5t64 281.5q0 111 -26 202t-81.5 145.5t-144.5 55.5
q-131 2 -195 -94.5t-64 -277.5q0 -111 26 -204t81.5 -149.5t144.5 -57.5zM746 1287q-54 0 -90.5 21.5t-64 49t-54.5 49t-61 21.5q-39 0 -64 -12t-41.5 -32.5t-29.5 -48.5l-98 46q15 58 45.5 109t78 83.5t113.5 32.5q52 0 88 -20.5t64 -48.5t54.5 -48.5t59.5 -20.5
q35 0 60 11t43 31.5t30 48.5l102 -50q-10 -63 -43.5 -112.5t-83 -79.5t-108.5 -30zM556 1666l-116 100q54 57 112.5 125.5t114.5 142t102 144.5l167 -135q-16 -31 -52.5 -75t-82.5 -92t-94 -92.5t-88 -76t-63 -41.5z" />
    </font>
</defs>
</svg>
