<?xml version="1.0" standalone="no"?>
<!DOCTYPE svg PUBLIC "-//W3C//DTD SVG 1.1//EN" "http://www.w3.org/Graphics/SVG/1.1/DTD/svg11.dtd" >
<svg xmlns="http://www.w3.org/2000/svg" xmlns:xlink="http://www.w3.org/1999/xlink" version="1.1">
<metadata>
Created by FontForge 20201107 at Fri Aug 21 16:47:58 2020
 By 
Copyright 2019 The Merriweather Project Authors (https://github.com/SorkinType/Merriweather-Sans)
</metadata>
<defs>
<font id="MerriweatherSans-MediumItalic" horiz-adv-x="0" >
  <font-face 
    font-family="Merriweather Sans Medium"
    font-weight="500"
    font-style="italic"
    font-stretch="normal"
    units-per-em="2000"
    panose-1="0 0 0 0 0 0 0 0 0 0"
    ascent="1600"
    descent="-400"
    x-height="1114"
    cap-height="1494"
    bbox="-574 -657 2795 2579"
    underline-thickness="110"
    underline-position="-299"
    slope="-7.5"
    unicode-range="U+000D-FB02"
  />
<missing-glyph horiz-adv-x="1828" 
d="M217 0v1382h1383v-1382h-1383zM567 214l339 360l353 -360l120 120l-355 358l355 350l-126 122l-343 -358l-349 360l-120 -124l350 -354l-349 -334z" />
    <glyph glyph-name="fi" unicode="fi" horiz-adv-x="1339" 
d="M131 0l128 940h-130l32 174h122l15 95q10 69 30.5 128t50.5 108q57 92 146.5 142.5t208.5 50.5q46 0 85 -6t70 -19l-54 -183q-17 16 -47 27.5t-72 9.5q-68 0 -112 -55t-58 -149l-22 -149h198l-17 -174h-203l-128 -940h-243zM849 0l151 1114h246l-152 -1114h-245z
M1166 1322q-50 0 -90 38t-40 90q0 65 48.5 114t115.5 49q60 0 99 -35.5t39 -89.5q0 -68 -49.5 -117t-122.5 -49z" />
    <glyph glyph-name="fl" unicode="fl" horiz-adv-x="1299" 
d="M131 0l128 940h-130l32 174h122l15 95q10 69 30.5 128t50.5 108q57 92 146.5 142.5t208.5 50.5q46 0 85 -6t70 -19l-54 -183q-17 16 -47 27.5t-72 9.5q-68 0 -112 -55t-58 -149l-22 -149h198l-17 -174h-203l-128 -940h-243zM811 2l216 1596h245l-217 -1596h-244z" />
    <glyph glyph-name="f_f" unicode="ff" horiz-adv-x="1404" 
d="M131 0l128 940h-130l32 174h122l15 95q10 69 30.5 128t50.5 108q57 92 146.5 142.5t208.5 50.5q46 0 85 -6t70 -19l-54 -183q-17 16 -47 27.5t-72 9.5q-68 0 -112 -55t-58 -149l-22 -149h198l-17 -174h-203l-128 -940h-243zM833 0l128 940h-130l32 174h122l15 95
q10 69 30.5 128t50.5 108q57 92 146.5 142.5t208.5 50.5q46 0 85 -6t70 -19l-54 -183q-17 16 -47 27.5t-72 9.5q-68 0 -112 -55t-58 -149l-22 -149h198l-17 -174h-203l-128 -940h-243z" />
    <glyph glyph-name="f_f_i" unicode="ffi" horiz-adv-x="2002" 
d="M131 0l128 940h-130l32 174h122l15 95q10 69 30.5 128t50.5 108q57 92 146.5 142.5t208.5 50.5q46 0 85 -6t70 -19l-54 -183q-17 16 -47 27.5t-72 9.5q-68 0 -112 -55t-58 -149l-22 -149h198l-17 -174h-203l-128 -940h-243zM833 0l128 940h-130l32 174h122l15 95
q10 69 30.5 128t50.5 108q57 92 146.5 142.5t208.5 50.5q46 0 85 -6t70 -19l-54 -183q-17 16 -47 27.5t-72 9.5q-68 0 -112 -55t-58 -149l-22 -149h198l-17 -174h-203l-128 -940h-243zM1551 0l151 1114h246l-152 -1114h-245zM1827 1322q-50 0 -90 38t-40 90q0 65 48.5 114
t115.5 49q60 0 99 -35.5t39 -89.5q0 -68 -49.5 -117t-122.5 -49z" />
    <glyph glyph-name="f_f_l" unicode="ffl" horiz-adv-x="2001" 
d="M131 0l128 940h-130l32 174h122l15 95q10 69 30.5 128t50.5 108q57 92 146.5 142.5t208.5 50.5q46 0 85 -6t70 -19l-54 -183q-17 16 -47 27.5t-72 9.5q-68 0 -112 -55t-58 -149l-22 -149h198l-17 -174h-203l-128 -940h-243zM833 0l128 940h-130l32 174h122l15 95
q10 69 30.5 128t50.5 108q57 92 146.5 142.5t208.5 50.5q46 0 85 -6t70 -19l-54 -183q-17 16 -47 27.5t-72 9.5q-68 0 -112 -55t-58 -149l-22 -149h198l-17 -174h-203l-128 -940h-243zM1513 2l216 1596h245l-217 -1596h-244z" />
    <glyph glyph-name=".notdef" horiz-adv-x="1828" 
d="M217 0v1382h1383v-1382h-1383zM567 214l339 360l353 -360l120 120l-355 358l355 350l-126 122l-343 -358l-349 360l-120 -124l350 -354l-349 -334z" />
    <glyph glyph-name="uni0000" 
 />
    <glyph glyph-name="uni0000" 
 />
    <glyph glyph-name="nonmarkingreturn" horiz-adv-x="666" 
 />
    <glyph glyph-name="CR" unicode="&#xd;" 
 />
    <glyph glyph-name="space" unicode=" " horiz-adv-x="360" 
 />
    <glyph glyph-name="exclam" unicode="!" horiz-adv-x="670" 
d="M225 478l146 1258h266l-224 -1258h-188zM245 -17q-57 0 -94 33.5t-36 86.5q1 73 55 125.5t128 52.5q69 0 101.5 -32t31.5 -85q-2 -78 -54 -129.5t-132 -51.5z" />
    <glyph glyph-name="quotedbl" unicode="&#x22;" horiz-adv-x="1023" 
d="M215 944l79 704h256l-168 -704h-167zM713 944l79 704h256l-168 -704h-167z" />
    <glyph glyph-name="numbersign" unicode="#" horiz-adv-x="1372" 
d="M247 0l56 341h-195l12 159h206l59 361h-203l12 155h213l50 310h189l-49 -310h278l52 310h189l-52 -310h214l-12 -155h-225l-58 -361h208l-13 -159h-219l-55 -341h-183l49 341h-277l-61 -341h-185zM516 500h278l57 361h-277z" />
    <glyph glyph-name="dollar" unicode="$" horiz-adv-x="1176" 
d="M361 -240l39 225q-64 6 -123.5 20t-104.5 31.5t-65 33.5l74 197q25 -24 76 -46t110.5 -35.5t108.5 -13.5q68 0 131 21.5t104 66.5t41 114q0 80 -46 146t-157 141q-137 94 -215 199.5t-78 244.5q0 111 49 194t135 134.5t198 67.5l34 208h197l-35 -205q80 -7 140.5 -27
t101.5 -51l-78 -191q-26 27 -70 45.5t-94.5 28.5t-96.5 10q-68 0 -122 -18t-87 -57t-34 -101q-2 -52 28 -106.5t80 -105.5t110 -94q89 -63 155 -125t101.5 -133t36.5 -164q0 -122 -49.5 -211t-141 -143.5t-217.5 -72.5l-39 -228h-197z" />
    <glyph glyph-name="percent" unicode="%" horiz-adv-x="1783" 
d="M388 0l851 1494h180l-843 -1494h-188zM420 703q-138 0 -218.5 89t-80.5 231q0 116 53 216.5t147 162t218 61.5q98 0 163.5 -39t98.5 -107.5t33 -157.5q0 -122 -52.5 -226t-145.5 -167t-216 -63zM444 852q65 0 109.5 46.5t67 114t22.5 131.5q0 80 -34 126t-93 46
q-73 0 -120 -45t-69.5 -111t-22.5 -130q0 -80 37 -129t103 -49zM1303 60q-87 0 -155 40t-106 112.5t-38 168.5q0 115 53 215t147 162t219 62q98 0 163 -39t98 -108t33 -158q0 -122 -52.5 -225.5t-146 -166.5t-215.5 -63zM1327 209q66 0 110 46.5t67 114t23 131.5
q0 81 -34 126.5t-94 45.5q-73 0 -120 -45t-69.5 -111t-22.5 -130q0 -80 37.5 -129t102.5 -49z" />
    <glyph glyph-name="ampersand" unicode="&#x26;" horiz-adv-x="1508" 
d="M618 -16q-162 0 -288 39.5t-197 122.5t-71 211q0 93 39 166.5t112 132.5t173 106q-36 82 -59.5 171t-23.5 162q0 123 55.5 216.5t153 146t223.5 52.5q120 0 200.5 -45.5t121.5 -115t41 -141.5q0 -105 -47.5 -185t-144 -151.5t-240.5 -152.5q79 -133 160.5 -239.5
t171.5 -189.5q41 47 61 105t20 128v58t-7 55q-32 -2 -60.5 -8.5t-45.5 -15.5l10 163q20 23 61 29t88 6h334l-14 -172h-148q7 -45 5 -92q-7 -231 -146 -370q53 -25 110 -32.5t142 -6.5l-28 -138q-20 -6 -50 -10t-64 -5.5t-66 -1.5q-57 0 -125.5 17t-123.5 48
q-73 -31 -155 -47t-178 -16zM636 152q45 0 86 6t77 17q-71 70 -123.5 133.5t-99.5 134.5t-104 162q-78 -48 -120 -107t-42 -128q0 -80 43.5 -128t118 -69t164.5 -21zM583 868q89 49 153.5 96t99 99.5t34.5 118.5q0 77 -39.5 122.5t-114.5 45.5q-57 0 -99 -33t-65 -87
t-23 -118q0 -61 14 -122t40 -122z" />
    <glyph glyph-name="quotesingle" unicode="'" horiz-adv-x="526" 
d="M215 944l79 704h256l-168 -704h-167z" />
    <glyph glyph-name="parenleft" unicode="(" horiz-adv-x="834" 
d="M511 -322q-108 82 -183.5 216t-114.5 293.5t-39 317.5q0 150 28.5 299.5t82 289t128.5 259.5t168 213.5t199 150.5l116 -78q-112 -89 -201 -212.5t-151.5 -272.5t-95.5 -314t-33 -338q0 -105 15.5 -211t46.5 -205t75.5 -184t103.5 -148z" />
    <glyph glyph-name="parenright" unicode=")" horiz-adv-x="833" 
d="M113 -323l-137 79q112 91 201.5 213t153 267.5t97 306t33.5 327.5q0 111 -16.5 223t-48.5 215t-77.5 189t-104.5 143l146 78q110 -86 185 -220t113.5 -296.5t38.5 -331.5q0 -171 -45.5 -350t-126.5 -344t-186.5 -295.5t-225.5 -203.5z" />
    <glyph glyph-name="asterisk" unicode="*" horiz-adv-x="1278" 
d="M558 610l64 297l36 140l-114 -93l-259 -177l-85 178l288 119l134 50l-124 46l-264 122l118 176l226 -177l97 -88l-9 137l-1 297h203l-64 -297l-38 -137l118 88l262 178l82 -177l-288 -122l-133 -48l123 -48l263 -119l-123 -177l-222 177l-98 92l12 -140l4 -298z" />
    <glyph glyph-name="plus" unicode="+" horiz-adv-x="1329" 
d="M523 273l28 247l24 151l-132 -8h-227l23 191h229l127 -12l12 153l28 241h205l-26 -241l-27 -151l107 10h255l-22 -191h-257l-104 8l-7 -151l-30 -247h-206z" />
    <glyph glyph-name="comma" unicode="," horiz-adv-x="514" 
d="M60 -496l-79 101l4 20q71 37 117.5 110t46.5 156q0 64 -26 116t-65 65l6 52l121 144q67 -25 109 -74t61 -109.5t19 -121.5q0 -106 -38 -200q-39 -92 -110.5 -159.5t-165.5 -99.5z" />
    <glyph glyph-name="hyphen" unicode="-" horiz-adv-x="1205" 
d="M211 622l24 185h802l-25 -185h-801z" />
    <glyph glyph-name="period" unicode="." horiz-adv-x="514" 
d="M196 -24q-56 0 -92.5 34.5t-36.5 88.5q0 69 48.5 122t121.5 53q67 0 99 -34.5t32 -88.5q0 -80 -46.5 -127.5t-125.5 -47.5z" />
    <glyph glyph-name="slash" unicode="/" horiz-adv-x="834" 
d="M-107 -354l840 1914h204l-842 -1914h-202z" />
    <glyph glyph-name="zero" unicode="0" horiz-adv-x="1272" 
d="M558 -16q-113 0 -197.5 48.5t-139 132t-81.5 191t-27 225.5q0 197 48.5 364.5t137 292t206.5 193t256 68.5q151 0 250.5 -76.5t148.5 -210t49 -302.5q0 -184 -47.5 -351t-134.5 -296.5t-206 -204t-263 -74.5zM587 174q90 0 157.5 63t112.5 168t67.5 230.5t22.5 250.5
q0 139 -22 233t-68.5 142t-119.5 48q-81 2 -142 -44t-104 -123t-69.5 -170t-39 -188.5t-12.5 -178.5q0 -126 23.5 -223t71.5 -152.5t122 -55.5z" />
    <glyph glyph-name="one" unicode="1" horiz-adv-x="901" 
d="M276 0l173 1187q-58 -23 -125.5 -41t-132.5 -24l-31 156q68 16 151.5 53t163 83.5t134.5 91.5h4l133 -20l-217 -1486h-253z" />
    <glyph glyph-name="two" unicode="2" horiz-adv-x="1193" 
d="M63 0l-40 131q107 66 218.5 148.5t214 176.5t183.5 195.5t128 207t47 209.5q0 59 -21.5 114t-73.5 89.5t-142 34.5q-72 0 -129 -20.5t-103 -51.5t-84 -61l-96 134q42 47 108.5 92.5t153.5 76t189 30.5q137 0 228 -39t144 -103.5t75 -140t22 -148.5q0 -106 -47 -213
t-126.5 -209t-177.5 -192.5t-201.5 -165.5t-196.5 -128l692 32l1 -199h-966z" />
    <glyph glyph-name="three" unicode="3" horiz-adv-x="1144" 
d="M277 -16q-55 0 -106 4t-109 8l22 183q47 -4 91 -7t79 -3q104 0 191 19t151 57t99.5 92.5t35.5 124.5q0 54 -27 100t-86.5 74.5t-157.5 29.5l-156 -38l16 191q69 13 145 42.5t142 74t107 100t41 117.5q0 77 -44.5 120t-148.5 43q-68 0 -125 -19.5t-103.5 -49t-82.5 -58.5
l-84 153q40 40 109.5 78t161 63t195.5 25q107 0 192 -36.5t135 -107t50 -174.5q0 -96 -51 -178t-135.5 -143.5t-187.5 -96.5q124 0 205 -43t120.5 -111.5t39.5 -144.5q0 -112 -59 -202.5t-161 -154.5t-232 -98t-272 -34z" />
    <glyph glyph-name="four" unicode="4" horiz-adv-x="1245" 
d="M630 0l37 298h-592l-51 120q105 161 207 331.5t204.5 355.5t208.5 389h166l108 -75l-551 -857l-79 -96l404 16l58 410l232 38l-61 -438l244 13l-27 -207h-242l-35 -298h-231z" />
    <glyph glyph-name="five" unicode="5" horiz-adv-x="1180" 
d="M218 -13q-24 0 -60.5 3t-66.5 13l28 172q23 -4 41.5 -6t36.5 -2q99 0 199 21.5t183.5 67.5t134 118t50.5 172q0 108 -60 168.5t-186 60.5q-36 0 -80 -6.5t-87 -18.5t-75 -27l-93 96l155 675h573l20 16h156l-53 -220h-503l-95 -368q40 14 100.5 22.5t113.5 8.5
q128 0 216 -42.5t134 -125.5t46 -201q0 -135 -62.5 -245.5t-175 -188.5t-263 -120.5t-327.5 -42.5z" />
    <glyph glyph-name="six" unicode="6" horiz-adv-x="1240" 
d="M572 -16q-150 0 -250 70.5t-150 186.5t-50 254q0 248 100.5 453t284.5 349.5t434 209.5l56 -148q-148 -52 -258.5 -130.5t-183 -169t-106.5 -180.5q34 27 80 50t103 36.5t121 13.5q123 0 207 -56.5t126.5 -147t42.5 -191.5q0 -106 -34 -212.5t-103 -194t-174 -140.5
t-246 -53zM590 157q70 0 125 35.5t92.5 95t57 129.5t19.5 138q0 84 -30.5 136.5t-80 77.5t-105.5 24q-79 0 -134.5 -21.5t-90.5 -49.5t-53 -49q-15 -53 -20.5 -97t-5.5 -93q0 -93 21.5 -166.5t71.5 -116.5t133 -43z" />
    <glyph glyph-name="seven" unicode="7" horiz-adv-x="1064" 
d="M181 0l636 1297l-687 -2l24 199h910l37 -50l-630 -1444h-290z" />
    <glyph glyph-name="eight" unicode="8" horiz-adv-x="1239" 
d="M553 -17q-118 0 -221.5 41.5t-167.5 122.5t-64 199q0 108 46 188.5t123.5 137t171.5 91.5q-51 44 -91.5 96t-64 114.5t-23.5 135.5q0 131 65.5 219t172.5 133.5t231 45.5q115 1 206.5 -38t145 -111.5t53.5 -170.5q0 -104 -47.5 -186.5t-122.5 -139.5t-159 -86
q69 -50 131 -105.5t101.5 -123t39.5 -150.5q0 -130 -71 -222.5t-190.5 -141.5t-264.5 -49zM584 145q70 0 124.5 28t85 76.5t30.5 111.5q0 65 -34 117.5t-93 101t-135 101.5q-58 -32 -105.5 -74.5t-76 -99.5t-28.5 -132q0 -100 66 -165t166 -65zM697 859q86 44 145 122
t59 185q0 94 -55.5 140t-129.5 46q-93 0 -152 -62t-59 -156q0 -84 55 -148.5t137 -126.5z" />
    <glyph glyph-name="nine" unicode="9" horiz-adv-x="1238" 
d="M336 -18l-56 149q149 52 260 124t183.5 156t105.5 173q-47 -40 -127 -63.5t-170 -23.5q-130 0 -216 62.5t-129.5 159t-43.5 199.5q0 112 35.5 216t105.5 185t174.5 129t241.5 48q153 0 253.5 -70.5t149 -186.5t48.5 -253q0 -247 -100 -450t-283.5 -345.5t-431.5 -208.5z
M606 681q76 0 134 20.5t96 48t55 47.5q15 56 16.5 101t1.5 94q0 92 -27 167.5t-79.5 120.5t-129.5 45q-72 0 -125.5 -34t-88.5 -90t-52 -122.5t-17 -131.5q0 -138 66 -202t150 -64z" />
    <glyph glyph-name="colon" unicode=":" horiz-adv-x="514" 
d="M176 -24q-56 0 -92.5 34.5t-36.5 88.5q0 69 48.5 122t121.5 53q67 0 99 -34.5t32 -88.5q0 -80 -46.5 -127.5t-125.5 -47.5zM266 766q-56 0 -92.5 34.5t-36.5 88.5q0 69 48.5 122t121.5 53q67 0 99 -34.5t32 -88.5q0 -80 -46.5 -127.5t-125.5 -47.5z" />
    <glyph glyph-name="semicolon" unicode=";" horiz-adv-x="514" 
d="M60 -496l-79 101l4 20q71 37 117.5 110t46.5 156q0 64 -26 116t-65 65l6 52l121 144q67 -25 109 -74t61 -109.5t19 -121.5q0 -106 -38 -200q-39 -92 -110.5 -159.5t-165.5 -99.5zM270 766q-56 0 -92.5 34.5t-36.5 88.5q0 69 48.5 122t121.5 53q67 0 99 -34.5t32 -88.5
q0 -80 -46.5 -127.5t-125.5 -47.5z" />
    <glyph glyph-name="less" unicode="&#x3c;" horiz-adv-x="1346" 
d="M1067 174l-875 501l16 125l992 502l-28 -229l-706 -345l623 -346z" />
    <glyph glyph-name="equal" unicode="=" horiz-adv-x="1045" 
d="M160 815l25 184h805l-25 -184h-805zM97 324l25 183h804l-24 -183h-805z" />
    <glyph glyph-name="greater" unicode="&#x3e;" horiz-adv-x="1346" 
d="M246 176l28 228l706 346l-624 346l22 209l876 -501l-16 -127z" />
    <glyph glyph-name="question" unicode="?" horiz-adv-x="891" 
d="M242 513q-12 29 -23.5 66.5t-11.5 101.5q0 52 27.5 101.5t81 97.5t130.5 92q68 42 119 83.5t85 83.5t50.5 87t16.5 93q0 75 -42 125.5t-110.5 76t-149.5 25.5q-59 0 -106.5 -6.5t-101.5 -23.5l40 172q22 19 82 33.5t126 14.5q149 0 260.5 -40.5t174 -127t62.5 -223.5
q0 -145 -82.5 -260t-242.5 -203q-42 -23 -81 -49t-70.5 -55.5t-50 -63t-20.5 -72.5q-1 -33 2 -64.5t7 -63.5zM299 -16q-55 0 -91.5 34t-36.5 89q0 70 48 122.5t123 52.5q66 0 98 -34.5t32 -87.5q0 -80 -46.5 -128t-126.5 -48z" />
    <glyph glyph-name="at" unicode="@" horiz-adv-x="1942" 
d="M890 -430q-238 0 -413 98.5t-270 278t-95 419.5q0 248 76.5 456.5t217.5 362.5t335 238.5t431 84.5q208 0 362.5 -76t239.5 -218.5t85 -338.5q0 -157 -43.5 -310.5t-123.5 -279t-192 -200.5t-249 -75q-59 0 -78 53t-19 137q0 28 3.5 72.5t8.5 89.5q-47 -108 -104.5 -188
t-122 -124t-133.5 -44q-56 0 -106.5 35.5t-90 94t-62.5 130.5t-23 146q0 130 37 248.5t107.5 211.5t170 147t223.5 54q33 0 74 -6.5t78.5 -18t61.5 -27.5l172 28q-10 -39 -24 -114t-29 -169.5t-27.5 -191.5t-20.5 -180.5t-8 -135.5q0 -30 3.5 -47t9.5 -17q55 0 104 43
t89 114t69 156.5t44.5 172t15.5 159.5q0 191 -67 305t-189.5 164t-287.5 50q-188 0 -342 -79t-265.5 -214.5t-171.5 -308.5t-60 -361q0 -208 72.5 -356t210.5 -227t334 -79q65 0 133.5 10t128.5 26.5t96 33.5l41 -119q-68 -52 -180 -83t-237 -31zM851 202q38 0 83 49.5
t89 128t82 167.5t63.5 171t32.5 136q-22 30 -69 46t-89 16q-73 0 -129 -44t-95.5 -114.5t-59.5 -152.5t-20 -156q0 -80 11 -135.5t36.5 -83.5t64.5 -28z" />
    <glyph glyph-name="A" unicode="A" horiz-adv-x="1262" 
d="M-90 0l726 1494h292l260 -1494h-247l-53 350h-556l-156 -350h-266zM410 527h452l-99 669l-10 114l-47 -113z" />
    <glyph glyph-name="B" unicode="B" horiz-adv-x="1248" 
d="M471 -14q-16 0 -52 2t-79 5t-79.5 5t-54.5 2h-111l197 1494h111q15 0 57 2.5t93 5.5t94.5 5.5t60.5 2.5q163 0 264 -41.5t148 -116t47 -176.5q0 -149 -78 -250t-219 -142q85 -14 148.5 -55.5t99 -105.5t36.5 -147q2 -168 -79.5 -276.5t-235 -161t-368.5 -52.5zM516 160
q117 0 201.5 32.5t129.5 98t45 162.5q0 125 -73 180t-221 55q-44 0 -86 -1t-82 -4l-67 -509q17 -4 44 -7.5t56 -5t53 -1.5zM454 859q26 -1 56.5 -2t82.5 -1q147 0 235.5 76t88.5 218q0 98 -62.5 142t-198.5 47q-19 1 -43.5 0t-49.5 -3t-47 -4z" />
    <glyph glyph-name="C" unicode="C" horiz-adv-x="1131" 
d="M601 -16q-183 0 -295 92t-161 237t-49 314q0 253 96 454q95 202 261 315.5t371 113.5q51 0 101 -6.5t104.5 -22t120.5 -41.5l-79 -214q-50 32 -106 54.5t-158 22.5q-162 0 -264 -101q-103 -102 -149.5 -254.5t-46.5 -310.5q0 -133 32 -235.5t100 -161t176 -58.5
q61 0 128 15.5t122 39t84 45.5l35 -190q-23 -18 -65 -37t-98 -35t-122 -26t-138 -10z" />
    <glyph glyph-name="D" unicode="D" horiz-adv-x="1360" 
d="M529 -16q-60 2 -111.5 5.5t-102 7t-107.5 3.5h-113l197 1494h116q15 0 47 1.5t72.5 4t82.5 5t77.5 4t54.5 1.5q294 0 430 -164.5t136 -458.5q0 -190 -54.5 -355t-156.5 -289t-245.5 -192.5t-322.5 -66.5zM569 168q160 3 269 105q110 101 162.5 263t52.5 347
q0 169 -37 267q-39 96 -119.5 137.5t-216.5 41.5q-37 0 -87.5 -5.5t-79.5 -11.5l-146 -1118q39 -14 93.5 -20.5t108.5 -5.5z" />
    <glyph glyph-name="E" unicode="E" horiz-adv-x="1134" 
d="M95 0l197 1494h798l-17 -193l-561 6l-58 -451l422 6l-21 -199l-425 13l-65 -489l662 13l-22 -200h-910z" />
    <glyph glyph-name="F" unicode="F" horiz-adv-x="1040" 
d="M95 0l197 1494h794l-22 -193l-552 7l-60 -463l446 7l-21 -205l-450 13l-87 -660h-245z" />
    <glyph glyph-name="G" unicode="G" horiz-adv-x="1338" 
d="M617 -16q-178 0 -295 90q-118 88 -171.5 229t-55.5 302q-3 265 95 471t269 320t380 114q60 0 107.5 -3.5t92.5 -12t95 -22t115 -35.5l-64 -223q-28 22 -85 44.5t-127 37.5t-140 15q-168 0 -278 -103t-160.5 -258t-50.5 -315q0 -131 32.5 -235.5t102.5 -165t178 -60.5
q62 0 138 14t138 43l44 325h-232l24 197h467l-88 -666q-27 -3 -57.5 -11t-81.5 -22q-100 -30 -195 -50t-197 -20z" />
    <glyph glyph-name="H" unicode="H" horiz-adv-x="1406" 
d="M91 0l197 1494h246l-88 -663h581l86 663h248l-197 -1494h-247l86 653h-580l-87 -653h-245z" />
    <glyph glyph-name="I" unicode="I" horiz-adv-x="609" 
d="M114 0l198 1494h246l-197 -1494h-247z" />
    <glyph glyph-name="J" unicode="J" horiz-adv-x="607" 
d="M-132 -322l-37 96q42 12 88.5 46t89 79.5t72 94t37.5 90.5q25 115 45 238t37 255.5t33 277t35 303.5t41 336h246l-129 -1010q-22 -175 -40 -277t-27 -133q-38 -130 -106.5 -213t-165.5 -127t-219 -56z" />
    <glyph glyph-name="K" unicode="K" horiz-adv-x="1242" 
d="M91 0l197 1494h237l-96 -720l617 720h285l-592 -663q24 -41 43 -76.5t42.5 -80.5t60.5 -114.5t97 -180.5q28 -52 57.5 -105.5t59 -104t55.5 -93.5t48 -76h-294q-5 8 -24 43t-44 84t-50.5 100.5t-45.5 92.5l-169 336l-187 -199l-61 -457h-236z" />
    <glyph glyph-name="L" unicode="L" horiz-adv-x="984" 
d="M95 0l197 1494h246l-171 -1294l532 6l-28 -206h-776z" />
    <glyph glyph-name="M" unicode="M" horiz-adv-x="1816" 
d="M725 -18l-143 1069l-24 309l-57 -316l-236 -1044h-245l385 1494h335l127 -1033l11 -184l48 184l393 1033h358l-32 -1494h-248l63 1036l24 324l-111 -293l-427 -1069z" />
    <glyph glyph-name="N" unicode="N" horiz-adv-x="1401" 
d="M95 0l197 1494h236l400 -946l67 -221l17 247l111 920h235l-196 -1494h-224l-408 969l-67 241l-17 -283l-120 -927h-231z" />
    <glyph glyph-name="O" unicode="O" horiz-adv-x="1351" 
d="M599 -16q-165 0 -276.5 83t-168 222.5t-56.5 310.5q0 182 49 346t141.5 291.5t223 200t293.5 72.5q125 0 218 -48.5t155 -133.5t93 -197t31 -238q0 -183 -48 -347.5t-139 -291t-221.5 -198.5t-294.5 -72zM628 170q103 0 182 63.5t132 168t80 229t26 247.5q-2 151 -32 249
t-91 145.5t-153 47.5q-102 0 -180.5 -63.5t-132 -168t-80.5 -228t-27 -244.5q4 -231 73.5 -338.5t202.5 -107.5z" />
    <glyph glyph-name="P" unicode="P" horiz-adv-x="1192" 
d="M95 0l197 1494h127q17 0 56 2.5t85.5 5.5t89 5.5t68.5 2.5q231 0 352 -101t121 -305q1 -178 -75 -316q-75 -139 -215 -215t-323 -76q-55 0 -100 2t-71 6l-67 -505h-245zM578 685q185 1 273.5 105t94.5 306q2 119 -63.5 178t-206.5 59q-33 0 -79.5 -5t-82.5 -13l-81 -616
q23 -6 66 -10t79 -4z" />
    <glyph glyph-name="Q" unicode="Q" horiz-adv-x="1352" 
d="M875 -372q-100 0 -178.5 31.5t-124 93t-45.5 153.5q0 18 4 54.5t11 62.5l158 1v-20.5v-23.5q0 -60 37.5 -90t100 -40.5t136.5 -10.5q61 0 124 7.5t104 20.5v-167q-25 -20 -81 -36t-122.5 -26t-123.5 -10zM599 -16q-165 0 -276.5 83t-168 222.5t-56.5 310.5q0 182 49 346
t141.5 291.5t223 200t293.5 72.5q125 0 218 -48.5t155 -133.5t93 -197t31 -238q0 -183 -48 -347.5t-139 -291t-221.5 -198.5t-294.5 -72zM628 170q103 0 182 63.5t132 168t80 229t26 247.5q-2 151 -32 249t-91 145.5t-153 47.5q-102 0 -180.5 -63.5t-132 -168t-80.5 -228
t-27 -244.5q4 -231 73.5 -338.5t202.5 -107.5z" />
    <glyph glyph-name="R" unicode="R" horiz-adv-x="1265" 
d="M93 0l198 1494h133q28 0 85.5 4t117 8t92.5 4q242 0 363 -94t121 -274q0 -178 -85.5 -309.5t-251.5 -183.5q26 -23 51 -65t47.5 -92.5t38.5 -100.5q32 -83 62.5 -160.5t58.5 -138t50 -92.5h-277q-10 17 -23 48.5t-27.5 72t-30 86t-30.5 91.5q-16 54 -35.5 108t-42.5 99.5
t-49 74t-56 30.5l-183 1l-81 -611h-246zM654 803q102 0 168 43.5t98 118.5t30 171q-1 99 -65.5 146.5t-191.5 47.5q-25 0 -60.5 -2t-68 -5.5t-50.5 -6.5l-69 -511q26 -1 78 -1.5t131 -0.5z" />
    <glyph glyph-name="S" unicode="S" horiz-adv-x="1021" 
d="M384 -16q-45 0 -100 8t-108.5 21t-96 29.5t-62.5 33.5l75 199q24 -24 76.5 -46t113.5 -36t110 -14q82 0 143 22.5t95 67.5t34 113q0 75 -49.5 143.5t-153.5 138.5q-87 61 -151.5 126t-100.5 141.5t-36 169.5q0 132 63 223t171.5 138.5t243.5 47.5q120 0 207.5 -25
t133.5 -59l-78 -190q-39 39 -114 61t-144 22q-67 0 -121.5 -18.5t-86.5 -58t-34 -101.5q-1 -52 29.5 -107.5t79.5 -106.5t105 -91q89 -63 154 -125.5t100.5 -133t35.5 -159.5q0 -147 -71 -243t-191.5 -143.5t-271.5 -47.5z" />
    <glyph glyph-name="T" unicode="T" horiz-adv-x="1106" 
d="M350 0l172 1312l-394 -11l30 193h1026l-26 -193l-388 11l-172 -1312h-248z" />
    <glyph glyph-name="U" unicode="U" horiz-adv-x="1357" 
d="M594 -16q-228 0 -345 116.5t-117 325.5q0 26 3.5 61t10.5 95l118 912h247l-116 -876q-5 -50 -9 -95t-4 -84q0 -134 62.5 -196.5t186.5 -62.5q103 0 172 51t110.5 150t61.5 244l114 869h242l-117 -892q-15 -111 -41.5 -201.5t-64.5 -157.5q-76 -136 -203 -197.5
t-311 -61.5z" />
    <glyph glyph-name="V" unicode="V" horiz-adv-x="1163" 
d="M354 0l-237 1494h245l145 -1034l21 -230l81 230l424 1034h261l-668 -1494h-272z" />
    <glyph glyph-name="W" unicode="W" horiz-adv-x="1742" 
d="M325 -6l-211 1500h246l110 -1030l27 -213l62 213l306 778l-27 252h238l93 -1030l17 -213l66 213l379 1030h251l-603 -1500h-268l-81 734l-14 167l-57 -167l-278 -734h-256z" />
    <glyph glyph-name="X" unicode="X" horiz-adv-x="1159" 
d="M-72 0l548 780l-313 714h269l206 -549l356 549h273l-527 -764l339 -730h-277l-225 576l-361 -576h-288z" />
    <glyph glyph-name="Y" unicode="Y" horiz-adv-x="1085" 
d="M351 0l76 576l-345 918h259l207 -619l29 -94l43 94l359 619h269l-582 -918l-77 -576h-238z" />
    <glyph glyph-name="Z" unicode="Z" horiz-adv-x="1130" 
d="M13 0l-27 86l760 1092l117 126l-639 -13l29 203h903l25 -84l-749 -1096l-109 -118l689 12l-32 -208h-967z" />
    <glyph glyph-name="bracketleft" unicode="[" horiz-adv-x="753" 
d="M265 -209q-91 0 -135 35.5t-44 117.5q0 27 2 54.5t5 53.5l196 1406q18 139 68 199t165 60q35 0 93 -9t111 -19.5t73 -17.5l-16 -114h-262l-215 -1603h262l-14 -114q-86 -24 -155.5 -36.5t-133.5 -12.5z" />
    <glyph glyph-name="backslash" unicode="\" horiz-adv-x="834" 
d="M581 -354l-562 1914h200l564 -1914h-202z" />
    <glyph glyph-name="bracketright" unicode="]" horiz-adv-x="753" 
d="M540 1717q91 0 135 -35.5t44 -117.5q0 -27 -2 -54t-5 -54l-196 -1406q-19 -139 -68.5 -199t-164.5 -60q-35 0 -93 9t-111 20t-74 17l17 114h261l215 1603h-262l15 114q86 25 155.5 37t133.5 12z" />
    <glyph glyph-name="asciicircum" unicode="^" horiz-adv-x="1332" 
d="M155 498l505 997h217l254 -997h-200l-184 748l-388 -748h-204z" />
    <glyph glyph-name="underscore" unicode="_" horiz-adv-x="1304" 
d="M-108 -347l20 165h1344l-18 -165h-1346z" />
    <glyph glyph-name="grave" unicode="`" horiz-adv-x="530" 
d="M407 1218q-35 14 -90 55t-112.5 93t-103 102t-62.5 81l168 155l297 -408z" />
    <glyph glyph-name="a" unicode="a" horiz-adv-x="1157" 
d="M387 -16q-158 0 -234.5 113.5t-76.5 306.5q0 150 45.5 280.5t130.5 230.5t203 156.5t265 56.5q52 0 114.5 -10.5t113.5 -25.5l135 36l-155 -1128h-218l15 204q-57 -92 -143.5 -156t-194.5 -64zM451 162q45 0 87 25.5t80.5 67t71 92.5t56.5 101l71 501q-56 19 -125 19
q-118 0 -200 -83t-122.5 -207.5t-40.5 -250.5q0 -69 11 -130t37.5 -98t73.5 -37z" />
    <glyph glyph-name="b" unicode="b" horiz-adv-x="1179" 
d="M444 -16q-53 0 -117 12t-114 27l-134 -33l215 1608h235l-64 -535l-31 -162q40 63 93.5 114.5t118 82t138.5 30.5q158 0 234.5 -114t76.5 -306q0 -174 -72 -339q-48 -111 -130 -198.5t-195 -137t-254 -49.5zM472 147q117 0 203 82q81 82 123 206.5t42 249.5
q0 116 -26.5 190t-94.5 74q-44 0 -88.5 -28t-86 -72.5t-75 -94.5t-56.5 -93l-66 -497q55 -17 125 -17z" />
    <glyph glyph-name="c" unicode="c" horiz-adv-x="901" 
d="M460 -16q-122 0 -207 54.5t-129 154t-44 234.5q0 174 70 338q69 162 201.5 262.5t308.5 100.5q40 0 82.5 -4.5t81 -12.5t63.5 -21l-61 -223q-23 20 -53 37t-64.5 27.5t-69.5 10.5q-38 0 -76.5 -17.5t-73.5 -50.5q-70 -64 -115 -174t-45 -241q0 -154 43.5 -223.5
t138.5 -69.5q62 0 125 33.5t123 94.5l71 -126q-28 -40 -88.5 -82.5t-135.5 -72t-146 -29.5z" />
    <glyph glyph-name="d" unicode="d" horiz-adv-x="1172" 
d="M386 -16q-158 0 -234.5 113.5t-76.5 306.5q0 173 73 342q48 111 129.5 197.5t194.5 135.5t253 49q27 0 57 -2t62 -8l66 480h240l-212 -1598h-220l16 216q-39 -64 -92 -116.5t-117.5 -84t-138.5 -31.5zM450 163q43 0 87 28t85 73t74.5 95.5t56.5 95.5l68 492
q-55 21 -124 21q-118 0 -201 -83t-125 -208t-42 -250q0 -74 11.5 -134t37.5 -95t72 -35z" />
    <glyph glyph-name="e" unicode="e" horiz-adv-x="1036" 
d="M478 -16q-136 0 -225 61q-90 62 -132 161.5t-41 218.5q1 193 81 358q77 161 212.5 253t305.5 92q96 0 160.5 -34.5t97.5 -91t33 -122.5q0 -106 -53.5 -188t-144 -141t-203.5 -96t-232 -54v-15v-16q3 -91 45.5 -148.5t138.5 -57.5q53 0 109.5 19.5t111.5 55t101 82.5
l65 -129q-26 -35 -74.5 -72t-110 -68t-125.5 -49.5t-120 -18.5zM339 550q64 2 132 27.5t127 68t95.5 97t36.5 115.5q0 59 -26.5 84.5t-79.5 25.5q-41 0 -76.5 -20.5t-69.5 -57.5q-62 -68 -96.5 -163t-42.5 -177z" />
    <glyph glyph-name="f" unicode="f" horiz-adv-x="702" 
d="M131 0l128 940h-130l32 174h122l15 95q10 69 30.5 128t50.5 108q57 92 146.5 142.5t208.5 50.5q46 0 85 -6t70 -19l-54 -183q-17 16 -47 27.5t-72 9.5q-68 0 -112 -55t-58 -149l-22 -149h198l-17 -174h-203l-128 -940h-243z" />
    <glyph glyph-name="g" unicode="g" horiz-adv-x="1168" 
d="M382 -497q-44 0 -98 5.5t-99.5 14.5t-65.5 18l49 192q27 -15 70.5 -30t93.5 -24.5t97 -9.5q112 0 169 59.5t79 177.5l53 301q-59 -93 -147.5 -158t-196.5 -65q-158 0 -234.5 113.5t-76.5 306.5q0 173 73 342q48 111 129.5 197.5t194.5 135.5t253 49q53 0 115 -10.5
t114 -25.5l137 36l-164 -1197q-11 -78 -37.5 -141t-68.5 -111q-83 -95 -198 -135.5t-241 -40.5zM450 163q42 0 84.5 25.5t82.5 67.5t74 92t59 100l70 503q-28 9 -58.5 13t-64.5 4q-118 0 -201 -83t-125 -208t-42 -250q0 -74 11.5 -134t37.5 -95t72 -35z" />
    <glyph glyph-name="h" unicode="h" horiz-adv-x="1209" 
d="M83 0l207 1598h242l-59 -496l-35 -209q81 106 190 170.5t224 64.5q117 0 176 -66.5t59 -219.5q0 -16 -4 -55.5t-11.5 -99.5t-17.5 -136.5t-22.5 -165.5t-27 -186t-30.5 -199h-246q10 73 18.5 133t16 113t15 102.5t14.5 99t15 102.5q14 99 21 163t7 101q0 63 -22 85.5
t-72 22.5q-47 0 -108.5 -35t-119.5 -87t-93 -103l-96 -697h-241z" />
    <glyph glyph-name="i" unicode="i" horiz-adv-x="597" 
d="M107 0l151 1114h246l-152 -1114h-245zM424 1322q-50 0 -90 38t-40 90q0 65 48.5 114t115.5 49q60 0 99 -35.5t39 -89.5q0 -68 -49.5 -117t-122.5 -49z" />
    <glyph glyph-name="j" unicode="j" horiz-adv-x="595" 
d="M-93 -507q-46 0 -83.5 9t-62.5 28l59 132q8 -5 24 -9t27 -4q61 0 102.5 35t69 94.5t44 134t27.5 153.5l143 1048h245l-151 -1112q-19 -142 -77 -257.5t-150.5 -183.5t-216.5 -68zM409 1287q-50 0 -90 38t-40 90q0 65 48.5 114t115.5 49q60 0 99 -35.5t39 -89.5
q0 -68 -49.5 -117t-122.5 -49z" />
    <glyph glyph-name="k" unicode="k" horiz-adv-x="1079" 
d="M83 0l207 1598h243l-209 -1598h-241zM751 2l-311 616q88 49 168.5 129.5t142.5 176t93 190.5h238q-7 -76 -42.5 -153t-91 -147t-122.5 -127t-135 -93l341 -592h-281z" />
    <glyph glyph-name="l" unicode="l" horiz-adv-x="598" 
d="M109 2l216 1596h245l-217 -1596h-244z" />
    <glyph glyph-name="m" unicode="m" horiz-adv-x="1794" 
d="M79 2l151 1112h235l-18 -205q78 99 179 159t207 60q101 0 159 -49t70 -161q78 96 177 153t202 57q118 0 175.5 -66.5t57.5 -219.5q0 -33 -9.5 -118t-29.5 -224q-15 -110 -32 -225.5t-41 -272.5h-245q6 50 13 97t14 96t14.5 103t16.5 116t20 136q13 95 20.5 160.5
t7.5 103.5q0 63 -22 85.5t-74 22.5q-57 0 -131.5 -50.5t-136.5 -131.5q-4 -31 -9.5 -77t-14.5 -103q-8 -59 -16 -116l-16 -114t-16.5 -112.5t-16 -109.5t-16.5 -106h-244q5 35 13.5 96t19.5 138t22.5 159t21.5 157q11 93 19 163.5t8 98.5q1 62 -21.5 85t-72.5 23
q-33 0 -73.5 -19.5t-83.5 -51.5t-80 -71.5t-63 -78.5l-96 -699h-245z" />
    <glyph glyph-name="n" unicode="n" horiz-adv-x="1208" 
d="M78 0l152 1114h234l-19 -213q82 103 188.5 165t219.5 62q117 0 176.5 -66.5t59.5 -219.5q0 -23 -5 -71.5t-14 -117t-21 -152.5q-3 -24 -8 -60t-11.5 -83t-15 -103.5t-18.5 -120.5t-21 -134h-246q7 45 17 116.5t24 167.5t31 216t25.5 196.5t9.5 117.5q0 63 -22 85.5
t-73 22.5q-35 0 -79.5 -20.5t-90 -54t-85.5 -74t-67 -79.5l-96 -694h-245z" />
    <glyph glyph-name="o" unicode="o" horiz-adv-x="1123" 
d="M468 -16q-130 0 -216.5 57.5t-129.5 162.5t-43 248q0 176 73 333q71 155 203.5 249t304.5 94q128 0 212.5 -56t126.5 -160.5t42 -248.5q0 -177 -70 -334q-70 -156 -200.5 -250.5t-302.5 -94.5zM504 151q75 0 129 47t89 124.5t51.5 168.5t16.5 179q0 94 -16.5 159.5
t-54 100t-97.5 34.5q-76 0 -131.5 -49t-91 -128t-53 -170.5t-17.5 -175.5q0 -142 43 -216t132 -74z" />
    <glyph glyph-name="p" unicode="p" horiz-adv-x="1180" 
d="M12 -493l216 1607h221l-10 -199q59 89 146.5 151t195.5 62q159 0 235 -112.5t76 -305.5q0 -175 -72 -340q-48 -112 -130 -199t-195 -137t-254 -50q-51 0 -119 12l-66 -489h-244zM469 147q118 0 203 83q82 82 124 207t42 250q0 111 -25.5 186.5t-96.5 75.5
q-42 0 -86.5 -27.5t-85.5 -71t-75 -93.5t-56 -93l-68 -501q29 -8 59.5 -12t64.5 -4z" />
    <glyph glyph-name="q" unicode="q" horiz-adv-x="1172" 
d="M630 -489l65 491l37 211q-38 -63 -91.5 -115t-117.5 -83t-137 -31q-158 0 -234.5 113.5t-76.5 306.5q0 150 46.5 280.5t132 230.5t205.5 156.5t266 56.5q51 0 112.5 -9.5t110.5 -24.5l140 38l-216 -1621h-242zM450 163q42 0 83.5 25t80.5 65.5t73.5 90t61.5 99.5l68 508
q-27 9 -57.5 13t-62.5 4q-90 0 -159 -48.5t-115.5 -128t-70 -175t-23.5 -189.5q0 -74 11.5 -134t37.5 -95t72 -35z" />
    <glyph glyph-name="r" unicode="r" horiz-adv-x="808" 
d="M78 0l152 1114h236l-19 -209q26 51 72.5 102.5t110.5 86t140 34.5q50 0 63 -12l-51 -255q-11 9 -36.5 13.5t-57.5 4.5q-57 0 -107 -29.5t-91.5 -77t-73.5 -101.5l-93 -671h-245z" />
    <glyph glyph-name="s" unicode="s" horiz-adv-x="887" 
d="M347 -16q-60 0 -122 8.5t-110 22.5t-69 30l44 204q33 -24 77 -43.5t92.5 -31.5t90.5 -12q77 0 125.5 28t48.5 91q0 36 -15.5 66t-53.5 64.5t-103 87.5q-83 68 -135.5 140t-52.5 178q0 104 54.5 173.5t145.5 103.5t199 34q54 0 104.5 -5.5t90.5 -14t59 -17.5l-38 -217
q-16 19 -50.5 37t-78.5 29.5t-89 11.5q-75 0 -121 -30.5t-46 -86.5q0 -42 19.5 -76.5t55 -66t80.5 -68.5q59 -44 106.5 -94.5t75 -107.5t27.5 -121q0 -111 -56 -181t-149.5 -103t-205.5 -33z" />
    <glyph glyph-name="t" unicode="t" horiz-adv-x="751" 
d="M325 -17q-89 0 -142 45.5t-53 141.5q0 12 1.5 35.5t4.5 54t7 64.5l78 616h-102l39 174h104l72 271h195l-37 -271h243l-22 -174h-244q-20 -156 -35 -268t-25.5 -188t-16 -122.5t-7.5 -71t-2 -35.5q0 -40 12 -65t46 -25q22 0 59 14t75 35.5t61 41.5l34 -127
q-32 -35 -90 -68.5t-126 -55.5t-129 -22z" />
    <glyph glyph-name="u" unicode="u" horiz-adv-x="1184" 
d="M366 -20q-127 0 -194.5 65.5t-67.5 210.5q0 36 6.5 103t18.5 160q12 87 26.5 190t29 207.5t27.5 197.5h245q-4 -27 -11.5 -82.5t-17.5 -126t-20 -144.5t-18.5 -138.5t-14.5 -105.5q-10 -81 -15 -137t-5 -87q0 -64 27 -90.5t83 -26.5q46 0 99 30.5t105 82.5t93 117l96 708
h245l-150 -1114h-223l16 204q-71 -98 -170 -161t-210 -63z" />
    <glyph glyph-name="v" unicode="v" horiz-adv-x="1028" 
d="M257 -18l-55 366l-105 766h257l64 -724l12 -201l79 104q87 123 145 253.5t88 274.5q8 37 16 92t13.5 110t5.5 91h227q2 -16 4 -57t0 -83q-7 -131 -46 -254t-109 -243t-167.5 -239.5t-222.5 -243.5z" />
    <glyph glyph-name="w" unicode="w" horiz-adv-x="1658" 
d="M264 -11l-57 359l-107 766h261l65 -724l12 -202l105 146q54 86 97.5 171.5t74.5 173.5t50 182l-33 253h252l60 -724l15 -202l104 142q54 87 94 165.5t67.5 161t45.5 181.5q11 69 15.5 146.5t3.5 129.5h231q1 -25 1.5 -60.5t-0.5 -67.5q-6 -163 -65 -318t-175 -319
t-295 -355l-199 -5l-52 329l-24 175q-38 -81 -84 -158.5t-108.5 -160t-151.5 -180.5z" />
    <glyph glyph-name="x" unicode="x" horiz-adv-x="964" 
d="M-69 2l424 579l-264 533h287l135 -370l240 370h256l-412 -563l284 -549h-284l-156 388l-253 -388h-257z" />
    <glyph glyph-name="y" unicode="y" horiz-adv-x="1056" 
d="M22 -495q-41 0 -91 13.5t-87 29.5l66 186q24 -15 59.5 -27.5t75.5 -12.5q80 0 144.5 38.5t121.5 104t111 145.5h-148l-61 366l-108 766h257l79 -731l37 -301q31 59 57 113.5t47 105.5q56 102 94 205.5t61.5 218.5t35.5 247q2 30 3.5 70.5t2.5 71.5h230q3 -21 2.5 -60
t-1.5 -77q-8 -164 -60 -344.5t-150 -374.5q-49 -101 -116.5 -210.5t-143.5 -211t-151 -179.5q-62 -63 -153 -107.5t-214 -44.5z" />
    <glyph glyph-name="z" unicode="z" horiz-adv-x="948" 
d="M17 0l-51 53l559 750l120 120h-490l27 191h739l42 -49l-565 -767l-108 -107h537l-19 -191h-791z" />
    <glyph glyph-name="braceleft" unicode="{" horiz-adv-x="829" 
d="M361 -214q-95 0 -140 36.5t-35 115.5l85 631q4 31 -29.5 56.5t-83.5 44.5t-94 31l23 147q62 15 116 33t88 40.5t38 52.5l67 498q21 144 86 196t153 52q28 0 68 -5t82 -13t77 -16.5t54 -13.5l-19 -116h-278l-79 -598q-7 -55 -38 -88t-81 -55t-116 -44q62 -28 106 -55
t65.5 -57t16.5 -67l-88 -638h270l-16 -111q-87 -28 -154 -42.5t-144 -14.5z" />
    <glyph glyph-name="bar" unicode="|" horiz-adv-x="834" 
d="M335 -182v1920h195v-1920h-195z" />
    <glyph glyph-name="braceright" unicode="}" horiz-adv-x="828" 
d="M505 1720q95 0 139.5 -35.5t33.5 -116.5l-84 -631q-4 -31 29.5 -56.5t83.5 -44.5t93 -31l-22 -146q-62 -15 -115.5 -33t-88 -40.5t-38.5 -52.5l-67 -498q-20 -144 -85.5 -196.5t-153.5 -52.5q-29 0 -68.5 6t-81.5 14t-77 16t-53 13l19 115h276l80 598q7 56 38 88.5
t81.5 54.5t116.5 45q-62 28 -106.5 54.5t-66 57t-16.5 67.5l88 637h-269l16 112q87 29 154 42.5t144 13.5z" />
    <glyph glyph-name="asciitilde" unicode="~" horiz-adv-x="1110" 
d="M749 687q-60 0 -107 26t-98 69q-47 39 -80 58t-71 19q-54 0 -101.5 -29t-86.5 -84l-95 95q18 53 67.5 100.5t115.5 77.5t131 30q60 0 106.5 -24.5t102.5 -69.5q48 -37 79.5 -55.5t66.5 -18.5q58 0 105.5 28t84.5 84l91 -95q-15 -56 -63.5 -104.5t-114 -77.5t-133.5 -29z
" />
    <glyph glyph-name="uni00A0" unicode="&#xa0;" horiz-adv-x="360" 
 />
    <glyph glyph-name="exclamdown" unicode="&#xa1;" horiz-adv-x="670" 
d="M65 -424l225 1260h187l-145 -1260h-267zM404 1038q-67 0 -99 33.5t-32 84.5q0 82 54 131t131 49q57 0 93 -33t36 -87q0 -71 -54 -124.5t-129 -53.5z" />
    <glyph glyph-name="cent" unicode="&#xa2;" horiz-adv-x="1039" 
d="M330 -230l42 231q-125 40 -189 151t-64 275q0 116 31 228t90 207t142.5 161t190.5 91l57 235h177l-54 -223q52 -3 97 -12t77 -24l-62 -223q-23 20 -53 37t-64 27.5t-70 10.5q-70 0 -127 -43t-98 -114t-63 -156.5t-22 -169.5q0 -154 43 -223.5t139 -69.5q61 0 124.5 33.5
t123.5 94.5l72 -126q-45 -61 -129 -115.5t-194 -64.5l-40 -218h-177z" />
    <glyph glyph-name="sterling" unicode="&#xa3;" horiz-adv-x="1395" 
d="M93 -20q-52 0 -78.5 25.5t-25.5 69.5q0 57 40.5 98t97 62t106.5 22q35 30 59 91.5t34 129.5l41 240h-170l22 161h177l18 109q23 153 91.5 270.5t180 183.5t261.5 66q97 0 177.5 -22.5t127.5 -70.5l-116 -174q-8 21 -38.5 44.5t-74 39.5t-89.5 16q-77 0 -133.5 -45
t-93 -126t-53.5 -189l-15 -102h300l-19 -161h-309q-11 -66 -19.5 -116t-16.5 -85q-20 -95 -45.5 -157.5t-69.5 -123.5q45 -29 106 -46.5t125 -25.5t121 -8q138 0 202.5 44.5t64.5 143.5q0 39 -26 77t-58 54l170 135q43 -29 76.5 -70.5t52 -90.5t18.5 -100
q0 -107 -45.5 -190.5t-146 -131t-264.5 -47.5q-99 0 -194.5 17t-184 43t-166.5 55q-40 -51 -101 -83t-117 -32z" />
    <glyph glyph-name="currency" unicode="&#xa4;" horiz-adv-x="1464" 
d="M319 117l-121 121l193 191q-36 54 -56 116.5t-20 128.5q0 67 19.5 128t54.5 113l-193 193l119 121l195 -195q109 68 235 68q67 0 128.5 -19t116.5 -57l191 191l119 -121l-191 -193q66 -104 66 -229q0 -65 -18.5 -124.5t-53.5 -112.5l195 -195l-121 -119l-195 195
q-53 -35 -112.5 -53.5t-124.5 -18.5q-62 0 -121 17t-110 49zM745 406q70 0 128 37t92.5 98t34.5 133q0 74 -34.5 135t-92.5 97t-128 36q-73 0 -131 -37t-92 -98.5t-34 -132.5q0 -74 35 -135t93.5 -97t128.5 -36z" />
    <glyph glyph-name="yen" unicode="&#xa5;" horiz-adv-x="1486" 
d="M550 0l42 350h-399l18 144h400l23 203h-397l17 145h329l-291 652h243l219 -544l35 -107l59 113l328 538h266l-474 -652h331l-17 -145h-408l-25 -203h405l-16 -144h-409l-42 -350h-237z" />
    <glyph glyph-name="brokenbar" unicode="&#xa6;" horiz-adv-x="834" 
d="M335 -182v867h195v-867h-195zM335 872v866h195v-866h-195z" />
    <glyph glyph-name="section" unicode="&#xa7;" horiz-adv-x="1347" 
d="M311 1296q14 96 64.5 160.5t123.5 104t156.5 56.5t161.5 17q138 0 224.5 -23t126.5 -49l-70 -198q-30 23 -101 49.5t-198 25.5q-58 0 -109.5 -13t-85.5 -42t-42 -77q-6 -51 24.5 -89.5t86 -71.5t123 -65.5t134 -70.5t119.5 -87t80 -114t15 -153q-16 -114 -93 -207
t-182 -160l-104 55q23 26 54.5 73t56.5 98.5t30 92.5q10 68 -20.5 116t-87 85t-126 69.5t-138.5 69t-124 83t-83.5 111t-15.5 154.5zM1045 155q-13 -96 -65.5 -161.5t-129 -105.5t-163.5 -58t-169 -18q-138 0 -245 29.5t-148 60.5l71 199q35 -28 123 -61t216 -33
q65 1 121.5 14t94 43.5t43.5 81.5q7 46 -25 80t-88 62t-124.5 56t-136 62.5t-121.5 80.5t-81.5 109t-15.5 151q16 106 90.5 196t176.5 151l112 -58q-23 -26 -53.5 -67.5t-55 -88t-30.5 -87.5q-9 -63 22.5 -107t89 -76t127.5 -60.5t139 -60.5t125 -75.5t84.5 -106
t15.5 -152.5z" />
    <glyph glyph-name="dieresis" unicode="&#xa8;" horiz-adv-x="793" 
d="M588 1339q-50 0 -87 38.5t-37 89.5q0 64 45.5 113t108.5 49q58 0 95 -36t37 -87q0 -68 -46 -117.5t-116 -49.5zM160 1339q-49 0 -86.5 39t-37.5 89q0 65 45.5 113.5t108.5 48.5q57 0 94.5 -36t37.5 -87q0 -68 -46 -117.5t-116 -49.5z" />
    <glyph glyph-name="copyright" unicode="&#xa9;" horiz-adv-x="2062" 
d="M181 940q0 179 65 334t181.5 272.5t271 183.5t332.5 66t332 -66t270.5 -183.5t182 -272.5t65.5 -334q0 -178 -65.5 -334t-182 -274.5t-270.5 -185t-332 -66.5t-332.5 66.5t-271 185t-181.5 274.5t-65 334zM319 940q0 -151 53 -284t149 -234.5t226 -158.5t284 -57
q153 0 282.5 57t225.5 158.5t149 234.5t53 284q0 152 -53 284.5t-149 234t-225.5 158.5t-282.5 57q-154 0 -284 -57t-226 -158.5t-149 -234t-53 -284.5zM597 932q0 138 55 247.5t163.5 173.5t265.5 64q90 0 151 -18.5t89 -32.5l-36 -180q-36 24 -92 40.5t-123 16.5
q-121 0 -190.5 -80t-70.5 -205q0 -162 73 -239.5t187 -77.5q77 0 136.5 20.5t94.5 39.5l45 -139q-48 -40 -132 -68.5t-182 -28.5q-134 0 -231.5 65t-149.5 171.5t-53 230.5z" />
    <glyph glyph-name="ordfeminine" unicode="&#xaa;" horiz-adv-x="871" 
d="M333 720q-117 0 -179.5 74.5t-62.5 207.5q0 132 70 258q69 124 188.5 202t266.5 78q44 0 93.5 -8t85.5 -21l117 27l-147 -818h-181l13 132q-53 -59 -118 -95.5t-146 -36.5zM417 859q38 0 84.5 30t96.5 84l79 428q-18 11 -38 18t-41 7q-92 0 -158 -63q-67 -65 -101.5 -159
t-34.5 -182q0 -82 25.5 -122.5t87.5 -40.5z" />
    <glyph glyph-name="guillemotleft" unicode="&#xab;" horiz-adv-x="1814" 
d="M750 141l-596 377l26 166l692 387l44 -143l-472 -332l389 -325zM1453 141l-596 377l26 166l692 387l44 -143l-472 -332l389 -325z" />
    <glyph glyph-name="logicalnot" unicode="&#xac;" horiz-adv-x="1338" 
d="M900 314l40 345h-737l19 175h938l-60 -520h-200z" />
    <glyph glyph-name="uni00AD" unicode="&#xad;" horiz-adv-x="1205" 
d="M211 622l24 185h802l-25 -185h-801z" />
    <glyph glyph-name="registered" unicode="&#xae;" horiz-adv-x="2062" 
d="M179 940q0 178 66 333.5t182 273t271 183.5t333 66t332.5 -66t271.5 -183.5t182.5 -273t65.5 -333.5t-65.5 -334t-182.5 -274.5t-271.5 -185t-332.5 -66.5t-333 66.5t-271 185t-182 274.5t-66 334zM318 940q0 -151 53.5 -284t150 -234.5t226.5 -158.5t283 -57t282.5 57
t226 158.5t150 234.5t53.5 284t-53.5 284t-150 233.5t-226 157.5t-282.5 57t-283 -57t-226.5 -157.5t-150 -233.5t-53.5 -284zM705 470v941h41.5h41.5q36 0 74.5 1t82 2.5t96.5 1.5q182 0 266.5 -78t84.5 -191q0 -106 -40.5 -187.5t-146.5 -113.5q41 -25 69.5 -66.5
t51 -89.5t46.5 -91q15 -27 32 -52.5t52 -75.5h-221q-20 24 -33 51t-29 60q-21 43 -43 93t-52 91t-76 56q-9 0 -27 -0.5t-38.5 -0.5h-38.5v-351h-193zM898 963q14 -2 36 -3.5t45 -1.5h39q89 0 133 39t44 125q0 72 -40.5 112.5t-154.5 38.5q-30 0 -53 -1t-49 -9v-300z" />
    <glyph glyph-name="macron" unicode="&#xaf;" horiz-adv-x="602" 
d="M54 1367l9 168h524l-9 -168h-524z" />
    <glyph glyph-name="degree" unicode="&#xb0;" horiz-adv-x="897" 
d="M485 919q-91 0 -165 44q-74 43 -116.5 116.5t-42.5 161.5q0 94 45 170t123 119.5t175 43.5q91 0 167 -42q75 -44 118 -117t43 -161q0 -96 -45 -171q-45 -76 -124 -120t-178 -44zM492 1060q80 0 130.5 55.5t50.5 135.5q0 75 -50 129t-123 54q-78 0 -129 -54.5t-51 -135.5
q0 -76 49.5 -130t122.5 -54z" />
    <glyph glyph-name="plusminus" unicode="&#xb1;" horiz-adv-x="1331" 
d="M523 273l28 247l24 151l-132 -8h-227l23 191h227l129 -12l12 153l28 241h205l-26 -241l-27 -151l107 10h255l-22 -191h-257l-104 8l-9 -151l-28 -247h-206zM165 20l16 166h862l-17 -166h-861z" />
    <glyph glyph-name="uni00B2" unicode="&#xb2;" horiz-adv-x="1033" 
d="M104 0l-33 101q102 68 207 151t193 171.5t141 174t53 157.5q0 59 -19 98.5t-60 59.5t-103 20q-72 0 -129 -25t-103 -55l-85 130q33 28 85 59.5t124.5 54.5t162.5 23q101 0 173 -27.5t118.5 -75t68 -107t21.5 -122.5q0 -105 -54 -198.5t-139 -173t-180 -144t-176 -112.5
l528 17l1 -177h-795z" />
    <glyph glyph-name="uni00B3" unicode="&#xb3;" horiz-adv-x="981" 
d="M275 -10q-48 0 -94 4t-89 8l21 172q38 -4 75.5 -7.5t69.5 -3.5q100 0 177 22t120.5 64t43.5 101q0 47 -36.5 87.5t-137.5 46.5l-130 -30l10 168q54 7 109.5 27t101.5 50t74 67t28 80q0 47 -36 72.5t-115 25.5q-37 0 -78.5 -10.5t-81 -28t-71.5 -41.5l-71 145
q26 24 82.5 50t132.5 44.5t158 18.5q84 0 158.5 -25.5t121.5 -76t47 -125.5t-37 -139t-101 -112t-146 -75q91 -1 155 -31t97.5 -80t33.5 -109q0 -84 -46.5 -150.5t-129 -113t-189.5 -71t-227 -24.5z" />
    <glyph glyph-name="acute" unicode="&#xb4;" horiz-adv-x="548" 
d="M142 1218l-93 78l308 408l168 -155q-17 -32 -64.5 -82t-108 -102.5t-117.5 -93t-93 -53.5z" />
    <glyph glyph-name="uni00B5" unicode="&#xb5;" horiz-adv-x="1332" 
d="M95 -364l170 1179q3 23 3.5 48.5t-5.5 43.5t-21 18q-24 0 -44.5 -13t-44.5 -37l-58 129q19 25 61.5 54t99 49t114.5 20q73 0 116.5 -45t39.5 -124q-1 -19 -7.5 -73.5t-16 -129.5t-20 -155t-20 -152.5t-14.5 -119.5q0 -79 37 -113t98 -34q48 0 93 24.5t81 63.5t58 83
l102 762h241q-28 -222 -48 -376t-33.5 -255t-20.5 -162t-10 -95q0 -28 10.5 -44.5t23.5 -16.5q26 0 54.5 18t58.5 53l66 -114q-25 -29 -64 -62t-90 -55.5t-114 -22.5q-69 0 -112 33t-52 105q-40 -45 -78.5 -76t-85.5 -46.5t-115 -15.5q-41 0 -91.5 20t-68.5 54l-63 -420
h-230z" />
    <glyph glyph-name="paragraph" unicode="&#xb6;" horiz-adv-x="1273" 
d="M364 0l100 723q-109 3 -187.5 49t-120.5 127t-42 189q0 142 63.5 241.5t190.5 152t316 52.5q59 0 131.5 -4.5t137.5 -9t102 -4.5h284l-16 -130l-163 -34l-174 -1352h-215l170 1350h-190l-171 -1350h-216z" />
    <glyph glyph-name="periodcentered" unicode="&#xb7;" horiz-adv-x="670" 
d="M312 606q-56 0 -92.5 34.5t-36.5 88.5q0 69 48.5 122t121.5 53q67 0 99 -34.5t32 -88.5q0 -80 -46.5 -127.5t-125.5 -47.5z" />
    <glyph glyph-name="cedilla" unicode="&#xb8;" 
d="M162 -456q-53 0 -107.5 10.5t-71.5 21.5l28 165q14 -6 39 -11t71 -5q54 0 98.5 36.5t45.5 125.5q1 58 -1 90.5t-6 52.5l61 4l67 -4q20 -30 35 -84t15 -123q0 -143 -75 -211t-199 -68z" />
    <glyph glyph-name="uni00B9" unicode="&#xb9;" horiz-adv-x="752" 
d="M196 0l127 864q-46 -13 -82 -17t-86 -12l-30 137q81 18 171 63t153 85h2l146 -18l-159 -1102h-242z" />
    <glyph glyph-name="ordmasculine" unicode="&#xba;" horiz-adv-x="835" 
d="M433 710q-97 0 -173.5 47t-120 128t-43.5 183q0 137 61.5 246.5t164.5 173.5t229 64q106 0 182 -47t116.5 -128t40.5 -184q0 -142 -59.5 -250.5t-163 -170.5t-234.5 -62zM445 847q85 0 135 47.5t71.5 124.5t21.5 166q0 112 -33.5 174.5t-102.5 62.5q-66 0 -116.5 -48
t-79.5 -124t-29 -160q0 -100 34 -171.5t99 -71.5z" />
    <glyph glyph-name="guillemotright" unicode="&#xbb;" horiz-adv-x="1825" 
d="M965 139l-45 142l472 331l-388 327l83 128l596 -375l-25 -167zM251 139l-44 142l472 331l-389 327l83 128l596 -375l-25 -167z" />
    <glyph glyph-name="onequarter" unicode="&#xbc;" horiz-adv-x="2146" 
d="M278 620l127 864q-46 -13 -82 -17t-86 -12l-30 137q81 18 171 63t153 85h2l146 -18l-159 -1102h-242zM1350 1896h191l-917 -1998h-192zM1612 0l28 223h-466l-54 115q52 77 108 170t114.5 195t114.5 208.5t109 208.5h217l62 -45l-410 -616l-65 -80l293 13l45 322l215 25
l-40 -341l171 10l-25 -185h-170l-27 -223h-220z" />
    <glyph glyph-name="onehalf" unicode="&#xbd;" horiz-adv-x="2142" 
d="M278 620l127 864q-46 -13 -82 -17t-86 -12l-30 137q81 18 171 63t153 85h2l146 -18l-159 -1102h-242zM1350 1896h191l-917 -1998h-192zM1214 0l-33 101q102 68 207 151t193 171.5t141 174t53 157.5q0 59 -19 98.5t-60 59.5t-103 20q-72 0 -129 -25t-103 -55l-85 130
q33 28 85 59.5t124.5 54.5t162.5 23q101 0 173 -27.5t118.5 -75t68 -107t21.5 -122.5q0 -105 -54 -198.5t-139 -173t-180 -144t-176 -112.5l528 17l1 -177h-795z" />
    <glyph glyph-name="threequarters" unicode="&#xbe;" horiz-adv-x="2396" 
d="M357 610q-48 0 -94 4t-89 8l21 172q38 -4 75.5 -7.5t69.5 -3.5q100 0 177 22t120.5 64t43.5 101q0 47 -36.5 87.5t-137.5 46.5l-130 -30l10 168q54 7 109.5 27t101.5 50t74 67t28 80q0 47 -36 72.5t-115 25.5q-37 0 -78.5 -10.5t-81 -28t-71.5 -41.5l-71 145
q26 24 82.5 50t132.5 44.5t158 18.5q84 0 158.5 -25.5t121.5 -76t47 -125.5t-37 -139t-101 -112t-146 -75q91 -1 155 -31t97.5 -80t33.5 -109q0 -84 -46.5 -150.5t-129 -113t-189.5 -71t-227 -24.5zM1599 1896h191l-917 -1998h-192zM1862 0l28 223h-466l-54 115
q52 77 108 170t114.5 195t114.5 208.5t109 208.5h217l62 -45l-410 -616l-65 -80l293 13l45 322l215 25l-40 -341l171 10l-25 -185h-170l-27 -223h-220z" />
    <glyph glyph-name="questiondown" unicode="&#xbf;" horiz-adv-x="891" 
d="M718 807q14 -29 24.5 -66.5t10.5 -100.5q0 -52 -27.5 -102.5t-80.5 -98t-130 -90.5q-69 -43 -120 -84.5t-84.5 -83.5t-50.5 -86.5t-17 -93.5q0 -75 42 -125.5t110.5 -76t148.5 -25.5q61 0 107.5 6.5t101.5 23.5l-40 -172q-22 -19 -81.5 -33.5t-125.5 -14.5
q-149 0 -261 41t-174.5 127t-62.5 224q0 145 83 259.5t243 201.5q42 24 81.5 50t70.5 55.5t50 63t20 72.5q2 34 -1.5 65.5t-8.5 62.5zM665 1337q55 0 91 -34.5t36 -90.5q0 -68 -47 -121t-122 -53q-68 0 -100 34.5t-32 88.5q0 79 47.5 127.5t126.5 48.5z" />
    <glyph glyph-name="Agrave" unicode="&#xc0;" horiz-adv-x="1262" 
d="M-90 0l726 1494h292l260 -1494h-247l-53 350h-556l-156 -350h-266zM410 527h452l-99 669l-10 114l-47 -113zM878 1636q-36 14 -91 54.5t-112.5 93.5t-103.5 102t-63 81l168 154l297 -407z" />
    <glyph glyph-name="Aacute" unicode="&#xc1;" horiz-adv-x="1262" 
d="M-90 0l726 1494h292l260 -1494h-247l-53 350h-556l-156 -350h-266zM410 527h452l-99 669l-10 114l-47 -113zM756 1636l-95 78l310 407l168 -148q-14 -26 -48 -64.5t-79 -81.5t-93 -82.5t-91 -69t-72 -39.5z" />
    <glyph glyph-name="Acircumflex" unicode="&#xc2;" horiz-adv-x="1262" 
d="M-90 0l726 1494h292l260 -1494h-247l-53 350h-556l-156 -350h-266zM410 527h452l-99 669l-10 114l-47 -113zM521 1624l-96 72l334 355h175l193 -355l-112 -67l-196 217z" />
    <glyph glyph-name="Atilde" unicode="&#xc3;" horiz-adv-x="1262" 
d="M-90 0l726 1494h292l260 -1494h-247l-53 350h-556l-156 -350h-266zM410 527h452l-99 669l-10 114l-47 -113zM943 1652q-56 0 -103 23.5t-81 58.5q-28 30 -50.5 45t-54.5 15q-37 0 -65 -20t-60 -69l-83 101q22 45 58 84t81 62.5t90 23.5q50 0 96 -23t82 -62q27 -29 48 -42
t45 -13q29 0 52.5 13.5t43.5 38t37 59.5l84 -106q-16 -49 -49 -92t-77.5 -70t-93.5 -27z" />
    <glyph glyph-name="Adieresis" unicode="&#xc4;" horiz-adv-x="1262" 
d="M-90 0l726 1494h292l260 -1494h-247l-53 350h-556l-156 -350h-266zM410 527h452l-99 669l-10 114l-47 -113zM567 1641q-49 0 -86.5 39t-37.5 89q0 72 45 117t109 45q57 0 94.5 -37.5t37.5 -89.5q0 -68 -42.5 -115.5t-119.5 -47.5zM1005 1641q-48 0 -86 39t-38 89
q0 72 45.5 117t109.5 45q57 0 94.5 -37.5t37.5 -89.5q0 -68 -42.5 -115.5t-120.5 -47.5z" />
    <glyph glyph-name="Aring" unicode="&#xc5;" horiz-adv-x="1262" 
d="M-90 0l726 1494h292l260 -1494h-247l-53 350h-556l-156 -350h-266zM410 527h452l-99 669l-10 114l-47 -113zM789 1633q-138 0 -214.5 65.5t-76.5 182.5q0 94 53 156q53 63 135 93t167 30q128 0 203.5 -65.5t75.5 -183.5q0 -92 -47 -152q-48 -63 -127 -94.5t-169 -31.5z
M799 1750q82 0 129 36t47 125q0 58 -39.5 95t-101.5 37q-74 0 -128 -37t-54 -121q0 -56 44.5 -95.5t102.5 -39.5z" />
    <glyph glyph-name="AE" unicode="&#xc6;" horiz-adv-x="1796" 
d="M-123 0l749 1348l-267 25l18 121h1376l-17 -193l-560 6l-60 -451l422 6l-21 -199l-424 13l-66 -489l661 13l-21 -200h-909l47 366h-467l-192 -366h-269zM436 547h394l100 767l-85 8z" />
    <glyph glyph-name="Ccedilla" unicode="&#xc7;" horiz-adv-x="1131" 
d="M601 -16q-183 0 -295 92t-161 237t-49 314q0 253 96 454q95 202 261 315.5t371 113.5q51 0 101 -6.5t104.5 -22t120.5 -41.5l-79 -214q-50 32 -106 54.5t-158 22.5q-162 0 -264 -101q-103 -102 -149.5 -254.5t-46.5 -310.5q0 -133 32 -235.5t100 -161t176 -58.5
q61 0 128 15.5t122 39t84 45.5l35 -190q-23 -18 -65 -37t-98 -35t-122 -26t-138 -10zM428 -456q-53 0 -107.5 10.5t-71.5 21.5l28 165q14 -6 39 -11t71 -5q54 0 98.5 36.5t45.5 125.5q1 58 -1 90.5t-6 52.5l61 4l67 -4q20 -30 35 -84t15 -123q0 -143 -75 -211t-199 -68z" />
    <glyph glyph-name="Egrave" unicode="&#xc8;" horiz-adv-x="1134" 
d="M95 0l197 1494h798l-17 -193l-561 6l-58 -451l422 6l-21 -199l-425 13l-65 -489l662 13l-22 -200h-910zM825 1634q-36 14 -91 54.5t-112.5 93.5t-103.5 102t-63 81l168 154l297 -407z" />
    <glyph glyph-name="Eacute" unicode="&#xc9;" horiz-adv-x="1134" 
d="M95 0l197 1494h798l-17 -193l-561 6l-58 -451l422 6l-21 -199l-425 13l-65 -489l662 13l-22 -200h-910zM703 1634l-95 78l310 407l168 -148q-14 -26 -48 -64.5t-79 -81.5t-93 -82.5t-91 -69t-72 -39.5z" />
    <glyph glyph-name="Ecircumflex" unicode="&#xca;" horiz-adv-x="1134" 
d="M95 0l197 1494h798l-17 -193l-561 6l-58 -451l422 6l-21 -199l-425 13l-65 -489l662 13l-22 -200h-910zM468 1622l-96 72l334 355h175l193 -355l-112 -67l-196 217z" />
    <glyph glyph-name="Edieresis" unicode="&#xcb;" horiz-adv-x="1134" 
d="M95 0l197 1494h798l-17 -193l-561 6l-58 -451l422 6l-21 -199l-425 13l-65 -489l662 13l-22 -200h-910zM514 1639q-49 0 -86.5 39t-37.5 89q0 72 45 117t109 45q57 0 94.5 -37.5t37.5 -89.5q0 -68 -42.5 -115.5t-119.5 -47.5zM952 1639q-48 0 -86 39t-38 89
q0 72 45.5 117t109.5 45q57 0 94.5 -37.5t37.5 -89.5q0 -68 -42.5 -115.5t-120.5 -47.5z" />
    <glyph glyph-name="Igrave" unicode="&#xcc;" horiz-adv-x="609" 
d="M114 0l198 1494h246l-197 -1494h-247zM548 1634q-36 14 -91 54.5t-112.5 93.5t-103.5 102t-63 81l168 154l297 -407z" />
    <glyph glyph-name="Iacute" unicode="&#xcd;" horiz-adv-x="609" 
d="M114 0l198 1494h246l-197 -1494h-247zM426 1634l-95 78l310 407l168 -148q-14 -26 -48 -64.5t-79 -81.5t-93 -82.5t-91 -69t-72 -39.5z" />
    <glyph glyph-name="Icircumflex" unicode="&#xce;" horiz-adv-x="609" 
d="M114 0l198 1494h246l-197 -1494h-247zM191 1622l-96 72l334 355h175l193 -355l-112 -67l-196 217z" />
    <glyph glyph-name="Idieresis" unicode="&#xcf;" horiz-adv-x="609" 
d="M114 0l198 1494h246l-197 -1494h-247zM237 1639q-49 0 -86.5 39t-37.5 89q0 72 45 117t109 45q57 0 94.5 -37.5t37.5 -89.5q0 -68 -42.5 -115.5t-119.5 -47.5zM675 1639q-48 0 -86 39t-38 89q0 72 45.5 117t109.5 45q57 0 94.5 -37.5t37.5 -89.5q0 -68 -42.5 -115.5
t-120.5 -47.5z" />
    <glyph glyph-name="Eth" unicode="&#xd0;" horiz-adv-x="1360" 
d="M801 857l-19 -168h-745l17 168h747zM529 -16q-60 2 -111.5 5.5t-102 7t-107.5 3.5h-113l197 1494h116q15 0 47 1.5t72.5 4t82.5 5t77.5 4t54.5 1.5q294 0 430 -164.5t136 -458.5q0 -190 -54.5 -355t-156.5 -289t-245.5 -192.5t-322.5 -66.5zM569 168q160 3 269 105
q110 101 162.5 263t52.5 347q0 169 -37 267q-39 96 -119.5 137.5t-216.5 41.5q-37 0 -87.5 -5.5t-79.5 -11.5l-146 -1118q39 -14 93.5 -20.5t108.5 -5.5z" />
    <glyph glyph-name="Ntilde" unicode="&#xd1;" horiz-adv-x="1401" 
d="M95 0l197 1494h236l400 -946l67 -221l17 247l111 920h235l-196 -1494h-224l-408 969l-67 241l-17 -283l-120 -927h-231zM1002 1652q-56 0 -103 23.5t-81 58.5q-28 30 -50.5 45t-54.5 15q-37 0 -65 -20t-60 -69l-83 101q22 45 58 84t81 62.5t90 23.5q50 0 96 -23t82 -62
q27 -29 48 -42t45 -13q29 0 52.5 13.5t43.5 38t37 59.5l84 -106q-16 -49 -49 -92t-77.5 -70t-93.5 -27z" />
    <glyph glyph-name="Ograve" unicode="&#xd2;" horiz-adv-x="1351" 
d="M599 -16q-165 0 -276.5 83t-168 222.5t-56.5 310.5q0 182 49 346t141.5 291.5t223 200t293.5 72.5q125 0 218 -48.5t155 -133.5t93 -197t31 -238q0 -183 -48 -347.5t-139 -291t-221.5 -198.5t-294.5 -72zM628 170q103 0 182 63.5t132 168t80 229t26 247.5q-2 151 -32 249
t-91 145.5t-153 47.5q-102 0 -180.5 -63.5t-132 -168t-80.5 -228t-27 -244.5q4 -231 73.5 -338.5t202.5 -107.5zM926 1636q-36 14 -91 54.5t-112.5 93.5t-103.5 102t-63 81l168 154l297 -407z" />
    <glyph glyph-name="Oacute" unicode="&#xd3;" horiz-adv-x="1351" 
d="M599 -16q-165 0 -276.5 83t-168 222.5t-56.5 310.5q0 182 49 346t141.5 291.5t223 200t293.5 72.5q125 0 218 -48.5t155 -133.5t93 -197t31 -238q0 -183 -48 -347.5t-139 -291t-221.5 -198.5t-294.5 -72zM628 170q103 0 182 63.5t132 168t80 229t26 247.5q-2 151 -32 249
t-91 145.5t-153 47.5q-102 0 -180.5 -63.5t-132 -168t-80.5 -228t-27 -244.5q4 -231 73.5 -338.5t202.5 -107.5zM804 1636l-95 78l310 407l168 -148q-14 -26 -48 -64.5t-79 -81.5t-93 -82.5t-91 -69t-72 -39.5z" />
    <glyph glyph-name="Ocircumflex" unicode="&#xd4;" horiz-adv-x="1351" 
d="M599 -16q-165 0 -276.5 83t-168 222.5t-56.5 310.5q0 182 49 346t141.5 291.5t223 200t293.5 72.5q125 0 218 -48.5t155 -133.5t93 -197t31 -238q0 -183 -48 -347.5t-139 -291t-221.5 -198.5t-294.5 -72zM628 170q103 0 182 63.5t132 168t80 229t26 247.5q-2 151 -32 249
t-91 145.5t-153 47.5q-102 0 -180.5 -63.5t-132 -168t-80.5 -228t-27 -244.5q4 -231 73.5 -338.5t202.5 -107.5zM569 1624l-96 72l334 355h175l193 -355l-112 -67l-196 217z" />
    <glyph glyph-name="Otilde" unicode="&#xd5;" horiz-adv-x="1351" 
d="M599 -16q-165 0 -276.5 83t-168 222.5t-56.5 310.5q0 182 49 346t141.5 291.5t223 200t293.5 72.5q125 0 218 -48.5t155 -133.5t93 -197t31 -238q0 -183 -48 -347.5t-139 -291t-221.5 -198.5t-294.5 -72zM628 170q103 0 182 63.5t132 168t80 229t26 247.5q-2 151 -32 249
t-91 145.5t-153 47.5q-102 0 -180.5 -63.5t-132 -168t-80.5 -228t-27 -244.5q4 -231 73.5 -338.5t202.5 -107.5zM991 1652q-56 0 -103 23.5t-81 58.5q-28 30 -50.5 45t-54.5 15q-37 0 -65 -20t-60 -69l-83 101q22 45 58 84t81 62.5t90 23.5q50 0 96 -23t82 -62
q27 -29 48 -42t45 -13q29 0 52.5 13.5t43.5 38t37 59.5l84 -106q-16 -49 -49 -92t-77.5 -70t-93.5 -27z" />
    <glyph glyph-name="Odieresis" unicode="&#xd6;" horiz-adv-x="1351" 
d="M599 -16q-165 0 -276.5 83t-168 222.5t-56.5 310.5q0 182 49 346t141.5 291.5t223 200t293.5 72.5q125 0 218 -48.5t155 -133.5t93 -197t31 -238q0 -183 -48 -347.5t-139 -291t-221.5 -198.5t-294.5 -72zM628 170q103 0 182 63.5t132 168t80 229t26 247.5q-2 151 -32 249
t-91 145.5t-153 47.5q-102 0 -180.5 -63.5t-132 -168t-80.5 -228t-27 -244.5q4 -231 73.5 -338.5t202.5 -107.5zM615 1641q-49 0 -86.5 39t-37.5 89q0 72 45 117t109 45q57 0 94.5 -37.5t37.5 -89.5q0 -68 -42.5 -115.5t-119.5 -47.5zM1053 1641q-48 0 -86 39t-38 89
q0 72 45.5 117t109.5 45q57 0 94.5 -37.5t37.5 -89.5q0 -68 -42.5 -115.5t-120.5 -47.5z" />
    <glyph glyph-name="multiply" unicode="&#xd7;" horiz-adv-x="1348" 
d="M332 289l-145 182l354 307l-306 328l182 162l292 -354l372 359l145 -182l-386 -335l308 -321l-182 -160l-294 346z" />
    <glyph glyph-name="Oslash" unicode="&#xd8;" horiz-adv-x="1351" 
d="M171 -128l-87 46l150 228q-70 83 -106.5 201t-36.5 255q0 253 90 460t251 327.5t365 120.5q156 0 269 -78l125 198l87 -46l-138 -218q77 -84 115.5 -206t38.5 -267q0 -250 -87 -459q-88 -207 -247.5 -328t-368.5 -121q-83 0 -154.5 23t-131.5 70zM621 172q123 0 220 98
q94 98 146.5 258t52.5 339q0 189 -44 296l-562 -909q64 -82 187 -82zM381 354l558 903q-65 63 -175 63q-120 0 -217 -100q-95 -98 -148 -258t-53 -333q0 -168 35 -275z" />
    <glyph glyph-name="Ugrave" unicode="&#xd9;" horiz-adv-x="1357" 
d="M594 -16q-228 0 -345 116.5t-117 325.5q0 26 3.5 61t10.5 95l118 912h247l-116 -876q-5 -50 -9 -95t-4 -84q0 -134 62.5 -196.5t186.5 -62.5q103 0 172 51t110.5 150t61.5 244l114 869h242l-117 -892q-15 -111 -41.5 -201.5t-64.5 -157.5q-76 -136 -203 -197.5
t-311 -61.5zM907 1636q-36 14 -91 54.5t-112.5 93.5t-103.5 102t-63 81l168 154l297 -407z" />
    <glyph glyph-name="Uacute" unicode="&#xda;" horiz-adv-x="1357" 
d="M594 -16q-228 0 -345 116.5t-117 325.5q0 26 3.5 61t10.5 95l118 912h247l-116 -876q-5 -50 -9 -95t-4 -84q0 -134 62.5 -196.5t186.5 -62.5q103 0 172 51t110.5 150t61.5 244l114 869h242l-117 -892q-15 -111 -41.5 -201.5t-64.5 -157.5q-76 -136 -203 -197.5
t-311 -61.5zM785 1636l-95 78l310 407l168 -148q-14 -26 -48 -64.5t-79 -81.5t-93 -82.5t-91 -69t-72 -39.5z" />
    <glyph glyph-name="Ucircumflex" unicode="&#xdb;" horiz-adv-x="1357" 
d="M594 -16q-228 0 -345 116.5t-117 325.5q0 26 3.5 61t10.5 95l118 912h247l-116 -876q-5 -50 -9 -95t-4 -84q0 -134 62.5 -196.5t186.5 -62.5q103 0 172 51t110.5 150t61.5 244l114 869h242l-117 -892q-15 -111 -41.5 -201.5t-64.5 -157.5q-76 -136 -203 -197.5
t-311 -61.5zM550 1624l-96 72l334 355h175l193 -355l-112 -67l-196 217z" />
    <glyph glyph-name="Udieresis" unicode="&#xdc;" horiz-adv-x="1357" 
d="M594 -16q-228 0 -345 116.5t-117 325.5q0 26 3.5 61t10.5 95l118 912h247l-116 -876q-5 -50 -9 -95t-4 -84q0 -134 62.5 -196.5t186.5 -62.5q103 0 172 51t110.5 150t61.5 244l114 869h242l-117 -892q-15 -111 -41.5 -201.5t-64.5 -157.5q-76 -136 -203 -197.5
t-311 -61.5zM596 1641q-49 0 -86.5 39t-37.5 89q0 72 45 117t109 45q57 0 94.5 -37.5t37.5 -89.5q0 -68 -42.5 -115.5t-119.5 -47.5zM1034 1641q-48 0 -86 39t-38 89q0 72 45.5 117t109.5 45q57 0 94.5 -37.5t37.5 -89.5q0 -68 -42.5 -115.5t-120.5 -47.5z" />
    <glyph glyph-name="Yacute" unicode="&#xdd;" horiz-adv-x="1085" 
d="M351 0l76 576l-345 918h259l207 -619l29 -94l43 94l359 619h269l-582 -918l-77 -576h-238zM658 1636l-95 78l310 407l168 -148q-14 -26 -48 -64.5t-79 -81.5t-93 -82.5t-91 -69t-72 -39.5z" />
    <glyph glyph-name="Thorn" unicode="&#xde;" horiz-adv-x="1214" 
d="M96 0l196 1494h248l-33 -241q22 2 57 4.5t70.5 4t54.5 1.5q230 0 351 -100.5t121 -300.5q1 -177 -74 -313q-76 -136 -216 -212.5t-323 -76.5q-48 0 -92.5 3.5t-76.5 6.5l-35 -270h-248zM548 449q186 0 275 103t93 302q3 115 -63 173.5t-207 58.5q-19 0 -34.5 -0.5
t-28.5 -2t-27 -3t-31.5 -4t-39.5 -5.5l-81 -609q24 -6 66 -10t78 -3z" />
    <glyph glyph-name="germandbls" unicode="&#xdf;" horiz-adv-x="1203" 
d="M708 -16q-72 0 -143.5 14t-108.5 32l25 208q28 -27 83 -51.5t109 -24.5q99 0 148.5 32.5t49.5 114.5q0 35 -13.5 70.5t-34.5 69.5t-44 65q-53 72 -89 138t-36 121q0 65 27.5 112t80.5 103q65 64 97.5 124t32.5 134q0 60 -40.5 100t-113.5 40q-80 0 -135 -44.5t-91 -121.5
t-57.5 -173t-34.5 -199l-109 -846h-240l116 906q27 208 96 351.5t193 217t314 73.5q102 0 179 -33t120 -97.5t43 -158.5q0 -108 -43.5 -178t-106.5 -131q-47 -46 -68.5 -77.5t-21.5 -71.5q0 -29 22 -65.5t61 -89.5q67 -89 104 -165t37 -171q0 -108 -53.5 -181t-145.5 -110
t-209 -37z" />
    <glyph glyph-name="agrave" unicode="&#xe0;" horiz-adv-x="1157" 
d="M387 -16q-158 0 -234.5 113.5t-76.5 306.5q0 150 45.5 280.5t130.5 230.5t203 156.5t265 56.5q52 0 114.5 -10.5t113.5 -25.5l135 36l-155 -1128h-218l15 204q-57 -92 -143.5 -156t-194.5 -64zM451 162q45 0 87 25.5t80.5 67t71 92.5t56.5 101l71 501q-56 19 -125 19
q-118 0 -200 -83t-122.5 -207.5t-40.5 -250.5q0 -69 11 -130t37.5 -98t73.5 -37zM819 1290q-36 14 -91 54.5t-113 93.5t-103.5 102t-62.5 81l160 155l298 -408z" />
    <glyph glyph-name="aacute" unicode="&#xe1;" horiz-adv-x="1157" 
d="M387 -16q-158 0 -234.5 113.5t-76.5 306.5q0 150 45.5 280.5t130.5 230.5t203 156.5t265 56.5q52 0 114.5 -10.5t113.5 -25.5l135 36l-155 -1128h-218l15 204q-57 -92 -143.5 -156t-194.5 -64zM451 162q45 0 87 25.5t80.5 67t71 92.5t56.5 101l71 501q-56 19 -125 19
q-118 0 -200 -83t-122.5 -207.5t-40.5 -250.5q0 -69 11 -130t37.5 -98t73.5 -37zM675 1290l-85 78l309 408l159 -149q-14 -26 -47.5 -64.5t-79 -81.5t-93.5 -82.5t-91 -69t-72 -39.5z" />
    <glyph glyph-name="acircumflex" unicode="&#xe2;" horiz-adv-x="1157" 
d="M387 -16q-158 0 -234.5 113.5t-76.5 306.5q0 150 45.5 280.5t130.5 230.5t203 156.5t265 56.5q52 0 114.5 -10.5t113.5 -25.5l135 36l-155 -1128h-218l15 204q-57 -92 -143.5 -156t-194.5 -64zM451 162q45 0 87 25.5t80.5 67t71 92.5t56.5 101l71 501q-56 19 -125 19
q-118 0 -200 -83t-122.5 -207.5t-40.5 -250.5q0 -69 11 -130t37.5 -98t73.5 -37zM480 1238l-96 73l334 351h175l193 -351l-111 -68l-197 232z" />
    <glyph glyph-name="atilde" unicode="&#xe3;" horiz-adv-x="1157" 
d="M387 -16q-158 0 -234.5 113.5t-76.5 306.5q0 150 45.5 280.5t130.5 230.5t203 156.5t265 56.5q52 0 114.5 -10.5t113.5 -25.5l135 36l-155 -1128h-218l15 204q-57 -92 -143.5 -156t-194.5 -64zM451 162q45 0 87 25.5t80.5 67t71 92.5t56.5 101l71 501q-56 19 -125 19
q-118 0 -200 -83t-122.5 -207.5t-40.5 -250.5q0 -69 11 -130t37.5 -98t73.5 -37zM881 1241q-57 0 -104 23.5t-81 57.5q-28 31 -50.5 46t-54.5 15q-37 0 -65 -20t-60 -69l-83 101q33 68 97.5 119.5t131.5 51.5q50 0 96 -24t82 -62q27 -29 48 -42t46 -13q28 0 51.5 13t43.5 38
t37 59l86 -106q-16 -48 -49.5 -91.5t-78 -70t-93.5 -26.5z" />
    <glyph glyph-name="adieresis" unicode="&#xe4;" horiz-adv-x="1157" 
d="M387 -16q-158 0 -234.5 113.5t-76.5 306.5q0 150 45.5 280.5t130.5 230.5t203 156.5t265 56.5q52 0 114.5 -10.5t113.5 -25.5l135 36l-155 -1128h-218l15 204q-57 -92 -143.5 -156t-194.5 -64zM451 162q45 0 87 25.5t80.5 67t71 92.5t56.5 101l71 501q-56 19 -125 19
q-118 0 -200 -83t-122.5 -207.5t-40.5 -250.5q0 -69 11 -130t37.5 -98t73.5 -37zM510 1306q-45 0 -80.5 37t-35.5 83q0 68 43 110.5t103 42.5q54 0 89 -35t35 -84q0 -65 -40 -109.5t-114 -44.5zM948 1306q-44 0 -80 36.5t-36 83.5q0 68 43 110.5t103 42.5q55 0 90 -35
t35 -84q0 -65 -40.5 -109.5t-114.5 -44.5z" />
    <glyph glyph-name="aring" unicode="&#xe5;" horiz-adv-x="1157" 
d="M387 -16q-158 0 -234.5 113.5t-76.5 306.5q0 150 45.5 280.5t130.5 230.5t203 156.5t265 56.5q52 0 114.5 -10.5t113.5 -25.5l135 36l-155 -1128h-218l15 204q-57 -92 -143.5 -156t-194.5 -64zM451 162q45 0 87 25.5t80.5 67t71 92.5t56.5 101l71 501q-56 19 -125 19
q-118 0 -200 -83t-122.5 -207.5t-40.5 -250.5q0 -69 11 -130t37.5 -98t73.5 -37zM732 1224q-137 0 -214 64.5t-77 182.5q0 94 53 156q53 64 135.5 93.5t167.5 29.5q128 0 203.5 -65t75.5 -184q0 -92 -47 -152q-48 -63 -127 -94t-170 -31zM743 1341q82 0 129 36t47 125
q0 58 -40 95t-101 37q-74 0 -128 -37.5t-54 -121.5q0 -56 44 -95t103 -39z" />
    <glyph glyph-name="ae" unicode="&#xe6;" horiz-adv-x="1636" 
d="M369 -16q-147 0 -221 109t-74 311q0 152 48 283t136 230t208.5 155t265.5 56q75 0 138 -14t134 -57q124 71 274 71q100 0 165 -34t97.5 -90t32.5 -124q0 -107 -54 -189.5t-144.5 -141t-204 -95t-232.5 -53.5q-5 -73 14 -126.5t61.5 -82t107.5 -28.5q52 0 109 19.5t112 55
t100 82.5l67 -129q-26 -36 -75.5 -72.5t-111 -67t-125.5 -49.5t-120 -19q-152 0 -246.5 77t-130.5 203q-57 -119 -139.5 -199.5t-191.5 -80.5zM440 170q31 0 62.5 21t63 59.5t60.5 89.5t56 111q3 75 15.5 142t34 127.5t52 113t69.5 97.5q-73 37 -149 37q-94 0 -165.5 -48
t-119 -128.5t-71.5 -176t-24 -192.5q0 -66 9 -124.5t34.5 -93.5t72.5 -35zM939 550q67 4 136.5 29.5t127.5 67.5t94 96t36 115q0 59 -27.5 84.5t-79.5 25.5q-41 0 -78 -19t-68 -54q-61 -68 -97 -165t-44 -180z" />
    <glyph glyph-name="ccedilla" unicode="&#xe7;" horiz-adv-x="901" 
d="M460 -16q-122 0 -207 54.5t-129 154t-44 234.5q0 174 70 338q69 162 201.5 262.5t308.5 100.5q40 0 82.5 -4.5t81 -12.5t63.5 -21l-61 -223q-23 20 -53 37t-64.5 27.5t-69.5 10.5q-38 0 -76.5 -17.5t-73.5 -50.5q-70 -64 -115 -174t-45 -241q0 -154 43.5 -223.5
t138.5 -69.5q62 0 125 33.5t123 94.5l71 -126q-28 -40 -88.5 -82.5t-135.5 -72t-146 -29.5zM312 -456q-53 0 -107.5 10.5t-71.5 21.5l28 165q14 -6 39 -11t71 -5q54 0 98.5 36.5t45.5 125.5q1 58 -1 90.5t-6 52.5l61 4l67 -4q20 -30 35 -84t15 -123q0 -143 -75 -211
t-199 -68z" />
    <glyph glyph-name="egrave" unicode="&#xe8;" horiz-adv-x="1036" 
d="M478 -16q-136 0 -225 61q-90 62 -132 161.5t-41 218.5q1 193 81 358q77 161 212.5 253t305.5 92q96 0 160.5 -34.5t97.5 -91t33 -122.5q0 -106 -53.5 -188t-144 -141t-203.5 -96t-232 -54v-15v-16q3 -91 45.5 -148.5t138.5 -57.5q53 0 109.5 19.5t111.5 55t101 82.5
l65 -129q-26 -35 -74.5 -72t-110 -68t-125.5 -49.5t-120 -18.5zM339 550q64 2 132 27.5t127 68t95.5 97t36.5 115.5q0 59 -26.5 84.5t-79.5 25.5q-41 0 -76.5 -20.5t-69.5 -57.5q-62 -68 -96.5 -163t-42.5 -177zM782 1290q-36 14 -91 54.5t-113 93.5t-103.5 102t-62.5 81
l160 155l298 -408z" />
    <glyph glyph-name="eacute" unicode="&#xe9;" horiz-adv-x="1036" 
d="M478 -16q-136 0 -225 61q-90 62 -132 161.5t-41 218.5q1 193 81 358q77 161 212.5 253t305.5 92q96 0 160.5 -34.5t97.5 -91t33 -122.5q0 -106 -53.5 -188t-144 -141t-203.5 -96t-232 -54v-15v-16q3 -91 45.5 -148.5t138.5 -57.5q53 0 109.5 19.5t111.5 55t101 82.5
l65 -129q-26 -35 -74.5 -72t-110 -68t-125.5 -49.5t-120 -18.5zM339 550q64 2 132 27.5t127 68t95.5 97t36.5 115.5q0 59 -26.5 84.5t-79.5 25.5q-41 0 -76.5 -20.5t-69.5 -57.5q-62 -68 -96.5 -163t-42.5 -177zM638 1290l-85 78l309 408l159 -149q-14 -26 -47.5 -64.5
t-79 -81.5t-93.5 -82.5t-91 -69t-72 -39.5z" />
    <glyph glyph-name="ecircumflex" unicode="&#xea;" horiz-adv-x="1036" 
d="M478 -16q-136 0 -225 61q-90 62 -132 161.5t-41 218.5q1 193 81 358q77 161 212.5 253t305.5 92q96 0 160.5 -34.5t97.5 -91t33 -122.5q0 -106 -53.5 -188t-144 -141t-203.5 -96t-232 -54v-15v-16q3 -91 45.5 -148.5t138.5 -57.5q53 0 109.5 19.5t111.5 55t101 82.5
l65 -129q-26 -35 -74.5 -72t-110 -68t-125.5 -49.5t-120 -18.5zM339 550q64 2 132 27.5t127 68t95.5 97t36.5 115.5q0 59 -26.5 84.5t-79.5 25.5q-41 0 -76.5 -20.5t-69.5 -57.5q-62 -68 -96.5 -163t-42.5 -177zM443 1238l-96 73l334 351h175l193 -351l-111 -68l-197 232z
" />
    <glyph glyph-name="edieresis" unicode="&#xeb;" horiz-adv-x="1036" 
d="M478 -16q-136 0 -225 61q-90 62 -132 161.5t-41 218.5q1 193 81 358q77 161 212.5 253t305.5 92q96 0 160.5 -34.5t97.5 -91t33 -122.5q0 -106 -53.5 -188t-144 -141t-203.5 -96t-232 -54v-15v-16q3 -91 45.5 -148.5t138.5 -57.5q53 0 109.5 19.5t111.5 55t101 82.5
l65 -129q-26 -35 -74.5 -72t-110 -68t-125.5 -49.5t-120 -18.5zM339 550q64 2 132 27.5t127 68t95.5 97t36.5 115.5q0 59 -26.5 84.5t-79.5 25.5q-41 0 -76.5 -20.5t-69.5 -57.5q-62 -68 -96.5 -163t-42.5 -177zM473 1306q-45 0 -80.5 37t-35.5 83q0 68 43 110.5t103 42.5
q54 0 89 -35t35 -84q0 -65 -40 -109.5t-114 -44.5zM911 1306q-44 0 -80 36.5t-36 83.5q0 68 43 110.5t103 42.5q55 0 90 -35t35 -84q0 -65 -40.5 -109.5t-114.5 -44.5z" />
    <glyph glyph-name="igrave" unicode="&#xec;" horiz-adv-x="597" 
d="M107 0l151 1114h246l-152 -1114h-245zM483 1290q-36 14 -91 54.5t-113 93.5t-103.5 102t-62.5 81l160 155l298 -408z" />
    <glyph glyph-name="iacute" unicode="&#xed;" horiz-adv-x="597" 
d="M107 0l151 1114h246l-152 -1114h-245zM339 1290l-85 78l309 408l159 -149q-14 -26 -47.5 -64.5t-79 -81.5t-93.5 -82.5t-91 -69t-72 -39.5z" />
    <glyph glyph-name="icircumflex" unicode="&#xee;" horiz-adv-x="597" 
d="M107 0l151 1114h246l-152 -1114h-245zM144 1238l-96 73l334 351h175l193 -351l-111 -68l-197 232z" />
    <glyph glyph-name="idieresis" unicode="&#xef;" horiz-adv-x="597" 
d="M107 0l151 1114h246l-152 -1114h-245zM174 1306q-45 0 -80.5 37t-35.5 83q0 68 43 110.5t103 42.5q54 0 89 -35t35 -84q0 -65 -40 -109.5t-114 -44.5zM612 1306q-44 0 -80 36.5t-36 83.5q0 68 43 110.5t103 42.5q55 0 90 -35t35 -84q0 -65 -40.5 -109.5t-114.5 -44.5z
" />
    <glyph glyph-name="eth" unicode="&#xf0;" horiz-adv-x="1167" 
d="M493 -16q-124 0 -216.5 59t-144 159.5t-51.5 224.5q0 138 37 264.5t108 225t171.5 155.5t227.5 57q73 0 133.5 -22t91.5 -66q-15 130 -60.5 221.5t-142.5 179.5l80 10l-180 -203l-111 94l194 200l5 -89q-64 63 -142 103.5t-143 56.5l48 137q48 -13 109 -37t123 -57
t113 -72l-92 -18l182 209l102 -97l-189 -211l19 98q113 -97 183.5 -213.5t103 -248.5t32.5 -278q0 -236 -68 -425q-67 -193 -201 -305t-322 -112zM521 140q61 0 110.5 43.5t88 116t64.5 159.5t39 175.5t13 162.5q-2 40 -28.5 81.5t-72.5 70t-107 28.5q-49 0 -89 -23.5
t-73 -67.5q-41 -56 -69.5 -132.5t-42.5 -162t-14 -171.5q0 -59 12.5 -109.5t35.5 -89.5t56.5 -60t76.5 -21z" />
    <glyph glyph-name="ntilde" unicode="&#xf1;" horiz-adv-x="1208" 
d="M78 0l152 1114h234l-19 -213q82 103 188.5 165t219.5 62q117 0 176.5 -66.5t59.5 -219.5q0 -23 -5 -71.5t-14 -117t-21 -152.5q-3 -24 -8 -60t-11.5 -83t-15 -103.5t-18.5 -120.5t-21 -134h-246q7 45 17 116.5t24 167.5t31 216t25.5 196.5t9.5 117.5q0 63 -22 85.5
t-73 22.5q-35 0 -79.5 -20.5t-90 -54t-85.5 -74t-67 -79.5l-96 -694h-245zM850 1241q-57 0 -104 23.5t-81 57.5q-28 31 -50.5 46t-54.5 15q-37 0 -65 -20t-60 -69l-83 101q33 68 97.5 119.5t131.5 51.5q50 0 96 -24t82 -62q27 -29 48 -42t46 -13q28 0 51.5 13t43.5 38t37 59
l86 -106q-16 -48 -49.5 -91.5t-78 -70t-93.5 -26.5z" />
    <glyph glyph-name="ograve" unicode="&#xf2;" horiz-adv-x="1123" 
d="M468 -16q-130 0 -216.5 57.5t-129.5 162.5t-43 248q0 176 73 333q71 155 203.5 249t304.5 94q128 0 212.5 -56t126.5 -160.5t42 -248.5q0 -177 -70 -334q-70 -156 -200.5 -250.5t-302.5 -94.5zM504 151q75 0 129 47t89 124.5t51.5 168.5t16.5 179q0 94 -16.5 159.5
t-54 100t-97.5 34.5q-76 0 -131.5 -49t-91 -128t-53 -170.5t-17.5 -175.5q0 -142 43 -216t132 -74zM761 1290q-36 14 -91 54.5t-113 93.5t-103.5 102t-62.5 81l160 155l298 -408z" />
    <glyph glyph-name="oacute" unicode="&#xf3;" horiz-adv-x="1123" 
d="M468 -16q-130 0 -216.5 57.5t-129.5 162.5t-43 248q0 176 73 333q71 155 203.5 249t304.5 94q128 0 212.5 -56t126.5 -160.5t42 -248.5q0 -177 -70 -334q-70 -156 -200.5 -250.5t-302.5 -94.5zM504 151q75 0 129 47t89 124.5t51.5 168.5t16.5 179q0 94 -16.5 159.5
t-54 100t-97.5 34.5q-76 0 -131.5 -49t-91 -128t-53 -170.5t-17.5 -175.5q0 -142 43 -216t132 -74zM617 1290l-85 78l309 408l159 -149q-14 -26 -47.5 -64.5t-79 -81.5t-93.5 -82.5t-91 -69t-72 -39.5z" />
    <glyph glyph-name="ocircumflex" unicode="&#xf4;" horiz-adv-x="1123" 
d="M468 -16q-130 0 -216.5 57.5t-129.5 162.5t-43 248q0 176 73 333q71 155 203.5 249t304.5 94q128 0 212.5 -56t126.5 -160.5t42 -248.5q0 -177 -70 -334q-70 -156 -200.5 -250.5t-302.5 -94.5zM504 151q75 0 129 47t89 124.5t51.5 168.5t16.5 179q0 94 -16.5 159.5
t-54 100t-97.5 34.5q-76 0 -131.5 -49t-91 -128t-53 -170.5t-17.5 -175.5q0 -142 43 -216t132 -74zM422 1238l-96 73l334 351h175l193 -351l-111 -68l-197 232z" />
    <glyph glyph-name="otilde" unicode="&#xf5;" horiz-adv-x="1123" 
d="M468 -16q-130 0 -216.5 57.5t-129.5 162.5t-43 248q0 176 73 333q71 155 203.5 249t304.5 94q128 0 212.5 -56t126.5 -160.5t42 -248.5q0 -177 -70 -334q-70 -156 -200.5 -250.5t-302.5 -94.5zM504 151q75 0 129 47t89 124.5t51.5 168.5t16.5 179q0 94 -16.5 159.5
t-54 100t-97.5 34.5q-76 0 -131.5 -49t-91 -128t-53 -170.5t-17.5 -175.5q0 -142 43 -216t132 -74zM823 1241q-57 0 -104 23.5t-81 57.5q-28 31 -50.5 46t-54.5 15q-37 0 -65 -20t-60 -69l-83 101q33 68 97.5 119.5t131.5 51.5q50 0 96 -24t82 -62q27 -29 48 -42t46 -13
q28 0 51.5 13t43.5 38t37 59l86 -106q-16 -48 -49.5 -91.5t-78 -70t-93.5 -26.5z" />
    <glyph glyph-name="odieresis" unicode="&#xf6;" horiz-adv-x="1123" 
d="M468 -16q-130 0 -216.5 57.5t-129.5 162.5t-43 248q0 176 73 333q71 155 203.5 249t304.5 94q128 0 212.5 -56t126.5 -160.5t42 -248.5q0 -177 -70 -334q-70 -156 -200.5 -250.5t-302.5 -94.5zM504 151q75 0 129 47t89 124.5t51.5 168.5t16.5 179q0 94 -16.5 159.5
t-54 100t-97.5 34.5q-76 0 -131.5 -49t-91 -128t-53 -170.5t-17.5 -175.5q0 -142 43 -216t132 -74zM452 1306q-45 0 -80.5 37t-35.5 83q0 68 43 110.5t103 42.5q54 0 89 -35t35 -84q0 -65 -40 -109.5t-114 -44.5zM890 1306q-44 0 -80 36.5t-36 83.5q0 68 43 110.5t103 42.5
q55 0 90 -35t35 -84q0 -65 -40.5 -109.5t-114.5 -44.5z" />
    <glyph glyph-name="divide" unicode="&#xf7;" horiz-adv-x="1326" 
d="M230 666l23 189h880l-24 -189h-879zM626 199q-56 0 -92.5 34t-36.5 89q0 69 48.5 121.5t121.5 52.5q67 0 99 -34t32 -88q0 -80 -46.5 -127.5t-125.5 -47.5zM718 1011q-56 0 -92.5 34.5t-36.5 88.5q0 69 48.5 122t122.5 53q66 0 98 -34.5t32 -88.5q0 -80 -46.5 -127.5
t-125.5 -47.5z" />
    <glyph glyph-name="oslash" unicode="&#xf8;" horiz-adv-x="1123" 
d="M204 -127l-73 38l146 244l51 45l430 792l38 42l139 224l72 -38l-140 -222l-47 -52l-448 -814l-42 -43zM468 -16q-130 0 -216.5 57.5t-129.5 162.5t-43 248q0 176 73 333q71 155 203.5 249t304.5 94q128 0 212.5 -56t126.5 -160.5t42 -248.5q0 -177 -70 -334
q-70 -156 -200.5 -250.5t-302.5 -94.5zM504 151q75 0 129 47t89 124.5t51.5 168.5t16.5 179q0 94 -16.5 159.5t-54 100t-97.5 34.5q-76 0 -131.5 -49t-91 -128t-53 -170.5t-17.5 -175.5q0 -142 43 -216t132 -74z" />
    <glyph glyph-name="ugrave" unicode="&#xf9;" horiz-adv-x="1184" 
d="M366 -20q-127 0 -194.5 65.5t-67.5 210.5q0 36 6.5 103t18.5 160q12 87 26.5 190t29 207.5t27.5 197.5h245q-4 -27 -11.5 -82.5t-17.5 -126t-20 -144.5t-18.5 -138.5t-14.5 -105.5q-10 -81 -15 -137t-5 -87q0 -64 27 -90.5t83 -26.5q46 0 99 30.5t105 82.5t93 117l96 708
h245l-150 -1114h-223l16 204q-71 -98 -170 -161t-210 -63zM768 1290q-36 14 -91 54.5t-113 93.5t-103.5 102t-62.5 81l160 155l298 -408z" />
    <glyph glyph-name="uacute" unicode="&#xfa;" horiz-adv-x="1184" 
d="M366 -20q-127 0 -194.5 65.5t-67.5 210.5q0 36 6.5 103t18.5 160q12 87 26.5 190t29 207.5t27.5 197.5h245q-4 -27 -11.5 -82.5t-17.5 -126t-20 -144.5t-18.5 -138.5t-14.5 -105.5q-10 -81 -15 -137t-5 -87q0 -64 27 -90.5t83 -26.5q46 0 99 30.5t105 82.5t93 117l96 708
h245l-150 -1114h-223l16 204q-71 -98 -170 -161t-210 -63zM624 1290l-85 78l309 408l159 -149q-14 -26 -47.5 -64.5t-79 -81.5t-93.5 -82.5t-91 -69t-72 -39.5z" />
    <glyph glyph-name="ucircumflex" unicode="&#xfb;" horiz-adv-x="1184" 
d="M366 -20q-127 0 -194.5 65.5t-67.5 210.5q0 36 6.5 103t18.5 160q12 87 26.5 190t29 207.5t27.5 197.5h245q-4 -27 -11.5 -82.5t-17.5 -126t-20 -144.5t-18.5 -138.5t-14.5 -105.5q-10 -81 -15 -137t-5 -87q0 -64 27 -90.5t83 -26.5q46 0 99 30.5t105 82.5t93 117l96 708
h245l-150 -1114h-223l16 204q-71 -98 -170 -161t-210 -63zM429 1238l-96 73l334 351h175l193 -351l-111 -68l-197 232z" />
    <glyph glyph-name="udieresis" unicode="&#xfc;" horiz-adv-x="1184" 
d="M366 -20q-127 0 -194.5 65.5t-67.5 210.5q0 36 6.5 103t18.5 160q12 87 26.5 190t29 207.5t27.5 197.5h245q-4 -27 -11.5 -82.5t-17.5 -126t-20 -144.5t-18.5 -138.5t-14.5 -105.5q-10 -81 -15 -137t-5 -87q0 -64 27 -90.5t83 -26.5q46 0 99 30.5t105 82.5t93 117l96 708
h245l-150 -1114h-223l16 204q-71 -98 -170 -161t-210 -63zM459 1306q-45 0 -80.5 37t-35.5 83q0 68 43 110.5t103 42.5q54 0 89 -35t35 -84q0 -65 -40 -109.5t-114 -44.5zM897 1306q-44 0 -80 36.5t-36 83.5q0 68 43 110.5t103 42.5q55 0 90 -35t35 -84q0 -65 -40.5 -109.5
t-114.5 -44.5z" />
    <glyph glyph-name="yacute" unicode="&#xfd;" horiz-adv-x="1056" 
d="M22 -495q-41 0 -91 13.5t-87 29.5l66 186q24 -15 59.5 -27.5t75.5 -12.5q80 0 144.5 38.5t121.5 104t111 145.5h-148l-61 366l-108 766h257l79 -731l37 -301q31 59 57 113.5t47 105.5q56 102 94 205.5t61.5 218.5t35.5 247q2 30 3.5 70.5t2.5 71.5h230q3 -21 2.5 -60
t-1.5 -77q-8 -164 -60 -344.5t-150 -374.5q-49 -101 -116.5 -210.5t-143.5 -211t-151 -179.5q-62 -63 -153 -107.5t-214 -44.5zM556 1290l-85 78l309 408l159 -149q-14 -26 -47.5 -64.5t-79 -81.5t-93.5 -82.5t-91 -69t-72 -39.5z" />
    <glyph glyph-name="thorn" unicode="&#xfe;" horiz-adv-x="1179" 
d="M10 -496l69 486l215 1608h235l-64 -535l-31 -162q40 63 93.5 114.5t118 82t138.5 30.5q158 0 234.5 -114t76.5 -306q0 -174 -72 -339q-48 -111 -130 -198.5t-195 -137t-254 -49.5q-28 0 -59.5 4t-67.5 10l-17 -132l-49 -362h-241zM472 147q117 0 203 82q81 82 123 206.5
t42 249.5q0 116 -26.5 190t-94.5 74q-54 0 -111 -41t-107.5 -105t-87.5 -134l-66 -505q55 -17 125 -17z" />
    <glyph glyph-name="ydieresis" unicode="&#xff;" horiz-adv-x="1056" 
d="M22 -495q-41 0 -91 13.5t-87 29.5l66 186q24 -15 59.5 -27.5t75.5 -12.5q80 0 144.5 38.5t121.5 104t111 145.5h-148l-61 366l-108 766h257l79 -731l37 -301q31 59 57 113.5t47 105.5q56 102 94 205.5t61.5 218.5t35.5 247q2 30 3.5 70.5t2.5 71.5h230q3 -21 2.5 -60
t-1.5 -77q-8 -164 -60 -344.5t-150 -374.5q-49 -101 -116.5 -210.5t-143.5 -211t-151 -179.5q-62 -63 -153 -107.5t-214 -44.5zM391 1306q-45 0 -80.5 37t-35.5 83q0 68 43 110.5t103 42.5q54 0 89 -35t35 -84q0 -65 -40 -109.5t-114 -44.5zM829 1306q-44 0 -80 36.5
t-36 83.5q0 68 43 110.5t103 42.5q55 0 90 -35t35 -84q0 -65 -40.5 -109.5t-114.5 -44.5z" />
    <glyph glyph-name="Amacron" unicode="&#x100;" horiz-adv-x="1262" 
d="M-90 0l726 1494h292l260 -1494h-247l-53 350h-556l-156 -350h-266zM410 527h452l-99 669l-10 114l-47 -113zM537 1656l9 167h524l-10 -167h-523z" />
    <glyph glyph-name="amacron" unicode="&#x101;" horiz-adv-x="1157" 
d="M387 -16q-158 0 -234.5 113.5t-76.5 306.5q0 150 45.5 280.5t130.5 230.5t203 156.5t265 56.5q52 0 114.5 -10.5t113.5 -25.5l135 36l-155 -1128h-218l15 204q-57 -92 -143.5 -156t-194.5 -64zM451 162q45 0 87 25.5t80.5 67t71 92.5t56.5 101l71 501q-56 19 -125 19
q-118 0 -200 -83t-122.5 -207.5t-40.5 -250.5q0 -69 11 -130t37.5 -98t73.5 -37zM480 1308l17 168h525l-19 -168h-523z" />
    <glyph glyph-name="Abreve" unicode="&#x102;" horiz-adv-x="1262" 
d="M-90 0l726 1494h292l260 -1494h-247l-53 350h-556l-156 -350h-266zM410 527h452l-99 669l-10 114l-47 -113zM792 1636q-104 0 -174 44.5t-101.5 124.5t-21.5 183h150q6 -95 40 -140t116 -45q59 0 94.5 24t55.5 66t34 95h146q0 -98 -43.5 -178t-120 -127t-175.5 -47z" />
    <glyph glyph-name="abreve" unicode="&#x103;" horiz-adv-x="1157" 
d="M387 -16q-158 0 -234.5 113.5t-76.5 306.5q0 150 45.5 280.5t130.5 230.5t203 156.5t265 56.5q52 0 114.5 -10.5t113.5 -25.5l135 36l-155 -1128h-218l15 204q-57 -92 -143.5 -156t-194.5 -64zM451 162q45 0 87 25.5t80.5 67t71 92.5t56.5 101l71 501q-56 19 -125 19
q-118 0 -200 -83t-122.5 -207.5t-40.5 -250.5q0 -69 11 -130t37.5 -98t73.5 -37zM744 1262q-105 0 -175 45.5t-101 125t-21 183.5h150q4 -64 20 -105t49 -60.5t87 -19.5q59 0 94 23.5t55.5 65.5t34.5 96h146q0 -99 -43.5 -179t-120 -127.5t-175.5 -47.5z" />
    <glyph glyph-name="Aogonek" unicode="&#x104;" horiz-adv-x="1262" 
d="M-90 0l726 1494h292l260 -1494h-247l-53 350h-556l-156 -350h-266zM410 527h452l-99 669l-10 114l-47 -113zM929 -453q-83 0 -135.5 46t-52.5 112q0 48 21 89.5t58 78.5t87.5 69t109.5 60l88 42l73 -44q-110 -72 -165.5 -126.5t-55.5 -102.5q0 -37 18.5 -52t43.5 -15
q36 0 67.5 14t72.5 43l49 -102q-34 -31 -74 -56.5t-90.5 -40.5t-114.5 -15z" />
    <glyph glyph-name="aogonek" unicode="&#x105;" horiz-adv-x="1157" 
d="M387 -16q-158 0 -234.5 113.5t-76.5 306.5q0 150 45.5 280.5t130.5 230.5t203 156.5t265 56.5q52 0 114.5 -10.5t113.5 -25.5l135 36l-155 -1128h-218l15 204q-57 -92 -143.5 -156t-194.5 -64zM451 162q45 0 87 25.5t80.5 67t71 92.5t56.5 101l71 501q-56 19 -125 19
q-118 0 -200 -83t-122.5 -207.5t-40.5 -250.5q0 -69 11 -130t37.5 -98t73.5 -37zM700 -440q-85 0 -137 46t-52 111q0 59 35 109.5t91.5 93.5t118.5 80l98 56l75 -56q-90 -63 -146.5 -116.5t-56.5 -99.5q0 -37 18.5 -52t45.5 -15q33 0 65.5 14t73.5 43l49 -102
q-50 -46 -122 -79t-156 -33z" />
    <glyph glyph-name="Cacute" unicode="&#x106;" horiz-adv-x="1131" 
d="M601 -16q-183 0 -295 92t-161 237t-49 314q0 253 96 454q95 202 261 315.5t371 113.5q51 0 101 -6.5t104.5 -22t120.5 -41.5l-79 -214q-50 32 -106 54.5t-158 22.5q-162 0 -264 -101q-103 -102 -149.5 -254.5t-46.5 -310.5q0 -133 32 -235.5t100 -161t176 -58.5
q61 0 128 15.5t122 39t84 45.5l35 -190q-23 -18 -65 -37t-98 -35t-122 -26t-138 -10zM813 1636l-95 78l310 407l168 -148q-14 -26 -48 -64.5t-79 -81.5t-93 -82.5t-91 -69t-72 -39.5z" />
    <glyph glyph-name="cacute" unicode="&#x107;" horiz-adv-x="901" 
d="M460 -16q-122 0 -207 54.5t-129 154t-44 234.5q0 174 70 338q69 162 201.5 262.5t308.5 100.5q40 0 82.5 -4.5t81 -12.5t63.5 -21l-61 -223q-23 20 -53 37t-64.5 27.5t-69.5 10.5q-38 0 -76.5 -17.5t-73.5 -50.5q-70 -64 -115 -174t-45 -241q0 -154 43.5 -223.5
t138.5 -69.5q62 0 125 33.5t123 94.5l71 -126q-28 -40 -88.5 -82.5t-135.5 -72t-146 -29.5zM614 1290l-85 78l309 408l159 -149q-14 -26 -47.5 -64.5t-79 -81.5t-93.5 -82.5t-91 -69t-72 -39.5z" />
    <glyph glyph-name="Ccircumflex" unicode="&#x108;" horiz-adv-x="1131" 
d="M601 -16q-183 0 -295 92t-161 237t-49 314q0 253 96 454q95 202 261 315.5t371 113.5q51 0 101 -6.5t104.5 -22t120.5 -41.5l-79 -214q-50 32 -106 54.5t-158 22.5q-162 0 -264 -101q-103 -102 -149.5 -254.5t-46.5 -310.5q0 -133 32 -235.5t100 -161t176 -58.5
q61 0 128 15.5t122 39t84 45.5l35 -190q-23 -18 -65 -37t-98 -35t-122 -26t-138 -10zM578 1624l-96 72l334 355h175l193 -355l-112 -67l-196 217z" />
    <glyph glyph-name="ccircumflex" unicode="&#x109;" horiz-adv-x="901" 
d="M460 -16q-122 0 -207 54.5t-129 154t-44 234.5q0 174 70 338q69 162 201.5 262.5t308.5 100.5q40 0 82.5 -4.5t81 -12.5t63.5 -21l-61 -223q-23 20 -53 37t-64.5 27.5t-69.5 10.5q-38 0 -76.5 -17.5t-73.5 -50.5q-70 -64 -115 -174t-45 -241q0 -154 43.5 -223.5
t138.5 -69.5q62 0 125 33.5t123 94.5l71 -126q-28 -40 -88.5 -82.5t-135.5 -72t-146 -29.5zM419 1238l-96 73l334 351h175l193 -351l-111 -68l-197 232z" />
    <glyph glyph-name="Cdotaccent" unicode="&#x10a;" horiz-adv-x="1131" 
d="M601 -16q-183 0 -295 92t-161 237t-49 314q0 253 96 454q95 202 261 315.5t371 113.5q51 0 101 -6.5t104.5 -22t120.5 -41.5l-79 -214q-50 32 -106 54.5t-158 22.5q-162 0 -264 -101q-103 -102 -149.5 -254.5t-46.5 -310.5q0 -133 32 -235.5t100 -161t176 -58.5
q61 0 128 15.5t122 39t84 45.5l35 -190q-23 -18 -65 -37t-98 -35t-122 -26t-138 -10zM840 1636q-51 0 -91.5 38t-40.5 90q0 66 49 114.5t117 48.5q59 0 98 -36t39 -89q0 -68 -49.5 -117t-121.5 -49z" />
    <glyph glyph-name="cdotaccent" unicode="&#x10b;" horiz-adv-x="901" 
d="M460 -16q-122 0 -207 54.5t-129 154t-44 234.5q0 174 70 338q69 162 201.5 262.5t308.5 100.5q40 0 82.5 -4.5t81 -12.5t63.5 -21l-61 -223q-23 20 -53 37t-64.5 27.5t-69.5 10.5q-38 0 -76.5 -17.5t-73.5 -50.5q-70 -64 -115 -174t-45 -241q0 -154 43.5 -223.5
t138.5 -69.5q62 0 125 33.5t123 94.5l71 -126q-28 -40 -88.5 -82.5t-135.5 -72t-146 -29.5zM672 1286q-52 0 -92 38.5t-40 90.5q0 65 49 114.5t117 49.5q59 0 98 -36t39 -89q0 -69 -49 -118.5t-122 -49.5z" />
    <glyph glyph-name="Ccaron" unicode="&#x10c;" horiz-adv-x="1131" 
d="M601 -16q-183 0 -295 92t-161 237t-49 314q0 253 96 454q95 202 261 315.5t371 113.5q51 0 101 -6.5t104.5 -22t120.5 -41.5l-79 -214q-50 32 -106 54.5t-158 22.5q-162 0 -264 -101q-103 -102 -149.5 -254.5t-46.5 -310.5q0 -133 32 -235.5t100 -161t176 -58.5
q61 0 128 15.5t122 39t84 45.5l35 -190q-23 -18 -65 -37t-98 -35t-122 -26t-138 -10zM757 1636l-227 322l99 80l233 -220l292 220l102 -78l-326 -324h-173z" />
    <glyph glyph-name="ccaron" unicode="&#x10d;" horiz-adv-x="901" 
d="M460 -16q-122 0 -207 54.5t-129 154t-44 234.5q0 174 70 338q69 162 201.5 262.5t308.5 100.5q40 0 82.5 -4.5t81 -12.5t63.5 -21l-61 -223q-23 20 -53 37t-64.5 27.5t-69.5 10.5q-38 0 -76.5 -17.5t-73.5 -50.5q-70 -64 -115 -174t-45 -241q0 -154 43.5 -223.5
t138.5 -69.5q62 0 125 33.5t123 94.5l71 -126q-28 -40 -88.5 -82.5t-135.5 -72t-146 -29.5zM587 1274l-233 320l96 85l240 -227l294 227l93 -84l-316 -321h-174z" />
    <glyph glyph-name="Dcaron" unicode="&#x10e;" horiz-adv-x="1360" 
d="M529 -16q-60 2 -111.5 5.5t-102 7t-107.5 3.5h-113l197 1494h116q15 0 47 1.5t72.5 4t82.5 5t77.5 4t54.5 1.5q294 0 430 -164.5t136 -458.5q0 -190 -54.5 -355t-156.5 -289t-245.5 -192.5t-322.5 -66.5zM569 168q160 3 269 105q110 101 162.5 263t52.5 347
q0 169 -37 267q-39 96 -119.5 137.5t-216.5 41.5q-37 0 -87.5 -5.5t-79.5 -11.5l-146 -1118q39 -14 93.5 -20.5t108.5 -5.5zM738 1636l-227 322l99 80l233 -220l292 220l102 -78l-326 -324h-173z" />
    <glyph glyph-name="dcaron" unicode="&#x10f;" horiz-adv-x="1453" 
d="M1369 992l-114 35l-6 24q18 71 29 149.5t11 151.5q0 64 -7.5 116.5t-20.5 72.5l11 35l191 46q17 -31 24.5 -83.5t7.5 -127.5q0 -70 -16 -148t-44 -149.5t-66 -121.5zM386 -16q-158 0 -234.5 113.5t-76.5 306.5q0 173 73 342q48 111 129.5 197.5t194.5 135.5t253 49
q27 0 57 -2t62 -8l66 480h240l-212 -1598h-220l16 216q-39 -64 -92 -116.5t-117.5 -84t-138.5 -31.5zM450 163q43 0 87 28t85 73t74.5 95.5t56.5 95.5l68 492q-55 21 -124 21q-118 0 -201 -83t-125 -208t-42 -250q0 -74 11.5 -134t37.5 -95t72 -35z" />
    <glyph glyph-name="Dcroat" unicode="&#x110;" horiz-adv-x="1360" 
d="M801 857l-19 -168h-745l17 168h747zM529 -16q-60 2 -111.5 5.5t-102 7t-107.5 3.5h-113l197 1494h116q15 0 47 1.5t72.5 4t82.5 5t77.5 4t54.5 1.5q294 0 430 -164.5t136 -458.5q0 -190 -54.5 -355t-156.5 -289t-245.5 -192.5t-322.5 -66.5zM569 168q160 3 269 105
q110 101 162.5 263t52.5 347q0 169 -37 267q-39 96 -119.5 137.5t-216.5 41.5q-37 0 -87.5 -5.5t-79.5 -11.5l-146 -1118q39 -14 93.5 -20.5t108.5 -5.5z" />
    <glyph glyph-name="dcroat" unicode="&#x111;" horiz-adv-x="1172" 
d="M618 1232l15 128h623l-16 -128h-622zM386 -16q-158 0 -234.5 113.5t-76.5 306.5q0 173 73 342q48 111 129.5 197.5t194.5 135.5t253 49q27 0 57 -2t62 -8l66 480h240l-212 -1598h-220l16 216q-39 -64 -92 -116.5t-117.5 -84t-138.5 -31.5zM450 163q43 0 87 28t85 73
t74.5 95.5t56.5 95.5l68 492q-55 21 -124 21q-118 0 -201 -83t-125 -208t-42 -250q0 -74 11.5 -134t37.5 -95t72 -35z" />
    <glyph glyph-name="Emacron" unicode="&#x112;" horiz-adv-x="1134" 
d="M95 0l197 1494h798l-17 -193l-561 6l-58 -451l422 6l-21 -199l-425 13l-65 -489l662 13l-22 -200h-910zM484 1654l9 167h524l-10 -167h-523z" />
    <glyph glyph-name="emacron" unicode="&#x113;" horiz-adv-x="1036" 
d="M478 -16q-136 0 -225 61q-90 62 -132 161.5t-41 218.5q1 193 81 358q77 161 212.5 253t305.5 92q96 0 160.5 -34.5t97.5 -91t33 -122.5q0 -106 -53.5 -188t-144 -141t-203.5 -96t-232 -54v-15v-16q3 -91 45.5 -148.5t138.5 -57.5q53 0 109.5 19.5t111.5 55t101 82.5
l65 -129q-26 -35 -74.5 -72t-110 -68t-125.5 -49.5t-120 -18.5zM339 550q64 2 132 27.5t127 68t95.5 97t36.5 115.5q0 59 -26.5 84.5t-79.5 25.5q-41 0 -76.5 -20.5t-69.5 -57.5q-62 -68 -96.5 -163t-42.5 -177zM443 1308l17 168h525l-19 -168h-523z" />
    <glyph glyph-name="Ebreve" unicode="&#x114;" horiz-adv-x="1134" 
d="M95 0l197 1494h798l-17 -193l-561 6l-58 -451l422 6l-21 -199l-425 13l-65 -489l662 13l-22 -200h-910zM739 1634q-104 0 -174 44.5t-101.5 124.5t-21.5 183h150q6 -95 40 -140t116 -45q59 0 94.5 24t55.5 66t34 95h146q0 -98 -43.5 -178t-120 -127t-175.5 -47z" />
    <glyph glyph-name="ebreve" unicode="&#x115;" horiz-adv-x="1036" 
d="M478 -16q-136 0 -225 61q-90 62 -132 161.5t-41 218.5q1 193 81 358q77 161 212.5 253t305.5 92q96 0 160.5 -34.5t97.5 -91t33 -122.5q0 -106 -53.5 -188t-144 -141t-203.5 -96t-232 -54v-15v-16q3 -91 45.5 -148.5t138.5 -57.5q53 0 109.5 19.5t111.5 55t101 82.5
l65 -129q-26 -35 -74.5 -72t-110 -68t-125.5 -49.5t-120 -18.5zM339 550q64 2 132 27.5t127 68t95.5 97t36.5 115.5q0 59 -26.5 84.5t-79.5 25.5q-41 0 -76.5 -20.5t-69.5 -57.5q-62 -68 -96.5 -163t-42.5 -177zM707 1262q-105 0 -175 45.5t-101 125t-21 183.5h150
q4 -64 20 -105t49 -60.5t87 -19.5q59 0 94 23.5t55.5 65.5t34.5 96h146q0 -99 -43.5 -179t-120 -127.5t-175.5 -47.5z" />
    <glyph glyph-name="Edotaccent" unicode="&#x116;" horiz-adv-x="1134" 
d="M95 0l197 1494h798l-17 -193l-561 6l-58 -451l422 6l-21 -199l-425 13l-65 -489l662 13l-22 -200h-910zM730 1634q-51 0 -91.5 38t-40.5 90q0 66 49 114.5t117 48.5q59 0 98 -36t39 -89q0 -68 -49.5 -117t-121.5 -49z" />
    <glyph glyph-name="edotaccent" unicode="&#x117;" horiz-adv-x="1036" 
d="M478 -16q-136 0 -225 61q-90 62 -132 161.5t-41 218.5q1 193 81 358q77 161 212.5 253t305.5 92q96 0 160.5 -34.5t97.5 -91t33 -122.5q0 -106 -53.5 -188t-144 -141t-203.5 -96t-232 -54v-15v-16q3 -91 45.5 -148.5t138.5 -57.5q53 0 109.5 19.5t111.5 55t101 82.5
l65 -129q-26 -35 -74.5 -72t-110 -68t-125.5 -49.5t-120 -18.5zM339 550q64 2 132 27.5t127 68t95.5 97t36.5 115.5q0 59 -26.5 84.5t-79.5 25.5q-41 0 -76.5 -20.5t-69.5 -57.5q-62 -68 -96.5 -163t-42.5 -177zM696 1286q-52 0 -92 38.5t-40 90.5q0 65 49 114.5t117 49.5
q59 0 98 -36t39 -89q0 -69 -49 -118.5t-122 -49.5z" />
    <glyph glyph-name="Eogonek" unicode="&#x118;" horiz-adv-x="1134" 
d="M95 0l197 1494h798l-17 -193l-561 6l-58 -451l422 6l-21 -199l-425 13l-65 -489l662 13l-22 -200h-910zM694 -453q-83 0 -135.5 46t-52.5 112q0 48 21 89.5t58 78.5t87.5 69t109.5 60l88 42l73 -44q-110 -72 -165.5 -126.5t-55.5 -102.5q0 -37 18.5 -52t43.5 -15
q36 0 67.5 14t72.5 43l49 -102q-34 -31 -74 -56.5t-90.5 -40.5t-114.5 -15z" />
    <glyph glyph-name="eogonek" unicode="&#x119;" horiz-adv-x="1036" 
d="M478 -16q-136 0 -225 61q-90 62 -132 161.5t-41 218.5q1 193 81 358q77 161 212.5 253t305.5 92q96 0 160.5 -34.5t97.5 -91t33 -122.5q0 -106 -53.5 -188t-144 -141t-203.5 -96t-232 -54v-15v-16q3 -91 45.5 -148.5t138.5 -57.5q53 0 109.5 19.5t111.5 55t101 82.5
l65 -129q-26 -35 -74.5 -72t-110 -68t-125.5 -49.5t-120 -18.5zM339 550q64 2 132 27.5t127 68t95.5 97t36.5 115.5q0 59 -26.5 84.5t-79.5 25.5q-41 0 -76.5 -20.5t-69.5 -57.5q-62 -68 -96.5 -163t-42.5 -177zM349 -440q-85 0 -137 46t-52 111q0 59 35 109.5t91.5 93.5
t118.5 80l98 56l75 -56q-90 -63 -146.5 -116.5t-56.5 -99.5q0 -37 18.5 -52t45.5 -15q33 0 65.5 14t73.5 43l49 -102q-50 -46 -122 -79t-156 -33z" />
    <glyph glyph-name="Ecaron" unicode="&#x11a;" horiz-adv-x="1134" 
d="M95 0l197 1494h798l-17 -193l-561 6l-58 -451l422 6l-21 -199l-425 13l-65 -489l662 13l-22 -200h-910zM647 1634l-227 322l99 80l233 -220l292 220l102 -78l-326 -324h-173z" />
    <glyph glyph-name="ecaron" unicode="&#x11b;" horiz-adv-x="1036" 
d="M478 -16q-136 0 -225 61q-90 62 -132 161.5t-41 218.5q1 193 81 358q77 161 212.5 253t305.5 92q96 0 160.5 -34.5t97.5 -91t33 -122.5q0 -106 -53.5 -188t-144 -141t-203.5 -96t-232 -54v-15v-16q3 -91 45.5 -148.5t138.5 -57.5q53 0 109.5 19.5t111.5 55t101 82.5
l65 -129q-26 -35 -74.5 -72t-110 -68t-125.5 -49.5t-120 -18.5zM339 550q64 2 132 27.5t127 68t95.5 97t36.5 115.5q0 59 -26.5 84.5t-79.5 25.5q-41 0 -76.5 -20.5t-69.5 -57.5q-62 -68 -96.5 -163t-42.5 -177zM611 1274l-233 320l96 85l240 -227l294 227l93 -84l-316 -321
h-174z" />
    <glyph glyph-name="Gcircumflex" unicode="&#x11c;" horiz-adv-x="1338" 
d="M617 -16q-178 0 -295 90q-118 88 -171.5 229t-55.5 302q-3 265 95 471t269 320t380 114q60 0 107.5 -3.5t92.5 -12t95 -22t115 -35.5l-64 -223q-28 22 -85 44.5t-127 37.5t-140 15q-168 0 -278 -103t-160.5 -258t-50.5 -315q0 -131 32.5 -235.5t102.5 -165t178 -60.5
q62 0 138 14t138 43l44 325h-232l24 197h467l-88 -666q-27 -3 -57.5 -11t-81.5 -22q-100 -30 -195 -50t-197 -20zM548 1624l-96 72l334 355h175l193 -355l-112 -67l-196 217z" />
    <glyph glyph-name="gcircumflex" unicode="&#x11d;" horiz-adv-x="1168" 
d="M382 -497q-44 0 -98 5.5t-99.5 14.5t-65.5 18l49 192q27 -15 70.5 -30t93.5 -24.5t97 -9.5q112 0 169 59.5t79 177.5l53 301q-59 -93 -147.5 -158t-196.5 -65q-158 0 -234.5 113.5t-76.5 306.5q0 173 73 342q48 111 129.5 197.5t194.5 135.5t253 49q53 0 115 -10.5
t114 -25.5l137 36l-164 -1197q-11 -78 -37.5 -141t-68.5 -111q-83 -95 -198 -135.5t-241 -40.5zM450 163q42 0 84.5 25.5t82.5 67.5t74 92t59 100l70 503q-28 9 -58.5 13t-64.5 4q-118 0 -201 -83t-125 -208t-42 -250q0 -74 11.5 -134t37.5 -95t72 -35zM493 1238l-96 73
l334 351h175l193 -351l-111 -68l-197 232z" />
    <glyph glyph-name="Gbreve" unicode="&#x11e;" horiz-adv-x="1338" 
d="M617 -16q-178 0 -295 90q-118 88 -171.5 229t-55.5 302q-3 265 95 471t269 320t380 114q60 0 107.5 -3.5t92.5 -12t95 -22t115 -35.5l-64 -223q-28 22 -85 44.5t-127 37.5t-140 15q-168 0 -278 -103t-160.5 -258t-50.5 -315q0 -131 32.5 -235.5t102.5 -165t178 -60.5
q62 0 138 14t138 43l44 325h-232l24 197h467l-88 -666q-27 -3 -57.5 -11t-81.5 -22q-100 -30 -195 -50t-197 -20zM819 1636q-104 0 -174 44.5t-101.5 124.5t-21.5 183h150q6 -95 40 -140t116 -45q59 0 94.5 24t55.5 66t34 95h146q0 -98 -43.5 -178t-120 -127t-175.5 -47z
" />
    <glyph glyph-name="gbreve" unicode="&#x11f;" horiz-adv-x="1168" 
d="M382 -497q-44 0 -98 5.5t-99.5 14.5t-65.5 18l49 192q27 -15 70.5 -30t93.5 -24.5t97 -9.5q112 0 169 59.5t79 177.5l53 301q-59 -93 -147.5 -158t-196.5 -65q-158 0 -234.5 113.5t-76.5 306.5q0 173 73 342q48 111 129.5 197.5t194.5 135.5t253 49q53 0 115 -10.5
t114 -25.5l137 36l-164 -1197q-11 -78 -37.5 -141t-68.5 -111q-83 -95 -198 -135.5t-241 -40.5zM450 163q42 0 84.5 25.5t82.5 67.5t74 92t59 100l70 503q-28 9 -58.5 13t-64.5 4q-118 0 -201 -83t-125 -208t-42 -250q0 -74 11.5 -134t37.5 -95t72 -35zM757 1262
q-105 0 -175 45.5t-101 125t-21 183.5h150q4 -64 20 -105t49 -60.5t87 -19.5q59 0 94 23.5t55.5 65.5t34.5 96h146q0 -99 -43.5 -179t-120 -127.5t-175.5 -47.5z" />
    <glyph glyph-name="Gdotaccent" unicode="&#x120;" horiz-adv-x="1338" 
d="M617 -16q-178 0 -295 90q-118 88 -171.5 229t-55.5 302q-3 265 95 471t269 320t380 114q60 0 107.5 -3.5t92.5 -12t95 -22t115 -35.5l-64 -223q-28 22 -85 44.5t-127 37.5t-140 15q-168 0 -278 -103t-160.5 -258t-50.5 -315q0 -131 32.5 -235.5t102.5 -165t178 -60.5
q62 0 138 14t138 43l44 325h-232l24 197h467l-88 -666q-27 -3 -57.5 -11t-81.5 -22q-100 -30 -195 -50t-197 -20zM810 1636q-51 0 -91.5 38t-40.5 90q0 66 49 114.5t117 48.5q59 0 98 -36t39 -89q0 -68 -49.5 -117t-121.5 -49z" />
    <glyph glyph-name="gdotaccent" unicode="&#x121;" horiz-adv-x="1168" 
d="M382 -497q-44 0 -98 5.5t-99.5 14.5t-65.5 18l49 192q27 -15 70.5 -30t93.5 -24.5t97 -9.5q112 0 169 59.5t79 177.5l53 301q-59 -93 -147.5 -158t-196.5 -65q-158 0 -234.5 113.5t-76.5 306.5q0 173 73 342q48 111 129.5 197.5t194.5 135.5t253 49q53 0 115 -10.5
t114 -25.5l137 36l-164 -1197q-11 -78 -37.5 -141t-68.5 -111q-83 -95 -198 -135.5t-241 -40.5zM450 163q42 0 84.5 25.5t82.5 67.5t74 92t59 100l70 503q-28 9 -58.5 13t-64.5 4q-118 0 -201 -83t-125 -208t-42 -250q0 -74 11.5 -134t37.5 -95t72 -35zM746 1286
q-52 0 -92 38.5t-40 90.5q0 65 49 114.5t117 49.5q59 0 98 -36t39 -89q0 -69 -49 -118.5t-122 -49.5z" />
    <glyph glyph-name="uni0122" unicode="&#x122;" horiz-adv-x="1338" 
d="M617 -16q-178 0 -295 90q-118 88 -171.5 229t-55.5 302q-3 265 95 471t269 320t380 114q60 0 107.5 -3.5t92.5 -12t95 -22t115 -35.5l-64 -223q-28 22 -85 44.5t-127 37.5t-140 15q-168 0 -278 -103t-160.5 -258t-50.5 -315q0 -131 32.5 -235.5t102.5 -165t178 -60.5
q62 0 138 14t138 43l44 325h-232l24 197h467l-88 -666q-27 -3 -57.5 -11t-81.5 -22q-100 -30 -195 -50t-197 -20zM488 -657l-85 56l4 25q32 24 49 56.5t17 82.5q0 36 -20.5 67.5t-49.5 36.5l9 66l144 102q60 -15 93 -71.5t33 -130.5q0 -70 -28 -133t-71.5 -105.5
t-94.5 -51.5z" />
    <glyph glyph-name="uni0123" unicode="&#x123;" horiz-adv-x="1168" 
d="M382 -497q-44 0 -98 5.5t-99.5 14.5t-65.5 18l49 192q27 -15 70.5 -30t93.5 -24.5t97 -9.5q112 0 169 59.5t79 177.5l53 301q-59 -93 -147.5 -158t-196.5 -65q-158 0 -234.5 113.5t-76.5 306.5q0 173 73 342q48 111 129.5 197.5t194.5 135.5t253 49q53 0 115 -10.5
t114 -25.5l137 36l-164 -1197q-11 -78 -37.5 -141t-68.5 -111q-83 -95 -198 -135.5t-241 -40.5zM450 163q42 0 84.5 25.5t82.5 67.5t74 92t59 100l70 503q-28 9 -58.5 13t-64.5 4q-118 0 -201 -83t-125 -208t-42 -250q0 -74 11.5 -134t37.5 -95t72 -35zM781 1793l93 -64
l-4 -27q-34 -25 -47 -57t-13 -73q0 -45 22 -83.5t52 -43.5l-9 -71l-129 -87q-37 23 -66.5 56.5t-46.5 75t-17 89.5q0 81 36 156.5t129 128.5z" />
    <glyph glyph-name="Hcircumflex" unicode="&#x124;" horiz-adv-x="1406" 
d="M91 0l197 1494h246l-88 -663h581l86 663h248l-197 -1494h-247l86 653h-580l-87 -653h-245zM579 1622l-96 72l334 355h175l193 -355l-112 -67l-196 217z" />
    <glyph glyph-name="hcircumflex" unicode="&#x125;" horiz-adv-x="1209" 
d="M83 0l207 1598h242l-59 -496l-35 -209q81 106 190 170.5t224 64.5q117 0 176 -66.5t59 -219.5q0 -16 -4 -55.5t-11.5 -99.5t-17.5 -136.5t-22.5 -165.5t-27 -186t-30.5 -199h-246q10 73 18.5 133t16 113t15 102.5t14.5 99t15 102.5q14 99 21 163t7 101q0 63 -22 85.5
t-72 22.5q-47 0 -108.5 -35t-119.5 -87t-93 -103l-96 -697h-241zM161 1644l-96 72l334 355h175l193 -355l-112 -67l-196 217z" />
    <glyph glyph-name="Hbar" unicode="&#x126;" horiz-adv-x="1410" 
d="M98 0l125 948h-190l18 180h197l48 366h247l-50 -366h581l47 366h248l-48 -366h201l-18 -180h-208l-124 -948h-247l69 527h-580l-70 -527h-246zM437 707h582l30 241h-580z" />
    <glyph glyph-name="hbar" unicode="&#x127;" horiz-adv-x="1209" 
d="M126 1232l16 128h602l-14 -128h-604zM83 0l207 1598h242l-59 -496l-35 -209q81 106 190 170.5t224 64.5q117 0 176 -66.5t59 -219.5q0 -16 -4 -55.5t-11.5 -99.5t-17.5 -136.5t-22.5 -165.5t-27 -186t-30.5 -199h-246q10 73 18.5 133t16 113t15 102.5t14.5 99t15 102.5
q14 99 21 163t7 101q0 63 -22 85.5t-72 22.5q-47 0 -108.5 -35t-119.5 -87t-93 -103l-96 -697h-241z" />
    <glyph glyph-name="Itilde" unicode="&#x128;" horiz-adv-x="609" 
d="M114 0l198 1494h246l-197 -1494h-247zM613 1650q-56 0 -103 23.5t-81 58.5q-28 30 -50.5 45t-54.5 15q-37 0 -65 -20t-60 -69l-83 101q22 45 58 84t81 62.5t90 23.5q50 0 96 -23t82 -62q27 -29 48 -42t45 -13q29 0 52.5 13.5t43.5 38t37 59.5l84 -106q-16 -49 -49 -92
t-77.5 -70t-93.5 -27z" />
    <glyph glyph-name="itilde" unicode="&#x129;" horiz-adv-x="597" 
d="M107 0l151 1114h246l-152 -1114h-245zM545 1241q-57 0 -104 23.5t-81 57.5q-28 31 -50.5 46t-54.5 15q-37 0 -65 -20t-60 -69l-83 101q33 68 97.5 119.5t131.5 51.5q50 0 96 -24t82 -62q27 -29 48 -42t46 -13q28 0 51.5 13t43.5 38t37 59l86 -106q-16 -48 -49.5 -91.5
t-78 -70t-93.5 -26.5z" />
    <glyph glyph-name="Imacron" unicode="&#x12a;" horiz-adv-x="609" 
d="M114 0l198 1494h246l-197 -1494h-247zM207 1654l9 167h524l-10 -167h-523z" />
    <glyph glyph-name="imacron" unicode="&#x12b;" horiz-adv-x="597" 
d="M107 0l151 1114h246l-152 -1114h-245zM144 1308l17 168h525l-19 -168h-523z" />
    <glyph glyph-name="Ibreve" unicode="&#x12c;" horiz-adv-x="609" 
d="M114 0l198 1494h246l-197 -1494h-247zM462 1634q-104 0 -174 44.5t-101.5 124.5t-21.5 183h150q6 -95 40 -140t116 -45q59 0 94.5 24t55.5 66t34 95h146q0 -98 -43.5 -178t-120 -127t-175.5 -47z" />
    <glyph glyph-name="ibreve" unicode="&#x12d;" horiz-adv-x="597" 
d="M107 0l151 1114h246l-152 -1114h-245zM408 1262q-105 0 -175 45.5t-101 125t-21 183.5h150q4 -64 20 -105t49 -60.5t87 -19.5q59 0 94 23.5t55.5 65.5t34.5 96h146q0 -99 -43.5 -179t-120 -127.5t-175.5 -47.5z" />
    <glyph glyph-name="Iogonek" unicode="&#x12e;" horiz-adv-x="609" 
d="M114 0l198 1494h246l-197 -1494h-247zM112 -453q-83 0 -135.5 46t-52.5 112q0 48 21 89.5t58 78.5t87.5 69t109.5 60l88 42l73 -44q-110 -72 -165.5 -126.5t-55.5 -102.5q0 -37 18.5 -52t43.5 -15q36 0 67.5 14t72.5 43l49 -102q-34 -31 -74 -56.5t-90.5 -40.5
t-114.5 -15z" />
    <glyph glyph-name="iogonek" unicode="&#x12f;" horiz-adv-x="597" 
d="M107 0l151 1114h246l-152 -1114h-245zM397 1286q-52 0 -92 38.5t-40 90.5q0 65 49 114.5t117 49.5q59 0 98 -36t39 -89q0 -69 -49 -118.5t-122 -49.5zM123 -440q-85 0 -137 46t-52 111q0 59 35 109.5t91.5 93.5t118.5 80l98 56l75 -56q-90 -63 -146.5 -116.5t-56.5 -99.5
q0 -37 18.5 -52t45.5 -15q33 0 65.5 14t73.5 43l49 -102q-50 -46 -122 -79t-156 -33z" />
    <glyph glyph-name="Idotaccent" unicode="&#x130;" horiz-adv-x="609" 
d="M114 0l198 1494h246l-197 -1494h-247zM453 1634q-51 0 -91.5 38t-40.5 90q0 66 49 114.5t117 48.5q59 0 98 -36t39 -89q0 -68 -49.5 -117t-121.5 -49z" />
    <glyph glyph-name="dotlessi" unicode="&#x131;" horiz-adv-x="597" 
d="M107 0l151 1114h246l-152 -1114h-245z" />
    <glyph glyph-name="IJ" unicode="&#x132;" horiz-adv-x="1216" 
d="M114 0l198 1494h246l-197 -1494h-247zM477 -322l-37 96q42 12 88.5 46t89 79.5t72 94t37.5 90.5q25 115 45 238t37 255.5t33 277t35 303.5t41 336h246l-129 -1010q-22 -175 -40 -277t-27 -133q-38 -130 -106.5 -213t-165.5 -127t-219 -56z" />
    <glyph glyph-name="ij" unicode="&#x133;" horiz-adv-x="1191" 
d="M107 0l151 1114h246l-152 -1114h-245zM424 1322q-50 0 -90 38t-40 90q0 65 48.5 114t115.5 49q60 0 99 -35.5t39 -89.5q0 -68 -49.5 -117t-122.5 -49zM504 -507q-46 0 -83.5 9t-62.5 28l59 132q8 -5 24 -9t27 -4q61 0 102.5 35t69 94.5t44 134t27.5 153.5l143 1048h245
l-151 -1112q-19 -142 -77 -257.5t-150.5 -183.5t-216.5 -68zM1004 1322q-50 0 -90 38t-40 90q0 65 48.5 114t115.5 49q60 0 99 -35.5t39 -89.5q0 -68 -49.5 -117t-122.5 -49z" />
    <glyph glyph-name="Jcircumflex" unicode="&#x134;" horiz-adv-x="607" 
d="M-132 -322l-37 96q42 12 88.5 46t89 79.5t72 94t37.5 90.5q25 115 45 238t37 255.5t33 277t35 303.5t41 336h246l-129 -1010q-22 -175 -40 -277t-27 -133q-38 -130 -106.5 -213t-165.5 -127t-219 -56zM215 1624l-96 72l334 355h175l193 -355l-112 -67l-196 217z" />
    <glyph glyph-name="jcircumflex" unicode="&#x135;" horiz-adv-x="595" 
d="M-93 -507q-46 0 -83.5 9t-62.5 28l59 132q8 -5 24 -9t27 -4q61 0 102.5 35t69 94.5t44 134t27.5 153.5l143 1048h245l-151 -1112q-19 -142 -77 -257.5t-150.5 -183.5t-216.5 -68zM157 1238l-96 73l334 351h175l193 -351l-111 -68l-197 232z" />
    <glyph glyph-name="uni0136" unicode="&#x136;" horiz-adv-x="1242" 
d="M91 0l197 1494h237l-96 -720l617 720h285l-592 -663q24 -41 43 -76.5t42.5 -80.5t60.5 -114.5t97 -180.5q28 -52 57.5 -105.5t59 -104t55.5 -93.5t48 -76h-294q-5 8 -24 43t-44 84t-50.5 100.5t-45.5 92.5l-169 336l-187 -199l-61 -457h-236zM516 -657l-85 56l4 25
q32 24 49 56.5t17 82.5q0 36 -20.5 67.5t-49.5 36.5l9 66l144 102q60 -15 93 -71.5t33 -130.5q0 -70 -28 -133t-71.5 -105.5t-94.5 -51.5z" />
    <glyph glyph-name="uni0137" unicode="&#x137;" horiz-adv-x="1079" 
d="M83 0l207 1598h243l-209 -1598h-241zM751 2l-311 616q88 49 168.5 129.5t142.5 176t93 190.5h238q-7 -76 -42.5 -153t-91 -147t-122.5 -127t-135 -93l341 -592h-281zM393 -656l-85 56l4 25q32 24 47 55t16 82q2 41 -18 73.5t-49 36.5l7 61l138 102q59 -15 95.5 -72
t36.5 -131q0 -70 -27 -132.5t-71 -104.5t-94 -51z" />
    <glyph glyph-name="kgreenlandic" unicode="&#x138;" horiz-adv-x="1078" 
d="M758 0l-316 613q68 39 131 94.5t116 122.5t93.5 142t64.5 151h238q-8 -106 -67.5 -210t-147 -189t-179.5 -132l341 -592h-274zM79 0l152 1123h245l-152 -1123h-245z" />
    <glyph glyph-name="Lacute" unicode="&#x139;" horiz-adv-x="984" 
d="M95 0l197 1494h246l-171 -1294l532 6l-28 -206h-776zM411 1636l-95 78l310 407l168 -148q-14 -26 -48 -64.5t-79 -81.5t-93 -82.5t-91 -69t-72 -39.5z" />
    <glyph glyph-name="lacute" unicode="&#x13a;" horiz-adv-x="598" 
d="M109 2l216 1596h245l-217 -1596h-244zM428 1699l-95 78l310 407l168 -148q-14 -26 -48 -64.5t-79 -81.5t-93 -82.5t-91 -69t-72 -39.5z" />
    <glyph glyph-name="uni013B" unicode="&#x13b;" horiz-adv-x="984" 
d="M95 0l197 1494h246l-171 -1294l532 6l-28 -206h-776zM404 -657l-85 56l4 25q32 24 49 56.5t17 82.5q0 36 -20.5 67.5t-49.5 36.5l9 66l144 102q60 -15 93 -71.5t33 -130.5q0 -70 -28 -133t-71.5 -105.5t-94.5 -51.5z" />
    <glyph glyph-name="uni013C" unicode="&#x13c;" horiz-adv-x="598" 
d="M109 2l216 1596h245l-217 -1596h-244zM164 -656l-85 56l4 25q32 24 47 55t16 82q2 41 -18 73.5t-49 36.5l7 61l138 102q59 -15 95.5 -72t36.5 -131q0 -70 -27 -132.5t-71 -104.5t-94 -51z" />
    <glyph glyph-name="Lcaron" unicode="&#x13d;" horiz-adv-x="990" 
d="M904 955l-115 35l-6 25q19 71 29.5 149.5t10.5 150.5q0 64 -7 116.5t-21 73.5l12 35l191 45q17 -30 24.5 -83t7.5 -127q0 -70 -16 -148.5t-44 -149.5t-66 -122zM95 0l197 1494h246l-171 -1294l532 6l-28 -206h-776z" />
    <glyph glyph-name="lcaron" unicode="&#x13e;" horiz-adv-x="785" 
d="M811 981l-115 35l-6 25q19 71 29.5 149.5t10.5 150.5q0 64 -7 116.5t-21 73.5l12 35l191 45q17 -30 24.5 -83t7.5 -127q0 -70 -16 -148.5t-44 -149.5t-66 -122zM109 2l216 1596h245l-217 -1596h-244z" />
    <glyph glyph-name="Ldot" unicode="&#x13f;" horiz-adv-x="1097" 
d="M95 0l197 1494h246l-171 -1294l532 6l-28 -206h-776zM878 624q-56 0 -92.5 34.5t-36.5 88.5q0 69 48.5 122t121.5 53q67 0 99 -34.5t32 -88.5q0 -80 -46.5 -127.5t-125.5 -47.5z" />
    <glyph glyph-name="ldot" unicode="&#x140;" horiz-adv-x="837" 
d="M109 2l216 1596h245l-217 -1596h-244zM730 609q-56 0 -92.5 34.5t-36.5 88.5q0 69 48.5 122t121.5 53q67 0 99 -34.5t32 -88.5q0 -80 -46.5 -127.5t-125.5 -47.5z" />
    <glyph glyph-name="Lslash" unicode="&#x141;" horiz-adv-x="990" 
d="M187 580l-181 -73l-42 138l245 100l229 95l379 157l42 -148l-443 -176zM95 0l197 1494h246l-171 -1294l532 6l-28 -206h-776z" />
    <glyph glyph-name="lslash" unicode="&#x142;" horiz-adv-x="611" 
d="M115 3l106 783l-156 -63v155l178 73l87 648h246l-73 -542l155 65v-165l-178 -69l-120 -885h-245z" />
    <glyph glyph-name="Nacute" unicode="&#x143;" horiz-adv-x="1401" 
d="M95 0l197 1494h236l400 -946l67 -221l17 247l111 920h235l-196 -1494h-224l-408 969l-67 241l-17 -283l-120 -927h-231zM815 1636l-95 78l310 407l168 -148q-14 -26 -48 -64.5t-79 -81.5t-93 -82.5t-91 -69t-72 -39.5z" />
    <glyph glyph-name="nacute" unicode="&#x144;" horiz-adv-x="1208" 
d="M78 0l152 1114h234l-19 -213q82 103 188.5 165t219.5 62q117 0 176.5 -66.5t59.5 -219.5q0 -23 -5 -71.5t-14 -117t-21 -152.5q-3 -24 -8 -60t-11.5 -83t-15 -103.5t-18.5 -120.5t-21 -134h-246q7 45 17 116.5t24 167.5t31 216t25.5 196.5t9.5 117.5q0 63 -22 85.5
t-73 22.5q-35 0 -79.5 -20.5t-90 -54t-85.5 -74t-67 -79.5l-96 -694h-245zM644 1290l-85 78l309 408l159 -149q-14 -26 -47.5 -64.5t-79 -81.5t-93.5 -82.5t-91 -69t-72 -39.5z" />
    <glyph glyph-name="uni0145" unicode="&#x145;" horiz-adv-x="1401" 
d="M95 0l197 1494h236l400 -946l67 -221l17 247l111 920h235l-196 -1494h-224l-408 969l-67 241l-17 -283l-120 -927h-231zM520 -657l-85 56l4 25q32 24 49 56.5t17 82.5q0 36 -20.5 67.5t-49.5 36.5l9 66l144 102q60 -15 93 -71.5t33 -130.5q0 -70 -28 -133t-71.5 -105.5
t-94.5 -51.5z" />
    <glyph glyph-name="uni0146" unicode="&#x146;" horiz-adv-x="1208" 
d="M78 0l152 1114h234l-19 -213q82 103 188.5 165t219.5 62q117 0 176.5 -66.5t59.5 -219.5q0 -23 -5 -71.5t-14 -117t-21 -152.5q-3 -24 -8 -60t-11.5 -83t-15 -103.5t-18.5 -120.5t-21 -134h-246q7 45 17 116.5t24 167.5t31 216t25.5 196.5t9.5 117.5q0 63 -22 85.5
t-73 22.5q-35 0 -79.5 -20.5t-90 -54t-85.5 -74t-67 -79.5l-96 -694h-245zM458 -656l-85 56l4 25q32 24 47 55t16 82q2 41 -18 73.5t-49 36.5l7 61l138 102q59 -15 95.5 -72t36.5 -131q0 -70 -27 -132.5t-71 -104.5t-94 -51z" />
    <glyph glyph-name="Ncaron" unicode="&#x147;" horiz-adv-x="1401" 
d="M95 0l197 1494h236l400 -946l67 -221l17 247l111 920h235l-196 -1494h-224l-408 969l-67 241l-17 -283l-120 -927h-231zM759 1636l-227 322l99 80l233 -220l292 220l102 -78l-326 -324h-173z" />
    <glyph glyph-name="ncaron" unicode="&#x148;" horiz-adv-x="1208" 
d="M78 0l152 1114h234l-19 -213q82 103 188.5 165t219.5 62q117 0 176.5 -66.5t59.5 -219.5q0 -23 -5 -71.5t-14 -117t-21 -152.5q-3 -24 -8 -60t-11.5 -83t-15 -103.5t-18.5 -120.5t-21 -134h-246q7 45 17 116.5t24 167.5t31 216t25.5 196.5t9.5 117.5q0 63 -22 85.5
t-73 22.5q-35 0 -79.5 -20.5t-90 -54t-85.5 -74t-67 -79.5l-96 -694h-245zM617 1274l-233 320l96 85l240 -227l294 227l93 -84l-316 -321h-174z" />
    <glyph glyph-name="napostrophe" unicode="&#x149;" horiz-adv-x="1884" 
d="M362 884l-87 118l2 22q42 20 80 67t62 109.5t24 129.5q0 73 -21.5 126.5t-59.5 85.5l4 40l139 121q44 -20 84.5 -70t67 -117t26.5 -139q0 -111 -41 -207t-113 -169t-167 -117zM754 0l152 1114h234l-19 -213q82 103 188.5 165t219.5 62q117 0 176.5 -66.5t59.5 -219.5
q0 -23 -5 -71.5t-14 -117t-21 -152.5q-3 -24 -8 -60t-11.5 -83t-15 -103.5t-18.5 -120.5t-21 -134h-246q7 45 17 116.5t24 167.5t31 216t25.5 196.5t9.5 117.5q0 63 -22 85.5t-73 22.5q-35 0 -79.5 -20.5t-90 -54t-85.5 -74t-67 -79.5l-96 -694h-245z" />
    <glyph glyph-name="Eng" unicode="&#x14a;" horiz-adv-x="1405" 
d="M682 -341l-42 99q71 24 129.5 63.5t100.5 93t59 116.5l-395 938l-67 241l-17 -283l-119 -927h-233l198 1494h236l400 -946l67 -221l17 247l111 920h236l-200 -1494q-32 -98 -100.5 -169t-165.5 -114t-215 -58z" />
    <glyph glyph-name="eng" unicode="&#x14b;" horiz-adv-x="1207" 
d="M510 -509q-52 0 -95.5 9t-59.5 27l37 110q12 -4 35 -8t35 -4q81 0 134 42.5t85 126t48 206.5q18 128 36 253t33.5 234.5t25.5 193.5t10 131q1 65 -21 87.5t-73 22.5q-35 0 -79.5 -20.5t-90 -55.5t-86 -75.5t-67.5 -79.5l-94 -691h-245l150 1114h234l-19 -215
q56 69 122 120.5t139 80t148 28.5q117 0 176 -66.5t59 -219.5q0 -30 -5.5 -90.5t-17.5 -143.5q-9 -72 -22.5 -167t-30.5 -206.5t-36 -234.5q-26 -163 -84 -276.5t-152.5 -173t-228.5 -59.5z" />
    <glyph glyph-name="Omacron" unicode="&#x14c;" horiz-adv-x="1351" 
d="M599 -16q-165 0 -276.5 83t-168 222.5t-56.5 310.5q0 182 49 346t141.5 291.5t223 200t293.5 72.5q125 0 218 -48.5t155 -133.5t93 -197t31 -238q0 -183 -48 -347.5t-139 -291t-221.5 -198.5t-294.5 -72zM628 170q103 0 182 63.5t132 168t80 229t26 247.5q-2 151 -32 249
t-91 145.5t-153 47.5q-102 0 -180.5 -63.5t-132 -168t-80.5 -228t-27 -244.5q4 -231 73.5 -338.5t202.5 -107.5zM585 1656l9 167h524l-10 -167h-523z" />
    <glyph glyph-name="omacron" unicode="&#x14d;" horiz-adv-x="1123" 
d="M468 -16q-130 0 -216.5 57.5t-129.5 162.5t-43 248q0 176 73 333q71 155 203.5 249t304.5 94q128 0 212.5 -56t126.5 -160.5t42 -248.5q0 -177 -70 -334q-70 -156 -200.5 -250.5t-302.5 -94.5zM504 151q75 0 129 47t89 124.5t51.5 168.5t16.5 179q0 94 -16.5 159.5
t-54 100t-97.5 34.5q-76 0 -131.5 -49t-91 -128t-53 -170.5t-17.5 -175.5q0 -142 43 -216t132 -74zM422 1308l17 168h525l-19 -168h-523z" />
    <glyph glyph-name="Obreve" unicode="&#x14e;" horiz-adv-x="1351" 
d="M599 -16q-165 0 -276.5 83t-168 222.5t-56.5 310.5q0 182 49 346t141.5 291.5t223 200t293.5 72.5q125 0 218 -48.5t155 -133.5t93 -197t31 -238q0 -183 -48 -347.5t-139 -291t-221.5 -198.5t-294.5 -72zM628 170q103 0 182 63.5t132 168t80 229t26 247.5q-2 151 -32 249
t-91 145.5t-153 47.5q-102 0 -180.5 -63.5t-132 -168t-80.5 -228t-27 -244.5q4 -231 73.5 -338.5t202.5 -107.5zM840 1636q-104 0 -174 44.5t-101.5 124.5t-21.5 183h150q6 -95 40 -140t116 -45q59 0 94.5 24t55.5 66t34 95h146q0 -98 -43.5 -178t-120 -127t-175.5 -47z" />
    <glyph glyph-name="obreve" unicode="&#x14f;" horiz-adv-x="1123" 
d="M468 -16q-130 0 -216.5 57.5t-129.5 162.5t-43 248q0 176 73 333q71 155 203.5 249t304.5 94q128 0 212.5 -56t126.5 -160.5t42 -248.5q0 -177 -70 -334q-70 -156 -200.5 -250.5t-302.5 -94.5zM504 151q75 0 129 47t89 124.5t51.5 168.5t16.5 179q0 94 -16.5 159.5
t-54 100t-97.5 34.5q-76 0 -131.5 -49t-91 -128t-53 -170.5t-17.5 -175.5q0 -142 43 -216t132 -74zM686 1262q-105 0 -175 45.5t-101 125t-21 183.5h150q4 -64 20 -105t49 -60.5t87 -19.5q59 0 94 23.5t55.5 65.5t34.5 96h146q0 -99 -43.5 -179t-120 -127.5t-175.5 -47.5z
" />
    <glyph glyph-name="Ohungarumlaut" unicode="&#x150;" horiz-adv-x="1351" 
d="M599 -16q-165 0 -276.5 83t-168 222.5t-56.5 310.5q0 182 49 346t141.5 291.5t223 200t293.5 72.5q125 0 218 -48.5t155 -133.5t93 -197t31 -238q0 -183 -48 -347.5t-139 -291t-221.5 -198.5t-294.5 -72zM628 170q103 0 182 63.5t132 168t80 229t26 247.5q-2 151 -32 249
t-91 145.5t-153 47.5q-102 0 -180.5 -63.5t-132 -168t-80.5 -228t-27 -244.5q4 -231 73.5 -338.5t202.5 -107.5zM1038 1601l-96 59l248 418l162 -123q-15 -35 -52 -87.5t-85.5 -107.5t-95.5 -98.5t-81 -60.5zM604 1601l-99 59l241 418l158 -120q-14 -37 -49.5 -89.5
t-80.5 -106t-90 -97.5t-80 -64z" />
    <glyph glyph-name="ohungarumlaut" unicode="&#x151;" horiz-adv-x="1123" 
d="M468 -16q-130 0 -216.5 57.5t-129.5 162.5t-43 248q0 176 73 333q71 155 203.5 249t304.5 94q128 0 212.5 -56t126.5 -160.5t42 -248.5q0 -177 -70 -334q-70 -156 -200.5 -250.5t-302.5 -94.5zM504 151q75 0 129 47t89 124.5t51.5 168.5t16.5 179q0 94 -16.5 159.5
t-54 100t-97.5 34.5q-76 0 -131.5 -49t-91 -128t-53 -170.5t-17.5 -175.5q0 -142 43 -216t132 -74zM859 1222l-105 62l250 418l165 -125q-13 -34 -50 -87.5t-85 -109t-95 -99t-80 -59.5zM425 1222l-107 62l241 418l163 -122q-14 -38 -49 -90.5t-79.5 -107t-89.5 -98
t-79 -62.5z" />
    <glyph glyph-name="OE" unicode="&#x152;" horiz-adv-x="2054" 
d="M599 -16q-164 0 -275.5 82.5t-168.5 222t-57 311.5q0 182 49.5 346t142 291t222.5 200t293 73q150 0 252.5 -72.5t160.5 -200.5l18 257h775l-17 -193l-574 5l-59 -450l432 6l-20 -200l-435 14l-65 -489l674 13l-22 -200h-886l46 233q-91 -119 -213.5 -184t-272.5 -65z
M628 170q103 0 182 63.5t132 168t80 229t26 247.5q-2 143 -30.5 241.5t-89 149.5t-156.5 51q-102 0 -180.5 -63.5t-132 -168t-80.5 -228t-27 -244.5q4 -231 74 -338.5t202 -107.5z" />
    <glyph glyph-name="oe" unicode="&#x153;" horiz-adv-x="1737" 
d="M468 -16q-130 0 -216.5 57.5t-129.5 162.5t-43 248q0 176 73 333q71 155 203.5 249t304.5 94q128 0 212.5 -56t126.5 -160.5t42 -248.5q0 -177 -70 -334q-70 -156 -200.5 -250.5t-302.5 -94.5zM504 151q75 0 129 47t89 124.5t51.5 168.5t16.5 179q0 94 -16.5 159.5
t-54 100t-97.5 34.5q-76 0 -131.5 -49t-91 -128t-53 -170.5t-17.5 -175.5q0 -142 43 -216t132 -74zM1179 -16q-136 0 -225 61q-90 62 -132 161.5t-41 218.5q1 193 81 358q77 161 212.5 253t305.5 92q96 0 160.5 -34.5t97.5 -91t33 -122.5q0 -106 -53.5 -188t-144 -141
t-203.5 -96t-232 -54v-15v-16q3 -91 45.5 -148.5t138.5 -57.5q53 0 109.5 19.5t111.5 55t101 82.5l65 -129q-26 -35 -74.5 -72t-110 -68t-125.5 -49.5t-120 -18.5zM1040 550q64 2 132 27.5t127 68t95.5 97t36.5 115.5q0 59 -26.5 84.5t-79.5 25.5q-41 0 -76.5 -20.5
t-69.5 -57.5q-62 -68 -96.5 -163t-42.5 -177z" />
    <glyph glyph-name="Racute" unicode="&#x154;" horiz-adv-x="1265" 
d="M93 0l198 1494h133q28 0 85.5 4t117 8t92.5 4q242 0 363 -94t121 -274q0 -178 -85.5 -309.5t-251.5 -183.5q26 -23 51 -65t47.5 -92.5t38.5 -100.5q32 -83 62.5 -160.5t58.5 -138t50 -92.5h-277q-10 17 -23 48.5t-27.5 72t-30 86t-30.5 91.5q-16 54 -35.5 108t-42.5 99.5
t-49 74t-56 30.5l-183 1l-81 -611h-246zM654 803q102 0 168 43.5t98 118.5t30 171q-1 99 -65.5 146.5t-191.5 47.5q-25 0 -60.5 -2t-68 -5.5t-50.5 -6.5l-69 -511q26 -1 78 -1.5t131 -0.5zM706 1634l-95 78l310 407l168 -148q-14 -26 -48 -64.5t-79 -81.5t-93 -82.5t-91 -69
t-72 -39.5z" />
    <glyph glyph-name="racute" unicode="&#x155;" horiz-adv-x="808" 
d="M78 0l152 1114h236l-19 -209q26 51 72.5 102.5t110.5 86t140 34.5q50 0 63 -12l-51 -255q-11 9 -36.5 13.5t-57.5 4.5q-57 0 -107 -29.5t-91.5 -77t-73.5 -101.5l-93 -671h-245zM523 1290l-85 78l309 408l159 -149q-14 -26 -47.5 -64.5t-79 -81.5t-93.5 -82.5t-91 -69
t-72 -39.5z" />
    <glyph glyph-name="uni0156" unicode="&#x156;" horiz-adv-x="1265" 
d="M93 0l198 1494h133q28 0 85.5 4t117 8t92.5 4q242 0 363 -94t121 -274q0 -178 -85.5 -309.5t-251.5 -183.5q26 -23 51 -65t47.5 -92.5t38.5 -100.5q32 -83 62.5 -160.5t58.5 -138t50 -92.5h-277q-10 17 -23 48.5t-27.5 72t-30 86t-30.5 91.5q-16 54 -35.5 108t-42.5 99.5
t-49 74t-56 30.5l-183 1l-81 -611h-246zM654 803q102 0 168 43.5t98 118.5t30 171q-1 99 -65.5 146.5t-191.5 47.5q-25 0 -60.5 -2t-68 -5.5t-50.5 -6.5l-69 -511q26 -1 78 -1.5t131 -0.5zM452 -657l-85 56l4 25q32 24 49 56.5t17 82.5q0 36 -20.5 67.5t-49.5 36.5l9 66
l144 102q60 -15 93 -71.5t33 -130.5q0 -70 -28 -133t-71.5 -105.5t-94.5 -51.5z" />
    <glyph glyph-name="uni0157" unicode="&#x157;" horiz-adv-x="808" 
d="M78 0l152 1114h236l-19 -209q26 51 72.5 102.5t110.5 86t140 34.5q50 0 63 -12l-51 -255q-11 9 -36.5 13.5t-57.5 4.5q-57 0 -107 -29.5t-91.5 -77t-73.5 -101.5l-93 -671h-245zM131 -656l-85 56l4 25q32 24 47 55t16 82q2 41 -18 73.5t-49 36.5l7 61l138 102
q59 -15 95.5 -72t36.5 -131q0 -70 -27 -132.5t-71 -104.5t-94 -51z" />
    <glyph glyph-name="Rcaron" unicode="&#x158;" horiz-adv-x="1265" 
d="M93 0l198 1494h133q28 0 85.5 4t117 8t92.5 4q242 0 363 -94t121 -274q0 -178 -85.5 -309.5t-251.5 -183.5q26 -23 51 -65t47.5 -92.5t38.5 -100.5q32 -83 62.5 -160.5t58.5 -138t50 -92.5h-277q-10 17 -23 48.5t-27.5 72t-30 86t-30.5 91.5q-16 54 -35.5 108t-42.5 99.5
t-49 74t-56 30.5l-183 1l-81 -611h-246zM654 803q102 0 168 43.5t98 118.5t30 171q-1 99 -65.5 146.5t-191.5 47.5q-25 0 -60.5 -2t-68 -5.5t-50.5 -6.5l-69 -511q26 -1 78 -1.5t131 -0.5zM650 1634l-227 322l99 80l233 -220l292 220l102 -78l-326 -324h-173z" />
    <glyph glyph-name="rcaron" unicode="&#x159;" horiz-adv-x="808" 
d="M78 0l152 1114h236l-19 -209q26 51 72.5 102.5t110.5 86t140 34.5q50 0 63 -12l-51 -255q-11 9 -36.5 13.5t-57.5 4.5q-57 0 -107 -29.5t-91.5 -77t-73.5 -101.5l-93 -671h-245zM496 1274l-233 320l96 85l240 -227l294 227l93 -84l-316 -321h-174z" />
    <glyph glyph-name="Sacute" unicode="&#x15a;" horiz-adv-x="1021" 
d="M384 -16q-45 0 -100 8t-108.5 21t-96 29.5t-62.5 33.5l75 199q24 -24 76.5 -46t113.5 -36t110 -14q82 0 143 22.5t95 67.5t34 113q0 75 -49.5 143.5t-153.5 138.5q-87 61 -151.5 126t-100.5 141.5t-36 169.5q0 132 63 223t171.5 138.5t243.5 47.5q120 0 207.5 -25
t133.5 -59l-78 -190q-39 39 -114 61t-144 22q-67 0 -121.5 -18.5t-86.5 -58t-34 -101.5q-1 -52 29.5 -107.5t79.5 -106.5t105 -91q89 -63 154 -125.5t100.5 -133t35.5 -159.5q0 -147 -71 -243t-191.5 -143.5t-271.5 -47.5zM641 1634l-95 78l310 407l168 -148
q-14 -26 -48 -64.5t-79 -81.5t-93 -82.5t-91 -69t-72 -39.5z" />
    <glyph glyph-name="sacute" unicode="&#x15b;" horiz-adv-x="887" 
d="M347 -16q-60 0 -122 8.5t-110 22.5t-69 30l44 204q33 -24 77 -43.5t92.5 -31.5t90.5 -12q77 0 125.5 28t48.5 91q0 36 -15.5 66t-53.5 64.5t-103 87.5q-83 68 -135.5 140t-52.5 178q0 104 54.5 173.5t145.5 103.5t199 34q54 0 104.5 -5.5t90.5 -14t59 -17.5l-38 -217
q-16 19 -50.5 37t-78.5 29.5t-89 11.5q-75 0 -121 -30.5t-46 -86.5q0 -42 19.5 -76.5t55 -66t80.5 -68.5q59 -44 106.5 -94.5t75 -107.5t27.5 -121q0 -111 -56 -181t-149.5 -103t-205.5 -33zM527 1290l-85 78l309 408l159 -149q-14 -26 -47.5 -64.5t-79 -81.5t-93.5 -82.5
t-91 -69t-72 -39.5z" />
    <glyph glyph-name="Scircumflex" unicode="&#x15c;" horiz-adv-x="1021" 
d="M384 -16q-45 0 -100 8t-108.5 21t-96 29.5t-62.5 33.5l75 199q24 -24 76.5 -46t113.5 -36t110 -14q82 0 143 22.5t95 67.5t34 113q0 75 -49.5 143.5t-153.5 138.5q-87 61 -151.5 126t-100.5 141.5t-36 169.5q0 132 63 223t171.5 138.5t243.5 47.5q120 0 207.5 -25
t133.5 -59l-78 -190q-39 39 -114 61t-144 22q-67 0 -121.5 -18.5t-86.5 -58t-34 -101.5q-1 -52 29.5 -107.5t79.5 -106.5t105 -91q89 -63 154 -125.5t100.5 -133t35.5 -159.5q0 -147 -71 -243t-191.5 -143.5t-271.5 -47.5zM406 1622l-96 72l334 355h175l193 -355l-112 -67
l-196 217z" />
    <glyph glyph-name="scircumflex" unicode="&#x15d;" horiz-adv-x="887" 
d="M347 -16q-60 0 -122 8.5t-110 22.5t-69 30l44 204q33 -24 77 -43.5t92.5 -31.5t90.5 -12q77 0 125.5 28t48.5 91q0 36 -15.5 66t-53.5 64.5t-103 87.5q-83 68 -135.5 140t-52.5 178q0 104 54.5 173.5t145.5 103.5t199 34q54 0 104.5 -5.5t90.5 -14t59 -17.5l-38 -217
q-16 19 -50.5 37t-78.5 29.5t-89 11.5q-75 0 -121 -30.5t-46 -86.5q0 -42 19.5 -76.5t55 -66t80.5 -68.5q59 -44 106.5 -94.5t75 -107.5t27.5 -121q0 -111 -56 -181t-149.5 -103t-205.5 -33zM332 1238l-96 73l334 351h175l193 -351l-111 -68l-197 232z" />
    <glyph glyph-name="Scedilla" unicode="&#x15e;" horiz-adv-x="1021" 
d="M384 -16q-45 0 -100 8t-108.5 21t-96 29.5t-62.5 33.5l75 199q24 -24 76.5 -46t113.5 -36t110 -14q82 0 143 22.5t95 67.5t34 113q0 75 -49.5 143.5t-153.5 138.5q-87 61 -151.5 126t-100.5 141.5t-36 169.5q0 132 63 223t171.5 138.5t243.5 47.5q120 0 207.5 -25
t133.5 -59l-78 -190q-39 39 -114 61t-144 22q-67 0 -121.5 -18.5t-86.5 -58t-34 -101.5q-1 -52 29.5 -107.5t79.5 -106.5t105 -91q89 -63 154 -125.5t100.5 -133t35.5 -159.5q0 -147 -71 -243t-191.5 -143.5t-271.5 -47.5zM262 -456q-53 0 -107.5 10.5t-71.5 21.5l28 165
q14 -6 39 -11t71 -5q54 0 98.5 36.5t45.5 125.5q1 58 -1 90.5t-6 52.5l61 4l67 -4q20 -30 35 -84t15 -123q0 -143 -75 -211t-199 -68z" />
    <glyph glyph-name="scedilla" unicode="&#x15f;" horiz-adv-x="887" 
d="M347 -16q-60 0 -122 8.5t-110 22.5t-69 30l44 204q33 -24 77 -43.5t92.5 -31.5t90.5 -12q77 0 125.5 28t48.5 91q0 36 -15.5 66t-53.5 64.5t-103 87.5q-83 68 -135.5 140t-52.5 178q0 104 54.5 173.5t145.5 103.5t199 34q54 0 104.5 -5.5t90.5 -14t59 -17.5l-38 -217
q-16 19 -50.5 37t-78.5 29.5t-89 11.5q-75 0 -121 -30.5t-46 -86.5q0 -42 19.5 -76.5t55 -66t80.5 -68.5q59 -44 106.5 -94.5t75 -107.5t27.5 -121q0 -111 -56 -181t-149.5 -103t-205.5 -33zM211 -456q-53 0 -107.5 10.5t-71.5 21.5l28 165q14 -6 39 -11t71 -5
q54 0 98.5 36.5t45.5 125.5q1 58 -1 90.5t-6 52.5l61 4l67 -4q20 -30 35 -84t15 -123q0 -143 -75 -211t-199 -68z" />
    <glyph glyph-name="Scaron" unicode="&#x160;" horiz-adv-x="1021" 
d="M384 -16q-45 0 -100 8t-108.5 21t-96 29.5t-62.5 33.5l75 199q24 -24 76.5 -46t113.5 -36t110 -14q82 0 143 22.5t95 67.5t34 113q0 75 -49.5 143.5t-153.5 138.5q-87 61 -151.5 126t-100.5 141.5t-36 169.5q0 132 63 223t171.5 138.5t243.5 47.5q120 0 207.5 -25
t133.5 -59l-78 -190q-39 39 -114 61t-144 22q-67 0 -121.5 -18.5t-86.5 -58t-34 -101.5q-1 -52 29.5 -107.5t79.5 -106.5t105 -91q89 -63 154 -125.5t100.5 -133t35.5 -159.5q0 -147 -71 -243t-191.5 -143.5t-271.5 -47.5zM585 1634l-227 322l99 80l233 -220l292 220
l102 -78l-326 -324h-173z" />
    <glyph glyph-name="scaron" unicode="&#x161;" horiz-adv-x="887" 
d="M347 -16q-60 0 -122 8.5t-110 22.5t-69 30l44 204q33 -24 77 -43.5t92.5 -31.5t90.5 -12q77 0 125.5 28t48.5 91q0 36 -15.5 66t-53.5 64.5t-103 87.5q-83 68 -135.5 140t-52.5 178q0 104 54.5 173.5t145.5 103.5t199 34q54 0 104.5 -5.5t90.5 -14t59 -17.5l-38 -217
q-16 19 -50.5 37t-78.5 29.5t-89 11.5q-75 0 -121 -30.5t-46 -86.5q0 -42 19.5 -76.5t55 -66t80.5 -68.5q59 -44 106.5 -94.5t75 -107.5t27.5 -121q0 -111 -56 -181t-149.5 -103t-205.5 -33zM500 1274l-233 320l96 85l240 -227l294 227l93 -84l-316 -321h-174z" />
    <glyph glyph-name="uni0162" unicode="&#x162;" horiz-adv-x="1106" 
d="M350 0l172 1312l-394 -11l30 193h1026l-26 -193l-388 11l-172 -1312h-248zM303 -456q-53 0 -107.5 10.5t-71.5 21.5l28 165q14 -6 39 -11t71 -5q54 0 98.5 36.5t45.5 125.5q1 58 -1 90.5t-6 52.5l61 4l67 -4q20 -30 35 -84t15 -123q0 -143 -75 -211t-199 -68z" />
    <glyph glyph-name="uni0163" unicode="&#x163;" horiz-adv-x="751" 
d="M325 -17q-89 0 -142 45.5t-53 141.5q0 12 1.5 35.5t4.5 54t7 64.5l78 616h-102l39 174h104l72 271h195l-37 -271h243l-22 -174h-244q-20 -156 -35 -268t-25.5 -188t-16 -122.5t-7.5 -71t-2 -35.5q0 -40 12 -65t46 -25q22 0 59 14t75 35.5t61 41.5l34 -127
q-32 -35 -90 -68.5t-126 -55.5t-129 -22zM142 -456q-53 0 -107.5 10.5t-71.5 21.5l28 165q14 -6 39 -11t71 -5q54 0 98.5 36.5t45.5 125.5q1 58 -1 90.5t-6 52.5l61 4l67 -4q20 -30 35 -84t15 -123q0 -143 -75 -211t-199 -68z" />
    <glyph glyph-name="Tcaron" unicode="&#x164;" horiz-adv-x="1106" 
d="M350 0l172 1312l-394 -11l30 193h1026l-26 -193l-388 11l-172 -1312h-248zM612 1636l-227 322l99 80l233 -220l292 220l102 -78l-326 -324h-173z" />
    <glyph glyph-name="tcaron" unicode="&#x165;" horiz-adv-x="757" 
d="M797 1217l-114 35l-6 25q18 71 29 149.5t11 150.5q0 64 -7.5 116.5t-20.5 73.5l11 35l192 45q17 -30 24 -83t7 -127q0 -70 -15.5 -148.5t-43.5 -149.5t-67 -122zM325 -17q-89 0 -142 45.5t-53 141.5q0 12 1.5 35.5t4.5 54t7 64.5l78 616h-102l39 174h104l72 271h195
l-37 -271h243l-22 -174h-244q-20 -156 -35 -268t-25.5 -188t-16 -122.5t-7.5 -71t-2 -35.5q0 -40 12 -65t46 -25q22 0 59 14t75 35.5t61 41.5l34 -127q-32 -35 -90 -68.5t-126 -55.5t-129 -22z" />
    <glyph glyph-name="Tbar" unicode="&#x166;" horiz-adv-x="1111" 
d="M354 0l88 676h-249l21 167h251l62 469l-395 -11l30 193h1026l-27 -193l-387 11l-61 -469h257l-21 -167h-258l-89 -676h-248z" />
    <glyph glyph-name="tbar" unicode="&#x167;" horiz-adv-x="757" 
d="M696 731l-22 -160h-603l22 160h603zM325 -17q-89 0 -142 45.5t-53 141.5q0 12 1.5 35.5t4.5 54t7 64.5l78 616h-102l39 174h104l72 271h195l-37 -271h243l-22 -174h-244q-20 -156 -35 -268t-25.5 -188t-16 -122.5t-7.5 -71t-2 -35.5q0 -40 12 -65t46 -25q22 0 59 14
t75 35.5t61 41.5l34 -127q-32 -35 -90 -68.5t-126 -55.5t-129 -22z" />
    <glyph glyph-name="Utilde" unicode="&#x168;" horiz-adv-x="1357" 
d="M594 -16q-228 0 -345 116.5t-117 325.5q0 26 3.5 61t10.5 95l118 912h247l-116 -876q-5 -50 -9 -95t-4 -84q0 -134 62.5 -196.5t186.5 -62.5q103 0 172 51t110.5 150t61.5 244l114 869h242l-117 -892q-15 -111 -41.5 -201.5t-64.5 -157.5q-76 -136 -203 -197.5
t-311 -61.5zM972 1652q-56 0 -103 23.5t-81 58.5q-28 30 -50.5 45t-54.5 15q-37 0 -65 -20t-60 -69l-83 101q22 45 58 84t81 62.5t90 23.5q50 0 96 -23t82 -62q27 -29 48 -42t45 -13q29 0 52.5 13.5t43.5 38t37 59.5l84 -106q-16 -49 -49 -92t-77.5 -70t-93.5 -27z" />
    <glyph glyph-name="utilde" unicode="&#x169;" horiz-adv-x="1184" 
d="M366 -20q-127 0 -194.5 65.5t-67.5 210.5q0 36 6.5 103t18.5 160q12 87 26.5 190t29 207.5t27.5 197.5h245q-4 -27 -11.5 -82.5t-17.5 -126t-20 -144.5t-18.5 -138.5t-14.5 -105.5q-10 -81 -15 -137t-5 -87q0 -64 27 -90.5t83 -26.5q46 0 99 30.5t105 82.5t93 117l96 708
h245l-150 -1114h-223l16 204q-71 -98 -170 -161t-210 -63zM830 1241q-57 0 -104 23.5t-81 57.5q-28 31 -50.5 46t-54.5 15q-37 0 -65 -20t-60 -69l-83 101q33 68 97.5 119.5t131.5 51.5q50 0 96 -24t82 -62q27 -29 48 -42t46 -13q28 0 51.5 13t43.5 38t37 59l86 -106
q-16 -48 -49.5 -91.5t-78 -70t-93.5 -26.5z" />
    <glyph glyph-name="Umacron" unicode="&#x16a;" horiz-adv-x="1357" 
d="M594 -16q-228 0 -345 116.5t-117 325.5q0 26 3.5 61t10.5 95l118 912h247l-116 -876q-5 -50 -9 -95t-4 -84q0 -134 62.5 -196.5t186.5 -62.5q103 0 172 51t110.5 150t61.5 244l114 869h242l-117 -892q-15 -111 -41.5 -201.5t-64.5 -157.5q-76 -136 -203 -197.5
t-311 -61.5zM566 1656l9 167h524l-10 -167h-523z" />
    <glyph glyph-name="umacron" unicode="&#x16b;" horiz-adv-x="1184" 
d="M366 -20q-127 0 -194.5 65.5t-67.5 210.5q0 36 6.5 103t18.5 160q12 87 26.5 190t29 207.5t27.5 197.5h245q-4 -27 -11.5 -82.5t-17.5 -126t-20 -144.5t-18.5 -138.5t-14.5 -105.5q-10 -81 -15 -137t-5 -87q0 -64 27 -90.5t83 -26.5q46 0 99 30.5t105 82.5t93 117l96 708
h245l-150 -1114h-223l16 204q-71 -98 -170 -161t-210 -63zM429 1308l17 168h525l-19 -168h-523z" />
    <glyph glyph-name="Ubreve" unicode="&#x16c;" horiz-adv-x="1357" 
d="M594 -16q-228 0 -345 116.5t-117 325.5q0 26 3.5 61t10.5 95l118 912h247l-116 -876q-5 -50 -9 -95t-4 -84q0 -134 62.5 -196.5t186.5 -62.5q103 0 172 51t110.5 150t61.5 244l114 869h242l-117 -892q-15 -111 -41.5 -201.5t-64.5 -157.5q-76 -136 -203 -197.5
t-311 -61.5zM821 1636q-104 0 -174 44.5t-101.5 124.5t-21.5 183h150q6 -95 40 -140t116 -45q59 0 94.5 24t55.5 66t34 95h146q0 -98 -43.5 -178t-120 -127t-175.5 -47z" />
    <glyph glyph-name="ubreve" unicode="&#x16d;" horiz-adv-x="1184" 
d="M366 -20q-127 0 -194.5 65.5t-67.5 210.5q0 36 6.5 103t18.5 160q12 87 26.5 190t29 207.5t27.5 197.5h245q-4 -27 -11.5 -82.5t-17.5 -126t-20 -144.5t-18.5 -138.5t-14.5 -105.5q-10 -81 -15 -137t-5 -87q0 -64 27 -90.5t83 -26.5q46 0 99 30.5t105 82.5t93 117l96 708
h245l-150 -1114h-223l16 204q-71 -98 -170 -161t-210 -63zM693 1262q-105 0 -175 45.5t-101 125t-21 183.5h150q4 -64 20 -105t49 -60.5t87 -19.5q59 0 94 23.5t55.5 65.5t34.5 96h146q0 -99 -43.5 -179t-120 -127.5t-175.5 -47.5z" />
    <glyph glyph-name="Uring" unicode="&#x16e;" horiz-adv-x="1357" 
d="M594 -16q-228 0 -345 116.5t-117 325.5q0 26 3.5 61t10.5 95l118 912h247l-116 -876q-5 -50 -9 -95t-4 -84q0 -134 62.5 -196.5t186.5 -62.5q103 0 172 51t110.5 150t61.5 244l114 869h242l-117 -892q-15 -111 -41.5 -201.5t-64.5 -157.5q-76 -136 -203 -197.5
t-311 -61.5zM818 1633q-138 0 -214.5 65.5t-76.5 182.5q0 94 53 156q53 63 135 93t167 30q128 0 203.5 -65.5t75.5 -183.5q0 -92 -47 -152q-48 -63 -127 -94.5t-169 -31.5zM828 1750q82 0 129 36t47 125q0 58 -39.5 95t-101.5 37q-74 0 -128 -37t-54 -121q0 -56 44.5 -95.5
t102.5 -39.5z" />
    <glyph glyph-name="uring" unicode="&#x16f;" horiz-adv-x="1184" 
d="M366 -20q-127 0 -194.5 65.5t-67.5 210.5q0 36 6.5 103t18.5 160q12 87 26.5 190t29 207.5t27.5 197.5h245q-4 -27 -11.5 -82.5t-17.5 -126t-20 -144.5t-18.5 -138.5t-14.5 -105.5q-10 -81 -15 -137t-5 -87q0 -64 27 -90.5t83 -26.5q46 0 99 30.5t105 82.5t93 117l96 708
h245l-150 -1114h-223l16 204q-71 -98 -170 -161t-210 -63zM681 1224q-137 0 -214 64.5t-77 182.5q0 94 53 156q53 64 135.5 93.5t167.5 29.5q128 0 203.5 -65t75.5 -184q0 -92 -47 -152q-48 -63 -127 -94t-170 -31zM692 1341q82 0 129 36t47 125q0 58 -40 95t-101 37
q-74 0 -128 -37.5t-54 -121.5q0 -56 44 -95t103 -39z" />
    <glyph glyph-name="Uhungarumlaut" unicode="&#x170;" horiz-adv-x="1357" 
d="M594 -16q-228 0 -345 116.5t-117 325.5q0 26 3.5 61t10.5 95l118 912h247l-116 -876q-5 -50 -9 -95t-4 -84q0 -134 62.5 -196.5t186.5 -62.5q103 0 172 51t110.5 150t61.5 244l114 869h242l-117 -892q-15 -111 -41.5 -201.5t-64.5 -157.5q-76 -136 -203 -197.5
t-311 -61.5zM1019 1601l-96 59l248 418l162 -123q-15 -35 -52 -87.5t-85.5 -107.5t-95.5 -98.5t-81 -60.5zM585 1601l-99 59l241 418l158 -120q-14 -37 -49.5 -89.5t-80.5 -106t-90 -97.5t-80 -64z" />
    <glyph glyph-name="uhungarumlaut" unicode="&#x171;" horiz-adv-x="1184" 
d="M366 -20q-127 0 -194.5 65.5t-67.5 210.5q0 36 6.5 103t18.5 160q12 87 26.5 190t29 207.5t27.5 197.5h245q-4 -27 -11.5 -82.5t-17.5 -126t-20 -144.5t-18.5 -138.5t-14.5 -105.5q-10 -81 -15 -137t-5 -87q0 -64 27 -90.5t83 -26.5q46 0 99 30.5t105 82.5t93 117l96 708
h245l-150 -1114h-223l16 204q-71 -98 -170 -161t-210 -63zM866 1222l-105 62l250 418l165 -125q-13 -34 -50 -87.5t-85 -109t-95 -99t-80 -59.5zM432 1222l-107 62l241 418l163 -122q-14 -38 -49 -90.5t-79.5 -107t-89.5 -98t-79 -62.5z" />
    <glyph glyph-name="Uogonek" unicode="&#x172;" horiz-adv-x="1357" 
d="M594 -16q-228 0 -345 116.5t-117 325.5q0 26 3.5 61t10.5 95l118 912h247l-116 -876q-5 -50 -9 -95t-4 -84q0 -134 62.5 -196.5t186.5 -62.5q103 0 172 51t110.5 150t61.5 244l114 869h242l-117 -892q-15 -111 -41.5 -201.5t-64.5 -157.5q-76 -136 -203 -197.5
t-311 -61.5zM513 -453q-83 0 -135.5 46t-52.5 112q0 48 21 89.5t58 78.5t87.5 69t109.5 60l88 42l73 -44q-110 -72 -165.5 -126.5t-55.5 -102.5q0 -37 18.5 -52t43.5 -15q36 0 67.5 14t72.5 43l49 -102q-34 -31 -74 -56.5t-90.5 -40.5t-114.5 -15z" />
    <glyph glyph-name="uogonek" unicode="&#x173;" horiz-adv-x="1184" 
d="M366 -20q-127 0 -194.5 65.5t-67.5 210.5q0 36 6.5 103t18.5 160q12 87 26.5 190t29 207.5t27.5 197.5h245q-4 -27 -11.5 -82.5t-17.5 -126t-20 -144.5t-18.5 -138.5t-14.5 -105.5q-10 -81 -15 -137t-5 -87q0 -64 27 -90.5t83 -26.5q46 0 99 30.5t105 82.5t93 117l96 708
h245l-150 -1114h-223l16 204q-71 -98 -170 -161t-210 -63zM724 -440q-85 0 -137 46t-52 111q0 59 35 109.5t91.5 93.5t118.5 80l98 56l75 -56q-90 -63 -146.5 -116.5t-56.5 -99.5q0 -37 18.5 -52t45.5 -15q33 0 65.5 14t73.5 43l49 -102q-50 -46 -122 -79t-156 -33z" />
    <glyph glyph-name="Wcircumflex" unicode="&#x174;" horiz-adv-x="1742" 
d="M325 -6l-211 1500h246l110 -1030l27 -213l62 213l306 778l-27 252h238l93 -1030l17 -213l66 213l379 1030h251l-603 -1500h-268l-81 734l-14 167l-57 -167l-278 -734h-256zM750 1624l-96 72l334 355h175l193 -355l-112 -67l-196 217z" />
    <glyph glyph-name="wcircumflex" unicode="&#x175;" horiz-adv-x="1658" 
d="M264 -11l-57 359l-107 766h261l65 -724l12 -202l105 146q54 86 97.5 171.5t74.5 173.5t50 182l-33 253h252l60 -724l15 -202l104 142q54 87 94 165.5t67.5 161t45.5 181.5q11 69 15.5 146.5t3.5 129.5h231q1 -25 1.5 -60.5t-0.5 -67.5q-6 -163 -65 -318t-175 -319
t-295 -355l-199 -5l-52 329l-24 175q-38 -81 -84 -158.5t-108.5 -160t-151.5 -180.5zM673 1238l-96 73l334 351h175l193 -351l-111 -68l-197 232z" />
    <glyph glyph-name="Ycircumflex" unicode="&#x176;" horiz-adv-x="1085" 
d="M351 0l76 576l-345 918h259l207 -619l29 -94l43 94l359 619h269l-582 -918l-77 -576h-238zM423 1624l-96 72l334 355h175l193 -355l-112 -67l-196 217z" />
    <glyph glyph-name="ycircumflex" unicode="&#x177;" horiz-adv-x="1056" 
d="M22 -495q-41 0 -91 13.5t-87 29.5l66 186q24 -15 59.5 -27.5t75.5 -12.5q80 0 144.5 38.5t121.5 104t111 145.5h-148l-61 366l-108 766h257l79 -731l37 -301q31 59 57 113.5t47 105.5q56 102 94 205.5t61.5 218.5t35.5 247q2 30 3.5 70.5t2.5 71.5h230q3 -21 2.5 -60
t-1.5 -77q-8 -164 -60 -344.5t-150 -374.5q-49 -101 -116.5 -210.5t-143.5 -211t-151 -179.5q-62 -63 -153 -107.5t-214 -44.5zM361 1238l-96 73l334 351h175l193 -351l-111 -68l-197 232z" />
    <glyph glyph-name="Ydieresis" unicode="&#x178;" horiz-adv-x="1085" 
d="M351 0l76 576l-345 918h259l207 -619l29 -94l43 94l359 619h269l-582 -918l-77 -576h-238zM469 1641q-49 0 -86.5 39t-37.5 89q0 72 45 117t109 45q57 0 94.5 -37.5t37.5 -89.5q0 -68 -42.5 -115.5t-119.5 -47.5zM907 1641q-48 0 -86 39t-38 89q0 72 45.5 117t109.5 45
q57 0 94.5 -37.5t37.5 -89.5q0 -68 -42.5 -115.5t-120.5 -47.5z" />
    <glyph glyph-name="Zacute" unicode="&#x179;" horiz-adv-x="1130" 
d="M13 0l-27 86l760 1092l117 126l-639 -13l29 203h903l25 -84l-749 -1096l-109 -118l689 12l-32 -208h-967zM710 1636l-95 78l310 407l168 -148q-14 -26 -48 -64.5t-79 -81.5t-93 -82.5t-91 -69t-72 -39.5z" />
    <glyph glyph-name="zacute" unicode="&#x17a;" horiz-adv-x="948" 
d="M17 0l-51 53l559 750l120 120h-490l27 191h739l42 -49l-565 -767l-108 -107h537l-19 -191h-791zM534 1290l-85 78l309 408l159 -149q-14 -26 -47.5 -64.5t-79 -81.5t-93.5 -82.5t-91 -69t-72 -39.5z" />
    <glyph glyph-name="Zdotaccent" unicode="&#x17b;" horiz-adv-x="1130" 
d="M13 0l-27 86l760 1092l117 126l-639 -13l29 203h903l25 -84l-749 -1096l-109 -118l689 12l-32 -208h-967zM737 1636q-51 0 -91.5 38t-40.5 90q0 66 49 114.5t117 48.5q59 0 98 -36t39 -89q0 -68 -49.5 -117t-121.5 -49z" />
    <glyph glyph-name="zdotaccent" unicode="&#x17c;" horiz-adv-x="948" 
d="M17 0l-51 53l559 750l120 120h-490l27 191h739l42 -49l-565 -767l-108 -107h537l-19 -191h-791zM592 1286q-52 0 -92 38.5t-40 90.5q0 65 49 114.5t117 49.5q59 0 98 -36t39 -89q0 -69 -49 -118.5t-122 -49.5z" />
    <glyph glyph-name="Zcaron" unicode="&#x17d;" horiz-adv-x="1130" 
d="M13 0l-27 86l760 1092l117 126l-639 -13l29 203h903l25 -84l-749 -1096l-109 -118l689 12l-32 -208h-967zM654 1636l-227 322l99 80l233 -220l292 220l102 -78l-326 -324h-173z" />
    <glyph glyph-name="zcaron" unicode="&#x17e;" horiz-adv-x="948" 
d="M17 0l-51 53l559 750l120 120h-490l27 191h739l42 -49l-565 -767l-108 -107h537l-19 -191h-791zM507 1274l-233 320l96 85l240 -227l294 227l93 -84l-316 -321h-174z" />
    <glyph glyph-name="uni018F" unicode="&#x18f;" horiz-adv-x="1332" 
d="M586 -16q-118 0 -209.5 46.5t-154.5 130t-96 196t-33 243.5q-1 52 8.5 103t16.5 83h956l-29 -184h-710q-2 -99 15.5 -178.5t52.5 -136.5t89.5 -87t127.5 -30q98 0 174.5 58t129.5 157.5t80 226.5t25 265q-2 151 -36.5 246.5t-110 140t-197.5 44.5t-225.5 -31.5
t-159.5 -66.5l-5 226q78 26 147 42.5t135 24t135 7.5q153 0 261.5 -48.5t177 -133.5t100.5 -197t32 -238q0 -183 -46 -347t-134.5 -290.5t-218.5 -199t-298 -72.5z" />
    <glyph glyph-name="florin" unicode="&#x192;" horiz-adv-x="1040" 
d="M204 -348l173 1290h-192l17 128l198 44l14 93q22 137 81.5 233t149.5 145.5t202 49.5q45 0 90 -5.5t70 -13.5l-28 -188q-22 13 -51.5 24.5t-80.5 11.5q-80 0 -124 -44t-61 -158l-22 -148h238l-17 -172h-243l-170 -1290h-244z" />
    <glyph glyph-name="Ohorn" unicode="&#x1a0;" horiz-adv-x="1352" 
d="M936 1307l27 156q93 0 149.5 20.5t85.5 55t40 77.5t13 88q1 12 3.5 22.5t0.5 16.5h184q2 -12 2.5 -22.5t-0.5 -21.5q-5 -131 -71 -218t-177.5 -130.5t-256.5 -43.5zM599 -16q-165 0 -276.5 83t-168 222.5t-56.5 310.5q0 182 49 346t141.5 291.5t223 200t293.5 72.5
q125 0 218 -48.5t155 -133.5t93 -197t31 -238q0 -183 -48 -347.5t-139 -291t-221.5 -198.5t-294.5 -72zM628 170q103 0 182 63.5t132 168t80 229t26 247.5q-2 151 -32 249t-91 145.5t-153 47.5q-102 0 -180.5 -63.5t-132 -168t-80.5 -228t-27 -244.5q4 -231 73.5 -338.5
t202.5 -107.5z" />
    <glyph glyph-name="ohorn" unicode="&#x1a1;" horiz-adv-x="1123" 
d="M468 -16q-130 0 -216.5 57.5t-129.5 162.5t-43 248q0 176 73 333q71 155 203.5 249t304.5 94q128 0 212.5 -56t126.5 -160.5t42 -248.5q0 -177 -70 -334q-70 -156 -200.5 -250.5t-302.5 -94.5zM504 151q75 0 129 47t89 124.5t51.5 168.5t16.5 179q0 94 -16.5 159.5
t-54 100t-97.5 34.5q-76 0 -131.5 -49t-91 -128t-53 -170.5t-17.5 -175.5q0 -142 43 -216t132 -74zM750 945l22 155q92 0 152.5 17t96.5 47t52 69t18 84q1 11 3 19.5t0 14.5h183q2 -12 3 -22.5t0 -21.5q-4 -128 -76 -208t-190.5 -117t-263.5 -37z" />
    <glyph glyph-name="Uhorn" unicode="&#x1af;" horiz-adv-x="1357" 
d="M594 -16q-228 0 -345 116.5t-117 325.5q0 26 3.5 61t10.5 95l118 912h247l-116 -876q-5 -50 -9 -95t-4 -84q0 -134 62.5 -196.5t186.5 -62.5q103 0 172 51t110.5 150t61.5 244l114 869h242l-117 -892q-15 -111 -41.5 -201.5t-64.5 -157.5q-76 -136 -203 -197.5
t-311 -61.5zM1089 1338l22 155q92 0 152.5 17t96.5 47t52 69t18 84q1 11 3 19.5t0 14.5h183q2 -12 3 -22.5t0 -21.5q-4 -128 -76 -208t-190.5 -117t-263.5 -37z" />
    <glyph glyph-name="uhorn" unicode="&#x1b0;" horiz-adv-x="1184" 
d="M366 -20q-127 0 -194.5 65.5t-67.5 210.5q0 36 6.5 103t18.5 160q12 87 26.5 190t29 207.5t27.5 197.5h245q-4 -27 -11.5 -82.5t-17.5 -126t-20 -144.5t-18.5 -138.5t-14.5 -105.5q-10 -81 -15 -137t-5 -87q0 -64 27 -90.5t83 -26.5q46 0 99 30.5t105 82.5t93 117l96 708
h245l-150 -1114h-223l16 204q-71 -98 -170 -161t-210 -63zM870 956l22 155q92 0 152.5 17t96.5 47t52 69t18 84q1 11 3 19.5t0 14.5h183q2 -12 3 -22.5t0 -21.5q-4 -128 -76 -208t-190.5 -117t-263.5 -37z" />
    <glyph glyph-name="uni01B7" unicode="&#x1b7;" horiz-adv-x="1037" 
d="M247 -14q-47 0 -99.5 5t-105.5 9l22 190q28 -4 62 -7t67.5 -5t58.5 -2q141 0 251.5 41t174.5 112t64 163q0 85 -46.5 134t-117 69.5t-143.5 17.5l-108 -50l23 193l300 288l183 158l-656 -1l26 193l870 2l-35 -252l-437 -405q150 -8 232 -59.5t114 -124.5t32 -148
q0 -119 -53 -215.5t-151 -164.5t-232.5 -104.5t-295.5 -36.5z" />
    <glyph glyph-name="uni01C4" unicode="&#x1c4;" horiz-adv-x="2490" 
d="M529 -16q-60 2 -111.5 5.5t-102 7t-107.5 3.5h-113l197 1494h116q15 0 47 1.5t72.5 4t82.5 5t77.5 4t54.5 1.5q294 0 430 -164.5t136 -458.5q0 -190 -54.5 -355t-156.5 -289t-245.5 -192.5t-322.5 -66.5zM569 168q160 3 269 105q110 101 162.5 263t52.5 347
q0 169 -37 267q-39 96 -119.5 137.5t-216.5 41.5q-37 0 -87.5 -5.5t-79.5 -11.5l-146 -1118q39 -14 93.5 -20.5t108.5 -5.5zM1373 0l-27 86l760 1092l117 126l-639 -13l29 203h903l25 -84l-749 -1096l-109 -118l689 12l-32 -208h-967zM2014 1636l-227 322l99 80l233 -220
l292 220l102 -78l-326 -324h-173z" />
    <glyph glyph-name="uni01C5" unicode="&#x1c5;" horiz-adv-x="2309" 
d="M529 -16q-60 2 -111.5 5.5t-102 7t-107.5 3.5h-113l197 1494h116q15 0 47 1.5t72.5 4t82.5 5t77.5 4t54.5 1.5q294 0 430 -164.5t136 -458.5q0 -190 -54.5 -355t-156.5 -289t-245.5 -192.5t-322.5 -66.5zM569 168q160 3 269 105q110 101 162.5 263t52.5 347
q0 169 -37 267q-39 96 -119.5 137.5t-216.5 41.5q-37 0 -87.5 -5.5t-79.5 -11.5l-146 -1118q39 -14 93.5 -20.5t108.5 -5.5zM1377 0l-51 53l559 750l120 120h-490l27 191h739l42 -49l-565 -767l-108 -107h537l-19 -191h-791zM1868 1274l-233 320l96 85l240 -227l294 227
l93 -84l-316 -321h-174z" />
    <glyph glyph-name="uni01C6" unicode="&#x1c6;" horiz-adv-x="2120" 
d="M386 -16q-158 0 -234.5 113.5t-76.5 306.5q0 173 73 342q48 111 129.5 197.5t194.5 135.5t253 49q27 0 57 -2t62 -8l66 480h240l-212 -1598h-220l16 216q-39 -64 -92 -116.5t-117.5 -84t-138.5 -31.5zM450 163q43 0 87 28t85 73t74.5 95.5t56.5 95.5l68 492
q-55 21 -124 21q-118 0 -201 -83t-125 -208t-42 -250q0 -74 11.5 -134t37.5 -95t72 -35zM1189 0l-51 53l559 750l120 120h-490l27 191h739l42 -49l-565 -767l-108 -107h537l-19 -191h-791zM1679 1274l-233 320l96 85l240 -227l294 227l93 -84l-316 -321h-174z" />
    <glyph glyph-name="uni01C7" unicode="&#x1c7;" horiz-adv-x="1612" 
d="M95 0l197 1494h246l-171 -1294l532 6l-28 -206h-776zM872 -322l-37 96q42 12 88.5 46t89 79.5t72 94t37.5 90.5q25 115 45 238t37 255.5t33 277t35 303.5t41 336h246l-129 -1010q-22 -175 -40 -277t-27 -133q-38 -130 -106.5 -213t-165.5 -127t-219 -56z" />
    <glyph glyph-name="uni01C8" unicode="&#x1c8;" horiz-adv-x="1579" 
d="M95 0l197 1494h246l-171 -1294l532 6l-28 -206h-776zM891 -507q-46 0 -83.5 9t-62.5 28l59 132q8 -5 24 -9t27 -4q61 0 102.5 35t69 94.5t44 134t27.5 153.5l143 1048h245l-151 -1112q-19 -142 -77 -257.5t-150.5 -183.5t-216.5 -68zM1393 1287q-50 0 -90 38t-40 90
q0 65 48.5 114t115.5 49q60 0 99 -35.5t39 -89.5q0 -68 -49.5 -117t-122.5 -49z" />
    <glyph glyph-name="uni01C9" unicode="&#x1c9;" horiz-adv-x="1192" 
d="M109 2l216 1596h245l-217 -1596h-244zM505 -507q-46 0 -83.5 9t-62.5 28l59 132q8 -5 24 -9t27 -4q61 0 102.5 35t69 94.5t44 134t27.5 153.5l143 1048h245l-151 -1112q-19 -142 -77 -257.5t-150.5 -183.5t-216.5 -68zM1007 1287q-50 0 -90 38t-40 90q0 65 48.5 114
t115.5 49q60 0 99 -35.5t39 -89.5q0 -68 -49.5 -117t-122.5 -49z" />
    <glyph glyph-name="uni01CA" unicode="&#x1ca;" horiz-adv-x="2009" 
d="M95 0l197 1494h236l400 -946l67 -221l17 247l111 920h235l-196 -1494h-224l-408 969l-67 241l-17 -283l-120 -927h-231zM1269 -322l-37 96q42 12 88.5 46t89 79.5t72 94t37.5 90.5q25 115 45 238t37 255.5t33 277t35 303.5t41 336h246l-129 -1010q-22 -175 -40 -277
t-27 -133q-38 -130 -106.5 -213t-165.5 -127t-219 -56z" />
    <glyph glyph-name="uni01CB" unicode="&#x1cb;" horiz-adv-x="1996" 
d="M95 0l197 1494h236l400 -946l67 -221l17 247l111 920h235l-196 -1494h-224l-408 969l-67 241l-17 -283l-120 -927h-231zM1308 -507q-46 0 -83.5 9t-62.5 28l59 132q8 -5 24 -9t27 -4q61 0 102.5 35t69 94.5t44 134t27.5 153.5l143 1048h245l-151 -1112
q-19 -142 -77 -257.5t-150.5 -183.5t-216.5 -68zM1810 1287q-50 0 -90 38t-40 90q0 65 48.5 114t115.5 49q60 0 99 -35.5t39 -89.5q0 -68 -49.5 -117t-122.5 -49z" />
    <glyph glyph-name="uni01CC" unicode="&#x1cc;" horiz-adv-x="1803" 
d="M78 0l152 1114h234l-19 -213q82 103 188.5 165t219.5 62q117 0 176.5 -66.5t59.5 -219.5q0 -23 -5 -71.5t-14 -117t-21 -152.5q-3 -24 -8 -60t-11.5 -83t-15 -103.5t-18.5 -120.5t-21 -134h-246q7 45 17 116.5t24 167.5t31 216t25.5 196.5t9.5 117.5q0 63 -22 85.5
t-73 22.5q-35 0 -79.5 -20.5t-90 -54t-85.5 -74t-67 -79.5l-96 -694h-245zM1115 -507q-46 0 -83.5 9t-62.5 28l59 132q8 -5 24 -9t27 -4q61 0 102.5 35t69 94.5t44 134t27.5 153.5l143 1048h245l-151 -1112q-19 -142 -77 -257.5t-150.5 -183.5t-216.5 -68zM1617 1287
q-50 0 -90 38t-40 90q0 65 48.5 114t115.5 49q60 0 99 -35.5t39 -89.5q0 -68 -49.5 -117t-122.5 -49z" />
    <glyph glyph-name="uni01CD" unicode="&#x1cd;" horiz-adv-x="1262" 
d="M-90 0l726 1494h292l260 -1494h-247l-53 350h-556l-156 -350h-266zM410 527h452l-99 669l-10 114l-47 -113zM700 1636l-227 322l99 80l233 -220l292 220l102 -78l-326 -324h-173z" />
    <glyph glyph-name="uni01CE" unicode="&#x1ce;" horiz-adv-x="1157" 
d="M387 -16q-158 0 -234.5 113.5t-76.5 306.5q0 150 45.5 280.5t130.5 230.5t203 156.5t265 56.5q52 0 114.5 -10.5t113.5 -25.5l135 36l-155 -1128h-218l15 204q-57 -92 -143.5 -156t-194.5 -64zM451 162q45 0 87 25.5t80.5 67t71 92.5t56.5 101l71 501q-56 19 -125 19
q-118 0 -200 -83t-122.5 -207.5t-40.5 -250.5q0 -69 11 -130t37.5 -98t73.5 -37zM648 1274l-233 320l96 85l240 -227l294 227l93 -84l-316 -321h-174z" />
    <glyph glyph-name="uni01CF" unicode="&#x1cf;" horiz-adv-x="609" 
d="M114 0l198 1494h246l-197 -1494h-247zM370 1634l-227 322l99 80l233 -220l292 220l102 -78l-326 -324h-173z" />
    <glyph glyph-name="uni01D0" unicode="&#x1d0;" horiz-adv-x="597" 
d="M107 0l151 1114h246l-152 -1114h-245zM312 1274l-233 320l96 85l240 -227l294 227l93 -84l-316 -321h-174z" />
    <glyph glyph-name="uni01D1" unicode="&#x1d1;" horiz-adv-x="1351" 
d="M599 -16q-165 0 -276.5 83t-168 222.5t-56.5 310.5q0 182 49 346t141.5 291.5t223 200t293.5 72.5q125 0 218 -48.5t155 -133.5t93 -197t31 -238q0 -183 -48 -347.5t-139 -291t-221.5 -198.5t-294.5 -72zM628 170q103 0 182 63.5t132 168t80 229t26 247.5q-2 151 -32 249
t-91 145.5t-153 47.5q-102 0 -180.5 -63.5t-132 -168t-80.5 -228t-27 -244.5q4 -231 73.5 -338.5t202.5 -107.5zM748 1636l-227 322l99 80l233 -220l292 220l102 -78l-326 -324h-173z" />
    <glyph glyph-name="uni01D2" unicode="&#x1d2;" horiz-adv-x="1123" 
d="M468 -16q-130 0 -216.5 57.5t-129.5 162.5t-43 248q0 176 73 333q71 155 203.5 249t304.5 94q128 0 212.5 -56t126.5 -160.5t42 -248.5q0 -177 -70 -334q-70 -156 -200.5 -250.5t-302.5 -94.5zM504 151q75 0 129 47t89 124.5t51.5 168.5t16.5 179q0 94 -16.5 159.5
t-54 100t-97.5 34.5q-76 0 -131.5 -49t-91 -128t-53 -170.5t-17.5 -175.5q0 -142 43 -216t132 -74zM590 1274l-233 320l96 85l240 -227l294 227l93 -84l-316 -321h-174z" />
    <glyph glyph-name="uni01D3" unicode="&#x1d3;" horiz-adv-x="1357" 
d="M594 -16q-228 0 -345 116.5t-117 325.5q0 26 3.5 61t10.5 95l118 912h247l-116 -876q-5 -50 -9 -95t-4 -84q0 -134 62.5 -196.5t186.5 -62.5q103 0 172 51t110.5 150t61.5 244l114 869h242l-117 -892q-15 -111 -41.5 -201.5t-64.5 -157.5q-76 -136 -203 -197.5
t-311 -61.5zM729 1636l-227 322l99 80l233 -220l292 220l102 -78l-326 -324h-173z" />
    <glyph glyph-name="uni01D4" unicode="&#x1d4;" horiz-adv-x="1184" 
d="M366 -20q-127 0 -194.5 65.5t-67.5 210.5q0 36 6.5 103t18.5 160q12 87 26.5 190t29 207.5t27.5 197.5h245q-4 -27 -11.5 -82.5t-17.5 -126t-20 -144.5t-18.5 -138.5t-14.5 -105.5q-10 -81 -15 -137t-5 -87q0 -64 27 -90.5t83 -26.5q46 0 99 30.5t105 82.5t93 117l96 708
h245l-150 -1114h-223l16 204q-71 -98 -170 -161t-210 -63zM597 1274l-233 320l96 85l240 -227l294 227l93 -84l-316 -321h-174z" />
    <glyph glyph-name="uni01D5" unicode="&#x1d5;" horiz-adv-x="1357" 
d="M594 -16q-228 0 -345 116.5t-117 325.5q0 26 3.5 61t10.5 95l118 912h247l-116 -876q-5 -50 -9 -95t-4 -84q0 -134 62.5 -196.5t186.5 -62.5q103 0 172 51t110.5 150t61.5 244l114 869h242l-117 -892q-15 -111 -41.5 -201.5t-64.5 -157.5q-76 -136 -203 -197.5
t-311 -61.5zM596 1641q-49 0 -86.5 39t-37.5 89q0 72 45 117t109 45q57 0 94.5 -37.5t37.5 -89.5q0 -68 -42.5 -115.5t-119.5 -47.5zM1034 1641q-48 0 -86 39t-38 89q0 72 45.5 117t109.5 45q57 0 94.5 -37.5t37.5 -89.5q0 -68 -42.5 -115.5t-120.5 -47.5zM622 2080l9 167
h524l-10 -167h-523z" />
    <glyph glyph-name="uni01D6" unicode="&#x1d6;" horiz-adv-x="1184" 
d="M366 -20q-127 0 -194.5 65.5t-67.5 210.5q0 36 6.5 103t18.5 160q12 87 26.5 190t29 207.5t27.5 197.5h245q-4 -27 -11.5 -82.5t-17.5 -126t-20 -144.5t-18.5 -138.5t-14.5 -105.5q-10 -81 -15 -137t-5 -87q0 -64 27 -90.5t83 -26.5q46 0 99 30.5t105 82.5t93 117l96 708
h245l-150 -1114h-223l16 204q-71 -98 -170 -161t-210 -63zM459 1306q-45 0 -80.5 37t-35.5 83q0 68 43 110.5t103 42.5q54 0 89 -35t35 -84q0 -65 -40 -109.5t-114 -44.5zM897 1306q-44 0 -80 36.5t-36 83.5q0 68 43 110.5t103 42.5q55 0 90 -35t35 -84q0 -65 -40.5 -109.5
t-114.5 -44.5zM481 1680l17 168h525l-19 -168h-523z" />
    <glyph glyph-name="uni01D7" unicode="&#x1d7;" horiz-adv-x="1357" 
d="M594 -16q-228 0 -345 116.5t-117 325.5q0 26 3.5 61t10.5 95l118 912h247l-116 -876q-5 -50 -9 -95t-4 -84q0 -134 62.5 -196.5t186.5 -62.5q103 0 172 51t110.5 150t61.5 244l114 869h242l-117 -892q-15 -111 -41.5 -201.5t-64.5 -157.5q-76 -136 -203 -197.5
t-311 -61.5zM596 1641q-49 0 -86.5 39t-37.5 89q0 72 45 117t109 45q57 0 94.5 -37.5t37.5 -89.5q0 -68 -42.5 -115.5t-119.5 -47.5zM1034 1641q-48 0 -86 39t-38 89q0 72 45.5 117t109.5 45q57 0 94.5 -37.5t37.5 -89.5q0 -68 -42.5 -115.5t-120.5 -47.5zM841 2060l-95 78
l310 407l168 -148q-14 -26 -48 -64.5t-79 -81.5t-93 -82.5t-91 -69t-72 -39.5z" />
    <glyph glyph-name="uni01D8" unicode="&#x1d8;" horiz-adv-x="1184" 
d="M366 -20q-127 0 -194.5 65.5t-67.5 210.5q0 36 6.5 103t18.5 160q12 87 26.5 190t29 207.5t27.5 197.5h245q-4 -27 -11.5 -82.5t-17.5 -126t-20 -144.5t-18.5 -138.5t-14.5 -105.5q-10 -81 -15 -137t-5 -87q0 -64 27 -90.5t83 -26.5q46 0 99 30.5t105 82.5t93 117l96 708
h245l-150 -1114h-223l16 204q-71 -98 -170 -161t-210 -63zM459 1306q-45 0 -80.5 37t-35.5 83q0 68 43 110.5t103 42.5q54 0 89 -35t35 -84q0 -65 -40 -109.5t-114 -44.5zM897 1306q-44 0 -80 36.5t-36 83.5q0 68 43 110.5t103 42.5q55 0 90 -35t35 -84q0 -65 -40.5 -109.5
t-114.5 -44.5zM676 1662l-85 78l309 408l159 -149q-14 -26 -47.5 -64.5t-79 -81.5t-93.5 -82.5t-91 -69t-72 -39.5z" />
    <glyph glyph-name="uni01D9" unicode="&#x1d9;" horiz-adv-x="1357" 
d="M594 -16q-228 0 -345 116.5t-117 325.5q0 26 3.5 61t10.5 95l118 912h247l-116 -876q-5 -50 -9 -95t-4 -84q0 -134 62.5 -196.5t186.5 -62.5q103 0 172 51t110.5 150t61.5 244l114 869h242l-117 -892q-15 -111 -41.5 -201.5t-64.5 -157.5q-76 -136 -203 -197.5
t-311 -61.5zM596 1641q-49 0 -86.5 39t-37.5 89q0 72 45 117t109 45q57 0 94.5 -37.5t37.5 -89.5q0 -68 -42.5 -115.5t-119.5 -47.5zM1034 1641q-48 0 -86 39t-38 89q0 72 45.5 117t109.5 45q57 0 94.5 -37.5t37.5 -89.5q0 -68 -42.5 -115.5t-120.5 -47.5zM785 2060
l-227 322l99 80l233 -220l292 220l102 -78l-326 -324h-173z" />
    <glyph glyph-name="uni01DA" unicode="&#x1da;" horiz-adv-x="1184" 
d="M366 -20q-127 0 -194.5 65.5t-67.5 210.5q0 36 6.5 103t18.5 160q12 87 26.5 190t29 207.5t27.5 197.5h245q-4 -27 -11.5 -82.5t-17.5 -126t-20 -144.5t-18.5 -138.5t-14.5 -105.5q-10 -81 -15 -137t-5 -87q0 -64 27 -90.5t83 -26.5q46 0 99 30.5t105 82.5t93 117l96 708
h245l-150 -1114h-223l16 204q-71 -98 -170 -161t-210 -63zM459 1306q-45 0 -80.5 37t-35.5 83q0 68 43 110.5t103 42.5q54 0 89 -35t35 -84q0 -65 -40 -109.5t-114 -44.5zM897 1306q-44 0 -80 36.5t-36 83.5q0 68 43 110.5t103 42.5q55 0 90 -35t35 -84q0 -65 -40.5 -109.5
t-114.5 -44.5zM649 1646l-233 320l96 85l240 -227l294 227l93 -84l-316 -321h-174z" />
    <glyph glyph-name="uni01DB" unicode="&#x1db;" horiz-adv-x="1357" 
d="M594 -16q-228 0 -345 116.5t-117 325.5q0 26 3.5 61t10.5 95l118 912h247l-116 -876q-5 -50 -9 -95t-4 -84q0 -134 62.5 -196.5t186.5 -62.5q103 0 172 51t110.5 150t61.5 244l114 869h242l-117 -892q-15 -111 -41.5 -201.5t-64.5 -157.5q-76 -136 -203 -197.5
t-311 -61.5zM596 1641q-49 0 -86.5 39t-37.5 89q0 72 45 117t109 45q57 0 94.5 -37.5t37.5 -89.5q0 -68 -42.5 -115.5t-119.5 -47.5zM1034 1641q-48 0 -86 39t-38 89q0 72 45.5 117t109.5 45q57 0 94.5 -37.5t37.5 -89.5q0 -68 -42.5 -115.5t-120.5 -47.5zM963 2060
q-36 14 -91 54.5t-112.5 93.5t-103.5 102t-63 81l168 154l297 -407z" />
    <glyph glyph-name="uni01DC" unicode="&#x1dc;" horiz-adv-x="1184" 
d="M366 -20q-127 0 -194.5 65.5t-67.5 210.5q0 36 6.5 103t18.5 160q12 87 26.5 190t29 207.5t27.5 197.5h245q-4 -27 -11.5 -82.5t-17.5 -126t-20 -144.5t-18.5 -138.5t-14.5 -105.5q-10 -81 -15 -137t-5 -87q0 -64 27 -90.5t83 -26.5q46 0 99 30.5t105 82.5t93 117l96 708
h245l-150 -1114h-223l16 204q-71 -98 -170 -161t-210 -63zM459 1306q-45 0 -80.5 37t-35.5 83q0 68 43 110.5t103 42.5q54 0 89 -35t35 -84q0 -65 -40 -109.5t-114 -44.5zM897 1306q-44 0 -80 36.5t-36 83.5q0 68 43 110.5t103 42.5q55 0 90 -35t35 -84q0 -65 -40.5 -109.5
t-114.5 -44.5zM820 1662q-36 14 -91 54.5t-113 93.5t-103.5 102t-62.5 81l160 155l298 -408z" />
    <glyph glyph-name="Gcaron" unicode="&#x1e6;" horiz-adv-x="1338" 
d="M617 -16q-178 0 -295 90q-118 88 -171.5 229t-55.5 302q-3 265 95 471t269 320t380 114q60 0 107.5 -3.5t92.5 -12t95 -22t115 -35.5l-64 -223q-28 22 -85 44.5t-127 37.5t-140 15q-168 0 -278 -103t-160.5 -258t-50.5 -315q0 -131 32.5 -235.5t102.5 -165t178 -60.5
q62 0 138 14t138 43l44 325h-232l24 197h467l-88 -666q-27 -3 -57.5 -11t-81.5 -22q-100 -30 -195 -50t-197 -20zM727 1636l-227 322l99 80l233 -220l292 220l102 -78l-326 -324h-173z" />
    <glyph glyph-name="gcaron" unicode="&#x1e7;" horiz-adv-x="1168" 
d="M382 -497q-44 0 -98 5.5t-99.5 14.5t-65.5 18l49 192q27 -15 70.5 -30t93.5 -24.5t97 -9.5q112 0 169 59.5t79 177.5l53 301q-59 -93 -147.5 -158t-196.5 -65q-158 0 -234.5 113.5t-76.5 306.5q0 173 73 342q48 111 129.5 197.5t194.5 135.5t253 49q53 0 115 -10.5
t114 -25.5l137 36l-164 -1197q-11 -78 -37.5 -141t-68.5 -111q-83 -95 -198 -135.5t-241 -40.5zM450 163q42 0 84.5 25.5t82.5 67.5t74 92t59 100l70 503q-28 9 -58.5 13t-64.5 4q-118 0 -201 -83t-125 -208t-42 -250q0 -74 11.5 -134t37.5 -95t72 -35zM661 1274l-233 320
l96 85l240 -227l294 227l93 -84l-316 -321h-174z" />
    <glyph glyph-name="uni01EA" unicode="&#x1ea;" horiz-adv-x="1351" 
d="M599 -16q-165 0 -276.5 83t-168 222.5t-56.5 310.5q0 182 49 346t141.5 291.5t223 200t293.5 72.5q125 0 218 -48.5t155 -133.5t93 -197t31 -238q0 -183 -48 -347.5t-139 -291t-221.5 -198.5t-294.5 -72zM628 170q103 0 182 63.5t132 168t80 229t26 247.5q-2 151 -32 249
t-91 145.5t-153 47.5q-102 0 -180.5 -63.5t-132 -168t-80.5 -228t-27 -244.5q4 -231 73.5 -338.5t202.5 -107.5zM482 -453q-83 0 -135.5 46t-52.5 112q0 48 21 89.5t58 78.5t87.5 69t109.5 60l88 42l73 -44q-110 -72 -165.5 -126.5t-55.5 -102.5q0 -37 18.5 -52t43.5 -15
q36 0 67.5 14t72.5 43l49 -102q-34 -31 -74 -56.5t-90.5 -40.5t-114.5 -15z" />
    <glyph glyph-name="uni01EB" unicode="&#x1eb;" horiz-adv-x="1123" 
d="M468 -16q-130 0 -216.5 57.5t-129.5 162.5t-43 248q0 176 73 333q71 155 203.5 249t304.5 94q128 0 212.5 -56t126.5 -160.5t42 -248.5q0 -177 -70 -334q-70 -156 -200.5 -250.5t-302.5 -94.5zM504 151q75 0 129 47t89 124.5t51.5 168.5t16.5 179q0 94 -16.5 159.5
t-54 100t-97.5 34.5q-76 0 -131.5 -49t-91 -128t-53 -170.5t-17.5 -175.5q0 -142 43 -216t132 -74zM355 -440q-85 0 -137 46t-52 111q0 59 35 109.5t91.5 93.5t118.5 80l98 56l75 -56q-90 -63 -146.5 -116.5t-56.5 -99.5q0 -37 18.5 -52t45.5 -15q33 0 65.5 14t73.5 43
l49 -102q-50 -46 -122 -79t-156 -33z" />
    <glyph glyph-name="uni01EE" unicode="&#x1ee;" horiz-adv-x="1037" 
d="M247 -14q-47 0 -99.5 5t-105.5 9l22 190q28 -4 62 -7t67.5 -5t58.5 -2q141 0 251.5 41t174.5 112t64 163q0 85 -46.5 134t-117 69.5t-143.5 17.5l-108 -50l23 193l300 288l183 158l-656 -1l26 193l870 2l-35 -252l-437 -405q150 -8 232 -59.5t114 -124.5t32 -148
q0 -119 -53 -215.5t-151 -164.5t-232.5 -104.5t-295.5 -36.5zM591 1634l-227 322l99 80l233 -220l292 220l102 -78l-326 -324h-173z" />
    <glyph glyph-name="uni01EF" unicode="&#x1ef;" horiz-adv-x="922" 
d="M195 -295q-51 0 -99 4t-97 5l26 185q40 -8 76.5 -12.5t82.5 -4.5q130 0 218.5 35.5t134 102t45.5 160.5q1 93 -68.5 132t-186.5 39l-99 105l274 360l115 108h-498l30 190h743l38 -60l-429 -558q87 1 151 -26t106 -71.5t63 -99t20 -109.5q-3 -152 -80.5 -262
t-221.5 -168.5t-344 -54.5zM477 1274l-233 320l96 85l240 -227l294 227l93 -84l-316 -321h-174z" />
    <glyph glyph-name="uni01F1" unicode="&#x1f1;" horiz-adv-x="2490" 
d="M529 -16q-60 2 -111.5 5.5t-102 7t-107.5 3.5h-113l197 1494h116q15 0 47 1.5t72.5 4t82.5 5t77.5 4t54.5 1.5q294 0 430 -164.5t136 -458.5q0 -190 -54.5 -355t-156.5 -289t-245.5 -192.5t-322.5 -66.5zM569 168q160 3 269 105q110 101 162.5 263t52.5 347
q0 169 -37 267q-39 96 -119.5 137.5t-216.5 41.5q-37 0 -87.5 -5.5t-79.5 -11.5l-146 -1118q39 -14 93.5 -20.5t108.5 -5.5zM1373 0l-27 86l760 1092l117 126l-639 -13l29 203h903l25 -84l-749 -1096l-109 -118l689 12l-32 -208h-967z" />
    <glyph glyph-name="uni01F2" unicode="&#x1f2;" horiz-adv-x="2309" 
d="M529 -16q-60 2 -111.5 5.5t-102 7t-107.5 3.5h-113l197 1494h116q15 0 47 1.5t72.5 4t82.5 5t77.5 4t54.5 1.5q294 0 430 -164.5t136 -458.5q0 -190 -54.5 -355t-156.5 -289t-245.5 -192.5t-322.5 -66.5zM569 168q160 3 269 105q110 101 162.5 263t52.5 347
q0 169 -37 267q-39 96 -119.5 137.5t-216.5 41.5q-37 0 -87.5 -5.5t-79.5 -11.5l-146 -1118q39 -14 93.5 -20.5t108.5 -5.5zM1377 0l-51 53l559 750l120 120h-490l27 191h739l42 -49l-565 -767l-108 -107h537l-19 -191h-791z" />
    <glyph glyph-name="uni01F3" unicode="&#x1f3;" horiz-adv-x="2120" 
d="M386 -16q-158 0 -234.5 113.5t-76.5 306.5q0 173 73 342q48 111 129.5 197.5t194.5 135.5t253 49q27 0 57 -2t62 -8l66 480h240l-212 -1598h-220l16 216q-39 -64 -92 -116.5t-117.5 -84t-138.5 -31.5zM450 163q43 0 87 28t85 73t74.5 95.5t56.5 95.5l68 492
q-55 21 -124 21q-118 0 -201 -83t-125 -208t-42 -250q0 -74 11.5 -134t37.5 -95t72 -35zM1189 0l-51 53l559 750l120 120h-490l27 191h739l42 -49l-565 -767l-108 -107h537l-19 -191h-791z" />
    <glyph glyph-name="Aringacute" unicode="&#x1fa;" horiz-adv-x="1262" 
d="M-90 0l726 1494h292l260 -1494h-247l-53 350h-556l-156 -350h-266zM410 527h452l-99 669l-10 114l-47 -113zM789 1633q-138 0 -214.5 65.5t-76.5 182.5q0 94 53 156q53 63 135 93t167 30q128 0 203.5 -65.5t75.5 -183.5q0 -92 -47 -152q-48 -63 -127 -94.5t-169 -31.5z
M799 1750q82 0 129 36t47 125q0 58 -39.5 95t-101.5 37q-74 0 -128 -37t-54 -121q0 -56 44.5 -95.5t102.5 -39.5zM820 2094l-95 78l310 407l168 -148q-14 -26 -48 -64.5t-79 -81.5t-93 -82.5t-91 -69t-72 -39.5z" />
    <glyph glyph-name="aringacute" unicode="&#x1fb;" horiz-adv-x="1157" 
d="M387 -16q-158 0 -234.5 113.5t-76.5 306.5q0 150 45.5 280.5t130.5 230.5t203 156.5t265 56.5q52 0 114.5 -10.5t113.5 -25.5l135 36l-155 -1128h-218l15 204q-57 -92 -143.5 -156t-194.5 -64zM451 162q45 0 87 25.5t80.5 67t71 92.5t56.5 101l71 501q-56 19 -125 19
q-118 0 -200 -83t-122.5 -207.5t-40.5 -250.5q0 -69 11 -130t37.5 -98t73.5 -37zM732 1224q-137 0 -214 64.5t-77 182.5q0 94 53 156q53 64 135.5 93.5t167.5 29.5q128 0 203.5 -65t75.5 -184q0 -92 -47 -152q-48 -63 -127 -94t-170 -31zM743 1341q82 0 129 36t47 125
q0 58 -40 95t-101 37q-74 0 -128 -37.5t-54 -121.5q0 -56 44 -95t103 -39zM867 1646l-85 78l309 408l159 -149q-14 -26 -47.5 -64.5t-79 -81.5t-93.5 -82.5t-91 -69t-72 -39.5z" />
    <glyph glyph-name="AEacute" unicode="&#x1fc;" horiz-adv-x="1796" 
d="M-123 0l749 1348l-267 25l18 121h1376l-17 -193l-560 6l-60 -451l422 6l-21 -199l-424 13l-66 -489l661 13l-21 -200h-909l47 366h-467l-192 -366h-269zM436 547h394l100 767l-85 8zM1014 1636l-95 78l310 407l168 -148q-14 -26 -48 -64.5t-79 -81.5t-93 -82.5t-91 -69
t-72 -39.5z" />
    <glyph glyph-name="aeacute" unicode="&#x1fd;" horiz-adv-x="1636" 
d="M369 -16q-147 0 -221 109t-74 311q0 152 48 283t136 230t208.5 155t265.5 56q75 0 138 -14t134 -57q124 71 274 71q100 0 165 -34t97.5 -90t32.5 -124q0 -107 -54 -189.5t-144.5 -141t-204 -95t-232.5 -53.5q-5 -73 14 -126.5t61.5 -82t107.5 -28.5q52 0 109 19.5t112 55
t100 82.5l67 -129q-26 -36 -75.5 -72.5t-111 -67t-125.5 -49.5t-120 -19q-152 0 -246.5 77t-130.5 203q-57 -119 -139.5 -199.5t-191.5 -80.5zM440 170q31 0 62.5 21t63 59.5t60.5 89.5t56 111q3 75 15.5 142t34 127.5t52 113t69.5 97.5q-73 37 -149 37q-94 0 -165.5 -48
t-119 -128.5t-71.5 -176t-24 -192.5q0 -66 9 -124.5t34.5 -93.5t72.5 -35zM939 550q67 4 136.5 29.5t127.5 67.5t94 96t36 115q0 59 -27.5 84.5t-79.5 25.5q-41 0 -78 -19t-68 -54q-61 -68 -97 -165t-44 -180zM882 1290l-85 78l309 408l159 -149q-14 -26 -47.5 -64.5
t-79 -81.5t-93.5 -82.5t-91 -69t-72 -39.5z" />
    <glyph glyph-name="Oslashacute" unicode="&#x1fe;" horiz-adv-x="1351" 
d="M171 -128l-87 46l150 228q-70 83 -106.5 201t-36.5 255q0 253 90 460t251 327.5t365 120.5q156 0 269 -78l125 198l87 -46l-138 -218q77 -84 115.5 -206t38.5 -267q0 -250 -87 -459q-88 -207 -247.5 -328t-368.5 -121q-83 0 -154.5 23t-131.5 70zM621 172q123 0 220 98
q94 98 146.5 258t52.5 339q0 189 -44 296l-562 -909q64 -82 187 -82zM381 354l558 903q-65 63 -175 63q-120 0 -217 -100q-95 -98 -148 -258t-53 -333q0 -168 35 -275zM788 1634l-95 78l310 407l168 -148q-14 -26 -48 -64.5t-79 -81.5t-93 -82.5t-91 -69t-72 -39.5z" />
    <glyph glyph-name="oslashacute" unicode="&#x1ff;" horiz-adv-x="1123" 
d="M204 -127l-73 38l146 244l51 45l430 792l38 42l139 224l72 -38l-140 -222l-47 -52l-448 -814l-42 -43zM468 -16q-130 0 -216.5 57.5t-129.5 162.5t-43 248q0 176 73 333q71 155 203.5 249t304.5 94q128 0 212.5 -56t126.5 -160.5t42 -248.5q0 -177 -70 -334
q-70 -156 -200.5 -250.5t-302.5 -94.5zM504 151q75 0 129 47t89 124.5t51.5 168.5t16.5 179q0 94 -16.5 159.5t-54 100t-97.5 34.5q-76 0 -131.5 -49t-91 -128t-53 -170.5t-17.5 -175.5q0 -142 43 -216t132 -74zM617 1290l-85 78l309 408l159 -149q-14 -26 -47.5 -64.5
t-79 -81.5t-93.5 -82.5t-91 -69t-72 -39.5z" />
    <glyph glyph-name="uni0200" unicode="&#x200;" horiz-adv-x="1262" 
d="M-90 0l726 1494h292l260 -1494h-247l-53 350h-556l-156 -350h-266zM410 527h452l-99 669l-10 114l-47 -113zM639 1637q-34 16 -80.5 59.5t-94.5 99t-85 108.5t-51 88l160 121l249 -418zM1083 1637q-34 19 -78.5 62.5t-88.5 98t-79 107t-50 89.5l156 119l241 -418z" />
    <glyph glyph-name="uni0201" unicode="&#x201;" horiz-adv-x="1157" 
d="M387 -16q-158 0 -234.5 113.5t-76.5 306.5q0 150 45.5 280.5t130.5 230.5t203 156.5t265 56.5q52 0 114.5 -10.5t113.5 -25.5l135 36l-155 -1128h-218l15 204q-57 -92 -143.5 -156t-194.5 -64zM451 162q45 0 87 25.5t80.5 67t71 92.5t56.5 101l71 501q-56 19 -125 19
q-118 0 -200 -83t-122.5 -207.5t-40.5 -250.5q0 -69 11 -130t37.5 -98t73.5 -37zM536 1271q-34 16 -81 59.5t-94.5 99t-84.5 109t-50 88.5l165 124l249 -417zM981 1271q-34 19 -79 62.5t-90 98.5t-79.5 107.5t-48.5 89.5l164 122l240 -417z" />
    <glyph glyph-name="uni0202" unicode="&#x202;" horiz-adv-x="1262" 
d="M-90 0l726 1494h292l260 -1494h-247l-53 350h-556l-156 -350h-266zM410 527h452l-99 669l-10 114l-47 -113zM817 1999q104 0 173.5 -44.5t101 -124t21.5 -183.5h-151q-5 97 -39.5 141.5t-115.5 44.5q-58 0 -93.5 -24t-56 -66t-34.5 -96h-147q0 99 44 179t121 126.5
t176 46.5z" />
    <glyph glyph-name="uni0203" unicode="&#x203;" horiz-adv-x="1157" 
d="M387 -16q-158 0 -234.5 113.5t-76.5 306.5q0 150 45.5 280.5t130.5 230.5t203 156.5t265 56.5q52 0 114.5 -10.5t113.5 -25.5l135 36l-155 -1128h-218l15 204q-57 -92 -143.5 -156t-194.5 -64zM451 162q45 0 87 25.5t80.5 67t71 92.5t56.5 101l71 501q-56 19 -125 19
q-118 0 -200 -83t-122.5 -207.5t-40.5 -250.5q0 -69 11 -130t37.5 -98t73.5 -37zM745 1648q104 0 174 -45t101.5 -124t20.5 -183h-149q2 99 -36 142t-121 43q-58 0 -93.5 -24t-55.5 -66t-35 -95h-145q0 99 43.5 179t119.5 126.5t176 46.5z" />
    <glyph glyph-name="uni0204" unicode="&#x204;" horiz-adv-x="1134" 
d="M95 0l197 1494h798l-17 -193l-561 6l-58 -451l422 6l-21 -199l-425 13l-65 -489l662 13l-22 -200h-910zM586 1635q-34 16 -80.5 59.5t-94.5 99t-85 108.5t-51 88l160 121l249 -418zM1030 1635q-34 19 -78.5 62.5t-88.5 98t-79 107t-50 89.5l156 119l241 -418z" />
    <glyph glyph-name="uni0205" unicode="&#x205;" horiz-adv-x="1036" 
d="M478 -16q-136 0 -225 61q-90 62 -132 161.5t-41 218.5q1 193 81 358q77 161 212.5 253t305.5 92q96 0 160.5 -34.5t97.5 -91t33 -122.5q0 -106 -53.5 -188t-144 -141t-203.5 -96t-232 -54v-15v-16q3 -91 45.5 -148.5t138.5 -57.5q53 0 109.5 19.5t111.5 55t101 82.5
l65 -129q-26 -35 -74.5 -72t-110 -68t-125.5 -49.5t-120 -18.5zM339 550q64 2 132 27.5t127 68t95.5 97t36.5 115.5q0 59 -26.5 84.5t-79.5 25.5q-41 0 -76.5 -20.5t-69.5 -57.5q-62 -68 -96.5 -163t-42.5 -177zM499 1271q-34 16 -81 59.5t-94.5 99t-84.5 109t-50 88.5
l165 124l249 -417zM944 1271q-34 19 -79 62.5t-90 98.5t-79.5 107.5t-48.5 89.5l164 122l240 -417z" />
    <glyph glyph-name="uni0206" unicode="&#x206;" horiz-adv-x="1134" 
d="M95 0l197 1494h798l-17 -193l-561 6l-58 -451l422 6l-21 -199l-425 13l-65 -489l662 13l-22 -200h-910zM764 1997q104 0 173.5 -44.5t101 -124t21.5 -183.5h-151q-5 97 -39.5 141.5t-115.5 44.5q-58 0 -93.5 -24t-56 -66t-34.5 -96h-147q0 99 44 179t121 126.5t176 46.5z
" />
    <glyph glyph-name="uni0207" unicode="&#x207;" horiz-adv-x="1036" 
d="M478 -16q-136 0 -225 61q-90 62 -132 161.5t-41 218.5q1 193 81 358q77 161 212.5 253t305.5 92q96 0 160.5 -34.5t97.5 -91t33 -122.5q0 -106 -53.5 -188t-144 -141t-203.5 -96t-232 -54v-15v-16q3 -91 45.5 -148.5t138.5 -57.5q53 0 109.5 19.5t111.5 55t101 82.5
l65 -129q-26 -35 -74.5 -72t-110 -68t-125.5 -49.5t-120 -18.5zM339 550q64 2 132 27.5t127 68t95.5 97t36.5 115.5q0 59 -26.5 84.5t-79.5 25.5q-41 0 -76.5 -20.5t-69.5 -57.5q-62 -68 -96.5 -163t-42.5 -177zM708 1648q104 0 174 -45t101.5 -124t20.5 -183h-149
q2 99 -36 142t-121 43q-58 0 -93.5 -24t-55.5 -66t-35 -95h-145q0 99 43.5 179t119.5 126.5t176 46.5z" />
    <glyph glyph-name="uni0208" unicode="&#x208;" horiz-adv-x="609" 
d="M114 0l198 1494h246l-197 -1494h-247zM309 1635q-34 16 -80.5 59.5t-94.5 99t-85 108.5t-51 88l160 121l249 -418zM753 1635q-34 19 -78.5 62.5t-88.5 98t-79 107t-50 89.5l156 119l241 -418z" />
    <glyph glyph-name="uni0209" unicode="&#x209;" horiz-adv-x="597" 
d="M107 0l151 1114h246l-152 -1114h-245zM200 1271q-34 16 -81 59.5t-94.5 99t-84.5 109t-50 88.5l165 124l249 -417zM645 1271q-34 19 -79 62.5t-90 98.5t-79.5 107.5t-48.5 89.5l164 122l240 -417z" />
    <glyph glyph-name="uni020A" unicode="&#x20a;" horiz-adv-x="609" 
d="M114 0l198 1494h246l-197 -1494h-247zM487 1997q104 0 173.5 -44.5t101 -124t21.5 -183.5h-151q-5 97 -39.5 141.5t-115.5 44.5q-58 0 -93.5 -24t-56 -66t-34.5 -96h-147q0 99 44 179t121 126.5t176 46.5z" />
    <glyph glyph-name="uni020B" unicode="&#x20b;" horiz-adv-x="597" 
d="M107 0l151 1114h246l-152 -1114h-245zM409 1648q104 0 174 -45t101.5 -124t20.5 -183h-149q2 99 -36 142t-121 43q-58 0 -93.5 -24t-55.5 -66t-35 -95h-145q0 99 43.5 179t119.5 126.5t176 46.5z" />
    <glyph glyph-name="uni020C" unicode="&#x20c;" horiz-adv-x="1351" 
d="M599 -16q-165 0 -276.5 83t-168 222.5t-56.5 310.5q0 182 49 346t141.5 291.5t223 200t293.5 72.5q125 0 218 -48.5t155 -133.5t93 -197t31 -238q0 -183 -48 -347.5t-139 -291t-221.5 -198.5t-294.5 -72zM628 170q103 0 182 63.5t132 168t80 229t26 247.5q-2 151 -32 249
t-91 145.5t-153 47.5q-102 0 -180.5 -63.5t-132 -168t-80.5 -228t-27 -244.5q4 -231 73.5 -338.5t202.5 -107.5zM687 1637q-34 16 -80.5 59.5t-94.5 99t-85 108.5t-51 88l160 121l249 -418zM1131 1637q-34 19 -78.5 62.5t-88.5 98t-79 107t-50 89.5l156 119l241 -418z" />
    <glyph glyph-name="uni020D" unicode="&#x20d;" horiz-adv-x="1123" 
d="M468 -16q-130 0 -216.5 57.5t-129.5 162.5t-43 248q0 176 73 333q71 155 203.5 249t304.5 94q128 0 212.5 -56t126.5 -160.5t42 -248.5q0 -177 -70 -334q-70 -156 -200.5 -250.5t-302.5 -94.5zM504 151q75 0 129 47t89 124.5t51.5 168.5t16.5 179q0 94 -16.5 159.5
t-54 100t-97.5 34.5q-76 0 -131.5 -49t-91 -128t-53 -170.5t-17.5 -175.5q0 -142 43 -216t132 -74zM478 1271q-34 16 -81 59.5t-94.5 99t-84.5 109t-50 88.5l165 124l249 -417zM923 1271q-34 19 -79 62.5t-90 98.5t-79.5 107.5t-48.5 89.5l164 122l240 -417z" />
    <glyph glyph-name="uni020E" unicode="&#x20e;" horiz-adv-x="1351" 
d="M599 -16q-165 0 -276.5 83t-168 222.5t-56.5 310.5q0 182 49 346t141.5 291.5t223 200t293.5 72.5q125 0 218 -48.5t155 -133.5t93 -197t31 -238q0 -183 -48 -347.5t-139 -291t-221.5 -198.5t-294.5 -72zM628 170q103 0 182 63.5t132 168t80 229t26 247.5q-2 151 -32 249
t-91 145.5t-153 47.5q-102 0 -180.5 -63.5t-132 -168t-80.5 -228t-27 -244.5q4 -231 73.5 -338.5t202.5 -107.5zM865 1999q104 0 173.5 -44.5t101 -124t21.5 -183.5h-151q-5 97 -39.5 141.5t-115.5 44.5q-58 0 -93.5 -24t-56 -66t-34.5 -96h-147q0 99 44 179t121 126.5
t176 46.5z" />
    <glyph glyph-name="uni020F" unicode="&#x20f;" horiz-adv-x="1123" 
d="M468 -16q-130 0 -216.5 57.5t-129.5 162.5t-43 248q0 176 73 333q71 155 203.5 249t304.5 94q128 0 212.5 -56t126.5 -160.5t42 -248.5q0 -177 -70 -334q-70 -156 -200.5 -250.5t-302.5 -94.5zM504 151q75 0 129 47t89 124.5t51.5 168.5t16.5 179q0 94 -16.5 159.5
t-54 100t-97.5 34.5q-76 0 -131.5 -49t-91 -128t-53 -170.5t-17.5 -175.5q0 -142 43 -216t132 -74zM687 1648q104 0 174 -45t101.5 -124t20.5 -183h-149q2 99 -36 142t-121 43q-58 0 -93.5 -24t-55.5 -66t-35 -95h-145q0 99 43.5 179t119.5 126.5t176 46.5z" />
    <glyph glyph-name="uni0210" unicode="&#x210;" horiz-adv-x="1265" 
d="M93 0l198 1494h133q28 0 85.5 4t117 8t92.5 4q242 0 363 -94t121 -274q0 -178 -85.5 -309.5t-251.5 -183.5q26 -23 51 -65t47.5 -92.5t38.5 -100.5q32 -83 62.5 -160.5t58.5 -138t50 -92.5h-277q-10 17 -23 48.5t-27.5 72t-30 86t-30.5 91.5q-16 54 -35.5 108t-42.5 99.5
t-49 74t-56 30.5l-183 1l-81 -611h-246zM654 803q102 0 168 43.5t98 118.5t30 171q-1 99 -65.5 146.5t-191.5 47.5q-25 0 -60.5 -2t-68 -5.5t-50.5 -6.5l-69 -511q26 -1 78 -1.5t131 -0.5zM589 1635q-34 16 -80.5 59.5t-94.5 99t-85 108.5t-51 88l160 121l249 -418z
M1033 1635q-34 19 -78.5 62.5t-88.5 98t-79 107t-50 89.5l156 119l241 -418z" />
    <glyph glyph-name="uni0211" unicode="&#x211;" horiz-adv-x="808" 
d="M78 0l152 1114h236l-19 -209q26 51 72.5 102.5t110.5 86t140 34.5q50 0 63 -12l-51 -255q-11 9 -36.5 13.5t-57.5 4.5q-57 0 -107 -29.5t-91.5 -77t-73.5 -101.5l-93 -671h-245zM384 1271q-34 16 -81 59.5t-94.5 99t-84.5 109t-50 88.5l165 124l249 -417zM829 1271
q-34 19 -79 62.5t-90 98.5t-79.5 107.5t-48.5 89.5l164 122l240 -417z" />
    <glyph glyph-name="uni0212" unicode="&#x212;" horiz-adv-x="1265" 
d="M93 0l198 1494h133q28 0 85.5 4t117 8t92.5 4q242 0 363 -94t121 -274q0 -178 -85.5 -309.5t-251.5 -183.5q26 -23 51 -65t47.5 -92.5t38.5 -100.5q32 -83 62.5 -160.5t58.5 -138t50 -92.5h-277q-10 17 -23 48.5t-27.5 72t-30 86t-30.5 91.5q-16 54 -35.5 108t-42.5 99.5
t-49 74t-56 30.5l-183 1l-81 -611h-246zM654 803q102 0 168 43.5t98 118.5t30 171q-1 99 -65.5 146.5t-191.5 47.5q-25 0 -60.5 -2t-68 -5.5t-50.5 -6.5l-69 -511q26 -1 78 -1.5t131 -0.5zM768 1997q104 0 173.5 -44.5t101 -124t21.5 -183.5h-151q-5 97 -39.5 141.5
t-115.5 44.5q-58 0 -93.5 -24t-56 -66t-34.5 -96h-147q0 99 44 179t121 126.5t176 46.5z" />
    <glyph glyph-name="uni0213" unicode="&#x213;" horiz-adv-x="808" 
d="M78 0l152 1114h236l-19 -209q26 51 72.5 102.5t110.5 86t140 34.5q50 0 63 -12l-51 -255q-11 9 -36.5 13.5t-57.5 4.5q-57 0 -107 -29.5t-91.5 -77t-73.5 -101.5l-93 -671h-245zM593 1648q104 0 174 -45t101.5 -124t20.5 -183h-149q2 99 -36 142t-121 43q-58 0 -93.5 -24
t-55.5 -66t-35 -95h-145q0 99 43.5 179t119.5 126.5t176 46.5z" />
    <glyph glyph-name="uni0214" unicode="&#x214;" horiz-adv-x="1357" 
d="M594 -16q-228 0 -345 116.5t-117 325.5q0 26 3.5 61t10.5 95l118 912h247l-116 -876q-5 -50 -9 -95t-4 -84q0 -134 62.5 -196.5t186.5 -62.5q103 0 172 51t110.5 150t61.5 244l114 869h242l-117 -892q-15 -111 -41.5 -201.5t-64.5 -157.5q-76 -136 -203 -197.5
t-311 -61.5zM668 1637q-34 16 -80.5 59.5t-94.5 99t-85 108.5t-51 88l160 121l249 -418zM1112 1637q-34 19 -78.5 62.5t-88.5 98t-79 107t-50 89.5l156 119l241 -418z" />
    <glyph glyph-name="uni0215" unicode="&#x215;" horiz-adv-x="1184" 
d="M366 -20q-127 0 -194.5 65.5t-67.5 210.5q0 36 6.5 103t18.5 160q12 87 26.5 190t29 207.5t27.5 197.5h245q-4 -27 -11.5 -82.5t-17.5 -126t-20 -144.5t-18.5 -138.5t-14.5 -105.5q-10 -81 -15 -137t-5 -87q0 -64 27 -90.5t83 -26.5q46 0 99 30.5t105 82.5t93 117l96 708
h245l-150 -1114h-223l16 204q-71 -98 -170 -161t-210 -63zM485 1271q-34 16 -81 59.5t-94.5 99t-84.5 109t-50 88.5l165 124l249 -417zM930 1271q-34 19 -79 62.5t-90 98.5t-79.5 107.5t-48.5 89.5l164 122l240 -417z" />
    <glyph glyph-name="uni0216" unicode="&#x216;" horiz-adv-x="1357" 
d="M594 -16q-228 0 -345 116.5t-117 325.5q0 26 3.5 61t10.5 95l118 912h247l-116 -876q-5 -50 -9 -95t-4 -84q0 -134 62.5 -196.5t186.5 -62.5q103 0 172 51t110.5 150t61.5 244l114 869h242l-117 -892q-15 -111 -41.5 -201.5t-64.5 -157.5q-76 -136 -203 -197.5
t-311 -61.5zM847 1999q104 0 173.5 -44.5t101 -124t21.5 -183.5h-151q-5 97 -39.5 141.5t-115.5 44.5q-58 0 -93.5 -24t-56 -66t-34.5 -96h-147q0 99 44 179t121 126.5t176 46.5z" />
    <glyph glyph-name="uni0217" unicode="&#x217;" horiz-adv-x="1184" 
d="M366 -20q-127 0 -194.5 65.5t-67.5 210.5q0 36 6.5 103t18.5 160q12 87 26.5 190t29 207.5t27.5 197.5h245q-4 -27 -11.5 -82.5t-17.5 -126t-20 -144.5t-18.5 -138.5t-14.5 -105.5q-10 -81 -15 -137t-5 -87q0 -64 27 -90.5t83 -26.5q46 0 99 30.5t105 82.5t93 117l96 708
h245l-150 -1114h-223l16 204q-71 -98 -170 -161t-210 -63zM694 1648q104 0 174 -45t101.5 -124t20.5 -183h-149q2 99 -36 142t-121 43q-58 0 -93.5 -24t-55.5 -66t-35 -95h-145q0 99 43.5 179t119.5 126.5t176 46.5z" />
    <glyph glyph-name="uni0218" unicode="&#x218;" horiz-adv-x="1021" 
d="M384 -16q-45 0 -100 8t-108.5 21t-96 29.5t-62.5 33.5l75 199q24 -24 76.5 -46t113.5 -36t110 -14q82 0 143 22.5t95 67.5t34 113q0 75 -49.5 143.5t-153.5 138.5q-87 61 -151.5 126t-100.5 141.5t-36 169.5q0 132 63 223t171.5 138.5t243.5 47.5q120 0 207.5 -25
t133.5 -59l-78 -190q-39 39 -114 61t-144 22q-67 0 -121.5 -18.5t-86.5 -58t-34 -101.5q-1 -52 29.5 -107.5t79.5 -106.5t105 -91q89 -63 154 -125.5t100.5 -133t35.5 -159.5q0 -147 -71 -243t-191.5 -143.5t-271.5 -47.5zM332 -657l-85 56l4 25q32 24 49 56.5t17 82.5
q0 36 -20.5 67.5t-49.5 36.5l9 66l144 102q60 -15 93 -71.5t33 -130.5q0 -70 -28 -133t-71.5 -105.5t-94.5 -51.5z" />
    <glyph glyph-name="uni0219" unicode="&#x219;" horiz-adv-x="887" 
d="M347 -16q-60 0 -122 8.5t-110 22.5t-69 30l44 204q33 -24 77 -43.5t92.5 -31.5t90.5 -12q77 0 125.5 28t48.5 91q0 36 -15.5 66t-53.5 64.5t-103 87.5q-83 68 -135.5 140t-52.5 178q0 104 54.5 173.5t145.5 103.5t199 34q54 0 104.5 -5.5t90.5 -14t59 -17.5l-38 -217
q-16 19 -50.5 37t-78.5 29.5t-89 11.5q-75 0 -121 -30.5t-46 -86.5q0 -42 19.5 -76.5t55 -66t80.5 -68.5q59 -44 106.5 -94.5t75 -107.5t27.5 -121q0 -111 -56 -181t-149.5 -103t-205.5 -33zM290 -656l-85 56l4 25q32 24 47 55t16 82q2 41 -18 73.5t-49 36.5l7 61l138 102
q59 -15 95.5 -72t36.5 -131q0 -70 -27 -132.5t-71 -104.5t-94 -51z" />
    <glyph glyph-name="uni021A" unicode="&#x21a;" horiz-adv-x="1106" 
d="M350 0l172 1312l-394 -11l30 193h1026l-26 -193l-388 11l-172 -1312h-248zM373 -657l-85 56l4 25q32 24 49 56.5t17 82.5q0 36 -20.5 67.5t-49.5 36.5l9 66l144 102q60 -15 93 -71.5t33 -130.5q0 -70 -28 -133t-71.5 -105.5t-94.5 -51.5z" />
    <glyph glyph-name="uni021B" unicode="&#x21b;" horiz-adv-x="751" 
d="M325 -17q-89 0 -142 45.5t-53 141.5q0 12 1.5 35.5t4.5 54t7 64.5l78 616h-102l39 174h104l72 271h195l-37 -271h243l-22 -174h-244q-20 -156 -35 -268t-25.5 -188t-16 -122.5t-7.5 -71t-2 -35.5q0 -40 12 -65t46 -25q22 0 59 14t75 35.5t61 41.5l34 -127
q-32 -35 -90 -68.5t-126 -55.5t-129 -22zM221 -656l-85 56l4 25q32 24 47 55t16 82q2 41 -18 73.5t-49 36.5l7 61l138 102q59 -15 95.5 -72t36.5 -131q0 -70 -27 -132.5t-71 -104.5t-94 -51z" />
    <glyph glyph-name="uni022A" unicode="&#x22a;" horiz-adv-x="1351" 
d="M599 -16q-165 0 -276.5 83t-168 222.5t-56.5 310.5q0 182 49 346t141.5 291.5t223 200t293.5 72.5q125 0 218 -48.5t155 -133.5t93 -197t31 -238q0 -183 -48 -347.5t-139 -291t-221.5 -198.5t-294.5 -72zM628 170q103 0 182 63.5t132 168t80 229t26 247.5q-2 151 -32 249
t-91 145.5t-153 47.5q-102 0 -180.5 -63.5t-132 -168t-80.5 -228t-27 -244.5q4 -231 73.5 -338.5t202.5 -107.5zM615 1641q-49 0 -86.5 39t-37.5 89q0 72 45 117t109 45q57 0 94.5 -37.5t37.5 -89.5q0 -68 -42.5 -115.5t-119.5 -47.5zM1053 1641q-48 0 -86 39t-38 89
q0 72 45.5 117t109.5 45q57 0 94.5 -37.5t37.5 -89.5q0 -68 -42.5 -115.5t-120.5 -47.5zM640 2080l9 167h524l-10 -167h-523z" />
    <glyph glyph-name="uni022B" unicode="&#x22b;" horiz-adv-x="1123" 
d="M468 -16q-130 0 -216.5 57.5t-129.5 162.5t-43 248q0 176 73 333q71 155 203.5 249t304.5 94q128 0 212.5 -56t126.5 -160.5t42 -248.5q0 -177 -70 -334q-70 -156 -200.5 -250.5t-302.5 -94.5zM504 151q75 0 129 47t89 124.5t51.5 168.5t16.5 179q0 94 -16.5 159.5
t-54 100t-97.5 34.5q-76 0 -131.5 -49t-91 -128t-53 -170.5t-17.5 -175.5q0 -142 43 -216t132 -74zM452 1306q-45 0 -80.5 37t-35.5 83q0 68 43 110.5t103 42.5q54 0 89 -35t35 -84q0 -65 -40 -109.5t-114 -44.5zM890 1306q-44 0 -80 36.5t-36 83.5q0 68 43 110.5t103 42.5
q55 0 90 -35t35 -84q0 -65 -40.5 -109.5t-114.5 -44.5zM475 1680l17 168h525l-19 -168h-523z" />
    <glyph glyph-name="uni022C" unicode="&#x22c;" horiz-adv-x="1351" 
d="M599 -16q-165 0 -276.5 83t-168 222.5t-56.5 310.5q0 182 49 346t141.5 291.5t223 200t293.5 72.5q125 0 218 -48.5t155 -133.5t93 -197t31 -238q0 -183 -48 -347.5t-139 -291t-221.5 -198.5t-294.5 -72zM628 170q103 0 182 63.5t132 168t80 229t26 247.5q-2 151 -32 249
t-91 145.5t-153 47.5q-102 0 -180.5 -63.5t-132 -168t-80.5 -228t-27 -244.5q4 -231 73.5 -338.5t202.5 -107.5zM991 1652q-56 0 -103 23.5t-81 58.5q-28 30 -50.5 45t-54.5 15q-37 0 -65 -20t-60 -69l-83 101q22 45 58 84t81 62.5t90 23.5q50 0 96 -23t82 -62
q27 -29 48 -42t45 -13q29 0 52.5 13.5t43.5 38t37 59.5l84 -106q-16 -49 -49 -92t-77.5 -70t-93.5 -27zM644 2078l9 167h524l-10 -167h-523z" />
    <glyph glyph-name="uni022D" unicode="&#x22d;" horiz-adv-x="1123" 
d="M468 -16q-130 0 -216.5 57.5t-129.5 162.5t-43 248q0 176 73 333q71 155 203.5 249t304.5 94q128 0 212.5 -56t126.5 -160.5t42 -248.5q0 -177 -70 -334q-70 -156 -200.5 -250.5t-302.5 -94.5zM504 151q75 0 129 47t89 124.5t51.5 168.5t16.5 179q0 94 -16.5 159.5
t-54 100t-97.5 34.5q-76 0 -131.5 -49t-91 -128t-53 -170.5t-17.5 -175.5q0 -142 43 -216t132 -74zM823 1241q-57 0 -104 23.5t-81 57.5q-28 31 -50.5 46t-54.5 15q-37 0 -65 -20t-60 -69l-83 101q33 68 97.5 119.5t131.5 51.5q50 0 96 -24t82 -62q27 -29 48 -42t46 -13
q28 0 51.5 13t43.5 38t37 59l86 -106q-16 -48 -49.5 -91.5t-78 -70t-93.5 -26.5zM468 1690l17 168h525l-19 -168h-523z" />
    <glyph glyph-name="uni0230" unicode="&#x230;" horiz-adv-x="1351" 
d="M599 -16q-165 0 -276.5 83t-168 222.5t-56.5 310.5q0 182 49 346t141.5 291.5t223 200t293.5 72.5q125 0 218 -48.5t155 -133.5t93 -197t31 -238q0 -183 -48 -347.5t-139 -291t-221.5 -198.5t-294.5 -72zM628 170q103 0 182 63.5t132 168t80 229t26 247.5q-2 151 -32 249
t-91 145.5t-153 47.5q-102 0 -180.5 -63.5t-132 -168t-80.5 -228t-27 -244.5q4 -231 73.5 -338.5t202.5 -107.5zM831 1636q-51 0 -91.5 38t-40.5 90q0 66 49 114.5t117 48.5q59 0 98 -36t39 -89q0 -68 -49.5 -117t-121.5 -49zM636 2043l9 167h524l-10 -167h-523z" />
    <glyph glyph-name="uni0231" unicode="&#x231;" horiz-adv-x="1123" 
d="M468 -16q-130 0 -216.5 57.5t-129.5 162.5t-43 248q0 176 73 333q71 155 203.5 249t304.5 94q128 0 212.5 -56t126.5 -160.5t42 -248.5q0 -177 -70 -334q-70 -156 -200.5 -250.5t-302.5 -94.5zM504 151q75 0 129 47t89 124.5t51.5 168.5t16.5 179q0 94 -16.5 159.5
t-54 100t-97.5 34.5q-76 0 -131.5 -49t-91 -128t-53 -170.5t-17.5 -175.5q0 -142 43 -216t132 -74zM675 1286q-52 0 -92 38.5t-40 90.5q0 65 49 114.5t117 49.5q59 0 98 -36t39 -89q0 -69 -49 -118.5t-122 -49.5zM477 1739l17 168h525l-19 -168h-523z" />
    <glyph glyph-name="uni0232" unicode="&#x232;" horiz-adv-x="1085" 
d="M351 0l76 576l-345 918h259l207 -619l29 -94l43 94l359 619h269l-582 -918l-77 -576h-238zM439 1656l9 167h524l-10 -167h-523z" />
    <glyph glyph-name="uni0233" unicode="&#x233;" horiz-adv-x="1056" 
d="M22 -495q-41 0 -91 13.5t-87 29.5l66 186q24 -15 59.5 -27.5t75.5 -12.5q80 0 144.5 38.5t121.5 104t111 145.5h-148l-61 366l-108 766h257l79 -731l37 -301q31 59 57 113.5t47 105.5q56 102 94 205.5t61.5 218.5t35.5 247q2 30 3.5 70.5t2.5 71.5h230q3 -21 2.5 -60
t-1.5 -77q-8 -164 -60 -344.5t-150 -374.5q-49 -101 -116.5 -210.5t-143.5 -211t-151 -179.5q-62 -63 -153 -107.5t-214 -44.5zM361 1308l17 168h525l-19 -168h-523z" />
    <glyph glyph-name="uni0237" unicode="&#x237;" horiz-adv-x="595" 
d="M-93 -507q-46 0 -83.5 9t-62.5 28l59 132q8 -5 24 -9t27 -4q61 0 102.5 35t69 94.5t44 134t27.5 153.5l143 1048h245l-151 -1112q-19 -142 -77 -257.5t-150.5 -183.5t-216.5 -68z" />
    <glyph glyph-name="uni0259" unicode="&#x259;" horiz-adv-x="1035" 
d="M559 1130q137 0 224 -62q91 -60 133 -159.5t40 -218.5q-2 -200 -81 -360q-77 -160 -212.5 -252t-306.5 -92q-95 0 -159.5 34.5t-97 91t-32.5 122.5q0 106 53 187.5t143.5 141t203 97t231.5 53.5v15.5v16.5q-2 90 -44.5 147.5t-138.5 57.5q-52 0 -109.5 -19.5t-112 -55
t-100.5 -82.5l-65 128q26 36 74.5 73t110 67.5t126 49.5t120.5 19zM696 564q-63 -2 -131 -27.5t-126.5 -68t-95 -97t-36.5 -115.5q0 -59 26.5 -84.5t77.5 -25.5q42 0 78 21t69 58q63 68 97 162.5t41 176.5z" />
    <glyph glyph-name="uni0292" unicode="&#x292;" horiz-adv-x="922" 
d="M195 -295q-51 0 -99 4t-97 5l26 185q40 -8 76.5 -12.5t82.5 -4.5q130 0 218.5 35.5t134 102t45.5 160.5q1 93 -68.5 132t-186.5 39l-99 105l274 360l115 108h-498l30 190h743l38 -60l-429 -558q87 1 151 -26t106 -71.5t63 -99t20 -109.5q-3 -152 -80.5 -262
t-221.5 -168.5t-344 -54.5z" />
    <glyph glyph-name="uni02B9" unicode="&#x2b9;" horiz-adv-x="608" 
d="M251 1162l125 578h234l-189 -578h-170z" />
    <glyph glyph-name="uni02BA" unicode="&#x2ba;" horiz-adv-x="1014" 
d="M251 1162l125 578h234l-189 -578h-170zM657 1162l125 578h234l-189 -578h-170z" />
    <glyph glyph-name="uni02BB" unicode="&#x2bb;" horiz-adv-x="696" 
d="M390 893q-43 18 -84 66.5t-67.5 116.5t-26.5 145q0 118 41 212.5t113 164.5t167 112l86 -118l-2 -22q-41 -20 -79 -67t-62 -109.5t-24 -129.5q0 -58 22 -119t58 -93l-4 -40z" />
    <glyph glyph-name="uni02BC" unicode="&#x2bc;" horiz-adv-x="676" 
d="M280 884l-87 118l2 22q42 20 80 67t62 109.5t24 129.5q0 73 -21.5 126.5t-59.5 85.5l4 40l139 121q44 -20 84.5 -70t67 -117t26.5 -139q0 -111 -41 -207t-113 -169t-167 -117z" />
    <glyph glyph-name="uni02BE" unicode="&#x2be;" horiz-adv-x="465" 
d="M227 1286v139q79 1 118.5 35.5t39.5 109.5q0 46 -20 76t-55.5 44.5t-82.5 14.5v136q80 0 155 -27t123.5 -86.5t49.5 -157.5q2 -132 -87 -208t-241 -76z" />
    <glyph glyph-name="uni02BF" unicode="&#x2bf;" horiz-adv-x="466" 
d="M504 1286q-151 0 -240 76t-88 208q1 98 49.5 157.5t123.5 86.5t155 27v-136q-47 0 -83 -14.5t-55.5 -44.5t-19.5 -76q0 -75 39.5 -109.5t118.5 -35.5v-139z" />
    <glyph glyph-name="circumflex" unicode="&#x2c6;" horiz-adv-x="779" 
d="M159 1202l-95 72l334 365h174l193 -365l-112 -67l-196 228z" />
    <glyph glyph-name="caron" unicode="&#x2c7;" horiz-adv-x="779" 
d="M293 1237l-227 323l98 80l233 -220l292 220l103 -78l-326 -325h-173z" />
    <glyph glyph-name="uni02C8" unicode="&#x2c8;" horiz-adv-x="293" 
d="M245 1300l-44 784h236l-46 -784h-146z" />
    <glyph glyph-name="uni02C9" unicode="&#x2c9;" 
d="M-156 1308l17 168h525l-19 -168h-523z" />
    <glyph glyph-name="uni02CA" unicode="&#x2ca;" 
d="M0 1241l-132 114q53 56 111.5 121t115 136.5t104.5 144.5l186 -154q-20 -40 -71.5 -96.5t-113.5 -112.5t-117 -98.5t-83 -54.5z" />
    <glyph glyph-name="uni02CB" unicode="&#x2cb;" 
d="M183 1290q-36 14 -91 54.5t-113 93.5t-103.5 102t-62.5 81l160 155l298 -408z" />
    <glyph glyph-name="uni02CC" unicode="&#x2cc;" horiz-adv-x="86" 
d="M-48 -598l-45 788h238l-48 -788h-145z" />
    <glyph glyph-name="breve" unicode="&#x2d8;" horiz-adv-x="703" 
d="M344 1270q-104 0 -177 48t-105 128t-14 176h150q4 -95 38 -140t118 -45q58 0 94 24t56.5 66t32.5 95h147q0 -98 -44 -178t-121 -127t-175 -47z" />
    <glyph glyph-name="dotaccent" unicode="&#x2d9;" horiz-adv-x="380" 
d="M168 1320q-50 0 -90 38t-40 90q0 65 48.5 114t115.5 49q60 0 99 -35.5t39 -89.5q0 -68 -49.5 -117t-122.5 -49z" />
    <glyph glyph-name="ring" unicode="&#x2da;" horiz-adv-x="708" 
d="M366 1224q-136 0 -212.5 64.5t-76.5 182.5q0 92 53 156t134.5 93.5t165.5 29.5q130 0 205 -65t75 -184q0 -91 -47 -152q-48 -63 -127 -94t-170 -31zM376 1341q83 0 130 36t47 125q0 58 -40 95t-101 37q-74 0 -127 -37.5t-53 -121.5q0 -56 43.5 -95t100.5 -39z" />
    <glyph glyph-name="ogonek" unicode="&#x2db;" horiz-adv-x="531" 
d="M192 -440q-84 0 -136 46t-52 111q0 48 23.5 90.5t63 80.5t89 69.5t100.5 57.5l86 43l75 -45q-98 -67 -160 -124t-62 -105q0 -37 18.5 -52t44.5 -15q34 0 66.5 14t73.5 43l49 -102q-50 -46 -121.5 -79t-157.5 -33z" />
    <glyph glyph-name="tilde" unicode="&#x2dc;" horiz-adv-x="793" 
d="M650 1261q-57 0 -104 23t-80 58q-28 31 -50.5 46t-54.5 15q-37 0 -65 -19.5t-60 -68.5l-83 99q33 69 97 120t132 51q49 0 95.5 -23t82.5 -62q27 -29 47.5 -42t45.5 -13q29 0 52.5 13t43 37.5t36.5 59.5l85 -106q-16 -48 -49 -91.5t-77.5 -70t-93.5 -26.5z" />
    <glyph glyph-name="hungarumlaut" unicode="&#x2dd;" horiz-adv-x="899" 
d="M635 1222l-104 62l249 418l165 -125q-13 -34 -50 -87.5t-84.5 -109t-94.5 -99t-81 -59.5zM201 1222l-106 62l240 418l163 -122q-13 -38 -48.5 -90.5t-79.5 -107t-89.5 -98t-79.5 -62.5z" />
    <glyph glyph-name="gravecomb" unicode="&#x300;" 
d="M183 1290q-36 14 -91 54.5t-113 93.5t-103.5 102t-62.5 81l160 155l298 -408z" />
    <glyph glyph-name="acutecomb" unicode="&#x301;" 
d="M84 1290l-85 78l309 408l159 -149q-14 -26 -47.5 -64.5t-79 -81.5t-93.5 -82.5t-91 -69t-72 -39.5z" />
    <glyph glyph-name="uni0302" unicode="&#x302;" 
d="M-156 1238l-96 73l334 351h175l193 -351l-111 -68l-197 232z" />
    <glyph glyph-name="tildecomb" unicode="&#x303;" 
d="M245 1241q-57 0 -104 23.5t-81 57.5q-28 31 -50.5 46t-54.5 15q-37 0 -65 -20t-60 -69l-83 101q33 68 97.5 119.5t131.5 51.5q50 0 96 -24t82 -62q27 -29 48 -42t46 -13q28 0 51.5 13t43.5 38t37 59l86 -106q-16 -48 -49.5 -91.5t-78 -70t-93.5 -26.5z" />
    <glyph glyph-name="uni0304" unicode="&#x304;" 
d="M-156 1308l17 168h525l-19 -168h-523z" />
    <glyph glyph-name="uni0306" unicode="&#x306;" 
d="M108 1262q-105 0 -175 45.5t-101 125t-21 183.5h150q4 -64 20 -105t49 -60.5t87 -19.5q59 0 94 23.5t55.5 65.5t34.5 96h146q0 -99 -43.5 -179t-120 -127.5t-175.5 -47.5z" />
    <glyph glyph-name="uni0307" unicode="&#x307;" 
d="M97 1286q-52 0 -92 38.5t-40 90.5q0 65 49 114.5t117 49.5q59 0 98 -36t39 -89q0 -69 -49 -118.5t-122 -49.5z" />
    <glyph glyph-name="uni0308" unicode="&#x308;" 
d="M-126 1306q-45 0 -80.5 37t-35.5 83q0 68 43 110.5t103 42.5q54 0 89 -35t35 -84q0 -65 -40 -109.5t-114 -44.5zM312 1306q-44 0 -80 36.5t-36 83.5q0 68 43 110.5t103 42.5q55 0 90 -35t35 -84q0 -65 -40.5 -109.5t-114.5 -44.5z" />
    <glyph glyph-name="hookabovecomb" unicode="&#x309;" 
d="M25 1264q-9 21 -13.5 42t-0.5 50q5 37 23.5 60t41.5 40t40.5 36.5t20.5 50.5q4 38 -20.5 58t-79.5 20q-34 0 -72 -10.5t-58 -21.5l15 140q35 19 86.5 29.5t99.5 10.5q113 0 176.5 -51.5t53.5 -136.5q-6 -50 -29.5 -84t-54 -58t-59.5 -46q-22 -16 -37.5 -51.5t-9.5 -77.5
h-123z" />
    <glyph glyph-name="uni030A" unicode="&#x30a;" 
d="M96 1224q-137 0 -214 64.5t-77 182.5q0 94 53 156q53 64 135.5 93.5t167.5 29.5q128 0 203.5 -65t75.5 -184q0 -92 -47 -152q-48 -63 -127 -94t-170 -31zM107 1341q82 0 129 36t47 125q0 58 -40 95t-101 37q-74 0 -128 -37.5t-54 -121.5q0 -56 44 -95t103 -39z" />
    <glyph glyph-name="uni030B" unicode="&#x30b;" 
d="M292 1222l-105 62l250 418l165 -125q-13 -34 -50 -87.5t-85 -109t-95 -99t-80 -59.5zM-142 1222l-107 62l241 418l163 -122q-14 -38 -49 -90.5t-79.5 -107t-89.5 -98t-79 -62.5z" />
    <glyph glyph-name="uni030C" unicode="&#x30c;" 
d="M12 1274l-233 320l96 85l240 -227l294 227l93 -84l-316 -321h-174z" />
    <glyph glyph-name="uni030F" unicode="&#x30f;" 
d="M-100 1271q-34 16 -81 59.5t-94.5 99t-84.5 109t-50 88.5l165 124l249 -417zM345 1271q-34 19 -79 62.5t-90 98.5t-79.5 107.5t-48.5 89.5l164 122l240 -417z" />
    <glyph glyph-name="uni0311" unicode="&#x311;" 
d="M109 1648q104 0 174 -45t101.5 -124t20.5 -183h-149q2 99 -36 142t-121 43q-58 0 -93.5 -24t-55.5 -66t-35 -95h-145q0 99 43.5 179t119.5 126.5t176 46.5z" />
    <glyph glyph-name="uni0312" unicode="&#x312;" 
d="M132 1793l93 -64l-4 -27q-34 -25 -47 -57t-13 -73q0 -45 22 -83.5t52 -43.5l-9 -71l-129 -87q-37 23 -66.5 56.5t-46.5 75t-17 89.5q0 81 36 156.5t129 128.5z" />
    <glyph glyph-name="uni031B" unicode="&#x31b;" 
d="M-46 956l22 155q92 0 152.5 17t96.5 47t52 69t18 84q1 11 3 19.5t0 14.5h183q2 -12 3 -22.5t0 -21.5q-4 -128 -76 -208t-190.5 -117t-263.5 -37z" />
    <glyph glyph-name="dotbelowcomb" unicode="&#x323;" 
d="M-67 -501q-51 0 -91.5 38t-40.5 90q0 66 49.5 115t116.5 49q59 0 98 -36t39 -89q0 -68 -49 -117.5t-122 -49.5z" />
    <glyph glyph-name="uni0324" unicode="&#x324;" 
d="M-279 -499q-48 0 -85.5 39t-37.5 89q0 65 45 113.5t109 48.5q57 0 94.5 -36t37.5 -88q0 -68 -46 -117t-117 -49zM148 -499q-50 0 -87 38.5t-37 89.5q0 65 45.5 113.5t108.5 48.5q58 0 95 -36t37 -88q0 -68 -46 -117t-116 -49z" />
    <glyph glyph-name="uni0326" unicode="&#x326;" 
d="M-73 -656l-85 56l4 25q32 24 47 55t16 82q2 41 -18 73.5t-49 36.5l7 61l138 102q59 -15 95.5 -72t36.5 -131q0 -70 -27 -132.5t-71 -104.5t-94 -51z" />
    <glyph glyph-name="uni0327" unicode="&#x327;" 
d="M-224 -456q-53 0 -107.5 10.5t-71.5 21.5l28 165q14 -6 39 -11t71 -5q54 0 98.5 36.5t45.5 125.5q1 58 -1 90.5t-6 52.5l61 4l67 -4q20 -30 35 -84t15 -123q0 -143 -75 -211t-199 -68z" />
    <glyph glyph-name="uni0328" unicode="&#x328;" 
d="M180 -440q-85 0 -137 46t-52 111q0 59 35 109.5t91.5 93.5t118.5 80l98 56l75 -56q-90 -63 -146.5 -116.5t-56.5 -99.5q0 -37 18.5 -52t45.5 -15q33 0 65.5 14t73.5 43l49 -102q-50 -46 -122 -79t-156 -33z" />
    <glyph glyph-name="uni032E" unicode="&#x32e;" 
d="M-65 -504q-105 0 -175.5 45.5t-101 125.5t-15.5 181h144q8 -93 42 -139t116 -46q87 0 129.5 51t53.5 134h147q0 -105 -43.5 -184.5t-120.5 -123.5t-176 -44z" />
    <glyph glyph-name="uni0331" unicode="&#x331;" 
d="M-306 -379l8 168h524l-9 -168h-523z" />
    <glyph glyph-name="uni0335" unicode="&#x335;" 
d="M410 680v-244h-820v244h820z" />
    <glyph glyph-name="uni0336" unicode="&#x336;" 
d="M574 657v-198h-1148v198h1148z" />
    <glyph glyph-name="uni0337" unicode="&#x337;" 
d="M275 1111l191 -1l-738 -1312l-194 1z" />
    <glyph glyph-name="uni0338" unicode="&#x338;" 
d="M280 1607h202l-755 -1809l-205 1z" />
    <glyph glyph-name="uni0394" unicode="&#x394;" horiz-adv-x="1374" 
d="M-27 0l-11 22l774 1450h32l544 -1446l-17 -26h-1322zM316 203h679l-270 786z" />
    <glyph glyph-name="uni0394" unicode="&#x3b4;" horiz-adv-x="1374" 
d="M-27 0l-11 22l774 1450h32l544 -1446l-17 -26h-1322zM316 203h679l-270 786z" />
    <glyph glyph-name="uni03A9" unicode="&#x3a9;" horiz-adv-x="1620" 
d="M60 0l23 182h338q-57 50 -104.5 118.5t-83 147.5t-55 161.5t-19.5 158.5q0 239 85 403.5t247.5 250t393.5 85.5q183 0 322.5 -75.5t217.5 -211t78 -314.5q0 -93 -27.5 -194.5t-75 -198.5t-111.5 -181t-138 -144h338l-17 -188h-563l-36 153q87 45 157.5 122.5t122 175
t79.5 204t28 211.5q0 134 -49 235t-138.5 157.5t-212.5 56.5q-153 0 -257.5 -68.5t-157.5 -195.5t-53 -301q0 -83 19.5 -172t54.5 -172.5t84 -149.5t108 -103l-56 -153h-542z" />
    <glyph glyph-name="uni03A9" unicode="&#x3c9;" horiz-adv-x="1620" 
d="M60 0l23 182h338q-57 50 -104.5 118.5t-83 147.5t-55 161.5t-19.5 158.5q0 239 85 403.5t247.5 250t393.5 85.5q183 0 322.5 -75.5t217.5 -211t78 -314.5q0 -93 -27.5 -194.5t-75 -198.5t-111.5 -181t-138 -144h338l-17 -188h-563l-36 153q87 45 157.5 122.5t122 175
t79.5 204t28 211.5q0 134 -49 235t-138.5 157.5t-212.5 56.5q-153 0 -257.5 -68.5t-157.5 -195.5t-53 -301q0 -83 19.5 -172t54.5 -172.5t84 -149.5t108 -103l-56 -153h-542z" />
    <glyph glyph-name="uni03BC" unicode="&#x3bc;" horiz-adv-x="1332" 
d="M95 -364l170 1179q3 23 3.5 48.5t-5.5 43.5t-21 18q-24 0 -44.5 -13t-44.5 -37l-58 129q19 25 61.5 54t99 49t114.5 20q73 0 116.5 -45t39.5 -124q-1 -19 -7.5 -73.5t-16 -129.5t-20 -155t-20 -152.5t-14.5 -119.5q0 -79 37 -113t98 -34q48 0 93 24.5t81 63.5t58 83
l102 762h241q-28 -222 -48 -376t-33.5 -255t-20.5 -162t-10 -95q0 -28 10.5 -44.5t23.5 -16.5q26 0 54.5 18t58.5 53l66 -114q-25 -29 -64 -62t-90 -55.5t-114 -22.5q-69 0 -112 33t-52 105q-40 -45 -78.5 -76t-85.5 -46.5t-115 -15.5q-41 0 -91.5 20t-68.5 54l-63 -420
h-230z" />
    <glyph glyph-name="pi" unicode="&#x3c0;" horiz-adv-x="1535" 
d="M282 -21l-154 129q16 4 46 19t61 37q77 56 99.5 133.5t32.5 181.5l66 419h-55q-64 0 -104 -22.5t-77 -61.5l-119 55q13 83 56 137.5t113.5 81t164.5 26.5h752q62 0 95 17t45 55h157q-6 -157 -81 -222.5t-229 -65.5q-7 -77 -14 -153t-13.5 -152t-13.5 -152.5t-14 -152.5
q-4 -108 64 -108q29 0 57.5 18.5t54.5 47.5t46 60l106 -75q-13 -44 -50.5 -88t-89 -80t-108 -57.5t-106.5 -21.5q-105 0 -159 58.5t-54 164.5q0 9 1 21.5t3.5 36.5t7.5 69t14.5 118t22.5 182t32 264h-286l-53 -487q-6 -115 -50.5 -211.5t-102.5 -149.5q-30 -25 -72 -44
t-92 -27z" />
    <glyph glyph-name="uni058F" unicode="&#x58f;" horiz-adv-x="1547" 
d="M818 -16l115 825q26 183 7.5 284.5t-75.5 142t-144 40.5q-95 0 -169 -39.5t-123 -140.5t-69 -287l-9 -91h-249l18 128q25 199 97.5 343.5t202 222.5t327.5 78q180 0 286.5 -74t144.5 -216t10 -346l-124 -870h-246zM511 216l24 165h882l-21 -165h-885zM592 582l23 165h854
l-23 -165h-854z" />
    <glyph glyph-name="uni1E02" unicode="&#x1e02;" horiz-adv-x="1248" 
d="M471 -14q-16 0 -52 2t-79 5t-79.5 5t-54.5 2h-111l197 1494h111q15 0 57 2.5t93 5.5t94.5 5.5t60.5 2.5q163 0 264 -41.5t148 -116t47 -176.5q0 -149 -78 -250t-219 -142q85 -14 148.5 -55.5t99 -105.5t36.5 -147q2 -168 -79.5 -276.5t-235 -161t-368.5 -52.5zM516 160
q117 0 201.5 32.5t129.5 98t45 162.5q0 125 -73 180t-221 55q-44 0 -86 -1t-82 -4l-67 -509q17 -4 44 -7.5t56 -5t53 -1.5zM454 859q26 -1 56.5 -2t82.5 -1q147 0 235.5 76t88.5 218q0 98 -62.5 142t-198.5 47q-19 1 -43.5 0t-49.5 -3t-47 -4zM766 1636q-51 0 -91.5 38
t-40.5 90q0 66 49 114.5t117 48.5q59 0 98 -36t39 -89q0 -68 -49.5 -117t-121.5 -49z" />
    <glyph glyph-name="uni1E03" unicode="&#x1e03;" horiz-adv-x="1179" 
d="M444 -16q-53 0 -117 12t-114 27l-134 -33l215 1608h235l-64 -535l-31 -162q40 63 93.5 114.5t118 82t138.5 30.5q158 0 234.5 -114t76.5 -306q0 -174 -72 -339q-48 -111 -130 -198.5t-195 -137t-254 -49.5zM472 147q117 0 203 82q81 82 123 206.5t42 249.5
q0 116 -26.5 190t-94.5 74q-44 0 -88.5 -28t-86 -72.5t-75 -94.5t-56.5 -93l-66 -497q55 -17 125 -17zM819 1286q-52 0 -92 38.5t-40 90.5q0 65 49 114.5t117 49.5q59 0 98 -36t39 -89q0 -69 -49 -118.5t-122 -49.5z" />
    <glyph glyph-name="uni1E08" unicode="&#x1e08;" horiz-adv-x="1131" 
d="M601 -16q-183 0 -295 92t-161 237t-49 314q0 253 96 454q95 202 261 315.5t371 113.5q51 0 101 -6.5t104.5 -22t120.5 -41.5l-79 -214q-50 32 -106 54.5t-158 22.5q-162 0 -264 -101q-103 -102 -149.5 -254.5t-46.5 -310.5q0 -133 32 -235.5t100 -161t176 -58.5
q61 0 128 15.5t122 39t84 45.5l35 -190q-23 -18 -65 -37t-98 -35t-122 -26t-138 -10zM428 -456q-53 0 -107.5 10.5t-71.5 21.5l28 165q14 -6 39 -11t71 -5q54 0 98.5 36.5t45.5 125.5q1 58 -1 90.5t-6 52.5l61 4l67 -4q20 -30 35 -84t15 -123q0 -143 -75 -211t-199 -68z
M813 1636l-95 78l310 407l168 -148q-14 -26 -48 -64.5t-79 -81.5t-93 -82.5t-91 -69t-72 -39.5z" />
    <glyph glyph-name="uni1E09" unicode="&#x1e09;" horiz-adv-x="901" 
d="M460 -16q-122 0 -207 54.5t-129 154t-44 234.5q0 174 70 338q69 162 201.5 262.5t308.5 100.5q40 0 82.5 -4.5t81 -12.5t63.5 -21l-61 -223q-23 20 -53 37t-64.5 27.5t-69.5 10.5q-38 0 -76.5 -17.5t-73.5 -50.5q-70 -64 -115 -174t-45 -241q0 -154 43.5 -223.5
t138.5 -69.5q62 0 125 33.5t123 94.5l71 -126q-28 -40 -88.5 -82.5t-135.5 -72t-146 -29.5zM312 -456q-53 0 -107.5 10.5t-71.5 21.5l28 165q14 -6 39 -11t71 -5q54 0 98.5 36.5t45.5 125.5q1 58 -1 90.5t-6 52.5l61 4l67 -4q20 -30 35 -84t15 -123q0 -143 -75 -211
t-199 -68zM614 1290l-85 78l309 408l159 -149q-14 -26 -47.5 -64.5t-79 -81.5t-93.5 -82.5t-91 -69t-72 -39.5z" />
    <glyph glyph-name="uni1E0A" unicode="&#x1e0a;" horiz-adv-x="1360" 
d="M529 -16q-60 2 -111.5 5.5t-102 7t-107.5 3.5h-113l197 1494h116q15 0 47 1.5t72.5 4t82.5 5t77.5 4t54.5 1.5q294 0 430 -164.5t136 -458.5q0 -190 -54.5 -355t-156.5 -289t-245.5 -192.5t-322.5 -66.5zM569 168q160 3 269 105q110 101 162.5 263t52.5 347
q0 169 -37 267q-39 96 -119.5 137.5t-216.5 41.5q-37 0 -87.5 -5.5t-79.5 -11.5l-146 -1118q39 -14 93.5 -20.5t108.5 -5.5zM821 1636q-51 0 -91.5 38t-40.5 90q0 66 49 114.5t117 48.5q59 0 98 -36t39 -89q0 -68 -49.5 -117t-121.5 -49z" />
    <glyph glyph-name="uni1E0B" unicode="&#x1e0b;" horiz-adv-x="1172" 
d="M386 -16q-158 0 -234.5 113.5t-76.5 306.5q0 173 73 342q48 111 129.5 197.5t194.5 135.5t253 49q27 0 57 -2t62 -8l66 480h240l-212 -1598h-220l16 216q-39 -64 -92 -116.5t-117.5 -84t-138.5 -31.5zM450 163q43 0 87 28t85 73t74.5 95.5t56.5 95.5l68 492
q-55 21 -124 21q-118 0 -201 -83t-125 -208t-42 -250q0 -74 11.5 -134t37.5 -95t72 -35zM553 1286q-52 0 -92 38.5t-40 90.5q0 65 49 114.5t117 49.5q59 0 98 -36t39 -89q0 -69 -49 -118.5t-122 -49.5z" />
    <glyph glyph-name="uni1E0C" unicode="&#x1e0c;" horiz-adv-x="1360" 
d="M529 -16q-60 2 -111.5 5.5t-102 7t-107.5 3.5h-113l197 1494h116q15 0 47 1.5t72.5 4t82.5 5t77.5 4t54.5 1.5q294 0 430 -164.5t136 -458.5q0 -190 -54.5 -355t-156.5 -289t-245.5 -192.5t-322.5 -66.5zM569 168q160 3 269 105q110 101 162.5 263t52.5 347
q0 169 -37 267q-39 96 -119.5 137.5t-216.5 41.5q-37 0 -87.5 -5.5t-79.5 -11.5l-146 -1118q39 -14 93.5 -20.5t108.5 -5.5zM539 -501q-51 0 -91.5 38t-40.5 90q0 66 49.5 115t116.5 49q59 0 98 -36t39 -89q0 -68 -49 -117.5t-122 -49.5z" />
    <glyph glyph-name="uni1E0D" unicode="&#x1e0d;" horiz-adv-x="1172" 
d="M386 -16q-158 0 -234.5 113.5t-76.5 306.5q0 173 73 342q48 111 129.5 197.5t194.5 135.5t253 49q27 0 57 -2t62 -8l66 480h240l-212 -1598h-220l16 216q-39 -64 -92 -116.5t-117.5 -84t-138.5 -31.5zM450 163q43 0 87 28t85 73t74.5 95.5t56.5 95.5l68 492
q-55 21 -124 21q-118 0 -201 -83t-125 -208t-42 -250q0 -74 11.5 -134t37.5 -95t72 -35zM446 -501q-51 0 -91.5 38t-40.5 90q0 66 49.5 115t116.5 49q59 0 98 -36t39 -89q0 -68 -49 -117.5t-122 -49.5z" />
    <glyph glyph-name="uni1E0E" unicode="&#x1e0e;" horiz-adv-x="1360" 
d="M529 -16q-60 2 -111.5 5.5t-102 7t-107.5 3.5h-113l197 1494h116q15 0 47 1.5t72.5 4t82.5 5t77.5 4t54.5 1.5q294 0 430 -164.5t136 -458.5q0 -190 -54.5 -355t-156.5 -289t-245.5 -192.5t-322.5 -66.5zM569 168q160 3 269 105q110 101 162.5 263t52.5 347
q0 169 -37 267q-39 96 -119.5 137.5t-216.5 41.5q-37 0 -87.5 -5.5t-79.5 -11.5l-146 -1118q39 -14 93.5 -20.5t108.5 -5.5zM300 -379l8 168h524l-9 -168h-523z" />
    <glyph glyph-name="uni1E0F" unicode="&#x1e0f;" horiz-adv-x="1172" 
d="M386 -16q-158 0 -234.5 113.5t-76.5 306.5q0 173 73 342q48 111 129.5 197.5t194.5 135.5t253 49q27 0 57 -2t62 -8l66 480h240l-212 -1598h-220l16 216q-39 -64 -92 -116.5t-117.5 -84t-138.5 -31.5zM450 163q43 0 87 28t85 73t74.5 95.5t56.5 95.5l68 492
q-55 21 -124 21q-118 0 -201 -83t-125 -208t-42 -250q0 -74 11.5 -134t37.5 -95t72 -35zM207 -379l8 168h524l-9 -168h-523z" />
    <glyph glyph-name="uni1E14" unicode="&#x1e14;" horiz-adv-x="1134" 
d="M95 0l197 1494h798l-17 -193l-561 6l-58 -451l422 6l-21 -199l-425 13l-65 -489l662 13l-22 -200h-910zM484 1654l9 167h524l-10 -167h-523zM865 1958q-36 14 -91 54.5t-112.5 93.5t-103.5 102t-63 81l168 154l297 -407z" />
    <glyph glyph-name="uni1E15" unicode="&#x1e15;" horiz-adv-x="1036" 
d="M478 -16q-136 0 -225 61q-90 62 -132 161.5t-41 218.5q1 193 81 358q77 161 212.5 253t305.5 92q96 0 160.5 -34.5t97.5 -91t33 -122.5q0 -106 -53.5 -188t-144 -141t-203.5 -96t-232 -54v-15v-16q3 -91 45.5 -148.5t138.5 -57.5q53 0 109.5 19.5t111.5 55t101 82.5
l65 -129q-26 -35 -74.5 -72t-110 -68t-125.5 -49.5t-120 -18.5zM339 550q64 2 132 27.5t127 68t95.5 97t36.5 115.5q0 59 -26.5 84.5t-79.5 25.5q-41 0 -76.5 -20.5t-69.5 -57.5q-62 -68 -96.5 -163t-42.5 -177zM443 1308l17 168h525l-19 -168h-523zM824 1605
q-36 14 -91 54.5t-113 93.5t-103.5 102t-62.5 81l160 155l298 -408z" />
    <glyph glyph-name="uni1E16" unicode="&#x1e16;" horiz-adv-x="1134" 
d="M95 0l197 1494h798l-17 -193l-561 6l-58 -451l422 6l-21 -199l-425 13l-65 -489l662 13l-22 -200h-910zM484 1654l9 167h524l-10 -167h-523zM743 1958l-95 78l310 407l168 -148q-14 -26 -48 -64.5t-79 -81.5t-93 -82.5t-91 -69t-72 -39.5z" />
    <glyph glyph-name="uni1E17" unicode="&#x1e17;" horiz-adv-x="1036" 
d="M478 -16q-136 0 -225 61q-90 62 -132 161.5t-41 218.5q1 193 81 358q77 161 212.5 253t305.5 92q96 0 160.5 -34.5t97.5 -91t33 -122.5q0 -106 -53.5 -188t-144 -141t-203.5 -96t-232 -54v-15v-16q3 -91 45.5 -148.5t138.5 -57.5q53 0 109.5 19.5t111.5 55t101 82.5
l65 -129q-26 -35 -74.5 -72t-110 -68t-125.5 -49.5t-120 -18.5zM339 550q64 2 132 27.5t127 68t95.5 97t36.5 115.5q0 59 -26.5 84.5t-79.5 25.5q-41 0 -76.5 -20.5t-69.5 -57.5q-62 -68 -96.5 -163t-42.5 -177zM443 1308l17 168h525l-19 -168h-523zM680 1605l-85 78
l309 408l159 -149q-14 -26 -47.5 -64.5t-79 -81.5t-93.5 -82.5t-91 -69t-72 -39.5z" />
    <glyph glyph-name="uni1E1C" unicode="&#x1e1c;" horiz-adv-x="1134" 
d="M95 0l197 1494h798l-17 -193l-561 6l-58 -451l422 6l-21 -199l-425 13l-65 -489l662 13l-22 -200h-910zM400 -456q-53 0 -107.5 10.5t-71.5 21.5l28 165q14 -6 39 -11t71 -5q54 0 98.5 36.5t45.5 125.5q1 58 -1 90.5t-6 52.5l61 4l67 -4q20 -30 35 -84t15 -123
q0 -143 -75 -211t-199 -68zM739 1634q-104 0 -174 44.5t-101.5 124.5t-21.5 183h150q6 -95 40 -140t116 -45q59 0 94.5 24t55.5 66t34 95h146q0 -98 -43.5 -178t-120 -127t-175.5 -47z" />
    <glyph glyph-name="uni1E1D" unicode="&#x1e1d;" horiz-adv-x="1036" 
d="M478 -16q-136 0 -225 61q-90 62 -132 161.5t-41 218.5q1 193 81 358q77 161 212.5 253t305.5 92q96 0 160.5 -34.5t97.5 -91t33 -122.5q0 -106 -53.5 -188t-144 -141t-203.5 -96t-232 -54v-15v-16q3 -91 45.5 -148.5t138.5 -57.5q53 0 109.5 19.5t111.5 55t101 82.5
l65 -129q-26 -35 -74.5 -72t-110 -68t-125.5 -49.5t-120 -18.5zM339 550q64 2 132 27.5t127 68t95.5 97t36.5 115.5q0 59 -26.5 84.5t-79.5 25.5q-41 0 -76.5 -20.5t-69.5 -57.5q-62 -68 -96.5 -163t-42.5 -177zM343 -456q-53 0 -107.5 10.5t-71.5 21.5l28 165q14 -6 39 -11
t71 -5q54 0 98.5 36.5t45.5 125.5q1 58 -1 90.5t-6 52.5l61 4l67 -4q20 -30 35 -84t15 -123q0 -143 -75 -211t-199 -68zM707 1262q-105 0 -175 45.5t-101 125t-21 183.5h150q4 -64 20 -105t49 -60.5t87 -19.5q59 0 94 23.5t55.5 65.5t34.5 96h146q0 -99 -43.5 -179
t-120 -127.5t-175.5 -47.5z" />
    <glyph glyph-name="uni1E1E" unicode="&#x1e1e;" horiz-adv-x="1040" 
d="M95 0l197 1494h794l-22 -193l-552 7l-60 -463l446 7l-21 -205l-450 13l-87 -660h-245zM683 1636q-51 0 -91.5 38t-40.5 90q0 66 49 114.5t117 48.5q59 0 98 -36t39 -89q0 -68 -49.5 -117t-121.5 -49z" />
    <glyph glyph-name="uni1E1F" unicode="&#x1e1f;" horiz-adv-x="702" 
d="M131 0l128 940h-130l32 174h122l15 95q10 69 30.5 128t50.5 108q57 92 146.5 142.5t208.5 50.5q46 0 85 -6t70 -19l-54 -183q-17 16 -47 27.5t-72 9.5q-68 0 -112 -55t-58 -149l-22 -149h198l-17 -174h-203l-128 -940h-243zM621 1772q-52 0 -92 38.5t-40 90.5
q0 65 49 114.5t117 49.5q59 0 98 -36t39 -89q0 -69 -49 -118.5t-122 -49.5z" />
    <glyph glyph-name="uni1E20" unicode="&#x1e20;" horiz-adv-x="1338" 
d="M617 -16q-178 0 -295 90q-118 88 -171.5 229t-55.5 302q-3 265 95 471t269 320t380 114q60 0 107.5 -3.5t92.5 -12t95 -22t115 -35.5l-64 -223q-28 22 -85 44.5t-127 37.5t-140 15q-168 0 -278 -103t-160.5 -258t-50.5 -315q0 -131 32.5 -235.5t102.5 -165t178 -60.5
q62 0 138 14t138 43l44 325h-232l24 197h467l-88 -666q-27 -3 -57.5 -11t-81.5 -22q-100 -30 -195 -50t-197 -20zM564 1656l9 167h524l-10 -167h-523z" />
    <glyph glyph-name="uni1E21" unicode="&#x1e21;" horiz-adv-x="1168" 
d="M382 -497q-44 0 -98 5.5t-99.5 14.5t-65.5 18l49 192q27 -15 70.5 -30t93.5 -24.5t97 -9.5q112 0 169 59.5t79 177.5l53 301q-59 -93 -147.5 -158t-196.5 -65q-158 0 -234.5 113.5t-76.5 306.5q0 173 73 342q48 111 129.5 197.5t194.5 135.5t253 49q53 0 115 -10.5
t114 -25.5l137 36l-164 -1197q-11 -78 -37.5 -141t-68.5 -111q-83 -95 -198 -135.5t-241 -40.5zM450 163q42 0 84.5 25.5t82.5 67.5t74 92t59 100l70 503q-28 9 -58.5 13t-64.5 4q-118 0 -201 -83t-125 -208t-42 -250q0 -74 11.5 -134t37.5 -95t72 -35zM493 1308l17 168h525
l-19 -168h-523z" />
    <glyph glyph-name="uni1E24" unicode="&#x1e24;" horiz-adv-x="1406" 
d="M91 0l197 1494h246l-88 -663h581l86 663h248l-197 -1494h-247l86 653h-580l-87 -653h-245zM561 -501q-51 0 -91.5 38t-40.5 90q0 66 49.5 115t116.5 49q59 0 98 -36t39 -89q0 -68 -49 -117.5t-122 -49.5z" />
    <glyph glyph-name="uni1E25" unicode="&#x1e25;" horiz-adv-x="1209" 
d="M83 0l207 1598h242l-59 -496l-35 -209q81 106 190 170.5t224 64.5q117 0 176 -66.5t59 -219.5q0 -16 -4 -55.5t-11.5 -99.5t-17.5 -136.5t-22.5 -165.5t-27 -186t-30.5 -199h-246q10 73 18.5 133t16 113t15 102.5t14.5 99t15 102.5q14 99 21 163t7 101q0 63 -22 85.5
t-72 22.5q-47 0 -108.5 -35t-119.5 -87t-93 -103l-96 -697h-241zM464 -501q-51 0 -91.5 38t-40.5 90q0 66 49.5 115t116.5 49q59 0 98 -36t39 -89q0 -68 -49 -117.5t-122 -49.5z" />
    <glyph glyph-name="uni1E2A" unicode="&#x1e2a;" horiz-adv-x="1406" 
d="M91 0l197 1494h246l-88 -663h581l86 663h248l-197 -1494h-247l86 653h-580l-87 -653h-245zM563 -504q-105 0 -175.5 45.5t-101 125.5t-15.5 181h144q8 -93 42 -139t116 -46q87 0 129.5 51t53.5 134h147q0 -105 -43.5 -184.5t-120.5 -123.5t-176 -44z" />
    <glyph glyph-name="uni1E2B" unicode="&#x1e2b;" horiz-adv-x="1209" 
d="M83 0l207 1598h242l-59 -496l-35 -209q81 106 190 170.5t224 64.5q117 0 176 -66.5t59 -219.5q0 -16 -4 -55.5t-11.5 -99.5t-17.5 -136.5t-22.5 -165.5t-27 -186t-30.5 -199h-246q10 73 18.5 133t16 113t15 102.5t14.5 99t15 102.5q14 99 21 163t7 101q0 63 -22 85.5
t-72 22.5q-47 0 -108.5 -35t-119.5 -87t-93 -103l-96 -697h-241zM466 -504q-105 0 -175.5 45.5t-101 125.5t-15.5 181h144q8 -93 42 -139t116 -46q87 0 129.5 51t53.5 134h147q0 -105 -43.5 -184.5t-120.5 -123.5t-176 -44z" />
    <glyph glyph-name="uni1E2E" unicode="&#x1e2e;" horiz-adv-x="609" 
d="M114 0l198 1494h246l-197 -1494h-247zM237 1639q-49 0 -86.5 39t-37.5 89q0 72 45 117t109 45q57 0 94.5 -37.5t37.5 -89.5q0 -68 -42.5 -115.5t-119.5 -47.5zM675 1639q-48 0 -86 39t-38 89q0 72 45.5 117t109.5 45q57 0 94.5 -37.5t37.5 -89.5q0 -68 -42.5 -115.5
t-120.5 -47.5zM481 2059l-95 78l310 407l168 -148q-14 -26 -48 -64.5t-79 -81.5t-93 -82.5t-91 -69t-72 -39.5z" />
    <glyph glyph-name="uni1E2F" unicode="&#x1e2f;" horiz-adv-x="597" 
d="M107 0l151 1114h246l-152 -1114h-245zM174 1306q-45 0 -80.5 37t-35.5 83q0 68 43 110.5t103 42.5q54 0 89 -35t35 -84q0 -65 -40 -109.5t-114 -44.5zM612 1306q-44 0 -80 36.5t-36 83.5q0 68 43 110.5t103 42.5q55 0 90 -35t35 -84q0 -65 -40.5 -109.5t-114.5 -44.5z
M391 1662l-85 78l309 408l159 -149q-14 -26 -47.5 -64.5t-79 -81.5t-93.5 -82.5t-91 -69t-72 -39.5z" />
    <glyph glyph-name="uni1E36" unicode="&#x1e36;" horiz-adv-x="984" 
d="M95 0l197 1494h246l-171 -1294l532 6l-28 -206h-776zM444 -501q-51 0 -91.5 38t-40.5 90q0 66 49.5 115t116.5 49q59 0 98 -36t39 -89q0 -68 -49 -117.5t-122 -49.5z" />
    <glyph glyph-name="uni1E37" unicode="&#x1e37;" horiz-adv-x="598" 
d="M109 2l216 1596h245l-217 -1596h-244zM170 -501q-51 0 -91.5 38t-40.5 90q0 66 49.5 115t116.5 49q59 0 98 -36t39 -89q0 -68 -49 -117.5t-122 -49.5z" />
    <glyph glyph-name="uni1E3A" unicode="&#x1e3a;" horiz-adv-x="984" 
d="M95 0l197 1494h246l-171 -1294l532 6l-28 -206h-776zM205 -379l8 168h524l-9 -168h-523z" />
    <glyph glyph-name="uni1E3B" unicode="&#x1e3b;" horiz-adv-x="598" 
d="M109 2l216 1596h245l-217 -1596h-244zM-69 -379l8 168h524l-9 -168h-523z" />
    <glyph glyph-name="uni1E40" unicode="&#x1e40;" horiz-adv-x="1816" 
d="M725 -18l-143 1069l-24 309l-57 -316l-236 -1044h-245l385 1494h335l127 -1033l11 -184l48 184l393 1033h358l-32 -1494h-248l63 1036l24 324l-111 -293l-427 -1069zM1050 1636q-51 0 -91.5 38t-40.5 90q0 66 49 114.5t117 48.5q59 0 98 -36t39 -89q0 -68 -49.5 -117
t-121.5 -49z" />
    <glyph glyph-name="uni1E41" unicode="&#x1e41;" horiz-adv-x="1794" 
d="M79 2l151 1112h235l-18 -205q78 99 179 159t207 60q101 0 159 -49t70 -161q78 96 177 153t202 57q118 0 175.5 -66.5t57.5 -219.5q0 -33 -9.5 -118t-29.5 -224q-15 -110 -32 -225.5t-41 -272.5h-245q6 50 13 97t14 96t14.5 103t16.5 116t20 136q13 95 20.5 160.5
t7.5 103.5q0 63 -22 85.5t-74 22.5q-57 0 -131.5 -50.5t-136.5 -131.5q-4 -31 -9.5 -77t-14.5 -103q-8 -59 -16 -116l-16 -114t-16.5 -112.5t-16 -109.5t-16.5 -106h-244q5 35 13.5 96t19.5 138t22.5 159t21.5 157q11 93 19 163.5t8 98.5q1 62 -21.5 85t-72.5 23
q-33 0 -73.5 -19.5t-83.5 -51.5t-80 -71.5t-63 -78.5l-96 -699h-245zM994 1286q-52 0 -92 38.5t-40 90.5q0 65 49 114.5t117 49.5q59 0 98 -36t39 -89q0 -69 -49 -118.5t-122 -49.5z" />
    <glyph glyph-name="uni1E42" unicode="&#x1e42;" horiz-adv-x="1816" 
d="M725 -18l-143 1069l-24 309l-57 -316l-236 -1044h-245l385 1494h335l127 -1033l11 -184l48 184l393 1033h358l-32 -1494h-248l63 1036l24 324l-111 -293l-427 -1069zM768 -501q-51 0 -91.5 38t-40.5 90q0 66 49.5 115t116.5 49q59 0 98 -36t39 -89q0 -68 -49 -117.5
t-122 -49.5z" />
    <glyph glyph-name="uni1E43" unicode="&#x1e43;" horiz-adv-x="1794" 
d="M79 2l151 1112h235l-18 -205q78 99 179 159t207 60q101 0 159 -49t70 -161q78 96 177 153t202 57q118 0 175.5 -66.5t57.5 -219.5q0 -33 -9.5 -118t-29.5 -224q-15 -110 -32 -225.5t-41 -272.5h-245q6 50 13 97t14 96t14.5 103t16.5 116t20 136q13 95 20.5 160.5
t7.5 103.5q0 63 -22 85.5t-74 22.5q-57 0 -131.5 -50.5t-136.5 -131.5q-4 -31 -9.5 -77t-14.5 -103q-8 -59 -16 -116l-16 -114t-16.5 -112.5t-16 -109.5t-16.5 -106h-244q5 35 13.5 96t19.5 138t22.5 159t21.5 157q11 93 19 163.5t8 98.5q1 62 -21.5 85t-72.5 23
q-33 0 -73.5 -19.5t-83.5 -51.5t-80 -71.5t-63 -78.5l-96 -699h-245zM756 -501q-51 0 -91.5 38t-40.5 90q0 66 49.5 115t116.5 49q59 0 98 -36t39 -89q0 -68 -49 -117.5t-122 -49.5z" />
    <glyph glyph-name="uni1E44" unicode="&#x1e44;" horiz-adv-x="1401" 
d="M95 0l197 1494h236l400 -946l67 -221l17 247l111 920h235l-196 -1494h-224l-408 969l-67 241l-17 -283l-120 -927h-231zM842 1636q-51 0 -91.5 38t-40.5 90q0 66 49 114.5t117 48.5q59 0 98 -36t39 -89q0 -68 -49.5 -117t-121.5 -49z" />
    <glyph glyph-name="uni1E45" unicode="&#x1e45;" horiz-adv-x="1208" 
d="M78 0l152 1114h234l-19 -213q82 103 188.5 165t219.5 62q117 0 176.5 -66.5t59.5 -219.5q0 -23 -5 -71.5t-14 -117t-21 -152.5q-3 -24 -8 -60t-11.5 -83t-15 -103.5t-18.5 -120.5t-21 -134h-246q7 45 17 116.5t24 167.5t31 216t25.5 196.5t9.5 117.5q0 63 -22 85.5
t-73 22.5q-35 0 -79.5 -20.5t-90 -54t-85.5 -74t-67 -79.5l-96 -694h-245zM702 1286q-52 0 -92 38.5t-40 90.5q0 65 49 114.5t117 49.5q59 0 98 -36t39 -89q0 -69 -49 -118.5t-122 -49.5z" />
    <glyph glyph-name="uni1E46" unicode="&#x1e46;" horiz-adv-x="1401" 
d="M95 0l197 1494h236l400 -946l67 -221l17 247l111 920h235l-196 -1494h-224l-408 969l-67 241l-17 -283l-120 -927h-231zM560 -501q-51 0 -91.5 38t-40.5 90q0 66 49.5 115t116.5 49q59 0 98 -36t39 -89q0 -68 -49 -117.5t-122 -49.5z" />
    </font>
</defs>
</svg>
