<?xml version="1.0" standalone="no"?>
<!DOCTYPE svg PUBLIC "-//W3C//DTD SVG 1.1//EN" "http://www.w3.org/Graphics/SVG/1.1/DTD/svg11.dtd" >
<svg xmlns="http://www.w3.org/2000/svg" xmlns:xlink="http://www.w3.org/1999/xlink" version="1.1">
<metadata>
Created by FontForge 20201107 at Fri Aug 21 16:47:58 2020
 By 
Copyright 2019 The Merriweather Project Authors (https://github.com/SorkinType/Merriweather-Sans)
</metadata>
<defs>
<font id="MerriweatherSans-LightItalic" horiz-adv-x="0" >
  <font-face 
    font-family="Merriweather Sans Light"
    font-weight="300"
    font-style="italic"
    font-stretch="normal"
    units-per-em="2000"
    panose-1="0 0 0 0 0 0 0 0 0 0"
    ascent="1600"
    descent="-400"
    x-height="1114"
    cap-height="1494"
    bbox="-574 -680 2794 2536"
    underline-thickness="110"
    underline-position="-299"
    slope="-7.5"
    unicode-range="U+000D-FB02"
  />
<missing-glyph horiz-adv-x="1802" 
d="M214 0v1382h1372v-1382h-1372zM570 226l328 356l344 -356l112 112l-348 354l348 344l-118 116l-334 -354l-338 354l-114 -116l342 -348l-340 -326z" />
    <glyph glyph-name="fi" unicode="fi" horiz-adv-x="1288" 
d="M164 0l132 998h-148l22 114l142 2l18 120q8 62 24.5 115t41.5 99q50 90 133 140t191 50q44 0 79 -5t69 -19l-36 -118q-22 15 -55 22.5t-75 7.5q-91 0 -150 -76t-74 -178l-20 -158h238l-10 -116h-244l-134 -998h-144zM868 0l150 1118h146l-152 -1118h-144zM1132 1374
q-36 0 -60 25t-24 65q0 48 32.5 84t75.5 36q41 0 65.5 -24t24.5 -62q0 -49 -34.5 -86.5t-79.5 -37.5z" />
    <glyph glyph-name="fl" unicode="fl" horiz-adv-x="1228" 
d="M164 0l132 998h-148l22 114l142 2l18 120q8 62 24.5 115t41.5 99q50 90 133 140t191 50q44 0 79 -5t69 -19l-36 -118q-22 15 -55 22.5t-75 7.5q-91 0 -150 -76t-74 -178l-20 -158h238l-10 -116h-244l-134 -998h-144zM808 2l218 1596h144l-216 -1596h-146z" />
    <glyph glyph-name="f_f" unicode="ff" horiz-adv-x="1356" 
d="M164 0l132 998h-148l22 114l142 2l18 120q8 62 24.5 115t41.5 99q50 90 133 140t191 50q44 0 79 -5t69 -19l-36 -118q-22 15 -55 22.5t-75 7.5q-91 0 -150 -76t-74 -178l-20 -158h238l-10 -116h-244l-134 -998h-144zM842 0l132 998h-148l22 114l142 2l18 120
q8 62 24.5 115t41.5 99q50 90 133 140t191 50q44 0 79 -5t69 -19l-36 -118q-22 15 -55 22.5t-75 7.5q-91 0 -150 -76t-74 -178l-20 -158h238l-10 -116h-244l-134 -998h-144z" />
    <glyph glyph-name="f_f_i" unicode="ffi" horiz-adv-x="1908" 
d="M164 0l132 998h-148l22 114l142 2l18 120q8 62 24.5 115t41.5 99q50 90 133 140t191 50q44 0 79 -5t69 -19l-36 -118q-22 15 -55 22.5t-75 7.5q-91 0 -150 -76t-74 -178l-20 -158h238l-10 -116h-244l-134 -998h-144zM842 0l132 998h-148l22 114l142 2l18 120
q8 62 24.5 115t41.5 99q50 90 133 140t191 50q44 0 79 -5t69 -19l-36 -118q-22 15 -55 22.5t-75 7.5q-91 0 -150 -76t-74 -178l-20 -158h238l-10 -116h-244l-134 -998h-144zM1546 0l150 1118h146l-152 -1118h-144zM1752 1374q-36 0 -60 25t-24 65q0 48 32.5 84t75.5 36
q41 0 65.5 -24t24.5 -62q0 -49 -34.5 -86.5t-79.5 -37.5z" />
    <glyph glyph-name="f_f_l" unicode="ffl" horiz-adv-x="1906" 
d="M164 0l132 998h-148l22 114l142 2l18 120q8 62 24.5 115t41.5 99q50 90 133 140t191 50q44 0 79 -5t69 -19l-36 -118q-22 15 -55 22.5t-75 7.5q-91 0 -150 -76t-74 -178l-20 -158h238l-10 -116h-244l-134 -998h-144zM842 0l132 998h-148l22 114l142 2l18 120
q8 62 24.5 115t41.5 99q50 90 133 140t191 50q44 0 79 -5t69 -19l-36 -118q-22 15 -55 22.5t-75 7.5q-91 0 -150 -76t-74 -178l-20 -158h238l-10 -116h-244l-134 -998h-144zM1486 2l218 1596h144l-216 -1596h-146z" />
    <glyph glyph-name=".notdef" horiz-adv-x="1802" 
d="M214 0v1382h1372v-1382h-1372zM570 226l328 356l344 -356l112 112l-348 354l348 344l-118 116l-334 -354l-338 354l-114 -116l342 -348l-340 -326z" />
    <glyph glyph-name="uni0000" 
 />
    <glyph glyph-name="uni0000" 
 />
    <glyph glyph-name="nonmarkingreturn" horiz-adv-x="666" 
 />
    <glyph glyph-name="CR" unicode="&#xd;" 
 />
    <glyph glyph-name="space" unicode=" " horiz-adv-x="360" 
 />
    <glyph glyph-name="exclam" unicode="!" horiz-adv-x="606" 
d="M230 476l160 1260h168l-210 -1260h-118zM216 -16q-37 0 -62.5 22.5t-25.5 59.5q0 56 40 94t92 38q47 0 68.5 -21t21.5 -59q0 -57 -38.5 -95.5t-95.5 -38.5z" />
    <glyph glyph-name="quotedbl" unicode="&#x22;" horiz-adv-x="980" 
d="M234 944l86 704h170l-150 -704h-106zM702 944l86 704h170l-150 -704h-106z" />
    <glyph glyph-name="numbersign" unicode="#" horiz-adv-x="1360" 
d="M260 0l58 356h-208l6 96h218l70 452h-216l6 96h226l52 326h122l-50 -326h380l54 326h124l-54 -326h228l-6 -96h-236l-72 -452h224l-6 -96h-232l-56 -356h-120l52 356h-382l-60 -356h-122zM458 452h380l70 452h-378z" />
    <glyph glyph-name="dollar" unicode="$" horiz-adv-x="1176" 
d="M396 -224l34 206q-67 5 -129 19t-108.5 31.5t-66.5 33.5l40 120q20 -23 77.5 -44t126.5 -34.5t124 -13.5q97 0 176.5 31t126.5 91.5t47 149.5q0 96 -56.5 169t-181.5 151q-151 96 -238.5 196t-87.5 250q0 111 60 193t151.5 128.5t186.5 52.5l30 182h134l-30 -184
q83 -6 146 -25.5t106 -52.5l-46 -112q-27 27 -72 45.5t-99.5 27.5t-110.5 9q-86 0 -156 -31t-111.5 -84t-42.5 -119q-3 -83 28 -142t92 -109.5t148 -106.5q94 -64 161.5 -122.5t104 -127t36.5 -162.5q0 -125 -56.5 -212t-154 -136.5t-221.5 -61.5l-34 -206h-134z" />
    <glyph glyph-name="percent" unicode="%" horiz-adv-x="1792" 
d="M330 0l926 1494h120l-926 -1494h-120zM396 728q-127 0 -200.5 85t-73.5 217q0 110 52 205t141 153t199 58q98 0 160.5 -39.5t92 -105t29.5 -143.5q0 -118 -51.5 -215.5t-142 -156t-206.5 -58.5zM418 820q65 0 122.5 44t93.5 119.5t36 168.5q0 95 -43 148.5t-133 53.5
q-64 0 -121.5 -43.5t-94 -116.5t-36.5 -162q0 -96 47 -154t129 -58zM1220 112q-85 0 -146.5 39t-94.5 107t-33 156q0 110 52 205t141 153t199 58q98 0 160.5 -39.5t92 -105t29.5 -143.5q0 -118 -51.5 -215.5t-142 -156t-206.5 -58.5zM1242 204q65 0 122.5 44.5t93.5 119.5
t36 168q0 95 -43 148.5t-133 53.5q-64 0 -121.5 -43.5t-94 -116.5t-36.5 -162q0 -96 47 -154t129 -58z" />
    <glyph glyph-name="ampersand" unicode="&#x26;" horiz-adv-x="1498" 
d="M608 -16q-143 0 -257.5 39.5t-181.5 122t-67 210.5q0 91 42.5 161.5t116 127.5t167.5 107q-40 84 -67 182t-27 176q0 120 53 210t144 140t205 50q78 0 154 -23t126 -86.5t50 -184.5q0 -99 -43 -173.5t-146.5 -148.5t-286.5 -172q93 -160 189.5 -286t196.5 -218
q62 59 95 140.5t33 181.5q0 36 -5.5 70.5t-16.5 67.5q-37 -1 -70.5 -6t-51.5 -16l10 102q12 12 63.5 21t100.5 9l276 -2l-8 -108h-178q14 -45 14 -106q0 -274 -168 -430q63 -42 148 -54.5t152 -3.5l-14 -90q-19 -5 -41.5 -8t-48 -4.5t-54.5 -1.5q-64 0 -134 21t-120 61
q-73 -39 -161 -58.5t-189 -19.5zM620 88q69 0 131 13.5t117 40.5q-85 83 -150 161.5t-122 164t-118 190.5q-106 -66 -165 -136t-59 -162q0 -93 50 -153t133 -89.5t183 -29.5zM542 814q112 60 199 115t137 119.5t50 151.5q0 92 -49 152t-147 60q-90 0 -148.5 -49t-87 -118.5
t-28.5 -130.5q0 -82 21.5 -161t52.5 -139z" />
    <glyph glyph-name="quotesingle" unicode="'" horiz-adv-x="512" 
d="M234 944l86 704h170l-150 -704h-106z" />
    <glyph glyph-name="parenleft" unicode="(" horiz-adv-x="834" 
d="M548 -312q-106 77 -180 208t-113 287.5t-39 310.5q0 127 30 269.5t84.5 285.5t130.5 271.5t168.5 227.5t196.5 152l64 -44q-114 -74 -209 -206.5t-164 -296.5t-107 -334.5t-38 -320.5q0 -101 17 -212t50.5 -216.5t84.5 -192.5t118 -141z" />
    <glyph glyph-name="parenright" unicode=")" horiz-adv-x="844" 
d="M46 -306l-64 46q115 74 210 195.5t164 271t106.5 309t37.5 310.5q0 120 -17 243.5t-50.5 237t-84 205.5t-118.5 148l94 46q107 -77 181 -216.5t112.5 -312.5t38.5 -351q0 -161 -45 -329.5t-126.5 -323.5t-193 -280t-245.5 -199z" />
    <glyph glyph-name="asterisk" unicode="*" horiz-adv-x="1272" 
d="M594 632l50 296l36 142l-126 -92l-262 -166l-58 126l280 126l142 56l-130 56l-254 136l84 124l228 -172l106 -92l-6 146l8 296h144l-50 -296l-36 -146l126 92l260 168l58 -124l-278 -132l-140 -56l126 -58l248 -132l-86 -122l-222 168l-102 94l8 -142l-6 -296h-148z" />
    <glyph glyph-name="plus" unicode="+" horiz-adv-x="1334" 
d="M558 288l28 236l28 176l-156 -4h-220l12 118h222l154 -10l16 178l26 224h134l-26 -224l-28 -176l130 8h250l-14 -118h-250l-128 4l-14 -176l-28 -236h-136z" />
    <glyph glyph-name="comma" unicode="," horiz-adv-x="492" 
d="M32 -490l-54 66l2 18q86 42 143 128t57 198q0 77 -25.5 131.5t-66.5 72.5l6 40l76 94q59 -25 95 -70.5t52.5 -102t16.5 -115.5q0 -109 -38 -200q-37 -91 -105.5 -157.5t-158.5 -102.5z" />
    <glyph glyph-name="hyphen" unicode="-" horiz-adv-x="1218" 
d="M214 656l14 118h818l-14 -118h-818z" />
    <glyph glyph-name="period" unicode="." horiz-adv-x="492" 
d="M186 -16q-37 0 -62.5 24t-25.5 64q0 54 33 90t85 36q47 0 67.5 -22.5t20.5 -63.5q0 -61 -32 -94.5t-86 -33.5z" />
    <glyph glyph-name="slash" unicode="/" horiz-adv-x="834" 
d="M-74 -354l842 1914h130l-842 -1914h-130z" />
    <glyph glyph-name="zero" unicode="0" horiz-adv-x="1230" 
d="M530 -16q-109 0 -188 48.5t-129.5 132.5t-74.5 192t-24 227q0 191 48.5 357t135 290.5t202 194.5t248.5 70q147 0 240 -76t136.5 -208.5t43.5 -303.5q0 -179 -47 -345t-133 -296.5t-202.5 -206.5t-255.5 -76zM552 96q109 0 193.5 71t143 188t89 258t30.5 281
q0 148 -27.5 258t-87.5 170.5t-157 61.5q-98 1 -174 -48.5t-132 -133.5t-92.5 -188t-54 -212.5t-17.5 -205.5q0 -138 30.5 -251.5t94 -181t161.5 -67.5z" />
    <glyph glyph-name="one" unicode="1" horiz-adv-x="908" 
d="M326 0l196 1292q-52 -21 -124.5 -47t-153.5 -43l-18 94q69 16 145 52t145 79.5t118 82.5h2l66 -16l-226 -1494h-150z" />
    <glyph glyph-name="two" unicode="2" horiz-adv-x="1164" 
d="M60 0l-26 90q110 65 228.5 153t230 190t200.5 211t142 218t53 210q0 84 -28 156t-95.5 116t-186.5 44q-81 0 -149 -26.5t-121 -64.5t-90 -71l-54 84q38 49 107 94.5t159 74.5t190 29q131 0 215 -38.5t131.5 -98.5t66.5 -128.5t19 -128.5q0 -110 -53 -228t-141.5 -233
t-198 -220t-224.5 -190.5t-219 -142.5l774 28l2 -128h-932z" />
    <glyph glyph-name="three" unicode="3" horiz-adv-x="1116" 
d="M270 -14q-45 0 -94 4t-106 8l12 112q48 -4 95 -7t83 -3q103 0 200.5 25.5t175.5 74t124 117.5t46 155q0 68 -32.5 121.5t-104.5 84.5t-191 32l-172 -50l12 128q98 23 189.5 63t164 93t114.5 115.5t42 130.5q0 93 -62 145.5t-164 52.5q-83 0 -150 -21t-120 -53t-94 -64
l-46 104q33 32 97.5 68t153 61t193.5 25q88 0 165.5 -35t126 -105t48.5 -176q0 -92 -55 -172.5t-142 -141.5t-183 -94q128 3 209.5 -39t120 -111t38.5 -148q0 -113 -59.5 -205t-159.5 -158t-223.5 -101.5t-251.5 -35.5z" />
    <glyph glyph-name="four" unicode="4" horiz-adv-x="1220" 
d="M672 0l38 316h-634l-28 70q113 171 222.5 341.5t224 358t243.5 408.5h44l94 -66l-554 -858l-112 -156l514 12l58 424l144 32l-62 -446l270 10l-16 -130h-268l-38 -316h-140z" />
    <glyph glyph-name="five" unicode="5" horiz-adv-x="1168" 
d="M226 -14q-24 0 -62 3t-68 13l18 106q26 -4 47 -7t45 -3q119 0 234 29.5t209.5 87.5t150.5 144.5t56 200.5q0 123 -65.5 195.5t-214.5 72.5q-48 0 -108.5 -11.5t-115.5 -28t-88 -32.5l-56 58l156 680h586l18 16h112l-30 -140h-572l-118 -480q47 20 118.5 36t135.5 16
q140 0 229.5 -45.5t132 -126t42.5 -184.5q0 -133 -64 -243.5t-174.5 -190t-253 -123t-300.5 -43.5z" />
    <glyph glyph-name="six" unicode="6" horiz-adv-x="1236" 
d="M586 -18q-141 0 -235.5 69t-142.5 183t-48 248q0 247 101 455.5t282.5 357t424.5 215.5l34 -86q-155 -53 -279.5 -141t-213.5 -204.5t-137 -256.5q32 29 80 62.5t117.5 57.5t166.5 24q130 0 215.5 -55t128 -141.5t42.5 -181.5q0 -106 -34.5 -213.5t-102.5 -196
t-168 -142.5t-231 -54zM600 86q86 0 155.5 42.5t119 113t75.5 156t26 170.5q0 92 -37.5 155t-100 95t-136.5 32q-110 0 -184 -31.5t-119 -71t-67 -63.5q-12 -55 -18 -107t-6 -117q0 -108 30 -192.5t94.5 -133t167.5 -48.5z" />
    <glyph glyph-name="seven" unicode="7" horiz-adv-x="1048" 
d="M176 2l688 1374l-728 -2l16 120h852l28 -36l-684 -1458z" />
    <glyph glyph-name="eight" unicode="8" horiz-adv-x="1270" 
d="M566 -18q-100 0 -196.5 39t-160 118.5t-63.5 200.5q0 108 55.5 191.5t142 143.5t180.5 99q-52 41 -100 93t-79 116.5t-31 142.5q0 126 58 213t159.5 132t230.5 45q104 0 188 -39t133 -111t49 -170q0 -97 -49.5 -182t-132 -149t-180.5 -99q71 -50 140.5 -105t115.5 -121
t46 -150q0 -127 -69.5 -218.5t-184.5 -140.5t-252 -49zM590 84q88 0 161 35.5t117 98.5t44 146q0 74 -41 132.5t-110 111.5t-153 110q-71 -32 -140.5 -82t-116 -119t-47.5 -159q0 -117 76.5 -195.5t209.5 -78.5zM692 824q126 54 209 147.5t83 214.5q0 113 -71 173.5
t-169 60.5q-123 0 -202.5 -74.5t-79.5 -193.5q0 -106 69.5 -183t160.5 -145z" />
    <glyph glyph-name="nine" unicode="9" horiz-adv-x="1238" 
d="M326 -14l-32 86q154 53 278 132.5t213 187.5t137 248q-45 -46 -132.5 -90t-227.5 -44q-136 0 -222 60.5t-127 153.5t-41 190q0 107 35.5 210.5t103.5 188t168 135t229 50.5q144 0 236.5 -69t137 -182.5t44.5 -246.5q0 -248 -100 -452t-280 -347.5t-420 -210.5zM598 620
q104 0 175.5 31t115.5 70.5t65 64.5q14 56 19 107t5 115q0 109 -32.5 195.5t-97 136.5t-160.5 50q-91 0 -160.5 -43t-116 -112t-70 -149.5t-23.5 -155.5q0 -153 79.5 -231.5t200.5 -78.5z" />
    <glyph glyph-name="colon" unicode=":" horiz-adv-x="492" 
d="M170 -16q-37 0 -62.5 24t-25.5 64q0 54 33 90t85 36q47 0 67.5 -22.5t20.5 -63.5q0 -61 -32 -94.5t-86 -33.5zM266 796q-37 0 -62.5 24t-25.5 64q0 54 33 90t85 36q47 0 67.5 -22.5t20.5 -63.5q0 -61 -32 -94.5t-86 -33.5z" />
    <glyph glyph-name="semicolon" unicode=";" horiz-adv-x="492" 
d="M32 -490l-54 66l2 18q86 42 143 128t57 198q0 77 -25.5 131.5t-66.5 72.5l6 40l76 94q59 -25 95 -70.5t52.5 -102t16.5 -115.5q0 -109 -38 -200q-37 -91 -105.5 -157.5t-158.5 -102.5zM268 796q-37 0 -62.5 24t-25.5 64q0 54 33 90t85 36q47 0 67.5 -22.5t20.5 -63.5
q0 -61 -32 -94.5t-86 -33.5z" />
    <glyph glyph-name="less" unicode="&#x3c;" horiz-adv-x="1336" 
d="M1060 172l-868 514l12 96l988 510l-20 -144l-812 -422l714 -422z" />
    <glyph glyph-name="equal" unicode="=" horiz-adv-x="1038" 
d="M166 846l12 118h796l-14 -118h-794zM96 350l14 116h796l-14 -116h-796z" />
    <glyph glyph-name="greater" unicode="&#x3e;" horiz-adv-x="1336" 
d="M244 174l18 146l814 422l-714 422l14 132l868 -514l-12 -96z" />
    <glyph glyph-name="question" unicode="?" horiz-adv-x="840" 
d="M268 514q0 24 -10 55.5t-10 104.5q0 67 40.5 119.5t104 96t131.5 82.5q63 36 108.5 78.5t74.5 88.5t43 94.5t14 96.5q0 93 -39.5 157.5t-113.5 97.5t-177 33q-61 0 -109 -10t-101 -28l22 106q20 23 83.5 37.5t150.5 14.5q135 0 229 -45.5t142.5 -132.5t48.5 -212
q0 -148 -80.5 -262t-211.5 -194q-45 -27 -85 -51.5t-71.5 -51t-49.5 -57.5t-20 -72q-1 -37 1 -70.5t15 -75.5h-130zM304 -12q-37 0 -62.5 23t-25.5 63q0 54 33 91t85 37q44 0 65 -23t21 -61q0 -64 -30 -97t-86 -33z" />
    <glyph glyph-name="at" unicode="@" horiz-adv-x="1922" 
d="M876 -430q-233 0 -403 99.5t-262.5 278t-92.5 416.5q0 246 75 454.5t213.5 363.5t330.5 240.5t425 85.5q204 0 353 -78.5t230 -222t81 -339.5q0 -151 -41.5 -303t-118 -278t-182.5 -202.5t-236 -76.5q-64 0 -80 59t-16 141q0 38 8.5 105t21.5 137q-52 -127 -112.5 -228
t-127.5 -159.5t-138 -58.5q-55 0 -104 29.5t-87.5 84t-60.5 128.5t-22 162q0 138 37 257.5t106 209.5t167 140.5t220 50.5q33 0 77 -6.5t85 -18t66 -27.5l126 24q-14 -51 -31.5 -126t-35 -163t-32.5 -177.5t-24 -171t-9 -142.5q0 -55 9.5 -87.5t30.5 -32.5q65 0 123 46
t106.5 122.5t84 170t55 189t19.5 178.5q0 199 -70.5 324t-200 183.5t-305.5 58.5q-202 0 -367.5 -83t-285 -227t-184.5 -329t-65 -389q0 -218 78 -377t225 -245t353 -86q56 0 132.5 13.5t145.5 33t102 37.5l24 -74q-66 -52 -178 -83t-238 -31zM828 120q47 0 99 56.5
t102.5 148t95 197.5t77.5 207t50 175q-25 30 -86.5 49t-111.5 19q-92 0 -164 -42.5t-122 -117.5t-76 -172t-26 -206q0 -65 19 -138t55 -124.5t88 -51.5z" />
    <glyph glyph-name="A" unicode="A" horiz-adv-x="1236" 
d="M-48 0l726 1494h164l284 -1494h-148l-74 420h-600l-196 -420h-156zM358 534h526l-126 716l-14 112l-54 -116z" />
    <glyph glyph-name="B" unicode="B" horiz-adv-x="1210" 
d="M448 -14q-25 0 -58.5 2t-69.5 5t-70.5 5t-63.5 2h-68l188 1494h68q14 0 54.5 2.5t91 5.5t93.5 5.5t61 2.5q159 0 255.5 -42t139.5 -116.5t43 -171.5q0 -151 -83 -254t-229 -144q85 -10 154 -51t109.5 -106t40.5 -147q4 -177 -82.5 -285t-236.5 -157.5t-337 -49.5zM480 92
q143 0 248 37.5t162.5 118t57.5 208.5q0 131 -90 198.5t-246 67.5q-76 0 -140.5 -1.5t-115.5 -4.5l-76 -604q17 -5 55.5 -9.5t79.5 -7.5t65 -3zM370 828q21 -1 70 -1t158 1q161 0 263.5 90.5t102.5 247.5q0 120 -75 181t-249 61q-19 0 -55.5 -2t-76.5 -5t-68 -7z" />
    <glyph glyph-name="C" unicode="C" horiz-adv-x="1114" 
d="M608 -14q-180 0 -292 94q-112 93 -160 240t-48 316q0 257 92 456q92 198 251.5 308t352.5 110q50 0 91 -4.5t92.5 -17.5t132.5 -38l-52 -124q-49 26 -112 43t-158 17q-176 0 -298 -110q-123 -109 -182.5 -278.5t-59.5 -349.5q0 -150 39 -274t122 -198t215 -74
q67 0 136 16t127.5 40t94.5 48l22 -124q-38 -24 -82.5 -42t-95.5 -30t-108 -18t-120 -6z" />
    <glyph glyph-name="D" unicode="D" horiz-adv-x="1344" 
d="M510 -16q-57 2 -104 6t-97 7t-115 3h-76l188 1494h114q23 0 50 1.5t56 4t59.5 5t61 4t59.5 1.5q290 0 426 -166.5t136 -459.5q0 -188 -53.5 -353t-153 -289.5t-239 -193t-312.5 -64.5zM530 96q185 0 318 112q132 111 200 288.5t68 379.5q0 183 -46 300q-46 114 -145 169
t-261 55q-46 0 -102 -4.5t-124 -13.5l-158 -1260q74 -13 136 -19.5t114 -6.5z" />
    <glyph glyph-name="E" unicode="E" horiz-adv-x="1112" 
d="M118 0l188 1494h738l-4 -118l-600 8l-72 -566l464 6l-10 -124l-468 10l-76 -598l720 12l-10 -124h-870z" />
    <glyph glyph-name="F" unicode="F" horiz-adv-x="1032" 
d="M118 0l188 1494h762l-12 -118l-616 8l-72 -568l496 8l-10 -128l-500 12l-90 -708h-146z" />
    <glyph glyph-name="G" unicode="G" horiz-adv-x="1308" 
d="M602 -16q-165 0 -276 90q-109 90 -161.5 233t-54.5 305q-6 259 88 468q95 204 260.5 317t367.5 113q56 0 103 -3.5t92 -11.5t93 -20.5t104 -30.5l-48 -134q-36 21 -86.5 39.5t-115.5 29.5t-144 11q-179 0 -308 -108q-127 -109 -192.5 -281.5t-65.5 -360.5
q0 -145 39 -268.5t120.5 -198.5t210.5 -75q78 0 173 24t191 60l50 410l-274 2l16 118h420l-80 -620q-31 -4 -64.5 -13t-101.5 -29q-100 -30 -182 -48t-174 -18z" />
    <glyph glyph-name="H" unicode="H" horiz-adv-x="1376" 
d="M118 0l188 1494h148l-86 -684h708l86 684h146l-186 -1494h-148l88 698h-710l-88 -698h-146z" />
    <glyph glyph-name="I" unicode="I" horiz-adv-x="558" 
d="M142 0l188 1494h148l-188 -1494h-148z" />
    <glyph glyph-name="J" unicode="J" horiz-adv-x="570" 
d="M-138 -316l-28 66q64 18 118 50.5t96.5 76t71 96.5t40.5 111q15 69 28 143t27 173.5t31.5 244t40.5 351.5t55 498h148l-110 -922q-28 -214 -47.5 -338.5t-30.5 -159.5q-34 -115 -91.5 -193.5t-143.5 -126.5t-205 -70z" />
    <glyph glyph-name="K" unicode="K" horiz-adv-x="1216" 
d="M118 0l188 1494h142l-100 -802l732 802h172l-606 -660q18 -30 41 -68.5t51.5 -88t64.5 -111t79 -138.5q62 -110 103 -182t68 -117.5t46 -74.5t37 -54h-178q-4 6 -28.5 49t-59.5 107t-72.5 132.5t-69.5 125.5l-178 324l-228 -246l-64 -492h-140z" />
    <glyph glyph-name="L" unicode="L" horiz-adv-x="956" 
d="M118 0l188 1494h148l-174 -1370l580 2l-16 -126h-726z" />
    <glyph glyph-name="M" unicode="M" horiz-adv-x="1750" 
d="M748 -18l-166 1038l-50 378l-74 -386l-238 -1012h-150l372 1494h188l170 -1042l30 -232l90 230l450 1044h212l-42 -1494h-150l48 998l22 400l-154 -354l-454 -1048z" />
    <glyph glyph-name="N" unicode="N" horiz-adv-x="1370" 
d="M118 0l188 1494h154l480 -1100l70 -202l22 232l130 1070h140l-188 -1494h-146l-482 1096l-70 234l-30 -282l-130 -1048h-138z" />
    <glyph glyph-name="O" unicode="O" horiz-adv-x="1336" 
d="M596 -16q-160 0 -266.5 86.5t-160 232t-53.5 321.5t48 335t138 283.5t216 196t282 71.5q122 0 212 -51t148.5 -140.5t87 -204t28.5 -242.5q0 -178 -47 -338t-135.5 -284t-214 -195t-283.5 -71zM620 96q120 0 213.5 64t157.5 172t97.5 241t33.5 271q0 181 -38 303.5
t-115 184.5t-193 62q-118 0 -212.5 -65t-160 -173.5t-100.5 -241.5t-35 -270q0 -271 91.5 -409.5t260.5 -138.5z" />
    <glyph glyph-name="P" unicode="P" horiz-adv-x="1152" 
d="M118 0l188 1494h86q17 0 58.5 2.5t91.5 5.5t92 5.5t58 2.5q221 0 333.5 -98t112.5 -298q0 -181 -76 -318q-76 -135 -212 -208.5t-310 -73.5q-52 0 -104.5 3.5t-103.5 10.5l-68 -528h-146zM536 630q222 0 338 126t116 366q0 137 -79.5 207.5t-240.5 70.5q-40 0 -97.5 -4.5
t-134.5 -15.5l-92 -734q30 -6 88.5 -11t101.5 -5z" />
    <glyph glyph-name="Q" unicode="Q" horiz-adv-x="1346" 
d="M890 -350q-94 0 -168 34t-117 98.5t-43 155.5q0 11 0.5 41t1.5 43h106v-19v-25q0 -70 40 -112t109 -61t157 -19q50 0 110 8t102 26v-114q-25 -17 -73 -29.5t-107 -19.5t-118 -7zM596 -16q-160 0 -266.5 86.5t-160 232t-53.5 321.5t48 335t138 283.5t216 196t282 71.5
q122 0 212 -51t148.5 -140.5t87 -204t28.5 -242.5q0 -178 -47 -338t-135.5 -284t-214 -195t-283.5 -71zM620 96q120 0 213.5 64t157.5 172t97.5 241t33.5 271q0 181 -38 303.5t-115 184.5t-193 62q-118 0 -212.5 -65t-160 -173.5t-100.5 -241.5t-35 -270q0 -271 91.5 -409.5
t260.5 -138.5z" />
    <glyph glyph-name="R" unicode="R" horiz-adv-x="1226" 
d="M118 0l186 1494h74q55 0 115 4t111 8t78 4q224 0 342 -91t118 -265q0 -178 -96 -311.5t-266 -180.5q29 -25 63.5 -82.5t66 -125.5t52.5 -124q36 -83 64 -148.5t50.5 -111.5t41.5 -70h-168q-9 14 -21 38.5t-29 63t-39.5 94.5t-52.5 134q-12 39 -34 91.5t-51.5 102.5
t-63.5 83t-69 33l-246 2l-80 -642h-146zM622 758q114 0 194.5 51.5t123 140t42.5 198.5q0 125 -79.5 186.5t-240.5 61.5q-24 0 -66.5 -2.5t-86.5 -6t-71 -7.5l-78 -620q23 -1 82 -1.5t180 -0.5z" />
    <glyph glyph-name="S" unicode="S" horiz-adv-x="1020" 
d="M394 -16q-44 0 -98.5 7.5t-108.5 20t-96.5 28.5t-62.5 32l42 120q20 -25 76.5 -46t125.5 -33.5t126 -12.5q97 0 176.5 29.5t126.5 88.5t47 148q0 96 -58 169t-180 151q-101 66 -174.5 130.5t-113.5 140t-40 175.5q0 124 60.5 208t162.5 127t225 43q110 0 195 -20.5
t143 -61.5l-48 -114q-40 41 -118 62.5t-162 21.5q-81 0 -151.5 -23t-114.5 -77t-44 -146q0 -82 31 -139t90.5 -105t144.5 -104q96 -63 164 -121.5t104 -127.5t36 -163q0 -138 -68.5 -228.5t-183.5 -135t-254 -44.5z" />
    <glyph glyph-name="T" unicode="T" horiz-adv-x="1096" 
d="M400 0l176 1386l-442 -10l18 118h1018l-16 -118l-432 10l-176 -1386h-146z" />
    <glyph glyph-name="U" unicode="U" horiz-adv-x="1328" 
d="M588 -16q-214 0 -326 114.5t-112 325.5q0 24 3 63t9 93l116 914h146l-112 -890q-6 -46 -9 -89t-3 -81q0 -157 77 -243.5t231 -86.5q140 0 226 64t132 181t66 277l110 868h144l-112 -882q-15 -114 -40.5 -205.5t-61.5 -160.5q-73 -138 -192 -200t-292 -62z" />
    <glyph glyph-name="V" unicode="V" horiz-adv-x="1142" 
d="M398 -4l-248 1498h146l164 -1070l40 -276l112 276l466 1070h156l-678 -1498h-158z" />
    <glyph glyph-name="W" unicode="W" horiz-adv-x="1728" 
d="M372 -10l-226 1504h146l142 -1070l40 -262l84 254l344 858l-24 220h142l106 -1070l20 -262l96 254l432 1078h150l-632 -1504h-150l-88 840l-18 230l-82 -230l-332 -840h-150z" />
    <glyph glyph-name="X" unicode="X" horiz-adv-x="1120" 
d="M-34 0l542 770l-316 724h162l250 -620l414 620h166l-524 -754l340 -740h-168l-268 640l-420 -640h-178z" />
    <glyph glyph-name="Y" unicode="Y" horiz-adv-x="1058" 
d="M392 0l74 572l-364 922h158l254 -694l40 -100l54 100l418 694h158l-578 -922l-72 -572h-142z" />
    <glyph glyph-name="Z" unicode="Z" horiz-adv-x="1130" 
d="M36 0l-22 68l804 1130l146 182l-726 -10l16 124h882l18 -64l-822 -1168l-122 -144l792 8l-20 -126h-946z" />
    <glyph glyph-name="bracketleft" unicode="[" horiz-adv-x="698" 
d="M214 -168q-70 0 -100 22t-30 82q0 18 2.5 40t3.5 44l206 1464q14 104 47.5 145t124.5 41q29 0 77.5 -5.5t101 -13.5t93.5 -17l-8 -64h-286l-224 -1636l288 -2l-6 -64q-67 -16 -145.5 -26t-144.5 -10z" />
    <glyph glyph-name="backslash" unicode="\" horiz-adv-x="834" 
d="M608 -354l-564 1914h130l564 -1914h-130z" />
    <glyph glyph-name="bracketright" unicode="]" horiz-adv-x="698" 
d="M536 1676q71 0 100.5 -22t29.5 -82q0 -18 -2 -39.5t-4 -44.5l-206 -1464q-13 -103 -46.5 -144.5t-125.5 -41.5q-29 0 -77.5 5.5t-101 13.5t-93.5 17l8 64h286l224 1636l-288 2l6 64q68 17 146 26.5t144 9.5z" />
    <glyph glyph-name="asciicircum" unicode="^" horiz-adv-x="1326" 
d="M182 498l506 996h148l262 -996h-128l-220 854l-436 -854h-132z" />
    <glyph glyph-name="underscore" unicode="_" horiz-adv-x="1304" 
d="M-108 -330l14 112h1346l-14 -112h-1346z" />
    <glyph glyph-name="grave" unicode="`" horiz-adv-x="528" 
d="M406 1220q-39 29 -87.5 71t-97 90.5t-88.5 95t-63 83.5l112 102l288 -388z" />
    <glyph glyph-name="a" unicode="a" horiz-adv-x="1104" 
d="M390 -16q-154 0 -232 113t-78 309q0 145 43.5 275t125 230.5t195.5 158.5t254 58q47 0 103 -8.5t105 -25.5l110 34l-152 -1128h-128l18 198q-61 -87 -157.5 -150.5t-206.5 -63.5zM414 98q56 0 108.5 23t99 62t84.5 86t66 95l82 620q-79 38 -180 38q-141 0 -240 -90
q-100 -91 -152 -230.5t-52 -279.5q0 -108 21 -180t62 -108t101 -36z" />
    <glyph glyph-name="b" unicode="b" horiz-adv-x="1132" 
d="M410 -16q-54 0 -120 13t-116 31l-82 -26l214 1596h138l-58 -478l-34 -204q43 59 101 107t127 76.5t144 28.5q155 0 233.5 -112.5t78.5 -309.5q0 -163 -70 -330q-48 -112 -127.5 -200.5t-187.5 -140t-241 -51.5zM432 92q142 0 248 94q102 93 153 232t51 272q0 162 -47 244
t-137 82q-56 0 -108.5 -21.5t-99 -57.5t-85 -80.5t-67.5 -90.5l-86 -640q77 -34 178 -34z" />
    <glyph glyph-name="c" unicode="c" horiz-adv-x="890" 
d="M450 -16q-117 0 -198 52.5t-123.5 150.5t-42.5 235q0 163 66 328t194 271.5t302 106.5q39 0 79 -4.5t75 -13.5t60 -22l-38 -124q-23 19 -53 31.5t-65 18.5t-72 6q-52 0 -100.5 -19.5t-95.5 -60.5q-91 -79 -146.5 -214.5t-55.5 -287.5q0 -175 59 -258.5t177 -83.5
q78 0 143 36t135 108l50 -80q-33 -44 -85 -84.5t-119 -66t-146 -25.5z" />
    <glyph glyph-name="d" unicode="d" horiz-adv-x="1122" 
d="M388 -16q-154 0 -232 113t-78 309q0 162 70 332q47 112 125.5 200t186 139t242.5 51q38 0 81.5 -6t92.5 -18l68 494h144l-218 -1598h-130l20 204q-41 -60 -99.5 -110t-128 -80t-144.5 -30zM414 98q56 0 108 22t98 59.5t85 83t67 91.5l88 634q-83 34 -180 34
q-143 0 -244 -92q-103 -93 -155.5 -232.5t-52.5 -273.5q0 -108 21.5 -180.5t63 -109t101.5 -36.5z" />
    <glyph glyph-name="e" unicode="e" horiz-adv-x="1006" 
d="M468 -16q-132 0 -220 64q-85 65 -124.5 166t-35.5 216q3 193 80 356q75 159 204 250.5t292 91.5q73 0 135 -29t99.5 -83.5t37.5 -131.5q0 -100 -58 -178t-157 -134.5t-223 -91t-256 -48.5q-1 -4 -1.5 -12.5t-0.5 -19.5q0 -126 56 -213t188 -87q55 0 113.5 18.5t116 55.5
t110.5 92l42 -84q-22 -31 -68 -65.5t-104 -64.5t-117 -49t-109 -19zM246 538q87 2 182 26.5t178 68.5t134.5 104.5t51.5 134.5t-41.5 110t-118.5 36q-51 0 -97.5 -17.5t-88.5 -52.5q-85 -72 -137 -184t-63 -226z" />
    <glyph glyph-name="f" unicode="f" horiz-adv-x="678" 
d="M164 0l132 998h-148l22 114l142 2l18 120q8 62 24.5 115t41.5 99q50 90 133 140t191 50q44 0 79 -5t69 -19l-36 -118q-22 15 -55 22.5t-75 7.5q-91 0 -150 -76t-74 -178l-20 -158h238l-10 -116h-244l-134 -998h-144z" />
    <glyph glyph-name="g" unicode="g" horiz-adv-x="1122" 
d="M362 -494q-43 0 -93.5 5.5t-93.5 13.5t-63 17l38 122q29 -13 68 -23.5t83 -16.5t89 -6q134 0 216 75t106 217l48 294q-61 -90 -160 -155t-212 -65q-154 0 -232 113t-78 309q0 162 70 332q47 112 125.5 200t186 139t242.5 51q48 0 107 -10t107 -24l114 34l-172 -1214
q-10 -73 -34.5 -132t-63.5 -106q-79 -90 -184.5 -130t-213.5 -40zM414 98q53 0 104.5 22t98 58.5t86 81t67.5 90.5l94 636q-40 17 -88.5 26.5t-95.5 9.5q-141 0 -244 -94t-155.5 -232t-52.5 -272q0 -108 21.5 -180.5t63 -109t101.5 -36.5z" />
    <glyph glyph-name="h" unicode="h" horiz-adv-x="1170" 
d="M94 0l206 1598h146l-54 -468l-44 -280q95 119 219.5 198.5t244.5 79.5q119 0 172.5 -67t53.5 -207q0 -18 -3 -52t-9.5 -85.5t-16 -121t-22.5 -158t-29.5 -197.5t-37.5 -240h-146q2 13 10 65.5t19 122.5t21 139t17.5 117.5t8.5 55.5q20 140 30 216.5t10 125.5
q0 80 -29.5 116t-106.5 36q-71 0 -151 -46t-151.5 -113.5t-117.5 -130.5l-94 -704h-146z" />
    <glyph glyph-name="i" unicode="i" horiz-adv-x="550" 
d="M130 0l150 1118h146l-152 -1118h-144zM394 1374q-36 0 -60 25t-24 65q0 48 32.5 84t75.5 36q41 0 65.5 -24t24.5 -62q0 -49 -34.5 -86.5t-79.5 -37.5z" />
    <glyph glyph-name="j" unicode="j" horiz-adv-x="562" 
d="M-106 -502q-43 0 -77.5 10t-54.5 26l38 84q11 -7 33 -13.5t41 -6.5q71 0 118 36.5t76.5 100t47.5 146.5t30 177l142 1060h146l-150 -1114q-21 -161 -73 -274t-132 -172.5t-185 -59.5zM398 1310q-36 0 -60 25t-24 65q0 48 32.5 84t75.5 36q41 0 65.5 -24t24.5 -62
q0 -49 -34.5 -86.5t-79.5 -37.5z" />
    <glyph glyph-name="k" unicode="k" horiz-adv-x="1000" 
d="M94 0l204 1598h144l-202 -1598h-146zM776 2l-410 612q119 68 211.5 137.5t158.5 156t104 206.5h140q-8 -82 -47.5 -159.5t-102 -145t-138.5 -123t-158 -94.5l410 -590h-168z" />
    <glyph glyph-name="l" unicode="l" horiz-adv-x="550" 
d="M130 2l218 1596h144l-216 -1596h-146z" />
    <glyph glyph-name="m" unicode="m" horiz-adv-x="1740" 
d="M90 2l152 1112h138l-28 -248q86 114 199.5 188t222.5 74q104 0 157.5 -55t60.5 -169q84 98 189 161t207 63q113 0 167.5 -63.5t54.5 -212.5q0 -45 -10 -133t-30 -219q-6 -48 -23.5 -162.5t-52.5 -335.5h-146q4 26 12.5 83.5t19 128t20 135.5t16 107.5t6.5 43.5
q20 125 30 210.5t10 131.5q0 80 -30 116t-102 36q-73 0 -168.5 -63.5t-173.5 -158.5q-3 -36 -10.5 -97t-21.5 -147q-2 -16 -6 -43l-10 -67.5t-15 -98.5t-21 -136.5t-28 -180.5h-144l9.5 66.5t14 95.5t21 139t29.5 197q20 138 30 215.5t10 126.5q0 83 -30 118.5t-102 35.5
q-40 0 -94.5 -28.5t-110 -73.5t-103 -94.5t-74.5 -91.5l-96 -706h-146z" />
    <glyph glyph-name="n" unicode="n" horiz-adv-x="1166" 
d="M90 0l152 1114h136l-28 -260q95 119 218.5 196.5t241.5 77.5q119 0 172.5 -66t53.5 -206q0 -32 -5 -80.5t-14.5 -116.5t-22.5 -159q-3 -19 -7 -44t-9.5 -61.5t-13.5 -90t-19 -128.5t-27 -176h-144q5 35 13 92.5t22.5 155t38.5 252.5q20 138 30 215.5t10 126.5
q0 83 -30.5 117.5t-107.5 34.5q-53 0 -112.5 -27.5t-117.5 -72t-107.5 -96t-82.5 -98.5l-94 -700h-146z" />
    <glyph glyph-name="o" unicode="o" horiz-adv-x="1108" 
d="M470 -16q-123 0 -206 54.5t-125.5 158t-42.5 251.5q0 173 72 332q71 156 195.5 252t280.5 96q121 0 202.5 -54t122.5 -157t41 -251q0 -175 -68 -332q-69 -157 -192.5 -253.5t-279.5 -96.5zM494 94q89 0 156.5 51.5t114 135.5t70 185t23.5 200q0 113 -25 192t-77.5 120.5
t-135.5 41.5q-92 0 -162 -52t-117 -136.5t-71 -184.5t-24 -197q0 -172 62 -264t186 -92z" />
    <glyph glyph-name="p" unicode="p" horiz-adv-x="1134" 
d="M26 -502l214 1616h130l-22 -200q65 86 162.5 150t211.5 64q155 0 232.5 -112.5t77.5 -309.5q0 -165 -70 -332q-47 -112 -126 -200t-187 -139t-243 -51q-72 0 -168 24l-68 -510h-144zM430 92q140 0 242 90t155 229.5t53 278.5q0 164 -47.5 245t-136.5 81q-55 0 -107.5 -22
t-99.5 -59t-86 -82t-67 -91l-84 -636q41 -16 86.5 -25t91.5 -9z" />
    <glyph glyph-name="q" unicode="q" horiz-adv-x="1120" 
d="M658 -496l76 568l24 128q-43 -59 -100.5 -108t-126 -78.5t-143.5 -29.5q-154 0 -232 113t-78 309q0 143 45 273t127.5 231t197.5 159.5t254 58.5q47 0 99.5 -9t100.5 -23l116 36l-216 -1628h-144zM414 98q56 0 108.5 23.5t99 62t85 85.5t65.5 93l82 626q-37 14 -83.5 24
t-90.5 10q-106 0 -190 -52t-142.5 -139t-89 -193t-30.5 -214q0 -111 22 -183t63.5 -107.5t100.5 -35.5z" />
    <glyph glyph-name="r" unicode="r" horiz-adv-x="760" 
d="M90 0l150 1114h136l-24 -246q33 69 91.5 128t131.5 95.5t149 36.5q49 0 64 -12l-34 -154q-13 6 -34.5 9t-53.5 3q-69 0 -137.5 -49t-123 -121t-81.5 -140l-88 -664h-146z" />
    <glyph glyph-name="s" unicode="s" horiz-adv-x="852" 
d="M332 -16q-61 0 -120 9t-104 23t-64 30l28 128q27 -20 68 -38.5t91.5 -30t106.5 -11.5q102 0 166 43.5t64 128.5q0 48 -24.5 88.5t-67 77.5t-96.5 76q-88 69 -150 140.5t-62 185.5q0 98 52 163.5t136.5 98t181.5 32.5q53 0 102.5 -6t87.5 -15.5t58 -20.5l-30 -136
q-10 17 -46 33t-83 26.5t-89 10.5q-106 0 -168 -45.5t-62 -122.5q0 -46 15.5 -80t52.5 -70t102 -88q88 -67 139 -119t73 -102t22 -111q0 -102 -52 -168t-138.5 -98t-189.5 -32z" />
    <glyph glyph-name="t" unicode="t" horiz-adv-x="720" 
d="M324 -16q-84 0 -128 43t-44 125q0 12 1.5 30.5t4 44t6.5 57.5l90 714h-132l32 114l124 2l54 272h122l-34 -272h284l-18 -116h-282q-28 -208 -46 -346t-29.5 -222.5t-17 -128.5t-7.5 -62t-2 -25q0 -49 17.5 -81.5t60.5 -32.5q28 0 69 16.5t80.5 39.5t64.5 44l20 -82
q-23 -27 -74 -58t-110 -53.5t-106 -22.5z" />
    <glyph glyph-name="u" unicode="u" horiz-adv-x="1146" 
d="M360 -18q-127 0 -188.5 64t-61.5 214q0 24 8 97.5t18 164.5q9 71 21.5 160t27.5 197t33 235h146q-16 -121 -28.5 -212t-22 -157t-15.5 -111t-10 -72.5t-6 -41.5q-12 -88 -18 -147t-6 -103q0 -90 38 -126t116 -36q68 0 142.5 46t141 115t110.5 137l94 708h144l-148 -1114
h-134l28 256q-84 -118 -199 -196t-231 -78z" />
    <glyph glyph-name="v" unicode="v" horiz-adv-x="984" 
d="M280 -14l-58 360l-110 768h160l80 -768l22 -232l164 204q104 146 165.5 272t88.5 282q5 31 10.5 77.5t9.5 92t4 72.5h138q3 -37 3.5 -72t-1.5 -62q-8 -117 -40 -227t-95.5 -225t-163.5 -245t-245 -287z" />
    <glyph glyph-name="w" unicode="w" horiz-adv-x="1594" 
d="M286 -12l-56 358l-114 768h162l82 -768l20 -232l178 232q50 66 95.5 157t79 180.5t47.5 150.5l-42 280h160l80 -768l22 -232l132 164q71 88 122 185.5t82.5 204t45.5 222.5q11 84 17.5 148t0.5 76h142q3 -27 3.5 -57.5t-1.5 -60.5q-12 -196 -76.5 -374t-174 -335
t-257.5 -291l-134 -8l-56 358l-28 240q-27 -105 -80.5 -196t-133.5 -185t-188 -209z" />
    <glyph glyph-name="x" unicode="x" horiz-adv-x="926" 
d="M-42 2l426 576l-254 536h174l172 -440l308 440h160l-418 -554l276 -558h-170l-198 462l-320 -462h-156z" />
    <glyph glyph-name="y" unicode="y" horiz-adv-x="1024" 
d="M-48 -490q-36 0 -76 9t-72 21l42 120q23 -10 54 -21t76 -11q69 0 135.5 31t136 101t148.5 186h-92l-60 346l-124 822h160l106 -822l42 -294q32 56 64.5 110.5t63.5 109.5q75 125 129.5 254t87 257.5t41.5 252.5q2 27 2 52v80h142q3 -36 3.5 -69.5t-1.5 -62.5
q-7 -172 -80 -372t-180 -400q-50 -92 -115 -193t-135 -193t-136 -158q-61 -61 -153.5 -108.5t-208.5 -47.5z" />
    <glyph glyph-name="z" unicode="z" horiz-adv-x="940" 
d="M24 0l-44 44l606 774l164 180h-570l16 116h706l36 -40l-634 -810l-138 -148h626l-10 -116h-758z" />
    <glyph glyph-name="braceleft" unicode="{" horiz-adv-x="856" 
d="M366 -166q-67 0 -100 23.5t-26 86.5l80 646q4 33 -36.5 61.5t-97.5 49.5t-102 33l14 96q66 17 126.5 36.5t100.5 44.5t45 59l70 504q15 105 46 145.5t122 40.5q22 0 60.5 -4t81.5 -9.5t78 -11.5t48 -11l-10 -64h-280l-80 -614q-6 -46 -54.5 -78.5t-107.5 -53.5t-98 -32
q53 -24 104.5 -45t83 -51t24.5 -82l-84 -668h268l-8 -66q-79 -18 -136.5 -27t-131.5 -9z" />
    <glyph glyph-name="bar" unicode="|" horiz-adv-x="834" 
d="M366 -182v1920h128v-1920h-128z" />
    <glyph glyph-name="braceright" unicode="}" horiz-adv-x="856" 
d="M540 1660q68 0 101 -23.5t25 -86.5l-80 -646q-4 -33 36.5 -61t97.5 -49.5t102 -33.5l-14 -96q-66 -17 -126.5 -36.5t-100.5 -44.5t-45 -59l-70 -504q-15 -105 -45.5 -145.5t-122.5 -40.5q-22 0 -60.5 4t-81.5 9.5t-77.5 12t-48.5 10.5l10 64h280l80 614q6 46 54.5 78.5
t107.5 53.5t98 32q-53 24 -104.5 45t-83 51t-24.5 82l84 668h-268l8 66q80 18 137.5 27t130.5 9z" />
    <glyph glyph-name="asciitilde" unicode="~" horiz-adv-x="1110" 
d="M740 724q-54 0 -95 23t-95 69q-46 41 -78 59.5t-68 18.5q-66 0 -119.5 -33t-94.5 -93l-54 56q16 48 61 92t107 72t128 28q53 0 93.5 -22.5t94.5 -69.5q47 -37 79 -56.5t69 -19.5q66 0 118 36t86 90l56 -56q-18 -50 -61 -94.5t-102 -72t-125 -27.5z" />
    <glyph glyph-name="uni00A0" unicode="&#xa0;" horiz-adv-x="360" 
 />
    <glyph glyph-name="exclamdown" unicode="&#xa1;" horiz-adv-x="606" 
d="M82 -424l210 1260h118l-160 -1260h-168zM378 1114q-43 0 -65.5 22t-22.5 58q0 59 38 97.5t96 38.5q38 0 63 -21.5t25 -62.5q0 -55 -40.5 -93.5t-93.5 -38.5z" />
    <glyph glyph-name="cent" unicode="&#xa2;" horiz-adv-x="1032" 
d="M366 -210l38 204q-130 30 -199 142t-69 286q0 119 33 235.5t95.5 215t151 164.5t198.5 85l48 204h114l-50 -198q53 -1 102.5 -11.5t83.5 -28.5l-38 -124q-24 19 -54 31.5t-64.5 18.5t-71.5 6q-88 0 -161.5 -51.5t-126 -136.5t-81.5 -188t-29 -206q0 -175 59 -258.5
t177 -83.5q78 0 143 36t135 108l50 -80q-49 -64 -136 -117t-200 -59l-36 -194h-112z" />
    <glyph glyph-name="sterling" unicode="&#xa3;" horiz-adv-x="1346" 
d="M72 -14q-28 0 -43 13.5t-15 38.5q0 41 36 75t83.5 54.5t82.5 20.5q44 36 73.5 118t42.5 170l44 258h-184l14 98h186l22 126q22 154 88.5 278.5t174 198t253.5 73.5q95 0 153 -15.5t101 -62.5l-68 -104q-15 19 -44 37t-70 29.5t-92 11.5q-96 0 -166.5 -62.5t-115.5 -164.5
t-64 -219l-22 -126h320l-12 -98h-326q-4 -27 -7.5 -55t-8.5 -55q-24 -147 -53 -248.5t-95 -199.5q96 -32 165.5 -53t127 -31t117.5 -10q156 0 230 59.5t74 162.5q0 54 -26.5 104.5t-67.5 75.5l116 90q40 -33 69.5 -74.5t46 -89.5t16.5 -100q0 -91 -41 -167t-137.5 -121.5
t-261.5 -45.5q-78 0 -147.5 10t-156 35t-214.5 69q-34 -42 -91 -73t-107 -31z" />
    <glyph glyph-name="currency" unicode="&#xa4;" horiz-adv-x="1424" 
d="M286 140l-86 84l186 186q-43 54 -67.5 122.5t-24.5 141.5q0 74 24 140.5t66 121.5l-186 186l84 86l188 -190q112 84 254 84q74 0 142.5 -24t123.5 -68l182 184l86 -84l-186 -186q82 -106 82 -250q0 -72 -22.5 -137t-63.5 -121l188 -186l-86 -84l-186 186
q-55 -40 -121.5 -63t-138.5 -23q-67 0 -132.5 21.5t-119.5 58.5zM724 346q89 0 161 44t114.5 118.5t42.5 165.5q0 90 -42 164.5t-114 119t-162 44.5q-88 0 -160 -45t-115 -119.5t-43 -163.5t43.5 -163.5t115.5 -119.5t159 -45z" />
    <glyph glyph-name="yen" unicode="&#xa5;" horiz-adv-x="1448" 
d="M598 0l44 374h-410l12 96h408l28 248h-404l12 100h360l-328 676h142l266 -560l48 -116l74 122l384 554h144l-502 -676h368l-14 -100h-416l-30 -248h416l-12 -96h-414l-44 -374h-132z" />
    <glyph glyph-name="brokenbar" unicode="&#xa6;" horiz-adv-x="834" 
d="M366 -182v874h128v-874h-128zM366 866v872h128v-872h-128z" />
    <glyph glyph-name="section" unicode="&#xa7;" horiz-adv-x="1326" 
d="M306 1310q14 97 65 160t124.5 99t156 50.5t158.5 14.5q137 0 221 -23t123 -49l-52 -124q-30 23 -105.5 48.5t-206.5 23.5q-79 0 -151 -17t-121 -57t-58 -108q-10 -70 23.5 -120t94 -88.5t135 -73t149 -72t134 -85.5t90.5 -113.5t18 -157.5q-15 -100 -77 -183.5
t-145 -142.5l-68 46q27 27 56.5 70t51.5 91t28 91q11 79 -21.5 134t-93.5 95t-135.5 73.5t-149 69t-134.5 81.5t-91.5 110.5t-18.5 156.5zM1028 136q-13 -94 -66 -157t-130 -99.5t-162.5 -52t-165.5 -15.5q-142 0 -249 29.5t-149 60.5l50 124q35 -28 132 -60t238 -32
q83 1 159.5 19t128.5 59t62 110q9 61 -25.5 104.5t-96.5 77.5t-137.5 64.5t-150.5 64.5t-135.5 78.5t-92.5 105.5t-20 147q14 102 77.5 186.5t142.5 141.5l72 -46q-22 -23 -52 -64t-54.5 -91t-31.5 -99q-10 -72 23 -122t94.5 -86.5t137 -67.5t151 -63t136.5 -74t93.5 -100.5
t20.5 -142.5z" />
    <glyph glyph-name="dieresis" unicode="&#xa8;" horiz-adv-x="790" 
d="M176 1376q-34 0 -59 25.5t-25 62.5q0 48 33.5 84t76.5 36q41 0 65.5 -23t24.5 -61q0 -52 -34 -88t-82 -36zM588 1376q-36 0 -60 25.5t-24 62.5q0 50 32 85t78 35q41 0 64.5 -23t23.5 -61q0 -52 -33.5 -88t-80.5 -36z" />
    <glyph glyph-name="copyright" unicode="&#xa9;" horiz-adv-x="2084" 
d="M200 942q0 176 65 329.5t180 269.5t268 181.5t329 65.5t328.5 -65.5t268 -181.5t180.5 -269.5t65 -329.5t-65 -330t-180.5 -271t-268 -183t-328.5 -66t-329 66t-268 183t-180 271t-65 330zM306 942q0 -156 55.5 -292.5t155.5 -239.5t234 -161.5t291 -58.5
q156 0 289.5 58.5t233.5 161.5t155.5 239.5t55.5 292.5q0 155 -55.5 291.5t-155.5 240t-233.5 162t-289.5 58.5q-157 0 -291 -58.5t-234 -162t-155.5 -240t-55.5 -291.5zM612 938q0 137 55 245t161 170.5t260 62.5q96 0 153.5 -22t84.5 -40l-26 -120q-37 26 -91.5 46
t-132.5 20q-150 0 -235 -97.5t-85 -252.5q0 -163 84 -263.5t226 -100.5q81 0 144 22t100 44l34 -94q-43 -36 -122.5 -62t-175.5 -26q-134 0 -231.5 65t-150 171.5t-52.5 231.5z" />
    <glyph glyph-name="ordfeminine" unicode="&#xaa;" horiz-adv-x="834" 
d="M334 726q-114 0 -173 76t-59 214q0 125 66 248q65 120 177.5 198t248.5 78q41 0 85.5 -8t78.5 -20l76 20l-142 -806h-124l26 136q-49 -60 -111.5 -98t-148.5 -38zM386 814q53 0 108.5 38t103.5 90l84 482q-19 18 -49.5 28t-56.5 10q-97 0 -176 -64q-78 -64 -123 -166
t-45 -206q0 -103 36 -157.5t118 -54.5z" />
    <glyph glyph-name="guillemotleft" unicode="&#xab;" horiz-adv-x="1726" 
d="M726 148l-568 390l16 118l678 404l28 -86l-542 -374l440 -368zM1386 148l-568 390l16 118l678 404l28 -86l-542 -374l440 -368z" />
    <glyph glyph-name="logicalnot" unicode="&#xac;" horiz-adv-x="1338" 
d="M968 314l46 388h-806l12 114h938l-58 -502h-132z" />
    <glyph glyph-name="uni00AD" unicode="&#xad;" horiz-adv-x="1218" 
d="M214 656l14 118h818l-14 -118h-818z" />
    <glyph glyph-name="registered" unicode="&#xae;" horiz-adv-x="2084" 
d="M200 942q0 176 65 329.5t180 269.5t268 181.5t329 65.5t328.5 -65.5t268 -181.5t180.5 -269.5t65 -329.5t-65 -330t-180.5 -271t-268 -183t-328.5 -66t-329 66t-268 183t-180 271t-65 330zM306 942q0 -156 55.5 -292.5t155.5 -239.5t234 -161.5t291 -58.5
q156 0 289.5 58.5t233.5 161.5t155.5 239.5t55.5 292.5q0 155 -55.5 291.5t-155.5 240t-233.5 162t-289.5 58.5q-157 0 -291 -58.5t-234 -162t-155.5 -240t-55.5 -291.5zM734 470v940h36.5h35.5q41 0 81.5 1.5l81 3t81.5 1.5q183 0 266.5 -77t83.5 -185t-48.5 -186.5
t-167.5 -105.5q43 -27 73 -74t54 -99.5t49 -94.5q14 -24 31 -48.5t51 -75.5l-152 2q-19 23 -33 47.5t-29 54.5q-23 43 -48 100t-59.5 105t-86.5 63h-42.5h-70.5h-55v-372h-132zM866 942q11 -1 47.5 -2t73.5 -1.5t49 -0.5q110 2 168 49t58 149q0 86 -55 135.5t-193 46.5
q-34 -1 -66 -3t-82 -7v-366z" />
    <glyph glyph-name="macron" unicode="&#xaf;" horiz-adv-x="600" 
d="M44 1400l4 112h498l-4 -112h-498z" />
    <glyph glyph-name="degree" unicode="&#xb0;" horiz-adv-x="878" 
d="M452 932q-87 0 -156 42q-72 42 -112 114t-40 156q0 90 42 162t117.5 114t166.5 42q86 0 160 -40q72 -42 112 -113t40 -155q0 -89 -42 -164q-43 -73 -119.5 -115.5t-168.5 -42.5zM458 1024q96 0 157 66.5t61 163.5q0 95 -59 156.5t-151 61.5q-96 0 -156 -66t-60 -162
q0 -93 60 -156.5t148 -63.5z" />
    <glyph glyph-name="plusminus" unicode="&#xb1;" horiz-adv-x="1334" 
d="M558 288l28 236l28 176l-156 -4h-220l12 118h220l156 -10l16 178l26 224h134l-26 -224l-28 -176l128 8h250l-12 -118h-250l-128 4l-14 -176l-28 -236h-136zM168 30l12 112h850l-14 -112h-848z" />
    <glyph glyph-name="uni00B2" unicode="&#xb2;" horiz-adv-x="988" 
d="M102 0l-26 88q108 59 222 141t212 176.5t158 193t60 191.5q0 50 -20 97.5t-72 78t-148 30.5q-82 0 -152 -36.5t-114 -71.5l-56 88q31 31 84 64.5t123.5 56.5t154.5 23q114 0 186 -31t112 -80t55 -105t15 -106q0 -93 -59.5 -194.5t-154.5 -198t-205.5 -175.5t-212.5 -128
l588 28l2 -130h-752z" />
    <glyph glyph-name="uni00B3" unicode="&#xb3;" horiz-adv-x="942" 
d="M242 -12q-34 0 -72.5 3t-89.5 7l12 114q47 -4 81 -6t59 -2q101 0 193.5 27.5t151.5 80.5t59 130q0 69 -56 116t-200 48l-114 -24l10 128q60 11 125.5 35.5t122.5 60.5t92.5 80.5t35.5 93.5q0 59 -43 89.5t-121 30.5q-60 0 -109 -16t-89.5 -39.5t-73.5 -46.5l-48 104
q27 24 78.5 52t122 48t153.5 20q74 0 138.5 -25t104 -77t39.5 -134q0 -68 -44 -129t-114 -107.5t-148 -71.5q104 4 171 -28t99 -85t32 -113q0 -83 -47.5 -150t-128 -115t-179.5 -73.5t-203 -25.5z" />
    <glyph glyph-name="acute" unicode="&#xb4;" horiz-adv-x="546" 
d="M118 1220l-62 54l302 390l112 -102q-19 -31 -63 -80t-98 -102t-105 -96.5t-86 -63.5z" />
    <glyph glyph-name="uni00B5" unicode="&#xb5;" horiz-adv-x="1322" 
d="M126 -364l184 1238q5 30 5.5 55t-6.5 40t-23 15q-22 0 -47.5 -13.5t-54.5 -42.5l-50 86q15 22 49.5 47.5t80 44t94.5 18.5q71 0 93 -56t13 -124q-4 -30 -13.5 -100t-22.5 -157.5t-24.5 -172t-19.5 -145.5t-8 -77q0 -94 53.5 -137t132.5 -43q54 0 111 28t107 69t82 81
l116 824h144q-15 -112 -30.5 -223.5t-30.5 -223.5t-30.5 -223.5t-30.5 -223.5q-4 -36 2 -72t36 -36q26 0 56 20t64 60l48 -84q-15 -22 -49 -51.5t-79 -52t-92 -22.5q-60 0 -95 37t-35 113q-45 -47 -93 -80.5t-106.5 -51.5t-134.5 -18q-57 0 -116.5 32t-71.5 84l-70 -462
h-138z" />
    <glyph glyph-name="paragraph" unicode="&#xb6;" horiz-adv-x="1192" 
d="M378 0l102 756q-111 3 -192.5 44t-126.5 117.5t-45 184.5q0 136 57.5 232.5t176.5 148t304 51.5q60 0 131.5 -4.5t135 -9t99.5 -4.5h234l-6 -78l-166 -24l-178 -1414h-142l174 1412l-230 4l-184 -1416h-144z" />
    <glyph glyph-name="periodcentered" unicode="&#xb7;" horiz-adv-x="670" 
d="M324 616q-37 0 -62.5 24t-25.5 64q0 54 33 90t85 36q47 0 67.5 -22.5t20.5 -63.5q0 -61 -32 -94.5t-86 -33.5z" />
    <glyph glyph-name="cedilla" unicode="&#xb8;" 
d="M146 -454q-40 0 -83.5 8t-60.5 20l20 112q17 -9 39 -13.5t47 -4.5q83 0 132.5 48t49.5 142q0 56 -7 97.5t-15 66.5l58 4l40 -4q23 -36 37.5 -85.5t14.5 -112.5q0 -148 -78 -213t-194 -65z" />
    <glyph glyph-name="uni00B9" unicode="&#xb9;" horiz-adv-x="766" 
d="M260 0l138 918q-40 -12 -89 -23t-103 -19l-18 96q78 18 164.5 63t147.5 85v0l68 -14l-166 -1106h-142z" />
    <glyph glyph-name="ordmasculine" unicode="&#xba;" horiz-adv-x="788" 
d="M418 716q-96 0 -168 47.5t-112 128.5t-40 182q0 130 57 238.5t153 174t214 65.5q99 0 170.5 -47.5t109.5 -129.5t38 -185q0 -134 -54.5 -241.5t-150 -170t-217.5 -62.5zM420 810q96 0 158.5 52t93 136t30.5 180q0 128 -46 206t-138 78q-91 0 -154 -56t-95.5 -142.5
t-32.5 -177.5q0 -115 48.5 -195.5t135.5 -80.5z" />
    <glyph glyph-name="guillemotright" unicode="&#xbb;" horiz-adv-x="1712" 
d="M872 148l-30 88l544 374l-442 368l52 82l570 -390l-16 -116zM212 148l-30 88l544 374l-442 368l52 82l570 -390l-16 -116z" />
    <glyph glyph-name="onequarter" unicode="&#xbc;" horiz-adv-x="2114" 
d="M342 620l138 918q-40 -12 -89 -23t-103 -19l-18 96q78 18 164.5 63t147.5 85v0l68 -14l-166 -1106h-142zM1364 1896h138l-918 -1998h-138zM1608 0l26 224h-486l-28 72q68 98 132 193t128 193.5t131.5 206.5t140.5 231h50l106 -64l-456 -658l-68 -74l364 14l40 304l148 28
l-46 -324l212 10l-14 -132h-212l-24 -224h-144z" />
    <glyph glyph-name="onehalf" unicode="&#xbd;" horiz-adv-x="2078" 
d="M342 620l138 918q-40 -12 -89 -23t-103 -19l-18 96q78 18 164.5 63t147.5 85v0l68 -14l-166 -1106h-142zM1364 1896h138l-918 -1998h-138zM1192 0l-26 88q108 59 222 141t212 176.5t158 193t60 191.5q0 50 -20 97.5t-72 78t-148 30.5q-82 0 -152 -36.5t-114 -71.5l-56 88
q31 31 84 64.5t123.5 56.5t154.5 23q114 0 186 -31t112 -80t55 -105t15 -106q0 -93 -59.5 -194.5t-154.5 -198t-205.5 -175.5t-212.5 -128l588 28l2 -130h-752z" />
    <glyph glyph-name="threequarters" unicode="&#xbe;" horiz-adv-x="2310" 
d="M324 608q-34 0 -72.5 3t-89.5 7l12 114q47 -4 81 -6t59 -2q101 0 193.5 27.5t151.5 80.5t59 130q0 69 -56 116t-200 48l-114 -24l10 128q60 11 125.5 35.5t122.5 60.5t92.5 80.5t35.5 93.5q0 59 -43 89.5t-121 30.5q-60 0 -109 -16t-89.5 -39.5t-73.5 -46.5l-48 104
q27 24 78.5 52t122 48t153.5 20q74 0 138.5 -25t104 -77t39.5 -134q0 -68 -44 -129t-114 -107.5t-148 -71.5q104 4 171 -28t99 -85t32 -113q0 -83 -47.5 -150t-128 -115t-179.5 -73.5t-203 -25.5zM1560 1896h138l-918 -1998h-138zM1804 0l26 224h-486l-28 72q68 98 132 193
t128 193.5t131.5 206.5t140.5 231h50l106 -64l-456 -658l-68 -74l364 14l40 304l148 28l-46 -324l212 10l-14 -132h-212l-24 -224h-144z" />
    <glyph glyph-name="questiondown" unicode="&#xbf;" horiz-adv-x="840" 
d="M648 866q0 -24 10 -55t10 -105q0 -67 -40.5 -119.5t-104 -96t-131.5 -82.5q-63 -36 -108.5 -78.5t-74.5 -88.5t-43 -94.5t-14 -96.5q0 -93 39.5 -157t113.5 -97.5t177 -33.5q62 0 110 10t100 28l-22 -106q-19 -22 -83 -37t-151 -15q-135 0 -229 45.5t-142.5 132.5
t-48.5 212q0 149 81 263.5t211 192.5q45 27 85 51.5t71.5 51t50 58t19.5 71.5q2 38 0 71t-16 75h130zM622 1392q38 0 63 -22.5t25 -63.5q0 -54 -32.5 -91t-85.5 -37q-43 0 -64.5 23.5t-21.5 60.5q0 65 30.5 97.5t85.5 32.5z" />
    <glyph glyph-name="Agrave" unicode="&#xc0;" horiz-adv-x="1236" 
d="M-48 0l726 1494h164l284 -1494h-148l-74 420h-600l-196 -420h-156zM358 534h526l-126 716l-14 112l-54 -116zM858 1634q-39 29 -87.5 71t-97 90.5t-89.5 95t-64 83.5l114 102l288 -388z" />
    <glyph glyph-name="Aacute" unicode="&#xc1;" horiz-adv-x="1236" 
d="M-48 0l726 1494h164l284 -1494h-148l-74 420h-600l-196 -420h-156zM358 534h526l-126 716l-14 112l-54 -116zM728 1634l-62 54l304 390l112 -102q-16 -25 -47.5 -62t-72.5 -79t-84 -82t-82.5 -71.5t-67.5 -47.5z" />
    <glyph glyph-name="Acircumflex" unicode="&#xc2;" horiz-adv-x="1236" 
d="M-48 0l726 1494h164l284 -1494h-148l-74 420h-600l-196 -420h-156zM358 534h526l-126 716l-14 112l-54 -116zM480 1630l-58 56l336 368h134l198 -368l-72 -52l-212 288z" />
    <glyph glyph-name="Atilde" unicode="&#xc3;" horiz-adv-x="1236" 
d="M-48 0l726 1494h164l284 -1494h-148l-74 420h-600l-196 -420h-156zM358 534h526l-126 716l-14 112l-54 -116zM910 1654q-49 0 -91 23.5t-75 56.5q-31 32 -53 47t-55 15q-40 0 -75.5 -30.5t-64.5 -75.5l-62 64q20 42 54 79t76.5 60t89.5 23q48 0 89 -20.5t81 -59.5
q32 -30 53 -45t49 -15q35 0 62 21.5t46 48.5t30 44l58 -68q-12 -46 -45 -84t-77 -61t-90 -23z" />
    <glyph glyph-name="Adieresis" unicode="&#xc4;" horiz-adv-x="1236" 
d="M-48 0l726 1494h164l284 -1494h-148l-74 420h-600l-196 -420h-156zM358 534h526l-126 716l-14 112l-54 -116zM552 1634q-34 0 -59 25.5t-25 62.5q0 48 33.5 84t76.5 36q41 0 65.5 -23t24.5 -61q0 -52 -34 -88t-82 -36zM964 1634q-36 0 -60 25.5t-24 62.5q0 50 32 85
t78 35q41 0 64.5 -23t23.5 -61q0 -52 -33.5 -88t-80.5 -36z" />
    <glyph glyph-name="Aring" unicode="&#xc5;" horiz-adv-x="1236" 
d="M-48 0l726 1494h164l284 -1494h-148l-74 420h-600l-196 -420h-156zM358 534h526l-126 716l-14 112l-54 -116zM766 1634q-130 0 -202 64t-72 178q0 86 50 148q50 60 127.5 91t156.5 31q122 0 193 -65t71 -179q0 -89 -44 -148q-45 -60 -118 -90t-162 -30zM772 1716
q92 0 152 46t60 152q0 68 -46 109t-124 41q-88 0 -152 -46t-64 -148q0 -67 49.5 -110.5t124.5 -43.5z" />
    <glyph glyph-name="AE" unicode="&#xc6;" horiz-adv-x="1740" 
d="M-104 0l786 1402l-290 16l10 76h1274l-6 -118l-598 8l-72 -566l462 6l-8 -124l-468 10l-76 -598l720 12l-10 -124h-870l56 448h-506l-246 -448h-158zM362 562h460l102 824l-108 6z" />
    <glyph glyph-name="Ccedilla" unicode="&#xc7;" horiz-adv-x="1114" 
d="M608 -14q-180 0 -292 94q-112 93 -160 240t-48 316q0 257 92 456q92 198 251.5 308t352.5 110q50 0 91 -4.5t92.5 -17.5t132.5 -38l-52 -124q-49 26 -112 43t-158 17q-176 0 -298 -110q-123 -109 -182.5 -278.5t-59.5 -349.5q0 -150 39 -274t122 -198t215 -74
q67 0 136 16t127.5 40t94.5 48l22 -124q-38 -24 -82.5 -42t-95.5 -30t-108 -18t-120 -6zM426 -454q-40 0 -83.5 8t-60.5 20l20 112q17 -9 39 -13.5t47 -4.5q83 0 132.5 48t49.5 142q0 56 -7 97.5t-15 66.5l58 4l40 -4q23 -36 37.5 -85.5t14.5 -112.5q0 -148 -78 -213
t-194 -65z" />
    <glyph glyph-name="Egrave" unicode="&#xc8;" horiz-adv-x="1112" 
d="M118 0l188 1494h738l-4 -118l-600 8l-72 -566l464 6l-10 -124l-468 10l-76 -598l720 12l-10 -124h-870zM812 1634q-39 29 -87.5 71t-97 90.5t-89.5 95t-64 83.5l114 102l288 -388z" />
    <glyph glyph-name="Eacute" unicode="&#xc9;" horiz-adv-x="1112" 
d="M118 0l188 1494h738l-4 -118l-600 8l-72 -566l464 6l-10 -124l-468 10l-76 -598l720 12l-10 -124h-870zM682 1634l-62 54l304 390l112 -102q-16 -25 -47.5 -62t-72.5 -79t-84 -82t-82.5 -71.5t-67.5 -47.5z" />
    <glyph glyph-name="Ecircumflex" unicode="&#xca;" horiz-adv-x="1112" 
d="M118 0l188 1494h738l-4 -118l-600 8l-72 -566l464 6l-10 -124l-468 10l-76 -598l720 12l-10 -124h-870zM434 1630l-58 56l336 368h134l198 -368l-72 -52l-212 288z" />
    <glyph glyph-name="Edieresis" unicode="&#xcb;" horiz-adv-x="1112" 
d="M118 0l188 1494h738l-4 -118l-600 8l-72 -566l464 6l-10 -124l-468 10l-76 -598l720 12l-10 -124h-870zM506 1634q-34 0 -59 25.5t-25 62.5q0 48 33.5 84t76.5 36q41 0 65.5 -23t24.5 -61q0 -52 -34 -88t-82 -36zM918 1634q-36 0 -60 25.5t-24 62.5q0 50 32 85t78 35
q41 0 64.5 -23t23.5 -61q0 -52 -33.5 -88t-80.5 -36z" />
    <glyph glyph-name="Igrave" unicode="&#xcc;" horiz-adv-x="558" 
d="M142 0l188 1494h148l-188 -1494h-148zM524 1634q-39 29 -87.5 71t-97 90.5t-89.5 95t-64 83.5l114 102l288 -388z" />
    <glyph glyph-name="Iacute" unicode="&#xcd;" horiz-adv-x="558" 
d="M142 0l188 1494h148l-188 -1494h-148zM394 1634l-62 54l304 390l112 -102q-16 -25 -47.5 -62t-72.5 -79t-84 -82t-82.5 -71.5t-67.5 -47.5z" />
    <glyph glyph-name="Icircumflex" unicode="&#xce;" horiz-adv-x="558" 
d="M142 0l188 1494h148l-188 -1494h-148zM146 1630l-58 56l336 368h134l198 -368l-72 -52l-212 288z" />
    <glyph glyph-name="Idieresis" unicode="&#xcf;" horiz-adv-x="558" 
d="M142 0l188 1494h148l-188 -1494h-148zM218 1634q-34 0 -59 25.5t-25 62.5q0 48 33.5 84t76.5 36q41 0 65.5 -23t24.5 -61q0 -52 -34 -88t-82 -36zM630 1634q-36 0 -60 25.5t-24 62.5q0 50 32 85t78 35q41 0 64.5 -23t23.5 -61q0 -52 -33.5 -88t-80.5 -36z" />
    <glyph glyph-name="Eth" unicode="&#xd0;" horiz-adv-x="1344" 
d="M784 814l-12 -98h-722l12 98h722zM510 -16q-57 2 -104 6t-97 7t-115 3h-76l188 1494h114q23 0 50 1.5t56 4t59.5 5t61 4t59.5 1.5q290 0 426 -166.5t136 -459.5q0 -188 -53.5 -353t-153 -289.5t-239 -193t-312.5 -64.5zM530 96q185 0 318 112q132 111 200 288.5t68 379.5
q0 183 -46 300q-46 114 -145 169t-261 55q-46 0 -102 -4.5t-124 -13.5l-158 -1260q74 -13 136 -19.5t114 -6.5z" />
    <glyph glyph-name="Ntilde" unicode="&#xd1;" horiz-adv-x="1370" 
d="M118 0l188 1494h154l480 -1100l70 -202l22 232l130 1070h140l-188 -1494h-146l-482 1096l-70 234l-30 -282l-130 -1048h-138zM978 1654q-49 0 -91 23.5t-75 56.5q-31 32 -53 47t-55 15q-40 0 -75.5 -30.5t-64.5 -75.5l-62 64q20 42 54 79t76.5 60t89.5 23q48 0 89 -20.5
t81 -59.5q32 -30 53 -45t49 -15q35 0 62 21.5t46 48.5t30 44l58 -68q-12 -46 -45 -84t-77 -61t-90 -23z" />
    <glyph glyph-name="Ograve" unicode="&#xd2;" horiz-adv-x="1336" 
d="M596 -16q-160 0 -266.5 86.5t-160 232t-53.5 321.5t48 335t138 283.5t216 196t282 71.5q122 0 212 -51t148.5 -140.5t87 -204t28.5 -242.5q0 -178 -47 -338t-135.5 -284t-214 -195t-283.5 -71zM620 96q120 0 213.5 64t157.5 172t97.5 241t33.5 271q0 181 -38 303.5
t-115 184.5t-193 62q-118 0 -212.5 -65t-160 -173.5t-100.5 -241.5t-35 -270q0 -271 91.5 -409.5t260.5 -138.5zM926 1634q-39 29 -87.5 71t-97 90.5t-89.5 95t-64 83.5l114 102l288 -388z" />
    <glyph glyph-name="Oacute" unicode="&#xd3;" horiz-adv-x="1336" 
d="M596 -16q-160 0 -266.5 86.5t-160 232t-53.5 321.5t48 335t138 283.5t216 196t282 71.5q122 0 212 -51t148.5 -140.5t87 -204t28.5 -242.5q0 -178 -47 -338t-135.5 -284t-214 -195t-283.5 -71zM620 96q120 0 213.5 64t157.5 172t97.5 241t33.5 271q0 181 -38 303.5
t-115 184.5t-193 62q-118 0 -212.5 -65t-160 -173.5t-100.5 -241.5t-35 -270q0 -271 91.5 -409.5t260.5 -138.5zM796 1634l-62 54l304 390l112 -102q-16 -25 -47.5 -62t-72.5 -79t-84 -82t-82.5 -71.5t-67.5 -47.5z" />
    <glyph glyph-name="Ocircumflex" unicode="&#xd4;" horiz-adv-x="1336" 
d="M596 -16q-160 0 -266.5 86.5t-160 232t-53.5 321.5t48 335t138 283.5t216 196t282 71.5q122 0 212 -51t148.5 -140.5t87 -204t28.5 -242.5q0 -178 -47 -338t-135.5 -284t-214 -195t-283.5 -71zM620 96q120 0 213.5 64t157.5 172t97.5 241t33.5 271q0 181 -38 303.5
t-115 184.5t-193 62q-118 0 -212.5 -65t-160 -173.5t-100.5 -241.5t-35 -270q0 -271 91.5 -409.5t260.5 -138.5zM548 1630l-58 56l336 368h134l198 -368l-72 -52l-212 288z" />
    <glyph glyph-name="Otilde" unicode="&#xd5;" horiz-adv-x="1336" 
d="M596 -16q-160 0 -266.5 86.5t-160 232t-53.5 321.5t48 335t138 283.5t216 196t282 71.5q122 0 212 -51t148.5 -140.5t87 -204t28.5 -242.5q0 -178 -47 -338t-135.5 -284t-214 -195t-283.5 -71zM620 96q120 0 213.5 64t157.5 172t97.5 241t33.5 271q0 181 -38 303.5
t-115 184.5t-193 62q-118 0 -212.5 -65t-160 -173.5t-100.5 -241.5t-35 -270q0 -271 91.5 -409.5t260.5 -138.5zM978 1654q-49 0 -91 23.5t-75 56.5q-31 32 -53 47t-55 15q-40 0 -75.5 -30.5t-64.5 -75.5l-62 64q20 42 54 79t76.5 60t89.5 23q48 0 89 -20.5t81 -59.5
q32 -30 53 -45t49 -15q35 0 62 21.5t46 48.5t30 44l58 -68q-12 -46 -45 -84t-77 -61t-90 -23z" />
    <glyph glyph-name="Odieresis" unicode="&#xd6;" horiz-adv-x="1336" 
d="M596 -16q-160 0 -266.5 86.5t-160 232t-53.5 321.5t48 335t138 283.5t216 196t282 71.5q122 0 212 -51t148.5 -140.5t87 -204t28.5 -242.5q0 -178 -47 -338t-135.5 -284t-214 -195t-283.5 -71zM620 96q120 0 213.5 64t157.5 172t97.5 241t33.5 271q0 181 -38 303.5
t-115 184.5t-193 62q-118 0 -212.5 -65t-160 -173.5t-100.5 -241.5t-35 -270q0 -271 91.5 -409.5t260.5 -138.5zM620 1634q-34 0 -59 25.5t-25 62.5q0 48 33.5 84t76.5 36q41 0 65.5 -23t24.5 -61q0 -52 -34 -88t-82 -36zM1032 1634q-36 0 -60 25.5t-24 62.5q0 50 32 85
t78 35q41 0 64.5 -23t23.5 -61q0 -52 -33.5 -88t-80.5 -36z" />
    <glyph glyph-name="multiply" unicode="&#xd7;" horiz-adv-x="1338" 
d="M316 320l-78 94l384 334l-302 330l98 92l288 -348l372 354l78 -92l-384 -338l302 -332l-98 -92l-288 350z" />
    <glyph glyph-name="Oslash" unicode="&#xd8;" horiz-adv-x="1346" 
d="M122 -120l-68 38l174 256q-60 84 -89 200.5t-29 249.5q0 250 90 454q90 203 246 318.5t348 115.5q165 0 278 -98l140 206l70 -36l-156 -228q72 -85 108 -210t36 -274q0 -249 -86 -448q-87 -204 -242 -322t-352 -118q-94 0 -173 33.5t-139 94.5zM614 98q142 0 260 100
q114 101 178 272.5t64 375.5q0 252 -76 392l-676 -1018q89 -122 250 -122zM320 296l672 1010q-85 88 -222 88q-143 0 -260 -102q-115 -102 -181.5 -274t-66.5 -372q0 -213 58 -350z" />
    <glyph glyph-name="Ugrave" unicode="&#xd9;" horiz-adv-x="1328" 
d="M588 -16q-214 0 -326 114.5t-112 325.5q0 24 3 63t9 93l116 914h146l-112 -890q-6 -46 -9 -89t-3 -81q0 -157 77 -243.5t231 -86.5q140 0 226 64t132 181t66 277l110 868h144l-112 -882q-15 -114 -40.5 -205.5t-61.5 -160.5q-73 -138 -192 -200t-292 -62zM884 1634
q-39 29 -87.5 71t-97 90.5t-89.5 95t-64 83.5l114 102l288 -388z" />
    <glyph glyph-name="Uacute" unicode="&#xda;" horiz-adv-x="1328" 
d="M588 -16q-214 0 -326 114.5t-112 325.5q0 24 3 63t9 93l116 914h146l-112 -890q-6 -46 -9 -89t-3 -81q0 -157 77 -243.5t231 -86.5q140 0 226 64t132 181t66 277l110 868h144l-112 -882q-15 -114 -40.5 -205.5t-61.5 -160.5q-73 -138 -192 -200t-292 -62zM754 1634
l-62 54l304 390l112 -102q-16 -25 -47.5 -62t-72.5 -79t-84 -82t-82.5 -71.5t-67.5 -47.5z" />
    <glyph glyph-name="Ucircumflex" unicode="&#xdb;" horiz-adv-x="1328" 
d="M588 -16q-214 0 -326 114.5t-112 325.5q0 24 3 63t9 93l116 914h146l-112 -890q-6 -46 -9 -89t-3 -81q0 -157 77 -243.5t231 -86.5q140 0 226 64t132 181t66 277l110 868h144l-112 -882q-15 -114 -40.5 -205.5t-61.5 -160.5q-73 -138 -192 -200t-292 -62zM506 1630
l-58 56l336 368h134l198 -368l-72 -52l-212 288z" />
    <glyph glyph-name="Udieresis" unicode="&#xdc;" horiz-adv-x="1328" 
d="M588 -16q-214 0 -326 114.5t-112 325.5q0 24 3 63t9 93l116 914h146l-112 -890q-6 -46 -9 -89t-3 -81q0 -157 77 -243.5t231 -86.5q140 0 226 64t132 181t66 277l110 868h144l-112 -882q-15 -114 -40.5 -205.5t-61.5 -160.5q-73 -138 -192 -200t-292 -62zM578 1634
q-34 0 -59 25.5t-25 62.5q0 48 33.5 84t76.5 36q41 0 65.5 -23t24.5 -61q0 -52 -34 -88t-82 -36zM990 1634q-36 0 -60 25.5t-24 62.5q0 50 32 85t78 35q41 0 64.5 -23t23.5 -61q0 -52 -33.5 -88t-80.5 -36z" />
    <glyph glyph-name="Yacute" unicode="&#xdd;" horiz-adv-x="1058" 
d="M392 0l74 572l-364 922h158l254 -694l40 -100l54 100l418 694h158l-578 -922l-72 -572h-142zM640 1634l-62 54l304 390l112 -102q-16 -25 -47.5 -62t-72.5 -79t-84 -82t-82.5 -71.5t-67.5 -47.5z" />
    <glyph glyph-name="Thorn" unicode="&#xde;" horiz-adv-x="1166" 
d="M118 0l188 1494h148l-34 -258q30 3 79 6.5t95 5.5t66 2q216 0 328 -98.5t112 -295.5q0 -175 -76 -306q-76 -130 -213 -200t-313 -70q-57 0 -106.5 3t-91.5 7l-36 -290h-146zM502 394q221 2 335.5 123t114.5 343q0 134 -77 207t-239 73q-14 0 -36.5 -1.5t-49 -3.5
t-53.5 -4.5t-50.5 -4.5t-40.5 -4l-90 -712q32 -6 85 -11t101 -5z" />
    <glyph glyph-name="germandbls" unicode="&#xdf;" horiz-adv-x="1152" 
d="M664 -16q-70 0 -140 16.5t-106 35.5l20 140q32 -28 89 -53t121 -25q126 0 190 46.5t64 149.5q0 37 -10.5 76.5t-31.5 81.5t-52 86q-61 77 -103.5 136.5t-42.5 111.5q0 56 22.5 94.5t65.5 87.5q71 74 116.5 141t45.5 157q0 77 -48 128.5t-146 51.5q-94 0 -160 -44.5
t-109.5 -123.5t-70.5 -185t-44 -229l-106 -862h-144l114 906q25 201 88 345t178 220.5t296 76.5q92 0 160 -33t105 -95.5t37 -151.5q0 -106 -48 -176.5t-114 -139.5q-49 -48 -73.5 -81t-24.5 -69q0 -34 33 -76t91 -114q56 -76 89 -147.5t33 -166.5q0 -103 -51 -173.5
t-138 -106.5t-195 -36z" />
    <glyph glyph-name="agrave" unicode="&#xe0;" horiz-adv-x="1104" 
d="M390 -16q-154 0 -232 113t-78 309q0 145 43.5 275t125 230.5t195.5 158.5t254 58q47 0 103 -8.5t105 -25.5l110 34l-152 -1128h-128l18 198q-61 -87 -157.5 -150.5t-206.5 -63.5zM414 98q56 0 108.5 23t99 62t84.5 86t66 95l82 620q-79 38 -180 38q-141 0 -240 -90
q-100 -91 -152 -230.5t-52 -279.5q0 -108 21 -180t62 -108t101 -36zM824 1316q-39 29 -87.5 71t-97 90.5t-89.5 95t-64 83.5l114 102l288 -388z" />
    <glyph glyph-name="aacute" unicode="&#xe1;" horiz-adv-x="1104" 
d="M390 -16q-154 0 -232 113t-78 309q0 145 43.5 275t125 230.5t195.5 158.5t254 58q47 0 103 -8.5t105 -25.5l110 34l-152 -1128h-128l18 198q-61 -87 -157.5 -150.5t-206.5 -63.5zM414 98q56 0 108.5 23t99 62t84.5 86t66 95l82 620q-79 38 -180 38q-141 0 -240 -90
q-100 -91 -152 -230.5t-52 -279.5q0 -108 21 -180t62 -108t101 -36zM676 1316l-62 54l304 390l112 -102q-16 -25 -47.5 -62t-72.5 -79t-84 -82t-82.5 -71.5t-67.5 -47.5z" />
    <glyph glyph-name="acircumflex" unicode="&#xe2;" horiz-adv-x="1104" 
d="M390 -16q-154 0 -232 113t-78 309q0 145 43.5 275t125 230.5t195.5 158.5t254 58q47 0 103 -8.5t105 -25.5l110 34l-152 -1128h-128l18 198q-61 -87 -157.5 -150.5t-206.5 -63.5zM414 98q56 0 108.5 23t99 62t84.5 86t66 95l82 620q-79 38 -180 38q-141 0 -240 -90
q-100 -91 -152 -230.5t-52 -279.5q0 -108 21 -180t62 -108t101 -36zM404 1240l-58 56l336 368h134l198 -368l-72 -52l-212 288z" />
    <glyph glyph-name="atilde" unicode="&#xe3;" horiz-adv-x="1104" 
d="M390 -16q-154 0 -232 113t-78 309q0 145 43.5 275t125 230.5t195.5 158.5t254 58q47 0 103 -8.5t105 -25.5l110 34l-152 -1128h-128l18 198q-61 -87 -157.5 -150.5t-206.5 -63.5zM414 98q56 0 108.5 23t99 62t84.5 86t66 95l82 620q-79 38 -180 38q-141 0 -240 -90
q-100 -91 -152 -230.5t-52 -279.5q0 -108 21 -180t62 -108t101 -36zM836 1266q-49 0 -91 23.5t-75 56.5q-31 32 -53 47t-55 15q-40 0 -75.5 -30.5t-64.5 -75.5l-62 64q30 63 90 112.5t130 49.5q48 0 89 -20.5t81 -59.5q32 -30 53 -45t49 -15q35 0 62 21.5t46 48.5t30 44
l58 -68q-12 -46 -45 -84t-77 -61t-90 -23z" />
    <glyph glyph-name="adieresis" unicode="&#xe4;" horiz-adv-x="1104" 
d="M390 -16q-154 0 -232 113t-78 309q0 145 43.5 275t125 230.5t195.5 158.5t254 58q47 0 103 -8.5t105 -25.5l110 34l-152 -1128h-128l18 198q-61 -87 -157.5 -150.5t-206.5 -63.5zM414 98q56 0 108.5 23t99 62t84.5 86t66 95l82 620q-79 38 -180 38q-141 0 -240 -90
q-100 -91 -152 -230.5t-52 -279.5q0 -108 21 -180t62 -108t101 -36zM498 1324q-34 0 -59 25.5t-25 62.5q0 48 33.5 84t76.5 36q41 0 65.5 -23t24.5 -61q0 -52 -34 -88t-82 -36zM910 1324q-36 0 -60 25.5t-24 62.5q0 50 32 85t78 35q41 0 64.5 -23t23.5 -61q0 -52 -33.5 -88
t-80.5 -36z" />
    <glyph glyph-name="aring" unicode="&#xe5;" horiz-adv-x="1104" 
d="M390 -16q-154 0 -232 113t-78 309q0 145 43.5 275t125 230.5t195.5 158.5t254 58q47 0 103 -8.5t105 -25.5l110 34l-152 -1128h-128l18 198q-61 -87 -157.5 -150.5t-206.5 -63.5zM414 98q56 0 108.5 23t99 62t84.5 86t66 95l82 620q-79 38 -180 38q-141 0 -240 -90
q-100 -91 -152 -230.5t-52 -279.5q0 -108 21 -180t62 -108t101 -36zM706 1228q-130 0 -202 64t-72 178q0 86 50 148q50 60 127.5 91t156.5 31q122 0 193 -65t71 -179q0 -89 -44 -148q-45 -60 -118 -90t-162 -30zM712 1310q92 0 152 46t60 152q0 68 -46 109t-124 41
q-88 0 -152 -46t-64 -148q0 -67 49.5 -110.5t124.5 -43.5z" />
    <glyph glyph-name="ae" unicode="&#xe6;" horiz-adv-x="1586" 
d="M350 -16q-135 0 -202.5 105.5t-67.5 316.5q0 145 43.5 275t125 230.5t195.5 158.5t254 58q72 0 137.5 -14.5t138.5 -61.5q125 76 270 76q101 0 160.5 -37.5t85.5 -93.5t26 -113q0 -107 -64.5 -189t-169 -138.5t-226.5 -87.5t-236 -37q-9 -87 17 -163t83.5 -122.5
t143.5 -46.5q55 0 112.5 18.5t115 55.5t112.5 92l42 -84q-22 -31 -68 -65.5t-104 -64.5t-118 -49t-110 -19q-145 0 -235 76t-125 200q-60 -118 -144 -197t-192 -79zM382 98q40 0 77 20.5t72.5 57.5t69.5 87.5t67 110.5q-10 60 2 141t41 167t70.5 161.5t90.5 124.5
q-102 54 -198 54q-106 0 -189 -52.5t-139.5 -139.5t-86 -193.5t-29.5 -214.5q0 -87 12.5 -161t45.5 -118.5t94 -44.5zM826 538q88 2 183 27t177 69t133 104.5t51 133.5q0 74 -40.5 110t-117.5 36q-52 0 -99 -17.5t-89 -52.5q-85 -72 -136 -184t-62 -226z" />
    <glyph glyph-name="ccedilla" unicode="&#xe7;" horiz-adv-x="890" 
d="M450 -16q-117 0 -198 52.5t-123.5 150.5t-42.5 235q0 163 66 328t194 271.5t302 106.5q39 0 79 -4.5t75 -13.5t60 -22l-38 -124q-23 19 -53 31.5t-65 18.5t-72 6q-52 0 -100.5 -19.5t-95.5 -60.5q-91 -79 -146.5 -214.5t-55.5 -287.5q0 -175 59 -258.5t177 -83.5
q78 0 143 36t135 108l50 -80q-33 -44 -85 -84.5t-119 -66t-146 -25.5zM282 -454q-40 0 -83.5 8t-60.5 20l20 112q17 -9 39 -13.5t47 -4.5q83 0 132.5 48t49.5 142q0 56 -7 97.5t-15 66.5l58 4l40 -4q23 -36 37.5 -85.5t14.5 -112.5q0 -148 -78 -213t-194 -65z" />
    <glyph glyph-name="egrave" unicode="&#xe8;" horiz-adv-x="1006" 
d="M468 -16q-132 0 -220 64q-85 65 -124.5 166t-35.5 216q3 193 80 356q75 159 204 250.5t292 91.5q73 0 135 -29t99.5 -83.5t37.5 -131.5q0 -100 -58 -178t-157 -134.5t-223 -91t-256 -48.5q-1 -4 -1.5 -12.5t-0.5 -19.5q0 -126 56 -213t188 -87q55 0 113.5 18.5t116 55.5
t110.5 92l42 -84q-22 -31 -68 -65.5t-104 -64.5t-117 -49t-109 -19zM246 538q87 2 182 26.5t178 68.5t134.5 104.5t51.5 134.5t-41.5 110t-118.5 36q-51 0 -97.5 -17.5t-88.5 -52.5q-85 -72 -137 -184t-63 -226zM798 1316q-39 29 -87.5 71t-97 90.5t-89.5 95t-64 83.5
l114 102l288 -388z" />
    <glyph glyph-name="eacute" unicode="&#xe9;" horiz-adv-x="1006" 
d="M468 -16q-132 0 -220 64q-85 65 -124.5 166t-35.5 216q3 193 80 356q75 159 204 250.5t292 91.5q73 0 135 -29t99.5 -83.5t37.5 -131.5q0 -100 -58 -178t-157 -134.5t-223 -91t-256 -48.5q-1 -4 -1.5 -12.5t-0.5 -19.5q0 -126 56 -213t188 -87q55 0 113.5 18.5t116 55.5
t110.5 92l42 -84q-22 -31 -68 -65.5t-104 -64.5t-117 -49t-109 -19zM246 538q87 2 182 26.5t178 68.5t134.5 104.5t51.5 134.5t-41.5 110t-118.5 36q-51 0 -97.5 -17.5t-88.5 -52.5q-85 -72 -137 -184t-63 -226zM650 1316l-62 54l304 390l112 -102q-16 -25 -47.5 -62
t-72.5 -79t-84 -82t-82.5 -71.5t-67.5 -47.5z" />
    <glyph glyph-name="ecircumflex" unicode="&#xea;" horiz-adv-x="1006" 
d="M468 -16q-132 0 -220 64q-85 65 -124.5 166t-35.5 216q3 193 80 356q75 159 204 250.5t292 91.5q73 0 135 -29t99.5 -83.5t37.5 -131.5q0 -100 -58 -178t-157 -134.5t-223 -91t-256 -48.5q-1 -4 -1.5 -12.5t-0.5 -19.5q0 -126 56 -213t188 -87q55 0 113.5 18.5t116 55.5
t110.5 92l42 -84q-22 -31 -68 -65.5t-104 -64.5t-117 -49t-109 -19zM246 538q87 2 182 26.5t178 68.5t134.5 104.5t51.5 134.5t-41.5 110t-118.5 36q-51 0 -97.5 -17.5t-88.5 -52.5q-85 -72 -137 -184t-63 -226zM378 1240l-58 56l336 368h134l198 -368l-72 -52l-212 288z
" />
    <glyph glyph-name="edieresis" unicode="&#xeb;" horiz-adv-x="1006" 
d="M468 -16q-132 0 -220 64q-85 65 -124.5 166t-35.5 216q3 193 80 356q75 159 204 250.5t292 91.5q73 0 135 -29t99.5 -83.5t37.5 -131.5q0 -100 -58 -178t-157 -134.5t-223 -91t-256 -48.5q-1 -4 -1.5 -12.5t-0.5 -19.5q0 -126 56 -213t188 -87q55 0 113.5 18.5t116 55.5
t110.5 92l42 -84q-22 -31 -68 -65.5t-104 -64.5t-117 -49t-109 -19zM246 538q87 2 182 26.5t178 68.5t134.5 104.5t51.5 134.5t-41.5 110t-118.5 36q-51 0 -97.5 -17.5t-88.5 -52.5q-85 -72 -137 -184t-63 -226zM472 1324q-34 0 -59 25.5t-25 62.5q0 48 33.5 84t76.5 36
q41 0 65.5 -23t24.5 -61q0 -52 -34 -88t-82 -36zM884 1324q-36 0 -60 25.5t-24 62.5q0 50 32 85t78 35q41 0 64.5 -23t23.5 -61q0 -52 -33.5 -88t-80.5 -36z" />
    <glyph glyph-name="igrave" unicode="&#xec;" horiz-adv-x="550" 
d="M130 0l150 1118h146l-152 -1118h-144zM490 1316q-39 29 -87.5 71t-97 90.5t-89.5 95t-64 83.5l114 102l288 -388z" />
    <glyph glyph-name="iacute" unicode="&#xed;" horiz-adv-x="550" 
d="M130 0l150 1118h146l-152 -1118h-144zM342 1316l-62 54l304 390l112 -102q-16 -25 -47.5 -62t-72.5 -79t-84 -82t-82.5 -71.5t-67.5 -47.5z" />
    <glyph glyph-name="icircumflex" unicode="&#xee;" horiz-adv-x="550" 
d="M130 0l150 1118h146l-152 -1118h-144zM70 1240l-58 56l336 368h134l198 -368l-72 -52l-212 288z" />
    <glyph glyph-name="idieresis" unicode="&#xef;" horiz-adv-x="550" 
d="M130 0l150 1118h146l-152 -1118h-144zM164 1324q-34 0 -59 25.5t-25 62.5q0 48 33.5 84t76.5 36q41 0 65.5 -23t24.5 -61q0 -52 -34 -88t-82 -36zM576 1324q-36 0 -60 25.5t-24 62.5q0 50 32 85t78 35q41 0 64.5 -23t23.5 -61q0 -52 -33.5 -88t-80.5 -36z" />
    <glyph glyph-name="eth" unicode="&#xf0;" horiz-adv-x="1134" 
d="M478 -16q-121 0 -209 62t-135.5 162.5t-47.5 217.5q0 140 38.5 266t110 224.5t171.5 155t224 56.5q86 0 161 -29t109 -83q-24 155 -87 261.5t-185 206.5l80 16l-200 -222l-80 66l204 214l-4 -76q-73 57 -152 100t-136 56l34 90q41 -10 97.5 -35t116 -57.5t108.5 -65.5
l-62 -2l178 206l74 -68l-178 -202l-6 64q115 -101 190 -211.5t111.5 -236.5t36.5 -272q0 -236 -64 -434q-66 -198 -194 -314t-304 -116zM498 86q82 0 146 46t111 123.5t77.5 173t45 196.5t14.5 193q-8 47 -42.5 94t-91.5 78.5t-132 31.5q-58 0 -109 -21t-95 -63
q-58 -56 -97.5 -136.5t-60 -178.5t-20.5 -205q0 -49 21 -106.5t57 -109t81.5 -84t94.5 -32.5z" />
    <glyph glyph-name="ntilde" unicode="&#xf1;" horiz-adv-x="1166" 
d="M90 0l152 1114h136l-28 -260q95 119 218.5 196.5t241.5 77.5q119 0 172.5 -66t53.5 -206q0 -32 -5 -80.5t-14.5 -116.5t-22.5 -159q-3 -19 -7 -44t-9.5 -61.5t-13.5 -90t-19 -128.5t-27 -176h-144q5 35 13 92.5t22.5 155t38.5 252.5q20 138 30 215.5t10 126.5
q0 83 -30.5 117.5t-107.5 34.5q-53 0 -112.5 -27.5t-117.5 -72t-107.5 -96t-82.5 -98.5l-94 -700h-146zM810 1266q-49 0 -91 23.5t-75 56.5q-31 32 -53 47t-55 15q-40 0 -75.5 -30.5t-64.5 -75.5l-62 64q30 63 90 112.5t130 49.5q48 0 89 -20.5t81 -59.5q32 -30 53 -45
t49 -15q35 0 62 21.5t46 48.5t30 44l58 -68q-12 -46 -45 -84t-77 -61t-90 -23z" />
    <glyph glyph-name="ograve" unicode="&#xf2;" horiz-adv-x="1108" 
d="M470 -16q-123 0 -206 54.5t-125.5 158t-42.5 251.5q0 173 72 332q71 156 195.5 252t280.5 96q121 0 202.5 -54t122.5 -157t41 -251q0 -175 -68 -332q-69 -157 -192.5 -253.5t-279.5 -96.5zM494 94q89 0 156.5 51.5t114 135.5t70 185t23.5 200q0 113 -25 192t-77.5 120.5
t-135.5 41.5q-92 0 -162 -52t-117 -136.5t-71 -184.5t-24 -197q0 -172 62 -264t186 -92zM792 1316q-39 29 -87.5 71t-97 90.5t-89.5 95t-64 83.5l114 102l288 -388z" />
    <glyph glyph-name="oacute" unicode="&#xf3;" horiz-adv-x="1108" 
d="M470 -16q-123 0 -206 54.5t-125.5 158t-42.5 251.5q0 173 72 332q71 156 195.5 252t280.5 96q121 0 202.5 -54t122.5 -157t41 -251q0 -175 -68 -332q-69 -157 -192.5 -253.5t-279.5 -96.5zM494 94q89 0 156.5 51.5t114 135.5t70 185t23.5 200q0 113 -25 192t-77.5 120.5
t-135.5 41.5q-92 0 -162 -52t-117 -136.5t-71 -184.5t-24 -197q0 -172 62 -264t186 -92zM644 1316l-62 54l304 390l112 -102q-16 -25 -47.5 -62t-72.5 -79t-84 -82t-82.5 -71.5t-67.5 -47.5z" />
    <glyph glyph-name="ocircumflex" unicode="&#xf4;" horiz-adv-x="1108" 
d="M470 -16q-123 0 -206 54.5t-125.5 158t-42.5 251.5q0 173 72 332q71 156 195.5 252t280.5 96q121 0 202.5 -54t122.5 -157t41 -251q0 -175 -68 -332q-69 -157 -192.5 -253.5t-279.5 -96.5zM494 94q89 0 156.5 51.5t114 135.5t70 185t23.5 200q0 113 -25 192t-77.5 120.5
t-135.5 41.5q-92 0 -162 -52t-117 -136.5t-71 -184.5t-24 -197q0 -172 62 -264t186 -92zM372 1240l-58 56l336 368h134l198 -368l-72 -52l-212 288z" />
    <glyph glyph-name="otilde" unicode="&#xf5;" horiz-adv-x="1108" 
d="M470 -16q-123 0 -206 54.5t-125.5 158t-42.5 251.5q0 173 72 332q71 156 195.5 252t280.5 96q121 0 202.5 -54t122.5 -157t41 -251q0 -175 -68 -332q-69 -157 -192.5 -253.5t-279.5 -96.5zM494 94q89 0 156.5 51.5t114 135.5t70 185t23.5 200q0 113 -25 192t-77.5 120.5
t-135.5 41.5q-92 0 -162 -52t-117 -136.5t-71 -184.5t-24 -197q0 -172 62 -264t186 -92zM804 1266q-49 0 -91 23.5t-75 56.5q-31 32 -53 47t-55 15q-40 0 -75.5 -30.5t-64.5 -75.5l-62 64q30 63 90 112.5t130 49.5q48 0 89 -20.5t81 -59.5q32 -30 53 -45t49 -15
q35 0 62 21.5t46 48.5t30 44l58 -68q-12 -46 -45 -84t-77 -61t-90 -23z" />
    <glyph glyph-name="odieresis" unicode="&#xf6;" horiz-adv-x="1108" 
d="M470 -16q-123 0 -206 54.5t-125.5 158t-42.5 251.5q0 173 72 332q71 156 195.5 252t280.5 96q121 0 202.5 -54t122.5 -157t41 -251q0 -175 -68 -332q-69 -157 -192.5 -253.5t-279.5 -96.5zM494 94q89 0 156.5 51.5t114 135.5t70 185t23.5 200q0 113 -25 192t-77.5 120.5
t-135.5 41.5q-92 0 -162 -52t-117 -136.5t-71 -184.5t-24 -197q0 -172 62 -264t186 -92zM466 1324q-34 0 -59 25.5t-25 62.5q0 48 33.5 84t76.5 36q41 0 65.5 -23t24.5 -61q0 -52 -34 -88t-82 -36zM878 1324q-36 0 -60 25.5t-24 62.5q0 50 32 85t78 35q41 0 64.5 -23
t23.5 -61q0 -52 -33.5 -88t-80.5 -36z" />
    <glyph glyph-name="divide" unicode="&#xf7;" horiz-adv-x="1306" 
d="M238 698l12 118h850l-14 -118h-848zM618 246q-37 0 -62.5 24t-25.5 64q0 54 33 90t85 36q47 0 67.5 -22.5t20.5 -63.5q0 -61 -32 -94.5t-86 -33.5zM714 1058q-37 0 -62.5 24t-25.5 64q0 54 33 90t85 36q47 0 67.5 -22.5t20.5 -63.5q0 -61 -32 -94.5t-86 -33.5z" />
    <glyph glyph-name="oslash" unicode="&#xf8;" horiz-adv-x="1108" 
d="M124 -124l-68 38l166 242l48 44l498 792l38 42l152 234l68 -38l-152 -232l-44 -52l-516 -814l-44 -42zM470 -16q-123 0 -206 54.5t-125.5 158t-42.5 251.5q0 173 72 332q71 156 195.5 252t280.5 96q121 0 202.5 -54t122.5 -157t41 -251q0 -175 -68 -332
q-69 -157 -192.5 -253.5t-279.5 -96.5zM494 94q89 0 156.5 51.5t114 135.5t70 185t23.5 200q0 113 -25 192t-77.5 120.5t-135.5 41.5q-92 0 -162 -52t-117 -136.5t-71 -184.5t-24 -197q0 -172 62 -264t186 -92z" />
    <glyph glyph-name="ugrave" unicode="&#xf9;" horiz-adv-x="1146" 
d="M360 -18q-127 0 -188.5 64t-61.5 214q0 24 8 97.5t18 164.5q9 71 21.5 160t27.5 197t33 235h146q-16 -121 -28.5 -212t-22 -157t-15.5 -111t-10 -72.5t-6 -41.5q-12 -88 -18 -147t-6 -103q0 -90 38 -126t116 -36q68 0 142.5 46t141 115t110.5 137l94 708h144l-148 -1114
h-134l28 256q-84 -118 -199 -196t-231 -78zM758 1316q-39 29 -87.5 71t-97 90.5t-89.5 95t-64 83.5l114 102l288 -388z" />
    <glyph glyph-name="uacute" unicode="&#xfa;" horiz-adv-x="1146" 
d="M360 -18q-127 0 -188.5 64t-61.5 214q0 24 8 97.5t18 164.5q9 71 21.5 160t27.5 197t33 235h146q-16 -121 -28.5 -212t-22 -157t-15.5 -111t-10 -72.5t-6 -41.5q-12 -88 -18 -147t-6 -103q0 -90 38 -126t116 -36q68 0 142.5 46t141 115t110.5 137l94 708h144l-148 -1114
h-134l28 256q-84 -118 -199 -196t-231 -78zM610 1316l-62 54l304 390l112 -102q-16 -25 -47.5 -62t-72.5 -79t-84 -82t-82.5 -71.5t-67.5 -47.5z" />
    <glyph glyph-name="ucircumflex" unicode="&#xfb;" horiz-adv-x="1146" 
d="M360 -18q-127 0 -188.5 64t-61.5 214q0 24 8 97.5t18 164.5q9 71 21.5 160t27.5 197t33 235h146q-16 -121 -28.5 -212t-22 -157t-15.5 -111t-10 -72.5t-6 -41.5q-12 -88 -18 -147t-6 -103q0 -90 38 -126t116 -36q68 0 142.5 46t141 115t110.5 137l94 708h144l-148 -1114
h-134l28 256q-84 -118 -199 -196t-231 -78zM338 1240l-58 56l336 368h134l198 -368l-72 -52l-212 288z" />
    <glyph glyph-name="udieresis" unicode="&#xfc;" horiz-adv-x="1146" 
d="M360 -18q-127 0 -188.5 64t-61.5 214q0 24 8 97.5t18 164.5q9 71 21.5 160t27.5 197t33 235h146q-16 -121 -28.5 -212t-22 -157t-15.5 -111t-10 -72.5t-6 -41.5q-12 -88 -18 -147t-6 -103q0 -90 38 -126t116 -36q68 0 142.5 46t141 115t110.5 137l94 708h144l-148 -1114
h-134l28 256q-84 -118 -199 -196t-231 -78zM432 1324q-34 0 -59 25.5t-25 62.5q0 48 33.5 84t76.5 36q41 0 65.5 -23t24.5 -61q0 -52 -34 -88t-82 -36zM844 1324q-36 0 -60 25.5t-24 62.5q0 50 32 85t78 35q41 0 64.5 -23t23.5 -61q0 -52 -33.5 -88t-80.5 -36z" />
    <glyph glyph-name="yacute" unicode="&#xfd;" horiz-adv-x="1024" 
d="M-48 -490q-36 0 -76 9t-72 21l42 120q23 -10 54 -21t76 -11q69 0 135.5 31t136 101t148.5 186h-92l-60 346l-124 822h160l106 -822l42 -294q32 56 64.5 110.5t63.5 109.5q75 125 129.5 254t87 257.5t41.5 252.5q2 27 2 52v80h142q3 -36 3.5 -69.5t-1.5 -62.5
q-7 -172 -80 -372t-180 -400q-50 -92 -115 -193t-135 -193t-136 -158q-61 -61 -153.5 -108.5t-208.5 -47.5zM578 1316l-62 54l304 390l112 -102q-16 -25 -47.5 -62t-72.5 -79t-84 -82t-82.5 -71.5t-67.5 -47.5z" />
    <glyph glyph-name="thorn" unicode="&#xfe;" horiz-adv-x="1132" 
d="M20 -504l72 506l214 1596h138l-58 -478l-34 -204q43 59 101 107t127 76.5t144 28.5q155 0 233.5 -112.5t78.5 -309.5q0 -163 -70 -330q-48 -112 -127.5 -200.5t-187.5 -140t-241 -51.5q-40 0 -83.5 6t-90.5 18l-14 -106l-60 -406h-142zM432 92q142 0 248 94
q102 93 153 232t51 272q0 162 -47 244t-137 82q-75 0 -143 -37t-123.5 -94.5t-93.5 -118.5l-86 -640q77 -34 178 -34z" />
    <glyph glyph-name="ydieresis" unicode="&#xff;" horiz-adv-x="1024" 
d="M-48 -490q-36 0 -76 9t-72 21l42 120q23 -10 54 -21t76 -11q69 0 135.5 31t136 101t148.5 186h-92l-60 346l-124 822h160l106 -822l42 -294q32 56 64.5 110.5t63.5 109.5q75 125 129.5 254t87 257.5t41.5 252.5q2 27 2 52v80h142q3 -36 3.5 -69.5t-1.5 -62.5
q-7 -172 -80 -372t-180 -400q-50 -92 -115 -193t-135 -193t-136 -158q-61 -61 -153.5 -108.5t-208.5 -47.5zM400 1324q-34 0 -59 25.5t-25 62.5q0 48 33.5 84t76.5 36q41 0 65.5 -23t24.5 -61q0 -52 -34 -88t-82 -36zM812 1324q-36 0 -60 25.5t-24 62.5q0 50 32 85t78 35
q41 0 64.5 -23t23.5 -61q0 -52 -33.5 -88t-80.5 -36z" />
    <glyph glyph-name="Amacron" unicode="&#x100;" horiz-adv-x="1236" 
d="M-48 0l726 1494h164l284 -1494h-148l-74 420h-600l-196 -420h-156zM358 534h526l-126 716l-14 112l-54 -116zM526 1676l4 112h500l-4 -112h-500z" />
    <glyph glyph-name="amacron" unicode="&#x101;" horiz-adv-x="1104" 
d="M390 -16q-154 0 -232 113t-78 309q0 145 43.5 275t125 230.5t195.5 158.5t254 58q47 0 103 -8.5t105 -25.5l110 34l-152 -1128h-128l18 198q-61 -87 -157.5 -150.5t-206.5 -63.5zM414 98q56 0 108.5 23t99 62t84.5 86t66 95l82 620q-79 38 -180 38q-141 0 -240 -90
q-100 -91 -152 -230.5t-52 -279.5q0 -108 21 -180t62 -108t101 -36zM466 1332l12 112h500l-12 -112h-500z" />
    <glyph glyph-name="Abreve" unicode="&#x102;" horiz-adv-x="1236" 
d="M-48 0l726 1494h164l284 -1494h-148l-74 420h-600l-196 -420h-156zM358 534h526l-126 716l-14 112l-54 -116zM768 1634q-87 0 -157 48.5t-107 125.5t-24 162h100q0 -91 50.5 -158.5t141.5 -67.5q64 0 111.5 34.5t76 86.5t36.5 105h98q0 -94 -46 -170t-120.5 -121
t-159.5 -45z" />
    <glyph glyph-name="abreve" unicode="&#x103;" horiz-adv-x="1104" 
d="M390 -16q-154 0 -232 113t-78 309q0 145 43.5 275t125 230.5t195.5 158.5t254 58q47 0 103 -8.5t105 -25.5l110 34l-152 -1128h-128l18 198q-61 -87 -157.5 -150.5t-206.5 -63.5zM414 98q56 0 108.5 23t99 62t84.5 86t66 95l82 620q-79 38 -180 38q-141 0 -240 -90
q-100 -91 -152 -230.5t-52 -279.5q0 -108 21 -180t62 -108t101 -36zM700 1264q-97 0 -163.5 48.5t-96 125.5t-16.5 162h100q0 -61 15.5 -112.5t54.5 -82.5t110 -31q74 0 120.5 34.5t71 86.5t32.5 105h98q0 -94 -42 -170t-115.5 -121t-168.5 -45z" />
    <glyph glyph-name="Aogonek" unicode="&#x104;" horiz-adv-x="1236" 
d="M-48 0l726 1494h164l284 -1494h-148l-74 420h-600l-196 -420h-156zM358 534h526l-126 716l-14 112l-54 -116zM928 -412q-81 0 -133.5 40.5t-52.5 95.5q0 44 19.5 82.5t55 72t83.5 63.5t106 58l77 37l43 -37q-91 -60 -157.5 -112.5t-66.5 -111.5q0 -36 21.5 -57t52.5 -21
q41 0 71 15t67 43l38 -76q-27 -25 -59.5 -46t-73 -33.5t-91.5 -12.5z" />
    <glyph glyph-name="aogonek" unicode="&#x105;" horiz-adv-x="1104" 
d="M390 -16q-154 0 -232 113t-78 309q0 145 43.5 275t125 230.5t195.5 158.5t254 58q47 0 103 -8.5t105 -25.5l110 34l-152 -1128h-128l18 198q-61 -87 -157.5 -150.5t-206.5 -63.5zM414 98q56 0 108.5 23t99 62t84.5 86t66 95l82 620q-79 38 -180 38q-141 0 -240 -90
q-100 -91 -152 -230.5t-52 -279.5q0 -108 21 -180t62 -108t101 -36zM682 -420q-81 0 -133.5 40.5t-52.5 95.5q0 59 35 109.5t92 94t121 80.5l76 44l44 -44q-91 -60 -157.5 -120.5t-66.5 -119.5q0 -36 21.5 -53t52.5 -17q41 0 79 15t75 43l38 -76q-40 -37 -93.5 -64.5
t-130.5 -27.5z" />
    <glyph glyph-name="Cacute" unicode="&#x106;" horiz-adv-x="1114" 
d="M608 -14q-180 0 -292 94q-112 93 -160 240t-48 316q0 257 92 456q92 198 251.5 308t352.5 110q50 0 91 -4.5t92.5 -17.5t132.5 -38l-52 -124q-49 26 -112 43t-158 17q-176 0 -298 -110q-123 -109 -182.5 -278.5t-59.5 -349.5q0 -150 39 -274t122 -198t215 -74
q67 0 136 16t127.5 40t94.5 48l22 -124q-38 -24 -82.5 -42t-95.5 -30t-108 -18t-120 -6zM786 1634l-62 54l304 390l112 -102q-16 -25 -47.5 -62t-72.5 -79t-84 -82t-82.5 -71.5t-67.5 -47.5z" />
    <glyph glyph-name="cacute" unicode="&#x107;" horiz-adv-x="890" 
d="M450 -16q-117 0 -198 52.5t-123.5 150.5t-42.5 235q0 163 66 328t194 271.5t302 106.5q39 0 79 -4.5t75 -13.5t60 -22l-38 -124q-23 19 -53 31.5t-65 18.5t-72 6q-52 0 -100.5 -19.5t-95.5 -60.5q-91 -79 -146.5 -214.5t-55.5 -287.5q0 -175 59 -258.5t177 -83.5
q78 0 143 36t135 108l50 -80q-33 -44 -85 -84.5t-119 -66t-146 -25.5zM630 1316l-62 54l304 390l112 -102q-16 -25 -47.5 -62t-72.5 -79t-84 -82t-82.5 -71.5t-67.5 -47.5z" />
    <glyph glyph-name="Ccircumflex" unicode="&#x108;" horiz-adv-x="1114" 
d="M608 -14q-180 0 -292 94q-112 93 -160 240t-48 316q0 257 92 456q92 198 251.5 308t352.5 110q50 0 91 -4.5t92.5 -17.5t132.5 -38l-52 -124q-49 26 -112 43t-158 17q-176 0 -298 -110q-123 -109 -182.5 -278.5t-59.5 -349.5q0 -150 39 -274t122 -198t215 -74
q67 0 136 16t127.5 40t94.5 48l22 -124q-38 -24 -82.5 -42t-95.5 -30t-108 -18t-120 -6zM538 1630l-58 56l336 368h134l198 -368l-72 -52l-212 288z" />
    <glyph glyph-name="ccircumflex" unicode="&#x109;" horiz-adv-x="890" 
d="M450 -16q-117 0 -198 52.5t-123.5 150.5t-42.5 235q0 163 66 328t194 271.5t302 106.5q39 0 79 -4.5t75 -13.5t60 -22l-38 -124q-23 19 -53 31.5t-65 18.5t-72 6q-52 0 -100.5 -19.5t-95.5 -60.5q-91 -79 -146.5 -214.5t-55.5 -287.5q0 -175 59 -258.5t177 -83.5
q78 0 143 36t135 108l50 -80q-33 -44 -85 -84.5t-119 -66t-146 -25.5zM358 1240l-58 56l336 368h134l198 -368l-72 -52l-212 288z" />
    <glyph glyph-name="Cdotaccent" unicode="&#x10a;" horiz-adv-x="1114" 
d="M608 -14q-180 0 -292 94q-112 93 -160 240t-48 316q0 257 92 456q92 198 251.5 308t352.5 110q50 0 91 -4.5t92.5 -17.5t132.5 -38l-52 -124q-49 26 -112 43t-158 17q-176 0 -298 -110q-123 -109 -182.5 -278.5t-59.5 -349.5q0 -150 39 -274t122 -198t215 -74
q67 0 136 16t127.5 40t94.5 48l22 -124q-38 -24 -82.5 -42t-95.5 -30t-108 -18t-120 -6zM816 1634q-36 0 -60 25t-24 65q0 48 32.5 84t75.5 36q41 0 65.5 -24t24.5 -62q0 -49 -34.5 -86.5t-79.5 -37.5z" />
    <glyph glyph-name="cdotaccent" unicode="&#x10b;" horiz-adv-x="890" 
d="M450 -16q-117 0 -198 52.5t-123.5 150.5t-42.5 235q0 163 66 328t194 271.5t302 106.5q39 0 79 -4.5t75 -13.5t60 -22l-38 -124q-23 19 -53 31.5t-65 18.5t-72 6q-52 0 -100.5 -19.5t-95.5 -60.5q-91 -79 -146.5 -214.5t-55.5 -287.5q0 -175 59 -258.5t177 -83.5
q78 0 143 36t135 108l50 -80q-33 -44 -85 -84.5t-119 -66t-146 -25.5zM668 1310q-36 0 -60 25t-24 65q0 48 32.5 84t75.5 36q41 0 65.5 -24t24.5 -62q0 -49 -34.5 -86.5t-79.5 -37.5z" />
    <glyph glyph-name="Ccaron" unicode="&#x10c;" horiz-adv-x="1114" 
d="M608 -14q-180 0 -292 94q-112 93 -160 240t-48 316q0 257 92 456q92 198 251.5 308t352.5 110q50 0 91 -4.5t92.5 -17.5t132.5 -38l-52 -124q-49 26 -112 43t-158 17q-176 0 -298 -110q-123 -109 -182.5 -278.5t-59.5 -349.5q0 -150 39 -274t122 -198t215 -74
q67 0 136 16t127.5 40t94.5 48l22 -124q-38 -24 -82.5 -42t-95.5 -30t-108 -18t-120 -6zM756 1634l-236 322l66 64l242 -272l326 272l62 -64l-328 -322h-132z" />
    <glyph glyph-name="ccaron" unicode="&#x10d;" horiz-adv-x="890" 
d="M450 -16q-117 0 -198 52.5t-123.5 150.5t-42.5 235q0 163 66 328t194 271.5t302 106.5q39 0 79 -4.5t75 -13.5t60 -22l-38 -124q-23 19 -53 31.5t-65 18.5t-72 6q-52 0 -100.5 -19.5t-95.5 -60.5q-91 -79 -146.5 -214.5t-55.5 -287.5q0 -175 59 -258.5t177 -83.5
q78 0 143 36t135 108l50 -80q-33 -44 -85 -84.5t-119 -66t-146 -25.5zM602 1300l-236 322l66 64l242 -272l326 272l62 -64l-328 -322h-132z" />
    <glyph glyph-name="Dcaron" unicode="&#x10e;" horiz-adv-x="1344" 
d="M510 -16q-57 2 -104 6t-97 7t-115 3h-76l188 1494h114q23 0 50 1.5t56 4t59.5 5t61 4t59.5 1.5q290 0 426 -166.5t136 -459.5q0 -188 -53.5 -353t-153 -289.5t-239 -193t-312.5 -64.5zM530 96q185 0 318 112q132 111 200 288.5t68 379.5q0 183 -46 300q-46 114 -145 169
t-261 55q-46 0 -102 -4.5t-124 -13.5l-158 -1260q74 -13 136 -19.5t114 -6.5zM752 1634l-236 322l66 64l242 -272l326 272l62 -64l-328 -322h-132z" />
    <glyph glyph-name="dcaron" unicode="&#x10f;" horiz-adv-x="1396" 
d="M1276 992l-76 28l-4 20q35 98 52.5 185.5t17.5 166.5q0 59 -8 104t-20 64l6 24l130 34q21 -45 24.5 -104.5t3.5 -119.5q-3 -69 -19.5 -143.5t-44 -142t-62.5 -116.5zM388 -16q-154 0 -232 113t-78 309q0 162 70 332q47 112 125.5 200t186 139t242.5 51q38 0 81.5 -6
t92.5 -18l68 494h144l-218 -1598h-130l20 204q-41 -60 -99.5 -110t-128 -80t-144.5 -30zM414 98q56 0 108 22t98 59.5t85 83t67 91.5l88 634q-83 34 -180 34q-143 0 -244 -92q-103 -93 -155.5 -232.5t-52.5 -273.5q0 -108 21.5 -180.5t63 -109t101.5 -36.5z" />
    <glyph glyph-name="Dcroat" unicode="&#x110;" horiz-adv-x="1344" 
d="M784 814l-12 -98h-722l12 98h722zM510 -16q-57 2 -104 6t-97 7t-115 3h-76l188 1494h114q23 0 50 1.5t56 4t59.5 5t61 4t59.5 1.5q290 0 426 -166.5t136 -459.5q0 -188 -53.5 -353t-153 -289.5t-239 -193t-312.5 -64.5zM530 96q185 0 318 112q132 111 200 288.5t68 379.5
q0 183 -46 300q-46 114 -145 169t-261 55q-46 0 -102 -4.5t-124 -13.5l-158 -1260q74 -13 136 -19.5t114 -6.5z" />
    <glyph glyph-name="dcroat" unicode="&#x111;" horiz-adv-x="1122" 
d="M614 1262l12 98h570l-14 -98h-568zM388 -16q-154 0 -232 113t-78 309q0 162 70 332q47 112 125.5 200t186 139t242.5 51q38 0 81.5 -6t92.5 -18l68 494h144l-218 -1598h-130l20 204q-41 -60 -99.5 -110t-128 -80t-144.5 -30zM414 98q56 0 108 22t98 59.5t85 83t67 91.5
l88 634q-83 34 -180 34q-143 0 -244 -92q-103 -93 -155.5 -232.5t-52.5 -273.5q0 -108 21.5 -180.5t63 -109t101.5 -36.5z" />
    <glyph glyph-name="Emacron" unicode="&#x112;" horiz-adv-x="1112" 
d="M118 0l188 1494h738l-4 -118l-600 8l-72 -566l464 6l-10 -124l-468 10l-76 -598l720 12l-10 -124h-870zM480 1676l4 112h500l-4 -112h-500z" />
    <glyph glyph-name="emacron" unicode="&#x113;" horiz-adv-x="1006" 
d="M468 -16q-132 0 -220 64q-85 65 -124.5 166t-35.5 216q3 193 80 356q75 159 204 250.5t292 91.5q73 0 135 -29t99.5 -83.5t37.5 -131.5q0 -100 -58 -178t-157 -134.5t-223 -91t-256 -48.5q-1 -4 -1.5 -12.5t-0.5 -19.5q0 -126 56 -213t188 -87q55 0 113.5 18.5t116 55.5
t110.5 92l42 -84q-22 -31 -68 -65.5t-104 -64.5t-117 -49t-109 -19zM246 538q87 2 182 26.5t178 68.5t134.5 104.5t51.5 134.5t-41.5 110t-118.5 36q-51 0 -97.5 -17.5t-88.5 -52.5q-85 -72 -137 -184t-63 -226zM440 1332l12 112h500l-12 -112h-500z" />
    <glyph glyph-name="Ebreve" unicode="&#x114;" horiz-adv-x="1112" 
d="M118 0l188 1494h738l-4 -118l-600 8l-72 -566l464 6l-10 -124l-468 10l-76 -598l720 12l-10 -124h-870zM722 1634q-87 0 -157 48.5t-107 125.5t-24 162h100q0 -91 50.5 -158.5t141.5 -67.5q64 0 111.5 34.5t76 86.5t36.5 105h98q0 -94 -46 -170t-120.5 -121t-159.5 -45z
" />
    <glyph glyph-name="ebreve" unicode="&#x115;" horiz-adv-x="1006" 
d="M468 -16q-132 0 -220 64q-85 65 -124.5 166t-35.5 216q3 193 80 356q75 159 204 250.5t292 91.5q73 0 135 -29t99.5 -83.5t37.5 -131.5q0 -100 -58 -178t-157 -134.5t-223 -91t-256 -48.5q-1 -4 -1.5 -12.5t-0.5 -19.5q0 -126 56 -213t188 -87q55 0 113.5 18.5t116 55.5
t110.5 92l42 -84q-22 -31 -68 -65.5t-104 -64.5t-117 -49t-109 -19zM246 538q87 2 182 26.5t178 68.5t134.5 104.5t51.5 134.5t-41.5 110t-118.5 36q-51 0 -97.5 -17.5t-88.5 -52.5q-85 -72 -137 -184t-63 -226zM674 1264q-97 0 -163.5 48.5t-96 125.5t-16.5 162h100
q0 -61 15.5 -112.5t54.5 -82.5t110 -31q74 0 120.5 34.5t71 86.5t32.5 105h98q0 -94 -42 -170t-115.5 -121t-168.5 -45z" />
    <glyph glyph-name="Edotaccent" unicode="&#x116;" horiz-adv-x="1112" 
d="M118 0l188 1494h738l-4 -118l-600 8l-72 -566l464 6l-10 -124l-468 10l-76 -598l720 12l-10 -124h-870zM712 1634q-36 0 -60 25t-24 65q0 48 32.5 84t75.5 36q41 0 65.5 -24t24.5 -62q0 -49 -34.5 -86.5t-79.5 -37.5z" />
    <glyph glyph-name="edotaccent" unicode="&#x117;" horiz-adv-x="1006" 
d="M468 -16q-132 0 -220 64q-85 65 -124.5 166t-35.5 216q3 193 80 356q75 159 204 250.5t292 91.5q73 0 135 -29t99.5 -83.5t37.5 -131.5q0 -100 -58 -178t-157 -134.5t-223 -91t-256 -48.5q-1 -4 -1.5 -12.5t-0.5 -19.5q0 -126 56 -213t188 -87q55 0 113.5 18.5t116 55.5
t110.5 92l42 -84q-22 -31 -68 -65.5t-104 -64.5t-117 -49t-109 -19zM246 538q87 2 182 26.5t178 68.5t134.5 104.5t51.5 134.5t-41.5 110t-118.5 36q-51 0 -97.5 -17.5t-88.5 -52.5q-85 -72 -137 -184t-63 -226zM688 1310q-36 0 -60 25t-24 65q0 48 32.5 84t75.5 36
q41 0 65.5 -24t24.5 -62q0 -49 -34.5 -86.5t-79.5 -37.5z" />
    <glyph glyph-name="Eogonek" unicode="&#x118;" horiz-adv-x="1112" 
d="M118 0l188 1494h738l-4 -118l-600 8l-72 -566l464 6l-10 -124l-468 10l-76 -598l720 12l-10 -124h-870zM704 -412q-81 0 -133.5 40.5t-52.5 95.5q0 44 19.5 82.5t55 72t83.5 63.5t106 58l77 37l43 -37q-91 -60 -157.5 -112.5t-66.5 -111.5q0 -36 21.5 -57t52.5 -21
q41 0 71 15t67 43l38 -76q-27 -25 -59.5 -46t-73 -33.5t-91.5 -12.5z" />
    <glyph glyph-name="eogonek" unicode="&#x119;" horiz-adv-x="1006" 
d="M468 -16q-132 0 -220 64q-85 65 -124.5 166t-35.5 216q3 193 80 356q75 159 204 250.5t292 91.5q73 0 135 -29t99.5 -83.5t37.5 -131.5q0 -100 -58 -178t-157 -134.5t-223 -91t-256 -48.5q-1 -4 -1.5 -12.5t-0.5 -19.5q0 -126 56 -213t188 -87q55 0 113.5 18.5t116 55.5
t110.5 92l42 -84q-22 -31 -68 -65.5t-104 -64.5t-117 -49t-109 -19zM246 538q87 2 182 26.5t178 68.5t134.5 104.5t51.5 134.5t-41.5 110t-118.5 36q-51 0 -97.5 -17.5t-88.5 -52.5q-85 -72 -137 -184t-63 -226zM380 -420q-81 0 -133.5 40.5t-52.5 95.5q0 59 35 109.5t92 94
t121 80.5l76 44l44 -44q-91 -60 -157.5 -120.5t-66.5 -119.5q0 -36 21.5 -53t52.5 -17q41 0 79 15t75 43l38 -76q-40 -37 -93.5 -64.5t-130.5 -27.5z" />
    <glyph glyph-name="Ecaron" unicode="&#x11a;" horiz-adv-x="1112" 
d="M118 0l188 1494h738l-4 -118l-600 8l-72 -566l464 6l-10 -124l-468 10l-76 -598l720 12l-10 -124h-870zM652 1634l-236 322l66 64l242 -272l326 272l62 -64l-328 -322h-132z" />
    <glyph glyph-name="ecaron" unicode="&#x11b;" horiz-adv-x="1006" 
d="M468 -16q-132 0 -220 64q-85 65 -124.5 166t-35.5 216q3 193 80 356q75 159 204 250.5t292 91.5q73 0 135 -29t99.5 -83.5t37.5 -131.5q0 -100 -58 -178t-157 -134.5t-223 -91t-256 -48.5q-1 -4 -1.5 -12.5t-0.5 -19.5q0 -126 56 -213t188 -87q55 0 113.5 18.5t116 55.5
t110.5 92l42 -84q-22 -31 -68 -65.5t-104 -64.5t-117 -49t-109 -19zM246 538q87 2 182 26.5t178 68.5t134.5 104.5t51.5 134.5t-41.5 110t-118.5 36q-51 0 -97.5 -17.5t-88.5 -52.5q-85 -72 -137 -184t-63 -226zM622 1300l-236 322l66 64l242 -272l326 272l62 -64l-328 -322
h-132z" />
    <glyph glyph-name="Gcircumflex" unicode="&#x11c;" horiz-adv-x="1308" 
d="M602 -16q-165 0 -276 90q-109 90 -161.5 233t-54.5 305q-6 259 88 468q95 204 260.5 317t367.5 113q56 0 103 -3.5t92 -11.5t93 -20.5t104 -30.5l-48 -134q-36 21 -86.5 39.5t-115.5 29.5t-144 11q-179 0 -308 -108q-127 -109 -192.5 -281.5t-65.5 -360.5
q0 -145 39 -268.5t120.5 -198.5t210.5 -75q78 0 173 24t191 60l50 410l-274 2l16 118h420l-80 -620q-31 -4 -64.5 -13t-101.5 -29q-100 -30 -182 -48t-174 -18zM516 1630l-58 56l336 368h134l198 -368l-72 -52l-212 288z" />
    <glyph glyph-name="gcircumflex" unicode="&#x11d;" horiz-adv-x="1122" 
d="M362 -494q-43 0 -93.5 5.5t-93.5 13.5t-63 17l38 122q29 -13 68 -23.5t83 -16.5t89 -6q134 0 216 75t106 217l48 294q-61 -90 -160 -155t-212 -65q-154 0 -232 113t-78 309q0 162 70 332q47 112 125.5 200t186 139t242.5 51q48 0 107 -10t107 -24l114 34l-172 -1214
q-10 -73 -34.5 -132t-63.5 -106q-79 -90 -184.5 -130t-213.5 -40zM414 98q53 0 104.5 22t98 58.5t86 81t67.5 90.5l94 636q-40 17 -88.5 26.5t-95.5 9.5q-141 0 -244 -94t-155.5 -232t-52.5 -272q0 -108 21.5 -180.5t63 -109t101.5 -36.5zM420 1240l-58 56l336 368h134
l198 -368l-72 -52l-212 288z" />
    <glyph glyph-name="Gbreve" unicode="&#x11e;" horiz-adv-x="1308" 
d="M602 -16q-165 0 -276 90q-109 90 -161.5 233t-54.5 305q-6 259 88 468q95 204 260.5 317t367.5 113q56 0 103 -3.5t92 -11.5t93 -20.5t104 -30.5l-48 -134q-36 21 -86.5 39.5t-115.5 29.5t-144 11q-179 0 -308 -108q-127 -109 -192.5 -281.5t-65.5 -360.5
q0 -145 39 -268.5t120.5 -198.5t210.5 -75q78 0 173 24t191 60l50 410l-274 2l16 118h420l-80 -620q-31 -4 -64.5 -13t-101.5 -29q-100 -30 -182 -48t-174 -18zM804 1634q-87 0 -157 48.5t-107 125.5t-24 162h100q0 -91 50.5 -158.5t141.5 -67.5q64 0 111.5 34.5t76 86.5
t36.5 105h98q0 -94 -46 -170t-120.5 -121t-159.5 -45z" />
    <glyph glyph-name="gbreve" unicode="&#x11f;" horiz-adv-x="1122" 
d="M362 -494q-43 0 -93.5 5.5t-93.5 13.5t-63 17l38 122q29 -13 68 -23.5t83 -16.5t89 -6q134 0 216 75t106 217l48 294q-61 -90 -160 -155t-212 -65q-154 0 -232 113t-78 309q0 162 70 332q47 112 125.5 200t186 139t242.5 51q48 0 107 -10t107 -24l114 34l-172 -1214
q-10 -73 -34.5 -132t-63.5 -106q-79 -90 -184.5 -130t-213.5 -40zM414 98q53 0 104.5 22t98 58.5t86 81t67.5 90.5l94 636q-40 17 -88.5 26.5t-95.5 9.5q-141 0 -244 -94t-155.5 -232t-52.5 -272q0 -108 21.5 -180.5t63 -109t101.5 -36.5zM716 1264q-97 0 -163.5 48.5
t-96 125.5t-16.5 162h100q0 -61 15.5 -112.5t54.5 -82.5t110 -31q74 0 120.5 34.5t71 86.5t32.5 105h98q0 -94 -42 -170t-115.5 -121t-168.5 -45z" />
    <glyph glyph-name="Gdotaccent" unicode="&#x120;" horiz-adv-x="1308" 
d="M602 -16q-165 0 -276 90q-109 90 -161.5 233t-54.5 305q-6 259 88 468q95 204 260.5 317t367.5 113q56 0 103 -3.5t92 -11.5t93 -20.5t104 -30.5l-48 -134q-36 21 -86.5 39.5t-115.5 29.5t-144 11q-179 0 -308 -108q-127 -109 -192.5 -281.5t-65.5 -360.5
q0 -145 39 -268.5t120.5 -198.5t210.5 -75q78 0 173 24t191 60l50 410l-274 2l16 118h420l-80 -620q-31 -4 -64.5 -13t-101.5 -29q-100 -30 -182 -48t-174 -18zM794 1634q-36 0 -60 25t-24 65q0 48 32.5 84t75.5 36q41 0 65.5 -24t24.5 -62q0 -49 -34.5 -86.5t-79.5 -37.5z
" />
    <glyph glyph-name="gdotaccent" unicode="&#x121;" horiz-adv-x="1122" 
d="M362 -494q-43 0 -93.5 5.5t-93.5 13.5t-63 17l38 122q29 -13 68 -23.5t83 -16.5t89 -6q134 0 216 75t106 217l48 294q-61 -90 -160 -155t-212 -65q-154 0 -232 113t-78 309q0 162 70 332q47 112 125.5 200t186 139t242.5 51q48 0 107 -10t107 -24l114 34l-172 -1214
q-10 -73 -34.5 -132t-63.5 -106q-79 -90 -184.5 -130t-213.5 -40zM414 98q53 0 104.5 22t98 58.5t86 81t67.5 90.5l94 636q-40 17 -88.5 26.5t-95.5 9.5q-141 0 -244 -94t-155.5 -232t-52.5 -272q0 -108 21.5 -180.5t63 -109t101.5 -36.5zM730 1310q-36 0 -60 25t-24 65
q0 48 32.5 84t75.5 36q41 0 65.5 -24t24.5 -62q0 -49 -34.5 -86.5t-79.5 -37.5z" />
    <glyph glyph-name="uni0122" unicode="&#x122;" horiz-adv-x="1308" 
d="M602 -16q-165 0 -276 90q-109 90 -161.5 233t-54.5 305q-6 259 88 468q95 204 260.5 317t367.5 113q56 0 103 -3.5t92 -11.5t93 -20.5t104 -30.5l-48 -134q-36 21 -86.5 39.5t-115.5 29.5t-144 11q-179 0 -308 -108q-127 -109 -192.5 -281.5t-65.5 -360.5
q0 -145 39 -268.5t120.5 -198.5t210.5 -75q78 0 173 24t191 60l50 410l-274 2l16 118h420l-80 -620q-31 -4 -64.5 -13t-101.5 -29q-100 -30 -182 -48t-174 -18zM468 -680l-60 38l2 18q41 29 63.5 75t22.5 113q0 41 -20 75.5t-50 46.5l4 40l92 90q54 -18 85 -76.5t31 -129.5
q0 -69 -24 -131t-63 -105t-83 -54z" />
    <glyph glyph-name="uni0123" unicode="&#x123;" horiz-adv-x="1122" 
d="M362 -494q-43 0 -93.5 5.5t-93.5 13.5t-63 17l38 122q29 -13 68 -23.5t83 -16.5t89 -6q134 0 216 75t106 217l48 294q-61 -90 -160 -155t-212 -65q-154 0 -232 113t-78 309q0 162 70 332q47 112 125.5 200t186 139t242.5 51q48 0 107 -10t107 -24l114 34l-172 -1214
q-10 -73 -34.5 -132t-63.5 -106q-79 -90 -184.5 -130t-213.5 -40zM414 98q53 0 104.5 22t98 58.5t86 81t67.5 90.5l94 636q-40 17 -88.5 26.5t-95.5 9.5q-141 0 -244 -94t-155.5 -232t-52.5 -272q0 -108 21.5 -180.5t63 -109t101.5 -36.5zM760 1784l68 -52l-2 -20
q-42 -30 -50 -72t-8 -78q0 -42 20.5 -78t51.5 -48l-4 -42l-108 -84q-37 25 -63 55.5t-39.5 68.5t-13.5 86q0 89 36.5 152t111.5 112z" />
    <glyph glyph-name="Hcircumflex" unicode="&#x124;" horiz-adv-x="1376" 
d="M118 0l188 1494h148l-86 -684h708l86 684h146l-186 -1494h-148l88 698h-710l-88 -698h-146zM554 1630l-58 56l336 368h134l198 -368l-72 -52l-212 288z" />
    <glyph glyph-name="hcircumflex" unicode="&#x125;" horiz-adv-x="1170" 
d="M94 0l206 1598h146l-54 -468l-44 -280q95 119 219.5 198.5t244.5 79.5q119 0 172.5 -67t53.5 -207q0 -18 -3 -52t-9.5 -85.5t-16 -121t-22.5 -158t-29.5 -197.5t-37.5 -240h-146q2 13 10 65.5t19 122.5t21 139t17.5 117.5t8.5 55.5q20 140 30 216.5t10 125.5
q0 80 -29.5 116t-106.5 36q-71 0 -151 -46t-151.5 -113.5t-117.5 -130.5l-94 -704h-146zM108 1652l-58 56l336 368h134l198 -368l-72 -52l-212 288z" />
    <glyph glyph-name="Hbar" unicode="&#x126;" horiz-adv-x="1376" 
d="M118 0l128 1012h-192l12 112h194l46 370h148l-48 -370h710l46 370h146l-46 -370h218l-10 -112h-222l-126 -1012h-148l74 596h-708l-76 -596h-146zM354 708h708l40 304h-710z" />
    <glyph glyph-name="hbar" unicode="&#x127;" horiz-adv-x="1170" 
d="M130 1262l12 98h568l-12 -98h-568zM94 0l206 1598h146l-54 -468l-44 -280q95 119 219.5 198.5t244.5 79.5q119 0 172.5 -67t53.5 -207q0 -18 -3 -52t-9.5 -85.5t-16 -121t-22.5 -158t-29.5 -197.5t-37.5 -240h-146q2 13 10 65.5t19 122.5t21 139t17.5 117.5t8.5 55.5
q20 140 30 216.5t10 125.5q0 80 -29.5 116t-106.5 36q-71 0 -151 -46t-151.5 -113.5t-117.5 -130.5l-94 -704h-146z" />
    <glyph glyph-name="Itilde" unicode="&#x128;" horiz-adv-x="558" 
d="M142 0l188 1494h148l-188 -1494h-148zM576 1654q-49 0 -91 23.5t-75 56.5q-31 32 -53 47t-55 15q-40 0 -75.5 -30.5t-64.5 -75.5l-62 64q20 42 54 79t76.5 60t89.5 23q48 0 89 -20.5t81 -59.5q32 -30 53 -45t49 -15q35 0 62 21.5t46 48.5t30 44l58 -68q-12 -46 -45 -84
t-77 -61t-90 -23z" />
    <glyph glyph-name="itilde" unicode="&#x129;" horiz-adv-x="550" 
d="M130 0l150 1118h146l-152 -1118h-144zM502 1266q-49 0 -91 23.5t-75 56.5q-31 32 -53 47t-55 15q-40 0 -75.5 -30.5t-64.5 -75.5l-62 64q30 63 90 112.5t130 49.5q48 0 89 -20.5t81 -59.5q32 -30 53 -45t49 -15q35 0 62 21.5t46 48.5t30 44l58 -68q-12 -46 -45 -84
t-77 -61t-90 -23z" />
    <glyph glyph-name="Imacron" unicode="&#x12a;" horiz-adv-x="558" 
d="M142 0l188 1494h148l-188 -1494h-148zM192 1676l4 112h500l-4 -112h-500z" />
    <glyph glyph-name="imacron" unicode="&#x12b;" horiz-adv-x="550" 
d="M130 0l150 1118h146l-152 -1118h-144zM132 1332l12 112h500l-12 -112h-500z" />
    <glyph glyph-name="Ibreve" unicode="&#x12c;" horiz-adv-x="558" 
d="M142 0l188 1494h148l-188 -1494h-148zM434 1634q-87 0 -157 48.5t-107 125.5t-24 162h100q0 -91 50.5 -158.5t141.5 -67.5q64 0 111.5 34.5t76 86.5t36.5 105h98q0 -94 -46 -170t-120.5 -121t-159.5 -45z" />
    <glyph glyph-name="ibreve" unicode="&#x12d;" horiz-adv-x="550" 
d="M130 0l150 1118h146l-152 -1118h-144zM366 1264q-97 0 -163.5 48.5t-96 125.5t-16.5 162h100q0 -61 15.5 -112.5t54.5 -82.5t110 -31q74 0 120.5 34.5t71 86.5t32.5 105h98q0 -94 -42 -170t-115.5 -121t-168.5 -45z" />
    <glyph glyph-name="Iogonek" unicode="&#x12e;" horiz-adv-x="558" 
d="M142 0l188 1494h148l-188 -1494h-148zM92 -412q-81 0 -133.5 40.5t-52.5 95.5q0 44 19.5 82.5t55 72t83.5 63.5t106 58l77 37l43 -37q-91 -60 -157.5 -112.5t-66.5 -111.5q0 -36 21.5 -57t52.5 -21q41 0 71 15t67 43l38 -76q-27 -25 -59.5 -46t-73 -33.5t-91.5 -12.5z
" />
    <glyph glyph-name="iogonek" unicode="&#x12f;" horiz-adv-x="550" 
d="M130 0l150 1118h146l-152 -1118h-144zM380 1310q-36 0 -60 25t-24 65q0 48 32.5 84t75.5 36q41 0 65.5 -24t24.5 -62q0 -49 -34.5 -86.5t-79.5 -37.5zM92 -420q-81 0 -133.5 40.5t-52.5 95.5q0 59 35 109.5t92 94t121 80.5l76 44l44 -44q-91 -60 -157.5 -120.5
t-66.5 -119.5q0 -36 21.5 -53t52.5 -17q41 0 79 15t75 43l38 -76q-40 -37 -93.5 -64.5t-130.5 -27.5z" />
    <glyph glyph-name="Idotaccent" unicode="&#x130;" horiz-adv-x="558" 
d="M142 0l188 1494h148l-188 -1494h-148zM424 1634q-36 0 -60 25t-24 65q0 48 32.5 84t75.5 36q41 0 65.5 -24t24.5 -62q0 -49 -34.5 -86.5t-79.5 -37.5z" />
    <glyph glyph-name="dotlessi" unicode="&#x131;" horiz-adv-x="550" 
d="M130 0l150 1118h146l-152 -1118h-144z" />
    <glyph glyph-name="IJ" unicode="&#x132;" horiz-adv-x="1128" 
d="M142 0l188 1494h148l-188 -1494h-148zM420 -316l-28 66q64 18 118 50.5t96.5 76t71 96.5t40.5 111q15 69 28 143t27 173.5t31.5 244t40.5 351.5t55 498h148l-110 -922q-28 -214 -47.5 -338.5t-30.5 -159.5q-34 -115 -91.5 -193.5t-143.5 -126.5t-205 -70z" />
    <glyph glyph-name="ij" unicode="&#x133;" horiz-adv-x="1114" 
d="M130 0l150 1118h146l-152 -1118h-144zM394 1374q-36 0 -60 25t-24 65q0 48 32.5 84t75.5 36q41 0 65.5 -24t24.5 -62q0 -49 -34.5 -86.5t-79.5 -37.5zM444 -502q-43 0 -77.5 10t-54.5 26l38 84q11 -7 33 -13.5t41 -6.5q71 0 118 36.5t76.5 100t47.5 146.5t30 177
l142 1060h146l-150 -1114q-21 -161 -73 -274t-132 -172.5t-185 -59.5zM934 1374q-36 0 -60 25t-24 65q0 48 32.5 84t75.5 36q41 0 65.5 -24t24.5 -62q0 -49 -34.5 -86.5t-79.5 -37.5z" />
    <glyph glyph-name="Jcircumflex" unicode="&#x134;" horiz-adv-x="570" 
d="M-138 -316l-28 66q64 18 118 50.5t96.5 76t71 96.5t40.5 111q15 69 28 143t27 173.5t31.5 244t40.5 351.5t55 498h148l-110 -922q-28 -214 -47.5 -338.5t-30.5 -159.5q-34 -115 -91.5 -193.5t-143.5 -126.5t-205 -70zM168 1630l-58 56l336 368h134l198 -368l-72 -52
l-212 288z" />
    <glyph glyph-name="jcircumflex" unicode="&#x135;" horiz-adv-x="562" 
d="M-106 -502q-43 0 -77.5 10t-54.5 26l38 84q11 -7 33 -13.5t41 -6.5q71 0 118 36.5t76.5 100t47.5 146.5t30 177l142 1060h146l-150 -1114q-21 -161 -73 -274t-132 -172.5t-185 -59.5zM88 1240l-58 56l336 368h134l198 -368l-72 -52l-212 288z" />
    <glyph glyph-name="uni0136" unicode="&#x136;" horiz-adv-x="1216" 
d="M118 0l188 1494h142l-100 -802l732 802h172l-606 -660q18 -30 41 -68.5t51.5 -88t64.5 -111t79 -138.5q62 -110 103 -182t68 -117.5t46 -74.5t37 -54h-178q-4 6 -28.5 49t-59.5 107t-72.5 132.5t-69.5 125.5l-178 324l-228 -246l-64 -492h-140zM482 -680l-60 38l2 18
q41 29 63.5 75t22.5 113q0 41 -20 75.5t-50 46.5l4 40l92 90q54 -18 85 -76.5t31 -129.5q0 -69 -24 -131t-63 -105t-83 -54z" />
    <glyph glyph-name="uni0137" unicode="&#x137;" horiz-adv-x="1000" 
d="M94 0l204 1598h144l-202 -1598h-146zM776 2l-410 612q119 68 211.5 137.5t158.5 156t104 206.5h140q-8 -82 -47.5 -159.5t-102 -145t-138.5 -123t-158 -94.5l410 -590h-168zM334 -658l-74 48l2 18q41 29 60.5 73t19.5 93q0 41 -17 75.5t-47 46.5l4 40l106 80
q54 -18 82 -76t28 -114q0 -69 -24.5 -129.5t-62 -102t-77.5 -52.5z" />
    <glyph glyph-name="kgreenlandic" unicode="&#x138;" horiz-adv-x="1000" 
d="M776 0l-410 610q86 50 164.5 106t142.5 120t108.5 136t62.5 152h140q-8 -112 -76.5 -214.5t-169 -185.5t-204.5 -136l410 -588h-168zM82 0l150 1124h144l-150 -1124h-144z" />
    <glyph glyph-name="Lacute" unicode="&#x139;" horiz-adv-x="956" 
d="M118 0l188 1494h148l-174 -1370l580 2l-16 -126h-726zM372 1634l-62 54l304 390l112 -102q-16 -25 -47.5 -62t-72.5 -79t-84 -82t-82.5 -71.5t-67.5 -47.5z" />
    <glyph glyph-name="lacute" unicode="&#x13a;" horiz-adv-x="550" 
d="M130 2l218 1596h144l-216 -1596h-146zM400 1696l-62 54l304 390l112 -102q-16 -25 -47.5 -62t-72.5 -79t-84 -82t-82.5 -71.5t-67.5 -47.5z" />
    <glyph glyph-name="uni013B" unicode="&#x13b;" horiz-adv-x="956" 
d="M118 0l188 1494h148l-174 -1370l580 2l-16 -126h-726zM372 -680l-60 38l2 18q41 29 63.5 75t22.5 113q0 41 -20 75.5t-50 46.5l4 40l92 90q54 -18 85 -76.5t31 -129.5q0 -69 -24 -131t-63 -105t-83 -54z" />
    <glyph glyph-name="uni013C" unicode="&#x13c;" horiz-adv-x="550" 
d="M130 2l218 1596h144l-216 -1596h-146zM116 -658l-74 48l2 18q41 29 60.5 73t19.5 93q0 41 -17 75.5t-47 46.5l4 40l106 80q54 -18 82 -76t28 -114q0 -69 -24.5 -129.5t-62 -102t-77.5 -52.5z" />
    <glyph glyph-name="Lcaron" unicode="&#x13d;" horiz-adv-x="956" 
d="M854 952l-76 28l-4 20q35 98 52.5 185.5t17.5 166.5q0 59 -8 104t-20 64l6 24l130 34q21 -45 24.5 -104.5t3.5 -119.5q-3 -69 -19.5 -143.5t-44 -142t-62.5 -116.5zM118 0l188 1494h148l-174 -1370l580 2l-16 -126h-726z" />
    <glyph glyph-name="lcaron" unicode="&#x13e;" horiz-adv-x="774" 
d="M724 992l-76 28l-4 20q35 98 52.5 185.5t17.5 166.5q0 59 -8 104t-20 64l6 24l130 34q21 -45 24.5 -104.5t3.5 -119.5q-3 -69 -19.5 -143.5t-44 -142t-62.5 -116.5zM130 2l218 1596h144l-216 -1596h-146z" />
    <glyph glyph-name="Ldot" unicode="&#x13f;" horiz-adv-x="1042" 
d="M118 0l188 1494h148l-174 -1370l580 2l-16 -126h-726zM854 674q-37 0 -62.5 24t-25.5 64q0 54 33 90t85 36q47 0 67.5 -22.5t20.5 -63.5q0 -61 -32 -94.5t-86 -33.5z" />
    <glyph glyph-name="ldot" unicode="&#x140;" horiz-adv-x="826" 
d="M130 2l218 1596h144l-216 -1596h-146zM700 634q-37 0 -62.5 24t-25.5 64q0 54 33 90t85 36q47 0 67.5 -22.5t20.5 -63.5q0 -61 -32 -94.5t-86 -33.5z" />
    <glyph glyph-name="Lslash" unicode="&#x141;" horiz-adv-x="956" 
d="M205 621l-192 -82l-28 88l234 102l128 54l436 192l26 -96l-476 -206zM118 0l188 1494h148l-174 -1370l580 2l-16 -126h-726z" />
    <glyph glyph-name="lslash" unicode="&#x142;" horiz-adv-x="526" 
d="M106 2l120 882l-150 -60v102l166 68l82 604h144l-72 -540l162 66v-110l-178 -70l-128 -942h-146z" />
    <glyph glyph-name="Nacute" unicode="&#x143;" horiz-adv-x="1370" 
d="M118 0l188 1494h154l480 -1100l70 -202l22 232l130 1070h140l-188 -1494h-146l-482 1096l-70 234l-30 -282l-130 -1048h-138zM796 1634l-62 54l304 390l112 -102q-16 -25 -47.5 -62t-72.5 -79t-84 -82t-82.5 -71.5t-67.5 -47.5z" />
    <glyph glyph-name="nacute" unicode="&#x144;" horiz-adv-x="1166" 
d="M90 0l152 1114h136l-28 -260q95 119 218.5 196.5t241.5 77.5q119 0 172.5 -66t53.5 -206q0 -32 -5 -80.5t-14.5 -116.5t-22.5 -159q-3 -19 -7 -44t-9.5 -61.5t-13.5 -90t-19 -128.5t-27 -176h-144q5 35 13 92.5t22.5 155t38.5 252.5q20 138 30 215.5t10 126.5
q0 83 -30.5 117.5t-107.5 34.5q-53 0 -112.5 -27.5t-117.5 -72t-107.5 -96t-82.5 -98.5l-94 -700h-146zM650 1316l-62 54l304 390l112 -102q-16 -25 -47.5 -62t-72.5 -79t-84 -82t-82.5 -71.5t-67.5 -47.5z" />
    <glyph glyph-name="uni0145" unicode="&#x145;" horiz-adv-x="1370" 
d="M118 0l188 1494h154l480 -1100l70 -202l22 232l130 1070h140l-188 -1494h-146l-482 1096l-70 234l-30 -282l-130 -1048h-138zM500 -680l-60 38l2 18q41 29 63.5 75t22.5 113q0 41 -20 75.5t-50 46.5l4 40l92 90q54 -18 85 -76.5t31 -129.5q0 -69 -24 -131t-63 -105
t-83 -54z" />
    <glyph glyph-name="uni0146" unicode="&#x146;" horiz-adv-x="1166" 
d="M90 0l152 1114h136l-28 -260q95 119 218.5 196.5t241.5 77.5q119 0 172.5 -66t53.5 -206q0 -32 -5 -80.5t-14.5 -116.5t-22.5 -159q-3 -19 -7 -44t-9.5 -61.5t-13.5 -90t-19 -128.5t-27 -176h-144q5 35 13 92.5t22.5 155t38.5 252.5q20 138 30 215.5t10 126.5
q0 83 -30.5 117.5t-107.5 34.5q-53 0 -112.5 -27.5t-117.5 -72t-107.5 -96t-82.5 -98.5l-94 -700h-146zM418 -658l-74 48l2 18q41 29 60.5 73t19.5 93q0 41 -17 75.5t-47 46.5l4 40l106 80q54 -18 82 -76t28 -114q0 -69 -24.5 -129.5t-62 -102t-77.5 -52.5z" />
    <glyph glyph-name="Ncaron" unicode="&#x147;" horiz-adv-x="1370" 
d="M118 0l188 1494h154l480 -1100l70 -202l22 232l130 1070h140l-188 -1494h-146l-482 1096l-70 234l-30 -282l-130 -1048h-138zM766 1634l-236 322l66 64l242 -272l326 272l62 -64l-328 -322h-132z" />
    <glyph glyph-name="ncaron" unicode="&#x148;" horiz-adv-x="1166" 
d="M90 0l152 1114h136l-28 -260q95 119 218.5 196.5t241.5 77.5q119 0 172.5 -66t53.5 -206q0 -32 -5 -80.5t-14.5 -116.5t-22.5 -159q-3 -19 -7 -44t-9.5 -61.5t-13.5 -90t-19 -128.5t-27 -176h-144q5 35 13 92.5t22.5 155t38.5 252.5q20 138 30 215.5t10 126.5
q0 83 -30.5 117.5t-107.5 34.5q-53 0 -112.5 -27.5t-117.5 -72t-107.5 -96t-82.5 -98.5l-94 -700h-146zM622 1300l-236 322l66 64l242 -272l326 272l62 -64l-328 -322h-132z" />
    <glyph glyph-name="napostrophe" unicode="&#x149;" horiz-adv-x="1818" 
d="M375 896l-56 78l2 16q43 21 93 70.5t85 125.5t34 176q0 65 -26 125.5t-74 94.5l2 28l76 80q46 -18 83.5 -67t60 -112.5t22.5 -126.5q0 -125 -41.5 -219.5t-110.5 -161t-150 -107.5zM742 0l152 1114h136l-28 -260q95 119 218.5 196.5t241.5 77.5q119 0 172.5 -66
t53.5 -206q0 -32 -5 -80.5t-14.5 -116.5t-22.5 -159q-3 -19 -7 -44t-9.5 -61.5t-13.5 -90t-19 -128.5t-27 -176h-144q5 35 13 92.5t22.5 155t38.5 252.5q20 138 30 215.5t10 126.5q0 83 -30.5 117.5t-107.5 34.5q-53 0 -112.5 -27.5t-117.5 -72t-107.5 -96t-82.5 -98.5
l-94 -700h-146z" />
    <glyph glyph-name="Eng" unicode="&#x14a;" horiz-adv-x="1364" 
d="M684 -308l-26 66q73 21 134 59t105 88t65 107l-476 1084l-70 234l-30 -282l-130 -1048h-138l188 1494h154l480 -1100l70 -202l22 232l130 1070h140l-192 -1494q-17 -80 -75 -142t-148 -104t-203 -62z" />
    <glyph glyph-name="eng" unicode="&#x14b;" horiz-adv-x="1166" 
d="M494 -506q-48 0 -87.5 11t-56.5 29l26 70q17 -10 45.5 -15t46.5 -5q91 0 150.5 45.5t96 138t59.5 232.5q24 147 44.5 280.5t36.5 244t24.5 190t8.5 119.5q0 83 -30 122.5t-102 39.5q-53 0 -113.5 -28.5t-119.5 -74t-109.5 -98t-83.5 -99.5l-94 -696h-146l152 1114h138
l-30 -262q63 79 141.5 141.5t162 98.5t162.5 36q113 0 166.5 -68t53.5 -218q-1 -45 -9.5 -111t-20.5 -155q-17 -109 -31 -203.5t-27.5 -185t-29.5 -187.5q-27 -168 -84.5 -280.5t-143 -169t-196.5 -56.5z" />
    <glyph glyph-name="Omacron" unicode="&#x14c;" horiz-adv-x="1336" 
d="M596 -16q-160 0 -266.5 86.5t-160 232t-53.5 321.5t48 335t138 283.5t216 196t282 71.5q122 0 212 -51t148.5 -140.5t87 -204t28.5 -242.5q0 -178 -47 -338t-135.5 -284t-214 -195t-283.5 -71zM620 96q120 0 213.5 64t157.5 172t97.5 241t33.5 271q0 181 -38 303.5
t-115 184.5t-193 62q-118 0 -212.5 -65t-160 -173.5t-100.5 -241.5t-35 -270q0 -271 91.5 -409.5t260.5 -138.5zM594 1676l4 112h500l-4 -112h-500z" />
    <glyph glyph-name="omacron" unicode="&#x14d;" horiz-adv-x="1108" 
d="M470 -16q-123 0 -206 54.5t-125.5 158t-42.5 251.5q0 173 72 332q71 156 195.5 252t280.5 96q121 0 202.5 -54t122.5 -157t41 -251q0 -175 -68 -332q-69 -157 -192.5 -253.5t-279.5 -96.5zM494 94q89 0 156.5 51.5t114 135.5t70 185t23.5 200q0 113 -25 192t-77.5 120.5
t-135.5 41.5q-92 0 -162 -52t-117 -136.5t-71 -184.5t-24 -197q0 -172 62 -264t186 -92zM434 1332l12 112h500l-12 -112h-500z" />
    <glyph glyph-name="Obreve" unicode="&#x14e;" horiz-adv-x="1336" 
d="M596 -16q-160 0 -266.5 86.5t-160 232t-53.5 321.5t48 335t138 283.5t216 196t282 71.5q122 0 212 -51t148.5 -140.5t87 -204t28.5 -242.5q0 -178 -47 -338t-135.5 -284t-214 -195t-283.5 -71zM620 96q120 0 213.5 64t157.5 172t97.5 241t33.5 271q0 181 -38 303.5
t-115 184.5t-193 62q-118 0 -212.5 -65t-160 -173.5t-100.5 -241.5t-35 -270q0 -271 91.5 -409.5t260.5 -138.5zM836 1634q-87 0 -157 48.5t-107 125.5t-24 162h100q0 -91 50.5 -158.5t141.5 -67.5q64 0 111.5 34.5t76 86.5t36.5 105h98q0 -94 -46 -170t-120.5 -121
t-159.5 -45z" />
    <glyph glyph-name="obreve" unicode="&#x14f;" horiz-adv-x="1108" 
d="M470 -16q-123 0 -206 54.5t-125.5 158t-42.5 251.5q0 173 72 332q71 156 195.5 252t280.5 96q121 0 202.5 -54t122.5 -157t41 -251q0 -175 -68 -332q-69 -157 -192.5 -253.5t-279.5 -96.5zM494 94q89 0 156.5 51.5t114 135.5t70 185t23.5 200q0 113 -25 192t-77.5 120.5
t-135.5 41.5q-92 0 -162 -52t-117 -136.5t-71 -184.5t-24 -197q0 -172 62 -264t186 -92zM668 1264q-97 0 -163.5 48.5t-96 125.5t-16.5 162h100q0 -61 15.5 -112.5t54.5 -82.5t110 -31q74 0 120.5 34.5t71 86.5t32.5 105h98q0 -94 -42 -170t-115.5 -121t-168.5 -45z" />
    <glyph glyph-name="Ohungarumlaut" unicode="&#x150;" horiz-adv-x="1336" 
d="M596 -16q-160 0 -266.5 86.5t-160 232t-53.5 321.5t48 335t138 283.5t216 196t282 71.5q122 0 212 -51t148.5 -140.5t87 -204t28.5 -242.5q0 -178 -47 -338t-135.5 -284t-214 -195t-283.5 -71zM620 96q120 0 213.5 64t157.5 172t97.5 241t33.5 271q0 181 -38 303.5
t-115 184.5t-193 62q-118 0 -212.5 -65t-160 -173.5t-100.5 -241.5t-35 -270q0 -271 91.5 -409.5t260.5 -138.5zM1030 1596l-72 42l244 404l106 -86q-15 -32 -48.5 -82.5t-75.5 -105.5t-83 -101.5t-71 -70.5zM612 1596l-70 42l232 404l110 -86q-20 -43 -52.5 -94
t-71.5 -102.5t-77.5 -94.5t-70.5 -69z" />
    <glyph glyph-name="ohungarumlaut" unicode="&#x151;" horiz-adv-x="1108" 
d="M470 -16q-123 0 -206 54.5t-125.5 158t-42.5 251.5q0 173 72 332q71 156 195.5 252t280.5 96q121 0 202.5 -54t122.5 -157t41 -251q0 -175 -68 -332q-69 -157 -192.5 -253.5t-279.5 -96.5zM494 94q89 0 156.5 51.5t114 135.5t70 185t23.5 200q0 113 -25 192t-77.5 120.5
t-135.5 41.5q-92 0 -162 -52t-117 -136.5t-71 -184.5t-24 -197q0 -172 62 -264t186 -92zM816 1220l-72 42l244 404l106 -86q-15 -32 -48.5 -82.5t-75.5 -105.5t-83 -101.5t-71 -70.5zM398 1220l-70 42l232 404l110 -86q-20 -43 -52.5 -94t-71.5 -102.5t-77.5 -94.5
t-70.5 -69z" />
    <glyph glyph-name="OE" unicode="&#x152;" horiz-adv-x="2040" 
d="M602 -16q-163 0 -271 86.5t-161.5 232t-53.5 321.5t48 335.5t138.5 283.5t217.5 195.5t284 71.5q167 0 270.5 -94.5t137.5 -261.5l36 340h726l-6 -118l-614 8l-68 -566l468 6l-8 -124l-474 10l-72 -598l726 12l-10 -124h-850l40 300q-90 -154 -215 -235t-289 -81zM626 96
q122 0 214.5 64t155 172.5t94.5 242.5t32 273q0 182 -38 303.5t-113.5 182t-188.5 60.5q-120 0 -215 -64.5t-162 -173t-102 -242t-35 -270.5q0 -274 91.5 -411t266.5 -137z" />
    <glyph glyph-name="oe" unicode="&#x153;" horiz-adv-x="1766" 
d="M470 -16q-123 0 -206 54.5t-125.5 158t-42.5 251.5q0 173 72 332q71 156 195.5 252t280.5 96q121 0 202.5 -54t122.5 -157t41 -251q0 -175 -68 -332q-69 -157 -192.5 -253.5t-279.5 -96.5zM494 94q89 0 156.5 51.5t114 135.5t70 185t23.5 200q0 113 -25 192t-77.5 120.5
t-135.5 41.5q-92 0 -162 -52t-117 -136.5t-71 -184.5t-24 -197q0 -172 62 -264t186 -92zM1228 -16q-132 0 -220 64q-85 65 -124.5 166t-35.5 216q3 193 80 356q75 159 204 250.5t292 91.5q73 0 135 -29t99.5 -83.5t37.5 -131.5q0 -100 -58 -178t-157 -134.5t-223 -91
t-256 -48.5q-1 -4 -1.5 -12.5t-0.5 -19.5q0 -126 56 -213t188 -87q55 0 113.5 18.5t116 55.5t110.5 92l42 -84q-22 -31 -68 -65.5t-104 -64.5t-117 -49t-109 -19zM1006 538q87 2 182 26.5t178 68.5t134.5 104.5t51.5 134.5t-41.5 110t-118.5 36q-51 0 -97.5 -17.5
t-88.5 -52.5q-85 -72 -137 -184t-63 -226z" />
    <glyph glyph-name="Racute" unicode="&#x154;" horiz-adv-x="1226" 
d="M118 0l186 1494h74q55 0 115 4t111 8t78 4q224 0 342 -91t118 -265q0 -178 -96 -311.5t-266 -180.5q29 -25 63.5 -82.5t66 -125.5t52.5 -124q36 -83 64 -148.5t50.5 -111.5t41.5 -70h-168q-9 14 -21 38.5t-29 63t-39.5 94.5t-52.5 134q-12 39 -34 91.5t-51.5 102.5
t-63.5 83t-69 33l-246 2l-80 -642h-146zM622 758q114 0 194.5 51.5t123 140t42.5 198.5q0 125 -79.5 186.5t-240.5 61.5q-24 0 -66.5 -2.5t-86.5 -6t-71 -7.5l-78 -620q23 -1 82 -1.5t180 -0.5zM670 1634l-62 54l304 390l112 -102q-16 -25 -47.5 -62t-72.5 -79t-84 -82
t-82.5 -71.5t-67.5 -47.5z" />
    <glyph glyph-name="racute" unicode="&#x155;" horiz-adv-x="760" 
d="M90 0l150 1114h136l-24 -246q33 69 91.5 128t131.5 95.5t149 36.5q49 0 64 -12l-34 -154q-13 6 -34.5 9t-53.5 3q-69 0 -137.5 -49t-123 -121t-81.5 -140l-88 -664h-146zM506 1316l-62 54l304 390l112 -102q-16 -25 -47.5 -62t-72.5 -79t-84 -82t-82.5 -71.5t-67.5 -47.5
z" />
    <glyph glyph-name="uni0156" unicode="&#x156;" horiz-adv-x="1226" 
d="M118 0l186 1494h74q55 0 115 4t111 8t78 4q224 0 342 -91t118 -265q0 -178 -96 -311.5t-266 -180.5q29 -25 63.5 -82.5t66 -125.5t52.5 -124q36 -83 64 -148.5t50.5 -111.5t41.5 -70h-168q-9 14 -21 38.5t-29 63t-39.5 94.5t-52.5 134q-12 39 -34 91.5t-51.5 102.5
t-63.5 83t-69 33l-246 2l-80 -642h-146zM622 758q114 0 194.5 51.5t123 140t42.5 198.5q0 125 -79.5 186.5t-240.5 61.5q-24 0 -66.5 -2.5t-86.5 -6t-71 -7.5l-78 -620q23 -1 82 -1.5t180 -0.5zM428 -680l-60 38l2 18q41 29 63.5 75t22.5 113q0 41 -20 75.5t-50 46.5l4 40
l92 90q54 -18 85 -76.5t31 -129.5q0 -69 -24 -131t-63 -105t-83 -54z" />
    <glyph glyph-name="uni0157" unicode="&#x157;" horiz-adv-x="760" 
d="M90 0l150 1114h136l-24 -246q33 69 91.5 128t131.5 95.5t149 36.5q49 0 64 -12l-34 -154q-13 6 -34.5 9t-53.5 3q-69 0 -137.5 -49t-123 -121t-81.5 -140l-88 -664h-146zM76 -658l-74 48l2 18q41 29 60.5 73t19.5 93q0 41 -17 75.5t-47 46.5l4 40l106 80q54 -18 82 -76
t28 -114q0 -69 -24.5 -129.5t-62 -102t-77.5 -52.5z" />
    <glyph glyph-name="Rcaron" unicode="&#x158;" horiz-adv-x="1226" 
d="M118 0l186 1494h74q55 0 115 4t111 8t78 4q224 0 342 -91t118 -265q0 -178 -96 -311.5t-266 -180.5q29 -25 63.5 -82.5t66 -125.5t52.5 -124q36 -83 64 -148.5t50.5 -111.5t41.5 -70h-168q-9 14 -21 38.5t-29 63t-39.5 94.5t-52.5 134q-12 39 -34 91.5t-51.5 102.5
t-63.5 83t-69 33l-246 2l-80 -642h-146zM622 758q114 0 194.5 51.5t123 140t42.5 198.5q0 125 -79.5 186.5t-240.5 61.5q-24 0 -66.5 -2.5t-86.5 -6t-71 -7.5l-78 -620q23 -1 82 -1.5t180 -0.5zM640 1634l-236 322l66 64l242 -272l326 272l62 -64l-328 -322h-132z" />
    <glyph glyph-name="rcaron" unicode="&#x159;" horiz-adv-x="760" 
d="M90 0l150 1114h136l-24 -246q33 69 91.5 128t131.5 95.5t149 36.5q49 0 64 -12l-34 -154q-13 6 -34.5 9t-53.5 3q-69 0 -137.5 -49t-123 -121t-81.5 -140l-88 -664h-146zM478 1300l-236 322l66 64l242 -272l326 272l62 -64l-328 -322h-132z" />
    <glyph glyph-name="Sacute" unicode="&#x15a;" horiz-adv-x="1020" 
d="M394 -16q-44 0 -98.5 7.5t-108.5 20t-96.5 28.5t-62.5 32l42 120q20 -25 76.5 -46t125.5 -33.5t126 -12.5q97 0 176.5 29.5t126.5 88.5t47 148q0 96 -58 169t-180 151q-101 66 -174.5 130.5t-113.5 140t-40 175.5q0 124 60.5 208t162.5 127t225 43q110 0 195 -20.5
t143 -61.5l-48 -114q-40 41 -118 62.5t-162 21.5q-81 0 -151.5 -23t-114.5 -77t-44 -146q0 -82 31 -139t90.5 -105t144.5 -104q96 -63 164 -121.5t104 -127.5t36 -163q0 -138 -68.5 -228.5t-183.5 -135t-254 -44.5zM614 1634l-62 54l304 390l112 -102q-16 -25 -47.5 -62
t-72.5 -79t-84 -82t-82.5 -71.5t-67.5 -47.5z" />
    <glyph glyph-name="sacute" unicode="&#x15b;" horiz-adv-x="852" 
d="M332 -16q-61 0 -120 9t-104 23t-64 30l28 128q27 -20 68 -38.5t91.5 -30t106.5 -11.5q102 0 166 43.5t64 128.5q0 48 -24.5 88.5t-67 77.5t-96.5 76q-88 69 -150 140.5t-62 185.5q0 98 52 163.5t136.5 98t181.5 32.5q53 0 102.5 -6t87.5 -15.5t58 -20.5l-30 -136
q-10 17 -46 33t-83 26.5t-89 10.5q-106 0 -168 -45.5t-62 -122.5q0 -46 15.5 -80t52.5 -70t102 -88q88 -67 139 -119t73 -102t22 -111q0 -102 -52 -168t-138.5 -98t-189.5 -32zM532 1316l-62 54l304 390l112 -102q-16 -25 -47.5 -62t-72.5 -79t-84 -82t-82.5 -71.5
t-67.5 -47.5z" />
    <glyph glyph-name="Scircumflex" unicode="&#x15c;" horiz-adv-x="1020" 
d="M394 -16q-44 0 -98.5 7.5t-108.5 20t-96.5 28.5t-62.5 32l42 120q20 -25 76.5 -46t125.5 -33.5t126 -12.5q97 0 176.5 29.5t126.5 88.5t47 148q0 96 -58 169t-180 151q-101 66 -174.5 130.5t-113.5 140t-40 175.5q0 124 60.5 208t162.5 127t225 43q110 0 195 -20.5
t143 -61.5l-48 -114q-40 41 -118 62.5t-162 21.5q-81 0 -151.5 -23t-114.5 -77t-44 -146q0 -82 31 -139t90.5 -105t144.5 -104q96 -63 164 -121.5t104 -127.5t36 -163q0 -138 -68.5 -228.5t-183.5 -135t-254 -44.5zM366 1630l-58 56l336 368h134l198 -368l-72 -52l-212 288z
" />
    <glyph glyph-name="scircumflex" unicode="&#x15d;" horiz-adv-x="852" 
d="M332 -16q-61 0 -120 9t-104 23t-64 30l28 128q27 -20 68 -38.5t91.5 -30t106.5 -11.5q102 0 166 43.5t64 128.5q0 48 -24.5 88.5t-67 77.5t-96.5 76q-88 69 -150 140.5t-62 185.5q0 98 52 163.5t136.5 98t181.5 32.5q53 0 102.5 -6t87.5 -15.5t58 -20.5l-30 -136
q-10 17 -46 33t-83 26.5t-89 10.5q-106 0 -168 -45.5t-62 -122.5q0 -46 15.5 -80t52.5 -70t102 -88q88 -67 139 -119t73 -102t22 -111q0 -102 -52 -168t-138.5 -98t-189.5 -32zM260 1240l-58 56l336 368h134l198 -368l-72 -52l-212 288z" />
    <glyph glyph-name="Scedilla" unicode="&#x15e;" horiz-adv-x="1020" 
d="M394 -16q-44 0 -98.5 7.5t-108.5 20t-96.5 28.5t-62.5 32l42 120q20 -25 76.5 -46t125.5 -33.5t126 -12.5q97 0 176.5 29.5t126.5 88.5t47 148q0 96 -58 169t-180 151q-101 66 -174.5 130.5t-113.5 140t-40 175.5q0 124 60.5 208t162.5 127t225 43q110 0 195 -20.5
t143 -61.5l-48 -114q-40 41 -118 62.5t-162 21.5q-81 0 -151.5 -23t-114.5 -77t-44 -146q0 -82 31 -139t90.5 -105t144.5 -104q96 -63 164 -121.5t104 -127.5t36 -163q0 -138 -68.5 -228.5t-183.5 -135t-254 -44.5zM258 -454q-40 0 -83.5 8t-60.5 20l20 112q17 -9 39 -13.5
t47 -4.5q83 0 132.5 48t49.5 142q0 56 -7 97.5t-15 66.5l58 4l40 -4q23 -36 37.5 -85.5t14.5 -112.5q0 -148 -78 -213t-194 -65z" />
    <glyph glyph-name="scedilla" unicode="&#x15f;" horiz-adv-x="852" 
d="M332 -16q-61 0 -120 9t-104 23t-64 30l28 128q27 -20 68 -38.5t91.5 -30t106.5 -11.5q102 0 166 43.5t64 128.5q0 48 -24.5 88.5t-67 77.5t-96.5 76q-88 69 -150 140.5t-62 185.5q0 98 52 163.5t136.5 98t181.5 32.5q53 0 102.5 -6t87.5 -15.5t58 -20.5l-30 -136
q-10 17 -46 33t-83 26.5t-89 10.5q-106 0 -168 -45.5t-62 -122.5q0 -46 15.5 -80t52.5 -70t102 -88q88 -67 139 -119t73 -102t22 -111q0 -102 -52 -168t-138.5 -98t-189.5 -32zM176 -454q-40 0 -83.5 8t-60.5 20l20 112q17 -9 39 -13.5t47 -4.5q83 0 132.5 48t49.5 142
q0 56 -7 97.5t-15 66.5l58 4l40 -4q23 -36 37.5 -85.5t14.5 -112.5q0 -148 -78 -213t-194 -65z" />
    <glyph glyph-name="Scaron" unicode="&#x160;" horiz-adv-x="1020" 
d="M394 -16q-44 0 -98.5 7.5t-108.5 20t-96.5 28.5t-62.5 32l42 120q20 -25 76.5 -46t125.5 -33.5t126 -12.5q97 0 176.5 29.5t126.5 88.5t47 148q0 96 -58 169t-180 151q-101 66 -174.5 130.5t-113.5 140t-40 175.5q0 124 60.5 208t162.5 127t225 43q110 0 195 -20.5
t143 -61.5l-48 -114q-40 41 -118 62.5t-162 21.5q-81 0 -151.5 -23t-114.5 -77t-44 -146q0 -82 31 -139t90.5 -105t144.5 -104q96 -63 164 -121.5t104 -127.5t36 -163q0 -138 -68.5 -228.5t-183.5 -135t-254 -44.5zM584 1634l-236 322l66 64l242 -272l326 272l62 -64
l-328 -322h-132z" />
    <glyph glyph-name="scaron" unicode="&#x161;" horiz-adv-x="852" 
d="M332 -16q-61 0 -120 9t-104 23t-64 30l28 128q27 -20 68 -38.5t91.5 -30t106.5 -11.5q102 0 166 43.5t64 128.5q0 48 -24.5 88.5t-67 77.5t-96.5 76q-88 69 -150 140.5t-62 185.5q0 98 52 163.5t136.5 98t181.5 32.5q53 0 102.5 -6t87.5 -15.5t58 -20.5l-30 -136
q-10 17 -46 33t-83 26.5t-89 10.5q-106 0 -168 -45.5t-62 -122.5q0 -46 15.5 -80t52.5 -70t102 -88q88 -67 139 -119t73 -102t22 -111q0 -102 -52 -168t-138.5 -98t-189.5 -32zM504 1300l-236 322l66 64l242 -272l326 272l62 -64l-328 -322h-132z" />
    <glyph glyph-name="uni0162" unicode="&#x162;" horiz-adv-x="1096" 
d="M400 0l176 1386l-442 -10l18 118h1018l-16 -118l-432 10l-176 -1386h-146zM296 -454q-40 0 -83.5 8t-60.5 20l20 112q17 -9 39 -13.5t47 -4.5q83 0 132.5 48t49.5 142q0 56 -7 97.5t-15 66.5l58 4l40 -4q23 -36 37.5 -85.5t14.5 -112.5q0 -148 -78 -213t-194 -65z" />
    <glyph glyph-name="uni0163" unicode="&#x163;" horiz-adv-x="720" 
d="M324 -16q-84 0 -128 43t-44 125q0 12 1.5 30.5t4 44t6.5 57.5l90 714h-132l32 114l124 2l54 272h122l-34 -272h284l-18 -116h-282q-28 -208 -46 -346t-29.5 -222.5t-17 -128.5t-7.5 -62t-2 -25q0 -49 17.5 -81.5t60.5 -32.5q28 0 69 16.5t80.5 39.5t64.5 44l20 -82
q-23 -27 -74 -58t-110 -53.5t-106 -22.5zM110 -454q-40 0 -83.5 8t-60.5 20l20 112q17 -9 39 -13.5t47 -4.5q83 0 132.5 48t49.5 142q0 56 -7 97.5t-15 66.5l58 4l40 -4q23 -36 37.5 -85.5t14.5 -112.5q0 -148 -78 -213t-194 -65z" />
    <glyph glyph-name="Tcaron" unicode="&#x164;" horiz-adv-x="1096" 
d="M400 0l176 1386l-442 -10l18 118h1018l-16 -118l-432 10l-176 -1386h-146zM628 1634l-236 322l66 64l242 -272l326 272l62 -64l-328 -322h-132z" />
    <glyph glyph-name="tcaron" unicode="&#x165;" horiz-adv-x="722" 
d="M714 1220l-76 28l-4 20q35 98 52.5 185.5t17.5 166.5q0 59 -8 104t-20 64l6 24l130 34q21 -45 24.5 -104.5t3.5 -119.5q-3 -69 -19.5 -143.5t-44 -142t-62.5 -116.5zM324 -16q-84 0 -128 43t-44 125q0 12 1.5 30.5t4 44t6.5 57.5l90 714h-132l32 114l124 2l54 272h122
l-34 -272h284l-18 -116h-282q-28 -208 -46 -346t-29.5 -222.5t-17 -128.5t-7.5 -62t-2 -25q0 -49 17.5 -81.5t60.5 -32.5q28 0 69 16.5t80.5 39.5t64.5 44l20 -82q-23 -27 -74 -58t-110 -53.5t-106 -22.5z" />
    <glyph glyph-name="Tbar" unicode="&#x166;" horiz-adv-x="1096" 
d="M400 0l90 716h-276l12 98h276l74 572l-442 -10l18 118h1018l-16 -118l-432 10l-72 -572h302l-14 -98h-302l-90 -716h-146z" />
    <glyph glyph-name="tbar" unicode="&#x167;" horiz-adv-x="722" 
d="M660 738l-12 -110h-562l12 110h562zM324 -16q-84 0 -128 43t-44 125q0 12 1.5 30.5t4 44t6.5 57.5l90 714h-132l32 114l124 2l54 272h122l-34 -272h284l-18 -116h-282q-28 -208 -46 -346t-29.5 -222.5t-17 -128.5t-7.5 -62t-2 -25q0 -49 17.5 -81.5t60.5 -32.5
q28 0 69 16.5t80.5 39.5t64.5 44l20 -82q-23 -27 -74 -58t-110 -53.5t-106 -22.5z" />
    <glyph glyph-name="Utilde" unicode="&#x168;" horiz-adv-x="1328" 
d="M588 -16q-214 0 -326 114.5t-112 325.5q0 24 3 63t9 93l116 914h146l-112 -890q-6 -46 -9 -89t-3 -81q0 -157 77 -243.5t231 -86.5q140 0 226 64t132 181t66 277l110 868h144l-112 -882q-15 -114 -40.5 -205.5t-61.5 -160.5q-73 -138 -192 -200t-292 -62zM936 1654
q-49 0 -91 23.5t-75 56.5q-31 32 -53 47t-55 15q-40 0 -75.5 -30.5t-64.5 -75.5l-62 64q20 42 54 79t76.5 60t89.5 23q48 0 89 -20.5t81 -59.5q32 -30 53 -45t49 -15q35 0 62 21.5t46 48.5t30 44l58 -68q-12 -46 -45 -84t-77 -61t-90 -23z" />
    <glyph glyph-name="utilde" unicode="&#x169;" horiz-adv-x="1146" 
d="M360 -18q-127 0 -188.5 64t-61.5 214q0 24 8 97.5t18 164.5q9 71 21.5 160t27.5 197t33 235h146q-16 -121 -28.5 -212t-22 -157t-15.5 -111t-10 -72.5t-6 -41.5q-12 -88 -18 -147t-6 -103q0 -90 38 -126t116 -36q68 0 142.5 46t141 115t110.5 137l94 708h144l-148 -1114
h-134l28 256q-84 -118 -199 -196t-231 -78zM770 1266q-49 0 -91 23.5t-75 56.5q-31 32 -53 47t-55 15q-40 0 -75.5 -30.5t-64.5 -75.5l-62 64q30 63 90 112.5t130 49.5q48 0 89 -20.5t81 -59.5q32 -30 53 -45t49 -15q35 0 62 21.5t46 48.5t30 44l58 -68q-12 -46 -45 -84
t-77 -61t-90 -23z" />
    <glyph glyph-name="Umacron" unicode="&#x16a;" horiz-adv-x="1328" 
d="M588 -16q-214 0 -326 114.5t-112 325.5q0 24 3 63t9 93l116 914h146l-112 -890q-6 -46 -9 -89t-3 -81q0 -157 77 -243.5t231 -86.5q140 0 226 64t132 181t66 277l110 868h144l-112 -882q-15 -114 -40.5 -205.5t-61.5 -160.5q-73 -138 -192 -200t-292 -62zM552 1676l4 112
h500l-4 -112h-500z" />
    <glyph glyph-name="umacron" unicode="&#x16b;" horiz-adv-x="1146" 
d="M360 -18q-127 0 -188.5 64t-61.5 214q0 24 8 97.5t18 164.5q9 71 21.5 160t27.5 197t33 235h146q-16 -121 -28.5 -212t-22 -157t-15.5 -111t-10 -72.5t-6 -41.5q-12 -88 -18 -147t-6 -103q0 -90 38 -126t116 -36q68 0 142.5 46t141 115t110.5 137l94 708h144l-148 -1114
h-134l28 256q-84 -118 -199 -196t-231 -78zM400 1332l12 112h500l-12 -112h-500z" />
    <glyph glyph-name="Ubreve" unicode="&#x16c;" horiz-adv-x="1328" 
d="M588 -16q-214 0 -326 114.5t-112 325.5q0 24 3 63t9 93l116 914h146l-112 -890q-6 -46 -9 -89t-3 -81q0 -157 77 -243.5t231 -86.5q140 0 226 64t132 181t66 277l110 868h144l-112 -882q-15 -114 -40.5 -205.5t-61.5 -160.5q-73 -138 -192 -200t-292 -62zM794 1634
q-87 0 -157 48.5t-107 125.5t-24 162h100q0 -91 50.5 -158.5t141.5 -67.5q64 0 111.5 34.5t76 86.5t36.5 105h98q0 -94 -46 -170t-120.5 -121t-159.5 -45z" />
    <glyph glyph-name="ubreve" unicode="&#x16d;" horiz-adv-x="1146" 
d="M360 -18q-127 0 -188.5 64t-61.5 214q0 24 8 97.5t18 164.5q9 71 21.5 160t27.5 197t33 235h146q-16 -121 -28.5 -212t-22 -157t-15.5 -111t-10 -72.5t-6 -41.5q-12 -88 -18 -147t-6 -103q0 -90 38 -126t116 -36q68 0 142.5 46t141 115t110.5 137l94 708h144l-148 -1114
h-134l28 256q-84 -118 -199 -196t-231 -78zM634 1264q-97 0 -163.5 48.5t-96 125.5t-16.5 162h100q0 -61 15.5 -112.5t54.5 -82.5t110 -31q74 0 120.5 34.5t71 86.5t32.5 105h98q0 -94 -42 -170t-115.5 -121t-168.5 -45z" />
    <glyph glyph-name="Uring" unicode="&#x16e;" horiz-adv-x="1328" 
d="M588 -16q-214 0 -326 114.5t-112 325.5q0 24 3 63t9 93l116 914h146l-112 -890q-6 -46 -9 -89t-3 -81q0 -157 77 -243.5t231 -86.5q140 0 226 64t132 181t66 277l110 868h144l-112 -882q-15 -114 -40.5 -205.5t-61.5 -160.5q-73 -138 -192 -200t-292 -62zM792 1634
q-130 0 -202 64t-72 178q0 86 50 148q50 60 127.5 91t156.5 31q122 0 193 -65t71 -179q0 -89 -44 -148q-45 -60 -118 -90t-162 -30zM798 1716q92 0 152 46t60 152q0 68 -46 109t-124 41q-88 0 -152 -46t-64 -148q0 -67 49.5 -110.5t124.5 -43.5z" />
    <glyph glyph-name="uring" unicode="&#x16f;" horiz-adv-x="1146" 
d="M360 -18q-127 0 -188.5 64t-61.5 214q0 24 8 97.5t18 164.5q9 71 21.5 160t27.5 197t33 235h146q-16 -121 -28.5 -212t-22 -157t-15.5 -111t-10 -72.5t-6 -41.5q-12 -88 -18 -147t-6 -103q0 -90 38 -126t116 -36q68 0 142.5 46t141 115t110.5 137l94 708h144l-148 -1114
h-134l28 256q-84 -118 -199 -196t-231 -78zM640 1228q-130 0 -202 64t-72 178q0 86 50 148q50 60 127.5 91t156.5 31q122 0 193 -65t71 -179q0 -89 -44 -148q-45 -60 -118 -90t-162 -30zM646 1310q92 0 152 46t60 152q0 68 -46 109t-124 41q-88 0 -152 -46t-64 -148
q0 -67 49.5 -110.5t124.5 -43.5z" />
    <glyph glyph-name="Uhungarumlaut" unicode="&#x170;" horiz-adv-x="1328" 
d="M588 -16q-214 0 -326 114.5t-112 325.5q0 24 3 63t9 93l116 914h146l-112 -890q-6 -46 -9 -89t-3 -81q0 -157 77 -243.5t231 -86.5q140 0 226 64t132 181t66 277l110 868h144l-112 -882q-15 -114 -40.5 -205.5t-61.5 -160.5q-73 -138 -192 -200t-292 -62zM988 1596
l-72 42l244 404l106 -86q-15 -32 -48.5 -82.5t-75.5 -105.5t-83 -101.5t-71 -70.5zM570 1596l-70 42l232 404l110 -86q-20 -43 -52.5 -94t-71.5 -102.5t-77.5 -94.5t-70.5 -69z" />
    <glyph glyph-name="uhungarumlaut" unicode="&#x171;" horiz-adv-x="1146" 
d="M360 -18q-127 0 -188.5 64t-61.5 214q0 24 8 97.5t18 164.5q9 71 21.5 160t27.5 197t33 235h146q-16 -121 -28.5 -212t-22 -157t-15.5 -111t-10 -72.5t-6 -41.5q-12 -88 -18 -147t-6 -103q0 -90 38 -126t116 -36q68 0 142.5 46t141 115t110.5 137l94 708h144l-148 -1114
h-134l28 256q-84 -118 -199 -196t-231 -78zM782 1220l-72 42l244 404l106 -86q-15 -32 -48.5 -82.5t-75.5 -105.5t-83 -101.5t-71 -70.5zM364 1220l-70 42l232 404l110 -86q-20 -43 -52.5 -94t-71.5 -102.5t-77.5 -94.5t-70.5 -69z" />
    <glyph glyph-name="Uogonek" unicode="&#x172;" horiz-adv-x="1328" 
d="M588 -16q-214 0 -326 114.5t-112 325.5q0 24 3 63t9 93l116 914h146l-112 -890q-6 -46 -9 -89t-3 -81q0 -157 77 -243.5t231 -86.5q140 0 226 64t132 181t66 277l110 868h144l-112 -882q-15 -114 -40.5 -205.5t-61.5 -160.5q-73 -138 -192 -200t-292 -62zM538 -412
q-81 0 -133.5 40.5t-52.5 95.5q0 44 19.5 82.5t55 72t83.5 63.5t106 58l77 37l43 -37q-91 -60 -157.5 -112.5t-66.5 -111.5q0 -36 21.5 -57t52.5 -21q41 0 71 15t67 43l38 -76q-27 -25 -59.5 -46t-73 -33.5t-91.5 -12.5z" />
    <glyph glyph-name="uogonek" unicode="&#x173;" horiz-adv-x="1146" 
d="M360 -18q-127 0 -188.5 64t-61.5 214q0 24 8 97.5t18 164.5q9 71 21.5 160t27.5 197t33 235h146q-16 -121 -28.5 -212t-22 -157t-15.5 -111t-10 -72.5t-6 -41.5q-12 -88 -18 -147t-6 -103q0 -90 38 -126t116 -36q68 0 142.5 46t141 115t110.5 137l94 708h144l-148 -1114
h-134l28 256q-84 -118 -199 -196t-231 -78zM714 -420q-81 0 -133.5 40.5t-52.5 95.5q0 59 35 109.5t92 94t121 80.5l76 44l44 -44q-91 -60 -157.5 -120.5t-66.5 -119.5q0 -36 21.5 -53t52.5 -17q41 0 79 15t75 43l38 -76q-40 -37 -93.5 -64.5t-130.5 -27.5z" />
    <glyph glyph-name="Wcircumflex" unicode="&#x174;" horiz-adv-x="1728" 
d="M372 -10l-226 1504h146l142 -1070l40 -262l84 254l344 858l-24 220h142l106 -1070l20 -262l96 254l432 1078h150l-632 -1504h-150l-88 840l-18 230l-82 -230l-332 -840h-150zM726 1630l-58 56l336 368h134l198 -368l-72 -52l-212 288z" />
    <glyph glyph-name="wcircumflex" unicode="&#x175;" horiz-adv-x="1594" 
d="M286 -12l-56 358l-114 768h162l82 -768l20 -232l178 232q50 66 95.5 157t79 180.5t47.5 150.5l-42 280h160l80 -768l22 -232l132 164q71 88 122 185.5t82.5 204t45.5 222.5q11 84 17.5 148t0.5 76h142q3 -27 3.5 -57.5t-1.5 -60.5q-12 -196 -76.5 -374t-174 -335
t-257.5 -291l-134 -8l-56 358l-28 240q-27 -105 -80.5 -196t-133.5 -185t-188 -209zM592 1240l-58 56l336 368h134l198 -368l-72 -52l-212 288z" />
    <glyph glyph-name="Ycircumflex" unicode="&#x176;" horiz-adv-x="1058" 
d="M392 0l74 572l-364 922h158l254 -694l40 -100l54 100l418 694h158l-578 -922l-72 -572h-142zM392 1630l-58 56l336 368h134l198 -368l-72 -52l-212 288z" />
    <glyph glyph-name="ycircumflex" unicode="&#x177;" horiz-adv-x="1024" 
d="M-48 -490q-36 0 -76 9t-72 21l42 120q23 -10 54 -21t76 -11q69 0 135.5 31t136 101t148.5 186h-92l-60 346l-124 822h160l106 -822l42 -294q32 56 64.5 110.5t63.5 109.5q75 125 129.5 254t87 257.5t41.5 252.5q2 27 2 52v80h142q3 -36 3.5 -69.5t-1.5 -62.5
q-7 -172 -80 -372t-180 -400q-50 -92 -115 -193t-135 -193t-136 -158q-61 -61 -153.5 -108.5t-208.5 -47.5zM306 1240l-58 56l336 368h134l198 -368l-72 -52l-212 288z" />
    <glyph glyph-name="Ydieresis" unicode="&#x178;" horiz-adv-x="1058" 
d="M392 0l74 572l-364 922h158l254 -694l40 -100l54 100l418 694h158l-578 -922l-72 -572h-142zM464 1634q-34 0 -59 25.5t-25 62.5q0 48 33.5 84t76.5 36q41 0 65.5 -23t24.5 -61q0 -52 -34 -88t-82 -36zM876 1634q-36 0 -60 25.5t-24 62.5q0 50 32 85t78 35q41 0 64.5 -23
t23.5 -61q0 -52 -33.5 -88t-80.5 -36z" />
    <glyph glyph-name="Zacute" unicode="&#x179;" horiz-adv-x="1130" 
d="M36 0l-22 68l804 1130l146 182l-726 -10l16 124h882l18 -64l-822 -1168l-122 -144l792 8l-20 -126h-946zM716 1634l-62 54l304 390l112 -102q-16 -25 -47.5 -62t-72.5 -79t-84 -82t-82.5 -71.5t-67.5 -47.5z" />
    <glyph glyph-name="zacute" unicode="&#x17a;" horiz-adv-x="940" 
d="M24 0l-44 44l606 774l164 180h-570l16 116h706l36 -40l-634 -810l-138 -148h626l-10 -116h-758zM548 1316l-62 54l304 390l112 -102q-16 -25 -47.5 -62t-72.5 -79t-84 -82t-82.5 -71.5t-67.5 -47.5z" />
    <glyph glyph-name="Zdotaccent" unicode="&#x17b;" horiz-adv-x="1130" 
d="M36 0l-22 68l804 1130l146 182l-726 -10l16 124h882l18 -64l-822 -1168l-122 -144l792 8l-20 -126h-946zM746 1634q-36 0 -60 25t-24 65q0 48 32.5 84t75.5 36q41 0 65.5 -24t24.5 -62q0 -49 -34.5 -86.5t-79.5 -37.5z" />
    <glyph glyph-name="zdotaccent" unicode="&#x17c;" horiz-adv-x="940" 
d="M24 0l-44 44l606 774l164 180h-570l16 116h706l36 -40l-634 -810l-138 -148h626l-10 -116h-758zM586 1310q-36 0 -60 25t-24 65q0 48 32.5 84t75.5 36q41 0 65.5 -24t24.5 -62q0 -49 -34.5 -86.5t-79.5 -37.5z" />
    <glyph glyph-name="Zcaron" unicode="&#x17d;" horiz-adv-x="1130" 
d="M36 0l-22 68l804 1130l146 182l-726 -10l16 124h882l18 -64l-822 -1168l-122 -144l792 8l-20 -126h-946zM686 1634l-236 322l66 64l242 -272l326 272l62 -64l-328 -322h-132z" />
    <glyph glyph-name="zcaron" unicode="&#x17e;" horiz-adv-x="940" 
d="M24 0l-44 44l606 774l164 180h-570l16 116h706l36 -40l-634 -810l-138 -148h626l-10 -116h-758zM520 1300l-236 322l66 64l242 -272l326 272l62 -64l-328 -322h-132z" />
    <glyph glyph-name="uni018F" unicode="&#x18f;" horiz-adv-x="1312" 
d="M580 -16q-121 0 -210 49.5t-147 134.5t-86.5 194.5t-28.5 229.5q0 86 13 135t17 67h1000l-14 -118h-866q-16 -136 2.5 -244t66 -182.5t118.5 -114t159 -39.5q121 0 213 64t154.5 172t94.5 241t32 271q0 181 -41 303t-140.5 183.5t-274.5 59.5q-90 -1 -178 -24.5
t-150 -55.5l-14 134q38 17 97 32t130 24.5t145 9.5q164 0 275.5 -51t178.5 -140.5t96.5 -204t29.5 -242.5q0 -178 -45.5 -338t-133 -284t-211.5 -195t-282 -71z" />
    <glyph glyph-name="florin" unicode="&#x192;" horiz-adv-x="1034" 
d="M250 -348l180 1344h-238l10 78l244 40l10 86q16 140 74.5 238t142 149t173.5 51q36 0 76.5 -3.5t71.5 -12.5l-8 -126q-27 14 -57.5 20t-86.5 6q-91 0 -156 -81.5t-80 -198.5l-16 -128h290l-10 -118h-294l-178 -1344h-148z" />
    <glyph glyph-name="Ohorn" unicode="&#x1a0;" horiz-adv-x="1346" 
d="M978 1342l16 114q107 0 166 28.5t85.5 70t32.5 81.5t6 62q0 17 -3 32.5t-5 21.5h140q2 -12 3 -22.5t1 -21.5q0 -106 -47 -188.5t-145 -130t-250 -47.5zM596 -16q-160 0 -266.5 86.5t-160 232t-53.5 321.5t48 335t138 283.5t216 196t282 71.5q122 0 212 -51t148.5 -140.5
t87 -204t28.5 -242.5q0 -178 -47 -338t-135.5 -284t-214 -195t-283.5 -71zM620 96q120 0 213.5 64t157.5 172t97.5 241t33.5 271q0 181 -38 303.5t-115 184.5t-193 62q-118 0 -212.5 -65t-160 -173.5t-100.5 -241.5t-35 -270q0 -271 91.5 -409.5t260.5 -138.5z" />
    <glyph glyph-name="ohorn" unicode="&#x1a1;" horiz-adv-x="1108" 
d="M470 -16q-123 0 -206 54.5t-125.5 158t-42.5 251.5q0 173 72 332q71 156 195.5 252t280.5 96q121 0 202.5 -54t122.5 -157t41 -251q0 -175 -68 -332q-69 -157 -192.5 -253.5t-279.5 -96.5zM494 94q89 0 156.5 51.5t114 135.5t70 185t23.5 200q0 113 -25 192t-77.5 120.5
t-135.5 41.5q-92 0 -162 -52t-117 -136.5t-71 -184.5t-24 -197q0 -172 62 -264t186 -92zM748 988l16 114q113 0 176 23.5t93 59.5t39.5 75t13.5 70q2 11 3 19.5t-1 14.5h140q2 -12 3 -22.5t1 -21.5q0 -106 -57.5 -180t-166 -113t-260.5 -39z" />
    <glyph glyph-name="Uhorn" unicode="&#x1af;" horiz-adv-x="1328" 
d="M588 -16q-214 0 -326 114.5t-112 325.5q0 24 3 63t9 93l116 914h146l-112 -890q-6 -46 -9 -89t-3 -81q0 -157 77 -243.5t231 -86.5q140 0 226 64t132 181t66 277l110 868h144l-112 -882q-15 -114 -40.5 -205.5t-61.5 -160.5q-73 -138 -192 -200t-292 -62zM1134 1376
l16 114q113 0 176 23.5t93 59.5t39.5 75t13.5 70q2 11 3 19.5t-1 14.5h140q2 -12 3 -22.5t1 -21.5q0 -106 -57.5 -180t-166 -113t-260.5 -39z" />
    <glyph glyph-name="uhorn" unicode="&#x1b0;" horiz-adv-x="1146" 
d="M360 -18q-127 0 -188.5 64t-61.5 214q0 24 8 97.5t18 164.5q9 71 21.5 160t27.5 197t33 235h146q-16 -121 -28.5 -212t-22 -157t-15.5 -111t-10 -72.5t-6 -41.5q-12 -88 -18 -147t-6 -103q0 -90 38 -126t116 -36q68 0 142.5 46t141 115t110.5 137l94 708h144l-148 -1114
h-134l28 256q-84 -118 -199 -196t-231 -78zM894 1000l16 114q113 0 176 23.5t93 59.5t39.5 75t13.5 70q2 11 3 19.5t-1 14.5h140q2 -12 3 -22.5t1 -21.5q0 -106 -57.5 -180t-166 -113t-260.5 -39z" />
    <glyph glyph-name="uni01B7" unicode="&#x1b7;" horiz-adv-x="1016" 
d="M332 -14q-88 -1 -141.5 5.5t-106.5 18.5l16 106q28 -6 65 -9.5t78.5 -5t82.5 -1.5q163 0 272 57t163.5 142.5t54.5 172.5q0 91 -47.5 159t-135.5 102t-211 23l-128 -90l16 146l480 462l140 110l-728 -8l16 118l846 2l-26 -156l-522 -488q124 12 224.5 -36t160 -133.5
t59.5 -184.5q0 -106 -39 -198t-117.5 -161.5t-196 -110t-275.5 -42.5z" />
    <glyph glyph-name="uni01C4" unicode="&#x1c4;" horiz-adv-x="2474" 
d="M510 -16q-57 2 -104 6t-97 7t-115 3h-76l188 1494h114q23 0 50 1.5t56 4t59.5 5t61 4t59.5 1.5q290 0 426 -166.5t136 -459.5q0 -188 -53.5 -353t-153 -289.5t-239 -193t-312.5 -64.5zM530 96q185 0 318 112q132 111 200 288.5t68 379.5q0 183 -46 300q-46 114 -145 169
t-261 55q-46 0 -102 -4.5t-124 -13.5l-158 -1260q74 -13 136 -19.5t114 -6.5zM1380 0l-22 68l804 1130l146 182l-726 -10l16 124h882l18 -64l-822 -1168l-122 -144l792 8l-20 -126h-946zM2030 1634l-236 322l66 64l242 -272l326 272l62 -64l-328 -322h-132z" />
    <glyph glyph-name="uni01C5" unicode="&#x1c5;" horiz-adv-x="2284" 
d="M510 -16q-57 2 -104 6t-97 7t-115 3h-76l188 1494h114q23 0 50 1.5t56 4t59.5 5t61 4t59.5 1.5q290 0 426 -166.5t136 -459.5q0 -188 -53.5 -353t-153 -289.5t-239 -193t-312.5 -64.5zM530 96q185 0 318 112q132 111 200 288.5t68 379.5q0 183 -46 300q-46 114 -145 169
t-261 55q-46 0 -102 -4.5t-124 -13.5l-158 -1260q74 -13 136 -19.5t114 -6.5zM1368 0l-44 44l606 774l164 180h-570l16 116h706l36 -40l-634 -810l-138 -148h626l-10 -116h-758zM1864 1300l-236 322l66 64l242 -272l326 272l62 -64l-328 -322h-132z" />
    <glyph glyph-name="uni01C6" unicode="&#x1c6;" horiz-adv-x="2062" 
d="M388 -16q-154 0 -232 113t-78 309q0 162 70 332q47 112 125.5 200t186 139t242.5 51q38 0 81.5 -6t92.5 -18l68 494h144l-218 -1598h-130l20 204q-41 -60 -99.5 -110t-128 -80t-144.5 -30zM414 98q56 0 108 22t98 59.5t85 83t67 91.5l88 634q-83 34 -180 34
q-143 0 -244 -92q-103 -93 -155.5 -232.5t-52.5 -273.5q0 -108 21.5 -180.5t63 -109t101.5 -36.5zM1146 0l-44 44l606 774l164 180h-570l16 116h706l36 -40l-634 -810l-138 -148h626l-10 -116h-758zM1642 1300l-236 322l66 64l242 -272l326 272l62 -64l-328 -322h-132z" />
    <glyph glyph-name="uni01C7" unicode="&#x1c7;" horiz-adv-x="1566" 
d="M118 0l188 1494h148l-174 -1370l580 2l-16 -126h-726zM858 -316l-28 66q64 18 118 50.5t96.5 76t71 96.5t40.5 111q15 69 28 143t27 173.5t31.5 244t40.5 351.5t55 498h148l-110 -922q-28 -214 -47.5 -338.5t-30.5 -159.5q-34 -115 -91.5 -193.5t-143.5 -126.5t-205 -70z
" />
    <glyph glyph-name="uni01C8" unicode="&#x1c8;" horiz-adv-x="1518" 
d="M118 0l188 1494h148l-174 -1370l580 2l-16 -126h-726zM850 -502q-43 0 -77.5 10t-54.5 26l38 84q11 -7 33 -13.5t41 -6.5q71 0 118 36.5t76.5 100t47.5 146.5t30 177l142 1060h146l-150 -1114q-21 -161 -73 -274t-132 -172.5t-185 -59.5zM1354 1310q-36 0 -60 25t-24 65
q0 48 32.5 84t75.5 36q41 0 65.5 -24t24.5 -62q0 -49 -34.5 -86.5t-79.5 -37.5z" />
    <glyph glyph-name="uni01C9" unicode="&#x1c9;" horiz-adv-x="1112" 
d="M130 2l218 1596h144l-216 -1596h-146zM444 -502q-43 0 -77.5 10t-54.5 26l38 84q11 -7 33 -13.5t41 -6.5q71 0 118 36.5t76.5 100t47.5 146.5t30 177l142 1060h146l-150 -1114q-21 -161 -73 -274t-132 -172.5t-185 -59.5zM948 1310q-36 0 -60 25t-24 65q0 48 32.5 84
t75.5 36q41 0 65.5 -24t24.5 -62q0 -49 -34.5 -86.5t-79.5 -37.5z" />
    <glyph glyph-name="uni01CA" unicode="&#x1ca;" horiz-adv-x="1940" 
d="M118 0l188 1494h154l480 -1100l70 -202l22 232l130 1070h140l-188 -1494h-146l-482 1096l-70 234l-30 -282l-130 -1048h-138zM1232 -316l-28 66q64 18 118 50.5t96.5 76t71 96.5t40.5 111q15 69 28 143t27 173.5t31.5 244t40.5 351.5t55 498h148l-110 -922
q-28 -214 -47.5 -338.5t-30.5 -159.5q-34 -115 -91.5 -193.5t-143.5 -126.5t-205 -70z" />
    <glyph glyph-name="uni01CB" unicode="&#x1cb;" horiz-adv-x="1932" 
d="M118 0l188 1494h154l480 -1100l70 -202l22 232l130 1070h140l-188 -1494h-146l-482 1096l-70 234l-30 -282l-130 -1048h-138zM1264 -502q-43 0 -77.5 10t-54.5 26l38 84q11 -7 33 -13.5t41 -6.5q71 0 118 36.5t76.5 100t47.5 146.5t30 177l142 1060h146l-150 -1114
q-21 -161 -73 -274t-132 -172.5t-185 -59.5zM1768 1310q-36 0 -60 25t-24 65q0 48 32.5 84t75.5 36q41 0 65.5 -24t24.5 -62q0 -49 -34.5 -86.5t-79.5 -37.5z" />
    <glyph glyph-name="uni01CC" unicode="&#x1cc;" horiz-adv-x="1728" 
d="M90 0l152 1114h136l-28 -260q95 119 218.5 196.5t241.5 77.5q119 0 172.5 -66t53.5 -206q0 -32 -5 -80.5t-14.5 -116.5t-22.5 -159q-3 -19 -7 -44t-9.5 -61.5t-13.5 -90t-19 -128.5t-27 -176h-144q5 35 13 92.5t22.5 155t38.5 252.5q20 138 30 215.5t10 126.5
q0 83 -30.5 117.5t-107.5 34.5q-53 0 -112.5 -27.5t-117.5 -72t-107.5 -96t-82.5 -98.5l-94 -700h-146zM1060 -502q-43 0 -77.5 10t-54.5 26l38 84q11 -7 33 -13.5t41 -6.5q71 0 118 36.5t76.5 100t47.5 146.5t30 177l142 1060h146l-150 -1114q-21 -161 -73 -274
t-132 -172.5t-185 -59.5zM1564 1310q-36 0 -60 25t-24 65q0 48 32.5 84t75.5 36q41 0 65.5 -24t24.5 -62q0 -49 -34.5 -86.5t-79.5 -37.5z" />
    <glyph glyph-name="uni01CD" unicode="&#x1cd;" horiz-adv-x="1236" 
d="M-48 0l726 1494h164l284 -1494h-148l-74 420h-600l-196 -420h-156zM358 534h526l-126 716l-14 112l-54 -116zM698 1634l-236 322l66 64l242 -272l326 272l62 -64l-328 -322h-132z" />
    <glyph glyph-name="uni01CE" unicode="&#x1ce;" horiz-adv-x="1104" 
d="M390 -16q-154 0 -232 113t-78 309q0 145 43.5 275t125 230.5t195.5 158.5t254 58q47 0 103 -8.5t105 -25.5l110 34l-152 -1128h-128l18 198q-61 -87 -157.5 -150.5t-206.5 -63.5zM414 98q56 0 108.5 23t99 62t84.5 86t66 95l82 620q-79 38 -180 38q-141 0 -240 -90
q-100 -91 -152 -230.5t-52 -279.5q0 -108 21 -180t62 -108t101 -36zM648 1300l-236 322l66 64l242 -272l326 272l62 -64l-328 -322h-132z" />
    <glyph glyph-name="uni01CF" unicode="&#x1cf;" horiz-adv-x="558" 
d="M142 0l188 1494h148l-188 -1494h-148zM364 1634l-236 322l66 64l242 -272l326 272l62 -64l-328 -322h-132z" />
    <glyph glyph-name="uni01D0" unicode="&#x1d0;" horiz-adv-x="550" 
d="M130 0l150 1118h146l-152 -1118h-144zM314 1300l-236 322l66 64l242 -272l326 272l62 -64l-328 -322h-132z" />
    <glyph glyph-name="uni01D1" unicode="&#x1d1;" horiz-adv-x="1336" 
d="M596 -16q-160 0 -266.5 86.5t-160 232t-53.5 321.5t48 335t138 283.5t216 196t282 71.5q122 0 212 -51t148.5 -140.5t87 -204t28.5 -242.5q0 -178 -47 -338t-135.5 -284t-214 -195t-283.5 -71zM620 96q120 0 213.5 64t157.5 172t97.5 241t33.5 271q0 181 -38 303.5
t-115 184.5t-193 62q-118 0 -212.5 -65t-160 -173.5t-100.5 -241.5t-35 -270q0 -271 91.5 -409.5t260.5 -138.5zM766 1634l-236 322l66 64l242 -272l326 272l62 -64l-328 -322h-132z" />
    <glyph glyph-name="uni01D2" unicode="&#x1d2;" horiz-adv-x="1108" 
d="M470 -16q-123 0 -206 54.5t-125.5 158t-42.5 251.5q0 173 72 332q71 156 195.5 252t280.5 96q121 0 202.5 -54t122.5 -157t41 -251q0 -175 -68 -332q-69 -157 -192.5 -253.5t-279.5 -96.5zM494 94q89 0 156.5 51.5t114 135.5t70 185t23.5 200q0 113 -25 192t-77.5 120.5
t-135.5 41.5q-92 0 -162 -52t-117 -136.5t-71 -184.5t-24 -197q0 -172 62 -264t186 -92zM616 1300l-236 322l66 64l242 -272l326 272l62 -64l-328 -322h-132z" />
    <glyph glyph-name="uni01D3" unicode="&#x1d3;" horiz-adv-x="1328" 
d="M588 -16q-214 0 -326 114.5t-112 325.5q0 24 3 63t9 93l116 914h146l-112 -890q-6 -46 -9 -89t-3 -81q0 -157 77 -243.5t231 -86.5q140 0 226 64t132 181t66 277l110 868h144l-112 -882q-15 -114 -40.5 -205.5t-61.5 -160.5q-73 -138 -192 -200t-292 -62zM724 1634
l-236 322l66 64l242 -272l326 272l62 -64l-328 -322h-132z" />
    <glyph glyph-name="uni01D4" unicode="&#x1d4;" horiz-adv-x="1146" 
d="M360 -18q-127 0 -188.5 64t-61.5 214q0 24 8 97.5t18 164.5q9 71 21.5 160t27.5 197t33 235h146q-16 -121 -28.5 -212t-22 -157t-15.5 -111t-10 -72.5t-6 -41.5q-12 -88 -18 -147t-6 -103q0 -90 38 -126t116 -36q68 0 142.5 46t141 115t110.5 137l94 708h144l-148 -1114
h-134l28 256q-84 -118 -199 -196t-231 -78zM582 1300l-236 322l66 64l242 -272l326 272l62 -64l-328 -322h-132z" />
    <glyph glyph-name="uni01D5" unicode="&#x1d5;" horiz-adv-x="1328" 
d="M588 -16q-214 0 -326 114.5t-112 325.5q0 24 3 63t9 93l116 914h146l-112 -890q-6 -46 -9 -89t-3 -81q0 -157 77 -243.5t231 -86.5q140 0 226 64t132 181t66 277l110 868h144l-112 -882q-15 -114 -40.5 -205.5t-61.5 -160.5q-73 -138 -192 -200t-292 -62zM578 1634
q-34 0 -59 25.5t-25 62.5q0 48 33.5 84t76.5 36q41 0 65.5 -23t24.5 -61q0 -52 -34 -88t-82 -36zM990 1634q-36 0 -60 25.5t-24 62.5q0 50 32 85t78 35q41 0 64.5 -23t23.5 -61q0 -52 -33.5 -88t-80.5 -36zM598 2020l4 112h500l-4 -112h-500z" />
    <glyph glyph-name="uni01D6" unicode="&#x1d6;" horiz-adv-x="1146" 
d="M360 -18q-127 0 -188.5 64t-61.5 214q0 24 8 97.5t18 164.5q9 71 21.5 160t27.5 197t33 235h146q-16 -121 -28.5 -212t-22 -157t-15.5 -111t-10 -72.5t-6 -41.5q-12 -88 -18 -147t-6 -103q0 -90 38 -126t116 -36q68 0 142.5 46t141 115t110.5 137l94 708h144l-148 -1114
h-134l28 256q-84 -118 -199 -196t-231 -78zM432 1324q-34 0 -59 25.5t-25 62.5q0 48 33.5 84t76.5 36q41 0 65.5 -23t24.5 -61q0 -52 -34 -88t-82 -36zM844 1324q-36 0 -60 25.5t-24 62.5q0 50 32 85t78 35q41 0 64.5 -23t23.5 -61q0 -52 -33.5 -88t-80.5 -36zM446 1678
l12 112h500l-12 -112h-500z" />
    <glyph glyph-name="uni01D7" unicode="&#x1d7;" horiz-adv-x="1328" 
d="M588 -16q-214 0 -326 114.5t-112 325.5q0 24 3 63t9 93l116 914h146l-112 -890q-6 -46 -9 -89t-3 -81q0 -157 77 -243.5t231 -86.5q140 0 226 64t132 181t66 277l110 868h144l-112 -882q-15 -114 -40.5 -205.5t-61.5 -160.5q-73 -138 -192 -200t-292 -62zM578 1634
q-34 0 -59 25.5t-25 62.5q0 48 33.5 84t76.5 36q41 0 65.5 -23t24.5 -61q0 -52 -34 -88t-82 -36zM990 1634q-36 0 -60 25.5t-24 62.5q0 50 32 85t78 35q41 0 64.5 -23t23.5 -61q0 -52 -33.5 -88t-80.5 -36zM800 1978l-62 54l304 390l112 -102q-16 -25 -47.5 -62t-72.5 -79
t-84 -82t-82.5 -71.5t-67.5 -47.5z" />
    <glyph glyph-name="uni01D8" unicode="&#x1d8;" horiz-adv-x="1146" 
d="M360 -18q-127 0 -188.5 64t-61.5 214q0 24 8 97.5t18 164.5q9 71 21.5 160t27.5 197t33 235h146q-16 -121 -28.5 -212t-22 -157t-15.5 -111t-10 -72.5t-6 -41.5q-12 -88 -18 -147t-6 -103q0 -90 38 -126t116 -36q68 0 142.5 46t141 115t110.5 137l94 708h144l-148 -1114
h-134l28 256q-84 -118 -199 -196t-231 -78zM432 1324q-34 0 -59 25.5t-25 62.5q0 48 33.5 84t76.5 36q41 0 65.5 -23t24.5 -61q0 -52 -34 -88t-82 -36zM844 1324q-36 0 -60 25.5t-24 62.5q0 50 32 85t78 35q41 0 64.5 -23t23.5 -61q0 -52 -33.5 -88t-80.5 -36zM656 1662
l-62 54l304 390l112 -102q-16 -25 -47.5 -62t-72.5 -79t-84 -82t-82.5 -71.5t-67.5 -47.5z" />
    <glyph glyph-name="uni01D9" unicode="&#x1d9;" horiz-adv-x="1328" 
d="M588 -16q-214 0 -326 114.5t-112 325.5q0 24 3 63t9 93l116 914h146l-112 -890q-6 -46 -9 -89t-3 -81q0 -157 77 -243.5t231 -86.5q140 0 226 64t132 181t66 277l110 868h144l-112 -882q-15 -114 -40.5 -205.5t-61.5 -160.5q-73 -138 -192 -200t-292 -62zM578 1634
q-34 0 -59 25.5t-25 62.5q0 48 33.5 84t76.5 36q41 0 65.5 -23t24.5 -61q0 -52 -34 -88t-82 -36zM990 1634q-36 0 -60 25.5t-24 62.5q0 50 32 85t78 35q41 0 64.5 -23t23.5 -61q0 -52 -33.5 -88t-80.5 -36zM770 1978l-236 322l66 64l242 -272l326 272l62 -64l-328 -322h-132
z" />
    <glyph glyph-name="uni01DA" unicode="&#x1da;" horiz-adv-x="1146" 
d="M360 -18q-127 0 -188.5 64t-61.5 214q0 24 8 97.5t18 164.5q9 71 21.5 160t27.5 197t33 235h146q-16 -121 -28.5 -212t-22 -157t-15.5 -111t-10 -72.5t-6 -41.5q-12 -88 -18 -147t-6 -103q0 -90 38 -126t116 -36q68 0 142.5 46t141 115t110.5 137l94 708h144l-148 -1114
h-134l28 256q-84 -118 -199 -196t-231 -78zM432 1324q-34 0 -59 25.5t-25 62.5q0 48 33.5 84t76.5 36q41 0 65.5 -23t24.5 -61q0 -52 -34 -88t-82 -36zM844 1324q-36 0 -60 25.5t-24 62.5q0 50 32 85t78 35q41 0 64.5 -23t23.5 -61q0 -52 -33.5 -88t-80.5 -36zM628 1646
l-236 322l66 64l242 -272l326 272l62 -64l-328 -322h-132z" />
    <glyph glyph-name="uni01DB" unicode="&#x1db;" horiz-adv-x="1328" 
d="M588 -16q-214 0 -326 114.5t-112 325.5q0 24 3 63t9 93l116 914h146l-112 -890q-6 -46 -9 -89t-3 -81q0 -157 77 -243.5t231 -86.5q140 0 226 64t132 181t66 277l110 868h144l-112 -882q-15 -114 -40.5 -205.5t-61.5 -160.5q-73 -138 -192 -200t-292 -62zM578 1634
q-34 0 -59 25.5t-25 62.5q0 48 33.5 84t76.5 36q41 0 65.5 -23t24.5 -61q0 -52 -34 -88t-82 -36zM990 1634q-36 0 -60 25.5t-24 62.5q0 50 32 85t78 35q41 0 64.5 -23t23.5 -61q0 -52 -33.5 -88t-80.5 -36zM930 1978q-39 29 -87.5 71t-97 90.5t-89.5 95t-64 83.5l114 102
l288 -388z" />
    <glyph glyph-name="uni01DC" unicode="&#x1dc;" horiz-adv-x="1146" 
d="M360 -18q-127 0 -188.5 64t-61.5 214q0 24 8 97.5t18 164.5q9 71 21.5 160t27.5 197t33 235h146q-16 -121 -28.5 -212t-22 -157t-15.5 -111t-10 -72.5t-6 -41.5q-12 -88 -18 -147t-6 -103q0 -90 38 -126t116 -36q68 0 142.5 46t141 115t110.5 137l94 708h144l-148 -1114
h-134l28 256q-84 -118 -199 -196t-231 -78zM432 1324q-34 0 -59 25.5t-25 62.5q0 48 33.5 84t76.5 36q41 0 65.5 -23t24.5 -61q0 -52 -34 -88t-82 -36zM844 1324q-36 0 -60 25.5t-24 62.5q0 50 32 85t78 35q41 0 64.5 -23t23.5 -61q0 -52 -33.5 -88t-80.5 -36zM804 1662
q-39 29 -87.5 71t-97 90.5t-89.5 95t-64 83.5l114 102l288 -388z" />
    <glyph glyph-name="Gcaron" unicode="&#x1e6;" horiz-adv-x="1308" 
d="M602 -16q-165 0 -276 90q-109 90 -161.5 233t-54.5 305q-6 259 88 468q95 204 260.5 317t367.5 113q56 0 103 -3.5t92 -11.5t93 -20.5t104 -30.5l-48 -134q-36 21 -86.5 39.5t-115.5 29.5t-144 11q-179 0 -308 -108q-127 -109 -192.5 -281.5t-65.5 -360.5
q0 -145 39 -268.5t120.5 -198.5t210.5 -75q78 0 173 24t191 60l50 410l-274 2l16 118h420l-80 -620q-31 -4 -64.5 -13t-101.5 -29q-100 -30 -182 -48t-174 -18zM734 1634l-236 322l66 64l242 -272l326 272l62 -64l-328 -322h-132z" />
    <glyph glyph-name="gcaron" unicode="&#x1e7;" horiz-adv-x="1122" 
d="M362 -494q-43 0 -93.5 5.5t-93.5 13.5t-63 17l38 122q29 -13 68 -23.5t83 -16.5t89 -6q134 0 216 75t106 217l48 294q-61 -90 -160 -155t-212 -65q-154 0 -232 113t-78 309q0 162 70 332q47 112 125.5 200t186 139t242.5 51q48 0 107 -10t107 -24l114 34l-172 -1214
q-10 -73 -34.5 -132t-63.5 -106q-79 -90 -184.5 -130t-213.5 -40zM414 98q53 0 104.5 22t98 58.5t86 81t67.5 90.5l94 636q-40 17 -88.5 26.5t-95.5 9.5q-141 0 -244 -94t-155.5 -232t-52.5 -272q0 -108 21.5 -180.5t63 -109t101.5 -36.5zM664 1300l-236 322l66 64l242 -272
l326 272l62 -64l-328 -322h-132z" />
    <glyph glyph-name="uni01EA" unicode="&#x1ea;" horiz-adv-x="1336" 
d="M596 -16q-160 0 -266.5 86.5t-160 232t-53.5 321.5t48 335t138 283.5t216 196t282 71.5q122 0 212 -51t148.5 -140.5t87 -204t28.5 -242.5q0 -178 -47 -338t-135.5 -284t-214 -195t-283.5 -71zM620 96q120 0 213.5 64t157.5 172t97.5 241t33.5 271q0 181 -38 303.5
t-115 184.5t-193 62q-118 0 -212.5 -65t-160 -173.5t-100.5 -241.5t-35 -270q0 -271 91.5 -409.5t260.5 -138.5zM532 -412q-81 0 -133.5 40.5t-52.5 95.5q0 44 19.5 82.5t55 72t83.5 63.5t106 58l77 37l43 -37q-91 -60 -157.5 -112.5t-66.5 -111.5q0 -36 21.5 -57t52.5 -21
q41 0 71 15t67 43l38 -76q-27 -25 -59.5 -46t-73 -33.5t-91.5 -12.5z" />
    <glyph glyph-name="uni01EB" unicode="&#x1eb;" horiz-adv-x="1108" 
d="M470 -16q-123 0 -206 54.5t-125.5 158t-42.5 251.5q0 173 72 332q71 156 195.5 252t280.5 96q121 0 202.5 -54t122.5 -157t41 -251q0 -175 -68 -332q-69 -157 -192.5 -253.5t-279.5 -96.5zM494 94q89 0 156.5 51.5t114 135.5t70 185t23.5 200q0 113 -25 192t-77.5 120.5
t-135.5 41.5q-92 0 -162 -52t-117 -136.5t-71 -184.5t-24 -197q0 -172 62 -264t186 -92zM405 -420q-81 0 -133.5 40.5t-52.5 95.5q0 59 35 109.5t92 94t121 80.5l76 44l44 -44q-91 -60 -157.5 -120.5t-66.5 -119.5q0 -36 21.5 -53t52.5 -17q41 0 79 15t75 43l38 -76
q-40 -37 -93.5 -64.5t-130.5 -27.5z" />
    <glyph glyph-name="uni01EE" unicode="&#x1ee;" horiz-adv-x="1016" 
d="M332 -14q-88 -1 -141.5 5.5t-106.5 18.5l16 106q28 -6 65 -9.5t78.5 -5t82.5 -1.5q163 0 272 57t163.5 142.5t54.5 172.5q0 91 -47.5 159t-135.5 102t-211 23l-128 -90l16 146l480 462l140 110l-728 -8l16 118l846 2l-26 -156l-522 -488q124 12 224.5 -36t160 -133.5
t59.5 -184.5q0 -106 -39 -198t-117.5 -161.5t-196 -110t-275.5 -42.5zM630 1634l-236 322l66 64l242 -272l326 272l62 -64l-328 -322h-132z" />
    <glyph glyph-name="uni01EF" unicode="&#x1ef;" horiz-adv-x="900" 
d="M190 -294q-52 0 -101 3.5t-99 4.5l14 114q42 -7 82.5 -8.5t89.5 -1.5q136 0 241 43t165 124t60 195q0 129 -76 183t-198 45l-86 74l258 324l170 192h-570l18 116h702l32 -62l-442 -550q79 0 142.5 -22.5t109 -63t70 -95t24.5 -119.5q0 -148 -77.5 -259.5t-214 -174
t-314.5 -62.5zM480 1300l-236 322l66 64l242 -272l326 272l62 -64l-328 -322h-132z" />
    <glyph glyph-name="uni01F1" unicode="&#x1f1;" horiz-adv-x="2474" 
d="M510 -16q-57 2 -104 6t-97 7t-115 3h-76l188 1494h114q23 0 50 1.5t56 4t59.5 5t61 4t59.5 1.5q290 0 426 -166.5t136 -459.5q0 -188 -53.5 -353t-153 -289.5t-239 -193t-312.5 -64.5zM530 96q185 0 318 112q132 111 200 288.5t68 379.5q0 183 -46 300q-46 114 -145 169
t-261 55q-46 0 -102 -4.5t-124 -13.5l-158 -1260q74 -13 136 -19.5t114 -6.5zM1380 0l-22 68l804 1130l146 182l-726 -10l16 124h882l18 -64l-822 -1168l-122 -144l792 8l-20 -126h-946z" />
    <glyph glyph-name="uni01F2" unicode="&#x1f2;" horiz-adv-x="2284" 
d="M510 -16q-57 2 -104 6t-97 7t-115 3h-76l188 1494h114q23 0 50 1.5t56 4t59.5 5t61 4t59.5 1.5q290 0 426 -166.5t136 -459.5q0 -188 -53.5 -353t-153 -289.5t-239 -193t-312.5 -64.5zM530 96q185 0 318 112q132 111 200 288.5t68 379.5q0 183 -46 300q-46 114 -145 169
t-261 55q-46 0 -102 -4.5t-124 -13.5l-158 -1260q74 -13 136 -19.5t114 -6.5zM1368 0l-44 44l606 774l164 180h-570l16 116h706l36 -40l-634 -810l-138 -148h626l-10 -116h-758z" />
    <glyph glyph-name="uni01F3" unicode="&#x1f3;" horiz-adv-x="2062" 
d="M388 -16q-154 0 -232 113t-78 309q0 162 70 332q47 112 125.5 200t186 139t242.5 51q38 0 81.5 -6t92.5 -18l68 494h144l-218 -1598h-130l20 204q-41 -60 -99.5 -110t-128 -80t-144.5 -30zM414 98q56 0 108 22t98 59.5t85 83t67 91.5l88 634q-83 34 -180 34
q-143 0 -244 -92q-103 -93 -155.5 -232.5t-52.5 -273.5q0 -108 21.5 -180.5t63 -109t101.5 -36.5zM1146 0l-44 44l606 774l164 180h-570l16 116h706l36 -40l-634 -810l-138 -148h626l-10 -116h-758z" />
    <glyph glyph-name="Aringacute" unicode="&#x1fa;" horiz-adv-x="1236" 
d="M-48 0l726 1494h164l284 -1494h-148l-74 420h-600l-196 -420h-156zM358 534h526l-126 716l-14 112l-54 -116zM766 1634q-130 0 -202 64t-72 178q0 86 50 148q50 60 127.5 91t156.5 31q122 0 193 -65t71 -179q0 -89 -44 -148q-45 -60 -118 -90t-162 -30zM772 1716
q92 0 152 46t60 152q0 68 -46 109t-124 41q-88 0 -152 -46t-64 -148q0 -67 49.5 -110.5t124.5 -43.5zM792 2092l-62 54l304 390l112 -102q-16 -25 -47.5 -62t-72.5 -79t-84 -82t-82.5 -71.5t-67.5 -47.5z" />
    <glyph glyph-name="aringacute" unicode="&#x1fb;" horiz-adv-x="1104" 
d="M390 -16q-154 0 -232 113t-78 309q0 145 43.5 275t125 230.5t195.5 158.5t254 58q47 0 103 -8.5t105 -25.5l110 34l-152 -1128h-128l18 198q-61 -87 -157.5 -150.5t-206.5 -63.5zM414 98q56 0 108.5 23t99 62t84.5 86t66 95l82 620q-79 38 -180 38q-141 0 -240 -90
q-100 -91 -152 -230.5t-52 -279.5q0 -108 21 -180t62 -108t101 -36zM706 1228q-130 0 -202 64t-72 178q0 86 50 148q50 60 127.5 91t156.5 31q122 0 193 -65t71 -179q0 -89 -44 -148q-45 -60 -118 -90t-162 -30zM712 1310q92 0 152 46t60 152q0 68 -46 109t-124 41
q-88 0 -152 -46t-64 -148q0 -67 49.5 -110.5t124.5 -43.5zM842 1672l-62 54l304 390l112 -102q-16 -25 -47.5 -62t-72.5 -79t-84 -82t-82.5 -71.5t-67.5 -47.5z" />
    <glyph glyph-name="AEacute" unicode="&#x1fc;" horiz-adv-x="1740" 
d="M-104 0l786 1402l-290 16l10 76h1274l-6 -118l-598 8l-72 -566l462 6l-8 -124l-468 10l-76 -598l720 12l-10 -124h-870l56 448h-506l-246 -448h-158zM362 562h460l102 824l-108 6zM980 1634l-62 54l304 390l112 -102q-16 -25 -47.5 -62t-72.5 -79t-84 -82t-82.5 -71.5
t-67.5 -47.5z" />
    <glyph glyph-name="aeacute" unicode="&#x1fd;" horiz-adv-x="1586" 
d="M350 -16q-135 0 -202.5 105.5t-67.5 316.5q0 145 43.5 275t125 230.5t195.5 158.5t254 58q72 0 137.5 -14.5t138.5 -61.5q125 76 270 76q101 0 160.5 -37.5t85.5 -93.5t26 -113q0 -107 -64.5 -189t-169 -138.5t-226.5 -87.5t-236 -37q-9 -87 17 -163t83.5 -122.5
t143.5 -46.5q55 0 112.5 18.5t115 55.5t112.5 92l42 -84q-22 -31 -68 -65.5t-104 -64.5t-118 -49t-110 -19q-145 0 -235 76t-125 200q-60 -118 -144 -197t-192 -79zM382 98q40 0 77 20.5t72.5 57.5t69.5 87.5t67 110.5q-10 60 2 141t41 167t70.5 161.5t90.5 124.5
q-102 54 -198 54q-106 0 -189 -52.5t-139.5 -139.5t-86 -193.5t-29.5 -214.5q0 -87 12.5 -161t45.5 -118.5t94 -44.5zM826 538q88 2 183 27t177 69t133 104.5t51 133.5q0 74 -40.5 110t-117.5 36q-52 0 -99 -17.5t-89 -52.5q-85 -72 -136 -184t-62 -226zM860 1316l-62 54
l304 390l112 -102q-16 -25 -47.5 -62t-72.5 -79t-84 -82t-82.5 -71.5t-67.5 -47.5z" />
    <glyph glyph-name="Oslashacute" unicode="&#x1fe;" horiz-adv-x="1346" 
d="M122 -120l-68 38l174 256q-60 84 -89 200.5t-29 249.5q0 250 90 454q90 203 246 318.5t348 115.5q165 0 278 -98l140 206l70 -36l-156 -228q72 -85 108 -210t36 -274q0 -249 -86 -448q-87 -204 -242 -322t-352 -118q-94 0 -173 33.5t-139 94.5zM614 98q142 0 260 100
q114 101 178 272.5t64 375.5q0 252 -76 392l-676 -1018q89 -122 250 -122zM320 296l672 1010q-85 88 -222 88q-143 0 -260 -102q-115 -102 -181.5 -274t-66.5 -372q0 -213 58 -350zM784 1634l-62 54l304 390l112 -102q-16 -25 -47.5 -62t-72.5 -79t-84 -82t-82.5 -71.5
t-67.5 -47.5z" />
    <glyph glyph-name="oslashacute" unicode="&#x1ff;" horiz-adv-x="1108" 
d="M124 -124l-68 38l166 242l48 44l498 792l38 42l152 234l68 -38l-152 -232l-44 -52l-516 -814l-44 -42zM470 -16q-123 0 -206 54.5t-125.5 158t-42.5 251.5q0 173 72 332q71 156 195.5 252t280.5 96q121 0 202.5 -54t122.5 -157t41 -251q0 -175 -68 -332
q-69 -157 -192.5 -253.5t-279.5 -96.5zM494 94q89 0 156.5 51.5t114 135.5t70 185t23.5 200q0 113 -25 192t-77.5 120.5t-135.5 41.5q-92 0 -162 -52t-117 -136.5t-71 -184.5t-24 -197q0 -172 62 -264t186 -92zM644 1316l-62 54l304 390l112 -102q-16 -25 -47.5 -62
t-72.5 -79t-84 -82t-82.5 -71.5t-67.5 -47.5z" />
    <glyph glyph-name="uni0200" unicode="&#x200;" horiz-adv-x="1236" 
d="M-48 0l726 1494h164l284 -1494h-148l-74 420h-600l-196 -420h-156zM358 534h526l-126 716l-14 112l-54 -116zM566 1654q-30 24 -71 70.5t-83 101.5t-75.5 105.5t-48.5 82.5l106 86l244 -404zM984 1654q-32 26 -70.5 69t-77.5 94.5t-71.5 102.5t-52.5 94l110 86l232 -404z
" />
    <glyph glyph-name="uni0201" unicode="&#x201;" horiz-adv-x="1104" 
d="M390 -16q-154 0 -232 113t-78 309q0 145 43.5 275t125 230.5t195.5 158.5t254 58q47 0 103 -8.5t105 -25.5l110 34l-152 -1128h-128l18 198q-61 -87 -157.5 -150.5t-206.5 -63.5zM414 98q56 0 108.5 23t99 62t84.5 86t66 95l82 620q-79 38 -180 38q-141 0 -240 -90
q-100 -91 -152 -230.5t-52 -279.5q0 -108 21 -180t62 -108t101 -36zM532 1280q-30 24 -71 70.5t-83 101.5t-75.5 105.5t-48.5 82.5l98 72l244 -394zM950 1280q-32 26 -70.5 69t-77.5 94.5t-71.5 102.5t-52.5 94l102 72l232 -394z" />
    <glyph glyph-name="uni0202" unicode="&#x202;" horiz-adv-x="1236" 
d="M-48 0l726 1494h164l284 -1494h-148l-74 420h-600l-196 -420h-156zM358 534h526l-126 716l-14 112l-54 -116zM796 1970q87 0 157 -48.5t107 -125.5t24 -162h-100q0 92 -50 159t-142 67q-64 0 -111.5 -34.5t-76 -86.5t-36.5 -105h-98q0 94 46 170t120.5 121t159.5 45z" />
    <glyph glyph-name="uni0203" unicode="&#x203;" horiz-adv-x="1104" 
d="M390 -16q-154 0 -232 113t-78 309q0 145 43.5 275t125 230.5t195.5 158.5t254 58q47 0 103 -8.5t105 -25.5l110 34l-152 -1128h-128l18 198q-61 -87 -157.5 -150.5t-206.5 -63.5zM414 98q56 0 108.5 23t99 62t84.5 86t66 95l82 620q-79 38 -180 38q-141 0 -240 -90
q-100 -91 -152 -230.5t-52 -279.5q0 -108 21 -180t62 -108t101 -36zM714 1632q87 0 157 -48.5t107 -125.5t24 -162h-100q0 92 -50 159t-142 67q-64 0 -111.5 -34.5t-76 -86.5t-36.5 -105h-98q0 94 46 170t120.5 121t159.5 45z" />
    <glyph glyph-name="uni0204" unicode="&#x204;" horiz-adv-x="1112" 
d="M118 0l188 1494h738l-4 -118l-600 8l-72 -566l464 6l-10 -124l-468 10l-76 -598l720 12l-10 -124h-870zM520 1654q-30 24 -71 70.5t-83 101.5t-75.5 105.5t-48.5 82.5l106 86l244 -404zM938 1654q-32 26 -70.5 69t-77.5 94.5t-71.5 102.5t-52.5 94l110 86l232 -404z" />
    <glyph glyph-name="uni0205" unicode="&#x205;" horiz-adv-x="1006" 
d="M468 -16q-132 0 -220 64q-85 65 -124.5 166t-35.5 216q3 193 80 356q75 159 204 250.5t292 91.5q73 0 135 -29t99.5 -83.5t37.5 -131.5q0 -100 -58 -178t-157 -134.5t-223 -91t-256 -48.5q-1 -4 -1.5 -12.5t-0.5 -19.5q0 -126 56 -213t188 -87q55 0 113.5 18.5t116 55.5
t110.5 92l42 -84q-22 -31 -68 -65.5t-104 -64.5t-117 -49t-109 -19zM246 538q87 2 182 26.5t178 68.5t134.5 104.5t51.5 134.5t-41.5 110t-118.5 36q-51 0 -97.5 -17.5t-88.5 -52.5q-85 -72 -137 -184t-63 -226zM506 1280q-30 24 -71 70.5t-83 101.5t-75.5 105.5t-48.5 82.5
l98 72l244 -394zM924 1280q-32 26 -70.5 69t-77.5 94.5t-71.5 102.5t-52.5 94l102 72l232 -394z" />
    <glyph glyph-name="uni0206" unicode="&#x206;" horiz-adv-x="1112" 
d="M118 0l188 1494h738l-4 -118l-600 8l-72 -566l464 6l-10 -124l-468 10l-76 -598l720 12l-10 -124h-870zM750 1970q87 0 157 -48.5t107 -125.5t24 -162h-100q0 92 -50 159t-142 67q-64 0 -111.5 -34.5t-76 -86.5t-36.5 -105h-98q0 94 46 170t120.5 121t159.5 45z" />
    <glyph glyph-name="uni0207" unicode="&#x207;" horiz-adv-x="1006" 
d="M468 -16q-132 0 -220 64q-85 65 -124.5 166t-35.5 216q3 193 80 356q75 159 204 250.5t292 91.5q73 0 135 -29t99.5 -83.5t37.5 -131.5q0 -100 -58 -178t-157 -134.5t-223 -91t-256 -48.5q-1 -4 -1.5 -12.5t-0.5 -19.5q0 -126 56 -213t188 -87q55 0 113.5 18.5t116 55.5
t110.5 92l42 -84q-22 -31 -68 -65.5t-104 -64.5t-117 -49t-109 -19zM246 538q87 2 182 26.5t178 68.5t134.5 104.5t51.5 134.5t-41.5 110t-118.5 36q-51 0 -97.5 -17.5t-88.5 -52.5q-85 -72 -137 -184t-63 -226zM688 1632q87 0 157 -48.5t107 -125.5t24 -162h-100
q0 92 -50 159t-142 67q-64 0 -111.5 -34.5t-76 -86.5t-36.5 -105h-98q0 94 46 170t120.5 121t159.5 45z" />
    <glyph glyph-name="uni0208" unicode="&#x208;" horiz-adv-x="558" 
d="M142 0l188 1494h148l-188 -1494h-148zM232 1654q-30 24 -71 70.5t-83 101.5t-75.5 105.5t-48.5 82.5l106 86l244 -404zM650 1654q-32 26 -70.5 69t-77.5 94.5t-71.5 102.5t-52.5 94l110 86l232 -404z" />
    <glyph glyph-name="uni0209" unicode="&#x209;" horiz-adv-x="550" 
d="M130 0l150 1118h146l-152 -1118h-144zM198 1280q-30 24 -71 70.5t-83 101.5t-75.5 105.5t-48.5 82.5l98 72l244 -394zM616 1280q-32 26 -70.5 69t-77.5 94.5t-71.5 102.5t-52.5 94l102 72l232 -394z" />
    <glyph glyph-name="uni020A" unicode="&#x20a;" horiz-adv-x="558" 
d="M142 0l188 1494h148l-188 -1494h-148zM462 1970q87 0 157 -48.5t107 -125.5t24 -162h-100q0 92 -50 159t-142 67q-64 0 -111.5 -34.5t-76 -86.5t-36.5 -105h-98q0 94 46 170t120.5 121t159.5 45z" />
    <glyph glyph-name="uni020B" unicode="&#x20b;" horiz-adv-x="550" 
d="M130 0l150 1118h146l-152 -1118h-144zM380 1632q87 0 157 -48.5t107 -125.5t24 -162h-100q0 92 -50 159t-142 67q-64 0 -111.5 -34.5t-76 -86.5t-36.5 -105h-98q0 94 46 170t120.5 121t159.5 45z" />
    <glyph glyph-name="uni020C" unicode="&#x20c;" horiz-adv-x="1336" 
d="M596 -16q-160 0 -266.5 86.5t-160 232t-53.5 321.5t48 335t138 283.5t216 196t282 71.5q122 0 212 -51t148.5 -140.5t87 -204t28.5 -242.5q0 -178 -47 -338t-135.5 -284t-214 -195t-283.5 -71zM620 96q120 0 213.5 64t157.5 172t97.5 241t33.5 271q0 181 -38 303.5
t-115 184.5t-193 62q-118 0 -212.5 -65t-160 -173.5t-100.5 -241.5t-35 -270q0 -271 91.5 -409.5t260.5 -138.5zM634 1654q-30 24 -71 70.5t-83 101.5t-75.5 105.5t-48.5 82.5l106 86l244 -404zM1052 1654q-32 26 -70.5 69t-77.5 94.5t-71.5 102.5t-52.5 94l110 86l232 -404
z" />
    <glyph glyph-name="uni020D" unicode="&#x20d;" horiz-adv-x="1108" 
d="M470 -16q-123 0 -206 54.5t-125.5 158t-42.5 251.5q0 173 72 332q71 156 195.5 252t280.5 96q121 0 202.5 -54t122.5 -157t41 -251q0 -175 -68 -332q-69 -157 -192.5 -253.5t-279.5 -96.5zM494 94q89 0 156.5 51.5t114 135.5t70 185t23.5 200q0 113 -25 192t-77.5 120.5
t-135.5 41.5q-92 0 -162 -52t-117 -136.5t-71 -184.5t-24 -197q0 -172 62 -264t186 -92zM500 1280q-30 24 -71 70.5t-83 101.5t-75.5 105.5t-48.5 82.5l98 72l244 -394zM918 1280q-32 26 -70.5 69t-77.5 94.5t-71.5 102.5t-52.5 94l102 72l232 -394z" />
    <glyph glyph-name="uni020E" unicode="&#x20e;" horiz-adv-x="1336" 
d="M596 -16q-160 0 -266.5 86.5t-160 232t-53.5 321.5t48 335t138 283.5t216 196t282 71.5q122 0 212 -51t148.5 -140.5t87 -204t28.5 -242.5q0 -178 -47 -338t-135.5 -284t-214 -195t-283.5 -71zM620 96q120 0 213.5 64t157.5 172t97.5 241t33.5 271q0 181 -38 303.5
t-115 184.5t-193 62q-118 0 -212.5 -65t-160 -173.5t-100.5 -241.5t-35 -270q0 -271 91.5 -409.5t260.5 -138.5zM864 1970q87 0 157 -48.5t107 -125.5t24 -162h-100q0 92 -50 159t-142 67q-64 0 -111.5 -34.5t-76 -86.5t-36.5 -105h-98q0 94 46 170t120.5 121t159.5 45z" />
    <glyph glyph-name="uni020F" unicode="&#x20f;" horiz-adv-x="1108" 
d="M470 -16q-123 0 -206 54.5t-125.5 158t-42.5 251.5q0 173 72 332q71 156 195.5 252t280.5 96q121 0 202.5 -54t122.5 -157t41 -251q0 -175 -68 -332q-69 -157 -192.5 -253.5t-279.5 -96.5zM494 94q89 0 156.5 51.5t114 135.5t70 185t23.5 200q0 113 -25 192t-77.5 120.5
t-135.5 41.5q-92 0 -162 -52t-117 -136.5t-71 -184.5t-24 -197q0 -172 62 -264t186 -92zM682 1632q87 0 157 -48.5t107 -125.5t24 -162h-100q0 92 -50 159t-142 67q-64 0 -111.5 -34.5t-76 -86.5t-36.5 -105h-98q0 94 46 170t120.5 121t159.5 45z" />
    <glyph glyph-name="uni0210" unicode="&#x210;" horiz-adv-x="1226" 
d="M118 0l186 1494h74q55 0 115 4t111 8t78 4q224 0 342 -91t118 -265q0 -178 -96 -311.5t-266 -180.5q29 -25 63.5 -82.5t66 -125.5t52.5 -124q36 -83 64 -148.5t50.5 -111.5t41.5 -70h-168q-9 14 -21 38.5t-29 63t-39.5 94.5t-52.5 134q-12 39 -34 91.5t-51.5 102.5
t-63.5 83t-69 33l-246 2l-80 -642h-146zM622 758q114 0 194.5 51.5t123 140t42.5 198.5q0 125 -79.5 186.5t-240.5 61.5q-24 0 -66.5 -2.5t-86.5 -6t-71 -7.5l-78 -620q23 -1 82 -1.5t180 -0.5zM508 1654q-30 24 -71 70.5t-83 101.5t-75.5 105.5t-48.5 82.5l106 86l244 -404
zM926 1654q-32 26 -70.5 69t-77.5 94.5t-71.5 102.5t-52.5 94l110 86l232 -404z" />
    <glyph glyph-name="uni0211" unicode="&#x211;" horiz-adv-x="760" 
d="M90 0l150 1114h136l-24 -246q33 69 91.5 128t131.5 95.5t149 36.5q49 0 64 -12l-34 -154q-13 6 -34.5 9t-53.5 3q-69 0 -137.5 -49t-123 -121t-81.5 -140l-88 -664h-146zM362 1280q-30 24 -71 70.5t-83 101.5t-75.5 105.5t-48.5 82.5l98 72l244 -394zM780 1280
q-32 26 -70.5 69t-77.5 94.5t-71.5 102.5t-52.5 94l102 72l232 -394z" />
    <glyph glyph-name="uni0212" unicode="&#x212;" horiz-adv-x="1226" 
d="M118 0l186 1494h74q55 0 115 4t111 8t78 4q224 0 342 -91t118 -265q0 -178 -96 -311.5t-266 -180.5q29 -25 63.5 -82.5t66 -125.5t52.5 -124q36 -83 64 -148.5t50.5 -111.5t41.5 -70h-168q-9 14 -21 38.5t-29 63t-39.5 94.5t-52.5 134q-12 39 -34 91.5t-51.5 102.5
t-63.5 83t-69 33l-246 2l-80 -642h-146zM622 758q114 0 194.5 51.5t123 140t42.5 198.5q0 125 -79.5 186.5t-240.5 61.5q-24 0 -66.5 -2.5t-86.5 -6t-71 -7.5l-78 -620q23 -1 82 -1.5t180 -0.5zM738 1970q87 0 157 -48.5t107 -125.5t24 -162h-100q0 92 -50 159t-142 67
q-64 0 -111.5 -34.5t-76 -86.5t-36.5 -105h-98q0 94 46 170t120.5 121t159.5 45z" />
    <glyph glyph-name="uni0213" unicode="&#x213;" horiz-adv-x="760" 
d="M90 0l150 1114h136l-24 -246q33 69 91.5 128t131.5 95.5t149 36.5q49 0 64 -12l-34 -154q-13 6 -34.5 9t-53.5 3q-69 0 -137.5 -49t-123 -121t-81.5 -140l-88 -664h-146zM544 1632q87 0 157 -48.5t107 -125.5t24 -162h-100q0 92 -50 159t-142 67q-64 0 -111.5 -34.5
t-76 -86.5t-36.5 -105h-98q0 94 46 170t120.5 121t159.5 45z" />
    <glyph glyph-name="uni0214" unicode="&#x214;" horiz-adv-x="1328" 
d="M588 -16q-214 0 -326 114.5t-112 325.5q0 24 3 63t9 93l116 914h146l-112 -890q-6 -46 -9 -89t-3 -81q0 -157 77 -243.5t231 -86.5q140 0 226 64t132 181t66 277l110 868h144l-112 -882q-15 -114 -40.5 -205.5t-61.5 -160.5q-73 -138 -192 -200t-292 -62zM592 1654
q-30 24 -71 70.5t-83 101.5t-75.5 105.5t-48.5 82.5l106 86l244 -404zM1010 1654q-32 26 -70.5 69t-77.5 94.5t-71.5 102.5t-52.5 94l110 86l232 -404z" />
    <glyph glyph-name="uni0215" unicode="&#x215;" horiz-adv-x="1146" 
d="M360 -18q-127 0 -188.5 64t-61.5 214q0 24 8 97.5t18 164.5q9 71 21.5 160t27.5 197t33 235h146q-16 -121 -28.5 -212t-22 -157t-15.5 -111t-10 -72.5t-6 -41.5q-12 -88 -18 -147t-6 -103q0 -90 38 -126t116 -36q68 0 142.5 46t141 115t110.5 137l94 708h144l-148 -1114
h-134l28 256q-84 -118 -199 -196t-231 -78zM466 1280q-30 24 -71 70.5t-83 101.5t-75.5 105.5t-48.5 82.5l98 72l244 -394zM884 1280q-32 26 -70.5 69t-77.5 94.5t-71.5 102.5t-52.5 94l102 72l232 -394z" />
    <glyph glyph-name="uni0216" unicode="&#x216;" horiz-adv-x="1328" 
d="M588 -16q-214 0 -326 114.5t-112 325.5q0 24 3 63t9 93l116 914h146l-112 -890q-6 -46 -9 -89t-3 -81q0 -157 77 -243.5t231 -86.5q140 0 226 64t132 181t66 277l110 868h144l-112 -882q-15 -114 -40.5 -205.5t-61.5 -160.5q-73 -138 -192 -200t-292 -62zM822 1970
q87 0 157 -48.5t107 -125.5t24 -162h-100q0 92 -50 159t-142 67q-64 0 -111.5 -34.5t-76 -86.5t-36.5 -105h-98q0 94 46 170t120.5 121t159.5 45z" />
    <glyph glyph-name="uni0217" unicode="&#x217;" horiz-adv-x="1146" 
d="M360 -18q-127 0 -188.5 64t-61.5 214q0 24 8 97.5t18 164.5q9 71 21.5 160t27.5 197t33 235h146q-16 -121 -28.5 -212t-22 -157t-15.5 -111t-10 -72.5t-6 -41.5q-12 -88 -18 -147t-6 -103q0 -90 38 -126t116 -36q68 0 142.5 46t141 115t110.5 137l94 708h144l-148 -1114
h-134l28 256q-84 -118 -199 -196t-231 -78zM648 1632q87 0 157 -48.5t107 -125.5t24 -162h-100q0 92 -50 159t-142 67q-64 0 -111.5 -34.5t-76 -86.5t-36.5 -105h-98q0 94 46 170t120.5 121t159.5 45z" />
    <glyph glyph-name="uni0218" unicode="&#x218;" horiz-adv-x="1020" 
d="M394 -16q-44 0 -98.5 7.5t-108.5 20t-96.5 28.5t-62.5 32l42 120q20 -25 76.5 -46t125.5 -33.5t126 -12.5q97 0 176.5 29.5t126.5 88.5t47 148q0 96 -58 169t-180 151q-101 66 -174.5 130.5t-113.5 140t-40 175.5q0 124 60.5 208t162.5 127t225 43q110 0 195 -20.5
t143 -61.5l-48 -114q-40 41 -118 62.5t-162 21.5q-81 0 -151.5 -23t-114.5 -77t-44 -146q0 -82 31 -139t90.5 -105t144.5 -104q96 -63 164 -121.5t104 -127.5t36 -163q0 -138 -68.5 -228.5t-183.5 -135t-254 -44.5zM324 -680l-60 38l2 18q41 29 63.5 75t22.5 113
q0 41 -20 75.5t-50 46.5l4 40l92 90q54 -18 85 -76.5t31 -129.5q0 -69 -24 -131t-63 -105t-83 -54z" />
    <glyph glyph-name="uni0219" unicode="&#x219;" horiz-adv-x="852" 
d="M332 -16q-61 0 -120 9t-104 23t-64 30l28 128q27 -20 68 -38.5t91.5 -30t106.5 -11.5q102 0 166 43.5t64 128.5q0 48 -24.5 88.5t-67 77.5t-96.5 76q-88 69 -150 140.5t-62 185.5q0 98 52 163.5t136.5 98t181.5 32.5q53 0 102.5 -6t87.5 -15.5t58 -20.5l-30 -136
q-10 17 -46 33t-83 26.5t-89 10.5q-106 0 -168 -45.5t-62 -122.5q0 -46 15.5 -80t52.5 -70t102 -88q88 -67 139 -119t73 -102t22 -111q0 -102 -52 -168t-138.5 -98t-189.5 -32zM252 -658l-74 48l2 18q41 29 60.5 73t19.5 93q0 41 -17 75.5t-47 46.5l4 40l106 80
q54 -18 82 -76t28 -114q0 -69 -24.5 -129.5t-62 -102t-77.5 -52.5z" />
    <glyph glyph-name="uni021A" unicode="&#x21a;" horiz-adv-x="1096" 
d="M400 0l176 1386l-442 -10l18 118h1018l-16 -118l-432 10l-176 -1386h-146zM362 -680l-60 38l2 18q41 29 63.5 75t22.5 113q0 41 -20 75.5t-50 46.5l4 40l92 90q54 -18 85 -76.5t31 -129.5q0 -69 -24 -131t-63 -105t-83 -54z" />
    <glyph glyph-name="uni021B" unicode="&#x21b;" horiz-adv-x="720" 
d="M324 -16q-84 0 -128 43t-44 125q0 12 1.5 30.5t4 44t6.5 57.5l90 714h-132l32 114l124 2l54 272h122l-34 -272h284l-18 -116h-282q-28 -208 -46 -346t-29.5 -222.5t-17 -128.5t-7.5 -62t-2 -25q0 -49 17.5 -81.5t60.5 -32.5q28 0 69 16.5t80.5 39.5t64.5 44l20 -82
q-23 -27 -74 -58t-110 -53.5t-106 -22.5zM186 -658l-74 48l2 18q41 29 60.5 73t19.5 93q0 41 -17 75.5t-47 46.5l4 40l106 80q54 -18 82 -76t28 -114q0 -69 -24.5 -129.5t-62 -102t-77.5 -52.5z" />
    <glyph glyph-name="uni022A" unicode="&#x22a;" horiz-adv-x="1336" 
d="M596 -16q-160 0 -266.5 86.5t-160 232t-53.5 321.5t48 335t138 283.5t216 196t282 71.5q122 0 212 -51t148.5 -140.5t87 -204t28.5 -242.5q0 -178 -47 -338t-135.5 -284t-214 -195t-283.5 -71zM620 96q120 0 213.5 64t157.5 172t97.5 241t33.5 271q0 181 -38 303.5
t-115 184.5t-193 62q-118 0 -212.5 -65t-160 -173.5t-100.5 -241.5t-35 -270q0 -271 91.5 -409.5t260.5 -138.5zM620 1634q-34 0 -59 25.5t-25 62.5q0 48 33.5 84t76.5 36q41 0 65.5 -23t24.5 -61q0 -52 -34 -88t-82 -36zM1032 1634q-36 0 -60 25.5t-24 62.5q0 50 32 85
t78 35q41 0 64.5 -23t23.5 -61q0 -52 -33.5 -88t-80.5 -36zM640 2020l4 112h500l-4 -112h-500z" />
    <glyph glyph-name="uni022B" unicode="&#x22b;" horiz-adv-x="1108" 
d="M470 -16q-123 0 -206 54.5t-125.5 158t-42.5 251.5q0 173 72 332q71 156 195.5 252t280.5 96q121 0 202.5 -54t122.5 -157t41 -251q0 -175 -68 -332q-69 -157 -192.5 -253.5t-279.5 -96.5zM494 94q89 0 156.5 51.5t114 135.5t70 185t23.5 200q0 113 -25 192t-77.5 120.5
t-135.5 41.5q-92 0 -162 -52t-117 -136.5t-71 -184.5t-24 -197q0 -172 62 -264t186 -92zM466 1324q-34 0 -59 25.5t-25 62.5q0 48 33.5 84t76.5 36q41 0 65.5 -23t24.5 -61q0 -52 -34 -88t-82 -36zM878 1324q-36 0 -60 25.5t-24 62.5q0 50 32 85t78 35q41 0 64.5 -23
t23.5 -61q0 -52 -33.5 -88t-80.5 -36zM480 1678l12 112h500l-12 -112h-500z" />
    <glyph glyph-name="uni022C" unicode="&#x22c;" horiz-adv-x="1336" 
d="M596 -16q-160 0 -266.5 86.5t-160 232t-53.5 321.5t48 335t138 283.5t216 196t282 71.5q122 0 212 -51t148.5 -140.5t87 -204t28.5 -242.5q0 -178 -47 -338t-135.5 -284t-214 -195t-283.5 -71zM620 96q120 0 213.5 64t157.5 172t97.5 241t33.5 271q0 181 -38 303.5
t-115 184.5t-193 62q-118 0 -212.5 -65t-160 -173.5t-100.5 -241.5t-35 -270q0 -271 91.5 -409.5t260.5 -138.5zM978 1654q-49 0 -91 23.5t-75 56.5q-31 32 -53 47t-55 15q-40 0 -75.5 -30.5t-64.5 -75.5l-62 64q20 42 54 79t76.5 60t89.5 23q48 0 89 -20.5t81 -59.5
q32 -30 53 -45t49 -15q35 0 62 21.5t46 48.5t30 44l58 -68q-12 -46 -45 -84t-77 -61t-90 -23zM652 2060l4 112h500l-4 -112h-500z" />
    <glyph glyph-name="uni022D" unicode="&#x22d;" horiz-adv-x="1108" 
d="M470 -16q-123 0 -206 54.5t-125.5 158t-42.5 251.5q0 173 72 332q71 156 195.5 252t280.5 96q121 0 202.5 -54t122.5 -157t41 -251q0 -175 -68 -332q-69 -157 -192.5 -253.5t-279.5 -96.5zM494 94q89 0 156.5 51.5t114 135.5t70 185t23.5 200q0 113 -25 192t-77.5 120.5
t-135.5 41.5q-92 0 -162 -52t-117 -136.5t-71 -184.5t-24 -197q0 -172 62 -264t186 -92zM804 1266q-49 0 -91 23.5t-75 56.5q-31 32 -53 47t-55 15q-40 0 -75.5 -30.5t-64.5 -75.5l-62 64q30 63 90 112.5t130 49.5q48 0 89 -20.5t81 -59.5q32 -30 53 -45t49 -15
q35 0 62 21.5t46 48.5t30 44l58 -68q-12 -46 -45 -84t-77 -61t-90 -23zM480 1680l12 112h500l-12 -112h-500z" />
    <glyph glyph-name="uni0230" unicode="&#x230;" horiz-adv-x="1336" 
d="M596 -16q-160 0 -266.5 86.5t-160 232t-53.5 321.5t48 335t138 283.5t216 196t282 71.5q122 0 212 -51t148.5 -140.5t87 -204t28.5 -242.5q0 -178 -47 -338t-135.5 -284t-214 -195t-283.5 -71zM620 96q120 0 213.5 64t157.5 172t97.5 241t33.5 271q0 181 -38 303.5
t-115 184.5t-193 62q-118 0 -212.5 -65t-160 -173.5t-100.5 -241.5t-35 -270q0 -271 91.5 -409.5t260.5 -138.5zM826 1634q-36 0 -60 25t-24 65q0 48 32.5 84t75.5 36q41 0 65.5 -24t24.5 -62q0 -49 -34.5 -86.5t-79.5 -37.5zM638 2018l4 112h500l-4 -112h-500z" />
    <glyph glyph-name="uni0231" unicode="&#x231;" horiz-adv-x="1108" 
d="M470 -16q-123 0 -206 54.5t-125.5 158t-42.5 251.5q0 173 72 332q71 156 195.5 252t280.5 96q121 0 202.5 -54t122.5 -157t41 -251q0 -175 -68 -332q-69 -157 -192.5 -253.5t-279.5 -96.5zM494 94q89 0 156.5 51.5t114 135.5t70 185t23.5 200q0 113 -25 192t-77.5 120.5
t-135.5 41.5q-92 0 -162 -52t-117 -136.5t-71 -184.5t-24 -197q0 -172 62 -264t186 -92zM682 1310q-36 0 -60 25t-24 65q0 48 32.5 84t75.5 36q41 0 65.5 -24t24.5 -62q0 -49 -34.5 -86.5t-79.5 -37.5zM494 1756l12 112h500l-12 -112h-500z" />
    <glyph glyph-name="uni0232" unicode="&#x232;" horiz-adv-x="1058" 
d="M392 0l74 572l-364 922h158l254 -694l40 -100l54 100l418 694h158l-578 -922l-72 -572h-142zM438 1676l4 112h500l-4 -112h-500z" />
    <glyph glyph-name="uni0233" unicode="&#x233;" horiz-adv-x="1024" 
d="M-48 -490q-36 0 -76 9t-72 21l42 120q23 -10 54 -21t76 -11q69 0 135.5 31t136 101t148.5 186h-92l-60 346l-124 822h160l106 -822l42 -294q32 56 64.5 110.5t63.5 109.5q75 125 129.5 254t87 257.5t41.5 252.5q2 27 2 52v80h142q3 -36 3.5 -69.5t-1.5 -62.5
q-7 -172 -80 -372t-180 -400q-50 -92 -115 -193t-135 -193t-136 -158q-61 -61 -153.5 -108.5t-208.5 -47.5zM368 1332l12 112h500l-12 -112h-500z" />
    <glyph glyph-name="uni0237" unicode="&#x237;" horiz-adv-x="562" 
d="M-106 -502q-43 0 -77.5 10t-54.5 26l38 84q11 -7 33 -13.5t41 -6.5q71 0 118 36.5t76.5 100t47.5 146.5t30 177l142 1060h146l-150 -1114q-21 -161 -73 -274t-132 -172.5t-185 -59.5z" />
    <glyph glyph-name="uni0259" unicode="&#x259;" horiz-adv-x="1006" 
d="M538 1130q132 0 220 -64q86 -64 125.5 -165t34.5 -217q-3 -193 -80 -356q-75 -159 -203.5 -250.5t-292.5 -91.5q-73 0 -135 29t-99.5 83.5t-37.5 131.5q0 100 58 178t157 134.5t223 91.5t256 48q2 5 2 13.5v18.5q0 126 -56 213t-188 87q-55 0 -113.5 -18.5t-116 -55.5
t-110.5 -92l-42 84q23 31 68.5 65.5t103.5 64.5t117.5 49t108.5 19zM760 576q-87 -2 -182 -26.5t-178 -68.5t-134.5 -104.5t-51.5 -134.5q0 -73 42 -109.5t118 -36.5q51 0 97.5 18t88.5 52q86 72 138 184t62 226z" />
    <glyph glyph-name="uni0292" unicode="&#x292;" horiz-adv-x="900" 
d="M190 -294q-52 0 -101 3.5t-99 4.5l14 114q42 -7 82.5 -8.5t89.5 -1.5q136 0 241 43t165 124t60 195q0 129 -76 183t-198 45l-86 74l258 324l170 192h-570l18 116h702l32 -62l-442 -550q79 0 142.5 -22.5t109 -63t70 -95t24.5 -119.5q0 -148 -77.5 -259.5t-214 -174
t-314.5 -62.5z" />
    <glyph glyph-name="uni02B9" unicode="&#x2b9;" horiz-adv-x="608" 
d="M294 1162l130 578h154l-180 -578h-104z" />
    <glyph glyph-name="uni02BA" unicode="&#x2ba;" horiz-adv-x="986" 
d="M294 1162l130 578h154l-180 -578h-104zM672 1162l130 578h154l-180 -578h-104z" />
    <glyph glyph-name="uni02BB" unicode="&#x2bb;" horiz-adv-x="660" 
d="M378 904q-45 17 -82.5 66t-60.5 113.5t-23 126.5q0 125 42 220t111 162t149 108l54 -80l-2 -16q-42 -21 -91 -70.5t-84 -125.5t-35 -176q0 -64 26 -124.5t74 -95.5l-4 -30z" />
    <glyph glyph-name="uni02BC" unicode="&#x2bc;" horiz-adv-x="652" 
d="M328 896l-56 78l2 16q43 21 93 70.5t85 125.5t34 176q0 65 -26 125.5t-74 94.5l2 28l76 80q46 -18 83.5 -67t60 -112.5t22.5 -126.5q0 -125 -41.5 -219.5t-110.5 -161t-150 -107.5z" />
    <glyph glyph-name="uni02BE" unicode="&#x2be;" horiz-adv-x="456" 
d="M237 1300v96q89 0 137.5 46.5t48.5 121.5q0 59 -27.5 93.5t-70.5 49.5t-88 15v92q74 0 143 -25t113.5 -80t45.5 -145q2 -126 -84 -195t-218 -69z" />
    <glyph glyph-name="uni02BF" unicode="&#x2bf;" horiz-adv-x="457" 
d="M483 1300q-132 0 -217.5 69t-84.5 195q1 90 45.5 145t113.5 80t143 25v-92q-45 0 -87.5 -15t-70.5 -49.5t-28 -93.5q0 -75 49 -121.5t137 -46.5v-96z" />
    <glyph glyph-name="circumflex" unicode="&#x2c6;" horiz-adv-x="776" 
d="M152 1246l-58 56l336 368h134l198 -368l-72 -52l-212 288z" />
    <glyph glyph-name="caron" unicode="&#x2c7;" horiz-adv-x="776" 
d="M314 1254l-236 322l66 64l242 -272l326 272l62 -64l-328 -322h-132z" />
    <glyph glyph-name="uni02C8" unicode="&#x2c8;" horiz-adv-x="181" 
d="M187 1374l-36 706h180l-38 -706h-106z" />
    <glyph glyph-name="uni02C9" unicode="&#x2c9;" 
d="M-144 1332l12 112h500l-12 -112h-500z" />
    <glyph glyph-name="uni02CA" unicode="&#x2ca;" 
d="M-34 1284l-84 66q59 64 115.5 127t110.5 128t104 135l118 -102q-25 -37 -72.5 -88.5t-102.5 -104.5t-106 -96.5t-83 -64.5z" />
    <glyph glyph-name="uni02CB" unicode="&#x2cb;" 
d="M214 1316q-39 29 -87.5 71t-97 90.5t-89.5 95t-64 83.5l114 102l288 -388z" />
    <glyph glyph-name="uni02CC" unicode="&#x2cc;" horiz-adv-x="331" 
d="M28 -516l-36 706h180l-38 -706h-106z" />
    <glyph glyph-name="breve" unicode="&#x2d8;" horiz-adv-x="700" 
d="M340 1274q-87 0 -156 46.5t-105.5 123t-26.5 166.5h100q0 -91 50.5 -158.5t141.5 -67.5q64 0 111.5 34.5t76 86.5t36.5 105h98q0 -90 -44.5 -166.5t-118.5 -123t-163 -46.5z" />
    <glyph glyph-name="dotaccent" unicode="&#x2d9;" horiz-adv-x="378" 
d="M144 1372q-36 0 -60 25t-24 65q0 48 32.5 84t75.5 36q41 0 65.5 -24t24.5 -62q0 -49 -34.5 -86.5t-79.5 -37.5z" />
    <glyph glyph-name="ring" unicode="&#x2da;" horiz-adv-x="706" 
d="M370 1228q-130 0 -202 64t-72 178q0 86 50 148q50 60 127.5 91t156.5 31q122 0 193 -65t71 -179q0 -89 -44 -148q-45 -60 -118 -90t-162 -30zM376 1310q92 0 152 46t60 152q0 68 -46 109t-124 41q-88 0 -152 -46t-64 -148q0 -67 49.5 -110.5t124.5 -43.5z" />
    <glyph glyph-name="ogonek" unicode="&#x2db;" horiz-adv-x="476" 
d="M196 -420q-81 0 -133.5 40.5t-52.5 95.5q0 44 20 83.5t55 75t79.5 66.5t93.5 59l76 44l44 -44q-91 -60 -157.5 -120.5t-66.5 -119.5q0 -36 21.5 -53t52.5 -17q41 0 79 15t75 43l38 -76q-40 -37 -93.5 -64.5t-130.5 -27.5z" />
    <glyph glyph-name="tilde" unicode="&#x2dc;" horiz-adv-x="760" 
d="M624 1270q-49 0 -91 23.5t-75 56.5q-31 32 -53 47t-55 15q-40 0 -75.5 -30.5t-64.5 -75.5l-62 64q30 63 90 112.5t130 49.5q48 0 89 -20.5t81 -59.5q32 -30 53 -45t49 -15q35 0 62 21.5t46 48.5t30 44l58 -68q-12 -46 -45 -84t-77 -61t-90 -23z" />
    <glyph glyph-name="hungarumlaut" unicode="&#x2dd;" horiz-adv-x="896" 
d="M534 1220l-72 42l244 404l106 -86q-15 -32 -48.5 -82.5t-75.5 -105.5t-83 -101.5t-71 -70.5zM118 1220l-70 42l232 404l108 -86q-20 -43 -52.5 -94t-70.5 -102.5t-76.5 -94.5t-70.5 -69z" />
    <glyph glyph-name="gravecomb" unicode="&#x300;" 
d="M214 1316q-39 29 -87.5 71t-97 90.5t-89.5 95t-64 83.5l114 102l288 -388z" />
    <glyph glyph-name="acutecomb" unicode="&#x301;" 
d="M66 1316l-62 54l304 390l112 -102q-16 -25 -47.5 -62t-72.5 -79t-84 -82t-82.5 -71.5t-67.5 -47.5z" />
    <glyph glyph-name="uni0302" unicode="&#x302;" 
d="M-206 1240l-58 56l336 368h134l198 -368l-72 -52l-212 288z" />
    <glyph glyph-name="tildecomb" unicode="&#x303;" 
d="M226 1266q-49 0 -91 23.5t-75 56.5q-31 32 -53 47t-55 15q-40 0 -75.5 -30.5t-64.5 -75.5l-62 64q30 63 90 112.5t130 49.5q48 0 89 -20.5t81 -59.5q32 -30 53 -45t49 -15q35 0 62 21.5t46 48.5t30 44l58 -68q-12 -46 -45 -84t-77 -61t-90 -23z" />
    <glyph glyph-name="uni0304" unicode="&#x304;" 
d="M-144 1332l12 112h500l-12 -112h-500z" />
    <glyph glyph-name="uni0306" unicode="&#x306;" 
d="M90 1264q-97 0 -163.5 48.5t-96 125.5t-16.5 162h100q0 -61 15.5 -112.5t54.5 -82.5t110 -31q74 0 120.5 34.5t71 86.5t32.5 105h98q0 -94 -42 -170t-115.5 -121t-168.5 -45z" />
    <glyph glyph-name="uni0307" unicode="&#x307;" 
d="M104 1310q-36 0 -60 25t-24 65q0 48 32.5 84t75.5 36q41 0 65.5 -24t24.5 -62q0 -49 -34.5 -86.5t-79.5 -37.5z" />
    <glyph glyph-name="uni0308" unicode="&#x308;" 
d="M-112 1324q-34 0 -59 25.5t-25 62.5q0 48 33.5 84t76.5 36q41 0 65.5 -23t24.5 -61q0 -52 -34 -88t-82 -36zM300 1324q-36 0 -60 25.5t-24 62.5q0 50 32 85t78 35q41 0 64.5 -23t23.5 -61q0 -52 -33.5 -88t-80.5 -36z" />
    <glyph glyph-name="hookabovecomb" unicode="&#x309;" 
d="M50 1266q-6 21 -12.5 40t-3.5 46q5 37 27 60t48.5 40.5t47.5 36t25 45.5q5 45 -21.5 69.5t-88.5 24.5q-24 0 -48 -5.5t-42 -14.5l6 110q29 12 68 21t76 9q99 0 154 -49.5t46 -136.5q-6 -56 -31.5 -89t-59.5 -55t-65 -46q-13 -10 -26 -39t-4 -67h-96z" />
    <glyph glyph-name="uni030A" unicode="&#x30a;" 
d="M96 1228q-130 0 -202 64t-72 178q0 86 50 148q50 60 127.5 91t156.5 31q122 0 193 -65t71 -179q0 -89 -44 -148q-45 -60 -118 -90t-162 -30zM102 1310q92 0 152 46t60 152q0 68 -46 109t-124 41q-88 0 -152 -46t-64 -148q0 -67 49.5 -110.5t124.5 -43.5z" />
    <glyph glyph-name="uni030B" unicode="&#x30b;" 
d="M238 1220l-72 42l244 404l106 -86q-15 -32 -48.5 -82.5t-75.5 -105.5t-83 -101.5t-71 -70.5zM-180 1220l-70 42l232 404l110 -86q-20 -43 -52.5 -94t-71.5 -102.5t-77.5 -94.5t-70.5 -69z" />
    <glyph glyph-name="uni030C" unicode="&#x30c;" 
d="M38 1300l-236 322l66 64l242 -272l326 272l62 -64l-328 -322h-132z" />
    <glyph glyph-name="uni030F" unicode="&#x30f;" 
d="M-78 1280q-30 24 -71 70.5t-83 101.5t-75.5 105.5t-48.5 82.5l98 72l244 -394zM340 1280q-32 26 -70.5 69t-77.5 94.5t-71.5 102.5t-52.5 94l102 72l232 -394z" />
    <glyph glyph-name="uni0311" unicode="&#x311;" 
d="M104 1632q87 0 157 -48.5t107 -125.5t24 -162h-100q0 92 -50 159t-142 67q-64 0 -111.5 -34.5t-76 -86.5t-36.5 -105h-98q0 94 46 170t120.5 121t159.5 45z" />
    <glyph glyph-name="uni0312" unicode="&#x312;" 
d="M134 1784l68 -52l-2 -20q-42 -30 -50 -72t-8 -78q0 -42 20.5 -78t51.5 -48l-4 -42l-108 -84q-37 25 -63 55.5t-39.5 68.5t-13.5 86q0 89 36.5 152t111.5 112z" />
    <glyph glyph-name="uni031B" unicode="&#x31b;" 
d="M-36 996l16 114q113 0 176 23.5t93 59.5t39.5 75t13.5 70q2 11 3 19.5t-1 14.5h140q2 -12 3 -22.5t1 -21.5q0 -106 -57.5 -180t-166 -113t-260.5 -39z" />
    <glyph glyph-name="dotbelowcomb" unicode="&#x323;" 
d="M-60 -434q-36 0 -60 25t-24 65q0 48 32.5 84t75.5 36q41 0 65.5 -24t24.5 -62q0 -49 -34.5 -86.5t-79.5 -37.5z" />
    <glyph glyph-name="uni0324" unicode="&#x324;" 
d="M-264 -432q-34 0 -59 25.5t-25 62.5q0 48 33.5 84t76.5 36q41 0 65.5 -23t24.5 -61q0 -52 -34 -88t-82 -36zM148 -432q-36 0 -60 25.5t-24 62.5q0 50 32 85t78 35q41 0 64.5 -23t23.5 -61q0 -52 -33.5 -88t-80.5 -36z" />
    <glyph glyph-name="uni0326" unicode="&#x326;" 
d="M-92 -658l-74 48l2 18q41 29 60.5 73t19.5 93q0 41 -17 75.5t-47 46.5l4 40l106 80q54 -18 82 -76t28 -114q0 -69 -24.5 -129.5t-62 -102t-77.5 -52.5z" />
    <glyph glyph-name="uni0327" unicode="&#x327;" 
d="M-240 -454q-40 0 -83.5 8t-60.5 20l20 112q17 -9 39 -13.5t47 -4.5q83 0 132.5 48t49.5 142q0 56 -7 97.5t-15 66.5l58 4l40 -4q23 -36 37.5 -85.5t14.5 -112.5q0 -148 -78 -213t-194 -65z" />
    <glyph glyph-name="uni0328" unicode="&#x328;" 
d="M177 -420q-81 0 -133.5 40.5t-52.5 95.5q0 59 35 109.5t92 94t121 80.5l76 44l44 -44q-91 -60 -157.5 -120.5t-66.5 -119.5q0 -36 21.5 -53t52.5 -17q41 0 79 15t75 43l38 -76q-40 -37 -93.5 -64.5t-130.5 -27.5z" />
    <glyph glyph-name="uni032E" unicode="&#x32e;" 
d="M-74 -488q-87 0 -153 48.5t-99 125.5t-20 162h100q0 -91 42.5 -153.5t133.5 -62.5q96 0 152.5 58t71.5 158h98q0 -94 -46 -170t-120.5 -121t-159.5 -45z" />
    <glyph glyph-name="uni0331" unicode="&#x331;" 
d="M-290 -338l4 112h500l-4 -112h-500z" />
    <glyph glyph-name="uni0335" unicode="&#x335;" 
d="M402 622v-120h-804v120h804z" />
    <glyph glyph-name="uni0336" unicode="&#x336;" 
d="M574 620v-124h-1148v124h1148z" />
    <glyph glyph-name="uni0337" unicode="&#x337;" 
d="M322 1110h118l-758 -1312h-122z" />
    <glyph glyph-name="uni0338" unicode="&#x338;" 
d="M322 1606h118l-758 -1808h-122z" />
    <glyph glyph-name="uni0394" unicode="&#x394;" horiz-adv-x="1374" 
d="M-8 0l-12 22l736 1450h30l542 -1446l-16 -26h-1280zM204 128h886l-376 1042z" />
    <glyph glyph-name="uni0394" unicode="&#x3b4;" horiz-adv-x="1374" 
d="M-8 0l-12 22l736 1450h30l542 -1446l-16 -26h-1280zM204 128h886l-376 1042z" />
    <glyph glyph-name="uni03A9" unicode="&#x3a9;" horiz-adv-x="1618" 
d="M74 0l14 114h384q-63 43 -120.5 117t-102.5 164t-71 183.5t-26 175.5q0 232 88.5 401t250.5 261t383 92q180 0 321.5 -77t223 -213t81.5 -314q0 -118 -35 -233.5t-95 -219.5t-136.5 -188.5t-159.5 -142.5h400l-10 -120h-558l-16 104q95 51 178.5 137.5t147 194.5t100 225
t36.5 229q0 153 -63 266t-174 174.5t-255 61.5q-180 0 -306 -82t-192 -226.5t-66 -333.5q0 -90 25.5 -186.5t71.5 -186.5t106.5 -161.5t130.5 -111.5l-32 -104h-524z" />
    <glyph glyph-name="uni03A9" unicode="&#x3c9;" horiz-adv-x="1618" 
d="M74 0l14 114h384q-63 43 -120.5 117t-102.5 164t-71 183.5t-26 175.5q0 232 88.5 401t250.5 261t383 92q180 0 321.5 -77t223 -213t81.5 -314q0 -118 -35 -233.5t-95 -219.5t-136.5 -188.5t-159.5 -142.5h400l-10 -120h-558l-16 104q95 51 178.5 137.5t147 194.5t100 225
t36.5 229q0 153 -63 266t-174 174.5t-255 61.5q-180 0 -306 -82t-192 -226.5t-66 -333.5q0 -90 25.5 -186.5t71.5 -186.5t106.5 -161.5t130.5 -111.5l-32 -104h-524z" />
    <glyph glyph-name="uni03BC" unicode="&#x3bc;" horiz-adv-x="1322" 
d="M126 -364l184 1238q5 30 5.5 55t-6.5 40t-23 15q-22 0 -47.5 -13.5t-54.5 -42.5l-50 86q15 22 49.5 47.5t80 44t94.5 18.5q71 0 93 -56t13 -124q-4 -30 -13.5 -100t-22.5 -157.5t-24.5 -172t-19.5 -145.5t-8 -77q0 -94 53.5 -137t132.5 -43q54 0 111 28t107 69t82 81
l116 824h144q-15 -112 -30.5 -223.5t-30.5 -223.5t-30.5 -223.5t-30.5 -223.5q-4 -36 2 -72t36 -36q26 0 56 20t64 60l48 -84q-15 -22 -49 -51.5t-79 -52t-92 -22.5q-60 0 -95 37t-35 113q-45 -47 -93 -80.5t-106.5 -51.5t-134.5 -18q-57 0 -116.5 32t-71.5 84l-70 -462
h-138z" />
    <glyph glyph-name="pi" unicode="&#x3c0;" horiz-adv-x="1520" 
d="M216 -22l-98 90q23 5 57 20.5t65 37.5q75 56 100 138.5t40 199.5l90 514h-68q-84 0 -139 -32t-81 -88l-84 40q17 76 57.5 124t107 71t161.5 23h714q68 0 101.5 15t46.5 55h106q-12 -126 -80.5 -167t-221.5 -41q-17 -131 -33.5 -259.5t-30.5 -237t-23.5 -183t-14.5 -98.5
q0 -88 78 -88q35 0 73.5 25t70.5 64.5t48 84.5l82 -36q-8 -42 -41.5 -88.5t-81 -86.5t-99.5 -65.5t-98 -25.5q-88 0 -135 47.5t-47 132.5q0 7 7.5 62.5t19.5 140.5t26 181.5t27.5 186.5t23.5 155.5t14 87.5h-350l-84 -558q-10 -117 -58 -221.5t-104 -154.5
q-27 -22 -63 -38.5t-81 -27.5z" />
    <glyph glyph-name="uni058F" unicode="&#x58f;" horiz-adv-x="1540" 
d="M868 -14l116 818q30 213 4.5 334t-97 170.5t-179.5 49.5q-116 0 -205 -48.5t-149.5 -169t-91.5 -336.5l-8 -66h-154l16 106q29 209 102.5 352.5t198 217.5t305.5 74q168 0 270 -72.5t138 -216t6 -357.5l-120 -856h-152zM548 252l16 108h856l-14 -108h-858zM628 616
l14 106h820l-14 -106h-820z" />
    <glyph glyph-name="uni1E02" unicode="&#x1e02;" horiz-adv-x="1210" 
d="M448 -14q-25 0 -58.5 2t-69.5 5t-70.5 5t-63.5 2h-68l188 1494h68q14 0 54.5 2.5t91 5.5t93.5 5.5t61 2.5q159 0 255.5 -42t139.5 -116.5t43 -171.5q0 -151 -83 -254t-229 -144q85 -10 154 -51t109.5 -106t40.5 -147q4 -177 -82.5 -285t-236.5 -157.5t-337 -49.5zM480 92
q143 0 248 37.5t162.5 118t57.5 208.5q0 131 -90 198.5t-246 67.5q-76 0 -140.5 -1.5t-115.5 -4.5l-76 -604q17 -5 55.5 -9.5t79.5 -7.5t65 -3zM370 828q21 -1 70 -1t158 1q161 0 263.5 90.5t102.5 247.5q0 120 -75 181t-249 61q-19 0 -55.5 -2t-76.5 -5t-68 -7zM746 1634
q-36 0 -60 25t-24 65q0 48 32.5 84t75.5 36q41 0 65.5 -24t24.5 -62q0 -49 -34.5 -86.5t-79.5 -37.5z" />
    <glyph glyph-name="uni1E03" unicode="&#x1e03;" horiz-adv-x="1132" 
d="M410 -16q-54 0 -120 13t-116 31l-82 -26l214 1596h138l-58 -478l-34 -204q43 59 101 107t127 76.5t144 28.5q155 0 233.5 -112.5t78.5 -309.5q0 -163 -70 -330q-48 -112 -127.5 -200.5t-187.5 -140t-241 -51.5zM432 92q142 0 248 94q102 93 153 232t51 272q0 162 -47 244
t-137 82q-56 0 -108.5 -21.5t-99 -57.5t-85 -80.5t-67.5 -90.5l-86 -640q77 -34 178 -34zM764 1310q-36 0 -60 25t-24 65q0 48 32.5 84t75.5 36q41 0 65.5 -24t24.5 -62q0 -49 -34.5 -86.5t-79.5 -37.5z" />
    <glyph glyph-name="uni1E08" unicode="&#x1e08;" horiz-adv-x="1114" 
d="M608 -14q-180 0 -292 94q-112 93 -160 240t-48 316q0 257 92 456q92 198 251.5 308t352.5 110q50 0 91 -4.5t92.5 -17.5t132.5 -38l-52 -124q-49 26 -112 43t-158 17q-176 0 -298 -110q-123 -109 -182.5 -278.5t-59.5 -349.5q0 -150 39 -274t122 -198t215 -74
q67 0 136 16t127.5 40t94.5 48l22 -124q-38 -24 -82.5 -42t-95.5 -30t-108 -18t-120 -6zM426 -454q-40 0 -83.5 8t-60.5 20l20 112q17 -9 39 -13.5t47 -4.5q83 0 132.5 48t49.5 142q0 56 -7 97.5t-15 66.5l58 4l40 -4q23 -36 37.5 -85.5t14.5 -112.5q0 -148 -78 -213
t-194 -65zM786 1634l-62 54l304 390l112 -102q-16 -25 -47.5 -62t-72.5 -79t-84 -82t-82.5 -71.5t-67.5 -47.5z" />
    <glyph glyph-name="uni1E09" unicode="&#x1e09;" horiz-adv-x="890" 
d="M450 -16q-117 0 -198 52.5t-123.5 150.5t-42.5 235q0 163 66 328t194 271.5t302 106.5q39 0 79 -4.5t75 -13.5t60 -22l-38 -124q-23 19 -53 31.5t-65 18.5t-72 6q-52 0 -100.5 -19.5t-95.5 -60.5q-91 -79 -146.5 -214.5t-55.5 -287.5q0 -175 59 -258.5t177 -83.5
q78 0 143 36t135 108l50 -80q-33 -44 -85 -84.5t-119 -66t-146 -25.5zM282 -454q-40 0 -83.5 8t-60.5 20l20 112q17 -9 39 -13.5t47 -4.5q83 0 132.5 48t49.5 142q0 56 -7 97.5t-15 66.5l58 4l40 -4q23 -36 37.5 -85.5t14.5 -112.5q0 -148 -78 -213t-194 -65zM630 1316
l-62 54l304 390l112 -102q-16 -25 -47.5 -62t-72.5 -79t-84 -82t-82.5 -71.5t-67.5 -47.5z" />
    <glyph glyph-name="uni1E0A" unicode="&#x1e0a;" horiz-adv-x="1344" 
d="M510 -16q-57 2 -104 6t-97 7t-115 3h-76l188 1494h114q23 0 50 1.5t56 4t59.5 5t61 4t59.5 1.5q290 0 426 -166.5t136 -459.5q0 -188 -53.5 -353t-153 -289.5t-239 -193t-312.5 -64.5zM530 96q185 0 318 112q132 111 200 288.5t68 379.5q0 183 -46 300q-46 114 -145 169
t-261 55q-46 0 -102 -4.5t-124 -13.5l-158 -1260q74 -13 136 -19.5t114 -6.5zM812 1634q-36 0 -60 25t-24 65q0 48 32.5 84t75.5 36q41 0 65.5 -24t24.5 -62q0 -49 -34.5 -86.5t-79.5 -37.5z" />
    <glyph glyph-name="uni1E0B" unicode="&#x1e0b;" horiz-adv-x="1122" 
d="M388 -16q-154 0 -232 113t-78 309q0 162 70 332q47 112 125.5 200t186 139t242.5 51q38 0 81.5 -6t92.5 -18l68 494h144l-218 -1598h-130l20 204q-41 -60 -99.5 -110t-128 -80t-144.5 -30zM414 98q56 0 108 22t98 59.5t85 83t67 91.5l88 634q-83 34 -180 34
q-143 0 -244 -92q-103 -93 -155.5 -232.5t-52.5 -273.5q0 -108 21.5 -180.5t63 -109t101.5 -36.5zM560 1310q-36 0 -60 25t-24 65q0 48 32.5 84t75.5 36q41 0 65.5 -24t24.5 -62q0 -49 -34.5 -86.5t-79.5 -37.5z" />
    <glyph glyph-name="uni1E0C" unicode="&#x1e0c;" horiz-adv-x="1344" 
d="M510 -16q-57 2 -104 6t-97 7t-115 3h-76l188 1494h114q23 0 50 1.5t56 4t59.5 5t61 4t59.5 1.5q290 0 426 -166.5t136 -459.5q0 -188 -53.5 -353t-153 -289.5t-239 -193t-312.5 -64.5zM530 96q185 0 318 112q132 111 200 288.5t68 379.5q0 183 -46 300q-46 114 -145 169
t-261 55q-46 0 -102 -4.5t-124 -13.5l-158 -1260q74 -13 136 -19.5t114 -6.5zM538 -434q-36 0 -60 25t-24 65q0 48 32.5 84t75.5 36q41 0 65.5 -24t24.5 -62q0 -49 -34.5 -86.5t-79.5 -37.5z" />
    <glyph glyph-name="uni1E0D" unicode="&#x1e0d;" horiz-adv-x="1122" 
d="M388 -16q-154 0 -232 113t-78 309q0 162 70 332q47 112 125.5 200t186 139t242.5 51q38 0 81.5 -6t92.5 -18l68 494h144l-218 -1598h-130l20 204q-41 -60 -99.5 -110t-128 -80t-144.5 -30zM414 98q56 0 108 22t98 59.5t85 83t67 91.5l88 634q-83 34 -180 34
q-143 0 -244 -92q-103 -93 -155.5 -232.5t-52.5 -273.5q0 -108 21.5 -180.5t63 -109t101.5 -36.5zM428 -434q-36 0 -60 25t-24 65q0 48 32.5 84t75.5 36q41 0 65.5 -24t24.5 -62q0 -49 -34.5 -86.5t-79.5 -37.5z" />
    <glyph glyph-name="uni1E0E" unicode="&#x1e0e;" horiz-adv-x="1344" 
d="M510 -16q-57 2 -104 6t-97 7t-115 3h-76l188 1494h114q23 0 50 1.5t56 4t59.5 5t61 4t59.5 1.5q290 0 426 -166.5t136 -459.5q0 -188 -53.5 -353t-153 -289.5t-239 -193t-312.5 -64.5zM530 96q185 0 318 112q132 111 200 288.5t68 379.5q0 183 -46 300q-46 114 -145 169
t-261 55q-46 0 -102 -4.5t-124 -13.5l-158 -1260q74 -13 136 -19.5t114 -6.5zM308 -338l4 112h500l-4 -112h-500z" />
    <glyph glyph-name="uni1E0F" unicode="&#x1e0f;" horiz-adv-x="1122" 
d="M388 -16q-154 0 -232 113t-78 309q0 162 70 332q47 112 125.5 200t186 139t242.5 51q38 0 81.5 -6t92.5 -18l68 494h144l-218 -1598h-130l20 204q-41 -60 -99.5 -110t-128 -80t-144.5 -30zM414 98q56 0 108 22t98 59.5t85 83t67 91.5l88 634q-83 34 -180 34
q-143 0 -244 -92q-103 -93 -155.5 -232.5t-52.5 -273.5q0 -108 21.5 -180.5t63 -109t101.5 -36.5zM198 -338l4 112h500l-4 -112h-500z" />
    <glyph glyph-name="uni1E14" unicode="&#x1e14;" horiz-adv-x="1112" 
d="M118 0l188 1494h738l-4 -118l-600 8l-72 -566l464 6l-10 -124l-468 10l-76 -598l720 12l-10 -124h-870zM480 1676l4 112h500l-4 -112h-500zM850 1946q-39 29 -87.5 71t-97 90.5t-89.5 95t-64 83.5l114 102l288 -388z" />
    <glyph glyph-name="uni1E15" unicode="&#x1e15;" horiz-adv-x="1006" 
d="M468 -16q-132 0 -220 64q-85 65 -124.5 166t-35.5 216q3 193 80 356q75 159 204 250.5t292 91.5q73 0 135 -29t99.5 -83.5t37.5 -131.5q0 -100 -58 -178t-157 -134.5t-223 -91t-256 -48.5q-1 -4 -1.5 -12.5t-0.5 -19.5q0 -126 56 -213t188 -87q55 0 113.5 18.5t116 55.5
t110.5 92l42 -84q-22 -31 -68 -65.5t-104 -64.5t-117 -49t-109 -19zM246 538q87 2 182 26.5t178 68.5t134.5 104.5t51.5 134.5t-41.5 110t-118.5 36q-51 0 -97.5 -17.5t-88.5 -52.5q-85 -72 -137 -184t-63 -226zM440 1332l12 112h500l-12 -112h-500zM838 1602
q-39 29 -87.5 71t-97 90.5t-89.5 95t-64 83.5l114 102l288 -388z" />
    <glyph glyph-name="uni1E16" unicode="&#x1e16;" horiz-adv-x="1112" 
d="M118 0l188 1494h738l-4 -118l-600 8l-72 -566l464 6l-10 -124l-468 10l-76 -598l720 12l-10 -124h-870zM480 1676l4 112h500l-4 -112h-500zM720 1946l-62 54l304 390l112 -102q-16 -25 -47.5 -62t-72.5 -79t-84 -82t-82.5 -71.5t-67.5 -47.5z" />
    <glyph glyph-name="uni1E17" unicode="&#x1e17;" horiz-adv-x="1006" 
d="M468 -16q-132 0 -220 64q-85 65 -124.5 166t-35.5 216q3 193 80 356q75 159 204 250.5t292 91.5q73 0 135 -29t99.5 -83.5t37.5 -131.5q0 -100 -58 -178t-157 -134.5t-223 -91t-256 -48.5q-1 -4 -1.5 -12.5t-0.5 -19.5q0 -126 56 -213t188 -87q55 0 113.5 18.5t116 55.5
t110.5 92l42 -84q-22 -31 -68 -65.5t-104 -64.5t-117 -49t-109 -19zM246 538q87 2 182 26.5t178 68.5t134.5 104.5t51.5 134.5t-41.5 110t-118.5 36q-51 0 -97.5 -17.5t-88.5 -52.5q-85 -72 -137 -184t-63 -226zM440 1332l12 112h500l-12 -112h-500zM690 1602l-62 54
l304 390l112 -102q-16 -25 -47.5 -62t-72.5 -79t-84 -82t-82.5 -71.5t-67.5 -47.5z" />
    <glyph glyph-name="uni1E1C" unicode="&#x1e1c;" horiz-adv-x="1112" 
d="M118 0l188 1494h738l-4 -118l-600 8l-72 -566l464 6l-10 -124l-468 10l-76 -598l720 12l-10 -124h-870zM398 -454q-40 0 -83.5 8t-60.5 20l20 112q17 -9 39 -13.5t47 -4.5q83 0 132.5 48t49.5 142q0 56 -7 97.5t-15 66.5l58 4l40 -4q23 -36 37.5 -85.5t14.5 -112.5
q0 -148 -78 -213t-194 -65zM722 1634q-87 0 -157 48.5t-107 125.5t-24 162h100q0 -91 50.5 -158.5t141.5 -67.5q64 0 111.5 34.5t76 86.5t36.5 105h98q0 -94 -46 -170t-120.5 -121t-159.5 -45z" />
    <glyph glyph-name="uni1E1D" unicode="&#x1e1d;" horiz-adv-x="1006" 
d="M468 -16q-132 0 -220 64q-85 65 -124.5 166t-35.5 216q3 193 80 356q75 159 204 250.5t292 91.5q73 0 135 -29t99.5 -83.5t37.5 -131.5q0 -100 -58 -178t-157 -134.5t-223 -91t-256 -48.5q-1 -4 -1.5 -12.5t-0.5 -19.5q0 -126 56 -213t188 -87q55 0 113.5 18.5t116 55.5
t110.5 92l42 -84q-22 -31 -68 -65.5t-104 -64.5t-117 -49t-109 -19zM246 538q87 2 182 26.5t178 68.5t134.5 104.5t51.5 134.5t-41.5 110t-118.5 36q-51 0 -97.5 -17.5t-88.5 -52.5q-85 -72 -137 -184t-63 -226zM322 -454q-40 0 -83.5 8t-60.5 20l20 112q17 -9 39 -13.5
t47 -4.5q83 0 132.5 48t49.5 142q0 56 -7 97.5t-15 66.5l58 4l40 -4q23 -36 37.5 -85.5t14.5 -112.5q0 -148 -78 -213t-194 -65zM674 1264q-97 0 -163.5 48.5t-96 125.5t-16.5 162h100q0 -61 15.5 -112.5t54.5 -82.5t110 -31q74 0 120.5 34.5t71 86.5t32.5 105h98
q0 -94 -42 -170t-115.5 -121t-168.5 -45z" />
    <glyph glyph-name="uni1E1E" unicode="&#x1e1e;" horiz-adv-x="1032" 
d="M118 0l188 1494h762l-12 -118l-616 8l-72 -568l496 8l-10 -128l-500 12l-90 -708h-146zM656 1634q-36 0 -60 25t-24 65q0 48 32.5 84t75.5 36q41 0 65.5 -24t24.5 -62q0 -49 -34.5 -86.5t-79.5 -37.5z" />
    <glyph glyph-name="uni1E1F" unicode="&#x1e1f;" horiz-adv-x="678" 
d="M164 0l132 998h-148l22 114l142 2l18 120q8 62 24.5 115t41.5 99q50 90 133 140t191 50q44 0 79 -5t69 -19l-36 -118q-22 15 -55 22.5t-75 7.5q-91 0 -150 -76t-74 -178l-20 -158h238l-10 -116h-244l-134 -998h-144zM650 1808q-36 0 -60 25t-24 65q0 48 32.5 84t75.5 36
q41 0 65.5 -24t24.5 -62q0 -49 -34.5 -86.5t-79.5 -37.5z" />
    <glyph glyph-name="uni1E20" unicode="&#x1e20;" horiz-adv-x="1308" 
d="M602 -16q-165 0 -276 90q-109 90 -161.5 233t-54.5 305q-6 259 88 468q95 204 260.5 317t367.5 113q56 0 103 -3.5t92 -11.5t93 -20.5t104 -30.5l-48 -134q-36 21 -86.5 39.5t-115.5 29.5t-144 11q-179 0 -308 -108q-127 -109 -192.5 -281.5t-65.5 -360.5
q0 -145 39 -268.5t120.5 -198.5t210.5 -75q78 0 173 24t191 60l50 410l-274 2l16 118h420l-80 -620q-31 -4 -64.5 -13t-101.5 -29q-100 -30 -182 -48t-174 -18zM562 1676l4 112h500l-4 -112h-500z" />
    <glyph glyph-name="uni1E21" unicode="&#x1e21;" horiz-adv-x="1122" 
d="M362 -494q-43 0 -93.5 5.5t-93.5 13.5t-63 17l38 122q29 -13 68 -23.5t83 -16.5t89 -6q134 0 216 75t106 217l48 294q-61 -90 -160 -155t-212 -65q-154 0 -232 113t-78 309q0 162 70 332q47 112 125.5 200t186 139t242.5 51q48 0 107 -10t107 -24l114 34l-172 -1214
q-10 -73 -34.5 -132t-63.5 -106q-79 -90 -184.5 -130t-213.5 -40zM414 98q53 0 104.5 22t98 58.5t86 81t67.5 90.5l94 636q-40 17 -88.5 26.5t-95.5 9.5q-141 0 -244 -94t-155.5 -232t-52.5 -272q0 -108 21.5 -180.5t63 -109t101.5 -36.5zM482 1332l12 112h500l-12 -112
h-500z" />
    <glyph glyph-name="uni1E24" unicode="&#x1e24;" horiz-adv-x="1376" 
d="M118 0l188 1494h148l-86 -684h708l86 684h146l-186 -1494h-148l88 698h-710l-88 -698h-146zM556 -434q-36 0 -60 25t-24 65q0 48 32.5 84t75.5 36q41 0 65.5 -24t24.5 -62q0 -49 -34.5 -86.5t-79.5 -37.5z" />
    <glyph glyph-name="uni1E25" unicode="&#x1e25;" horiz-adv-x="1170" 
d="M94 0l206 1598h146l-54 -468l-44 -280q95 119 219.5 198.5t244.5 79.5q119 0 172.5 -67t53.5 -207q0 -18 -3 -52t-9.5 -85.5t-16 -121t-22.5 -158t-29.5 -197.5t-37.5 -240h-146q2 13 10 65.5t19 122.5t21 139t17.5 117.5t8.5 55.5q20 140 30 216.5t10 125.5
q0 80 -29.5 116t-106.5 36q-71 0 -151 -46t-151.5 -113.5t-117.5 -130.5l-94 -704h-146zM452 -434q-36 0 -60 25t-24 65q0 48 32.5 84t75.5 36q41 0 65.5 -24t24.5 -62q0 -49 -34.5 -86.5t-79.5 -37.5z" />
    <glyph glyph-name="uni1E2A" unicode="&#x1e2a;" horiz-adv-x="1376" 
d="M118 0l188 1494h148l-86 -684h708l86 684h146l-186 -1494h-148l88 698h-710l-88 -698h-146zM542 -488q-87 0 -153 48.5t-99 125.5t-20 162h100q0 -91 42.5 -153.5t133.5 -62.5q96 0 152.5 58t71.5 158h98q0 -94 -46 -170t-120.5 -121t-159.5 -45z" />
    <glyph glyph-name="uni1E2B" unicode="&#x1e2b;" horiz-adv-x="1170" 
d="M94 0l206 1598h146l-54 -468l-44 -280q95 119 219.5 198.5t244.5 79.5q119 0 172.5 -67t53.5 -207q0 -18 -3 -52t-9.5 -85.5t-16 -121t-22.5 -158t-29.5 -197.5t-37.5 -240h-146q2 13 10 65.5t19 122.5t21 139t17.5 117.5t8.5 55.5q20 140 30 216.5t10 125.5
q0 80 -29.5 116t-106.5 36q-71 0 -151 -46t-151.5 -113.5t-117.5 -130.5l-94 -704h-146zM438 -488q-87 0 -153 48.5t-99 125.5t-20 162h100q0 -91 42.5 -153.5t133.5 -62.5q96 0 152.5 58t71.5 158h98q0 -94 -46 -170t-120.5 -121t-159.5 -45z" />
    <glyph glyph-name="uni1E2E" unicode="&#x1e2e;" horiz-adv-x="558" 
d="M142 0l188 1494h148l-188 -1494h-148zM218 1634q-34 0 -59 25.5t-25 62.5q0 48 33.5 84t76.5 36q41 0 65.5 -23t24.5 -61q0 -52 -34 -88t-82 -36zM630 1634q-36 0 -60 25.5t-24 62.5q0 50 32 85t78 35q41 0 64.5 -23t23.5 -61q0 -52 -33.5 -88t-80.5 -36zM440 1978
l-62 54l304 390l112 -102q-16 -25 -47.5 -62t-72.5 -79t-84 -82t-82.5 -71.5t-67.5 -47.5z" />
    <glyph glyph-name="uni1E2F" unicode="&#x1e2f;" horiz-adv-x="550" 
d="M130 0l150 1118h146l-152 -1118h-144zM164 1324q-34 0 -59 25.5t-25 62.5q0 48 33.5 84t76.5 36q41 0 65.5 -23t24.5 -61q0 -52 -34 -88t-82 -36zM576 1324q-36 0 -60 25.5t-24 62.5q0 50 32 85t78 35q41 0 64.5 -23t23.5 -61q0 -52 -33.5 -88t-80.5 -36zM388 1662
l-62 54l304 390l112 -102q-16 -25 -47.5 -62t-72.5 -79t-84 -82t-82.5 -71.5t-67.5 -47.5z" />
    <glyph glyph-name="uni1E36" unicode="&#x1e36;" horiz-adv-x="956" 
d="M118 0l188 1494h148l-174 -1370l580 2l-16 -126h-726zM424 -434q-36 0 -60 25t-24 65q0 48 32.5 84t75.5 36q41 0 65.5 -24t24.5 -62q0 -49 -34.5 -86.5t-79.5 -37.5z" />
    <glyph glyph-name="uni1E37" unicode="&#x1e37;" horiz-adv-x="550" 
d="M130 2l218 1596h144l-216 -1596h-146zM148 -434q-36 0 -60 25t-24 65q0 48 32.5 84t75.5 36q41 0 65.5 -24t24.5 -62q0 -49 -34.5 -86.5t-79.5 -37.5z" />
    <glyph glyph-name="uni1E3A" unicode="&#x1e3a;" horiz-adv-x="956" 
d="M118 0l188 1494h148l-174 -1370l580 2l-16 -126h-726zM194 -338l4 112h500l-4 -112h-500z" />
    <glyph glyph-name="uni1E3B" unicode="&#x1e3b;" horiz-adv-x="550" 
d="M130 2l218 1596h144l-216 -1596h-146zM-82 -338l4 112h500l-4 -112h-500z" />
    <glyph glyph-name="uni1E40" unicode="&#x1e40;" horiz-adv-x="1750" 
d="M748 -18l-166 1038l-50 378l-74 -386l-238 -1012h-150l372 1494h188l170 -1042l30 -232l90 230l450 1044h212l-42 -1494h-150l48 998l22 400l-154 -354l-454 -1048zM1016 1634q-36 0 -60 25t-24 65q0 48 32.5 84t75.5 36q41 0 65.5 -24t24.5 -62q0 -49 -34.5 -86.5
t-79.5 -37.5z" />
    <glyph glyph-name="uni1E41" unicode="&#x1e41;" horiz-adv-x="1740" 
d="M90 2l152 1112h138l-28 -248q86 114 199.5 188t222.5 74q104 0 157.5 -55t60.5 -169q84 98 189 161t207 63q113 0 167.5 -63.5t54.5 -212.5q0 -45 -10 -133t-30 -219q-6 -48 -23.5 -162.5t-52.5 -335.5h-146q4 26 12.5 83.5t19 128t20 135.5t16 107.5t6.5 43.5
q20 125 30 210.5t10 131.5q0 80 -30 116t-102 36q-73 0 -168.5 -63.5t-173.5 -158.5q-3 -36 -10.5 -97t-21.5 -147q-2 -16 -6 -43l-10 -67.5t-15 -98.5t-21 -136.5t-28 -180.5h-144l9.5 66.5t14 95.5t21 139t29.5 197q20 138 30 215.5t10 126.5q0 83 -30 118.5t-102 35.5
q-40 0 -94.5 -28.5t-110 -73.5t-103 -94.5t-74.5 -91.5l-96 -706h-146zM974 1310q-36 0 -60 25t-24 65q0 48 32.5 84t75.5 36q41 0 65.5 -24t24.5 -62q0 -49 -34.5 -86.5t-79.5 -37.5z" />
    <glyph glyph-name="uni1E42" unicode="&#x1e42;" horiz-adv-x="1750" 
d="M748 -18l-166 1038l-50 378l-74 -386l-238 -1012h-150l372 1494h188l170 -1042l30 -232l90 230l450 1044h212l-42 -1494h-150l48 998l22 400l-154 -354l-454 -1048zM742 -434q-36 0 -60 25t-24 65q0 48 32.5 84t75.5 36q41 0 65.5 -24t24.5 -62q0 -49 -34.5 -86.5
t-79.5 -37.5z" />
    <glyph glyph-name="uni1E43" unicode="&#x1e43;" horiz-adv-x="1740" 
d="M90 2l152 1112h138l-28 -248q86 114 199.5 188t222.5 74q104 0 157.5 -55t60.5 -169q84 98 189 161t207 63q113 0 167.5 -63.5t54.5 -212.5q0 -45 -10 -133t-30 -219q-6 -48 -23.5 -162.5t-52.5 -335.5h-146q4 26 12.5 83.5t19 128t20 135.5t16 107.5t6.5 43.5
q20 125 30 210.5t10 131.5q0 80 -30 116t-102 36q-73 0 -168.5 -63.5t-173.5 -158.5q-3 -36 -10.5 -97t-21.5 -147q-2 -16 -6 -43l-10 -67.5t-15 -98.5t-21 -136.5t-28 -180.5h-144l9.5 66.5t14 95.5t21 139t29.5 197q20 138 30 215.5t10 126.5q0 83 -30 118.5t-102 35.5
q-40 0 -94.5 -28.5t-110 -73.5t-103 -94.5t-74.5 -91.5l-96 -706h-146zM736 -434q-36 0 -60 25t-24 65q0 48 32.5 84t75.5 36q41 0 65.5 -24t24.5 -62q0 -49 -34.5 -86.5t-79.5 -37.5z" />
    <glyph glyph-name="uni1E44" unicode="&#x1e44;" horiz-adv-x="1370" 
d="M118 0l188 1494h154l480 -1100l70 -202l22 232l130 1070h140l-188 -1494h-146l-482 1096l-70 234l-30 -282l-130 -1048h-138zM826 1634q-36 0 -60 25t-24 65q0 48 32.5 84t75.5 36q41 0 65.5 -24t24.5 -62q0 -49 -34.5 -86.5t-79.5 -37.5z" />
    <glyph glyph-name="uni1E45" unicode="&#x1e45;" horiz-adv-x="1166" 
d="M90 0l152 1114h136l-28 -260q95 119 218.5 196.5t241.5 77.5q119 0 172.5 -66t53.5 -206q0 -32 -5 -80.5t-14.5 -116.5t-22.5 -159q-3 -19 -7 -44t-9.5 -61.5t-13.5 -90t-19 -128.5t-27 -176h-144q5 35 13 92.5t22.5 155t38.5 252.5q20 138 30 215.5t10 126.5
q0 83 -30.5 117.5t-107.5 34.5q-53 0 -112.5 -27.5t-117.5 -72t-107.5 -96t-82.5 -98.5l-94 -700h-146zM688 1310q-36 0 -60 25t-24 65q0 48 32.5 84t75.5 36q41 0 65.5 -24t24.5 -62q0 -49 -34.5 -86.5t-79.5 -37.5z" />
    <glyph glyph-name="uni1E46" unicode="&#x1e46;" horiz-adv-x="1370" 
d="M118 0l188 1494h154l480 -1100l70 -202l22 232l130 1070h140l-188 -1494h-146l-482 1096l-70 234l-30 -282l-130 -1048h-138zM552 -434q-36 0 -60 25t-24 65q0 48 32.5 84t75.5 36q41 0 65.5 -24t24.5 -62q0 -49 -34.5 -86.5t-79.5 -37.5z" />
    <glyph glyph-name="uni1E47" unicode="&#x1e47;" horiz-adv-x="1166" 
d="M90 0l152 1114h136l-28 -260q95 119 218.5 196.5t241.5 77.5q119 0 172.5 -66t53.5 -206q0 -32 -5 -80.5t-14.5 -116.5t-22.5 -159q-3 -19 -7 -44t-9.5 -61.5t-13.5 -90t-19 -128.5t-27 -176h-144q5 35 13 92.5t22.5 155t38.5 252.5q20 138 30 215.5t10 126.5
q0 83 -30.5 117.5t-107.5 34.5q-53 0 -112.5 -27.5t-117.5 -72t-107.5 -96t-82.5 -98.5l-94 -700h-146zM450 -434q-36 0 -60 25t-24 65q0 48 32.5 84t75.5 36q41 0 65.5 -24t24.5 -62q0 -49 -34.5 -86.5t-79.5 -37.5z" />
    <glyph glyph-name="uni1E48" unicode="&#x1e48;" horiz-adv-x="1370" 
d="M118 0l188 1494h154l480 -1100l70 -202l22 232l130 1070h140l-188 -1494h-146l-482 1096l-70 234l-30 -282l-130 -1048h-138zM322 -338l4 112h500l-4 -112h-500z" />
    <glyph glyph-name="uni1E49" unicode="&#x1e49;" horiz-adv-x="1166" 
d="M90 0l152 1114h136l-28 -260q95 119 218.5 196.5t241.5 77.5q119 0 172.5 -66t53.5 -206q0 -32 -5 -80.5t-14.5 -116.5t-22.5 -159q-3 -19 -7 -44t-9.5 -61.5t-13.5 -90t-19 -128.5t-27 -176h-144q5 35 13 92.5t22.5 155t38.5 252.5q20 138 30 215.5t10 126.5
q0 83 -30.5 117.5t-107.5 34.5q-53 0 -112.5 -27.5t-117.5 -72t-107.5 -96t-82.5 -98.5l-94 -700h-146zM220 -338l4 112h500l-4 -112h-500z" />
    </font>
</defs>
</svg>
