<?xml version="1.0" standalone="no"?>
<!DOCTYPE svg PUBLIC "-//W3C//DTD SVG 1.1//EN" "http://www.w3.org/Graphics/SVG/1.1/DTD/svg11.dtd" >
<svg xmlns="http://www.w3.org/2000/svg" xmlns:xlink="http://www.w3.org/1999/xlink" version="1.1">
<metadata>
Created by FontForge 20201107 at Fri Aug 21 16:47:58 2020
 By 
Copyright 2019 The Merriweather Project Authors (https://github.com/SorkinType/Merriweather-Sans)
</metadata>
<defs>
<font id="MerriweatherSans-SemiBoldItalic" horiz-adv-x="0" >
  <font-face 
    font-family="Merriweather Sans SemiBold"
    font-weight="600"
    font-style="italic"
    font-stretch="normal"
    units-per-em="2000"
    panose-1="0 0 0 0 0 0 0 0 0 0"
    ascent="1600"
    descent="-400"
    x-height="1114"
    cap-height="1494"
    bbox="-574 -655 2794 2592"
    underline-thickness="110"
    underline-position="-299"
    slope="-7.5"
    unicode-range="U+000D-FB02"
  />
<missing-glyph horiz-adv-x="1828" 
d="M215 0v1382h1382v-1382h-1382zM565 214l338 360l354 -360l119 120l-355 358l355 350l-125 122l-344 -358l-348 360l-120 -124l350 -354l-350 -334z" />
    <glyph glyph-name="fi" unicode="fi" horiz-adv-x="1366" 
d="M125 0l127 930h-128l35 184h117l17 97q10 66 30 123.5t51 107.5q59 92 152 143t214 51q50 0 90 -6t71 -19l-56 -196q-16 15 -47 27.5t-72 11.5q-64 0 -104 -49t-54 -141l-24 -150h194l-19 -184h-198l-127 -930h-269zM854 0l151 1114h275l-153 -1114h-273zM1186 1312
q-55 0 -97.5 40.5t-42.5 96.5q0 70 51 121.5t124 51.5q63 0 105.5 -39t42.5 -95q0 -74 -52 -125t-131 -51z" />
    <glyph glyph-name="fl" unicode="fl" horiz-adv-x="1327" 
d="M125 0l127 930h-128l35 184h117l17 97q10 66 30 123.5t51 107.5q59 92 152 143t214 51q50 0 90 -6t71 -19l-56 -196q-16 15 -47 27.5t-72 11.5q-64 0 -104 -49t-54 -141l-24 -150h194l-19 -184h-198l-127 -930h-269zM816 2l216 1596h274l-216 -1596h-274z" />
    <glyph glyph-name="f_f" unicode="ff" horiz-adv-x="1429" 
d="M125 0l127 930h-128l35 184h117l17 97q10 66 30 123.5t51 107.5q59 92 152 143t214 51q50 0 90 -6t71 -19l-56 -196q-16 15 -47 27.5t-72 11.5q-64 0 -104 -49t-54 -141l-24 -150h194l-19 -184h-198l-127 -930h-269zM840 0l127 930h-128l35 184h117l17 97q10 66 30 123.5
t51 107.5q59 92 152 143t214 51q50 0 90 -6t71 -19l-56 -196q-16 15 -47 27.5t-72 11.5q-64 0 -104 -49t-54 -141l-24 -150h194l-19 -184h-198l-127 -930h-269z" />
    <glyph glyph-name="f_f_i" unicode="ffi" horiz-adv-x="2041" 
d="M125 0l127 930h-128l35 184h117l17 97q10 66 30 123.5t51 107.5q59 92 152 143t214 51q50 0 90 -6t71 -19l-56 -196q-16 15 -47 27.5t-72 11.5q-64 0 -104 -49t-54 -141l-24 -150h194l-19 -184h-198l-127 -930h-269zM840 0l127 930h-128l35 184h117l17 97q10 66 30 123.5
t51 107.5q59 92 152 143t214 51q50 0 90 -6t71 -19l-56 -196q-16 15 -47 27.5t-72 11.5q-64 0 -104 -49t-54 -141l-24 -150h194l-19 -184h-198l-127 -930h-269zM1568 0l151 1114h275l-153 -1114h-273zM1860 1312q-55 0 -97.5 40.5t-42.5 96.5q0 70 51 121.5t124 51.5
q63 0 105.5 -39t42.5 -95q0 -74 -52 -125t-131 -51z" />
    <glyph glyph-name="f_f_l" unicode="ffl" horiz-adv-x="2041" 
d="M125 0l127 930h-128l35 184h117l17 97q10 66 30 123.5t51 107.5q59 92 152 143t214 51q50 0 90 -6t71 -19l-56 -196q-16 15 -47 27.5t-72 11.5q-64 0 -104 -49t-54 -141l-24 -150h194l-19 -184h-198l-127 -930h-269zM840 0l127 930h-128l35 184h117l17 97q10 66 30 123.5
t51 107.5q59 92 152 143t214 51q50 0 90 -6t71 -19l-56 -196q-16 15 -47 27.5t-72 11.5q-64 0 -104 -49t-54 -141l-24 -150h194l-19 -184h-198l-127 -930h-269zM1530 2l216 1596h274l-216 -1596h-274z" />
    <glyph glyph-name=".notdef" horiz-adv-x="1828" 
d="M215 0v1382h1382v-1382h-1382zM565 214l338 360l354 -360l119 120l-355 358l355 350l-125 122l-344 -358l-348 360l-120 -124l350 -354l-350 -334z" />
    <glyph glyph-name="uni0000" 
 />
    <glyph glyph-name="uni0000" 
 />
    <glyph glyph-name="nonmarkingreturn" horiz-adv-x="666" 
 />
    <glyph glyph-name="CR" unicode="&#xd;" 
 />
    <glyph glyph-name="space" unicode=" " horiz-adv-x="360" 
 />
    <glyph glyph-name="exclam" unicode="!" horiz-adv-x="670" 
d="M217 478l142 1258h292l-228 -1258h-206zM245 -17q-61 0 -99 35.5t-38 92.5q2 76 56.5 131.5t133.5 55.5q71 0 105.5 -34.5t33.5 -90.5q-1 -83 -54.5 -136.5t-137.5 -53.5z" />
    <glyph glyph-name="quotedbl" unicode="&#x22;" horiz-adv-x="1046" 
d="M214 944l80 704h274l-171 -704h-183zM728 944l80 704h274l-171 -704h-183z" />
    <glyph glyph-name="numbersign" unicode="#" horiz-adv-x="1372" 
d="M240 0l56 334h-189l14 176h199l57 342h-195l13 173h206l49 301h202l-47 -301h263l52 301h202l-49 -301h206l-14 -173h-217l-57 -342h201l-14 -176h-213l-54 -334h-197l48 334h-263l-60 -334h-199zM525 510h263l55 342h-263z" />
    <glyph glyph-name="dollar" unicode="$" horiz-adv-x="1176" 
d="M355 -248l40 234q-63 6 -124.5 20.5t-108 32t-65.5 32.5l84 219q28 -24 78 -46t106.5 -35.5t105.5 -13.5q68 0 126.5 19.5t95 60.5t36.5 104q0 78 -46.5 141t-151.5 136q-136 95 -210.5 201.5t-74.5 239.5q0 111 49 195t135.5 136.5t196.5 70.5l37 222h208l-37 -217
q82 -6 144 -27t102 -51l-86 -214q-25 26 -69 45t-95.5 29.5t-97.5 10.5q-65 0 -115.5 -18t-80 -53.5t-30.5 -90.5q-2 -50 26 -100.5t76.5 -98.5t108.5 -92q88 -64 153 -126t101 -133t36 -163q1 -123 -47.5 -213t-139.5 -145.5t-218 -73.5l-41 -238h-207z" />
    <glyph glyph-name="percent" unicode="%" horiz-adv-x="1831" 
d="M426 0l811 1494h192l-800 -1494h-203zM430 691q-142 0 -225.5 90t-83.5 239q0 119 54.5 222.5t151 166.5t221.5 63q101 0 169.5 -39t103 -109.5t34.5 -164.5q0 -126 -53.5 -232.5t-149 -171t-222.5 -64.5zM453 854q65 0 108.5 46t66.5 112.5t23 128.5q0 78 -33.5 123.5
t-92.5 45.5q-70 0 -116 -44t-69 -108.5t-23 -127.5q0 -80 36 -128t100 -48zM1342 60q-86 0 -156 40.5t-111 114.5t-41 174q0 119 54 222t150.5 166.5t222.5 63.5q101 0 169 -39t102.5 -109.5t34.5 -164.5q0 -126 -53.5 -232.5t-149 -171t-222.5 -64.5zM1366 223
q65 0 108.5 46t66.5 112.5t23 128.5q0 80 -33.5 124.5t-92.5 44.5q-70 0 -116.5 -43.5t-69.5 -108.5t-23 -128q0 -80 36.5 -128t100.5 -48z" />
    <glyph glyph-name="ampersand" unicode="&#x26;" horiz-adv-x="1514" 
d="M613 -16q-170 0 -297.5 40t-198.5 122.5t-71 209.5q0 93 36.5 166.5t109 132.5t180.5 108q-36 81 -59 169t-23 160q0 125 57.5 219t158.5 146.5t230 52.5q120 0 202.5 -42t126 -110.5t43.5 -149.5q0 -106 -49 -187.5t-143.5 -153t-230.5 -148.5q76 -126 155.5 -228
t163.5 -182q37 43 54.5 95.5t17.5 114.5v51t-5 50q-32 -3 -60 -9.5t-45 -16.5l10 178q20 23 60 30.5t89 7.5h362l-15 -188h-150q5 -51 0 -101q-13 -206 -141 -336q52 -23 110.5 -30t134.5 -5l-32 -149q-19 -6 -52.5 -10t-72.5 -6.5t-74 -2.5q-56 0 -123.5 16t-122.5 46
q-75 -30 -158 -45t-178 -15zM633 168q39 0 74.5 5t67.5 14q-67 65 -116.5 125t-94 126.5t-96.5 151.5q-72 -39 -110.5 -96.5t-38.5 -119.5q0 -75 41 -120t112 -65.5t161 -20.5zM595 883q81 45 139 90t89.5 95t31.5 110q0 74 -36 115.5t-108 41.5q-50 0 -88.5 -30
t-59.5 -80.5t-21 -110.5q0 -56 13.5 -114t39.5 -117z" />
    <glyph glyph-name="quotesingle" unicode="'" horiz-adv-x="532" 
d="M214 944l80 704h274l-171 -704h-183z" />
    <glyph glyph-name="parenleft" unicode="(" horiz-adv-x="834" 
d="M501 -328q-109 85 -185 221t-115.5 297.5t-39.5 321.5q0 149 27.5 298t80.5 288.5t127 260t167.5 214.5t202.5 153l131 -89q-114 -99 -203 -224t-150 -270t-92 -306.5t-31 -334.5q0 -110 16 -216t47 -203t75 -180t99 -148z" />
    <glyph glyph-name="parenright" unicode=")" horiz-adv-x="832" 
d="M121 -331l-146 88q114 101 203 223.5t151 264.5t94.5 300t32.5 327q0 116 -17.5 227t-49 211.5t-76.5 184t-100 144.5l157 84q111 -88 187 -223.5t114.5 -298t38.5 -332.5q0 -173 -46 -353t-127.5 -345.5t-187.5 -296.5t-228 -205z" />
    <glyph glyph-name="asterisk" unicode="*" horiz-adv-x="1278" 
d="M553 598l67 304l33 138l-115 -90l-262 -183l-90 185l296 121l132 51l-121 47l-272 123l120 183l233 -183l98 -85l-6 136l-3 304h211l-68 -304l-36 -136l118 85l269 185l85 -185l-297 -123l-131 -49l121 -49l271 -121l-130 -183l-224 183l-99 88l10 -138l7 -305z" />
    <glyph glyph-name="plus" unicode="+" horiz-adv-x="1327" 
d="M513 265l29 254l24 145l-129 -8h-231l25 209h233l124 -12l11 149l28 249h222l-26 -249l-26 -147l103 10h260l-26 -209h-259l-102 8l-7 -145l-31 -254h-222z" />
    <glyph glyph-name="comma" unicode="," horiz-adv-x="514" 
d="M60 -499l-82 107l4 20q70 37 114.5 109t44.5 152q0 64 -25 114t-64 63l6 52l130 156q68 -26 110 -75.5t62 -111.5t20 -122q0 -106 -39 -202q-40 -93 -112.5 -162t-168.5 -100z" />
    <glyph glyph-name="hyphen" unicode="-" horiz-adv-x="1210" 
d="M209 613l28 202h806l-27 -202h-807z" />
    <glyph glyph-name="period" unicode="." horiz-adv-x="514" 
d="M192 -25q-60 0 -97.5 36t-37.5 94q0 74 50.5 129t128.5 55q71 0 104.5 -35.5t33.5 -93.5q0 -84 -49.5 -134.5t-132.5 -50.5z" />
    <glyph glyph-name="slash" unicode="/" horiz-adv-x="834" 
d="M-115 -354l840 1914h221l-843 -1914h-218z" />
    <glyph glyph-name="zero" unicode="0" horiz-adv-x="1296" 
d="M572 -16q-114 0 -201 47t-145 129t-87.5 189t-29.5 227q0 196 49 364.5t138.5 294.5t211 196.5t265.5 70.5q153 0 256 -76.5t155 -209.5t52 -302q0 -186 -48 -353.5t-136 -297.5t-210 -204.5t-270 -74.5zM600 193q89 0 154.5 63.5t108.5 167t64 227t21 243.5
q0 136 -22 224t-67 131t-114 44q-77 1 -135 -44t-99 -120t-67 -167t-38 -186.5t-12 -176.5q0 -124 23 -215t68.5 -141t114.5 -50z" />
    <glyph glyph-name="one" unicode="1" horiz-adv-x="898" 
d="M270 0l169 1163q-58 -23 -126.5 -40t-133.5 -22l-31 173q68 16 152 53t165 84t139 96h6l154 -22l-215 -1485h-279z" />
    <glyph glyph-name="two" unicode="2" horiz-adv-x="1204" 
d="M64 0l-43 139q106 69 216 152t211 176t181 192t127 199.5t47 198.5q0 62 -22 114t-71 84t-132 32q-68 0 -122.5 -19.5t-100 -49.5t-82.5 -60l-113 143q43 51 113 98t160 77t193 30q133 0 223.5 -38.5t145.5 -102t79 -140t24 -152.5q0 -111 -46.5 -216.5t-125 -203.5
t-174 -185t-195.5 -159t-189 -126l674 30v-213h-978z" />
    <glyph glyph-name="three" unicode="3" horiz-adv-x="1152" 
d="M290 -15q-64 0 -119 4t-111 8l25 199q45 -4 90 -7t80 -3q108 0 194.5 18t147.5 54t93.5 88t32.5 118q0 49 -25.5 94t-81 74.5t-144.5 31.5l-167 -45l16 203q69 12 143 40t138 70t104 94.5t40 113.5q0 77 -45.5 119t-142.5 42q-71 0 -128 -20t-101 -49t-76 -55l-99 157
q47 48 121.5 87t167.5 62.5t198 23.5q108 0 195.5 -36.5t139.5 -107t52 -172.5q0 -97 -48 -178.5t-130.5 -142t-186.5 -97.5q120 -3 199.5 -46.5t118.5 -111t39 -141.5q0 -112 -58.5 -202.5t-160 -154.5t-233 -98t-278.5 -34z" />
    <glyph glyph-name="four" unicode="4" horiz-adv-x="1250" 
d="M628 0l38 299h-588l-59 130q99 155 198.5 326.5t199 357t198.5 381.5h213l94 -70l-534 -844l-79 -95l385 17l61 411l251 36l-62 -438l236 13l-30 -225h-235l-36 -299h-251z" />
    <glyph glyph-name="five" unicode="5" horiz-adv-x="1180" 
d="M213 -14q-24 0 -61 3t-66 13l30 188q23 -4 41.5 -6t35.5 -2q91 0 188 20t180 63t134 112.5t51 167.5q0 103 -56 163t-181 60q-35 0 -78.5 -7t-85 -18.5t-71.5 -26.5l-102 106l154 672h581l20 16h162l-61 -238h-490l-90 -345q37 13 97 22t116 9q119 0 206.5 -41.5
t135.5 -125t48 -208.5q0 -138 -63 -248t-177 -188t-266.5 -119.5t-331.5 -41.5z" />
    <glyph glyph-name="six" unicode="6" horiz-adv-x="1250" 
d="M575 -16q-153 0 -254.5 70t-152.5 186.5t-51 256.5q0 246 99.5 451.5t284.5 350.5t438 210l61 -165q-148 -51 -256 -129t-176 -164t-95 -161q33 26 79 46t100 32t111 12q122 0 206.5 -57t128 -149t43.5 -196q0 -106 -34.5 -211.5t-104.5 -192t-176.5 -138.5t-250.5 -52z
M595 173q69 0 121 34t86.5 90t52.5 122.5t18 128.5q0 82 -29.5 132.5t-77.5 74.5t-105 24q-71 0 -121 -19t-82.5 -44.5t-49.5 -44.5q-15 -50 -21.5 -92.5t-6.5 -87.5q0 -93 23 -165t71 -112.5t121 -40.5z" />
    <glyph glyph-name="seven" unicode="7" horiz-adv-x="1080" 
d="M173 0l639 1278l-683 -1l29 217h925l40 -54l-630 -1440h-320z" />
    <glyph glyph-name="eight" unicode="8" horiz-adv-x="1246" 
d="M560 -18q-125 0 -231.5 42.5t-170.5 124t-64 198.5q-1 111 45.5 191t123.5 134t170 88q-49 44 -89.5 97t-65 115.5t-24.5 134.5q0 132 66.5 221t175 134.5t234.5 46.5q120 0 214 -39.5t148.5 -113t54.5 -171.5q0 -106 -47 -186.5t-122 -135t-159 -83.5
q68 -50 131.5 -106.5t104.5 -125t41 -153.5q0 -130 -73 -222t-194.5 -141.5t-268.5 -49.5zM590 158q66 0 117 26t79.5 72t28.5 107t-33.5 112t-91 98.5t-128.5 99.5q-54 -31 -98 -71.5t-70.5 -95t-26.5 -127.5q0 -96 64.5 -158.5t158.5 -62.5zM704 868q79 43 134.5 117
t55.5 177q0 89 -52.5 133.5t-124.5 44.5q-88 0 -143 -60t-55 -151q0 -78 53 -139.5t132 -121.5z" />
    <glyph glyph-name="nine" unicode="9" horiz-adv-x="1247" 
d="M348 -17l-62 164q149 52 258 124t177.5 151.5t95.5 153.5q-48 -36 -125.5 -57t-158.5 -21q-127 0 -213 63t-129.5 160.5t-43.5 201.5q0 111 35 213.5t105 183t175.5 128t246.5 47.5q156 0 258 -69.5t152 -186t50 -255.5q0 -246 -100.5 -448.5t-284.5 -345t-436 -207.5z
M620 697q68 0 121 18.5t89.5 42.5t52.5 43q14 53 17.5 96t3.5 90q0 93 -26.5 166t-76.5 115t-119 42t-120 -32.5t-83 -85t-48 -115.5t-16 -124q0 -131 62.5 -193.5t142.5 -62.5z" />
    <glyph glyph-name="colon" unicode=":" horiz-adv-x="514" 
d="M172 -25q-60 0 -97.5 36t-37.5 94q0 74 50.5 129t128.5 55q71 0 104.5 -35.5t33.5 -93.5q0 -84 -49.5 -134.5t-132.5 -50.5zM262 765q-60 0 -97.5 36t-37.5 94q0 74 50.5 129t128.5 55q71 0 104.5 -35.5t33.5 -93.5q0 -84 -49.5 -134.5t-132.5 -50.5z" />
    <glyph glyph-name="semicolon" unicode=";" horiz-adv-x="514" 
d="M60 -499l-82 107l4 20q70 37 114.5 109t44.5 152q0 64 -25 114t-64 63l6 52l130 156q68 -26 110 -75.5t62 -111.5t20 -122q0 -106 -39 -202q-40 -93 -112.5 -162t-168.5 -100zM266 765q-60 0 -97.5 36t-37.5 94q0 74 50.5 129t128.5 55q71 0 104.5 -35.5t33.5 -93.5
q0 -84 -49.5 -134.5t-132.5 -50.5z" />
    <glyph glyph-name="less" unicode="&#x3c;" horiz-adv-x="1350" 
d="M1071 174l-879 503l16 126l996 503l-31 -249l-677 -327l598 -329z" />
    <glyph glyph-name="equal" unicode="=" horiz-adv-x="1049" 
d="M160 808l27 200h809l-28 -200h-808zM99 319l28 200h808l-27 -200h-809z" />
    <glyph glyph-name="greater" unicode="&#x3e;" horiz-adv-x="1350" 
d="M247 176l31 250l677 328l-598 328l22 228l879 -503l-15 -127z" />
    <glyph glyph-name="question" unicode="?" horiz-adv-x="902" 
d="M234 512q-15 31 -26.5 69.5t-11.5 101.5q0 51 26 99t74 93t113 85q69 48 124.5 90.5t95 84.5t60.5 87t21 96q0 68 -39.5 114.5t-107.5 71t-154 24.5q-58 0 -106 -6t-100 -21l44 186q23 20 84 34.5t124 14.5q152 0 267 -40.5t180 -127t65 -225.5q0 -137 -79.5 -247
t-242.5 -198q-42 -23 -84.5 -51.5t-77.5 -61.5t-57 -70t-23 -78q0 -33 3.5 -64.5t7.5 -58.5zM298 -17q-60 0 -97.5 36.5t-37.5 94.5q0 74 50.5 129t128.5 55q71 0 105 -36t34 -93q0 -84 -49.5 -135t-133.5 -51z" />
    <glyph glyph-name="at" unicode="@" horiz-adv-x="1953" 
d="M897 -430q-240 0 -417.5 98.5t-274.5 277.5t-97 420q0 249 77.5 458t220 362t339 237.5t434.5 84.5q210 0 366.5 -75.5t243.5 -216.5t87 -338q0 -158 -44 -312t-124 -280t-193 -201t-251 -75q-59 0 -81 50t-22 129q0 30 3.5 79t8.5 94q-47 -108 -104.5 -188t-122 -124
t-133.5 -44q-59 0 -111 35t-91.5 94t-62 131.5t-22.5 147.5q0 131 38 250t109 212t171 146.5t225 53.5q33 0 74 -6t78.5 -17.5t61.5 -28.5l178 28q-9 -33 -22.5 -107t-28 -169.5t-27.5 -194t-21 -183.5t-8 -137q0 -28 3 -44.5t9 -16.5q54 0 101 43t85 113.5t65.5 155t42 170
t14.5 157.5q0 187 -66.5 298t-187.5 160.5t-285 49.5q-186 0 -338.5 -78t-263 -211.5t-170 -303.5t-59.5 -356q0 -205 72 -350.5t209 -223t332 -77.5q69 0 135.5 9.5t122.5 25.5t94 34l45 -132q-68 -52 -179.5 -83t-237.5 -31zM866 226q35 0 77 47t83 121.5t76.5 159
t59.5 162.5t30 129q-21 28 -64 42t-84 14q-65 0 -117.5 -43.5t-89.5 -112t-56.5 -145.5t-19.5 -144q0 -75 10.5 -126t33.5 -77.5t61 -26.5z" />
    <glyph glyph-name="A" unicode="A" horiz-adv-x="1277" 
d="M-99 0l726 1494h333l249 -1494h-275l-46 330h-544l-145 -330h-298zM426 524h435l-92 666l-9 114l-44 -114z" />
    <glyph glyph-name="B" unicode="B" horiz-adv-x="1268" 
d="M485 -15q-15 0 -53 2.5t-84 5.5t-84 5t-53 2h-123l202 1494h124q14 0 58 2.5t97.5 5.5t97.5 5t57 2q164 0 268 -40.5t153 -115t49 -178.5q0 -150 -77 -251t-220 -139q86 -16 148.5 -58t97.5 -105t35 -145q2 -169 -80 -278t-238 -161.5t-375 -52.5zM530 179
q104 0 184.5 31.5t127 93.5t46.5 152q0 121 -71 172t-215 51q-39 0 -77 -1.5t-74 -3.5l-64 -484q17 -3 41.5 -6t51.5 -4t50 -1zM478 866q26 -1 53.5 -2t71.5 -1q145 0 228.5 71.5t83.5 209.5q0 94 -59.5 134t-185.5 42q-20 0 -43 -0.5t-46 -2t-42 -3.5z" />
    <glyph glyph-name="C" unicode="C" horiz-adv-x="1140" 
d="M604 -16q-186 0 -299 91q-115 91 -164 234.5t-49 312.5q0 250 98 453q96 203 266 319t382 116q52 0 101.5 -6.5t104.5 -21.5t125 -41l-85 -246q-48 34 -108 59.5t-160 25.5q-156 0 -254 -98q-100 -97 -145.5 -245t-45.5 -308q0 -128 30.5 -223.5t96 -148t170.5 -52.5
q61 0 125 15t117.5 37.5t81.5 43.5l38 -204q-23 -18 -67 -38t-102 -37t-124 -27.5t-133 -10.5z" />
    <glyph glyph-name="D" unicode="D" horiz-adv-x="1369" 
d="M536 -16q-58 1 -116 5t-111.5 7.5t-100.5 3.5h-120l202 1494h126q12 0 45.5 1.5t77.5 4t89 5t81.5 4t52.5 1.5q294 0 430 -162.5t136 -453.5q0 -193 -54.5 -359t-158 -290.5t-249.5 -193.5t-330 -67zM579 187q154 3 260 101q105 98 156 257.5t51 346.5q0 158 -36 250
q-36 90 -111 128t-201 38q-36 0 -84.5 -4.5t-77.5 -11.5l-145 -1080q36 -13 86 -19t102 -6z" />
    <glyph glyph-name="E" unicode="E" horiz-adv-x="1145" 
d="M88 0l202 1494h824l-22 -214l-558 5l-55 -418l418 6l-24 -218l-422 12l-61 -458l649 12l-26 -221h-925z" />
    <glyph glyph-name="F" unicode="F" horiz-adv-x="1044" 
d="M88 0l202 1494h806l-28 -214l-534 6l-57 -435l437 7l-24 -228l-443 12l-86 -642h-273z" />
    <glyph glyph-name="G" unicode="G" horiz-adv-x="1353" 
d="M630 -16q-187 0 -309 89q-121 88 -176 228.5t-57 300.5q-1 264 98 473q100 206 274 320.5t386 114.5q62 0 110.5 -3.5t93.5 -12t97 -23.5t121 -38l-66 -248q-30 22 -89.5 46t-132 40.5t-140.5 16.5q-165 0 -271 -100q-107 -100 -155.5 -251t-48.5 -309q0 -128 33 -226
t101 -153.5t173 -55.5q58 0 129 12.5t125 38.5l44 312h-235l27 219h493l-93 -691q-25 -3 -54.5 -10t-75.5 -20q-103 -30 -199.5 -50t-202.5 -20z" />
    <glyph glyph-name="H" unicode="H" horiz-adv-x="1422" 
d="M82 0l201 1494h274l-89 -659h550l88 659h277l-203 -1494h-275l86 641h-549l-87 -641h-273z" />
    <glyph glyph-name="I" unicode="I" horiz-adv-x="631" 
d="M109 0l202 1494h274l-202 -1494h-274z" />
    <glyph glyph-name="J" unicode="J" horiz-adv-x="627" 
d="M-132 -329l-39 101q42 11 88.5 45.5t88 80.5t70.5 95t37 91q25 114 45.5 244t39.5 271.5t36.5 291t35.5 301.5t38 302h274l-143 -1074q-19 -145 -34 -231.5t-24 -114.5q-38 -137 -110.5 -222t-174.5 -128.5t-228 -52.5z" />
    <glyph glyph-name="K" unicode="K" horiz-adv-x="1257" 
d="M82 0l201 1494h265l-96 -702l592 702h315l-592 -661q22 -38 41 -74t44.5 -85t63.5 -122t97 -185q28 -53 56.5 -104.5t56 -99.5t52.5 -89.5t45 -73.5h-324q-5 8 -22 39t-39.5 77t-47.5 98t-47 100l-157 322l-180 -191l-61 -445h-263z" />
    <glyph glyph-name="L" unicode="L" horiz-adv-x="999" 
d="M88 0l202 1494h274l-173 -1275l520 8l-33 -227h-790z" />
    <glyph glyph-name="M" unicode="M" horiz-adv-x="1851" 
d="M723 -18l-135 1086l-19 286l-54 -291l-237 -1063h-272l391 1494h383l109 -1032l10 -193l47 193l381 1032h398l-28 -1494h-276l70 1057l25 297l-101 -275l-427 -1081z" />
    <glyph glyph-name="N" unicode="N" horiz-adv-x="1419" 
d="M88 0l202 1494h253l386 -898l70 -230l16 249l106 879h263l-202 -1494h-242l-389 926l-75 248l-12 -279l-117 -895h-259z" />
    <glyph glyph-name="O" unicode="O" horiz-adv-x="1353" 
d="M602 -16q-167 0 -281 80.5t-172.5 218t-58.5 307.5q0 185 49.5 351t143 294t226 201.5t297.5 73.5q125 0 220 -47t158.5 -131t95.5 -194t32 -237q0 -185 -48.5 -350.5t-140.5 -293t-223.5 -200.5t-297.5 -73zM630 191q98 0 173.5 63t126 166.5t76 226.5t24.5 241
q-2 145 -32 236t-87 134t-140 43q-96 0 -170.5 -64t-125.5 -167.5t-77 -225t-25 -237.5q3 -216 71 -316t186 -100z" />
    <glyph glyph-name="P" unicode="P" horiz-adv-x="1213" 
d="M88 0l202 1494h134q15 0 54 2.5t87.5 5.5t93 5.5t70.5 2.5q238 0 362.5 -103.5t124.5 -308.5q1 -177 -74 -314q-76 -138 -217 -215.5t-329 -77.5q-48 0 -94.5 2t-72.5 4l-68 -497h-273zM598 699q174 0 257 99.5t90 291.5q2 113 -61.5 169t-202.5 56q-29 0 -69.5 -4
t-74.5 -11l-79 -588q21 -5 62 -9t78 -4z" />
    <glyph glyph-name="Q" unicode="Q" horiz-adv-x="1355" 
d="M868 -382q-103 0 -184 30t-128 90.5t-47 152.5q0 23 4.5 62t12.5 67h174v-19.5v-22.5q0 -57 34.5 -85.5t94 -37.5t131.5 -9q74 0 140.5 7t108.5 20v-176q-26 -22 -85 -40t-128.5 -28.5t-127.5 -10.5zM602 -16q-167 0 -281 80.5t-172.5 218t-58.5 307.5q0 185 49.5 351
t143 294t226 201.5t297.5 73.5q125 0 220 -47t158.5 -131t95.5 -194t32 -237q0 -185 -48.5 -350.5t-140.5 -293t-223.5 -200.5t-297.5 -73zM630 191q98 0 173.5 63t126 166.5t76 226.5t24.5 241q-2 145 -32 236t-87 134t-140 43q-96 0 -170.5 -64t-125.5 -167.5t-77 -225
t-25 -237.5q3 -216 71 -316t186 -100z" />
    <glyph glyph-name="R" unicode="R" horiz-adv-x="1278" 
d="M87 0l202 1494h150q30 0 86 4t113.5 8t92.5 4q254 0 376.5 -94.5t122.5 -278.5q0 -178 -83.5 -310.5t-248.5 -183.5q26 -23 50.5 -64.5t46.5 -92.5t40 -104q31 -86 59.5 -161.5t54 -132.5t46.5 -88h-305q-11 16 -23.5 50t-26.5 77t-28 88t-27 83q-14 50 -32 101.5
t-40 95.5t-46 72t-50 29l-175 1l-81 -597h-274zM674 809q96 0 158.5 42t92 114t28.5 160q-1 100 -64 144.5t-186 44.5q-24 0 -57 -2t-62.5 -5t-46.5 -6l-67 -490q26 -1 77 -1.5t127 -0.5z" />
    <glyph glyph-name="S" unicode="S" horiz-adv-x="1025" 
d="M383 -16q-44 0 -99 8t-110 21t-98.5 29.5t-64.5 33.5l87 222q26 -24 77.5 -46t110.5 -36.5t107 -14.5q79 0 135.5 21.5t87 64t30.5 104.5q0 73 -49 136.5t-149 132.5q-83 60 -145.5 125t-97 140t-34.5 166q0 135 64.5 228.5t175.5 142t250 48.5q118 0 208.5 -25
t135.5 -59l-87 -213q-38 38 -112 61t-144 23q-66 0 -116.5 -18.5t-79 -56t-30.5 -93.5q0 -50 29 -100.5t76 -98t101 -88.5q87 -63 151 -126t99 -133t35 -156q0 -151 -72 -249t-195 -146t-277 -48z" />
    <glyph glyph-name="T" unicode="T" horiz-adv-x="1112" 
d="M338 0l174 1291l-383 -11l34 214h1030l-30 -214l-375 11l-174 -1291h-276z" />
    <glyph glyph-name="U" unicode="U" horiz-adv-x="1371" 
d="M598 -16q-234 0 -352.5 116t-119.5 325q0 28 3.5 65t10.5 92l121 912h275l-118 -874q-5 -47 -9.5 -91.5t-4.5 -88.5q0 -126 58 -183.5t177 -57.5q98 0 163.5 51t104.5 146t58 228l116 870h271l-120 -897q-15 -111 -41.5 -200t-65.5 -156q-77 -135 -207 -196t-320 -61z
" />
    <glyph glyph-name="V" unicode="V" horiz-adv-x="1175" 
d="M345 0l-233 1494h273l137 -1013l20 -237l80 237l402 1013h291l-662 -1494h-308z" />
    <glyph glyph-name="W" unicode="W" horiz-adv-x="1747" 
d="M311 -5l-203 1499h275l96 -1009l24 -215l63 214l291 736l-29 274h266l83 -1009l19 -215l62 214l364 1010h280l-596 -1499h-307l-74 679l-15 167l-57 -167l-255 -679h-287z" />
    <glyph glyph-name="X" unicode="X" horiz-adv-x="1174" 
d="M-78 0l548 783l-313 711h296l198 -530l343 530h301l-528 -768l339 -726h-304l-218 560l-348 -560h-314z" />
    <glyph glyph-name="Y" unicode="Y" horiz-adv-x="1099" 
d="M339 0l78 576l-335 918h288l187 -589l28 -105l47 105l336 589h301l-583 -918l-78 -576h-269z" />
    <glyph glyph-name="Z" unicode="Z" horiz-adv-x="1130" 
d="M-2 0l-26 86l759 1087l109 109l-621 -12l34 224h917l24 -84l-743 -1087l-101 -105l666 11l-37 -229h-981z" />
    <glyph glyph-name="bracketleft" unicode="[" horiz-adv-x="770" 
d="M268 -221q-91 0 -137 39t-46 120q0 28 2 55.5t6 52.5l198 1418q19 140 71 202.5t166 62.5q39 0 99.5 -9t115 -19.5t75.5 -17.5l-19 -130h-258l-213 -1595h258l-16 -128q-85 -25 -155 -38t-147 -13z" />
    <glyph glyph-name="backslash" unicode="\" horiz-adv-x="834" 
d="M578 -354l-562 1914h217l564 -1914h-219z" />
    <glyph glyph-name="bracketright" unicode="]" horiz-adv-x="770" 
d="M554 1729q91 0 137 -38.5t46 -120.5q0 -28 -2 -55t-5 -53l-199 -1418q-18 -140 -70 -202.5t-167 -62.5q-39 0 -99 9t-115 20t-76 17l19 130h258l213 1595h-258l16 128q85 25 155.5 38t146.5 13z" />
    <glyph glyph-name="asciicircum" unicode="^" horiz-adv-x="1332" 
d="M147 498l508 997h229l256 -997h-218l-176 717l-378 -717h-221z" />
    <glyph glyph-name="underscore" unicode="_" horiz-adv-x="1304" 
d="M-108 -355l20 173h1344l-18 -173h-1346z" />
    <glyph glyph-name="grave" unicode="`" horiz-adv-x="531" 
d="M405 1213q-37 14 -94 55t-116.5 94t-106.5 103t-63 81l178 166l305 -417z" />
    <glyph glyph-name="a" unicode="a" horiz-adv-x="1175" 
d="M390 -16q-162 0 -239 114t-77 306q0 150 46.5 281.5t133 231t207 155.5t268.5 56q54 0 118 -11.5t115 -26.5l147 38l-155 -1128h-244l13 215q-55 -97 -140 -164t-193 -67zM470 177q43 0 83.5 30t77 77t67 101t52.5 103l64 453q-49 15 -111 15q-113 0 -190 -80
q-78 -81 -116.5 -202.5t-38.5 -247.5q0 -69 10.5 -125.5t34.5 -90t67 -33.5z" />
    <glyph glyph-name="b" unicode="b" horiz-adv-x="1201" 
d="M460 -16q-54 0 -119.5 12.5t-115.5 28.5l-147 -32l216 1605h262l-69 -565l-27 -150q37 67 89 123t116.5 89t140.5 33q163 0 239.5 -114.5t76.5 -305.5q0 -178 -74 -342q-49 -112 -132.5 -198t-198 -135t-257.5 -49zM487 159q112 0 193 79q77 80 116.5 202t39.5 245
q0 112 -25 180t-86 68q-43 0 -86 -32.5t-82.5 -81.5t-70.5 -103.5t-50 -98.5l-61 -444q48 -14 112 -14z" />
    <glyph glyph-name="c" unicode="c" horiz-adv-x="910" 
d="M465 -16q-122 0 -209 55.5t-132.5 155.5t-45.5 233q0 183 72 345q72 161 205.5 258t309.5 97q40 0 84 -4.5t84 -13.5t66 -21l-68 -254q-22 20 -52.5 39.5t-66 32t-70.5 12.5q-36 0 -72.5 -18.5t-69.5 -52.5q-63 -61 -103 -162.5t-40 -219.5q0 -143 39 -211.5t132 -68.5
q61 0 125 34t118 89l74 -137q-29 -44 -88.5 -87t-136 -72t-155.5 -29z" />
    <glyph glyph-name="d" unicode="d" horiz-adv-x="1192" 
d="M389 -16q-162 0 -239 114t-77 306q0 177 75 345q49 111 132 196.5t197.5 134t255.5 48.5q25 0 52.5 -2t55.5 -7l65 479h267l-210 -1598h-245l16 232q-37 -68 -89 -124t-116.5 -90t-139.5 -34zM469 180q42 0 84 31.5t81 81.5t70 104t52 100l60 442q-48 17 -110 17
q-112 0 -190 -80q-79 -81 -119 -203t-40 -247q0 -73 11 -128.5t35.5 -86.5t65.5 -31z" />
    <glyph glyph-name="e" unicode="e" horiz-adv-x="1050" 
d="M482 -16q-139 0 -228 61q-92 62 -134.5 162.5t-41.5 219.5q0 195 81 358q79 161 217 252t309 91q100 0 167 -34t101 -91t34 -125q0 -104 -51 -185t-139 -140.5t-199.5 -99t-232.5 -59.5v-15.5v-14.5q4 -84 43.5 -134.5t129.5 -50.5q53 0 111.5 21.5t113 57.5t95.5 79
l72 -139q-29 -40 -79.5 -78.5t-113.5 -69t-129 -48.5t-126 -18zM366 549q59 3 121 28t115 67t85.5 95.5t32.5 112.5q0 58 -23.5 82.5t-72.5 24.5q-40 0 -73.5 -24t-66.5 -65q-57 -67 -84.5 -157t-33.5 -164z" />
    <glyph glyph-name="f" unicode="f" horiz-adv-x="715" 
d="M125 0l127 930h-128l35 184h117l17 97q10 66 30 123.5t51 107.5q59 92 152 143t214 51q50 0 90 -6t71 -19l-56 -196q-16 15 -47 27.5t-72 11.5q-64 0 -104 -49t-54 -141l-24 -150h194l-19 -184h-198l-127 -930h-269z" />
    <glyph glyph-name="g" unicode="g" horiz-adv-x="1188" 
d="M382 -499q-44 0 -97.5 6t-99 15t-66.5 19l49 207q26 -15 70.5 -31.5t97 -28t99.5 -11.5q108 0 162.5 58t74.5 171l56 313q-57 -97 -143 -166t-196 -69q-162 0 -239 114t-77 306q0 177 75 345q49 111 132 196.5t197.5 134t255.5 48.5q55 0 118.5 -11.5t113.5 -26.5l151 38
l-163 -1185q-11 -82 -39 -147t-70 -115q-84 -97 -205 -138.5t-257 -41.5zM469 180q41 0 82 29t78.5 76t69 100.5t53.5 102.5l63 454q-24 7 -51 10.5t-58 3.5q-112 0 -190 -80q-79 -81 -119 -203t-40 -247q0 -73 11 -128.5t35.5 -86.5t65.5 -31z" />
    <glyph glyph-name="h" unicode="h" horiz-adv-x="1230" 
d="M81 0l210 1598h268l-63 -511l-32 -192q77 106 182 169.5t219 63.5q121 0 182.5 -67t61.5 -221q0 -15 -4.5 -59.5t-13 -112t-19.5 -149.5t-23.5 -171.5t-25.5 -178.5t-26 -169h-274q10 69 18.5 128t15.5 112t14 102t14 96.5t14 97.5q13 99 20 164t8 102q1 60 -21 82.5
t-69 22.5q-44 0 -99.5 -32t-107.5 -81t-86 -101l-94 -693h-269z" />
    <glyph glyph-name="i" unicode="i" horiz-adv-x="611" 
d="M99 0l151 1114h275l-153 -1114h-273zM431 1312q-55 0 -97.5 40.5t-42.5 96.5q0 70 51 121.5t124 51.5q63 0 105.5 -39t42.5 -95q0 -74 -52 -125t-131 -51z" />
    <glyph glyph-name="j" unicode="j" horiz-adv-x="610" 
d="M-93 -509q-49 0 -89 8.5t-65 26.5l62 147q8 -5 24.5 -9.5t27.5 -4.5q57 0 97.5 35.5t68.5 94.5t45.5 131t27.5 146l143 1048h275l-152 -1112q-19 -145 -81 -261t-159 -183t-225 -67zM414 1283q-55 0 -97.5 40.5t-42.5 96.5q0 70 51 121.5t124 51.5q63 0 105.5 -39
t42.5 -95q0 -74 -52 -125t-131 -51z" />
    <glyph glyph-name="k" unicode="k" horiz-adv-x="1112" 
d="M81 0l210 1598h269l-210 -1598h-269zM757 2l-292 616q82 45 158 125.5t134.5 177.5t87.5 193h267q-5 -76 -39 -152.5t-87.5 -146t-118 -126t-131.5 -91.5l334 -596h-313z" />
    <glyph glyph-name="l" unicode="l" horiz-adv-x="612" 
d="M101 2l216 1596h274l-216 -1596h-274z" />
    <glyph glyph-name="m" unicode="m" horiz-adv-x="1828" 
d="M78 2l151 1112h263l-17 -203q76 100 175 158.5t206 58.5q105 0 165 -50t72 -164q75 99 173 156.5t204 57.5q121 0 181 -67t60 -221q0 -31 -9.5 -116t-29.5 -224q-16 -114 -32.5 -232t-39.5 -266h-273q6 53 13.5 103t14.5 99.5t14 101.5t15 109t17 121q13 91 20.5 159
t8.5 107q1 60 -21 82.5t-70 22.5q-55 0 -124.5 -49t-125.5 -129q-3 -25 -8 -64.5t-13 -91.5q-8 -58 -17 -120.5t-17.5 -126t-17.5 -123t-16.5 -111t-13.5 -90.5h-273q6 45 15 108.5t19.5 136t21 147.5t18.5 143q12 95 19.5 164.5t8.5 100.5q1 59 -21 82t-70 23
q-30 0 -67.5 -18t-77 -47.5t-73.5 -67t-59 -76.5l-96 -696h-273z" />
    <glyph glyph-name="n" unicode="n" horiz-adv-x="1230" 
d="M77 0l152 1114h261l-17 -210q78 103 181 163.5t214 60.5q122 0 184 -67t62 -221q0 -23 -5.5 -74t-15 -120t-19.5 -145q-3 -23 -9 -64t-13.5 -94.5t-16 -113t-17.5 -118t-17 -111.5h-274q9 60 19.5 136.5t23.5 167.5l28 196q15 114 23.5 188t8.5 114q1 60 -20.5 82.5
t-69.5 22.5q-33 0 -73.5 -18.5t-81.5 -50t-77 -70t-62 -78.5l-96 -690h-273z" />
    <glyph glyph-name="o" unicode="o" horiz-adv-x="1132" 
d="M469 -16q-132 0 -219.5 58.5t-131 164.5t-43.5 246q0 179 72 335q71 154 205.5 247t313.5 93q132 0 218 -57.5t128.5 -162t42.5 -247.5q0 -178 -70 -334q-71 -155 -204 -249t-312 -94zM508 163q71 0 122 47t83.5 123t47.5 166t15 176q0 84 -14 146t-47.5 96.5t-89.5 34.5
q-72 0 -124 -49.5t-85 -127.5t-49 -168.5t-16 -172.5q0 -133 39 -202t118 -69z" />
    <glyph glyph-name="p" unicode="p" horiz-adv-x="1201" 
d="M11 -490l217 1604h248l-9 -207q57 93 142.5 157t193.5 64q162 0 238.5 -113t76.5 -304q0 -179 -73 -344q-50 -112 -133 -198.5t-197.5 -135.5t-256.5 -49q-48 0 -110 11l-66 -485h-271zM484 159q112 0 193 80q77 80 116.5 202.5t39.5 247.5q0 103 -23 173.5t-88 70.5
q-42 0 -84.5 -31.5t-82 -80.5t-70.5 -103t-50 -99l-61 -447q24 -6 51.5 -9.5t58.5 -3.5z" />
    <glyph glyph-name="q" unicode="q" horiz-adv-x="1193" 
d="M628 -487l65 489l39 227q-37 -67 -88.5 -122.5t-115.5 -89t-139 -33.5q-162 0 -239 114t-77 306q0 150 47 281.5t134.5 231t209 155.5t269.5 56q54 0 118 -10.5t112 -26.5l150 40l-215 -1618h-270zM469 180q40 0 80 28t77 73.5t69 98.5t55 101l62 462q-24 6 -50.5 9.5
t-55.5 3.5q-87 0 -152 -48t-109 -126t-66 -171.5t-22 -184.5q0 -73 11 -128.5t35.5 -86.5t65.5 -31z" />
    <glyph glyph-name="r" unicode="r" horiz-adv-x="829" 
d="M78 0l152 1114h263l-18 -216q25 55 70.5 108t107 87.5t135.5 34.5q50 0 64 -12l-54 -282q-10 10 -36.5 15t-58.5 5q-52 0 -98.5 -23.5t-85.5 -63.5t-72 -87l-96 -680h-273z" />
    <glyph glyph-name="s" unicode="s" horiz-adv-x="906" 
d="M355 -16q-58 0 -121 9t-113 23.5t-73 30.5l48 224q28 -24 74 -44.5t96 -33.5t90 -13q74 0 119 25t45 83q0 36 -18 65t-57.5 63.5t-104.5 85.5q-79 67 -128 137.5t-49 174.5q0 106 56.5 176t150.5 104t207 34q52 0 103.5 -5.5t92.5 -14t59 -17.5l-38 -238q-17 20 -52.5 39
t-80 30.5t-88.5 11.5q-71 0 -113 -28t-42 -78q0 -41 23 -75t59 -64.5t76 -63.5q60 -45 106 -94t72.5 -104.5t26.5 -119.5q0 -114 -58 -185.5t-154.5 -104.5t-213.5 -33z" />
    <glyph glyph-name="t" unicode="t" horiz-adv-x="770" 
d="M330 -18q-93 0 -149 48.5t-56 144.5q0 12 2.5 38t5.5 60t8 69l75 587h-96l38 185h103l79 270h214l-37 -270h236l-22 -185h-238q-21 -158 -36 -269t-25 -184t-15 -115.5t-7 -64.5t-2 -33q0 -38 12.5 -60.5t48.5 -22.5q21 0 57 13t72 33.5t59 40.5l39 -137
q-38 -37 -97.5 -70.5t-129.5 -55.5t-139 -22z" />
    <glyph glyph-name="u" unicode="u" horiz-adv-x="1203" 
d="M371 -20q-126 0 -196 64.5t-70 205.5q0 41 7.5 113.5t20.5 172.5q12 88 26 187t28 199t26 192h273q-5 -34 -12.5 -89l-16.5 -121t-18 -134.5t-17 -130t-14 -106.5q-11 -85 -16.5 -143t-5.5 -89q0 -59 25 -85t73 -26q43 0 91 29t95 78t86 109l96 708h273l-150 -1114h-247
l13 200q-67 -95 -163.5 -157.5t-206.5 -62.5z" />
    <glyph glyph-name="v" unicode="v" horiz-adv-x="1051" 
d="M254 -18l-56 366l-103 766h281l63 -704l13 -198l70 92q79 115 133.5 243t80.5 268q8 37 16 92t12.5 111.5t4.5 95.5h253q2 -15 5 -52.5t2 -92.5q-5 -127 -44.5 -251t-110 -245t-170.5 -240.5t-226 -238.5z" />
    <glyph glyph-name="w" unicode="w" horiz-adv-x="1676" 
d="M258 -11l-56 359l-105 766h286l64 -704l11 -202l92 126q51 80 92.5 162.5t72 169t47.5 176.5l-32 272h275l56 -704l15 -202l90 123q51 80 89 159t65.5 163t43.5 180q11 65 15.5 144.5t4.5 136.5h252q1 -21 3 -58t1 -78q-4 -164 -64.5 -320.5t-180 -319t-302.5 -344.5
l-214 -5l-47 299l-23 161q-38 -78 -83 -149t-104.5 -145.5t-141.5 -160.5z" />
    <glyph glyph-name="x" unicode="x" horiz-adv-x="982" 
d="M-78 2l428 581l-272 531h318l132 -353l226 353h282l-412 -565l292 -547h-316l-152 370l-241 -370h-285z" />
    <glyph glyph-name="y" unicode="y" horiz-adv-x="1072" 
d="M62 -498q-50 0 -104 15.5t-96 36.5l72 200q28 -17 67 -31t77 -14q71 0 132.5 37t116.5 99t105 137h-163l-58 366l-109 766h281l77 -714l36 -303q31 61 57.5 121t49.5 118q49 100 81.5 197t52.5 203t30 232q3 30 4 69.5t1 76.5h254q2 -20 2.5 -58t-0.5 -82
q-6 -160 -53.5 -334.5t-138.5 -363.5q-50 -106 -119 -220t-146 -220t-154 -187q-59 -61 -147 -104t-208 -43z" />
    <glyph glyph-name="z" unicode="z" horiz-adv-x="952" 
d="M9 0l-46 50l554 756l101 97h-470l29 211h757l40 -48l-556 -769l-90 -85h512l-21 -212h-810z" />
    <glyph glyph-name="braceleft" unicode="{" horiz-adv-x="860" 
d="M372 -229q-98 0 -144 39.5t-36 119.5l84 635q5 33 -29 58.5t-84.5 44t-94.5 29.5l25 162q71 16 124.5 33.5t84.5 39.5t35 52l69 499q21 142 90.5 196.5t159.5 54.5q29 0 69.5 -5t83.5 -13t80 -16.5t59 -16.5l-22 -131h-275l-80 -593q-7 -54 -38 -87t-84 -55.5t-126 -44.5
q62 -27 108.5 -53.5t71 -57t18.5 -68.5l-88 -634h270l-17 -125q-89 -30 -162.5 -46.5t-151.5 -16.5z" />
    <glyph glyph-name="bar" unicode="|" horiz-adv-x="834" 
d="M328 -182v1920h211v-1920h-211z" />
    <glyph glyph-name="braceright" unicode="}" horiz-adv-x="859" 
d="M529 1734q97 0 143.5 -38.5t35.5 -120.5l-84 -635q-4 -33 29.5 -58.5t84 -44t94.5 -29.5l-25 -161q-71 -16 -124.5 -34t-84.5 -39.5t-35 -51.5l-69 -499q-19 -142 -89.5 -196.5t-160.5 -54.5q-30 0 -70 5t-82.5 13t-80 16.5t-58.5 16.5l22 131h274l79 593q8 54 39.5 87
t84.5 55.5t126 45.5q-62 27 -109 53t-71 56t-20 68l88 635h-268l17 126q89 31 162.5 46t151.5 15z" />
    <glyph glyph-name="asciitilde" unicode="~" horiz-adv-x="1110" 
d="M759 679q-63 0 -112 27t-99 68q-49 40 -82.5 59t-74.5 19q-51 0 -97 -28t-86 -83l-108 107q17 52 68 100t118.5 79t133.5 31q63 0 112.5 -26.5t103.5 -68.5q49 -37 81 -55t68 -18q56 0 103 27.5t84 81.5l102 -106q-15 -56 -64.5 -105.5t-116 -79t-134.5 -29.5z" />
    <glyph glyph-name="uni00A0" unicode="&#xa0;" horiz-adv-x="360" 
 />
    <glyph glyph-name="exclamdown" unicode="&#xa1;" horiz-adv-x="670" 
d="M52 -424l228 1260h205l-142 -1260h-291zM405 1023q-71 0 -104.5 35t-33.5 90q0 86 55 137.5t136 51.5q61 0 98.5 -35.5t37.5 -91.5q0 -75 -55 -131t-134 -56z" />
    <glyph glyph-name="cent" unicode="&#xa2;" horiz-adv-x="1042" 
d="M319 -241l44 245q-126 41 -189.5 154t-63.5 270q0 118 31 230t90 205.5t143.5 159t191.5 91.5l59 248h193l-57 -236q53 -4 97 -13.5t75 -23.5l-68 -254q-22 20 -53.5 39.5t-66.5 32t-70 12.5q-65 0 -118 -40.5t-90.5 -106.5t-57.5 -146t-20 -160q0 -143 39 -211.5
t132 -68.5q61 0 125 34t118 89l76 -137q-44 -63 -128.5 -118t-197.5 -66l-42 -229h-192z" />
    <glyph glyph-name="sterling" unicode="&#xa3;" horiz-adv-x="1412" 
d="M100 -20q-58 0 -88.5 29t-30.5 77q1 58 41.5 99.5t98 63.5t111.5 23q31 29 53 83.5t32 120.5l42 237h-169l24 180h177l19 119q23 148 92 260t179.5 174t258.5 62q116 0 199.5 -26.5t133.5 -72.5l-131 -196q-8 23 -39 49t-75.5 44.5t-92.5 18.5q-71 0 -124 -39t-87 -112
t-49 -174l-17 -107h299l-21 -180h-309q-9 -59 -17.5 -107t-15.5 -84q-19 -94 -45.5 -157.5t-66.5 -116.5q43 -24 102 -39.5t122.5 -23.5t116.5 -8q134 0 199 42.5t65 132.5q0 37 -25.5 74.5t-54.5 51.5l179 143q44 -27 78.5 -70t54 -94.5t19.5 -102.5q0 -106 -44.5 -190.5
t-145 -134t-270.5 -49.5q-109 0 -206 18t-185 44t-171 50q-39 -49 -100 -80.5t-116 -31.5z" />
    <glyph glyph-name="currency" unicode="&#xa4;" horiz-adv-x="1474" 
d="M324 112l-125 126l196 195q-36 52 -55.5 113.5t-19.5 127.5t19 126t54 112l-197 196l124 126l199 -199q106 67 231 67q66 0 127 -18.5t115 -55.5l194 194l124 -126l-194 -196q64 -102 64 -226q0 -64 -17.5 -123t-52.5 -111l198 -198l-126 -124l-198 198
q-52 -34 -110.5 -52t-123.5 -18q-61 0 -119 16.5t-108 48.5zM750 421q67 0 121.5 35.5t86.5 92.5t32 125q0 70 -32.5 127t-87 91t-120.5 34q-68 0 -123 -35t-86.5 -92.5t-31.5 -124.5q0 -69 32.5 -126.5t87.5 -92t121 -34.5z" />
    <glyph glyph-name="yen" unicode="&#xa5;" horiz-adv-x="1502" 
d="M537 0l42 341h-398l18 153h399l23 194h-398l18 154h324l-281 652h273l203 -544l33 -107l55 111l312 540h306l-467 -652h321l-17 -154h-406l-26 -194h404l-16 -153h-408l-43 -341h-271z" />
    <glyph glyph-name="brokenbar" unicode="&#xa6;" horiz-adv-x="834" 
d="M328 -182v861h211v-861h-211zM328 878v860h211v-860h-211z" />
    <glyph glyph-name="section" unicode="&#xa7;" horiz-adv-x="1354" 
d="M312 1296q13 93 63 158t123.5 104.5t157.5 57.5t165 18q139 0 225.5 -23t127.5 -49l-75 -215q-28 23 -97.5 50t-194.5 26q-55 0 -103 -11.5t-79.5 -39t-39.5 -72.5q-6 -47 25 -82.5t86 -67t121 -62.5t131.5 -68.5t118 -86.5t79 -114t14.5 -154q-17 -118 -98.5 -212
t-194.5 -161l-109 52q24 26 56.5 73.5t59.5 100.5t32 94q10 65 -21 112.5t-87.5 83.5t-125.5 69t-138 69.5t-123.5 83t-83 111t-15.5 155.5zM1053 161q-13 -97 -65.5 -163.5t-128.5 -107.5t-163.5 -59.5t-171.5 -18.5q-137 0 -245 29.5t-149 60.5l76 216q33 -28 119.5 -61.5
t213.5 -32.5q60 0 112.5 12.5t87 41t40.5 76.5q6 42 -25.5 74t-87.5 58.5t-123 54t-133.5 61.5t-120 80t-80.5 109.5t-15 151.5q16 110 95 200t188 151l119 -58q-23 -26 -54.5 -66.5t-57.5 -86t-32 -86.5q-9 -62 22.5 -104.5t89 -74t127 -59.5t138.5 -60t124.5 -76
t84 -107.5t15.5 -154.5z" />
    <glyph glyph-name="dieresis" unicode="&#xa8;" horiz-adv-x="794" 
d="M592 1330q-52 0 -91 41.5t-39 95.5q0 69 46 120t114 51q60 0 99 -39t39 -93q0 -73 -46.5 -124.5t-121.5 -51.5zM154 1330q-51 0 -90 42t-39 95q0 70 46 120.5t114 50.5q59 0 98 -39t39 -93q0 -74 -45.5 -125t-122.5 -51z" />
    <glyph glyph-name="copyright" unicode="&#xa9;" horiz-adv-x="2057" 
d="M178 940q0 179 65 334t181.5 272t271 183t332.5 66t332.5 -66t271 -183t182 -272t65.5 -334q0 -178 -65.5 -334t-182 -274t-271 -184.5t-332.5 -66.5t-332.5 66.5t-271 184.5t-181.5 274t-65 334zM317 940q0 -151 53 -284t149 -234t225.5 -158t283.5 -57q153 0 283 57
t226 158t149 234t53 284q0 152 -53 284.5t-149 233.5t-226 158t-283 57q-154 0 -283.5 -57t-225.5 -158t-149 -233.5t-53 -284.5zM594 932q0 138 54.5 248t163 174t266.5 64q87 0 150 -18t91 -34l-36 -186q-34 24 -90.5 40.5t-121.5 16.5q-117 0 -186 -77t-70 -199
q-1 -162 71.5 -237t183.5 -75q77 0 136 20t92 40l44 -148q-46 -39 -130.5 -68t-182.5 -29q-134 0 -231.5 65t-150.5 171.5t-53 231.5z" />
    <glyph glyph-name="ordfeminine" unicode="&#xaa;" horiz-adv-x="890" 
d="M336 716q-118 0 -181.5 74.5t-63.5 203.5q0 137 71 265q71 125 195 203t275 78q45 0 96 -8.5t88 -20.5l128 26l-150 -821h-190l8 138q-57 -61 -125.5 -99.5t-150.5 -38.5zM430 869q37 0 83 30.5t94 82.5l81 416q-15 9 -33 14.5t-37 5.5q-93 0 -159 -64q-66 -65 -100 -158
t-34 -179q0 -75 23.5 -111.5t81.5 -36.5z" />
    <glyph glyph-name="guillemotleft" unicode="&#xab;" horiz-adv-x="1855" 
d="M762 137l-608 381l27 171l702 387l47 -159l-458 -322l380 -317zM1489 137l-608 381l27 171l702 387l47 -159l-458 -322l380 -317z" />
    <glyph glyph-name="logicalnot" unicode="&#xac;" horiz-adv-x="1338" 
d="M885 314l40 332h-723l20 188h938l-60 -520h-215z" />
    <glyph glyph-name="uni00AD" unicode="&#xad;" horiz-adv-x="1210" 
d="M209 613l28 202h806l-27 -202h-807z" />
    <glyph glyph-name="registered" unicode="&#xae;" horiz-adv-x="2057" 
d="M176 940q0 178 65.5 333.5t182 272.5t271.5 183t333 66t333 -66t272 -183t182.5 -272.5t65.5 -333.5t-65.5 -334t-182.5 -274t-272 -184.5t-333 -66.5t-333 66.5t-271.5 184.5t-182 274t-65.5 334zM314 940q0 -151 54 -284t151 -234t227 -158t282 -57t282 57t227 158
t150.5 234t53.5 284t-53.5 283.5t-150.5 233.5t-227 158t-282 57t-282 -57t-227 -158t-151 -233.5t-54 -283.5zM699 471v941h43.5h42.5q38 0 75 1.5t80 2.5t100 1q181 0 267 -77.5t86 -190.5q0 -107 -41 -190t-147 -114q44 -27 72.5 -69.5t52 -91t48.5 -93.5
q14 -25 30 -49.5t49 -69.5h-229q-19 22 -31 47.5t-28 56.5q-20 42 -41.5 92.5t-52 93t-76.5 59.5q-8 -1 -25.5 -1.5t-37.5 -0.5h-37v-348h-200zM899 966q14 -2 36 -3.5t44.5 -1.5h39.5q84 0 127 39t43 123q0 70 -40 109.5t-149 37.5q-28 -1 -51.5 -2t-49.5 -9v-293z" />
    <glyph glyph-name="macron" unicode="&#xaf;" horiz-adv-x="603" 
d="M44 1366l11 181h540l-12 -181h-539z" />
    <glyph glyph-name="degree" unicode="&#xb0;" horiz-adv-x="907" 
d="M503 912q-92 0 -168 44q-76 45 -119 120t-43 164q0 96 45 174q46 78 125.5 122t178.5 44q93 0 171 -43q76 -44 119.5 -119t43.5 -165q0 -97 -46 -173q-45 -78 -125.5 -123t-181.5 -45zM510 1064q77 0 126.5 54t49.5 133q0 73 -49 125.5t-119 52.5q-77 0 -126.5 -53.5
t-49.5 -132.5q0 -73 48.5 -126t119.5 -53z" />
    <glyph glyph-name="plusminus" unicode="&#xb1;" horiz-adv-x="1329" 
d="M513 265l29 254l24 145l-129 -8h-231l25 209h232l125 -12l11 149l28 249h222l-26 -249l-26 -147l103 10h260l-26 -209h-259l-102 8l-8 -145l-30 -254h-222zM164 14l16 176h868l-17 -176h-867z" />
    <glyph glyph-name="uni00B2" unicode="&#xb2;" horiz-adv-x="1045" 
d="M105 0l-36 104q103 72 206 154.5t188.5 168.5t137.5 168.5t52 153.5q0 56 -18 94t-55.5 57.5t-96.5 19.5q-71 0 -124.5 -23t-99.5 -53l-92 141q32 27 84.5 58t125.5 54t166 23q96 0 167.5 -26.5t119 -73t71.5 -107t24 -128.5q0 -105 -53 -196.5t-136 -168.5t-173 -138.5
t-164 -105.5l512 15v-191h-806z" />
    <glyph glyph-name="uni00B3" unicode="&#xb3;" horiz-adv-x="995" 
d="M302 -10q-62 0 -112 5.5t-93 11.5l23 187q35 -4 74.5 -9t80.5 -5q92 0 163.5 20t112.5 59t41 93q0 43 -31.5 81t-117.5 46l-135 -31l11 177q54 6 107 25t95.5 46.5t68.5 63t26 76.5q0 43 -34.5 69t-113.5 26q-30 0 -71 -9.5t-82 -26.5t-72 -40l-76 155q25 24 83 50
t135 44t160 18q87 0 163 -27.5t122.5 -79t46.5 -125.5q0 -76 -32.5 -139t-93.5 -109.5t-146 -75.5q88 -3 151 -30t96.5 -74.5t33.5 -110.5q0 -84 -45.5 -151t-126.5 -113.5t-187 -71.5t-225 -25z" />
    <glyph glyph-name="acute" unicode="&#xb4;" horiz-adv-x="549" 
d="M142 1213l-102 82l314 417l177 -166q-15 -31 -64 -81.5t-111 -104t-120.5 -94t-93.5 -53.5z" />
    <glyph glyph-name="uni00B5" unicode="&#xb5;" horiz-adv-x="1332" 
d="M82 -364l168 1170q3 21 3 46.5t-6.5 44t-20.5 18.5q-24 0 -44.5 -12.5t-43.5 -35.5l-55 137q19 25 64.5 53.5t104.5 49t118 20.5q78 0 125.5 -44t45.5 -124q-1 -17 -8 -73t-16.5 -133t-20 -157.5l-19.5 -149.5t-13 -107q0 -75 34 -109t93 -34q44 0 86.5 24.5t77 63
t52.5 82.5l98 748h269q-24 -198 -42.5 -342t-32 -245.5t-22 -172t-13.5 -122.5q-1 -26 10 -43t24 -17q26 0 55.5 18.5t56.5 51.5l68 -118q-29 -32 -69 -65t-91.5 -55t-118.5 -22q-73 0 -116.5 32.5t-55.5 105.5q-36 -45 -73 -76t-82 -46.5t-106 -15.5q-42 1 -93.5 20
t-69.5 54l-64 -420h-257z" />
    <glyph glyph-name="paragraph" unicode="&#xb6;" horiz-adv-x="1306" 
d="M364 0l100 706q-108 3 -186.5 51t-121 131t-42.5 192q0 148 68 249t198 153t318 52q59 0 132 -4.5t139.5 -9t103.5 -4.5h299l-18 -146l-164 -33l-172 -1337h-232l170 1334h-190l-171 -1334h-231z" />
    <glyph glyph-name="periodcentered" unicode="&#xb7;" horiz-adv-x="670" 
d="M308 605q-60 0 -97.5 36t-37.5 94q0 74 50.5 129t128.5 55q71 0 104.5 -35.5t33.5 -93.5q0 -84 -49.5 -134.5t-132.5 -50.5z" />
    <glyph glyph-name="cedilla" unicode="&#xb8;" 
d="M171 -457q-64 0 -122.5 12.5t-75.5 22.5l30 175q14 -7 43 -13.5t78 -6.5q55 0 100 37.5t46 120.5q1 57 -3 88t-8 51l56 4l76 -4q20 -29 37 -83t17 -127q0 -141 -75 -209t-199 -68z" />
    <glyph glyph-name="uni00B9" unicode="&#xb9;" horiz-adv-x="747" 
d="M187 0l125 850q-45 -13 -79 -16t-85 -11l-31 149q81 18 171 63t153 85h1l165 -19l-157 -1101h-263z" />
    <glyph glyph-name="ordmasculine" unicode="&#xba;" horiz-adv-x="861" 
d="M439 707q-98 0 -176 46t-122 126.5t-44 182.5q0 141 63.5 251.5t170 174.5t237.5 64q109 0 186.5 -45.5t119 -126t41.5 -184.5q0 -146 -62 -256t-169.5 -171.5t-244.5 -61.5zM456 852q83 0 132 48t70 126t21 167q0 108 -31 164.5t-97 56.5q-65 0 -114.5 -48t-77.5 -123
t-28 -157q0 -97 31.5 -165.5t93.5 -68.5z" />
    <glyph glyph-name="guillemotright" unicode="&#xbb;" horiz-adv-x="1864" 
d="M993 134l-48 158l457 321l-378 318l89 140l609 -379l-28 -172zM258 134l-47 158l458 321l-380 318l90 140l608 -379l-27 -172z" />
    <glyph glyph-name="onequarter" unicode="&#xbc;" horiz-adv-x="2151" 
d="M269 620l125 850q-45 -13 -79 -16t-85 -11l-31 149q81 18 171 63t153 85h1l165 -19l-157 -1101h-263zM1345 1896h204l-917 -1998h-205zM1611 0l29 222h-462l-61 127q48 72 102 164.5t110 196t109.5 208.5t100.5 202h259l48 -40l-390 -603l-67 -83l275 13l47 326l234 25
l-41 -345l162 9l-28 -200h-159l-28 -222h-240z" />
    <glyph glyph-name="onehalf" unicode="&#xbd;" horiz-adv-x="2158" 
d="M269 620l125 850q-45 -13 -79 -16t-85 -11l-31 149q81 18 171 63t153 85h1l165 -19l-157 -1101h-263zM1345 1896h204l-917 -1998h-205zM1218 0l-36 104q103 72 206 154.5t188.5 168.5t137.5 168.5t52 153.5q0 56 -18 94t-55.5 57.5t-96.5 19.5q-71 0 -124.5 -23
t-99.5 -53l-92 141q32 27 84.5 58t125.5 54t166 23q96 0 167.5 -26.5t119 -73t71.5 -107t24 -128.5q0 -105 -53 -196.5t-136 -168.5t-173 -138.5t-164 -105.5l512 15v-191h-806z" />
    <glyph glyph-name="threequarters" unicode="&#xbe;" horiz-adv-x="2419" 
d="M384 610q-62 0 -112 5.5t-93 11.5l23 187q35 -4 74.5 -9t80.5 -5q92 0 163.5 20t112.5 59t41 93q0 43 -31.5 81t-117.5 46l-135 -31l11 177q54 6 107 25t95.5 46.5t68.5 63t26 76.5q0 43 -34.5 69t-113.5 26q-30 0 -71 -9.5t-82 -26.5t-72 -40l-76 155q25 24 83 50
t135 44t160 18q87 0 163 -27.5t122.5 -79t46.5 -125.5q0 -76 -32.5 -139t-93.5 -109.5t-146 -75.5q88 -3 151 -30t96.5 -74.5t33.5 -110.5q0 -84 -45.5 -151t-126.5 -113.5t-187 -71.5t-225 -25zM1613 1896h204l-917 -1998h-205zM1878 0l29 222h-462l-61 127
q48 72 102 164.5t110 196t109.5 208.5t100.5 202h259l48 -40l-390 -603l-67 -83l275 13l47 326l234 25l-41 -345l162 9l-28 -200h-159l-28 -222h-240z" />
    <glyph glyph-name="questiondown" unicode="&#xbf;" horiz-adv-x="902" 
d="M740 809q17 -32 27.5 -69.5t10.5 -101.5q0 -51 -26 -99t-73.5 -93t-112.5 -85q-69 -48 -124.5 -91t-95 -84.5t-60.5 -86.5t-21 -96q0 -68 39.5 -114.5t107.5 -71.5t153 -25q59 0 107 6.5t99 21.5l-43 -187q-23 -19 -83.5 -33.5t-124.5 -14.5q-152 0 -267.5 40.5
t-180 126.5t-64.5 225q0 138 80 247.5t242 197.5q43 24 85 52.5t77 61.5t57 70t23 78q1 34 -2.5 65.5t-8.5 57.5zM680 1338q59 0 96 -36.5t37 -94.5q0 -73 -49.5 -128.5t-128.5 -55.5q-71 0 -105 35.5t-34 93.5q0 83 50 134.5t134 51.5z" />
    <glyph glyph-name="Agrave" unicode="&#xc0;" horiz-adv-x="1277" 
d="M-99 0l726 1494h333l249 -1494h-275l-46 330h-544l-145 -330h-298zM426 524h435l-92 666l-9 114l-44 -114zM895 1635q-37 14 -94 55.5t-117 94.5t-107 103t-63 80l179 166l305 -416z" />
    <glyph glyph-name="Aacute" unicode="&#xc1;" horiz-adv-x="1277" 
d="M-99 0l726 1494h333l249 -1494h-275l-46 330h-544l-145 -330h-298zM426 524h435l-92 666l-9 114l-44 -114zM771 1635l-102 83l315 416l177 -154q-13 -24 -47 -63.5t-80.5 -84t-96 -85.5t-93.5 -71.5t-73 -40.5z" />
    <glyph glyph-name="Acircumflex" unicode="&#xc2;" horiz-adv-x="1277" 
d="M-99 0l726 1494h333l249 -1494h-275l-46 330h-544l-145 -330h-298zM426 524h435l-92 666l-9 114l-44 -114zM541 1622l-106 70l342 358h174l198 -358l-123 -66l-191 204z" />
    <glyph glyph-name="Atilde" unicode="&#xc3;" horiz-adv-x="1277" 
d="M-99 0l726 1494h333l249 -1494h-275l-46 330h-544l-145 -330h-298zM426 524h435l-92 666l-9 114l-44 -114zM963 1650q-59 0 -106 23.5t-80 58.5q-28 31 -51 46.5t-56 15.5q-37 0 -65 -18.5t-62 -69.5l-86 109q23 48 60 87t81.5 61.5t90.5 22.5q52 0 97.5 -21.5
t80.5 -61.5q27 -29 48.5 -43.5t45.5 -14.5q29 0 53.5 13.5t45 38.5t37.5 61l90 -116q-17 -48 -51 -92.5t-79 -72t-94 -27.5z" />
    <glyph glyph-name="Adieresis" unicode="&#xc4;" horiz-adv-x="1277" 
d="M-99 0l726 1494h333l249 -1494h-275l-46 330h-544l-145 -330h-298zM426 524h435l-92 666l-9 114l-44 -114zM581 1645q-51 0 -90.5 42.5t-39.5 94.5q0 75 46.5 123.5t114.5 48.5q59 0 98.5 -40.5t39.5 -94.5q0 -74 -43.5 -124t-125.5 -50zM1025 1645q-51 0 -90 42t-39 95
q0 74 46 123t114 49q60 0 99.5 -40.5t39.5 -94.5q0 -73 -44 -123.5t-126 -50.5z" />
    <glyph glyph-name="Aring" unicode="&#xc5;" horiz-adv-x="1277" 
d="M-99 0l726 1494h333l249 -1494h-275l-46 330h-544l-145 -330h-298zM426 524h435l-92 666l-9 114l-44 -114zM803 1631q-138 0 -216.5 64t-78.5 181q0 97 55 161q56 64 139 93.5t169 29.5q131 0 207.5 -63.5t76.5 -179.5q0 -95 -49 -157q-50 -65 -130.5 -97t-172.5 -32z
M817 1754q78 0 125 34.5t47 120.5q0 56 -40 93t-98 37q-72 0 -125 -36.5t-53 -117.5q0 -54 44 -92.5t100 -38.5z" />
    <glyph glyph-name="AE" unicode="&#xc6;" horiz-adv-x="1836" 
d="M-122 0l748 1334l-259 26l22 134h1416l-23 -214l-557 5l-56 -418l418 6l-25 -218l-420 12l-62 -458l649 12l-25 -221h-926l46 345h-464l-181 -345h-301zM467 544h384l101 750l-83 7z" />
    <glyph glyph-name="Ccedilla" unicode="&#xc7;" horiz-adv-x="1140" 
d="M604 -16q-186 0 -299 91q-115 91 -164 234.5t-49 312.5q0 250 98 453q96 203 266 319t382 116q52 0 101.5 -6.5t104.5 -21.5t125 -41l-85 -246q-48 34 -108 59.5t-160 25.5q-156 0 -254 -98q-100 -97 -145.5 -245t-45.5 -308q0 -128 30.5 -223.5t96 -148t170.5 -52.5
q61 0 125 15t117.5 37.5t81.5 43.5l38 -204q-23 -18 -67 -38t-102 -37t-124 -27.5t-133 -10.5zM432 -457q-64 0 -122.5 12.5t-75.5 22.5l30 175q14 -7 43 -13.5t78 -6.5q55 0 100 37.5t46 120.5q1 57 -3 88t-8 51l56 4l76 -4q20 -29 37 -83t17 -127q0 -141 -75 -209
t-199 -68z" />
    <glyph glyph-name="Egrave" unicode="&#xc8;" horiz-adv-x="1145" 
d="M88 0l202 1494h824l-22 -214l-558 5l-55 -418l418 6l-24 -218l-422 12l-61 -458l649 12l-26 -221h-925zM836 1634q-37 14 -94 55.5t-117 94.5t-107 103t-63 80l179 166l305 -416z" />
    <glyph glyph-name="Eacute" unicode="&#xc9;" horiz-adv-x="1145" 
d="M88 0l202 1494h824l-22 -214l-558 5l-55 -418l418 6l-24 -218l-422 12l-61 -458l649 12l-26 -221h-925zM712 1634l-102 83l315 416l177 -154q-13 -24 -47 -63.5t-80.5 -84t-96 -85.5t-93.5 -71.5t-73 -40.5z" />
    <glyph glyph-name="Ecircumflex" unicode="&#xca;" horiz-adv-x="1145" 
d="M88 0l202 1494h824l-22 -214l-558 5l-55 -418l418 6l-24 -218l-422 12l-61 -458l649 12l-26 -221h-925zM482 1621l-106 70l342 358h174l198 -358l-123 -66l-191 204z" />
    <glyph glyph-name="Edieresis" unicode="&#xcb;" horiz-adv-x="1145" 
d="M88 0l202 1494h824l-22 -214l-558 5l-55 -418l418 6l-24 -218l-422 12l-61 -458l649 12l-26 -221h-925zM522 1644q-51 0 -90.5 42.5t-39.5 94.5q0 75 46.5 123.5t114.5 48.5q59 0 98.5 -40.5t39.5 -94.5q0 -74 -43.5 -124t-125.5 -50zM966 1644q-51 0 -90 42t-39 95
q0 74 46 123t114 49q60 0 99.5 -40.5t39.5 -94.5q0 -73 -44 -123.5t-126 -50.5z" />
    <glyph glyph-name="Igrave" unicode="&#xcc;" horiz-adv-x="631" 
d="M109 0l202 1494h274l-202 -1494h-274zM560 1634q-37 14 -94 55.5t-117 94.5t-107 103t-63 80l179 166l305 -416z" />
    <glyph glyph-name="Iacute" unicode="&#xcd;" horiz-adv-x="631" 
d="M109 0l202 1494h274l-202 -1494h-274zM436 1634l-102 83l315 416l177 -154q-13 -24 -47 -63.5t-80.5 -84t-96 -85.5t-93.5 -71.5t-73 -40.5z" />
    <glyph glyph-name="Icircumflex" unicode="&#xce;" horiz-adv-x="631" 
d="M109 0l202 1494h274l-202 -1494h-274zM206 1621l-106 70l342 358h174l198 -358l-123 -66l-191 204z" />
    <glyph glyph-name="Idieresis" unicode="&#xcf;" horiz-adv-x="631" 
d="M109 0l202 1494h274l-202 -1494h-274zM246 1644q-51 0 -90.5 42.5t-39.5 94.5q0 75 46.5 123.5t114.5 48.5q59 0 98.5 -40.5t39.5 -94.5q0 -74 -43.5 -124t-125.5 -50zM690 1644q-51 0 -90 42t-39 95q0 74 46 123t114 49q60 0 99.5 -40.5t39.5 -94.5q0 -73 -44 -123.5
t-126 -50.5z" />
    <glyph glyph-name="Eth" unicode="&#xd0;" horiz-adv-x="1369" 
d="M813 869l-20 -188h-758l19 188h759zM536 -16q-58 1 -116 5t-111.5 7.5t-100.5 3.5h-120l202 1494h126q12 0 45.5 1.5t77.5 4t89 5t81.5 4t52.5 1.5q294 0 430 -162.5t136 -453.5q0 -193 -54.5 -359t-158 -290.5t-249.5 -193.5t-330 -67zM579 187q154 3 260 101
q105 98 156 257.5t51 346.5q0 158 -36 250q-36 90 -111 128t-201 38q-36 0 -84.5 -4.5t-77.5 -11.5l-145 -1080q36 -13 86 -19t102 -6z" />
    <glyph glyph-name="Ntilde" unicode="&#xd1;" horiz-adv-x="1419" 
d="M88 0l202 1494h253l386 -898l70 -230l16 249l106 879h263l-202 -1494h-242l-389 926l-75 248l-12 -279l-117 -895h-259zM1014 1650q-59 0 -106 23.5t-80 58.5q-28 31 -51 46.5t-56 15.5q-37 0 -65 -18.5t-62 -69.5l-86 109q23 48 60 87t81.5 61.5t90.5 22.5
q52 0 97.5 -21.5t80.5 -61.5q27 -29 48.5 -43.5t45.5 -14.5q29 0 53.5 13.5t45 38.5t37.5 61l90 -116q-17 -48 -51 -92.5t-79 -72t-94 -27.5z" />
    <glyph glyph-name="Ograve" unicode="&#xd2;" horiz-adv-x="1353" 
d="M602 -16q-167 0 -281 80.5t-172.5 218t-58.5 307.5q0 185 49.5 351t143 294t226 201.5t297.5 73.5q125 0 220 -47t158.5 -131t95.5 -194t32 -237q0 -185 -48.5 -350.5t-140.5 -293t-223.5 -200.5t-297.5 -73zM630 191q98 0 173.5 63t126 166.5t76 226.5t24.5 241
q-2 145 -32 236t-87 134t-140 43q-96 0 -170.5 -64t-125.5 -167.5t-77 -225t-25 -237.5q3 -216 71 -316t186 -100zM926 1635q-37 14 -94 55.5t-117 94.5t-107 103t-63 80l179 166l305 -416z" />
    <glyph glyph-name="Oacute" unicode="&#xd3;" horiz-adv-x="1353" 
d="M602 -16q-167 0 -281 80.5t-172.5 218t-58.5 307.5q0 185 49.5 351t143 294t226 201.5t297.5 73.5q125 0 220 -47t158.5 -131t95.5 -194t32 -237q0 -185 -48.5 -350.5t-140.5 -293t-223.5 -200.5t-297.5 -73zM630 191q98 0 173.5 63t126 166.5t76 226.5t24.5 241
q-2 145 -32 236t-87 134t-140 43q-96 0 -170.5 -64t-125.5 -167.5t-77 -225t-25 -237.5q3 -216 71 -316t186 -100zM802 1635l-102 83l315 416l177 -154q-13 -24 -47 -63.5t-80.5 -84t-96 -85.5t-93.5 -71.5t-73 -40.5z" />
    <glyph glyph-name="Ocircumflex" unicode="&#xd4;" horiz-adv-x="1353" 
d="M602 -16q-167 0 -281 80.5t-172.5 218t-58.5 307.5q0 185 49.5 351t143 294t226 201.5t297.5 73.5q125 0 220 -47t158.5 -131t95.5 -194t32 -237q0 -185 -48.5 -350.5t-140.5 -293t-223.5 -200.5t-297.5 -73zM630 191q98 0 173.5 63t126 166.5t76 226.5t24.5 241
q-2 145 -32 236t-87 134t-140 43q-96 0 -170.5 -64t-125.5 -167.5t-77 -225t-25 -237.5q3 -216 71 -316t186 -100zM572 1622l-106 70l342 358h174l198 -358l-123 -66l-191 204z" />
    <glyph glyph-name="Otilde" unicode="&#xd5;" horiz-adv-x="1353" 
d="M602 -16q-167 0 -281 80.5t-172.5 218t-58.5 307.5q0 185 49.5 351t143 294t226 201.5t297.5 73.5q125 0 220 -47t158.5 -131t95.5 -194t32 -237q0 -185 -48.5 -350.5t-140.5 -293t-223.5 -200.5t-297.5 -73zM630 191q98 0 173.5 63t126 166.5t76 226.5t24.5 241
q-2 145 -32 236t-87 134t-140 43q-96 0 -170.5 -64t-125.5 -167.5t-77 -225t-25 -237.5q3 -216 71 -316t186 -100zM994 1650q-59 0 -106 23.5t-80 58.5q-28 31 -51 46.5t-56 15.5q-37 0 -65 -18.5t-62 -69.5l-86 109q23 48 60 87t81.5 61.5t90.5 22.5q52 0 97.5 -21.5
t80.5 -61.5q27 -29 48.5 -43.5t45.5 -14.5q29 0 53.5 13.5t45 38.5t37.5 61l90 -116q-17 -48 -51 -92.5t-79 -72t-94 -27.5z" />
    <glyph glyph-name="Odieresis" unicode="&#xd6;" horiz-adv-x="1353" 
d="M602 -16q-167 0 -281 80.5t-172.5 218t-58.5 307.5q0 185 49.5 351t143 294t226 201.5t297.5 73.5q125 0 220 -47t158.5 -131t95.5 -194t32 -237q0 -185 -48.5 -350.5t-140.5 -293t-223.5 -200.5t-297.5 -73zM630 191q98 0 173.5 63t126 166.5t76 226.5t24.5 241
q-2 145 -32 236t-87 134t-140 43q-96 0 -170.5 -64t-125.5 -167.5t-77 -225t-25 -237.5q3 -216 71 -316t186 -100zM612 1645q-51 0 -90.5 42.5t-39.5 94.5q0 75 46.5 123.5t114.5 48.5q59 0 98.5 -40.5t39.5 -94.5q0 -74 -43.5 -124t-125.5 -50zM1056 1645q-51 0 -90 42
t-39 95q0 74 46 123t114 49q60 0 99.5 -40.5t39.5 -94.5q0 -73 -44 -123.5t-126 -50.5z" />
    <glyph glyph-name="multiply" unicode="&#xd7;" horiz-adv-x="1352" 
d="M332 276l-152 187l360 314l-306 328l188 167l290 -354l371 357l152 -187l-385 -333l309 -324l-188 -165l-293 347z" />
    <glyph glyph-name="Oslash" unicode="&#xd8;" horiz-adv-x="1354" 
d="M186 -128l-87 46l141 216q-77 82 -116.5 200.5t-39.5 257.5q0 254 90 464t252.5 332.5t371.5 122.5q157 0 271 -75l120 194l87 -46l-131 -213q79 -82 119.5 -203.5t40.5 -265.5q0 -252 -88 -462q-88 -209 -249 -332t-374 -123q-81 0 -151 21t-130 63zM624 192
q116 0 209 99q90 99 139.5 257.5t49.5 332.5q0 167 -36 264l-534 -881q59 -72 172 -72zM399 363l531 879q-60 59 -166 59q-115 0 -207 -100q-90 -100 -140.5 -258.5t-50.5 -326.5q0 -155 33 -253z" />
    <glyph glyph-name="Ugrave" unicode="&#xd9;" horiz-adv-x="1371" 
d="M598 -16q-234 0 -352.5 116t-119.5 325q0 28 3.5 65t10.5 92l121 912h275l-118 -874q-5 -47 -9.5 -91.5t-4.5 -88.5q0 -126 58 -183.5t177 -57.5q98 0 163.5 51t104.5 146t58 228l116 870h271l-120 -897q-15 -111 -41.5 -200t-65.5 -156q-77 -135 -207 -196t-320 -61z
M917 1635q-37 14 -94 55.5t-117 94.5t-107 103t-63 80l179 166l305 -416z" />
    <glyph glyph-name="Uacute" unicode="&#xda;" horiz-adv-x="1371" 
d="M598 -16q-234 0 -352.5 116t-119.5 325q0 28 3.5 65t10.5 92l121 912h275l-118 -874q-5 -47 -9.5 -91.5t-4.5 -88.5q0 -126 58 -183.5t177 -57.5q98 0 163.5 51t104.5 146t58 228l116 870h271l-120 -897q-15 -111 -41.5 -200t-65.5 -156q-77 -135 -207 -196t-320 -61z
M793 1635l-102 83l315 416l177 -154q-13 -24 -47 -63.5t-80.5 -84t-96 -85.5t-93.5 -71.5t-73 -40.5z" />
    <glyph glyph-name="Ucircumflex" unicode="&#xdb;" horiz-adv-x="1371" 
d="M598 -16q-234 0 -352.5 116t-119.5 325q0 28 3.5 65t10.5 92l121 912h275l-118 -874q-5 -47 -9.5 -91.5t-4.5 -88.5q0 -126 58 -183.5t177 -57.5q98 0 163.5 51t104.5 146t58 228l116 870h271l-120 -897q-15 -111 -41.5 -200t-65.5 -156q-77 -135 -207 -196t-320 -61z
M563 1622l-106 70l342 358h174l198 -358l-123 -66l-191 204z" />
    <glyph glyph-name="Udieresis" unicode="&#xdc;" horiz-adv-x="1371" 
d="M598 -16q-234 0 -352.5 116t-119.5 325q0 28 3.5 65t10.5 92l121 912h275l-118 -874q-5 -47 -9.5 -91.5t-4.5 -88.5q0 -126 58 -183.5t177 -57.5q98 0 163.5 51t104.5 146t58 228l116 870h271l-120 -897q-15 -111 -41.5 -200t-65.5 -156q-77 -135 -207 -196t-320 -61z
M603 1645q-51 0 -90.5 42.5t-39.5 94.5q0 75 46.5 123.5t114.5 48.5q59 0 98.5 -40.5t39.5 -94.5q0 -74 -43.5 -124t-125.5 -50zM1047 1645q-51 0 -90 42t-39 95q0 74 46 123t114 49q60 0 99.5 -40.5t39.5 -94.5q0 -73 -44 -123.5t-126 -50.5z" />
    <glyph glyph-name="Yacute" unicode="&#xdd;" horiz-adv-x="1099" 
d="M339 0l78 576l-335 918h288l187 -589l28 -105l47 105l336 589h301l-583 -918l-78 -576h-269zM663 1635l-102 83l315 416l177 -154q-13 -24 -47 -63.5t-80.5 -84t-96 -85.5t-93.5 -71.5t-73 -40.5z" />
    <glyph glyph-name="Thorn" unicode="&#xde;" horiz-adv-x="1231" 
d="M90 0l200 1494h276l-32 -241q21 2 53 4t63 3.5t51 1.5q236 0 361.5 -102.5t125.5 -303.5q0 -173 -74 -308q-76 -136 -217.5 -213t-329.5 -77q-43 0 -89 4t-76 7l-35 -269h-277zM569 466q175 0 259 98t89 284q2 109 -62 164t-203 55q-24 0 -37 -0.5t-20 -1.5t-15.5 -2.5
t-24.5 -3t-47 -3.5l-77 -578q22 -6 61.5 -9.5t76.5 -2.5z" />
    <glyph glyph-name="germandbls" unicode="&#xdf;" horiz-adv-x="1230" 
d="M731 -16q-77 0 -147 13.5t-108 32.5l24 222q27 -26 81.5 -50t106.5 -24q92 0 139 31.5t47 107.5q0 37 -15 72t-37 66.5t-42 58.5q-54 70 -87.5 135.5t-33.5 120.5q0 65 30 114t82 104q66 61 98.5 119.5t32.5 130.5q0 57 -39 95t-109 38q-76 0 -129.5 -44t-88.5 -119
t-56.5 -168t-33.5 -192l-112 -846h-267l117 906q28 210 100 353t199.5 216t322.5 73q106 0 186.5 -33t126 -98t45.5 -160q0 -111 -43 -180.5t-106 -128.5q-46 -44 -67.5 -74.5t-21.5 -70.5q0 -30 21.5 -67.5t61.5 -94.5q66 -86 101.5 -158.5t35.5 -166.5
q0 -110 -54.5 -184.5t-148 -112t-212.5 -37.5z" />
    <glyph glyph-name="agrave" unicode="&#xe0;" horiz-adv-x="1175" 
d="M390 -16q-162 0 -239 114t-77 306q0 150 46.5 281.5t133 231t207 155.5t268.5 56q54 0 118 -11.5t115 -26.5l147 38l-155 -1128h-244l13 215q-55 -97 -140 -164t-193 -67zM470 177q43 0 83.5 30t77 77t67 101t52.5 103l64 453q-49 15 -111 15q-113 0 -190 -80
q-78 -81 -116.5 -202.5t-38.5 -247.5q0 -69 10.5 -125.5t34.5 -90t67 -33.5zM824 1279q-36 14 -93.5 55t-117 94.5t-106.5 103t-64 80.5l173 166l306 -416z" />
    <glyph glyph-name="aacute" unicode="&#xe1;" horiz-adv-x="1175" 
d="M390 -16q-162 0 -239 114t-77 306q0 150 46.5 281.5t133 231t207 155.5t268.5 56q54 0 118 -11.5t115 -26.5l147 38l-155 -1128h-244l13 215q-55 -97 -140 -164t-193 -67zM470 177q43 0 83.5 30t77 77t67 101t52.5 103l64 453q-49 15 -111 15q-113 0 -190 -80
q-78 -81 -116.5 -202.5t-38.5 -247.5q0 -69 10.5 -125.5t34.5 -90t67 -33.5zM691 1279l-95 83l313 416l172 -154q-13 -24 -47.5 -63.5t-81 -84t-95.5 -85.5t-93 -71.5t-73 -40.5z" />
    <glyph glyph-name="acircumflex" unicode="&#xe2;" horiz-adv-x="1175" 
d="M390 -16q-162 0 -239 114t-77 306q0 150 46.5 281.5t133 231t207 155.5t268.5 56q54 0 118 -11.5t115 -26.5l147 38l-155 -1128h-244l13 215q-55 -97 -140 -164t-193 -67zM470 177q43 0 83.5 30t77 77t67 101t52.5 103l64 453q-49 15 -111 15q-113 0 -190 -80
q-78 -81 -116.5 -202.5t-38.5 -247.5q0 -69 10.5 -125.5t34.5 -90t67 -33.5zM497 1243l-107 70l341 350h175l198 -350l-122 -67l-191 220z" />
    <glyph glyph-name="atilde" unicode="&#xe3;" horiz-adv-x="1175" 
d="M390 -16q-162 0 -239 114t-77 306q0 150 46.5 281.5t133 231t207 155.5t268.5 56q54 0 118 -11.5t115 -26.5l147 38l-155 -1128h-244l13 215q-55 -97 -140 -164t-193 -67zM470 177q43 0 83.5 30t77 77t67 101t52.5 103l64 453q-49 15 -111 15q-113 0 -190 -80
q-78 -81 -116.5 -202.5t-38.5 -247.5q0 -69 10.5 -125.5t34.5 -90t67 -33.5zM899 1238q-58 0 -105 23.5t-81 59.5q-28 30 -50.5 45.5t-56.5 15.5q-37 0 -65 -18.5t-62 -69.5l-86 109q36 73 100 123t132 50q53 0 98 -22.5t80 -62.5q27 -29 48.5 -43.5t46.5 -14.5
q29 0 53 13.5t44.5 38.5t37.5 62l91 -116q-17 -49 -51 -93t-79.5 -72t-94.5 -28z" />
    <glyph glyph-name="adieresis" unicode="&#xe4;" horiz-adv-x="1175" 
d="M390 -16q-162 0 -239 114t-77 306q0 150 46.5 281.5t133 231t207 155.5t268.5 56q54 0 118 -11.5t115 -26.5l147 38l-155 -1128h-244l13 215q-55 -97 -140 -164t-193 -67zM470 177q43 0 83.5 30t77 77t67 101t52.5 103l64 453q-49 15 -111 15q-113 0 -190 -80
q-78 -81 -116.5 -202.5t-38.5 -247.5q0 -69 10.5 -125.5t34.5 -90t67 -33.5zM521 1307q-47 0 -84 39.5t-37 88.5q0 69 43.5 114t106.5 45q56 0 92 -37t36 -88q0 -69 -40.5 -115.5t-116.5 -46.5zM965 1307q-47 0 -83.5 39.5t-36.5 88.5q0 69 43 114t107 45q55 0 91.5 -37
t36.5 -88q0 -68 -41 -115t-117 -47z" />
    <glyph glyph-name="aring" unicode="&#xe5;" horiz-adv-x="1175" 
d="M390 -16q-162 0 -239 114t-77 306q0 150 46.5 281.5t133 231t207 155.5t268.5 56q54 0 118 -11.5t115 -26.5l147 38l-155 -1128h-244l13 215q-55 -97 -140 -164t-193 -67zM470 177q43 0 83.5 30t77 77t67 101t52.5 103l64 453q-49 15 -111 15q-113 0 -190 -80
q-78 -81 -116.5 -202.5t-38.5 -247.5q0 -69 10.5 -125.5t34.5 -90t67 -33.5zM743 1224q-139 0 -217.5 64t-78.5 180q0 97 55 162q55 64 138.5 94t169.5 30q131 0 207.5 -64t76.5 -181q0 -94 -48 -157q-50 -65 -131 -96.5t-172 -31.5zM756 1347q78 0 125 34.5t47 120.5
q0 56 -40 93t-98 37q-72 0 -125 -37t-53 -117q0 -54 44 -92.5t100 -38.5z" />
    <glyph glyph-name="ae" unicode="&#xe6;" horiz-adv-x="1656" 
d="M371 -16q-154 0 -227.5 111t-73.5 309q0 153 51 284.5t142 230.5t214 154t269 55q75 0 139.5 -15t128.5 -54q126 69 276 69q103 0 170.5 -33t101 -89.5t33.5 -127.5q0 -107 -51 -188.5t-139 -140t-200 -97t-232 -58.5q-4 -67 13 -115.5t56.5 -74t100.5 -25.5
q54 0 112.5 21.5t113 57.5t94.5 79l73 -139q-29 -40 -80 -78t-114 -69t-128.5 -49t-125.5 -18q-157 0 -253 79t-131 207q-57 -121 -139.5 -203.5t-193.5 -82.5zM456 189q31 0 62.5 24.5t62.5 66.5t58 94t48 109q5 68 17.5 129.5t33.5 117.5t49.5 104.5t64.5 91.5
q-65 30 -133 30q-93 0 -162.5 -48t-116.5 -127t-70 -174t-23 -190q0 -60 9 -112t33 -84t67 -32zM972 549q61 4 124 29.5t116 67.5t85.5 94.5t32.5 111.5q0 58 -24 82.5t-74 24.5q-37 0 -73.5 -21t-63.5 -57q-55 -68 -86 -162t-37 -170z" />
    <glyph glyph-name="ccedilla" unicode="&#xe7;" horiz-adv-x="910" 
d="M465 -16q-122 0 -209 55.5t-132.5 155.5t-45.5 233q0 183 72 345q72 161 205.5 258t309.5 97q40 0 84 -4.5t84 -13.5t66 -21l-68 -254q-22 20 -52.5 39.5t-66 32t-70.5 12.5q-36 0 -72.5 -18.5t-69.5 -52.5q-63 -61 -103 -162.5t-40 -219.5q0 -143 39 -211.5t132 -68.5
q61 0 125 34t118 89l74 -137q-29 -44 -88.5 -87t-136 -72t-155.5 -29zM328 -457q-64 0 -122.5 12.5t-75.5 22.5l30 175q14 -7 43 -13.5t78 -6.5q55 0 100 37.5t46 120.5q1 57 -3 88t-8 51l56 4l76 -4q20 -29 37 -83t17 -127q0 -141 -75 -209t-199 -68z" />
    <glyph glyph-name="egrave" unicode="&#xe8;" horiz-adv-x="1050" 
d="M482 -16q-139 0 -228 61q-92 62 -134.5 162.5t-41.5 219.5q0 195 81 358q79 161 217 252t309 91q100 0 167 -34t101 -91t34 -125q0 -104 -51 -185t-139 -140.5t-199.5 -99t-232.5 -59.5v-15.5v-14.5q4 -84 43.5 -134.5t129.5 -50.5q53 0 111.5 21.5t113 57.5t95.5 79
l72 -139q-29 -40 -79.5 -78.5t-113.5 -69t-129 -48.5t-126 -18zM366 549q59 3 121 28t115 67t85.5 95.5t32.5 112.5q0 58 -23.5 82.5t-72.5 24.5q-40 0 -73.5 -24t-66.5 -65q-57 -67 -84.5 -157t-33.5 -164zM782 1279q-36 14 -93.5 55t-117 94.5t-106.5 103t-64 80.5
l173 166l306 -416z" />
    <glyph glyph-name="eacute" unicode="&#xe9;" horiz-adv-x="1050" 
d="M482 -16q-139 0 -228 61q-92 62 -134.5 162.5t-41.5 219.5q0 195 81 358q79 161 217 252t309 91q100 0 167 -34t101 -91t34 -125q0 -104 -51 -185t-139 -140.5t-199.5 -99t-232.5 -59.5v-15.5v-14.5q4 -84 43.5 -134.5t129.5 -50.5q53 0 111.5 21.5t113 57.5t95.5 79
l72 -139q-29 -40 -79.5 -78.5t-113.5 -69t-129 -48.5t-126 -18zM366 549q59 3 121 28t115 67t85.5 95.5t32.5 112.5q0 58 -23.5 82.5t-72.5 24.5q-40 0 -73.5 -24t-66.5 -65q-57 -67 -84.5 -157t-33.5 -164zM649 1279l-95 83l313 416l172 -154q-13 -24 -47.5 -63.5t-81 -84
t-95.5 -85.5t-93 -71.5t-73 -40.5z" />
    <glyph glyph-name="ecircumflex" unicode="&#xea;" horiz-adv-x="1050" 
d="M482 -16q-139 0 -228 61q-92 62 -134.5 162.5t-41.5 219.5q0 195 81 358q79 161 217 252t309 91q100 0 167 -34t101 -91t34 -125q0 -104 -51 -185t-139 -140.5t-199.5 -99t-232.5 -59.5v-15.5v-14.5q4 -84 43.5 -134.5t129.5 -50.5q53 0 111.5 21.5t113 57.5t95.5 79
l72 -139q-29 -40 -79.5 -78.5t-113.5 -69t-129 -48.5t-126 -18zM366 549q59 3 121 28t115 67t85.5 95.5t32.5 112.5q0 58 -23.5 82.5t-72.5 24.5q-40 0 -73.5 -24t-66.5 -65q-57 -67 -84.5 -157t-33.5 -164zM455 1243l-107 70l341 350h175l198 -350l-122 -67l-191 220z" />
    <glyph glyph-name="edieresis" unicode="&#xeb;" horiz-adv-x="1050" 
d="M482 -16q-139 0 -228 61q-92 62 -134.5 162.5t-41.5 219.5q0 195 81 358q79 161 217 252t309 91q100 0 167 -34t101 -91t34 -125q0 -104 -51 -185t-139 -140.5t-199.5 -99t-232.5 -59.5v-15.5v-14.5q4 -84 43.5 -134.5t129.5 -50.5q53 0 111.5 21.5t113 57.5t95.5 79
l72 -139q-29 -40 -79.5 -78.5t-113.5 -69t-129 -48.5t-126 -18zM366 549q59 3 121 28t115 67t85.5 95.5t32.5 112.5q0 58 -23.5 82.5t-72.5 24.5q-40 0 -73.5 -24t-66.5 -65q-57 -67 -84.5 -157t-33.5 -164zM479 1307q-47 0 -84 39.5t-37 88.5q0 69 43.5 114t106.5 45
q56 0 92 -37t36 -88q0 -69 -40.5 -115.5t-116.5 -46.5zM923 1307q-47 0 -83.5 39.5t-36.5 88.5q0 69 43 114t107 45q55 0 91.5 -37t36.5 -88q0 -68 -41 -115t-117 -47z" />
    <glyph glyph-name="igrave" unicode="&#xec;" horiz-adv-x="611" 
d="M99 0l151 1114h275l-153 -1114h-273zM482 1279q-36 14 -93.5 55t-117 94.5t-106.5 103t-64 80.5l173 166l306 -416z" />
    <glyph glyph-name="iacute" unicode="&#xed;" horiz-adv-x="611" 
d="M99 0l151 1114h275l-153 -1114h-273zM349 1279l-95 83l313 416l172 -154q-13 -24 -47.5 -63.5t-81 -84t-95.5 -85.5t-93 -71.5t-73 -40.5z" />
    <glyph glyph-name="icircumflex" unicode="&#xee;" horiz-adv-x="611" 
d="M99 0l151 1114h275l-153 -1114h-273zM155 1243l-107 70l341 350h175l198 -350l-122 -67l-191 220z" />
    <glyph glyph-name="idieresis" unicode="&#xef;" horiz-adv-x="611" 
d="M99 0l151 1114h275l-153 -1114h-273zM179 1307q-47 0 -84 39.5t-37 88.5q0 69 43.5 114t106.5 45q56 0 92 -37t36 -88q0 -69 -40.5 -115.5t-116.5 -46.5zM623 1307q-47 0 -83.5 39.5t-36.5 88.5q0 69 43 114t107 45q55 0 91.5 -37t36.5 -88q0 -68 -41 -115t-117 -47z" />
    <glyph glyph-name="eth" unicode="&#xf0;" horiz-adv-x="1174" 
d="M499 -16q-123 0 -218 58.5t-149 159t-54 228.5q0 135 36.5 260.5t107 224.5t171.5 156.5t230 57.5q70 0 126 -19t86 -57q-13 122 -55.5 208.5t-129.5 171.5l81 13l-176 -196l-114 98l192 196l4 -97q-64 63 -138 104t-143 58l51 148q52 -14 112.5 -38.5t121.5 -58
t113 -73.5l-98 -22l184 211l107 -100l-189 -211l19 102q113 -95 183.5 -214t103.5 -255t33 -283q0 -234 -69 -422q-68 -189 -203.5 -299t-325.5 -110zM528 150q56 0 102 44t81.5 117t59.5 161.5t35.5 178.5t11.5 168q-4 35 -28 70t-65 58t-95 23q-45 0 -83 -26.5t-69 -72.5
q-37 -57 -62.5 -132.5t-38 -158t-12.5 -160.5q0 -57 11.5 -105.5t32.5 -85.5t51 -58t68 -21z" />
    <glyph glyph-name="ntilde" unicode="&#xf1;" horiz-adv-x="1230" 
d="M77 0l152 1114h261l-17 -210q78 103 181 163.5t214 60.5q122 0 184 -67t62 -221q0 -23 -5.5 -74t-15 -120t-19.5 -145q-3 -23 -9 -64t-13.5 -94.5t-16 -113t-17.5 -118t-17 -111.5h-274q9 60 19.5 136.5t23.5 167.5l28 196q15 114 23.5 188t8.5 114q1 60 -20.5 82.5
t-69.5 22.5q-33 0 -73.5 -18.5t-81.5 -50t-77 -70t-62 -78.5l-96 -690h-273zM867 1238q-58 0 -105 23.5t-81 59.5q-28 30 -50.5 45.5t-56.5 15.5q-37 0 -65 -18.5t-62 -69.5l-86 109q36 73 100 123t132 50q53 0 98 -22.5t80 -62.5q27 -29 48.5 -43.5t46.5 -14.5
q29 0 53 13.5t44.5 38.5t37.5 62l91 -116q-17 -49 -51 -93t-79.5 -72t-94.5 -28z" />
    <glyph glyph-name="ograve" unicode="&#xf2;" horiz-adv-x="1132" 
d="M469 -16q-132 0 -219.5 58.5t-131 164.5t-43.5 246q0 179 72 335q71 154 205.5 247t313.5 93q132 0 218 -57.5t128.5 -162t42.5 -247.5q0 -178 -70 -334q-71 -155 -204 -249t-312 -94zM508 163q71 0 122 47t83.5 123t47.5 166t15 176q0 84 -14 146t-47.5 96.5t-89.5 34.5
q-72 0 -124 -49.5t-85 -127.5t-49 -168.5t-16 -172.5q0 -133 39 -202t118 -69zM755 1279q-36 14 -93.5 55t-117 94.5t-106.5 103t-64 80.5l173 166l306 -416z" />
    <glyph glyph-name="oacute" unicode="&#xf3;" horiz-adv-x="1132" 
d="M469 -16q-132 0 -219.5 58.5t-131 164.5t-43.5 246q0 179 72 335q71 154 205.5 247t313.5 93q132 0 218 -57.5t128.5 -162t42.5 -247.5q0 -178 -70 -334q-71 -155 -204 -249t-312 -94zM508 163q71 0 122 47t83.5 123t47.5 166t15 176q0 84 -14 146t-47.5 96.5t-89.5 34.5
q-72 0 -124 -49.5t-85 -127.5t-49 -168.5t-16 -172.5q0 -133 39 -202t118 -69zM622 1279l-95 83l313 416l172 -154q-13 -24 -47.5 -63.5t-81 -84t-95.5 -85.5t-93 -71.5t-73 -40.5z" />
    <glyph glyph-name="ocircumflex" unicode="&#xf4;" horiz-adv-x="1132" 
d="M469 -16q-132 0 -219.5 58.5t-131 164.5t-43.5 246q0 179 72 335q71 154 205.5 247t313.5 93q132 0 218 -57.5t128.5 -162t42.5 -247.5q0 -178 -70 -334q-71 -155 -204 -249t-312 -94zM508 163q71 0 122 47t83.5 123t47.5 166t15 176q0 84 -14 146t-47.5 96.5t-89.5 34.5
q-72 0 -124 -49.5t-85 -127.5t-49 -168.5t-16 -172.5q0 -133 39 -202t118 -69zM428 1243l-107 70l341 350h175l198 -350l-122 -67l-191 220z" />
    <glyph glyph-name="otilde" unicode="&#xf5;" horiz-adv-x="1132" 
d="M469 -16q-132 0 -219.5 58.5t-131 164.5t-43.5 246q0 179 72 335q71 154 205.5 247t313.5 93q132 0 218 -57.5t128.5 -162t42.5 -247.5q0 -178 -70 -334q-71 -155 -204 -249t-312 -94zM508 163q71 0 122 47t83.5 123t47.5 166t15 176q0 84 -14 146t-47.5 96.5t-89.5 34.5
q-72 0 -124 -49.5t-85 -127.5t-49 -168.5t-16 -172.5q0 -133 39 -202t118 -69zM830 1238q-58 0 -105 23.5t-81 59.5q-28 30 -50.5 45.5t-56.5 15.5q-37 0 -65 -18.5t-62 -69.5l-86 109q36 73 100 123t132 50q53 0 98 -22.5t80 -62.5q27 -29 48.5 -43.5t46.5 -14.5
q29 0 53 13.5t44.5 38.5t37.5 62l91 -116q-17 -49 -51 -93t-79.5 -72t-94.5 -28z" />
    <glyph glyph-name="odieresis" unicode="&#xf6;" horiz-adv-x="1132" 
d="M469 -16q-132 0 -219.5 58.5t-131 164.5t-43.5 246q0 179 72 335q71 154 205.5 247t313.5 93q132 0 218 -57.5t128.5 -162t42.5 -247.5q0 -178 -70 -334q-71 -155 -204 -249t-312 -94zM508 163q71 0 122 47t83.5 123t47.5 166t15 176q0 84 -14 146t-47.5 96.5t-89.5 34.5
q-72 0 -124 -49.5t-85 -127.5t-49 -168.5t-16 -172.5q0 -133 39 -202t118 -69zM452 1307q-47 0 -84 39.5t-37 88.5q0 69 43.5 114t106.5 45q56 0 92 -37t36 -88q0 -69 -40.5 -115.5t-116.5 -46.5zM896 1307q-47 0 -83.5 39.5t-36.5 88.5q0 69 43 114t107 45q55 0 91.5 -37
t36.5 -88q0 -68 -41 -115t-117 -47z" />
    <glyph glyph-name="divide" unicode="&#xf7;" horiz-adv-x="1337" 
d="M226 658l27 209l896 -1l-26 -208h-897zM626 182q-60 0 -98 36.5t-38 93.5q0 74 51 129.5t129 55.5q71 0 104.5 -36t33.5 -93q0 -84 -49.5 -135t-132.5 -51zM720 1017q-59 0 -97 36t-38 94q0 74 50.5 129t128.5 55q71 0 104.5 -35.5t33.5 -93.5q0 -84 -49.5 -134.5
t-132.5 -50.5z" />
    <glyph glyph-name="oslash" unicode="&#xf8;" horiz-adv-x="1132" 
d="M212 -129l-77 38l146 245l53 46l424 792l38 42l137 224l75 -38l-137 -222l-51 -52l-442 -814l-40 -44zM469 -16q-132 0 -219.5 58.5t-131 164.5t-43.5 246q0 179 72 335q71 154 205.5 247t313.5 93q132 0 218 -57.5t128.5 -162t42.5 -247.5q0 -178 -70 -334
q-71 -155 -204 -249t-312 -94zM508 163q71 0 122 47t83.5 123t47.5 166t15 176q0 84 -14 146t-47.5 96.5t-89.5 34.5q-72 0 -124 -49.5t-85 -127.5t-49 -168.5t-16 -172.5q0 -133 39 -202t118 -69z" />
    <glyph glyph-name="ugrave" unicode="&#xf9;" horiz-adv-x="1203" 
d="M371 -20q-126 0 -196 64.5t-70 205.5q0 41 7.5 113.5t20.5 172.5q12 88 26 187t28 199t26 192h273q-5 -34 -12.5 -89l-16.5 -121t-18 -134.5t-17 -130t-14 -106.5q-11 -85 -16.5 -143t-5.5 -89q0 -59 25 -85t73 -26q43 0 91 29t95 78t86 109l96 708h273l-150 -1114h-247
l13 200q-67 -95 -163.5 -157.5t-206.5 -62.5zM777 1279q-36 14 -93.5 55t-117 94.5t-106.5 103t-64 80.5l173 166l306 -416z" />
    <glyph glyph-name="uacute" unicode="&#xfa;" horiz-adv-x="1203" 
d="M371 -20q-126 0 -196 64.5t-70 205.5q0 41 7.5 113.5t20.5 172.5q12 88 26 187t28 199t26 192h273q-5 -34 -12.5 -89l-16.5 -121t-18 -134.5t-17 -130t-14 -106.5q-11 -85 -16.5 -143t-5.5 -89q0 -59 25 -85t73 -26q43 0 91 29t95 78t86 109l96 708h273l-150 -1114h-247
l13 200q-67 -95 -163.5 -157.5t-206.5 -62.5zM643 1279l-95 83l313 416l172 -154q-13 -24 -47.5 -63.5t-81 -84t-95.5 -85.5t-93 -71.5t-73 -40.5z" />
    <glyph glyph-name="ucircumflex" unicode="&#xfb;" horiz-adv-x="1203" 
d="M371 -20q-126 0 -196 64.5t-70 205.5q0 41 7.5 113.5t20.5 172.5q12 88 26 187t28 199t26 192h273q-5 -34 -12.5 -89l-16.5 -121t-18 -134.5t-17 -130t-14 -106.5q-11 -85 -16.5 -143t-5.5 -89q0 -59 25 -85t73 -26q43 0 91 29t95 78t86 109l96 708h273l-150 -1114h-247
l13 200q-67 -95 -163.5 -157.5t-206.5 -62.5zM450 1243l-107 70l341 350h175l198 -350l-122 -67l-191 220z" />
    <glyph glyph-name="udieresis" unicode="&#xfc;" horiz-adv-x="1203" 
d="M371 -20q-126 0 -196 64.5t-70 205.5q0 41 7.5 113.5t20.5 172.5q12 88 26 187t28 199t26 192h273q-5 -34 -12.5 -89l-16.5 -121t-18 -134.5t-17 -130t-14 -106.5q-11 -85 -16.5 -143t-5.5 -89q0 -59 25 -85t73 -26q43 0 91 29t95 78t86 109l96 708h273l-150 -1114h-247
l13 200q-67 -95 -163.5 -157.5t-206.5 -62.5zM474 1307q-47 0 -84 39.5t-37 88.5q0 69 43.5 114t106.5 45q56 0 92 -37t36 -88q0 -69 -40.5 -115.5t-116.5 -46.5zM918 1307q-47 0 -83.5 39.5t-36.5 88.5q0 69 43 114t107 45q55 0 91.5 -37t36.5 -88q0 -68 -41 -115t-117 -47
z" />
    <glyph glyph-name="yacute" unicode="&#xfd;" horiz-adv-x="1072" 
d="M62 -498q-50 0 -104 15.5t-96 36.5l72 200q28 -17 67 -31t77 -14q71 0 132.5 37t116.5 99t105 137h-163l-58 366l-109 766h281l77 -714l36 -303q31 61 57.5 121t49.5 118q49 100 81.5 197t52.5 203t30 232q3 30 4 69.5t1 76.5h254q2 -20 2.5 -58t-0.5 -82
q-6 -160 -53.5 -334.5t-138.5 -363.5q-50 -106 -119 -220t-146 -220t-154 -187q-59 -61 -147 -104t-208 -43zM564 1279l-95 83l313 416l172 -154q-13 -24 -47.5 -63.5t-81 -84t-95.5 -85.5t-93 -71.5t-73 -40.5z" />
    <glyph glyph-name="thorn" unicode="&#xfe;" horiz-adv-x="1201" 
d="M10 -491l68 484l216 1605h262l-69 -565l-27 -150q37 67 89 123t116.5 89t140.5 33q163 0 239.5 -114.5t76.5 -305.5q0 -178 -74 -342q-49 -112 -132.5 -198t-198 -135t-257.5 -49q-26 0 -56 3.5t-64 9.5l-14 -132l-46 -356h-270zM487 159q112 0 193 79q77 80 116.5 202
t39.5 245q0 112 -25 180t-86 68q-49 0 -100.5 -40.5t-100 -108.5t-88.5 -150l-61 -461q48 -14 112 -14z" />
    <glyph glyph-name="ydieresis" unicode="&#xff;" horiz-adv-x="1072" 
d="M62 -498q-50 0 -104 15.5t-96 36.5l72 200q28 -17 67 -31t77 -14q71 0 132.5 37t116.5 99t105 137h-163l-58 366l-109 766h281l77 -714l36 -303q31 61 57.5 121t49.5 118q49 100 81.5 197t52.5 203t30 232q3 30 4 69.5t1 76.5h254q2 -20 2.5 -58t-0.5 -82
q-6 -160 -53.5 -334.5t-138.5 -363.5q-50 -106 -119 -220t-146 -220t-154 -187q-59 -61 -147 -104t-208 -43zM395 1307q-47 0 -84 39.5t-37 88.5q0 69 43.5 114t106.5 45q56 0 92 -37t36 -88q0 -69 -40.5 -115.5t-116.5 -46.5zM839 1307q-47 0 -83.5 39.5t-36.5 88.5
q0 69 43 114t107 45q55 0 91.5 -37t36.5 -88q0 -68 -41 -115t-117 -47z" />
    <glyph glyph-name="Amacron" unicode="&#x100;" horiz-adv-x="1277" 
d="M-99 0l726 1494h333l249 -1494h-275l-46 330h-544l-145 -330h-298zM426 524h435l-92 666l-9 114l-44 -114zM542 1650l11 180h541l-13 -180h-539z" />
    <glyph glyph-name="amacron" unicode="&#x101;" horiz-adv-x="1175" 
d="M390 -16q-162 0 -239 114t-77 306q0 150 46.5 281.5t133 231t207 155.5t268.5 56q54 0 118 -11.5t115 -26.5l147 38l-155 -1128h-244l13 215q-55 -97 -140 -164t-193 -67zM470 177q43 0 83.5 30t77 77t67 101t52.5 103l64 453q-49 15 -111 15q-113 0 -190 -80
q-78 -81 -116.5 -202.5t-38.5 -247.5q0 -69 10.5 -125.5t34.5 -90t67 -33.5zM482 1306l20 180h541l-21 -180h-540z" />
    <glyph glyph-name="Abreve" unicode="&#x102;" horiz-adv-x="1277" 
d="M-99 0l726 1494h333l249 -1494h-275l-46 330h-544l-145 -330h-298zM426 524h435l-92 666l-9 114l-44 -114zM808 1635q-109 0 -180.5 45t-101.5 125.5t-17 187.5h160q1 -94 33.5 -136t117.5 -42q56 0 91 22.5t54.5 63t31.5 92.5h155q0 -105 -43.5 -185.5t-121 -126.5
t-179.5 -46z" />
    <glyph glyph-name="abreve" unicode="&#x103;" horiz-adv-x="1175" 
d="M390 -16q-162 0 -239 114t-77 306q0 150 46.5 281.5t133 231t207 155.5t268.5 56q54 0 118 -11.5t115 -26.5l147 38l-155 -1128h-244l13 215q-55 -97 -140 -164t-193 -67zM470 177q43 0 83.5 30t77 77t67 101t52.5 103l64 453q-49 15 -111 15q-113 0 -190 -80
q-78 -81 -116.5 -202.5t-38.5 -247.5q0 -69 10.5 -125.5t34.5 -90t67 -33.5zM757 1263q-109 0 -180.5 45t-102 126t-16.5 187h159q1 -63 15.5 -102t47 -57.5t89.5 -18.5q56 0 90.5 23t54 63t32.5 92h155q0 -104 -43.5 -185t-120.5 -127t-180 -46z" />
    <glyph glyph-name="Aogonek" unicode="&#x104;" horiz-adv-x="1277" 
d="M-99 0l726 1494h333l249 -1494h-275l-46 330h-544l-145 -330h-298zM426 524h435l-92 666l-9 114l-44 -114zM916 -468q-83 0 -136 46.5t-53 114.5q0 51 24 95.5t65.5 83.5t94.5 72t111 59l85 39l81 -42q-117 -73 -175.5 -131.5t-58.5 -105.5q0 -38 18.5 -53t45.5 -15
q40 0 73 16.5t75 47.5l51 -104q-37 -35 -79.5 -62.5t-96 -44t-125.5 -16.5z" />
    <glyph glyph-name="aogonek" unicode="&#x105;" horiz-adv-x="1175" 
d="M390 -16q-162 0 -239 114t-77 306q0 150 46.5 281.5t133 231t207 155.5t268.5 56q54 0 118 -11.5t115 -26.5l147 38l-155 -1128h-244l13 215q-55 -97 -140 -164t-193 -67zM470 177q43 0 83.5 30t77 77t67 101t52.5 103l64 453q-49 15 -111 15q-113 0 -190 -80
q-78 -81 -116.5 -202.5t-38.5 -247.5q0 -69 10.5 -125.5t34.5 -90t67 -33.5zM713 -448q-83 0 -136.5 46.5t-53.5 114.5q0 59 35.5 111t92.5 96t119 80l96 55l88 -55q-92 -64 -147.5 -118.5t-55.5 -98.5q0 -38 18.5 -53t45.5 -15q35 0 70 16.5t77 47.5l51 -104
q-55 -52 -133 -87.5t-167 -35.5z" />
    <glyph glyph-name="Cacute" unicode="&#x106;" horiz-adv-x="1140" 
d="M604 -16q-186 0 -299 91q-115 91 -164 234.5t-49 312.5q0 250 98 453q96 203 266 319t382 116q52 0 101.5 -6.5t104.5 -21.5t125 -41l-85 -246q-48 34 -108 59.5t-160 25.5q-156 0 -254 -98q-100 -97 -145.5 -245t-45.5 -308q0 -128 30.5 -223.5t96 -148t170.5 -52.5
q61 0 125 15t117.5 37.5t81.5 43.5l38 -204q-23 -18 -67 -38t-102 -37t-124 -27.5t-133 -10.5zM825 1635l-102 83l315 416l177 -154q-13 -24 -47 -63.5t-80.5 -84t-96 -85.5t-93.5 -71.5t-73 -40.5z" />
    <glyph glyph-name="cacute" unicode="&#x107;" horiz-adv-x="910" 
d="M465 -16q-122 0 -209 55.5t-132.5 155.5t-45.5 233q0 183 72 345q72 161 205.5 258t309.5 97q40 0 84 -4.5t84 -13.5t66 -21l-68 -254q-22 20 -52.5 39.5t-66 32t-70.5 12.5q-36 0 -72.5 -18.5t-69.5 -52.5q-63 -61 -103 -162.5t-40 -219.5q0 -143 39 -211.5t132 -68.5
q61 0 125 34t118 89l74 -137q-29 -44 -88.5 -87t-136 -72t-155.5 -29zM621 1279l-95 83l313 416l172 -154q-13 -24 -47.5 -63.5t-81 -84t-95.5 -85.5t-93 -71.5t-73 -40.5z" />
    <glyph glyph-name="Ccircumflex" unicode="&#x108;" horiz-adv-x="1140" 
d="M604 -16q-186 0 -299 91q-115 91 -164 234.5t-49 312.5q0 250 98 453q96 203 266 319t382 116q52 0 101.5 -6.5t104.5 -21.5t125 -41l-85 -246q-48 34 -108 59.5t-160 25.5q-156 0 -254 -98q-100 -97 -145.5 -245t-45.5 -308q0 -128 30.5 -223.5t96 -148t170.5 -52.5
q61 0 125 15t117.5 37.5t81.5 43.5l38 -204q-23 -18 -67 -38t-102 -37t-124 -27.5t-133 -10.5zM595 1622l-106 70l342 358h174l198 -358l-123 -66l-191 204z" />
    <glyph glyph-name="ccircumflex" unicode="&#x109;" horiz-adv-x="910" 
d="M465 -16q-122 0 -209 55.5t-132.5 155.5t-45.5 233q0 183 72 345q72 161 205.5 258t309.5 97q40 0 84 -4.5t84 -13.5t66 -21l-68 -254q-22 20 -52.5 39.5t-66 32t-70.5 12.5q-36 0 -72.5 -18.5t-69.5 -52.5q-63 -61 -103 -162.5t-40 -219.5q0 -143 39 -211.5t132 -68.5
q61 0 125 34t118 89l74 -137q-29 -44 -88.5 -87t-136 -72t-155.5 -29zM427 1243l-107 70l341 350h175l198 -350l-122 -67l-191 220z" />
    <glyph glyph-name="Cdotaccent" unicode="&#x10a;" horiz-adv-x="1140" 
d="M604 -16q-186 0 -299 91q-115 91 -164 234.5t-49 312.5q0 250 98 453q96 203 266 319t382 116q52 0 101.5 -6.5t104.5 -21.5t125 -41l-85 -246q-48 34 -108 59.5t-160 25.5q-156 0 -254 -98q-100 -97 -145.5 -245t-45.5 -308q0 -128 30.5 -223.5t96 -148t170.5 -52.5
q61 0 125 15t117.5 37.5t81.5 43.5l38 -204q-23 -18 -67 -38t-102 -37t-124 -27.5t-133 -10.5zM854 1635q-55 0 -98.5 40.5t-43.5 96.5q0 71 52 122t125 51q63 0 105 -39t42 -95q0 -73 -51 -124.5t-131 -51.5z" />
    <glyph glyph-name="cdotaccent" unicode="&#x10b;" horiz-adv-x="910" 
d="M465 -16q-122 0 -209 55.5t-132.5 155.5t-45.5 233q0 183 72 345q72 161 205.5 258t309.5 97q40 0 84 -4.5t84 -13.5t66 -21l-68 -254q-22 20 -52.5 39.5t-66 32t-70.5 12.5q-36 0 -72.5 -18.5t-69.5 -52.5q-63 -61 -103 -162.5t-40 -219.5q0 -143 39 -211.5t132 -68.5
q61 0 125 34t118 89l74 -137q-29 -44 -88.5 -87t-136 -72t-155.5 -29zM672 1282q-55 0 -98.5 41t-43.5 97q0 70 52 122t125 52q63 0 105.5 -39t42.5 -96q0 -74 -51.5 -125.5t-131.5 -51.5z" />
    <glyph glyph-name="Ccaron" unicode="&#x10c;" horiz-adv-x="1140" 
d="M604 -16q-186 0 -299 91q-115 91 -164 234.5t-49 312.5q0 250 98 453q96 203 266 319t382 116q52 0 101.5 -6.5t104.5 -21.5t125 -41l-85 -246q-48 34 -108 59.5t-160 25.5q-156 0 -254 -98q-100 -97 -145.5 -245t-45.5 -308q0 -128 30.5 -223.5t96 -148t170.5 -52.5
q61 0 125 15t117.5 37.5t81.5 43.5l38 -204q-23 -18 -67 -38t-102 -37t-124 -27.5t-133 -10.5zM767 1635l-221 334l105 77l226 -211l286 211l114 -76l-336 -335h-174z" />
    <glyph glyph-name="ccaron" unicode="&#x10d;" horiz-adv-x="910" 
d="M465 -16q-122 0 -209 55.5t-132.5 155.5t-45.5 233q0 183 72 345q72 161 205.5 258t309.5 97q40 0 84 -4.5t84 -13.5t66 -21l-68 -254q-22 20 -52.5 39.5t-66 32t-70.5 12.5q-36 0 -72.5 -18.5t-69.5 -52.5q-63 -61 -103 -162.5t-40 -219.5q0 -143 39 -211.5t132 -68.5
q61 0 125 34t118 89l74 -137q-29 -44 -88.5 -87t-136 -72t-155.5 -29zM589 1272l-235 328l102 87l240 -224l288 224l96 -85l-317 -330h-174z" />
    <glyph glyph-name="Dcaron" unicode="&#x10e;" horiz-adv-x="1369" 
d="M536 -16q-58 1 -116 5t-111.5 7.5t-100.5 3.5h-120l202 1494h126q12 0 45.5 1.5t77.5 4t89 5t81.5 4t52.5 1.5q294 0 430 -162.5t136 -453.5q0 -193 -54.5 -359t-158 -290.5t-249.5 -193.5t-330 -67zM579 187q154 3 260 101q105 98 156 257.5t51 346.5q0 158 -36 250
q-36 90 -111 128t-201 38q-36 0 -84.5 -4.5t-77.5 -11.5l-145 -1080q36 -13 86 -19t102 -6zM740 1635l-221 334l105 77l226 -211l286 211l114 -76l-336 -335h-174z" />
    <glyph glyph-name="dcaron" unicode="&#x10f;" horiz-adv-x="1483" 
d="M1407 997l-124 33l-6 25q19 64 29.5 143.5t10.5 154.5q0 69 -6.5 121t-19.5 71l13 37l200 45q17 -27 25 -79.5t8 -123.5q0 -73 -16 -153t-45 -152t-69 -122zM389 -16q-162 0 -239 114t-77 306q0 177 75 345q49 111 132 196.5t197.5 134t255.5 48.5q25 0 52.5 -2t55.5 -7
l65 479h267l-210 -1598h-245l16 232q-37 -68 -89 -124t-116.5 -90t-139.5 -34zM469 180q42 0 84 31.5t81 81.5t70 104t52 100l60 442q-48 17 -110 17q-112 0 -190 -80q-79 -81 -119 -203t-40 -247q0 -73 11 -128.5t35.5 -86.5t65.5 -31z" />
    <glyph glyph-name="Dcroat" unicode="&#x110;" horiz-adv-x="1369" 
d="M813 869l-20 -188h-758l19 188h759zM536 -16q-58 1 -116 5t-111.5 7.5t-100.5 3.5h-120l202 1494h126q12 0 45.5 1.5t77.5 4t89 5t81.5 4t52.5 1.5q294 0 430 -162.5t136 -453.5q0 -193 -54.5 -359t-158 -290.5t-249.5 -193.5t-330 -67zM579 187q154 3 260 101
q105 98 156 257.5t51 346.5q0 158 -36 250q-36 90 -111 128t-201 38q-36 0 -84.5 -4.5t-77.5 -11.5l-145 -1080q36 -13 86 -19t102 -6z" />
    <glyph glyph-name="dcroat" unicode="&#x111;" horiz-adv-x="1192" 
d="M620 1232l16 128h651l-16 -128h-651zM389 -16q-162 0 -239 114t-77 306q0 177 75 345q49 111 132 196.5t197.5 134t255.5 48.5q25 0 52.5 -2t55.5 -7l65 479h267l-210 -1598h-245l16 232q-37 -68 -89 -124t-116.5 -90t-139.5 -34zM469 180q42 0 84 31.5t81 81.5t70 104
t52 100l60 442q-48 17 -110 17q-112 0 -190 -80q-79 -81 -119 -203t-40 -247q0 -73 11 -128.5t35.5 -86.5t65.5 -31z" />
    <glyph glyph-name="Emacron" unicode="&#x112;" horiz-adv-x="1145" 
d="M88 0l202 1494h824l-22 -214l-558 5l-55 -418l418 6l-24 -218l-422 12l-61 -458l649 12l-26 -221h-925zM483 1649l11 180h541l-13 -180h-539z" />
    <glyph glyph-name="emacron" unicode="&#x113;" horiz-adv-x="1050" 
d="M482 -16q-139 0 -228 61q-92 62 -134.5 162.5t-41.5 219.5q0 195 81 358q79 161 217 252t309 91q100 0 167 -34t101 -91t34 -125q0 -104 -51 -185t-139 -140.5t-199.5 -99t-232.5 -59.5v-15.5v-14.5q4 -84 43.5 -134.5t129.5 -50.5q53 0 111.5 21.5t113 57.5t95.5 79
l72 -139q-29 -40 -79.5 -78.5t-113.5 -69t-129 -48.5t-126 -18zM366 549q59 3 121 28t115 67t85.5 95.5t32.5 112.5q0 58 -23.5 82.5t-72.5 24.5q-40 0 -73.5 -24t-66.5 -65q-57 -67 -84.5 -157t-33.5 -164zM440 1306l20 180h541l-21 -180h-540z" />
    <glyph glyph-name="Ebreve" unicode="&#x114;" horiz-adv-x="1145" 
d="M88 0l202 1494h824l-22 -214l-558 5l-55 -418l418 6l-24 -218l-422 12l-61 -458l649 12l-26 -221h-925zM749 1634q-109 0 -180.5 45t-101.5 125.5t-17 187.5h160q1 -94 33.5 -136t117.5 -42q56 0 91 22.5t54.5 63t31.5 92.5h155q0 -105 -43.5 -185.5t-121 -126.5
t-179.5 -46z" />
    <glyph glyph-name="ebreve" unicode="&#x115;" horiz-adv-x="1050" 
d="M482 -16q-139 0 -228 61q-92 62 -134.5 162.5t-41.5 219.5q0 195 81 358q79 161 217 252t309 91q100 0 167 -34t101 -91t34 -125q0 -104 -51 -185t-139 -140.5t-199.5 -99t-232.5 -59.5v-15.5v-14.5q4 -84 43.5 -134.5t129.5 -50.5q53 0 111.5 21.5t113 57.5t95.5 79
l72 -139q-29 -40 -79.5 -78.5t-113.5 -69t-129 -48.5t-126 -18zM366 549q59 3 121 28t115 67t85.5 95.5t32.5 112.5q0 58 -23.5 82.5t-72.5 24.5q-40 0 -73.5 -24t-66.5 -65q-57 -67 -84.5 -157t-33.5 -164zM715 1263q-109 0 -180.5 45t-102 126t-16.5 187h159
q1 -63 15.5 -102t47 -57.5t89.5 -18.5q56 0 90.5 23t54 63t32.5 92h155q0 -104 -43.5 -185t-120.5 -127t-180 -46z" />
    <glyph glyph-name="Edotaccent" unicode="&#x116;" horiz-adv-x="1145" 
d="M88 0l202 1494h824l-22 -214l-558 5l-55 -418l418 6l-24 -218l-422 12l-61 -458l649 12l-26 -221h-925zM741 1634q-55 0 -98.5 40.5t-43.5 96.5q0 71 52 122t125 51q63 0 105 -39t42 -95q0 -73 -51 -124.5t-131 -51.5z" />
    <glyph glyph-name="edotaccent" unicode="&#x117;" horiz-adv-x="1050" 
d="M482 -16q-139 0 -228 61q-92 62 -134.5 162.5t-41.5 219.5q0 195 81 358q79 161 217 252t309 91q100 0 167 -34t101 -91t34 -125q0 -104 -51 -185t-139 -140.5t-199.5 -99t-232.5 -59.5v-15.5v-14.5q4 -84 43.5 -134.5t129.5 -50.5q53 0 111.5 21.5t113 57.5t95.5 79
l72 -139q-29 -40 -79.5 -78.5t-113.5 -69t-129 -48.5t-126 -18zM366 549q59 3 121 28t115 67t85.5 95.5t32.5 112.5q0 58 -23.5 82.5t-72.5 24.5q-40 0 -73.5 -24t-66.5 -65q-57 -67 -84.5 -157t-33.5 -164zM700 1282q-55 0 -98.5 41t-43.5 97q0 70 52 122t125 52
q63 0 105.5 -39t42.5 -96q0 -74 -51.5 -125.5t-131.5 -51.5z" />
    <glyph glyph-name="Eogonek" unicode="&#x118;" horiz-adv-x="1145" 
d="M88 0l202 1494h824l-22 -214l-558 5l-55 -418l418 6l-24 -218l-422 12l-61 -458l649 12l-26 -221h-925zM676 -468q-83 0 -136 46.5t-53 114.5q0 51 24 95.5t65.5 83.5t94.5 72t111 59l85 39l81 -42q-117 -73 -175.5 -131.5t-58.5 -105.5q0 -38 18.5 -53t45.5 -15
q40 0 73 16.5t75 47.5l51 -104q-37 -35 -79.5 -62.5t-96 -44t-125.5 -16.5z" />
    <glyph glyph-name="eogonek" unicode="&#x119;" horiz-adv-x="1050" 
d="M482 -16q-139 0 -228 61q-92 62 -134.5 162.5t-41.5 219.5q0 195 81 358q79 161 217 252t309 91q100 0 167 -34t101 -91t34 -125q0 -104 -51 -185t-139 -140.5t-199.5 -99t-232.5 -59.5v-15.5v-14.5q4 -84 43.5 -134.5t129.5 -50.5q53 0 111.5 21.5t113 57.5t95.5 79
l72 -139q-29 -40 -79.5 -78.5t-113.5 -69t-129 -48.5t-126 -18zM366 549q59 3 121 28t115 67t85.5 95.5t32.5 112.5q0 58 -23.5 82.5t-72.5 24.5q-40 0 -73.5 -24t-66.5 -65q-57 -67 -84.5 -157t-33.5 -164zM346 -448q-83 0 -136.5 46.5t-53.5 114.5q0 59 35.5 111t92.5 96
t119 80l96 55l88 -55q-92 -64 -147.5 -118.5t-55.5 -98.5q0 -38 18.5 -53t45.5 -15q35 0 70 16.5t77 47.5l51 -104q-55 -52 -133 -87.5t-167 -35.5z" />
    <glyph glyph-name="Ecaron" unicode="&#x11a;" horiz-adv-x="1145" 
d="M88 0l202 1494h824l-22 -214l-558 5l-55 -418l418 6l-24 -218l-422 12l-61 -458l649 12l-26 -221h-925zM654 1634l-221 334l105 77l226 -211l286 211l114 -76l-336 -335h-174z" />
    <glyph glyph-name="ecaron" unicode="&#x11b;" horiz-adv-x="1050" 
d="M482 -16q-139 0 -228 61q-92 62 -134.5 162.5t-41.5 219.5q0 195 81 358q79 161 217 252t309 91q100 0 167 -34t101 -91t34 -125q0 -104 -51 -185t-139 -140.5t-199.5 -99t-232.5 -59.5v-15.5v-14.5q4 -84 43.5 -134.5t129.5 -50.5q53 0 111.5 21.5t113 57.5t95.5 79
l72 -139q-29 -40 -79.5 -78.5t-113.5 -69t-129 -48.5t-126 -18zM366 549q59 3 121 28t115 67t85.5 95.5t32.5 112.5q0 58 -23.5 82.5t-72.5 24.5q-40 0 -73.5 -24t-66.5 -65q-57 -67 -84.5 -157t-33.5 -164zM617 1272l-235 328l102 87l240 -224l288 224l96 -85l-317 -330
h-174z" />
    <glyph glyph-name="Gcircumflex" unicode="&#x11c;" horiz-adv-x="1353" 
d="M630 -16q-187 0 -309 89q-121 88 -176 228.5t-57 300.5q-1 264 98 473q100 206 274 320.5t386 114.5q62 0 110.5 -3.5t93.5 -12t97 -23.5t121 -38l-66 -248q-30 22 -89.5 46t-132 40.5t-140.5 16.5q-165 0 -271 -100q-107 -100 -155.5 -251t-48.5 -309q0 -128 33 -226
t101 -153.5t173 -55.5q58 0 129 12.5t125 38.5l44 312h-235l27 219h493l-93 -691q-25 -3 -54.5 -10t-75.5 -20q-103 -30 -199.5 -50t-202.5 -20zM560 1622l-106 70l342 358h174l198 -358l-123 -66l-191 204z" />
    <glyph glyph-name="gcircumflex" unicode="&#x11d;" horiz-adv-x="1188" 
d="M382 -499q-44 0 -97.5 6t-99 15t-66.5 19l49 207q26 -15 70.5 -31.5t97 -28t99.5 -11.5q108 0 162.5 58t74.5 171l56 313q-57 -97 -143 -166t-196 -69q-162 0 -239 114t-77 306q0 177 75 345q49 111 132 196.5t197.5 134t255.5 48.5q55 0 118.5 -11.5t113.5 -26.5l151 38
l-163 -1185q-11 -82 -39 -147t-70 -115q-84 -97 -205 -138.5t-257 -41.5zM469 180q41 0 82 29t78.5 76t69 100.5t53.5 102.5l63 454q-24 7 -51 10.5t-58 3.5q-112 0 -190 -80q-79 -81 -119 -203t-40 -247q0 -73 11 -128.5t35.5 -86.5t65.5 -31zM505 1243l-107 70l341 350
h175l198 -350l-122 -67l-191 220z" />
    <glyph glyph-name="Gbreve" unicode="&#x11e;" horiz-adv-x="1353" 
d="M630 -16q-187 0 -309 89q-121 88 -176 228.5t-57 300.5q-1 264 98 473q100 206 274 320.5t386 114.5q62 0 110.5 -3.5t93.5 -12t97 -23.5t121 -38l-66 -248q-30 22 -89.5 46t-132 40.5t-140.5 16.5q-165 0 -271 -100q-107 -100 -155.5 -251t-48.5 -309q0 -128 33 -226
t101 -153.5t173 -55.5q58 0 129 12.5t125 38.5l44 312h-235l27 219h493l-93 -691q-25 -3 -54.5 -10t-75.5 -20q-103 -30 -199.5 -50t-202.5 -20zM827 1635q-109 0 -180.5 45t-101.5 125.5t-17 187.5h160q1 -94 33.5 -136t117.5 -42q56 0 91 22.5t54.5 63t31.5 92.5h155
q0 -105 -43.5 -185.5t-121 -126.5t-179.5 -46z" />
    <glyph glyph-name="gbreve" unicode="&#x11f;" horiz-adv-x="1188" 
d="M382 -499q-44 0 -97.5 6t-99 15t-66.5 19l49 207q26 -15 70.5 -31.5t97 -28t99.5 -11.5q108 0 162.5 58t74.5 171l56 313q-57 -97 -143 -166t-196 -69q-162 0 -239 114t-77 306q0 177 75 345q49 111 132 196.5t197.5 134t255.5 48.5q55 0 118.5 -11.5t113.5 -26.5l151 38
l-163 -1185q-11 -82 -39 -147t-70 -115q-84 -97 -205 -138.5t-257 -41.5zM469 180q41 0 82 29t78.5 76t69 100.5t53.5 102.5l63 454q-24 7 -51 10.5t-58 3.5q-112 0 -190 -80q-79 -81 -119 -203t-40 -247q0 -73 11 -128.5t35.5 -86.5t65.5 -31zM765 1263q-109 0 -180.5 45
t-102 126t-16.5 187h159q1 -63 15.5 -102t47 -57.5t89.5 -18.5q56 0 90.5 23t54 63t32.5 92h155q0 -104 -43.5 -185t-120.5 -127t-180 -46z" />
    <glyph glyph-name="Gdotaccent" unicode="&#x120;" horiz-adv-x="1353" 
d="M630 -16q-187 0 -309 89q-121 88 -176 228.5t-57 300.5q-1 264 98 473q100 206 274 320.5t386 114.5q62 0 110.5 -3.5t93.5 -12t97 -23.5t121 -38l-66 -248q-30 22 -89.5 46t-132 40.5t-140.5 16.5q-165 0 -271 -100q-107 -100 -155.5 -251t-48.5 -309q0 -128 33 -226
t101 -153.5t173 -55.5q58 0 129 12.5t125 38.5l44 312h-235l27 219h493l-93 -691q-25 -3 -54.5 -10t-75.5 -20q-103 -30 -199.5 -50t-202.5 -20zM819 1635q-55 0 -98.5 40.5t-43.5 96.5q0 71 52 122t125 51q63 0 105 -39t42 -95q0 -73 -51 -124.5t-131 -51.5z" />
    <glyph glyph-name="gdotaccent" unicode="&#x121;" horiz-adv-x="1188" 
d="M382 -499q-44 0 -97.5 6t-99 15t-66.5 19l49 207q26 -15 70.5 -31.5t97 -28t99.5 -11.5q108 0 162.5 58t74.5 171l56 313q-57 -97 -143 -166t-196 -69q-162 0 -239 114t-77 306q0 177 75 345q49 111 132 196.5t197.5 134t255.5 48.5q55 0 118.5 -11.5t113.5 -26.5l151 38
l-163 -1185q-11 -82 -39 -147t-70 -115q-84 -97 -205 -138.5t-257 -41.5zM469 180q41 0 82 29t78.5 76t69 100.5t53.5 102.5l63 454q-24 7 -51 10.5t-58 3.5q-112 0 -190 -80q-79 -81 -119 -203t-40 -247q0 -73 11 -128.5t35.5 -86.5t65.5 -31zM750 1282q-55 0 -98.5 41
t-43.5 97q0 70 52 122t125 52q63 0 105.5 -39t42.5 -96q0 -74 -51.5 -125.5t-131.5 -51.5z" />
    <glyph glyph-name="uni0122" unicode="&#x122;" horiz-adv-x="1353" 
d="M630 -16q-187 0 -309 89q-121 88 -176 228.5t-57 300.5q-1 264 98 473q100 206 274 320.5t386 114.5q62 0 110.5 -3.5t93.5 -12t97 -23.5t121 -38l-66 -248q-30 22 -89.5 46t-132 40.5t-140.5 16.5q-165 0 -271 -100q-107 -100 -155.5 -251t-48.5 -309q0 -128 33 -226
t101 -153.5t173 -55.5q58 0 129 12.5t125 38.5l44 312h-235l27 219h493l-93 -691q-25 -3 -54.5 -10t-75.5 -20q-103 -30 -199.5 -50t-202.5 -20zM495 -654l-90 59l4 25q30 21 48 53.5t18 81.5q0 36 -19.5 67t-48.5 36l9 73l147 102q62 -14 97.5 -72t35.5 -132
q0 -71 -28.5 -134.5t-74.5 -106.5t-98 -52z" />
    <glyph glyph-name="uni0123" unicode="&#x123;" horiz-adv-x="1188" 
d="M382 -499q-44 0 -97.5 6t-99 15t-66.5 19l49 207q26 -15 70.5 -31.5t97 -28t99.5 -11.5q108 0 162.5 58t74.5 171l56 313q-57 -97 -143 -166t-196 -69q-162 0 -239 114t-77 306q0 177 75 345q49 111 132 196.5t197.5 134t255.5 48.5q55 0 118.5 -11.5t113.5 -26.5l151 38
l-163 -1185q-11 -82 -39 -147t-70 -115q-84 -97 -205 -138.5t-257 -41.5zM469 180q41 0 82 29t78.5 76t69 100.5t53.5 102.5l63 454q-24 7 -51 10.5t-58 3.5q-112 0 -190 -80q-79 -81 -119 -203t-40 -247q0 -73 11 -128.5t35.5 -86.5t65.5 -31zM787 1794l96 -66l-4 -26
q-31 -23 -45 -54.5t-14 -74.5t21 -81t52 -44l-10 -74l-130 -88q-38 18 -69 51.5t-49.5 77.5t-18.5 93q0 83 38 159.5t133 126.5z" />
    <glyph glyph-name="Hcircumflex" unicode="&#x124;" horiz-adv-x="1422" 
d="M82 0l201 1494h274l-89 -659h550l88 659h277l-203 -1494h-275l86 641h-549l-87 -641h-273zM588 1621l-106 70l342 358h174l198 -358l-123 -66l-191 204z" />
    <glyph glyph-name="hcircumflex" unicode="&#x125;" horiz-adv-x="1230" 
d="M81 0l210 1598h268l-63 -511l-32 -192q77 106 182 169.5t219 63.5q121 0 182.5 -67t61.5 -221q0 -15 -4.5 -59.5t-13 -112t-19.5 -149.5t-23.5 -171.5t-25.5 -178.5t-26 -169h-274q10 69 18.5 128t15.5 112t14 102t14 96.5t14 97.5q13 99 20 164t8 102q1 60 -21 82.5
t-69 22.5q-44 0 -99.5 -32t-107.5 -81t-86 -101l-94 -693h-269zM180 1643l-106 70l342 358h174l198 -358l-123 -66l-191 204z" />
    <glyph glyph-name="Hbar" unicode="&#x126;" horiz-adv-x="1428" 
d="M94 0l126 933h-196l19 199h205l48 362h274l-50 -362h550l49 362h276l-49 -362h197l-19 -199h-206l-125 -933h-276l68 500h-550l-68 -500h-273zM461 699h551l31 234h-550z" />
    <glyph glyph-name="hbar" unicode="&#x127;" horiz-adv-x="1230" 
d="M126 1232l15 128h619l-14 -128h-620zM81 0l210 1598h268l-63 -511l-32 -192q77 106 182 169.5t219 63.5q121 0 182.5 -67t61.5 -221q0 -15 -4.5 -59.5t-13 -112t-19.5 -149.5t-23.5 -171.5t-25.5 -178.5t-26 -169h-274q10 69 18.5 128t15.5 112t14 102t14 96.5t14 97.5
q13 99 20 164t8 102q1 60 -21 82.5t-69 22.5q-44 0 -99.5 -32t-107.5 -81t-86 -101l-94 -693h-269z" />
    <glyph glyph-name="Itilde" unicode="&#x128;" horiz-adv-x="631" 
d="M109 0l202 1494h274l-202 -1494h-274zM628 1649q-59 0 -106 23.5t-80 58.5q-28 31 -51 46.5t-56 15.5q-37 0 -65 -18.5t-62 -69.5l-86 109q23 48 60 87t81.5 61.5t90.5 22.5q52 0 97.5 -21.5t80.5 -61.5q27 -29 48.5 -43.5t45.5 -14.5q29 0 53.5 13.5t45 38.5t37.5 61
l90 -116q-17 -48 -51 -92.5t-79 -72t-94 -27.5z" />
    <glyph glyph-name="itilde" unicode="&#x129;" horiz-adv-x="611" 
d="M99 0l151 1114h275l-153 -1114h-273zM557 1238q-58 0 -105 23.5t-81 59.5q-28 30 -50.5 45.5t-56.5 15.5q-37 0 -65 -18.5t-62 -69.5l-86 109q36 73 100 123t132 50q53 0 98 -22.5t80 -62.5q27 -29 48.5 -43.5t46.5 -14.5q29 0 53 13.5t44.5 38.5t37.5 62l91 -116
q-17 -49 -51 -93t-79.5 -72t-94.5 -28z" />
    <glyph glyph-name="Imacron" unicode="&#x12a;" horiz-adv-x="631" 
d="M109 0l202 1494h274l-202 -1494h-274zM207 1649l11 180h541l-13 -180h-539z" />
    <glyph glyph-name="imacron" unicode="&#x12b;" horiz-adv-x="611" 
d="M99 0l151 1114h275l-153 -1114h-273zM140 1306l20 180h541l-21 -180h-540z" />
    <glyph glyph-name="Ibreve" unicode="&#x12c;" horiz-adv-x="631" 
d="M109 0l202 1494h274l-202 -1494h-274zM473 1634q-109 0 -180.5 45t-101.5 125.5t-17 187.5h160q1 -94 33.5 -136t117.5 -42q56 0 91 22.5t54.5 63t31.5 92.5h155q0 -105 -43.5 -185.5t-121 -126.5t-179.5 -46z" />
    <glyph glyph-name="ibreve" unicode="&#x12d;" horiz-adv-x="611" 
d="M99 0l151 1114h275l-153 -1114h-273zM415 1263q-109 0 -180.5 45t-102 126t-16.5 187h159q1 -63 15.5 -102t47 -57.5t89.5 -18.5q56 0 90.5 23t54 63t32.5 92h155q0 -104 -43.5 -185t-120.5 -127t-180 -46z" />
    <glyph glyph-name="Iogonek" unicode="&#x12e;" horiz-adv-x="631" 
d="M109 0l202 1494h274l-202 -1494h-274zM111 -468q-83 0 -136 46.5t-53 114.5q0 51 24 95.5t65.5 83.5t94.5 72t111 59l85 39l81 -42q-117 -73 -175.5 -131.5t-58.5 -105.5q0 -38 18.5 -53t45.5 -15q40 0 73 16.5t75 47.5l51 -104q-37 -35 -79.5 -62.5t-96 -44
t-125.5 -16.5z" />
    <glyph glyph-name="iogonek" unicode="&#x12f;" horiz-adv-x="611" 
d="M99 0l151 1114h275l-153 -1114h-273zM400 1282q-55 0 -98.5 41t-43.5 97q0 70 52 122t125 52q63 0 105.5 -39t42.5 -96q0 -74 -51.5 -125.5t-131.5 -51.5zM131 -448q-83 0 -136.5 46.5t-53.5 114.5q0 59 35.5 111t92.5 96t119 80l96 55l88 -55q-92 -64 -147.5 -118.5
t-55.5 -98.5q0 -38 18.5 -53t45.5 -15q35 0 70 16.5t77 47.5l51 -104q-55 -52 -133 -87.5t-167 -35.5z" />
    <glyph glyph-name="Idotaccent" unicode="&#x130;" horiz-adv-x="631" 
d="M109 0l202 1494h274l-202 -1494h-274zM465 1634q-55 0 -98.5 40.5t-43.5 96.5q0 71 52 122t125 51q63 0 105 -39t42 -95q0 -73 -51 -124.5t-131 -51.5z" />
    <glyph glyph-name="dotlessi" unicode="&#x131;" horiz-adv-x="611" 
d="M99 0l151 1114h275l-153 -1114h-273z" />
    <glyph glyph-name="IJ" unicode="&#x132;" horiz-adv-x="1259" 
d="M109 0l202 1494h274l-202 -1494h-274zM499 -329l-39 101q42 11 88.5 45.5t88 80.5t70.5 95t37 91q25 114 45.5 244t39.5 271.5t36.5 291t35.5 301.5t38 302h274l-143 -1074q-19 -145 -34 -231.5t-24 -114.5q-38 -137 -110.5 -222t-174.5 -128.5t-228 -52.5z" />
    <glyph glyph-name="ij" unicode="&#x133;" horiz-adv-x="1220" 
d="M99 0l151 1114h275l-153 -1114h-273zM431 1312q-55 0 -97.5 40.5t-42.5 96.5q0 70 51 121.5t124 51.5q63 0 105.5 -39t42.5 -95q0 -74 -52 -125t-131 -51zM518 -509q-49 0 -89 8.5t-65 26.5l62 147q8 -5 24.5 -9.5t27.5 -4.5q57 0 97.5 35.5t68.5 94.5t45.5 131t27.5 146
l143 1048h275l-152 -1112q-19 -145 -81 -261t-159 -183t-225 -67zM1029 1312q-55 0 -97.5 40.5t-42.5 96.5q0 70 51 121.5t124 51.5q63 0 105.5 -39t42.5 -95q0 -74 -52 -125t-131 -51z" />
    <glyph glyph-name="Jcircumflex" unicode="&#x134;" horiz-adv-x="627" 
d="M-132 -329l-39 101q42 11 88.5 45.5t88 80.5t70.5 95t37 91q25 114 45.5 244t39.5 271.5t36.5 291t35.5 301.5t38 302h274l-143 -1074q-19 -145 -34 -231.5t-24 -114.5q-38 -137 -110.5 -222t-174.5 -128.5t-228 -52.5zM231 1622l-106 70l342 358h174l198 -358l-123 -66
l-191 204z" />
    <glyph glyph-name="jcircumflex" unicode="&#x135;" horiz-adv-x="610" 
d="M-93 -509q-49 0 -89 8.5t-65 26.5l62 147q8 -5 24.5 -9.5t27.5 -4.5q57 0 97.5 35.5t68.5 94.5t45.5 131t27.5 146l143 1048h275l-152 -1112q-19 -145 -81 -261t-159 -183t-225 -67zM170 1243l-107 70l341 350h175l198 -350l-122 -67l-191 220z" />
    <glyph glyph-name="uni0136" unicode="&#x136;" horiz-adv-x="1257" 
d="M82 0l201 1494h265l-96 -702l592 702h315l-592 -661q22 -38 41 -74t44.5 -85t63.5 -122t97 -185q28 -53 56.5 -104.5t56 -99.5t52.5 -89.5t45 -73.5h-324q-5 8 -22 39t-39.5 77t-47.5 98t-47 100l-157 322l-180 -191l-61 -445h-263zM522 -654l-90 59l4 25q30 21 48 53.5
t18 81.5q0 36 -19.5 67t-48.5 36l9 73l147 102q62 -14 97.5 -72t35.5 -132q0 -71 -28.5 -134.5t-74.5 -106.5t-98 -52z" />
    <glyph glyph-name="uni0137" unicode="&#x137;" horiz-adv-x="1112" 
d="M81 0l210 1598h269l-210 -1598h-269zM757 2l-292 616q82 45 158 125.5t134.5 177.5t87.5 193h267q-5 -76 -39 -152.5t-87.5 -146t-118 -126t-131.5 -91.5l334 -596h-313zM407 -655l-87 59l4 25q30 21 46 51.5t16 83.5q2 40 -18 71.5t-49 35.5l9 70l142 102
q62 -14 100 -72t38 -133q0 -71 -28.5 -134.5t-74 -106.5t-98.5 -52z" />
    <glyph glyph-name="kgreenlandic" unicode="&#x138;" horiz-adv-x="1111" 
d="M767 0l-301 610q64 36 122.5 92t109 124.5t88.5 144t61 150.5h267q-7 -105 -63.5 -207.5t-140.5 -186t-174 -131.5l334 -596h-303zM78 0l152 1121h273l-152 -1121h-273z" />
    <glyph glyph-name="Lacute" unicode="&#x139;" horiz-adv-x="999" 
d="M88 0l202 1494h274l-173 -1275l520 8l-33 -227h-790zM424 1635l-102 83l315 416l177 -154q-13 -24 -47 -63.5t-80.5 -84t-96 -85.5t-93.5 -71.5t-73 -40.5z" />
    <glyph glyph-name="lacute" unicode="&#x13a;" horiz-adv-x="612" 
d="M101 2l216 1596h274l-216 -1596h-274zM434 1701l-102 83l315 416l177 -154q-13 -24 -47 -63.5t-80.5 -84t-96 -85.5t-93.5 -71.5t-73 -40.5z" />
    <glyph glyph-name="uni013B" unicode="&#x13b;" horiz-adv-x="999" 
d="M88 0l202 1494h274l-173 -1275l520 8l-33 -227h-790zM402 -654l-90 59l4 25q30 21 48 53.5t18 81.5q0 36 -19.5 67t-48.5 36l9 73l147 102q62 -14 97.5 -72t35.5 -132q0 -71 -28.5 -134.5t-74.5 -106.5t-98 -52z" />
    <glyph glyph-name="uni013C" unicode="&#x13c;" horiz-adv-x="612" 
d="M101 2l216 1596h274l-216 -1596h-274zM168 -655l-87 59l4 25q30 21 46 51.5t16 83.5q2 40 -18 71.5t-49 35.5l9 70l142 102q62 -14 100 -72t38 -133q0 -71 -28.5 -134.5t-74 -106.5t-98.5 -52z" />
    <glyph glyph-name="Lcaron" unicode="&#x13d;" horiz-adv-x="1008" 
d="M923 929l-123 33l-6 25q18 64 29 143.5t11 154.5q0 69 -7 121t-20 71l13 37l201 45q17 -27 25 -79.5t8 -123.5q0 -73 -16 -153t-45 -152t-70 -122zM88 0l202 1494h274l-173 -1275l520 8l-33 -227h-790z" />
    <glyph glyph-name="lcaron" unicode="&#x13e;" horiz-adv-x="795" 
d="M833 981l-123 34l-6 24q18 64 29 143.5t11 155.5q0 68 -7 120t-20 71l13 37l201 45q17 -27 25 -79.5t8 -123.5q0 -73 -16 -153t-45 -152t-70 -122zM101 2l216 1596h274l-216 -1596h-274z" />
    <glyph glyph-name="Ldot" unicode="&#x13f;" horiz-adv-x="1111" 
d="M88 0l202 1494h274l-173 -1275l520 8l-33 -227h-790zM892 616q-60 0 -97.5 36t-37.5 94q0 74 50.5 129t128.5 55q71 0 104.5 -35.5t33.5 -93.5q0 -84 -49.5 -134.5t-132.5 -50.5z" />
    <glyph glyph-name="ldot" unicode="&#x140;" horiz-adv-x="847" 
d="M101 2l216 1596h274l-216 -1596h-274zM741 609q-60 0 -97.5 36t-37.5 94q0 74 50.5 129t128.5 55q71 0 104.5 -35.5t33.5 -93.5q0 -84 -49.5 -134.5t-132.5 -50.5z" />
    <glyph glyph-name="Lslash" unicode="&#x141;" horiz-adv-x="1008" 
d="M179 570l-171 -65l-46 149l242 94l257 101l383 151l45 -159l-452 -173zM88 0l202 1494h274l-173 -1275l520 8l-33 -227h-790z" />
    <glyph glyph-name="lslash" unicode="&#x142;" horiz-adv-x="622" 
d="M106 2l102 758l-158 -64v166l181 74l90 662h274l-73 -543l160 66v-176l-184 -71l-119 -872h-273z" />
    <glyph glyph-name="Nacute" unicode="&#x143;" horiz-adv-x="1419" 
d="M88 0l202 1494h253l386 -898l70 -230l16 249l106 879h263l-202 -1494h-242l-389 926l-75 248l-12 -279l-117 -895h-259zM822 1635l-102 83l315 416l177 -154q-13 -24 -47 -63.5t-80.5 -84t-96 -85.5t-93.5 -71.5t-73 -40.5z" />
    <glyph glyph-name="nacute" unicode="&#x144;" horiz-adv-x="1230" 
d="M77 0l152 1114h261l-17 -210q78 103 181 163.5t214 60.5q122 0 184 -67t62 -221q0 -23 -5.5 -74t-15 -120t-19.5 -145q-3 -23 -9 -64t-13.5 -94.5t-16 -113t-17.5 -118t-17 -111.5h-274q9 60 19.5 136.5t23.5 167.5l28 196q15 114 23.5 188t8.5 114q1 60 -20.5 82.5
t-69.5 22.5q-33 0 -73.5 -18.5t-81.5 -50t-77 -70t-62 -78.5l-96 -690h-273zM658 1279l-95 83l313 416l172 -154q-13 -24 -47.5 -63.5t-81 -84t-95.5 -85.5t-93 -71.5t-73 -40.5z" />
    <glyph glyph-name="uni0145" unicode="&#x145;" horiz-adv-x="1419" 
d="M88 0l202 1494h253l386 -898l70 -230l16 249l106 879h263l-202 -1494h-242l-389 926l-75 248l-12 -279l-117 -895h-259zM527 -654l-90 59l4 25q30 21 48 53.5t18 81.5q0 36 -19.5 67t-48.5 36l9 73l147 102q62 -14 97.5 -72t35.5 -132q0 -71 -28.5 -134.5t-74.5 -106.5
t-98 -52z" />
    <glyph glyph-name="uni0146" unicode="&#x146;" horiz-adv-x="1230" 
d="M77 0l152 1114h261l-17 -210q78 103 181 163.5t214 60.5q122 0 184 -67t62 -221q0 -23 -5.5 -74t-15 -120t-19.5 -145q-3 -23 -9 -64t-13.5 -94.5t-16 -113t-17.5 -118t-17 -111.5h-274q9 60 19.5 136.5t23.5 167.5l28 196q15 114 23.5 188t8.5 114q1 60 -20.5 82.5
t-69.5 22.5q-33 0 -73.5 -18.5t-81.5 -50t-77 -70t-62 -78.5l-96 -690h-273zM467 -655l-87 59l4 25q30 21 46 51.5t16 83.5q2 40 -18 71.5t-49 35.5l9 70l142 102q62 -14 100 -72t38 -133q0 -71 -28.5 -134.5t-74 -106.5t-98.5 -52z" />
    <glyph glyph-name="Ncaron" unicode="&#x147;" horiz-adv-x="1419" 
d="M88 0l202 1494h253l386 -898l70 -230l16 249l106 879h263l-202 -1494h-242l-389 926l-75 248l-12 -279l-117 -895h-259zM764 1635l-221 334l105 77l226 -211l286 211l114 -76l-336 -335h-174z" />
    <glyph glyph-name="ncaron" unicode="&#x148;" horiz-adv-x="1230" 
d="M77 0l152 1114h261l-17 -210q78 103 181 163.5t214 60.5q122 0 184 -67t62 -221q0 -23 -5.5 -74t-15 -120t-19.5 -145q-3 -23 -9 -64t-13.5 -94.5t-16 -113t-17.5 -118t-17 -111.5h-274q9 60 19.5 136.5t23.5 167.5l28 196q15 114 23.5 188t8.5 114q1 60 -20.5 82.5
t-69.5 22.5q-33 0 -73.5 -18.5t-81.5 -50t-77 -70t-62 -78.5l-96 -690h-273zM627 1272l-235 328l102 87l240 -224l288 224l96 -85l-317 -330h-174z" />
    <glyph glyph-name="napostrophe" unicode="&#x149;" horiz-adv-x="1910" 
d="M364 879l-94 123l2 22q41 20 77.5 66.5t59.5 108.5t23 130q0 77 -21.5 129.5t-55.5 82.5l4 40l155 129q42 -20 83 -69.5t67.5 -117.5t26.5 -144q0 -112 -42 -210t-116 -172.5t-169 -117.5zM757 0l152 1114h261l-17 -210q78 103 181 163.5t214 60.5q122 0 184 -67t62 -221
q0 -23 -5.5 -74t-15 -120t-19.5 -145q-3 -23 -9 -64t-13.5 -94.5t-16 -113t-17.5 -118t-17 -111.5h-274q9 60 19.5 136.5t23.5 167.5l28 196q15 114 23.5 188t8.5 114q1 60 -20.5 82.5t-69.5 22.5q-33 0 -73.5 -18.5t-81.5 -50t-77 -70t-62 -78.5l-96 -690h-273z" />
    <glyph glyph-name="Eng" unicode="&#x14a;" horiz-adv-x="1428" 
d="M681 -359l-45 107q69 23 131 64.5t106 98t59 124.5l-375 891l-75 248l-11 -279l-118 -895h-259l202 1494h254l386 -898l69 -230l16 249l106 879h263l-204 -1494q-29 -103 -101 -179t-176 -121t-228 -59z" />
    <glyph glyph-name="eng" unicode="&#x14b;" horiz-adv-x="1231" 
d="M524 -511q-54 0 -101.5 9.5t-62.5 26.5l37 117q12 -4 35.5 -8t35.5 -4q75 0 127 45t84 128t48 197q20 141 37.5 266t31.5 228.5t23 181.5t10 125q1 61 -20 83.5t-70 22.5q-33 0 -73 -19t-81.5 -50.5t-77.5 -70.5t-62 -79l-95 -688h-273l151 1114h261l-17 -211
q52 69 115.5 119t134.5 78t145 28q122 0 183.5 -67t61.5 -221q0 -29 -5.5 -89t-16.5 -142q-10 -78 -24 -177.5t-30.5 -210t-34.5 -221.5q-26 -160 -83 -274.5t-153.5 -175.5t-240.5 -61z" />
    <glyph glyph-name="Omacron" unicode="&#x14c;" horiz-adv-x="1353" 
d="M602 -16q-167 0 -281 80.5t-172.5 218t-58.5 307.5q0 185 49.5 351t143 294t226 201.5t297.5 73.5q125 0 220 -47t158.5 -131t95.5 -194t32 -237q0 -185 -48.5 -350.5t-140.5 -293t-223.5 -200.5t-297.5 -73zM630 191q98 0 173.5 63t126 166.5t76 226.5t24.5 241
q-2 145 -32 236t-87 134t-140 43q-96 0 -170.5 -64t-125.5 -167.5t-77 -225t-25 -237.5q3 -216 71 -316t186 -100zM573 1650l11 180h541l-13 -180h-539z" />
    <glyph glyph-name="omacron" unicode="&#x14d;" horiz-adv-x="1132" 
d="M469 -16q-132 0 -219.5 58.5t-131 164.5t-43.5 246q0 179 72 335q71 154 205.5 247t313.5 93q132 0 218 -57.5t128.5 -162t42.5 -247.5q0 -178 -70 -334q-71 -155 -204 -249t-312 -94zM508 163q71 0 122 47t83.5 123t47.5 166t15 176q0 84 -14 146t-47.5 96.5t-89.5 34.5
q-72 0 -124 -49.5t-85 -127.5t-49 -168.5t-16 -172.5q0 -133 39 -202t118 -69zM413 1306l20 180h541l-21 -180h-540z" />
    <glyph glyph-name="Obreve" unicode="&#x14e;" horiz-adv-x="1353" 
d="M602 -16q-167 0 -281 80.5t-172.5 218t-58.5 307.5q0 185 49.5 351t143 294t226 201.5t297.5 73.5q125 0 220 -47t158.5 -131t95.5 -194t32 -237q0 -185 -48.5 -350.5t-140.5 -293t-223.5 -200.5t-297.5 -73zM630 191q98 0 173.5 63t126 166.5t76 226.5t24.5 241
q-2 145 -32 236t-87 134t-140 43q-96 0 -170.5 -64t-125.5 -167.5t-77 -225t-25 -237.5q3 -216 71 -316t186 -100zM839 1635q-109 0 -180.5 45t-101.5 125.5t-17 187.5h160q1 -94 33.5 -136t117.5 -42q56 0 91 22.5t54.5 63t31.5 92.5h155q0 -105 -43.5 -185.5t-121 -126.5
t-179.5 -46z" />
    <glyph glyph-name="obreve" unicode="&#x14f;" horiz-adv-x="1132" 
d="M469 -16q-132 0 -219.5 58.5t-131 164.5t-43.5 246q0 179 72 335q71 154 205.5 247t313.5 93q132 0 218 -57.5t128.5 -162t42.5 -247.5q0 -178 -70 -334q-71 -155 -204 -249t-312 -94zM508 163q71 0 122 47t83.5 123t47.5 166t15 176q0 84 -14 146t-47.5 96.5t-89.5 34.5
q-72 0 -124 -49.5t-85 -127.5t-49 -168.5t-16 -172.5q0 -133 39 -202t118 -69zM688 1263q-109 0 -180.5 45t-102 126t-16.5 187h159q1 -63 15.5 -102t47 -57.5t89.5 -18.5q56 0 90.5 23t54 63t32.5 92h155q0 -104 -43.5 -185t-120.5 -127t-180 -46z" />
    <glyph glyph-name="Ohungarumlaut" unicode="&#x150;" horiz-adv-x="1353" 
d="M602 -16q-167 0 -281 80.5t-172.5 218t-58.5 307.5q0 185 49.5 351t143 294t226 201.5t297.5 73.5q125 0 220 -47t158.5 -131t95.5 -194t32 -237q0 -185 -48.5 -350.5t-140.5 -293t-223.5 -200.5t-297.5 -73zM630 191q98 0 173.5 63t126 166.5t76 226.5t24.5 241
q-2 145 -32 236t-87 134t-140 43q-96 0 -170.5 -64t-125.5 -167.5t-77 -225t-25 -237.5q3 -216 71 -316t186 -100zM1041 1594l-96 60l253 424l168 -125q-13 -35 -52 -88.5t-89.5 -108.5t-99.5 -99.5t-84 -62.5zM597 1594l-101 60l247 424l165 -121q-14 -37 -50.5 -90
t-83.5 -108t-94 -99.5t-83 -65.5z" />
    <glyph glyph-name="ohungarumlaut" unicode="&#x151;" horiz-adv-x="1132" 
d="M469 -16q-132 0 -219.5 58.5t-131 164.5t-43.5 246q0 179 72 335q71 154 205.5 247t313.5 93q132 0 218 -57.5t128.5 -162t42.5 -247.5q0 -178 -70 -334q-71 -155 -204 -249t-312 -94zM508 163q71 0 122 47t83.5 123t47.5 166t15 176q0 84 -14 146t-47.5 96.5t-89.5 34.5
q-72 0 -124 -49.5t-85 -127.5t-49 -168.5t-16 -172.5q0 -133 39 -202t118 -69zM868 1214l-111 68l253 423l178 -129q-12 -36 -50 -90t-87.5 -110.5t-98.5 -100.5t-84 -61zM424 1214l-115 68l245 423l175 -126q-12 -37 -47.5 -91t-82 -110t-93.5 -100.5t-82 -63.5z" />
    <glyph glyph-name="OE" unicode="&#x152;" horiz-adv-x="2065" 
d="M602 -16q-166 0 -280 80.5t-173 217.5t-59 308q0 184 50 350t143 294.5t225.5 202t297.5 73.5q149 0 251 -69t162 -191l19 244h797l-23 -214l-572 5l-56 -418l428 6l-24 -219l-431 13l-62 -458l664 12l-26 -221h-896l43 222q-91 -113 -210 -175.5t-268 -62.5zM630 191
q98 0 173.5 63t126 166.5t76 226.5t24.5 241q-2 128 -28.5 221t-83 142.5t-147.5 49.5q-96 0 -170.5 -64t-125.5 -167.5t-77 -225t-25 -237.5q3 -216 71.5 -316t185.5 -100z" />
    <glyph glyph-name="oe" unicode="&#x153;" horiz-adv-x="1740" 
d="M469 -16q-132 0 -219.5 58.5t-131 164.5t-43.5 246q0 179 72 335q71 154 205.5 247t313.5 93q132 0 218 -57.5t128.5 -162t42.5 -247.5q0 -178 -70 -334q-71 -155 -204 -249t-312 -94zM508 163q71 0 122 47t83.5 123t47.5 166t15 176q0 84 -14 146t-47.5 96.5t-89.5 34.5
q-72 0 -124 -49.5t-85 -127.5t-49 -168.5t-16 -172.5q0 -133 39 -202t118 -69zM1172 -16q-139 0 -228 61q-92 62 -134.5 162.5t-41.5 219.5q0 195 81 358q79 161 217 252t309 91q100 0 167 -34t101 -91t34 -125q0 -104 -51 -185t-139 -140.5t-199.5 -99t-232.5 -59.5v-15.5
v-14.5q4 -84 43.5 -134.5t129.5 -50.5q53 0 111.5 21.5t113 57.5t95.5 79l72 -139q-29 -40 -79.5 -78.5t-113.5 -69t-129 -48.5t-126 -18zM1056 549q59 3 121 28t115 67t85.5 95.5t32.5 112.5q0 58 -23.5 82.5t-72.5 24.5q-40 0 -73.5 -24t-66.5 -65q-57 -67 -84.5 -157
t-33.5 -164z" />
    <glyph glyph-name="Racute" unicode="&#x154;" horiz-adv-x="1278" 
d="M87 0l202 1494h150q30 0 86 4t113.5 8t92.5 4q254 0 376.5 -94.5t122.5 -278.5q0 -178 -83.5 -310.5t-248.5 -183.5q26 -23 50.5 -64.5t46.5 -92.5t40 -104q31 -86 59.5 -161.5t54 -132.5t46.5 -88h-305q-11 16 -23.5 50t-26.5 77t-28 88t-27 83q-14 50 -32 101.5
t-40 95.5t-46 72t-50 29l-175 1l-81 -597h-274zM674 809q96 0 158.5 42t92 114t28.5 160q-1 100 -64 144.5t-186 44.5q-24 0 -57 -2t-62.5 -5t-46.5 -6l-67 -490q26 -1 77 -1.5t127 -0.5zM710 1634l-102 83l315 416l177 -154q-13 -24 -47 -63.5t-80.5 -84t-96 -85.5
t-93.5 -71.5t-73 -40.5z" />
    <glyph glyph-name="racute" unicode="&#x155;" horiz-adv-x="829" 
d="M78 0l152 1114h263l-18 -216q25 55 70.5 108t107 87.5t135.5 34.5q50 0 64 -12l-54 -282q-10 10 -36.5 15t-58.5 5q-52 0 -98.5 -23.5t-85.5 -63.5t-72 -87l-96 -680h-273zM538 1279l-95 83l313 416l172 -154q-13 -24 -47.5 -63.5t-81 -84t-95.5 -85.5t-93 -71.5
t-73 -40.5z" />
    <glyph glyph-name="uni0156" unicode="&#x156;" horiz-adv-x="1278" 
d="M87 0l202 1494h150q30 0 86 4t113.5 8t92.5 4q254 0 376.5 -94.5t122.5 -278.5q0 -178 -83.5 -310.5t-248.5 -183.5q26 -23 50.5 -64.5t46.5 -92.5t40 -104q31 -86 59.5 -161.5t54 -132.5t46.5 -88h-305q-11 16 -23.5 50t-26.5 77t-28 88t-27 83q-14 50 -32 101.5
t-40 95.5t-46 72t-50 29l-175 1l-81 -597h-274zM674 809q96 0 158.5 42t92 114t28.5 160q-1 100 -64 144.5t-186 44.5q-24 0 -57 -2t-62.5 -5t-46.5 -6l-67 -490q26 -1 77 -1.5t127 -0.5zM457 -654l-90 59l4 25q30 21 48 53.5t18 81.5q0 36 -19.5 67t-48.5 36l9 73l147 102
q62 -14 97.5 -72t35.5 -132q0 -71 -28.5 -134.5t-74.5 -106.5t-98 -52z" />
    <glyph glyph-name="uni0157" unicode="&#x157;" horiz-adv-x="829" 
d="M78 0l152 1114h263l-18 -216q25 55 70.5 108t107 87.5t135.5 34.5q50 0 64 -12l-54 -282q-10 10 -36.5 15t-58.5 5q-52 0 -98.5 -23.5t-85.5 -63.5t-72 -87l-96 -680h-273zM143 -655l-87 59l4 25q30 21 46 51.5t16 83.5q2 40 -18 71.5t-49 35.5l9 70l142 102
q62 -14 100 -72t38 -133q0 -71 -28.5 -134.5t-74 -106.5t-98.5 -52z" />
    <glyph glyph-name="Rcaron" unicode="&#x158;" horiz-adv-x="1278" 
d="M87 0l202 1494h150q30 0 86 4t113.5 8t92.5 4q254 0 376.5 -94.5t122.5 -278.5q0 -178 -83.5 -310.5t-248.5 -183.5q26 -23 50.5 -64.5t46.5 -92.5t40 -104q31 -86 59.5 -161.5t54 -132.5t46.5 -88h-305q-11 16 -23.5 50t-26.5 77t-28 88t-27 83q-14 50 -32 101.5
t-40 95.5t-46 72t-50 29l-175 1l-81 -597h-274zM674 809q96 0 158.5 42t92 114t28.5 160q-1 100 -64 144.5t-186 44.5q-24 0 -57 -2t-62.5 -5t-46.5 -6l-67 -490q26 -1 77 -1.5t127 -0.5zM652 1634l-221 334l105 77l226 -211l286 211l114 -76l-336 -335h-174z" />
    <glyph glyph-name="rcaron" unicode="&#x159;" horiz-adv-x="829" 
d="M78 0l152 1114h263l-18 -216q25 55 70.5 108t107 87.5t135.5 34.5q50 0 64 -12l-54 -282q-10 10 -36.5 15t-58.5 5q-52 0 -98.5 -23.5t-85.5 -63.5t-72 -87l-96 -680h-273zM506 1272l-235 328l102 87l240 -224l288 224l96 -85l-317 -330h-174z" />
    <glyph glyph-name="Sacute" unicode="&#x15a;" horiz-adv-x="1025" 
d="M383 -16q-44 0 -99 8t-110 21t-98.5 29.5t-64.5 33.5l87 222q26 -24 77.5 -46t110.5 -36.5t107 -14.5q79 0 135.5 21.5t87 64t30.5 104.5q0 73 -49 136.5t-149 132.5q-83 60 -145.5 125t-97 140t-34.5 166q0 135 64.5 228.5t175.5 142t250 48.5q118 0 208.5 -25
t135.5 -59l-87 -213q-38 38 -112 61t-144 23q-66 0 -116.5 -18.5t-79 -56t-30.5 -93.5q0 -50 29 -100.5t76 -98t101 -88.5q87 -63 151 -126t99 -133t35 -156q0 -151 -72 -249t-195 -146t-277 -48zM648 1634l-102 83l315 416l177 -154q-13 -24 -47 -63.5t-80.5 -84t-96 -85.5
t-93.5 -71.5t-73 -40.5z" />
    <glyph glyph-name="sacute" unicode="&#x15b;" horiz-adv-x="906" 
d="M355 -16q-58 0 -121 9t-113 23.5t-73 30.5l48 224q28 -24 74 -44.5t96 -33.5t90 -13q74 0 119 25t45 83q0 36 -18 65t-57.5 63.5t-104.5 85.5q-79 67 -128 137.5t-49 174.5q0 106 56.5 176t150.5 104t207 34q52 0 103.5 -5.5t92.5 -14t59 -17.5l-38 -238q-17 20 -52.5 39
t-80 30.5t-88.5 11.5q-71 0 -113 -28t-42 -78q0 -41 23 -75t59 -64.5t76 -63.5q60 -45 106 -94t72.5 -104.5t26.5 -119.5q0 -114 -58 -185.5t-154.5 -104.5t-213.5 -33zM545 1279l-95 83l313 416l172 -154q-13 -24 -47.5 -63.5t-81 -84t-95.5 -85.5t-93 -71.5t-73 -40.5z
" />
    <glyph glyph-name="Scircumflex" unicode="&#x15c;" horiz-adv-x="1025" 
d="M383 -16q-44 0 -99 8t-110 21t-98.5 29.5t-64.5 33.5l87 222q26 -24 77.5 -46t110.5 -36.5t107 -14.5q79 0 135.5 21.5t87 64t30.5 104.5q0 73 -49 136.5t-149 132.5q-83 60 -145.5 125t-97 140t-34.5 166q0 135 64.5 228.5t175.5 142t250 48.5q118 0 208.5 -25
t135.5 -59l-87 -213q-38 38 -112 61t-144 23q-66 0 -116.5 -18.5t-79 -56t-30.5 -93.5q0 -50 29 -100.5t76 -98t101 -88.5q87 -63 151 -126t99 -133t35 -156q0 -151 -72 -249t-195 -146t-277 -48zM418 1621l-106 70l342 358h174l198 -358l-123 -66l-191 204z" />
    <glyph glyph-name="scircumflex" unicode="&#x15d;" horiz-adv-x="906" 
d="M355 -16q-58 0 -121 9t-113 23.5t-73 30.5l48 224q28 -24 74 -44.5t96 -33.5t90 -13q74 0 119 25t45 83q0 36 -18 65t-57.5 63.5t-104.5 85.5q-79 67 -128 137.5t-49 174.5q0 106 56.5 176t150.5 104t207 34q52 0 103.5 -5.5t92.5 -14t59 -17.5l-38 -238q-17 20 -52.5 39
t-80 30.5t-88.5 11.5q-71 0 -113 -28t-42 -78q0 -41 23 -75t59 -64.5t76 -63.5q60 -45 106 -94t72.5 -104.5t26.5 -119.5q0 -114 -58 -185.5t-154.5 -104.5t-213.5 -33zM351 1243l-107 70l341 350h175l198 -350l-122 -67l-191 220z" />
    <glyph glyph-name="Scedilla" unicode="&#x15e;" horiz-adv-x="1025" 
d="M383 -16q-44 0 -99 8t-110 21t-98.5 29.5t-64.5 33.5l87 222q26 -24 77.5 -46t110.5 -36.5t107 -14.5q79 0 135.5 21.5t87 64t30.5 104.5q0 73 -49 136.5t-149 132.5q-83 60 -145.5 125t-97 140t-34.5 166q0 135 64.5 228.5t175.5 142t250 48.5q118 0 208.5 -25
t135.5 -59l-87 -213q-38 38 -112 61t-144 23q-66 0 -116.5 -18.5t-79 -56t-30.5 -93.5q0 -50 29 -100.5t76 -98t101 -88.5q87 -63 151 -126t99 -133t35 -156q0 -151 -72 -249t-195 -146t-277 -48zM268 -457q-64 0 -122.5 12.5t-75.5 22.5l30 175q14 -7 43 -13.5t78 -6.5
q55 0 100 37.5t46 120.5q1 57 -3 88t-8 51l56 4l76 -4q20 -29 37 -83t17 -127q0 -141 -75 -209t-199 -68z" />
    <glyph glyph-name="scedilla" unicode="&#x15f;" horiz-adv-x="906" 
d="M355 -16q-58 0 -121 9t-113 23.5t-73 30.5l48 224q28 -24 74 -44.5t96 -33.5t90 -13q74 0 119 25t45 83q0 36 -18 65t-57.5 63.5t-104.5 85.5q-79 67 -128 137.5t-49 174.5q0 106 56.5 176t150.5 104t207 34q52 0 103.5 -5.5t92.5 -14t59 -17.5l-38 -238q-17 20 -52.5 39
t-80 30.5t-88.5 11.5q-71 0 -113 -28t-42 -78q0 -41 23 -75t59 -64.5t76 -63.5q60 -45 106 -94t72.5 -104.5t26.5 -119.5q0 -114 -58 -185.5t-154.5 -104.5t-213.5 -33zM232 -457q-64 0 -122.5 12.5t-75.5 22.5l30 175q14 -7 43 -13.5t78 -6.5q55 0 100 37.5t46 120.5
q1 57 -3 88t-8 51l56 4l76 -4q20 -29 37 -83t17 -127q0 -141 -75 -209t-199 -68z" />
    <glyph glyph-name="Scaron" unicode="&#x160;" horiz-adv-x="1025" 
d="M383 -16q-44 0 -99 8t-110 21t-98.5 29.5t-64.5 33.5l87 222q26 -24 77.5 -46t110.5 -36.5t107 -14.5q79 0 135.5 21.5t87 64t30.5 104.5q0 73 -49 136.5t-149 132.5q-83 60 -145.5 125t-97 140t-34.5 166q0 135 64.5 228.5t175.5 142t250 48.5q118 0 208.5 -25
t135.5 -59l-87 -213q-38 38 -112 61t-144 23q-66 0 -116.5 -18.5t-79 -56t-30.5 -93.5q0 -50 29 -100.5t76 -98t101 -88.5q87 -63 151 -126t99 -133t35 -156q0 -151 -72 -249t-195 -146t-277 -48zM590 1634l-221 334l105 77l226 -211l286 211l114 -76l-336 -335h-174z" />
    <glyph glyph-name="scaron" unicode="&#x161;" horiz-adv-x="906" 
d="M355 -16q-58 0 -121 9t-113 23.5t-73 30.5l48 224q28 -24 74 -44.5t96 -33.5t90 -13q74 0 119 25t45 83q0 36 -18 65t-57.5 63.5t-104.5 85.5q-79 67 -128 137.5t-49 174.5q0 106 56.5 176t150.5 104t207 34q52 0 103.5 -5.5t92.5 -14t59 -17.5l-38 -238q-17 20 -52.5 39
t-80 30.5t-88.5 11.5q-71 0 -113 -28t-42 -78q0 -41 23 -75t59 -64.5t76 -63.5q60 -45 106 -94t72.5 -104.5t26.5 -119.5q0 -114 -58 -185.5t-154.5 -104.5t-213.5 -33zM513 1272l-235 328l102 87l240 -224l288 224l96 -85l-317 -330h-174z" />
    <glyph glyph-name="uni0162" unicode="&#x162;" horiz-adv-x="1112" 
d="M338 0l174 1291l-383 -11l34 214h1030l-30 -214l-375 11l-174 -1291h-276zM311 -457q-64 0 -122.5 12.5t-75.5 22.5l30 175q14 -7 43 -13.5t78 -6.5q55 0 100 37.5t46 120.5q1 57 -3 88t-8 51l56 4l76 -4q20 -29 37 -83t17 -127q0 -141 -75 -209t-199 -68z" />
    <glyph glyph-name="uni0163" unicode="&#x163;" horiz-adv-x="770" 
d="M330 -18q-93 0 -149 48.5t-56 144.5q0 12 2.5 38t5.5 60t8 69l75 587h-96l38 185h103l79 270h214l-37 -270h236l-22 -185h-238q-21 -158 -36 -269t-25 -184t-15 -115.5t-7 -64.5t-2 -33q0 -38 12.5 -60.5t48.5 -22.5q21 0 57 13t72 33.5t59 40.5l39 -137
q-38 -37 -97.5 -70.5t-129.5 -55.5t-139 -22zM160 -457q-64 0 -122.5 12.5t-75.5 22.5l30 175q14 -7 43 -13.5t78 -6.5q55 0 100 37.5t46 120.5q1 57 -3 88t-8 51l56 4l76 -4q20 -29 37 -83t17 -127q0 -141 -75 -209t-199 -68z" />
    <glyph glyph-name="Tcaron" unicode="&#x164;" horiz-adv-x="1112" 
d="M338 0l174 1291l-383 -11l34 214h1030l-30 -214l-375 11l-174 -1291h-276zM612 1635l-221 334l105 77l226 -211l286 211l114 -76l-336 -335h-174z" />
    <glyph glyph-name="tcaron" unicode="&#x165;" horiz-adv-x="775" 
d="M829 1217l-124 34l-6 24q19 64 29.5 143.5t10.5 155.5q0 68 -7 120t-20 71l14 37l200 45q17 -27 25.5 -79.5t8.5 -123.5q0 -73 -16 -153t-45.5 -152t-69.5 -122zM330 -18q-93 0 -149 48.5t-56 144.5q0 12 2.5 38t5.5 60t8 69l75 587h-96l38 185h103l79 270h214l-37 -270
h236l-22 -185h-238q-21 -158 -36 -269t-25 -184t-15 -115.5t-7 -64.5t-2 -33q0 -38 12.5 -60.5t48.5 -22.5q21 0 57 13t72 33.5t59 40.5l39 -137q-38 -37 -97.5 -70.5t-129.5 -55.5t-139 -22z" />
    <glyph glyph-name="Tbar" unicode="&#x166;" horiz-adv-x="1118" 
d="M344 0l89 661h-242l22 189h246l59 441l-382 -11l33 214h1030l-30 -214l-375 11l-59 -441h253l-24 -189h-255l-88 -661h-277z" />
    <glyph glyph-name="tbar" unicode="&#x167;" horiz-adv-x="775" 
d="M711 733l-23 -170h-616l23 170h616zM330 -18q-93 0 -149 48.5t-56 144.5q0 12 2.5 38t5.5 60t8 69l75 587h-96l38 185h103l79 270h214l-37 -270h236l-22 -185h-238q-21 -158 -36 -269t-25 -184t-15 -115.5t-7 -64.5t-2 -33q0 -38 12.5 -60.5t48.5 -22.5q21 0 57 13
t72 33.5t59 40.5l39 -137q-38 -37 -97.5 -70.5t-129.5 -55.5t-139 -22z" />
    <glyph glyph-name="Utilde" unicode="&#x168;" horiz-adv-x="1371" 
d="M598 -16q-234 0 -352.5 116t-119.5 325q0 28 3.5 65t10.5 92l121 912h275l-118 -874q-5 -47 -9.5 -91.5t-4.5 -88.5q0 -126 58 -183.5t177 -57.5q98 0 163.5 51t104.5 146t58 228l116 870h271l-120 -897q-15 -111 -41.5 -200t-65.5 -156q-77 -135 -207 -196t-320 -61z
M985 1650q-59 0 -106 23.5t-80 58.5q-28 31 -51 46.5t-56 15.5q-37 0 -65 -18.5t-62 -69.5l-86 109q23 48 60 87t81.5 61.5t90.5 22.5q52 0 97.5 -21.5t80.5 -61.5q27 -29 48.5 -43.5t45.5 -14.5q29 0 53.5 13.5t45 38.5t37.5 61l90 -116q-17 -48 -51 -92.5t-79 -72
t-94 -27.5z" />
    <glyph glyph-name="utilde" unicode="&#x169;" horiz-adv-x="1203" 
d="M371 -20q-126 0 -196 64.5t-70 205.5q0 41 7.5 113.5t20.5 172.5q12 88 26 187t28 199t26 192h273q-5 -34 -12.5 -89l-16.5 -121t-18 -134.5t-17 -130t-14 -106.5q-11 -85 -16.5 -143t-5.5 -89q0 -59 25 -85t73 -26q43 0 91 29t95 78t86 109l96 708h273l-150 -1114h-247
l13 200q-67 -95 -163.5 -157.5t-206.5 -62.5zM852 1238q-58 0 -105 23.5t-81 59.5q-28 30 -50.5 45.5t-56.5 15.5q-37 0 -65 -18.5t-62 -69.5l-86 109q36 73 100 123t132 50q53 0 98 -22.5t80 -62.5q27 -29 48.5 -43.5t46.5 -14.5q29 0 53 13.5t44.5 38.5t37.5 62l91 -116
q-17 -49 -51 -93t-79.5 -72t-94.5 -28z" />
    <glyph glyph-name="Umacron" unicode="&#x16a;" horiz-adv-x="1371" 
d="M598 -16q-234 0 -352.5 116t-119.5 325q0 28 3.5 65t10.5 92l121 912h275l-118 -874q-5 -47 -9.5 -91.5t-4.5 -88.5q0 -126 58 -183.5t177 -57.5q98 0 163.5 51t104.5 146t58 228l116 870h271l-120 -897q-15 -111 -41.5 -200t-65.5 -156q-77 -135 -207 -196t-320 -61z
M564 1650l11 180h541l-13 -180h-539z" />
    <glyph glyph-name="umacron" unicode="&#x16b;" horiz-adv-x="1203" 
d="M371 -20q-126 0 -196 64.5t-70 205.5q0 41 7.5 113.5t20.5 172.5q12 88 26 187t28 199t26 192h273q-5 -34 -12.5 -89l-16.5 -121t-18 -134.5t-17 -130t-14 -106.5q-11 -85 -16.5 -143t-5.5 -89q0 -59 25 -85t73 -26q43 0 91 29t95 78t86 109l96 708h273l-150 -1114h-247
l13 200q-67 -95 -163.5 -157.5t-206.5 -62.5zM435 1306l20 180h541l-21 -180h-540z" />
    <glyph glyph-name="Ubreve" unicode="&#x16c;" horiz-adv-x="1371" 
d="M598 -16q-234 0 -352.5 116t-119.5 325q0 28 3.5 65t10.5 92l121 912h275l-118 -874q-5 -47 -9.5 -91.5t-4.5 -88.5q0 -126 58 -183.5t177 -57.5q98 0 163.5 51t104.5 146t58 228l116 870h271l-120 -897q-15 -111 -41.5 -200t-65.5 -156q-77 -135 -207 -196t-320 -61z
M830 1635q-109 0 -180.5 45t-101.5 125.5t-17 187.5h160q1 -94 33.5 -136t117.5 -42q56 0 91 22.5t54.5 63t31.5 92.5h155q0 -105 -43.5 -185.5t-121 -126.5t-179.5 -46z" />
    <glyph glyph-name="ubreve" unicode="&#x16d;" horiz-adv-x="1203" 
d="M371 -20q-126 0 -196 64.5t-70 205.5q0 41 7.5 113.5t20.5 172.5q12 88 26 187t28 199t26 192h273q-5 -34 -12.5 -89l-16.5 -121t-18 -134.5t-17 -130t-14 -106.5q-11 -85 -16.5 -143t-5.5 -89q0 -59 25 -85t73 -26q43 0 91 29t95 78t86 109l96 708h273l-150 -1114h-247
l13 200q-67 -95 -163.5 -157.5t-206.5 -62.5zM710 1263q-109 0 -180.5 45t-102 126t-16.5 187h159q1 -63 15.5 -102t47 -57.5t89.5 -18.5q56 0 90.5 23t54 63t32.5 92h155q0 -104 -43.5 -185t-120.5 -127t-180 -46z" />
    <glyph glyph-name="Uring" unicode="&#x16e;" horiz-adv-x="1371" 
d="M598 -16q-234 0 -352.5 116t-119.5 325q0 28 3.5 65t10.5 92l121 912h275l-118 -874q-5 -47 -9.5 -91.5t-4.5 -88.5q0 -126 58 -183.5t177 -57.5q98 0 163.5 51t104.5 146t58 228l116 870h271l-120 -897q-15 -111 -41.5 -200t-65.5 -156q-77 -135 -207 -196t-320 -61z
M825 1631q-138 0 -216.5 64t-78.5 181q0 97 55 161q56 64 139 93.5t169 29.5q131 0 207.5 -63.5t76.5 -179.5q0 -95 -49 -157q-50 -65 -130.5 -97t-172.5 -32zM839 1754q78 0 125 34.5t47 120.5q0 56 -40 93t-98 37q-72 0 -125 -36.5t-53 -117.5q0 -54 44 -92.5t100 -38.5z
" />
    <glyph glyph-name="uring" unicode="&#x16f;" horiz-adv-x="1203" 
d="M371 -20q-126 0 -196 64.5t-70 205.5q0 41 7.5 113.5t20.5 172.5q12 88 26 187t28 199t26 192h273q-5 -34 -12.5 -89l-16.5 -121t-18 -134.5t-17 -130t-14 -106.5q-11 -85 -16.5 -143t-5.5 -89q0 -59 25 -85t73 -26q43 0 91 29t95 78t86 109l96 708h273l-150 -1114h-247
l13 200q-67 -95 -163.5 -157.5t-206.5 -62.5zM696 1224q-139 0 -217.5 64t-78.5 180q0 97 55 162q55 64 138.5 94t169.5 30q131 0 207.5 -64t76.5 -181q0 -94 -48 -157q-50 -65 -131 -96.5t-172 -31.5zM709 1347q78 0 125 34.5t47 120.5q0 56 -40 93t-98 37q-72 0 -125 -37
t-53 -117q0 -54 44 -92.5t100 -38.5z" />
    <glyph glyph-name="Uhungarumlaut" unicode="&#x170;" horiz-adv-x="1371" 
d="M598 -16q-234 0 -352.5 116t-119.5 325q0 28 3.5 65t10.5 92l121 912h275l-118 -874q-5 -47 -9.5 -91.5t-4.5 -88.5q0 -126 58 -183.5t177 -57.5q98 0 163.5 51t104.5 146t58 228l116 870h271l-120 -897q-15 -111 -41.5 -200t-65.5 -156q-77 -135 -207 -196t-320 -61z
M1032 1594l-96 60l253 424l168 -125q-13 -35 -52 -88.5t-89.5 -108.5t-99.5 -99.5t-84 -62.5zM588 1594l-101 60l247 424l165 -121q-14 -37 -50.5 -90t-83.5 -108t-94 -99.5t-83 -65.5z" />
    <glyph glyph-name="uhungarumlaut" unicode="&#x171;" horiz-adv-x="1203" 
d="M371 -20q-126 0 -196 64.5t-70 205.5q0 41 7.5 113.5t20.5 172.5q12 88 26 187t28 199t26 192h273q-5 -34 -12.5 -89l-16.5 -121t-18 -134.5t-17 -130t-14 -106.5q-11 -85 -16.5 -143t-5.5 -89q0 -59 25 -85t73 -26q43 0 91 29t95 78t86 109l96 708h273l-150 -1114h-247
l13 200q-67 -95 -163.5 -157.5t-206.5 -62.5zM890 1214l-111 68l253 423l178 -129q-12 -36 -50 -90t-87.5 -110.5t-98.5 -100.5t-84 -61zM446 1214l-115 68l245 423l175 -126q-12 -37 -47.5 -91t-82 -110t-93.5 -100.5t-82 -63.5z" />
    <glyph glyph-name="Uogonek" unicode="&#x172;" horiz-adv-x="1371" 
d="M598 -16q-234 0 -352.5 116t-119.5 325q0 28 3.5 65t10.5 92l121 912h275l-118 -874q-5 -47 -9.5 -91.5t-4.5 -88.5q0 -126 58 -183.5t177 -57.5q98 0 163.5 51t104.5 146t58 228l116 870h271l-120 -897q-15 -111 -41.5 -200t-65.5 -156q-77 -135 -207 -196t-320 -61z
M499 -468q-83 0 -136 46.5t-53 114.5q0 51 24 95.5t65.5 83.5t94.5 72t111 59l85 39l81 -42q-117 -73 -175.5 -131.5t-58.5 -105.5q0 -38 18.5 -53t45.5 -15q40 0 73 16.5t75 47.5l51 -104q-37 -35 -79.5 -62.5t-96 -44t-125.5 -16.5z" />
    <glyph glyph-name="uogonek" unicode="&#x173;" horiz-adv-x="1203" 
d="M371 -20q-126 0 -196 64.5t-70 205.5q0 41 7.5 113.5t20.5 172.5q12 88 26 187t28 199t26 192h273q-5 -34 -12.5 -89l-16.5 -121t-18 -134.5t-17 -130t-14 -106.5q-11 -85 -16.5 -143t-5.5 -89q0 -59 25 -85t73 -26q43 0 91 29t95 78t86 109l96 708h273l-150 -1114h-247
l13 200q-67 -95 -163.5 -157.5t-206.5 -62.5zM734 -448q-83 0 -136.5 46.5t-53.5 114.5q0 59 35.5 111t92.5 96t119 80l96 55l88 -55q-92 -64 -147.5 -118.5t-55.5 -98.5q0 -38 18.5 -53t45.5 -15q35 0 70 16.5t77 47.5l51 -104q-55 -52 -133 -87.5t-167 -35.5z" />
    <glyph glyph-name="Wcircumflex" unicode="&#x174;" horiz-adv-x="1747" 
d="M311 -5l-203 1499h275l96 -1009l24 -215l63 214l291 736l-29 274h266l83 -1009l19 -215l62 214l364 1010h280l-596 -1499h-307l-74 679l-15 167l-57 -167l-255 -679h-287zM757 1622l-106 70l342 358h174l198 -358l-123 -66l-191 204z" />
    <glyph glyph-name="wcircumflex" unicode="&#x175;" horiz-adv-x="1676" 
d="M258 -11l-56 359l-105 766h286l64 -704l11 -202l92 126q51 80 92.5 162.5t72 169t47.5 176.5l-32 272h275l56 -704l15 -202l90 123q51 80 89 159t65.5 163t43.5 180q11 65 15.5 144.5t4.5 136.5h252q1 -21 3 -58t1 -78q-4 -164 -64.5 -320.5t-180 -319t-302.5 -344.5
l-214 -5l-47 299l-23 161q-38 -78 -83 -149t-104.5 -145.5t-141.5 -160.5zM687 1243l-107 70l341 350h175l198 -350l-122 -67l-191 220z" />
    <glyph glyph-name="Ycircumflex" unicode="&#x176;" horiz-adv-x="1099" 
d="M339 0l78 576l-335 918h288l187 -589l28 -105l47 105l336 589h301l-583 -918l-78 -576h-269zM433 1622l-106 70l342 358h174l198 -358l-123 -66l-191 204z" />
    <glyph glyph-name="ycircumflex" unicode="&#x177;" horiz-adv-x="1072" 
d="M62 -498q-50 0 -104 15.5t-96 36.5l72 200q28 -17 67 -31t77 -14q71 0 132.5 37t116.5 99t105 137h-163l-58 366l-109 766h281l77 -714l36 -303q31 61 57.5 121t49.5 118q49 100 81.5 197t52.5 203t30 232q3 30 4 69.5t1 76.5h254q2 -20 2.5 -58t-0.5 -82
q-6 -160 -53.5 -334.5t-138.5 -363.5q-50 -106 -119 -220t-146 -220t-154 -187q-59 -61 -147 -104t-208 -43zM371 1243l-107 70l341 350h175l198 -350l-122 -67l-191 220z" />
    <glyph glyph-name="Ydieresis" unicode="&#x178;" horiz-adv-x="1099" 
d="M339 0l78 576l-335 918h288l187 -589l28 -105l47 105l336 589h301l-583 -918l-78 -576h-269zM473 1645q-51 0 -90.5 42.5t-39.5 94.5q0 75 46.5 123.5t114.5 48.5q59 0 98.5 -40.5t39.5 -94.5q0 -74 -43.5 -124t-125.5 -50zM917 1645q-51 0 -90 42t-39 95q0 74 46 123
t114 49q60 0 99.5 -40.5t39.5 -94.5q0 -73 -44 -123.5t-126 -50.5z" />
    <glyph glyph-name="Zacute" unicode="&#x179;" horiz-adv-x="1130" 
d="M-2 0l-26 86l759 1087l109 109l-621 -12l34 224h917l24 -84l-743 -1087l-101 -105l666 11l-37 -229h-981zM716 1635l-102 83l315 416l177 -154q-13 -24 -47 -63.5t-80.5 -84t-96 -85.5t-93.5 -71.5t-73 -40.5z" />
    <glyph glyph-name="zacute" unicode="&#x17a;" horiz-adv-x="952" 
d="M9 0l-46 50l554 756l101 97h-470l29 211h757l40 -48l-556 -769l-90 -85h512l-21 -212h-810zM547 1279l-95 83l313 416l172 -154q-13 -24 -47.5 -63.5t-81 -84t-95.5 -85.5t-93 -71.5t-73 -40.5z" />
    <glyph glyph-name="Zdotaccent" unicode="&#x17b;" horiz-adv-x="1130" 
d="M-2 0l-26 86l759 1087l109 109l-621 -12l34 224h917l24 -84l-743 -1087l-101 -105l666 11l-37 -229h-981zM745 1635q-55 0 -98.5 40.5t-43.5 96.5q0 71 52 122t125 51q63 0 105 -39t42 -95q0 -73 -51 -124.5t-131 -51.5z" />
    <glyph glyph-name="zdotaccent" unicode="&#x17c;" horiz-adv-x="952" 
d="M9 0l-46 50l554 756l101 97h-470l29 211h757l40 -48l-556 -769l-90 -85h512l-21 -212h-810zM598 1282q-55 0 -98.5 41t-43.5 97q0 70 52 122t125 52q63 0 105.5 -39t42.5 -96q0 -74 -51.5 -125.5t-131.5 -51.5z" />
    <glyph glyph-name="Zcaron" unicode="&#x17d;" horiz-adv-x="1130" 
d="M-2 0l-26 86l759 1087l109 109l-621 -12l34 224h917l24 -84l-743 -1087l-101 -105l666 11l-37 -229h-981zM658 1635l-221 334l105 77l226 -211l286 211l114 -76l-336 -335h-174z" />
    <glyph glyph-name="zcaron" unicode="&#x17e;" horiz-adv-x="952" 
d="M9 0l-46 50l554 756l101 97h-470l29 211h757l40 -48l-556 -769l-90 -85h512l-21 -212h-810zM515 1272l-235 328l102 87l240 -224l288 224l96 -85l-317 -330h-174z" />
    <glyph glyph-name="uni018F" unicode="&#x18f;" horiz-adv-x="1334" 
d="M589 -16q-118 0 -210.5 44.5t-157.5 125.5t-99 192t-36 243q0 55 8.5 110.5t17.5 98.5h957l-31 -200h-690q-4 -81 9 -154.5t46 -130.5t87 -89.5t130 -32.5q89 0 162 52t124.5 146t79 220.5t25.5 275.5q-2 147 -37.5 236.5t-107.5 130t-184 40.5q-120 0 -222.5 -34
t-162.5 -72l-1 246q69 27 138.5 44.5t138.5 25.5t138 8q152 0 262.5 -47t181 -131t104.5 -194t34 -237q0 -185 -46.5 -350.5t-136.5 -293t-221 -200.5t-300 -73z" />
    <glyph glyph-name="florin" unicode="&#x192;" horiz-adv-x="1045" 
d="M191 -347l174 1278h-181l18 143l187 41l15 94q21 134 82 229t154 145.5t210 50.5q48 0 92.5 -5.5t70.5 -15.5l-37 -200q-19 13 -49 26t-77 13q-70 0 -113 -41t-59 -148l-22 -148h222l-19 -184h-226l-171 -1278h-271z" />
    <glyph glyph-name="Ohorn" unicode="&#x1a0;" horiz-adv-x="1355" 
d="M935 1295l33 165q97 0 154 20.5t86 55t39.5 76t15.5 82.5q2 13 4 26.5t1 19.5h198v-22.5t-1 -21.5q-11 -139 -82 -228t-187 -131t-261 -42zM602 -16q-167 0 -281 80.5t-172.5 218t-58.5 307.5q0 185 49.5 351t143 294t226 201.5t297.5 73.5q125 0 220 -47t158.5 -131
t95.5 -194t32 -237q0 -185 -48.5 -350.5t-140.5 -293t-223.5 -200.5t-297.5 -73zM630 191q98 0 173.5 63t126 166.5t76 226.5t24.5 241q-2 145 -32 236t-87 134t-140 43q-96 0 -170.5 -64t-125.5 -167.5t-77 -225t-25 -237.5q3 -216 71 -316t186 -100z" />
    <glyph glyph-name="ohorn" unicode="&#x1a1;" horiz-adv-x="1132" 
d="M469 -16q-132 0 -219.5 58.5t-131 164.5t-43.5 246q0 179 72 335q71 154 205.5 247t313.5 93q132 0 218 -57.5t128.5 -162t42.5 -247.5q0 -178 -70 -334q-71 -155 -204 -249t-312 -94zM508 163q71 0 122 47t83.5 123t47.5 166t15 176q0 84 -14 146t-47.5 96.5t-89.5 34.5
q-72 0 -124 -49.5t-85 -127.5t-49 -168.5t-16 -172.5q0 -133 39 -202t118 -69zM755 933l23 165q94 0 154 18t94 48.5t49 68.5t19 78q1 11 3.5 19.5t0.5 14.5h197q1 -12 2 -22.5t0 -21.5q-9 -132 -83.5 -213t-194 -118t-264.5 -37z" />
    <glyph glyph-name="Uhorn" unicode="&#x1af;" horiz-adv-x="1371" 
d="M598 -16q-234 0 -352.5 116t-119.5 325q0 28 3.5 65t10.5 92l121 912h275l-118 -874q-5 -47 -9.5 -91.5t-4.5 -88.5q0 -126 58 -183.5t177 -57.5q98 0 163.5 51t104.5 146t58 228l116 870h271l-120 -897q-15 -111 -41.5 -200t-65.5 -156q-77 -135 -207 -196t-320 -61z
M1065 1327l23 165q94 0 154 18t94 48.5t49 68.5t19 78q1 11 3.5 19.5t0.5 14.5h197q1 -12 2 -22.5t0 -21.5q-9 -132 -83.5 -213t-194 -118t-264.5 -37z" />
    <glyph glyph-name="uhorn" unicode="&#x1b0;" horiz-adv-x="1203" 
d="M371 -20q-126 0 -196 64.5t-70 205.5q0 41 7.5 113.5t20.5 172.5q12 88 26 187t28 199t26 192h273q-5 -34 -12.5 -89l-16.5 -121t-18 -134.5t-17 -130t-14 -106.5q-11 -85 -16.5 -143t-5.5 -89q0 -59 25 -85t73 -26q43 0 91 29t95 78t86 109l96 708h273l-150 -1114h-247
l13 200q-67 -95 -163.5 -157.5t-206.5 -62.5zM870 946l23 165q94 0 154 18t94 48.5t49 68.5t19 78q1 11 3.5 19.5t0.5 14.5h197q1 -12 2 -22.5t0 -21.5q-9 -132 -83.5 -213t-194 -118t-264.5 -37z" />
    <glyph glyph-name="uni01B7" unicode="&#x1b7;" horiz-adv-x="1047" 
d="M255 -14q-45 0 -103 5.5t-111 10.5l24 207q28 -4 65 -7.5t72.5 -5.5t60.5 -2q141 0 244.5 40t160 108t56.5 150q0 79 -42.5 125.5t-108 66t-137.5 17.5l-107 -46l26 212l294 278l166 137l-635 -2l30 214l876 2l-39 -276l-425 -384q146 -10 226.5 -59.5t112.5 -120
t32 -143.5q0 -124 -56 -222.5t-157 -166t-235 -103t-290 -35.5z" />
    <glyph glyph-name="uni01C4" unicode="&#x1c4;" horiz-adv-x="2499" 
d="M536 -16q-58 1 -116 5t-111.5 7.5t-100.5 3.5h-120l202 1494h126q12 0 45.5 1.5t77.5 4t89 5t81.5 4t52.5 1.5q294 0 430 -162.5t136 -453.5q0 -193 -54.5 -359t-158 -290.5t-249.5 -193.5t-330 -67zM579 187q154 3 260 101q105 98 156 257.5t51 346.5q0 158 -36 250
q-36 90 -111 128t-201 38q-36 0 -84.5 -4.5t-77.5 -11.5l-145 -1080q36 -13 86 -19t102 -6zM1367 0l-26 86l759 1087l109 109l-621 -12l34 224h917l24 -84l-743 -1087l-101 -105l666 11l-37 -229h-981zM2027 1635l-221 334l105 77l226 -211l286 211l114 -76l-336 -335h-174z
" />
    <glyph glyph-name="uni01C5" unicode="&#x1c5;" horiz-adv-x="2320" 
d="M536 -16q-58 1 -116 5t-111.5 7.5t-100.5 3.5h-120l202 1494h126q12 0 45.5 1.5t77.5 4t89 5t81.5 4t52.5 1.5q294 0 430 -162.5t136 -453.5q0 -193 -54.5 -359t-158 -290.5t-249.5 -193.5t-330 -67zM579 187q154 3 260 101q105 98 156 257.5t51 346.5q0 158 -36 250
q-36 90 -111 128t-201 38q-36 0 -84.5 -4.5t-77.5 -11.5l-145 -1080q36 -13 86 -19t102 -6zM1378 0l-46 50l554 756l101 97h-470l29 211h757l40 -48l-556 -769l-90 -85h512l-21 -212h-810zM1883 1272l-235 328l102 87l240 -224l288 224l96 -85l-317 -330h-174z" />
    <glyph glyph-name="uni01C6" unicode="&#x1c6;" horiz-adv-x="2143" 
d="M389 -16q-162 0 -239 114t-77 306q0 177 75 345q49 111 132 196.5t197.5 134t255.5 48.5q25 0 52.5 -2t55.5 -7l65 479h267l-210 -1598h-245l16 232q-37 -68 -89 -124t-116.5 -90t-139.5 -34zM469 180q42 0 84 31.5t81 81.5t70 104t52 100l60 442q-48 17 -110 17
q-112 0 -190 -80q-79 -81 -119 -203t-40 -247q0 -73 11 -128.5t35.5 -86.5t65.5 -31zM1201 0l-46 50l554 756l101 97h-470l29 211h757l40 -48l-556 -769l-90 -85h512l-21 -212h-810zM1707 1272l-235 328l102 87l240 -224l288 224l96 -85l-317 -330h-174z" />
    <glyph glyph-name="uni01C7" unicode="&#x1c7;" horiz-adv-x="1646" 
d="M88 0l202 1494h274l-173 -1275l520 8l-33 -227h-790zM887 -329l-39 101q42 11 88.5 45.5t88 80.5t70.5 95t37 91q25 114 45.5 244t39.5 271.5t36.5 291t35.5 301.5t38 302h274l-143 -1074q-19 -145 -34 -231.5t-24 -114.5q-38 -137 -110.5 -222t-174.5 -128.5t-228 -52.5
z" />
    <glyph glyph-name="uni01C8" unicode="&#x1c8;" horiz-adv-x="1608" 
d="M88 0l202 1494h274l-173 -1275l520 8l-33 -227h-790zM906 -509q-49 0 -89 8.5t-65 26.5l62 147q8 -5 24.5 -9.5t27.5 -4.5q57 0 97.5 35.5t68.5 94.5t45.5 131t27.5 146l143 1048h275l-152 -1112q-19 -145 -81 -261t-159 -183t-225 -67zM1413 1283q-55 0 -97.5 40.5
t-42.5 96.5q0 70 51 121.5t124 51.5q63 0 105.5 -39t42.5 -95q0 -74 -52 -125t-131 -51z" />
    <glyph glyph-name="uni01C9" unicode="&#x1c9;" horiz-adv-x="1222" 
d="M101 2l216 1596h274l-216 -1596h-274zM519 -509q-49 0 -89 8.5t-65 26.5l62 147q8 -5 24.5 -9.5t27.5 -4.5q57 0 97.5 35.5t68.5 94.5t45.5 131t27.5 146l143 1048h275l-152 -1112q-19 -145 -81 -261t-159 -183t-225 -67zM1026 1283q-55 0 -97.5 40.5t-42.5 96.5
q0 70 51 121.5t124 51.5q63 0 105.5 -39t42.5 -95q0 -74 -52 -125t-131 -51z" />
    <glyph glyph-name="uni01CA" unicode="&#x1ca;" horiz-adv-x="2046" 
d="M88 0l202 1494h253l386 -898l70 -230l16 249l106 879h263l-202 -1494h-242l-389 926l-75 248l-12 -279l-117 -895h-259zM1287 -329l-39 101q42 11 88.5 45.5t88 80.5t70.5 95t37 91q25 114 45.5 244t39.5 271.5t36.5 291t35.5 301.5t38 302h274l-143 -1074
q-19 -145 -34 -231.5t-24 -114.5q-38 -137 -110.5 -222t-174.5 -128.5t-228 -52.5z" />
    <glyph glyph-name="uni01CB" unicode="&#x1cb;" horiz-adv-x="2028" 
d="M88 0l202 1494h253l386 -898l70 -230l16 249l106 879h263l-202 -1494h-242l-389 926l-75 248l-12 -279l-117 -895h-259zM1326 -509q-49 0 -89 8.5t-65 26.5l62 147q8 -5 24.5 -9.5t27.5 -4.5q57 0 97.5 35.5t68.5 94.5t45.5 131t27.5 146l143 1048h275l-152 -1112
q-19 -145 -81 -261t-159 -183t-225 -67zM1833 1283q-55 0 -97.5 40.5t-42.5 96.5q0 70 51 121.5t124 51.5q63 0 105.5 -39t42.5 -95q0 -74 -52 -125t-131 -51z" />
    <glyph glyph-name="uni01CC" unicode="&#x1cc;" horiz-adv-x="1840" 
d="M77 0l152 1114h261l-17 -210q78 103 181 163.5t214 60.5q122 0 184 -67t62 -221q0 -23 -5.5 -74t-15 -120t-19.5 -145q-3 -23 -9 -64t-13.5 -94.5t-16 -113t-17.5 -118t-17 -111.5h-274q9 60 19.5 136.5t23.5 167.5l28 196q15 114 23.5 188t8.5 114q1 60 -20.5 82.5
t-69.5 22.5q-33 0 -73.5 -18.5t-81.5 -50t-77 -70t-62 -78.5l-96 -690h-273zM1137 -509q-49 0 -89 8.5t-65 26.5l62 147q8 -5 24.5 -9.5t27.5 -4.5q57 0 97.5 35.5t68.5 94.5t45.5 131t27.5 146l143 1048h275l-152 -1112q-19 -145 -81 -261t-159 -183t-225 -67zM1644 1283
q-55 0 -97.5 40.5t-42.5 96.5q0 70 51 121.5t124 51.5q63 0 105.5 -39t42.5 -95q0 -74 -52 -125t-131 -51z" />
    <glyph glyph-name="uni01CD" unicode="&#x1cd;" horiz-adv-x="1277" 
d="M-99 0l726 1494h333l249 -1494h-275l-46 330h-544l-145 -330h-298zM426 524h435l-92 666l-9 114l-44 -114zM713 1635l-221 334l105 77l226 -211l286 211l114 -76l-336 -335h-174z" />
    <glyph glyph-name="uni01CE" unicode="&#x1ce;" horiz-adv-x="1175" 
d="M390 -16q-162 0 -239 114t-77 306q0 150 46.5 281.5t133 231t207 155.5t268.5 56q54 0 118 -11.5t115 -26.5l147 38l-155 -1128h-244l13 215q-55 -97 -140 -164t-193 -67zM470 177q43 0 83.5 30t77 77t67 101t52.5 103l64 453q-49 15 -111 15q-113 0 -190 -80
q-78 -81 -116.5 -202.5t-38.5 -247.5q0 -69 10.5 -125.5t34.5 -90t67 -33.5zM659 1272l-235 328l102 87l240 -224l288 224l96 -85l-317 -330h-174z" />
    <glyph glyph-name="uni01CF" unicode="&#x1cf;" horiz-adv-x="631" 
d="M109 0l202 1494h274l-202 -1494h-274zM378 1634l-221 334l105 77l226 -211l286 211l114 -76l-336 -335h-174z" />
    <glyph glyph-name="uni01D0" unicode="&#x1d0;" horiz-adv-x="611" 
d="M99 0l151 1114h275l-153 -1114h-273zM317 1272l-235 328l102 87l240 -224l288 224l96 -85l-317 -330h-174z" />
    <glyph glyph-name="uni01D1" unicode="&#x1d1;" horiz-adv-x="1353" 
d="M602 -16q-167 0 -281 80.5t-172.5 218t-58.5 307.5q0 185 49.5 351t143 294t226 201.5t297.5 73.5q125 0 220 -47t158.5 -131t95.5 -194t32 -237q0 -185 -48.5 -350.5t-140.5 -293t-223.5 -200.5t-297.5 -73zM630 191q98 0 173.5 63t126 166.5t76 226.5t24.5 241
q-2 145 -32 236t-87 134t-140 43q-96 0 -170.5 -64t-125.5 -167.5t-77 -225t-25 -237.5q3 -216 71 -316t186 -100zM744 1635l-221 334l105 77l226 -211l286 211l114 -76l-336 -335h-174z" />
    <glyph glyph-name="uni01D2" unicode="&#x1d2;" horiz-adv-x="1132" 
d="M469 -16q-132 0 -219.5 58.5t-131 164.5t-43.5 246q0 179 72 335q71 154 205.5 247t313.5 93q132 0 218 -57.5t128.5 -162t42.5 -247.5q0 -178 -70 -334q-71 -155 -204 -249t-312 -94zM508 163q71 0 122 47t83.5 123t47.5 166t15 176q0 84 -14 146t-47.5 96.5t-89.5 34.5
q-72 0 -124 -49.5t-85 -127.5t-49 -168.5t-16 -172.5q0 -133 39 -202t118 -69zM590 1272l-235 328l102 87l240 -224l288 224l96 -85l-317 -330h-174z" />
    <glyph glyph-name="uni01D3" unicode="&#x1d3;" horiz-adv-x="1371" 
d="M598 -16q-234 0 -352.5 116t-119.5 325q0 28 3.5 65t10.5 92l121 912h275l-118 -874q-5 -47 -9.5 -91.5t-4.5 -88.5q0 -126 58 -183.5t177 -57.5q98 0 163.5 51t104.5 146t58 228l116 870h271l-120 -897q-15 -111 -41.5 -200t-65.5 -156q-77 -135 -207 -196t-320 -61z
M735 1635l-221 334l105 77l226 -211l286 211l114 -76l-336 -335h-174z" />
    <glyph glyph-name="uni01D4" unicode="&#x1d4;" horiz-adv-x="1203" 
d="M371 -20q-126 0 -196 64.5t-70 205.5q0 41 7.5 113.5t20.5 172.5q12 88 26 187t28 199t26 192h273q-5 -34 -12.5 -89l-16.5 -121t-18 -134.5t-17 -130t-14 -106.5q-11 -85 -16.5 -143t-5.5 -89q0 -59 25 -85t73 -26q43 0 91 29t95 78t86 109l96 708h273l-150 -1114h-247
l13 200q-67 -95 -163.5 -157.5t-206.5 -62.5zM612 1272l-235 328l102 87l240 -224l288 224l96 -85l-317 -330h-174z" />
    <glyph glyph-name="uni01D5" unicode="&#x1d5;" horiz-adv-x="1371" 
d="M598 -16q-234 0 -352.5 116t-119.5 325q0 28 3.5 65t10.5 92l121 912h275l-118 -874q-5 -47 -9.5 -91.5t-4.5 -88.5q0 -126 58 -183.5t177 -57.5q98 0 163.5 51t104.5 146t58 228l116 870h271l-120 -897q-15 -111 -41.5 -200t-65.5 -156q-77 -135 -207 -196t-320 -61z
M603 1645q-51 0 -90.5 42.5t-39.5 94.5q0 75 46.5 123.5t114.5 48.5q59 0 98.5 -40.5t39.5 -94.5q0 -74 -43.5 -124t-125.5 -50zM1047 1645q-51 0 -90 42t-39 95q0 74 46 123t114 49q60 0 99.5 -40.5t39.5 -94.5q0 -73 -44 -123.5t-126 -50.5zM622 2091l11 180h541l-13 -180
h-539z" />
    <glyph glyph-name="uni01D6" unicode="&#x1d6;" horiz-adv-x="1203" 
d="M371 -20q-126 0 -196 64.5t-70 205.5q0 41 7.5 113.5t20.5 172.5q12 88 26 187t28 199t26 192h273q-5 -34 -12.5 -89l-16.5 -121t-18 -134.5t-17 -130t-14 -106.5q-11 -85 -16.5 -143t-5.5 -89q0 -59 25 -85t73 -26q43 0 91 29t95 78t86 109l96 708h273l-150 -1114h-247
l13 200q-67 -95 -163.5 -157.5t-206.5 -62.5zM474 1307q-47 0 -84 39.5t-37 88.5q0 69 43.5 114t106.5 45q56 0 92 -37t36 -88q0 -69 -40.5 -115.5t-116.5 -46.5zM918 1307q-47 0 -83.5 39.5t-36.5 88.5q0 69 43 114t107 45q55 0 91.5 -37t36.5 -88q0 -68 -41 -115t-117 -47
zM489 1690l20 180h541l-21 -180h-540z" />
    <glyph glyph-name="uni01D7" unicode="&#x1d7;" horiz-adv-x="1371" 
d="M598 -16q-234 0 -352.5 116t-119.5 325q0 28 3.5 65t10.5 92l121 912h275l-118 -874q-5 -47 -9.5 -91.5t-4.5 -88.5q0 -126 58 -183.5t177 -57.5q98 0 163.5 51t104.5 146t58 228l116 870h271l-120 -897q-15 -111 -41.5 -200t-65.5 -156q-77 -135 -207 -196t-320 -61z
M603 1645q-51 0 -90.5 42.5t-39.5 94.5q0 75 46.5 123.5t114.5 48.5q59 0 98.5 -40.5t39.5 -94.5q0 -74 -43.5 -124t-125.5 -50zM1047 1645q-51 0 -90 42t-39 95q0 74 46 123t114 49q60 0 99.5 -40.5t39.5 -94.5q0 -73 -44 -123.5t-126 -50.5zM851 2076l-102 83l315 416
l177 -154q-13 -24 -47 -63.5t-80.5 -84t-96 -85.5t-93.5 -71.5t-73 -40.5z" />
    <glyph glyph-name="uni01D8" unicode="&#x1d8;" horiz-adv-x="1203" 
d="M371 -20q-126 0 -196 64.5t-70 205.5q0 41 7.5 113.5t20.5 172.5q12 88 26 187t28 199t26 192h273q-5 -34 -12.5 -89l-16.5 -121t-18 -134.5t-17 -130t-14 -106.5q-11 -85 -16.5 -143t-5.5 -89q0 -59 25 -85t73 -26q43 0 91 29t95 78t86 109l96 708h273l-150 -1114h-247
l13 200q-67 -95 -163.5 -157.5t-206.5 -62.5zM474 1307q-47 0 -84 39.5t-37 88.5q0 69 43.5 114t106.5 45q56 0 92 -37t36 -88q0 -69 -40.5 -115.5t-116.5 -46.5zM918 1307q-47 0 -83.5 39.5t-36.5 88.5q0 69 43 114t107 45q55 0 91.5 -37t36.5 -88q0 -68 -41 -115t-117 -47
zM698 1663l-95 83l313 416l172 -154q-13 -24 -47.5 -63.5t-81 -84t-95.5 -85.5t-93 -71.5t-73 -40.5z" />
    <glyph glyph-name="uni01D9" unicode="&#x1d9;" horiz-adv-x="1371" 
d="M598 -16q-234 0 -352.5 116t-119.5 325q0 28 3.5 65t10.5 92l121 912h275l-118 -874q-5 -47 -9.5 -91.5t-4.5 -88.5q0 -126 58 -183.5t177 -57.5q98 0 163.5 51t104.5 146t58 228l116 870h271l-120 -897q-15 -111 -41.5 -200t-65.5 -156q-77 -135 -207 -196t-320 -61z
M603 1645q-51 0 -90.5 42.5t-39.5 94.5q0 75 46.5 123.5t114.5 48.5q59 0 98.5 -40.5t39.5 -94.5q0 -74 -43.5 -124t-125.5 -50zM1047 1645q-51 0 -90 42t-39 95q0 74 46 123t114 49q60 0 99.5 -40.5t39.5 -94.5q0 -73 -44 -123.5t-126 -50.5zM793 2076l-221 334l105 77
l226 -211l286 211l114 -76l-336 -335h-174z" />
    <glyph glyph-name="uni01DA" unicode="&#x1da;" horiz-adv-x="1203" 
d="M371 -20q-126 0 -196 64.5t-70 205.5q0 41 7.5 113.5t20.5 172.5q12 88 26 187t28 199t26 192h273q-5 -34 -12.5 -89l-16.5 -121t-18 -134.5t-17 -130t-14 -106.5q-11 -85 -16.5 -143t-5.5 -89q0 -59 25 -85t73 -26q43 0 91 29t95 78t86 109l96 708h273l-150 -1114h-247
l13 200q-67 -95 -163.5 -157.5t-206.5 -62.5zM474 1307q-47 0 -84 39.5t-37 88.5q0 69 43.5 114t106.5 45q56 0 92 -37t36 -88q0 -69 -40.5 -115.5t-116.5 -46.5zM918 1307q-47 0 -83.5 39.5t-36.5 88.5q0 69 43 114t107 45q55 0 91.5 -37t36.5 -88q0 -68 -41 -115t-117 -47
zM666 1656l-235 328l102 87l240 -224l288 224l96 -85l-317 -330h-174z" />
    <glyph glyph-name="uni01DB" unicode="&#x1db;" horiz-adv-x="1371" 
d="M598 -16q-234 0 -352.5 116t-119.5 325q0 28 3.5 65t10.5 92l121 912h275l-118 -874q-5 -47 -9.5 -91.5t-4.5 -88.5q0 -126 58 -183.5t177 -57.5q98 0 163.5 51t104.5 146t58 228l116 870h271l-120 -897q-15 -111 -41.5 -200t-65.5 -156q-77 -135 -207 -196t-320 -61z
M603 1645q-51 0 -90.5 42.5t-39.5 94.5q0 75 46.5 123.5t114.5 48.5q59 0 98.5 -40.5t39.5 -94.5q0 -74 -43.5 -124t-125.5 -50zM1047 1645q-51 0 -90 42t-39 95q0 74 46 123t114 49q60 0 99.5 -40.5t39.5 -94.5q0 -73 -44 -123.5t-126 -50.5zM975 2076q-37 14 -94 55.5
t-117 94.5t-107 103t-63 80l179 166l305 -416z" />
    <glyph glyph-name="uni01DC" unicode="&#x1dc;" horiz-adv-x="1203" 
d="M371 -20q-126 0 -196 64.5t-70 205.5q0 41 7.5 113.5t20.5 172.5q12 88 26 187t28 199t26 192h273q-5 -34 -12.5 -89l-16.5 -121t-18 -134.5t-17 -130t-14 -106.5q-11 -85 -16.5 -143t-5.5 -89q0 -59 25 -85t73 -26q43 0 91 29t95 78t86 109l96 708h273l-150 -1114h-247
l13 200q-67 -95 -163.5 -157.5t-206.5 -62.5zM474 1307q-47 0 -84 39.5t-37 88.5q0 69 43.5 114t106.5 45q56 0 92 -37t36 -88q0 -69 -40.5 -115.5t-116.5 -46.5zM918 1307q-47 0 -83.5 39.5t-36.5 88.5q0 69 43 114t107 45q55 0 91.5 -37t36.5 -88q0 -68 -41 -115t-117 -47
zM831 1663q-36 14 -93.5 55t-117 94.5t-106.5 103t-64 80.5l173 166l306 -416z" />
    <glyph glyph-name="Gcaron" unicode="&#x1e6;" horiz-adv-x="1353" 
d="M630 -16q-187 0 -309 89q-121 88 -176 228.5t-57 300.5q-1 264 98 473q100 206 274 320.5t386 114.5q62 0 110.5 -3.5t93.5 -12t97 -23.5t121 -38l-66 -248q-30 22 -89.5 46t-132 40.5t-140.5 16.5q-165 0 -271 -100q-107 -100 -155.5 -251t-48.5 -309q0 -128 33 -226
t101 -153.5t173 -55.5q58 0 129 12.5t125 38.5l44 312h-235l27 219h493l-93 -691q-25 -3 -54.5 -10t-75.5 -20q-103 -30 -199.5 -50t-202.5 -20zM732 1635l-221 334l105 77l226 -211l286 211l114 -76l-336 -335h-174z" />
    <glyph glyph-name="gcaron" unicode="&#x1e7;" horiz-adv-x="1188" 
d="M382 -499q-44 0 -97.5 6t-99 15t-66.5 19l49 207q26 -15 70.5 -31.5t97 -28t99.5 -11.5q108 0 162.5 58t74.5 171l56 313q-57 -97 -143 -166t-196 -69q-162 0 -239 114t-77 306q0 177 75 345q49 111 132 196.5t197.5 134t255.5 48.5q55 0 118.5 -11.5t113.5 -26.5l151 38
l-163 -1185q-11 -82 -39 -147t-70 -115q-84 -97 -205 -138.5t-257 -41.5zM469 180q41 0 82 29t78.5 76t69 100.5t53.5 102.5l63 454q-24 7 -51 10.5t-58 3.5q-112 0 -190 -80q-79 -81 -119 -203t-40 -247q0 -73 11 -128.5t35.5 -86.5t65.5 -31zM667 1272l-235 328l102 87
l240 -224l288 224l96 -85l-317 -330h-174z" />
    <glyph glyph-name="uni01EA" unicode="&#x1ea;" horiz-adv-x="1353" 
d="M602 -16q-167 0 -281 80.5t-172.5 218t-58.5 307.5q0 185 49.5 351t143 294t226 201.5t297.5 73.5q125 0 220 -47t158.5 -131t95.5 -194t32 -237q0 -185 -48.5 -350.5t-140.5 -293t-223.5 -200.5t-297.5 -73zM630 191q98 0 173.5 63t126 166.5t76 226.5t24.5 241
q-2 145 -32 236t-87 134t-140 43q-96 0 -170.5 -64t-125.5 -167.5t-77 -225t-25 -237.5q3 -216 71 -316t186 -100zM465 -468q-83 0 -136 46.5t-53 114.5q0 51 24 95.5t65.5 83.5t94.5 72t111 59l85 39l81 -42q-117 -73 -175.5 -131.5t-58.5 -105.5q0 -38 18.5 -53t45.5 -15
q40 0 73 16.5t75 47.5l51 -104q-37 -35 -79.5 -62.5t-96 -44t-125.5 -16.5z" />
    <glyph glyph-name="uni01EB" unicode="&#x1eb;" horiz-adv-x="1132" 
d="M469 -16q-132 0 -219.5 58.5t-131 164.5t-43.5 246q0 179 72 335q71 154 205.5 247t313.5 93q132 0 218 -57.5t128.5 -162t42.5 -247.5q0 -178 -70 -334q-71 -155 -204 -249t-312 -94zM508 163q71 0 122 47t83.5 123t47.5 166t15 176q0 84 -14 146t-47.5 96.5t-89.5 34.5
q-72 0 -124 -49.5t-85 -127.5t-49 -168.5t-16 -172.5q0 -133 39 -202t118 -69zM352 -448q-83 0 -136.5 46.5t-53.5 114.5q0 59 35.5 111t92.5 96t119 80l96 55l88 -55q-92 -64 -147.5 -118.5t-55.5 -98.5q0 -38 18.5 -53t45.5 -15q35 0 70 16.5t77 47.5l51 -104
q-55 -52 -133 -87.5t-167 -35.5z" />
    <glyph glyph-name="uni01EE" unicode="&#x1ee;" horiz-adv-x="1047" 
d="M255 -14q-45 0 -103 5.5t-111 10.5l24 207q28 -4 65 -7.5t72.5 -5.5t60.5 -2q141 0 244.5 40t160 108t56.5 150q0 79 -42.5 125.5t-108 66t-137.5 17.5l-107 -46l26 212l294 278l166 137l-635 -2l30 214l876 2l-39 -276l-425 -384q146 -10 226.5 -59.5t112.5 -120
t32 -143.5q0 -124 -56 -222.5t-157 -166t-235 -103t-290 -35.5zM582 1634l-221 334l105 77l226 -211l286 211l114 -76l-336 -335h-174z" />
    <glyph glyph-name="uni01EF" unicode="&#x1ef;" horiz-adv-x="936" 
d="M193 -297q-49 2 -96 5.5t-95 5.5l29 202q39 -10 75.5 -14t78.5 -4q138 0 225.5 33.5t129 96.5t41.5 151q1 92 -67.5 128t-178.5 36l-113 108l259 343l113 110h-477l31 210h759l38 -55l-436 -563q94 1 159.5 -26.5t107 -73t60.5 -100.5t18 -108q-3 -153 -81 -264
t-225 -169t-355 -52zM488 1272l-235 328l102 87l240 -224l288 224l96 -85l-317 -330h-174z" />
    <glyph glyph-name="uni01F1" unicode="&#x1f1;" horiz-adv-x="2499" 
d="M536 -16q-58 1 -116 5t-111.5 7.5t-100.5 3.5h-120l202 1494h126q12 0 45.5 1.5t77.5 4t89 5t81.5 4t52.5 1.5q294 0 430 -162.5t136 -453.5q0 -193 -54.5 -359t-158 -290.5t-249.5 -193.5t-330 -67zM579 187q154 3 260 101q105 98 156 257.5t51 346.5q0 158 -36 250
q-36 90 -111 128t-201 38q-36 0 -84.5 -4.5t-77.5 -11.5l-145 -1080q36 -13 86 -19t102 -6zM1367 0l-26 86l759 1087l109 109l-621 -12l34 224h917l24 -84l-743 -1087l-101 -105l666 11l-37 -229h-981z" />
    <glyph glyph-name="uni01F2" unicode="&#x1f2;" horiz-adv-x="2320" 
d="M536 -16q-58 1 -116 5t-111.5 7.5t-100.5 3.5h-120l202 1494h126q12 0 45.5 1.5t77.5 4t89 5t81.5 4t52.5 1.5q294 0 430 -162.5t136 -453.5q0 -193 -54.5 -359t-158 -290.5t-249.5 -193.5t-330 -67zM579 187q154 3 260 101q105 98 156 257.5t51 346.5q0 158 -36 250
q-36 90 -111 128t-201 38q-36 0 -84.5 -4.5t-77.5 -11.5l-145 -1080q36 -13 86 -19t102 -6zM1378 0l-46 50l554 756l101 97h-470l29 211h757l40 -48l-556 -769l-90 -85h512l-21 -212h-810z" />
    <glyph glyph-name="uni01F3" unicode="&#x1f3;" horiz-adv-x="2143" 
d="M389 -16q-162 0 -239 114t-77 306q0 177 75 345q49 111 132 196.5t197.5 134t255.5 48.5q25 0 52.5 -2t55.5 -7l65 479h267l-210 -1598h-245l16 232q-37 -68 -89 -124t-116.5 -90t-139.5 -34zM469 180q42 0 84 31.5t81 81.5t70 104t52 100l60 442q-48 17 -110 17
q-112 0 -190 -80q-79 -81 -119 -203t-40 -247q0 -73 11 -128.5t35.5 -86.5t65.5 -31zM1201 0l-46 50l554 756l101 97h-470l29 211h757l40 -48l-556 -769l-90 -85h512l-21 -212h-810z" />
    <glyph glyph-name="Aringacute" unicode="&#x1fa;" horiz-adv-x="1277" 
d="M-99 0l726 1494h333l249 -1494h-275l-46 330h-544l-145 -330h-298zM426 524h435l-92 666l-9 114l-44 -114zM803 1631q-138 0 -216.5 64t-78.5 181q0 97 55 161q56 64 139 93.5t169 29.5q131 0 207.5 -63.5t76.5 -179.5q0 -95 -49 -157q-50 -65 -130.5 -97t-172.5 -32z
M817 1754q78 0 125 34.5t47 120.5q0 56 -40 93t-98 37q-72 0 -125 -36.5t-53 -117.5q0 -54 44 -92.5t100 -38.5zM835 2093l-102 83l315 416l177 -154q-13 -24 -47 -63.5t-80.5 -84t-96 -85.5t-93.5 -71.5t-73 -40.5z" />
    <glyph glyph-name="aringacute" unicode="&#x1fb;" horiz-adv-x="1175" 
d="M390 -16q-162 0 -239 114t-77 306q0 150 46.5 281.5t133 231t207 155.5t268.5 56q54 0 118 -11.5t115 -26.5l147 38l-155 -1128h-244l13 215q-55 -97 -140 -164t-193 -67zM470 177q43 0 83.5 30t77 77t67 101t52.5 103l64 453q-49 15 -111 15q-113 0 -190 -80
q-78 -81 -116.5 -202.5t-38.5 -247.5q0 -69 10.5 -125.5t34.5 -90t67 -33.5zM743 1224q-139 0 -217.5 64t-78.5 180q0 97 55 162q55 64 138.5 94t169.5 30q131 0 207.5 -64t76.5 -181q0 -94 -48 -157q-50 -65 -131 -96.5t-172 -31.5zM756 1347q78 0 125 34.5t47 120.5
q0 56 -40 93t-98 37q-72 0 -125 -37t-53 -117q0 -54 44 -92.5t100 -38.5zM879 1639l-95 83l313 416l172 -154q-13 -24 -47.5 -63.5t-81 -84t-95.5 -85.5t-93 -71.5t-73 -40.5z" />
    <glyph glyph-name="AEacute" unicode="&#x1fc;" horiz-adv-x="1836" 
d="M-122 0l748 1334l-259 26l22 134h1416l-23 -214l-557 5l-56 -418l418 6l-25 -218l-420 12l-62 -458l649 12l-25 -221h-926l46 345h-464l-181 -345h-301zM467 544h384l101 750l-83 7zM1032 1635l-102 83l315 416l177 -154q-13 -24 -47 -63.5t-80.5 -84t-96 -85.5
t-93.5 -71.5t-73 -40.5z" />
    <glyph glyph-name="aeacute" unicode="&#x1fd;" horiz-adv-x="1656" 
d="M371 -16q-154 0 -227.5 111t-73.5 309q0 153 51 284.5t142 230.5t214 154t269 55q75 0 139.5 -15t128.5 -54q126 69 276 69q103 0 170.5 -33t101 -89.5t33.5 -127.5q0 -107 -51 -188.5t-139 -140t-200 -97t-232 -58.5q-4 -67 13 -115.5t56.5 -74t100.5 -25.5
q54 0 112.5 21.5t113 57.5t94.5 79l73 -139q-29 -40 -80 -78t-114 -69t-128.5 -49t-125.5 -18q-157 0 -253 79t-131 207q-57 -121 -139.5 -203.5t-193.5 -82.5zM456 189q31 0 62.5 24.5t62.5 66.5t58 94t48 109q5 68 17.5 129.5t33.5 117.5t49.5 104.5t64.5 91.5
q-65 30 -133 30q-93 0 -162.5 -48t-116.5 -127t-70 -174t-23 -190q0 -60 9 -112t33 -84t67 -32zM972 549q61 4 124 29.5t116 67.5t85.5 94.5t32.5 111.5q0 58 -24 82.5t-74 24.5q-37 0 -73.5 -21t-63.5 -57q-55 -68 -86 -162t-37 -170zM921 1279l-95 83l313 416l172 -154
q-13 -24 -47.5 -63.5t-81 -84t-95.5 -85.5t-93 -71.5t-73 -40.5z" />
    <glyph glyph-name="Oslashacute" unicode="&#x1fe;" horiz-adv-x="1354" 
d="M186 -128l-87 46l141 216q-77 82 -116.5 200.5t-39.5 257.5q0 254 90 464t252.5 332.5t371.5 122.5q157 0 271 -75l120 194l87 -46l-131 -213q79 -82 119.5 -203.5t40.5 -265.5q0 -252 -88 -462q-88 -209 -249 -332t-374 -123q-81 0 -151 21t-130 63zM624 192
q116 0 209 99q90 99 139.5 257.5t49.5 332.5q0 167 -36 264l-534 -881q59 -72 172 -72zM399 363l531 879q-60 59 -166 59q-115 0 -207 -100q-90 -100 -140.5 -258.5t-50.5 -326.5q0 -155 33 -253zM787 1634l-102 83l315 416l177 -154q-13 -24 -47 -63.5t-80.5 -84t-96 -85.5
t-93.5 -71.5t-73 -40.5z" />
    <glyph glyph-name="oslashacute" unicode="&#x1ff;" horiz-adv-x="1132" 
d="M212 -129l-77 38l146 245l53 46l424 792l38 42l137 224l75 -38l-137 -222l-51 -52l-442 -814l-40 -44zM469 -16q-132 0 -219.5 58.5t-131 164.5t-43.5 246q0 179 72 335q71 154 205.5 247t313.5 93q132 0 218 -57.5t128.5 -162t42.5 -247.5q0 -178 -70 -334
q-71 -155 -204 -249t-312 -94zM508 163q71 0 122 47t83.5 123t47.5 166t15 176q0 84 -14 146t-47.5 96.5t-89.5 34.5q-72 0 -124 -49.5t-85 -127.5t-49 -168.5t-16 -172.5q0 -133 39 -202t118 -69zM622 1279l-95 83l313 416l172 -154q-13 -24 -47.5 -63.5t-81 -84
t-95.5 -85.5t-93 -71.5t-73 -40.5z" />
    <glyph glyph-name="uni0200" unicode="&#x200;" horiz-adv-x="1277" 
d="M-99 0l726 1494h333l249 -1494h-275l-46 330h-544l-145 -330h-298zM426 524h435l-92 666l-9 114l-44 -114zM643 1632q-35 16 -83.5 60.5t-97.5 101t-87 110.5t-52 89l166 122l252 -423zM1094 1632q-34 19 -80 63.5t-92 100t-82 109.5t-51 92l163 118l245 -423z" />
    <glyph glyph-name="uni0201" unicode="&#x201;" horiz-adv-x="1175" 
d="M390 -16q-162 0 -239 114t-77 306q0 150 46.5 281.5t133 231t207 155.5t268.5 56q54 0 118 -11.5t115 -26.5l147 38l-155 -1128h-244l13 215q-55 -97 -140 -164t-193 -67zM470 177q43 0 83.5 30t77 77t67 101t52.5 103l64 453q-49 15 -111 15q-113 0 -190 -80
q-78 -81 -116.5 -202.5t-38.5 -247.5q0 -69 10.5 -125.5t34.5 -90t67 -33.5zM543 1266q-35 17 -84.5 61.5t-99 100.5t-87 110t-49.5 90l178 129l252 -423zM994 1266q-35 19 -82 63.5t-93 101t-82 110t-48 91.5l175 125l245 -423z" />
    <glyph glyph-name="uni0202" unicode="&#x202;" horiz-adv-x="1277" 
d="M-99 0l726 1494h333l249 -1494h-275l-46 330h-544l-145 -330h-298zM426 524h435l-92 666l-9 114l-44 -114zM832 2007q110 0 181 -45t101.5 -125t16.5 -187h-160q0 94 -33 136t-117 42q-57 0 -91.5 -23t-54 -63t-31.5 -92h-156q0 105 43.5 185.5t121 126t179.5 45.5z" />
    <glyph glyph-name="uni0203" unicode="&#x203;" horiz-adv-x="1175" 
d="M390 -16q-162 0 -239 114t-77 306q0 150 46.5 281.5t133 231t207 155.5t268.5 56q54 0 118 -11.5t115 -26.5l147 38l-155 -1128h-244l13 215q-55 -97 -140 -164t-193 -67zM470 177q43 0 83.5 30t77 77t67 101t52.5 103l64 453q-49 15 -111 15q-113 0 -190 -80
q-78 -81 -116.5 -202.5t-38.5 -247.5q0 -69 10.5 -125.5t34.5 -90t67 -33.5zM758 1654q110 0 181.5 -45.5t101.5 -125.5t16 -187h-159q5 97 -30.5 137.5t-120.5 40.5q-57 0 -91.5 -23t-54 -63t-31.5 -92h-156q0 105 43.5 185.5t121 126.5t179.5 46z" />
    <glyph glyph-name="uni0204" unicode="&#x204;" horiz-adv-x="1145" 
d="M88 0l202 1494h824l-22 -214l-558 5l-55 -418l418 6l-24 -218l-422 12l-61 -458l649 12l-26 -221h-925zM583 1631q-35 16 -83.5 60.5t-97.5 101t-87 110.5t-52 89l166 122l252 -423zM1034 1631q-34 19 -80 63.5t-92 100t-82 109.5t-51 92l163 118l245 -423z" />
    <glyph glyph-name="uni0205" unicode="&#x205;" horiz-adv-x="1050" 
d="M482 -16q-139 0 -228 61q-92 62 -134.5 162.5t-41.5 219.5q0 195 81 358q79 161 217 252t309 91q100 0 167 -34t101 -91t34 -125q0 -104 -51 -185t-139 -140.5t-199.5 -99t-232.5 -59.5v-15.5v-14.5q4 -84 43.5 -134.5t129.5 -50.5q53 0 111.5 21.5t113 57.5t95.5 79
l72 -139q-29 -40 -79.5 -78.5t-113.5 -69t-129 -48.5t-126 -18zM366 549q59 3 121 28t115 67t85.5 95.5t32.5 112.5q0 58 -23.5 82.5t-72.5 24.5q-40 0 -73.5 -24t-66.5 -65q-57 -67 -84.5 -157t-33.5 -164zM501 1266q-35 17 -84.5 61.5t-99 100.5t-87 110t-49.5 90l178 129
l252 -423zM952 1266q-35 19 -82 63.5t-93 101t-82 110t-48 91.5l175 125l245 -423z" />
    <glyph glyph-name="uni0206" unicode="&#x206;" horiz-adv-x="1145" 
d="M88 0l202 1494h824l-22 -214l-558 5l-55 -418l418 6l-24 -218l-422 12l-61 -458l649 12l-26 -221h-925zM773 2006q110 0 181 -45t101.5 -125t16.5 -187h-160q0 94 -33 136t-117 42q-57 0 -91.5 -23t-54 -63t-31.5 -92h-156q0 105 43.5 185.5t121 126t179.5 45.5z" />
    <glyph glyph-name="uni0207" unicode="&#x207;" horiz-adv-x="1050" 
d="M482 -16q-139 0 -228 61q-92 62 -134.5 162.5t-41.5 219.5q0 195 81 358q79 161 217 252t309 91q100 0 167 -34t101 -91t34 -125q0 -104 -51 -185t-139 -140.5t-199.5 -99t-232.5 -59.5v-15.5v-14.5q4 -84 43.5 -134.5t129.5 -50.5q53 0 111.5 21.5t113 57.5t95.5 79
l72 -139q-29 -40 -79.5 -78.5t-113.5 -69t-129 -48.5t-126 -18zM366 549q59 3 121 28t115 67t85.5 95.5t32.5 112.5q0 58 -23.5 82.5t-72.5 24.5q-40 0 -73.5 -24t-66.5 -65q-57 -67 -84.5 -157t-33.5 -164zM716 1654q110 0 181.5 -45.5t101.5 -125.5t16 -187h-159
q5 97 -30.5 137.5t-120.5 40.5q-57 0 -91.5 -23t-54 -63t-31.5 -92h-156q0 105 43.5 185.5t121 126.5t179.5 46z" />
    <glyph glyph-name="uni0208" unicode="&#x208;" horiz-adv-x="631" 
d="M109 0l202 1494h274l-202 -1494h-274zM308 1631q-35 16 -83.5 60.5t-97.5 101t-87 110.5t-52 89l166 122l252 -423zM759 1631q-34 19 -80 63.5t-92 100t-82 109.5t-51 92l163 118l245 -423z" />
    <glyph glyph-name="uni0209" unicode="&#x209;" horiz-adv-x="611" 
d="M99 0l151 1114h275l-153 -1114h-273zM201 1266q-35 17 -84.5 61.5t-99 100.5t-87 110t-49.5 90l178 129l252 -423zM652 1266q-35 19 -82 63.5t-93 101t-82 110t-48 91.5l175 125l245 -423z" />
    <glyph glyph-name="uni020A" unicode="&#x20a;" horiz-adv-x="631" 
d="M109 0l202 1494h274l-202 -1494h-274zM498 2006q110 0 181 -45t101.5 -125t16.5 -187h-160q0 94 -33 136t-117 42q-57 0 -91.5 -23t-54 -63t-31.5 -92h-156q0 105 43.5 185.5t121 126t179.5 45.5z" />
    <glyph glyph-name="uni020B" unicode="&#x20b;" horiz-adv-x="611" 
d="M99 0l151 1114h275l-153 -1114h-273zM416 1654q110 0 181.5 -45.5t101.5 -125.5t16 -187h-159q5 97 -30.5 137.5t-120.5 40.5q-57 0 -91.5 -23t-54 -63t-31.5 -92h-156q0 105 43.5 185.5t121 126.5t179.5 46z" />
    <glyph glyph-name="uni020C" unicode="&#x20c;" horiz-adv-x="1353" 
d="M602 -16q-167 0 -281 80.5t-172.5 218t-58.5 307.5q0 185 49.5 351t143 294t226 201.5t297.5 73.5q125 0 220 -47t158.5 -131t95.5 -194t32 -237q0 -185 -48.5 -350.5t-140.5 -293t-223.5 -200.5t-297.5 -73zM630 191q98 0 173.5 63t126 166.5t76 226.5t24.5 241
q-2 145 -32 236t-87 134t-140 43q-96 0 -170.5 -64t-125.5 -167.5t-77 -225t-25 -237.5q3 -216 71 -316t186 -100zM674 1632q-35 16 -83.5 60.5t-97.5 101t-87 110.5t-52 89l166 122l252 -423zM1125 1632q-34 19 -80 63.5t-92 100t-82 109.5t-51 92l163 118l245 -423z" />
    <glyph glyph-name="uni020D" unicode="&#x20d;" horiz-adv-x="1132" 
d="M469 -16q-132 0 -219.5 58.5t-131 164.5t-43.5 246q0 179 72 335q71 154 205.5 247t313.5 93q132 0 218 -57.5t128.5 -162t42.5 -247.5q0 -178 -70 -334q-71 -155 -204 -249t-312 -94zM508 163q71 0 122 47t83.5 123t47.5 166t15 176q0 84 -14 146t-47.5 96.5t-89.5 34.5
q-72 0 -124 -49.5t-85 -127.5t-49 -168.5t-16 -172.5q0 -133 39 -202t118 -69zM474 1266q-35 17 -84.5 61.5t-99 100.5t-87 110t-49.5 90l178 129l252 -423zM925 1266q-35 19 -82 63.5t-93 101t-82 110t-48 91.5l175 125l245 -423z" />
    <glyph glyph-name="uni020E" unicode="&#x20e;" horiz-adv-x="1353" 
d="M602 -16q-167 0 -281 80.5t-172.5 218t-58.5 307.5q0 185 49.5 351t143 294t226 201.5t297.5 73.5q125 0 220 -47t158.5 -131t95.5 -194t32 -237q0 -185 -48.5 -350.5t-140.5 -293t-223.5 -200.5t-297.5 -73zM630 191q98 0 173.5 63t126 166.5t76 226.5t24.5 241
q-2 145 -32 236t-87 134t-140 43q-96 0 -170.5 -64t-125.5 -167.5t-77 -225t-25 -237.5q3 -216 71 -316t186 -100zM863 2007q110 0 181 -45t101.5 -125t16.5 -187h-160q0 94 -33 136t-117 42q-57 0 -91.5 -23t-54 -63t-31.5 -92h-156q0 105 43.5 185.5t121 126t179.5 45.5z
" />
    <glyph glyph-name="uni020F" unicode="&#x20f;" horiz-adv-x="1132" 
d="M469 -16q-132 0 -219.5 58.5t-131 164.5t-43.5 246q0 179 72 335q71 154 205.5 247t313.5 93q132 0 218 -57.5t128.5 -162t42.5 -247.5q0 -178 -70 -334q-71 -155 -204 -249t-312 -94zM508 163q71 0 122 47t83.5 123t47.5 166t15 176q0 84 -14 146t-47.5 96.5t-89.5 34.5
q-72 0 -124 -49.5t-85 -127.5t-49 -168.5t-16 -172.5q0 -133 39 -202t118 -69zM689 1654q110 0 181.5 -45.5t101.5 -125.5t16 -187h-159q5 97 -30.5 137.5t-120.5 40.5q-57 0 -91.5 -23t-54 -63t-31.5 -92h-156q0 105 43.5 185.5t121 126.5t179.5 46z" />
    <glyph glyph-name="uni0210" unicode="&#x210;" horiz-adv-x="1278" 
d="M87 0l202 1494h150q30 0 86 4t113.5 8t92.5 4q254 0 376.5 -94.5t122.5 -278.5q0 -178 -83.5 -310.5t-248.5 -183.5q26 -23 50.5 -64.5t46.5 -92.5t40 -104q31 -86 59.5 -161.5t54 -132.5t46.5 -88h-305q-11 16 -23.5 50t-26.5 77t-28 88t-27 83q-14 50 -32 101.5
t-40 95.5t-46 72t-50 29l-175 1l-81 -597h-274zM674 809q96 0 158.5 42t92 114t28.5 160q-1 100 -64 144.5t-186 44.5q-24 0 -57 -2t-62.5 -5t-46.5 -6l-67 -490q26 -1 77 -1.5t127 -0.5zM582 1631q-35 16 -83.5 60.5t-97.5 101t-87 110.5t-52 89l166 122l252 -423z
M1033 1631q-34 19 -80 63.5t-92 100t-82 109.5t-51 92l163 118l245 -423z" />
    <glyph glyph-name="uni0211" unicode="&#x211;" horiz-adv-x="829" 
d="M78 0l152 1114h263l-18 -216q25 55 70.5 108t107 87.5t135.5 34.5q50 0 64 -12l-54 -282q-10 10 -36.5 15t-58.5 5q-52 0 -98.5 -23.5t-85.5 -63.5t-72 -87l-96 -680h-273zM390 1266q-35 17 -84.5 61.5t-99 100.5t-87 110t-49.5 90l178 129l252 -423zM841 1266
q-35 19 -82 63.5t-93 101t-82 110t-48 91.5l175 125l245 -423z" />
    <glyph glyph-name="uni0212" unicode="&#x212;" horiz-adv-x="1278" 
d="M87 0l202 1494h150q30 0 86 4t113.5 8t92.5 4q254 0 376.5 -94.5t122.5 -278.5q0 -178 -83.5 -310.5t-248.5 -183.5q26 -23 50.5 -64.5t46.5 -92.5t40 -104q31 -86 59.5 -161.5t54 -132.5t46.5 -88h-305q-11 16 -23.5 50t-26.5 77t-28 88t-27 83q-14 50 -32 101.5
t-40 95.5t-46 72t-50 29l-175 1l-81 -597h-274zM674 809q96 0 158.5 42t92 114t28.5 160q-1 100 -64 144.5t-186 44.5q-24 0 -57 -2t-62.5 -5t-46.5 -6l-67 -490q26 -1 77 -1.5t127 -0.5zM771 2006q110 0 181 -45t101.5 -125t16.5 -187h-160q0 94 -33 136t-117 42
q-57 0 -91.5 -23t-54 -63t-31.5 -92h-156q0 105 43.5 185.5t121 126t179.5 45.5z" />
    <glyph glyph-name="uni0213" unicode="&#x213;" horiz-adv-x="829" 
d="M78 0l152 1114h263l-18 -216q25 55 70.5 108t107 87.5t135.5 34.5q50 0 64 -12l-54 -282q-10 10 -36.5 15t-58.5 5q-52 0 -98.5 -23.5t-85.5 -63.5t-72 -87l-96 -680h-273zM605 1654q110 0 181.5 -45.5t101.5 -125.5t16 -187h-159q5 97 -30.5 137.5t-120.5 40.5
q-57 0 -91.5 -23t-54 -63t-31.5 -92h-156q0 105 43.5 185.5t121 126.5t179.5 46z" />
    <glyph glyph-name="uni0214" unicode="&#x214;" horiz-adv-x="1371" 
d="M598 -16q-234 0 -352.5 116t-119.5 325q0 28 3.5 65t10.5 92l121 912h275l-118 -874q-5 -47 -9.5 -91.5t-4.5 -88.5q0 -126 58 -183.5t177 -57.5q98 0 163.5 51t104.5 146t58 228l116 870h271l-120 -897q-15 -111 -41.5 -200t-65.5 -156q-77 -135 -207 -196t-320 -61z
M665 1632q-35 16 -83.5 60.5t-97.5 101t-87 110.5t-52 89l166 122l252 -423zM1116 1632q-34 19 -80 63.5t-92 100t-82 109.5t-51 92l163 118l245 -423z" />
    <glyph glyph-name="uni0215" unicode="&#x215;" horiz-adv-x="1203" 
d="M371 -20q-126 0 -196 64.5t-70 205.5q0 41 7.5 113.5t20.5 172.5q12 88 26 187t28 199t26 192h273q-5 -34 -12.5 -89l-16.5 -121t-18 -134.5t-17 -130t-14 -106.5q-11 -85 -16.5 -143t-5.5 -89q0 -59 25 -85t73 -26q43 0 91 29t95 78t86 109l96 708h273l-150 -1114h-247
l13 200q-67 -95 -163.5 -157.5t-206.5 -62.5zM496 1266q-35 17 -84.5 61.5t-99 100.5t-87 110t-49.5 90l178 129l252 -423zM947 1266q-35 19 -82 63.5t-93 101t-82 110t-48 91.5l175 125l245 -423z" />
    <glyph glyph-name="uni0216" unicode="&#x216;" horiz-adv-x="1371" 
d="M598 -16q-234 0 -352.5 116t-119.5 325q0 28 3.5 65t10.5 92l121 912h275l-118 -874q-5 -47 -9.5 -91.5t-4.5 -88.5q0 -126 58 -183.5t177 -57.5q98 0 163.5 51t104.5 146t58 228l116 870h271l-120 -897q-15 -111 -41.5 -200t-65.5 -156q-77 -135 -207 -196t-320 -61z
M854 2007q110 0 181 -45t101.5 -125t16.5 -187h-160q0 94 -33 136t-117 42q-57 0 -91.5 -23t-54 -63t-31.5 -92h-156q0 105 43.5 185.5t121 126t179.5 45.5z" />
    <glyph glyph-name="uni0217" unicode="&#x217;" horiz-adv-x="1203" 
d="M371 -20q-126 0 -196 64.5t-70 205.5q0 41 7.5 113.5t20.5 172.5q12 88 26 187t28 199t26 192h273q-5 -34 -12.5 -89l-16.5 -121t-18 -134.5t-17 -130t-14 -106.5q-11 -85 -16.5 -143t-5.5 -89q0 -59 25 -85t73 -26q43 0 91 29t95 78t86 109l96 708h273l-150 -1114h-247
l13 200q-67 -95 -163.5 -157.5t-206.5 -62.5zM711 1654q110 0 181.5 -45.5t101.5 -125.5t16 -187h-159q5 97 -30.5 137.5t-120.5 40.5q-57 0 -91.5 -23t-54 -63t-31.5 -92h-156q0 105 43.5 185.5t121 126.5t179.5 46z" />
    <glyph glyph-name="uni0218" unicode="&#x218;" horiz-adv-x="1025" 
d="M383 -16q-44 0 -99 8t-110 21t-98.5 29.5t-64.5 33.5l87 222q26 -24 77.5 -46t110.5 -36.5t107 -14.5q79 0 135.5 21.5t87 64t30.5 104.5q0 73 -49 136.5t-149 132.5q-83 60 -145.5 125t-97 140t-34.5 166q0 135 64.5 228.5t175.5 142t250 48.5q118 0 208.5 -25
t135.5 -59l-87 -213q-38 38 -112 61t-144 23q-66 0 -116.5 -18.5t-79 -56t-30.5 -93.5q0 -50 29 -100.5t76 -98t101 -88.5q87 -63 151 -126t99 -133t35 -156q0 -151 -72 -249t-195 -146t-277 -48zM332 -654l-90 59l4 25q30 21 48 53.5t18 81.5q0 36 -19.5 67t-48.5 36l9 73
l147 102q62 -14 97.5 -72t35.5 -132q0 -71 -28.5 -134.5t-74.5 -106.5t-98 -52z" />
    <glyph glyph-name="uni0219" unicode="&#x219;" horiz-adv-x="906" 
d="M355 -16q-58 0 -121 9t-113 23.5t-73 30.5l48 224q28 -24 74 -44.5t96 -33.5t90 -13q74 0 119 25t45 83q0 36 -18 65t-57.5 63.5t-104.5 85.5q-79 67 -128 137.5t-49 174.5q0 106 56.5 176t150.5 104t207 34q52 0 103.5 -5.5t92.5 -14t59 -17.5l-38 -238q-17 20 -52.5 39
t-80 30.5t-88.5 11.5q-71 0 -113 -28t-42 -78q0 -41 23 -75t59 -64.5t76 -63.5q60 -45 106 -94t72.5 -104.5t26.5 -119.5q0 -114 -58 -185.5t-154.5 -104.5t-213.5 -33zM300 -655l-87 59l4 25q30 21 46 51.5t16 83.5q2 40 -18 71.5t-49 35.5l9 70l142 102q62 -14 100 -72
t38 -133q0 -71 -28.5 -134.5t-74 -106.5t-98.5 -52z" />
    <glyph glyph-name="uni021A" unicode="&#x21a;" horiz-adv-x="1112" 
d="M338 0l174 1291l-383 -11l34 214h1030l-30 -214l-375 11l-174 -1291h-276zM375 -654l-90 59l4 25q30 21 48 53.5t18 81.5q0 36 -19.5 67t-48.5 36l9 73l147 102q62 -14 97.5 -72t35.5 -132q0 -71 -28.5 -134.5t-74.5 -106.5t-98 -52z" />
    <glyph glyph-name="uni021B" unicode="&#x21b;" horiz-adv-x="770" 
d="M330 -18q-93 0 -149 48.5t-56 144.5q0 12 2.5 38t5.5 60t8 69l75 587h-96l38 185h103l79 270h214l-37 -270h236l-22 -185h-238q-21 -158 -36 -269t-25 -184t-15 -115.5t-7 -64.5t-2 -33q0 -38 12.5 -60.5t48.5 -22.5q21 0 57 13t72 33.5t59 40.5l39 -137
q-38 -37 -97.5 -70.5t-129.5 -55.5t-139 -22zM228 -655l-87 59l4 25q30 21 46 51.5t16 83.5q2 40 -18 71.5t-49 35.5l9 70l142 102q62 -14 100 -72t38 -133q0 -71 -28.5 -134.5t-74 -106.5t-98.5 -52z" />
    <glyph glyph-name="uni022A" unicode="&#x22a;" horiz-adv-x="1353" 
d="M602 -16q-167 0 -281 80.5t-172.5 218t-58.5 307.5q0 185 49.5 351t143 294t226 201.5t297.5 73.5q125 0 220 -47t158.5 -131t95.5 -194t32 -237q0 -185 -48.5 -350.5t-140.5 -293t-223.5 -200.5t-297.5 -73zM630 191q98 0 173.5 63t126 166.5t76 226.5t24.5 241
q-2 145 -32 236t-87 134t-140 43q-96 0 -170.5 -64t-125.5 -167.5t-77 -225t-25 -237.5q3 -216 71 -316t186 -100zM612 1645q-51 0 -90.5 42.5t-39.5 94.5q0 75 46.5 123.5t114.5 48.5q59 0 98.5 -40.5t39.5 -94.5q0 -74 -43.5 -124t-125.5 -50zM1056 1645q-51 0 -90 42
t-39 95q0 74 46 123t114 49q60 0 99.5 -40.5t39.5 -94.5q0 -73 -44 -123.5t-126 -50.5zM631 2091l11 180h541l-13 -180h-539z" />
    <glyph glyph-name="uni022B" unicode="&#x22b;" horiz-adv-x="1132" 
d="M469 -16q-132 0 -219.5 58.5t-131 164.5t-43.5 246q0 179 72 335q71 154 205.5 247t313.5 93q132 0 218 -57.5t128.5 -162t42.5 -247.5q0 -178 -70 -334q-71 -155 -204 -249t-312 -94zM508 163q71 0 122 47t83.5 123t47.5 166t15 176q0 84 -14 146t-47.5 96.5t-89.5 34.5
q-72 0 -124 -49.5t-85 -127.5t-49 -168.5t-16 -172.5q0 -133 39 -202t118 -69zM452 1307q-47 0 -84 39.5t-37 88.5q0 69 43.5 114t106.5 45q56 0 92 -37t36 -88q0 -69 -40.5 -115.5t-116.5 -46.5zM896 1307q-47 0 -83.5 39.5t-36.5 88.5q0 69 43 114t107 45q55 0 91.5 -37
t36.5 -88q0 -68 -41 -115t-117 -47zM467 1690l20 180h541l-21 -180h-540z" />
    <glyph glyph-name="uni022C" unicode="&#x22c;" horiz-adv-x="1353" 
d="M602 -16q-167 0 -281 80.5t-172.5 218t-58.5 307.5q0 185 49.5 351t143 294t226 201.5t297.5 73.5q125 0 220 -47t158.5 -131t95.5 -194t32 -237q0 -185 -48.5 -350.5t-140.5 -293t-223.5 -200.5t-297.5 -73zM630 191q98 0 173.5 63t126 166.5t76 226.5t24.5 241
q-2 145 -32 236t-87 134t-140 43q-96 0 -170.5 -64t-125.5 -167.5t-77 -225t-25 -237.5q3 -216 71 -316t186 -100zM994 1650q-59 0 -106 23.5t-80 58.5q-28 31 -51 46.5t-56 15.5q-37 0 -65 -18.5t-62 -69.5l-86 109q23 48 60 87t81.5 61.5t90.5 22.5q52 0 97.5 -21.5
t80.5 -61.5q27 -29 48.5 -43.5t45.5 -14.5q29 0 53.5 13.5t45 38.5t37.5 61l90 -116q-17 -48 -51 -92.5t-79 -72t-94 -27.5zM634 2082l11 180h541l-13 -180h-539z" />
    <glyph glyph-name="uni022D" unicode="&#x22d;" horiz-adv-x="1132" 
d="M469 -16q-132 0 -219.5 58.5t-131 164.5t-43.5 246q0 179 72 335q71 154 205.5 247t313.5 93q132 0 218 -57.5t128.5 -162t42.5 -247.5q0 -178 -70 -334q-71 -155 -204 -249t-312 -94zM508 163q71 0 122 47t83.5 123t47.5 166t15 176q0 84 -14 146t-47.5 96.5t-89.5 34.5
q-72 0 -124 -49.5t-85 -127.5t-49 -168.5t-16 -172.5q0 -133 39 -202t118 -69zM830 1238q-58 0 -105 23.5t-81 59.5q-28 30 -50.5 45.5t-56.5 15.5q-37 0 -65 -18.5t-62 -69.5l-86 109q36 73 100 123t132 50q53 0 98 -22.5t80 -62.5q27 -29 48.5 -43.5t46.5 -14.5
q29 0 53 13.5t44.5 38.5t37.5 62l91 -116q-17 -49 -51 -93t-79.5 -72t-94.5 -28zM460 1694l20 180h541l-21 -180h-540z" />
    <glyph glyph-name="uni0230" unicode="&#x230;" horiz-adv-x="1353" 
d="M602 -16q-167 0 -281 80.5t-172.5 218t-58.5 307.5q0 185 49.5 351t143 294t226 201.5t297.5 73.5q125 0 220 -47t158.5 -131t95.5 -194t32 -237q0 -185 -48.5 -350.5t-140.5 -293t-223.5 -200.5t-297.5 -73zM630 191q98 0 173.5 63t126 166.5t76 226.5t24.5 241
q-2 145 -32 236t-87 134t-140 43q-96 0 -170.5 -64t-125.5 -167.5t-77 -225t-25 -237.5q3 -216 71 -316t186 -100zM831 1635q-55 0 -98.5 40.5t-43.5 96.5q0 71 52 122t125 51q63 0 105 -39t42 -95q0 -73 -51 -124.5t-131 -51.5zM627 2053l11 180h541l-13 -180h-539z" />
    <glyph glyph-name="uni0231" unicode="&#x231;" horiz-adv-x="1132" 
d="M469 -16q-132 0 -219.5 58.5t-131 164.5t-43.5 246q0 179 72 335q71 154 205.5 247t313.5 93q132 0 218 -57.5t128.5 -162t42.5 -247.5q0 -178 -70 -334q-71 -155 -204 -249t-312 -94zM508 163q71 0 122 47t83.5 123t47.5 166t15 176q0 84 -14 146t-47.5 96.5t-89.5 34.5
q-72 0 -124 -49.5t-85 -127.5t-49 -168.5t-16 -172.5q0 -133 39 -202t118 -69zM673 1282q-55 0 -98.5 41t-43.5 97q0 70 52 122t125 52q63 0 105.5 -39t42.5 -96q0 -74 -51.5 -125.5t-131.5 -51.5zM469 1744l20 180h541l-21 -180h-540z" />
    <glyph glyph-name="uni0232" unicode="&#x232;" horiz-adv-x="1099" 
d="M339 0l78 576l-335 918h288l187 -589l28 -105l47 105l336 589h301l-583 -918l-78 -576h-269zM434 1650l11 180h541l-13 -180h-539z" />
    <glyph glyph-name="uni0233" unicode="&#x233;" horiz-adv-x="1072" 
d="M62 -498q-50 0 -104 15.5t-96 36.5l72 200q28 -17 67 -31t77 -14q71 0 132.5 37t116.5 99t105 137h-163l-58 366l-109 766h281l77 -714l36 -303q31 61 57.5 121t49.5 118q49 100 81.5 197t52.5 203t30 232q3 30 4 69.5t1 76.5h254q2 -20 2.5 -58t-0.5 -82
q-6 -160 -53.5 -334.5t-138.5 -363.5q-50 -106 -119 -220t-146 -220t-154 -187q-59 -61 -147 -104t-208 -43zM356 1306l20 180h541l-21 -180h-540z" />
    <glyph glyph-name="uni0237" unicode="&#x237;" horiz-adv-x="610" 
d="M-93 -509q-49 0 -89 8.5t-65 26.5l62 147q8 -5 24.5 -9.5t27.5 -4.5q57 0 97.5 35.5t68.5 94.5t45.5 131t27.5 146l143 1048h275l-152 -1112q-19 -145 -81 -261t-159 -183t-225 -67z" />
    <glyph glyph-name="uni0259" unicode="&#x259;" horiz-adv-x="1047" 
d="M568 1130q139 0 228 -62q92 -60 134.5 -160t41.5 -220q-2 -200 -82 -359q-78 -160 -216 -251.5t-309 -91.5q-101 0 -168 34t-100.5 91t-33.5 125q0 105 51 185.5t139 140t199.5 99t231.5 60.5v15v15q-3 84 -42.5 134t-128.5 50q-54 0 -112.5 -21.5t-113 -57.5t-95.5 -79
l-72 139q29 39 79.5 77.5t113.5 69.5t129.5 49t125.5 18zM684 565q-59 -3 -121 -28t-115 -67t-85.5 -96t-32.5 -113q0 -56 24 -81t72 -25q40 0 74 24.5t66 64.5q57 68 84.5 157.5t33.5 163.5z" />
    <glyph glyph-name="uni0292" unicode="&#x292;" horiz-adv-x="936" 
d="M193 -297q-49 2 -96 5.5t-95 5.5l29 202q39 -10 75.5 -14t78.5 -4q138 0 225.5 33.5t129 96.5t41.5 151q1 92 -67.5 128t-178.5 36l-113 108l259 343l113 110h-477l31 210h759l38 -55l-436 -563q94 1 159.5 -26.5t107 -73t60.5 -100.5t18 -108q-3 -153 -81 -264
t-225 -169t-355 -52z" />
    <glyph glyph-name="uni02B9" unicode="&#x2b9;" horiz-adv-x="608" 
d="M243 1162l123 578h252l-189 -578h-186z" />
    <glyph glyph-name="uni02BA" unicode="&#x2ba;" horiz-adv-x="1028" 
d="M243 1162l123 578h252l-189 -578h-186zM663 1162l123 578h252l-189 -578h-186z" />
    <glyph glyph-name="uni02BB" unicode="&#x2bb;" horiz-adv-x="698" 
d="M390 885q-42 20 -83 68t-67.5 117.5t-26.5 154.5q0 115 42 210.5t116 167t169 112.5l94 -123l-2 -22q-41 -20 -78 -66.5t-60 -109t-23 -129.5q0 -58 21.5 -119.5t54.5 -92.5l-5 -40z" />
    <glyph glyph-name="uni02BC" unicode="&#x2bc;" horiz-adv-x="680" 
d="M280 879l-94 123l2 22q41 20 77.5 66.5t59.5 108.5t23 130q0 77 -21.5 129.5t-55.5 82.5l4 40l155 129q42 -20 83 -69.5t67.5 -117.5t26.5 -144q0 -112 -42 -210t-116 -172.5t-169 -117.5z" />
    <glyph glyph-name="uni02BE" unicode="&#x2be;" horiz-adv-x="467" 
d="M225 1281v146q77 0 117.5 36t40.5 107q0 43 -19.5 73t-55 45.5t-83.5 15.5v143q83 -1 159 -28t125.5 -88t51.5 -160q2 -137 -89 -213.5t-247 -76.5z" />
    <glyph glyph-name="uni02BF" unicode="&#x2bf;" horiz-adv-x="468" 
d="M508 1281q-155 0 -246.5 76.5t-89.5 213.5q2 99 51.5 160t126 88t158.5 28v-143q-48 0 -83.5 -15.5t-55 -45.5t-19.5 -73q0 -71 40.5 -107t117.5 -36v-146z" />
    <glyph glyph-name="circumflex" unicode="&#x2c6;" horiz-adv-x="780" 
d="M162 1201l-107 71l342 364h175l197 -364l-123 -67l-190 212z" />
    <glyph glyph-name="caron" unicode="&#x2c7;" horiz-adv-x="780" 
d="M286 1235l-221 335l105 75l226 -210l286 210l114 -74l-335 -336h-175z" />
    <glyph glyph-name="uni02C8" unicode="&#x2c8;" horiz-adv-x="321" 
d="M249 1277l-47 811h263l-49 -811h-167z" />
    <glyph glyph-name="uni02C9" unicode="&#x2c9;" 
d="M-166 1306l20 180h541l-21 -180h-540z" />
    <glyph glyph-name="uni02CA" unicode="&#x2ca;" 
d="M6 1232l-143 126q52 52 110.5 118.5t116 140.5t105.5 147l200 -162q-21 -45 -72.5 -103t-114 -114t-118 -98t-84.5 -55z" />
    <glyph glyph-name="uni02CB" unicode="&#x2cb;" 
d="M176 1279q-36 14 -93.5 55t-117 94.5t-106.5 103t-64 80.5l173 166l306 -416z" />
    <glyph glyph-name="uni02CC" unicode="&#x2cc;" horiz-adv-x="172" 
d="M-33 -624l-47 814h264l-49 -814h-168z" />
    <glyph glyph-name="breve" unicode="&#x2d8;" horiz-adv-x="704" 
d="M346 1270q-108 0 -182 47t-105 128t-11 183h159q0 -94 32 -136t119 -42q56 0 91 22.5t55 63t31 92.5h155q0 -104 -43.5 -185t-121 -127t-179.5 -46z" />
    <glyph glyph-name="dotaccent" unicode="&#x2d9;" horiz-adv-x="380" 
d="M168 1310q-55 0 -97.5 40.5t-42.5 96.5q0 70 51 121.5t124 51.5q63 0 105.5 -39t42.5 -95q0 -74 -52 -125t-131 -51z" />
    <glyph glyph-name="ring" unicode="&#x2da;" horiz-adv-x="709" 
d="M363 1224q-138 0 -216 64t-78 180q0 96 55 162q55 64 138 94t169 30q131 0 208 -64t77 -181q0 -93 -50 -157q-49 -65 -129.5 -96.5t-173.5 -31.5zM377 1347q78 0 125.5 34.5t47.5 120.5q0 56 -40.5 93t-98.5 37q-72 0 -124 -37t-52 -117q0 -54 43 -92.5t99 -38.5z" />
    <glyph glyph-name="ogonek" unicode="&#x2db;" horiz-adv-x="560" 
d="M189 -448q-82 0 -135.5 46.5t-53.5 114.5q0 50 26.5 95.5t69.5 85.5t95.5 72t103.5 57l87 35l80 -38q-106 -70 -170 -130t-64 -107q0 -38 18.5 -53t45.5 -15q35 0 70.5 16.5t77.5 47.5l50 -104q-54 -52 -132.5 -87.5t-168.5 -35.5z" />
    <glyph glyph-name="tilde" unicode="&#x2dc;" horiz-adv-x="807" 
d="M661 1258q-59 0 -106 23.5t-80 59.5q-28 30 -51 45.5t-56 15.5q-38 0 -66 -18.5t-62 -68.5l-86 108q36 74 100 123t132 49q53 0 98.5 -22t80.5 -62q27 -29 48 -43.5t47 -14.5q28 0 52 13t44.5 38.5t37.5 61.5l91 -115q-17 -49 -51 -93t-79 -72t-94 -28z" />
    <glyph glyph-name="hungarumlaut" unicode="&#x2dd;" horiz-adv-x="900" 
d="M665 1214l-111 68l252 423l178 -129q-11 -36 -49 -90t-87.5 -110.5t-98.5 -100.5t-84 -61zM221 1214l-114 68l245 423l174 -126q-12 -37 -48 -91t-82 -110t-93 -100.5t-82 -63.5z" />
    <glyph glyph-name="gravecomb" unicode="&#x300;" 
d="M176 1279q-36 14 -93.5 55t-117 94.5t-106.5 103t-64 80.5l173 166l306 -416z" />
    <glyph glyph-name="acutecomb" unicode="&#x301;" 
d="M92 1279l-95 83l313 416l172 -154q-13 -24 -47.5 -63.5t-81 -84t-95.5 -85.5t-93 -71.5t-73 -40.5z" />
    <glyph glyph-name="uni0302" unicode="&#x302;" 
d="M-151 1243l-107 70l341 350h175l198 -350l-122 -67l-191 220z" />
    <glyph glyph-name="tildecomb" unicode="&#x303;" 
d="M251 1238q-58 0 -105 23.5t-81 59.5q-28 30 -50.5 45.5t-56.5 15.5q-37 0 -65 -18.5t-62 -69.5l-86 109q36 73 100 123t132 50q53 0 98 -22.5t80 -62.5q27 -29 48.5 -43.5t46.5 -14.5q29 0 53 13.5t44.5 38.5t37.5 62l91 -116q-17 -49 -51 -93t-79.5 -72t-94.5 -28z" />
    <glyph glyph-name="uni0304" unicode="&#x304;" 
d="M-166 1306l20 180h541l-21 -180h-540z" />
    <glyph glyph-name="uni0306" unicode="&#x306;" 
d="M109 1263q-109 0 -180.5 45t-102 126t-16.5 187h159q1 -63 15.5 -102t47 -57.5t89.5 -18.5q56 0 90.5 23t54 63t32.5 92h155q0 -104 -43.5 -185t-120.5 -127t-180 -46z" />
    <glyph glyph-name="uni0307" unicode="&#x307;" 
d="M94 1282q-55 0 -98.5 41t-43.5 97q0 70 52 122t125 52q63 0 105.5 -39t42.5 -96q0 -74 -51.5 -125.5t-131.5 -51.5z" />
    <glyph glyph-name="uni0308" unicode="&#x308;" 
d="M-127 1307q-47 0 -84 39.5t-37 88.5q0 69 43.5 114t106.5 45q56 0 92 -37t36 -88q0 -69 -40.5 -115.5t-116.5 -46.5zM317 1307q-47 0 -83.5 39.5t-36.5 88.5q0 69 43 114t107 45q55 0 91.5 -37t36.5 -88q0 -68 -41 -115t-117 -47z" />
    <glyph glyph-name="hookabovecomb" unicode="&#x309;" 
d="M19 1265q-9 21 -13.5 41t-0.5 49q5 37 22.5 60t40 40t40 37t20.5 49q4 37 -18.5 57.5t-79.5 20.5q-35 0 -72 -11t-57 -23l15 146q35 19 86.5 29.5t105.5 10.5q115 0 181.5 -52t56.5 -135q-6 -48 -28.5 -82.5t-53 -59.5t-57.5 -45q-25 -18 -40.5 -54t-9.5 -78h-138z" />
    <glyph glyph-name="uni030A" unicode="&#x30a;" 
d="M95 1224q-139 0 -217.5 64t-78.5 180q0 97 55 162q55 64 138.5 94t169.5 30q131 0 207.5 -64t76.5 -181q0 -94 -48 -157q-50 -65 -131 -96.5t-172 -31.5zM108 1347q78 0 125 34.5t47 120.5q0 56 -40 93t-98 37q-72 0 -125 -37t-53 -117q0 -54 44 -92.5t100 -38.5z" />
    <glyph glyph-name="uni030B" unicode="&#x30b;" 
d="M297 1214l-111 68l253 423l178 -129q-12 -36 -50 -90t-87.5 -110.5t-98.5 -100.5t-84 -61zM-147 1214l-115 68l245 423l175 -126q-12 -37 -47.5 -91t-82 -110t-93.5 -100.5t-82 -63.5z" />
    <glyph glyph-name="uni030C" unicode="&#x30c;" 
d="M11 1272l-235 328l102 87l240 -224l288 224l96 -85l-317 -330h-174z" />
    <glyph glyph-name="uni030F" unicode="&#x30f;" 
d="M-105 1266q-35 17 -84.5 61.5t-99 100.5t-87 110t-49.5 90l178 129l252 -423zM346 1266q-35 19 -82 63.5t-93 101t-82 110t-48 91.5l175 125l245 -423z" />
    <glyph glyph-name="uni0311" unicode="&#x311;" 
d="M110 1654q110 0 181.5 -45.5t101.5 -125.5t16 -187h-159q5 97 -30.5 137.5t-120.5 40.5q-57 0 -91.5 -23t-54 -63t-31.5 -92h-156q0 105 43.5 185.5t121 126.5t179.5 46z" />
    <glyph glyph-name="uni0312" unicode="&#x312;" 
d="M131 1794l96 -66l-4 -26q-31 -23 -45 -54.5t-14 -74.5t21 -81t52 -44l-10 -74l-130 -88q-38 18 -69 51.5t-49.5 77.5t-18.5 93q0 83 38 159.5t133 126.5z" />
    <glyph glyph-name="uni031B" unicode="&#x31b;" 
d="M-52 946l23 165q94 0 154 18t94 48.5t49 68.5t19 78q1 11 3.5 19.5t0.5 14.5h197q1 -12 2 -22.5t0 -21.5q-9 -132 -83.5 -213t-194 -118t-264.5 -37z" />
    <glyph glyph-name="dotbelowcomb" unicode="&#x323;" 
d="M-68 -513q-54 0 -98 40.5t-44 96.5q0 71 52 122.5t126 51.5q63 0 105 -39t42 -96q0 -74 -51.5 -125t-131.5 -51z" />
    <glyph glyph-name="uni0324" unicode="&#x324;" 
d="M-285 -511q-51 0 -90 42.5t-39 94.5q0 70 46 121t114 51q60 0 99 -39.5t39 -93.5q0 -74 -46 -125t-123 -51zM152 -511q-52 0 -91 42t-39 95q0 69 46 120.5t114 51.5q60 0 99 -39.5t39 -93.5q0 -73 -46.5 -124.5t-121.5 -51.5z" />
    <glyph glyph-name="uni0326" unicode="&#x326;" 
d="M-75 -655l-87 59l4 25q30 21 46 51.5t16 83.5q2 40 -18 71.5t-49 35.5l9 70l142 102q62 -14 100 -72t38 -133q0 -71 -28.5 -134.5t-74 -106.5t-98.5 -52z" />
    <glyph glyph-name="uni0327" unicode="&#x327;" 
d="M-215 -457q-64 0 -122.5 12.5t-75.5 22.5l30 175q14 -7 43 -13.5t78 -6.5q55 0 100 37.5t46 120.5q1 57 -3 88t-8 51l56 4l76 -4q20 -29 37 -83t17 -127q0 -141 -75 -209t-199 -68z" />
    <glyph glyph-name="uni0328" unicode="&#x328;" 
d="M180 -448q-83 0 -136.5 46.5t-53.5 114.5q0 59 35.5 111t92.5 96t119 80l96 55l88 -55q-92 -64 -147.5 -118.5t-55.5 -98.5q0 -38 18.5 -53t45.5 -15q35 0 70 16.5t77 47.5l51 -104q-55 -52 -133 -87.5t-167 -35.5z" />
    <glyph glyph-name="uni032E" unicode="&#x32e;" 
d="M-63 -510q-110 0 -182 46t-101.5 126.5t-12.5 185.5h155q6 -89 36.5 -133.5t115.5 -44.5t125.5 49t51.5 129h156q0 -109 -43.5 -189.5t-121 -124.5t-179.5 -44z" />
    <glyph glyph-name="uni0331" unicode="&#x331;" 
d="M-316 -386l12 182h540l-12 -182h-540z" />
    <glyph glyph-name="uni0335" unicode="&#x335;" 
d="M410 680v-244h-820v244h820z" />
    <glyph glyph-name="uni0336" unicode="&#x336;" 
d="M574 664v-212h-1148v212h1148z" />
    <glyph glyph-name="uni0337" unicode="&#x337;" 
d="M260 1112l199 -1l-717 -1314l-201 4z" />
    <glyph glyph-name="uni0338" unicode="&#x338;" 
d="M275 1608h212l-752 -1811l-213 4z" />
    <glyph glyph-name="uni0394" unicode="&#x394;" horiz-adv-x="1374" 
d="M-30 0l-12 22l783 1450h32l553 -1446l-17 -26h-1339zM337 221h648l-258 736z" />
    <glyph glyph-name="uni0394" unicode="&#x3b4;" horiz-adv-x="1374" 
d="M-30 0l-12 22l783 1450h32l553 -1446l-17 -26h-1339zM337 221h648l-258 736z" />
    <glyph glyph-name="uni03A9" unicode="&#x3a9;" horiz-adv-x="1620" 
d="M61 0l26 200h327q-55 53 -101 121.5t-79.5 146t-52.5 158.5t-19 157q0 235 85 396.5t247 244.5t394 83q185 0 323.5 -72.5t215.5 -205t77 -312.5q0 -94 -26 -194t-72.5 -195.5t-108.5 -179t-134 -144.5h328l-20 -204h-560l-46 161q84 45 152.5 121.5t117.5 173.5
t76 202.5t27 207.5q0 128 -46 224.5t-130.5 150t-200.5 53.5q-142 0 -241 -62.5t-150 -182.5t-51 -292q0 -80 18 -169t51.5 -173t79 -151t100.5 -103l-65 -161h-542z" />
    <glyph glyph-name="uni03A9" unicode="&#x3c9;" horiz-adv-x="1620" 
d="M61 0l26 200h327q-55 53 -101 121.5t-79.5 146t-52.5 158.5t-19 157q0 235 85 396.5t247 244.5t394 83q185 0 323.5 -72.5t215.5 -205t77 -312.5q0 -94 -26 -194t-72.5 -195.5t-108.5 -179t-134 -144.5h328l-20 -204h-560l-46 161q84 45 152.5 121.5t117.5 173.5
t76 202.5t27 207.5q0 128 -46 224.5t-130.5 150t-200.5 53.5q-142 0 -241 -62.5t-150 -182.5t-51 -292q0 -80 18 -169t51.5 -173t79 -151t100.5 -103l-65 -161h-542z" />
    <glyph glyph-name="uni03BC" unicode="&#x3bc;" horiz-adv-x="1332" 
d="M82 -364l168 1170q3 21 3 46.5t-6.5 44t-20.5 18.5q-24 0 -44.5 -12.5t-43.5 -35.5l-55 137q19 25 64.5 53.5t104.5 49t118 20.5q78 0 125.5 -44t45.5 -124q-1 -17 -8 -73t-16.5 -133t-20 -157.5l-19.5 -149.5t-13 -107q0 -75 34 -109t93 -34q44 0 86.5 24.5t77 63
t52.5 82.5l98 748h269q-24 -198 -42.5 -342t-32 -245.5t-22 -172t-13.5 -122.5q-1 -26 10 -43t24 -17q26 0 55.5 18.5t56.5 51.5l68 -118q-29 -32 -69 -65t-91.5 -55t-118.5 -22q-73 0 -116.5 32.5t-55.5 105.5q-36 -45 -73 -76t-82 -46.5t-106 -15.5q-42 1 -93.5 20
t-69.5 54l-64 -420h-257z" />
    <glyph glyph-name="pi" unicode="&#x3c0;" horiz-adv-x="1544" 
d="M292 -20l-166 134q15 4 43.5 18t56.5 35q76 56 100 132.5t35 180.5l60 399h-57q-65 0 -105 -22t-77 -60l-126 57q12 86 57 144t118 87t167 29h782q61 0 93 17t45 55h166q-5 -168 -81.5 -237t-238.5 -69q-5 -73 -11 -144.5t-11.5 -143.5t-11.5 -143.5t-12 -144.5
q-4 -110 62 -110q31 0 60 19t55 47t47 58l107 -90q-17 -47 -57 -90.5t-93 -78.5t-111.5 -55t-113.5 -20q-107 0 -162 59.5t-55 169.5q0 8 0.5 19t3 34t7.5 66t13.5 113.5t21.5 176.5t31 258l-272 -1l-46 -471q-6 -115 -50 -210.5t-101 -147.5q-31 -25 -75.5 -44t-97.5 -26z
" />
    <glyph glyph-name="uni058F" unicode="&#x58f;" horiz-adv-x="1559" 
d="M809 -16l116 828q24 175 7 272.5t-71 137t-138 39.5q-90 0 -160.5 -38t-117.5 -135.5t-65 -275.5l-11 -108h-268l18 142q26 200 98 345.5t203 224t332 78.5q185 0 293 -74.5t145 -216.5t9 -344l-123 -875h-267zM506 202l25 175h894l-24 -175h-895zM587 567l24 175h866
l-25 -175h-865z" />
    <glyph glyph-name="uni1E02" unicode="&#x1e02;" horiz-adv-x="1268" 
d="M485 -15q-15 0 -53 2.5t-84 5.5t-84 5t-53 2h-123l202 1494h124q14 0 58 2.5t97.5 5.5t97.5 5t57 2q164 0 268 -40.5t153 -115t49 -178.5q0 -150 -77 -251t-220 -139q86 -16 148.5 -58t97.5 -105t35 -145q2 -169 -80 -278t-238 -161.5t-375 -52.5zM530 179
q104 0 184.5 31.5t127 93.5t46.5 152q0 121 -71 172t-215 51q-39 0 -77 -1.5t-74 -3.5l-64 -484q17 -3 41.5 -6t51.5 -4t50 -1zM478 866q26 -1 53.5 -2t71.5 -1q145 0 228.5 71.5t83.5 209.5q0 94 -59.5 134t-185.5 42q-20 0 -43 -0.5t-46 -2t-42 -3.5zM777 1635
q-55 0 -98.5 40.5t-43.5 96.5q0 71 52 122t125 51q63 0 105 -39t42 -95q0 -73 -51 -124.5t-131 -51.5z" />
    <glyph glyph-name="uni1E03" unicode="&#x1e03;" horiz-adv-x="1201" 
d="M460 -16q-54 0 -119.5 12.5t-115.5 28.5l-147 -32l216 1605h262l-69 -565l-27 -150q37 67 89 123t116.5 89t140.5 33q163 0 239.5 -114.5t76.5 -305.5q0 -178 -74 -342q-49 -112 -132.5 -198t-198 -135t-257.5 -49zM487 159q112 0 193 79q77 80 116.5 202t39.5 245
q0 112 -25 180t-86 68q-43 0 -86 -32.5t-82.5 -81.5t-70.5 -103.5t-50 -98.5l-61 -444q48 -14 112 -14zM837 1282q-55 0 -98.5 41t-43.5 97q0 70 52 122t125 52q63 0 105.5 -39t42.5 -96q0 -74 -51.5 -125.5t-131.5 -51.5z" />
    <glyph glyph-name="uni1E08" unicode="&#x1e08;" horiz-adv-x="1140" 
d="M604 -16q-186 0 -299 91q-115 91 -164 234.5t-49 312.5q0 250 98 453q96 203 266 319t382 116q52 0 101.5 -6.5t104.5 -21.5t125 -41l-85 -246q-48 34 -108 59.5t-160 25.5q-156 0 -254 -98q-100 -97 -145.5 -245t-45.5 -308q0 -128 30.5 -223.5t96 -148t170.5 -52.5
q61 0 125 15t117.5 37.5t81.5 43.5l38 -204q-23 -18 -67 -38t-102 -37t-124 -27.5t-133 -10.5zM432 -457q-64 0 -122.5 12.5t-75.5 22.5l30 175q14 -7 43 -13.5t78 -6.5q55 0 100 37.5t46 120.5q1 57 -3 88t-8 51l56 4l76 -4q20 -29 37 -83t17 -127q0 -141 -75 -209
t-199 -68zM825 1635l-102 83l315 416l177 -154q-13 -24 -47 -63.5t-80.5 -84t-96 -85.5t-93.5 -71.5t-73 -40.5z" />
    <glyph glyph-name="uni1E09" unicode="&#x1e09;" horiz-adv-x="910" 
d="M465 -16q-122 0 -209 55.5t-132.5 155.5t-45.5 233q0 183 72 345q72 161 205.5 258t309.5 97q40 0 84 -4.5t84 -13.5t66 -21l-68 -254q-22 20 -52.5 39.5t-66 32t-70.5 12.5q-36 0 -72.5 -18.5t-69.5 -52.5q-63 -61 -103 -162.5t-40 -219.5q0 -143 39 -211.5t132 -68.5
q61 0 125 34t118 89l74 -137q-29 -44 -88.5 -87t-136 -72t-155.5 -29zM328 -457q-64 0 -122.5 12.5t-75.5 22.5l30 175q14 -7 43 -13.5t78 -6.5q55 0 100 37.5t46 120.5q1 57 -3 88t-8 51l56 4l76 -4q20 -29 37 -83t17 -127q0 -141 -75 -209t-199 -68zM621 1279l-95 83
l313 416l172 -154q-13 -24 -47.5 -63.5t-81 -84t-95.5 -85.5t-93 -71.5t-73 -40.5z" />
    <glyph glyph-name="uni1E0A" unicode="&#x1e0a;" horiz-adv-x="1369" 
d="M536 -16q-58 1 -116 5t-111.5 7.5t-100.5 3.5h-120l202 1494h126q12 0 45.5 1.5t77.5 4t89 5t81.5 4t52.5 1.5q294 0 430 -162.5t136 -453.5q0 -193 -54.5 -359t-158 -290.5t-249.5 -193.5t-330 -67zM579 187q154 3 260 101q105 98 156 257.5t51 346.5q0 158 -36 250
q-36 90 -111 128t-201 38q-36 0 -84.5 -4.5t-77.5 -11.5l-145 -1080q36 -13 86 -19t102 -6zM827 1635q-55 0 -98.5 40.5t-43.5 96.5q0 71 52 122t125 51q63 0 105 -39t42 -95q0 -73 -51 -124.5t-131 -51.5z" />
    <glyph glyph-name="uni1E0B" unicode="&#x1e0b;" horiz-adv-x="1192" 
d="M389 -16q-162 0 -239 114t-77 306q0 177 75 345q49 111 132 196.5t197.5 134t255.5 48.5q25 0 52.5 -2t55.5 -7l65 479h267l-210 -1598h-245l16 232q-37 -68 -89 -124t-116.5 -90t-139.5 -34zM469 180q42 0 84 31.5t81 81.5t70 104t52 100l60 442q-48 17 -110 17
q-112 0 -190 -80q-79 -81 -119 -203t-40 -247q0 -73 11 -128.5t35.5 -86.5t65.5 -31zM550 1282q-55 0 -98.5 41t-43.5 97q0 70 52 122t125 52q63 0 105.5 -39t42.5 -96q0 -74 -51.5 -125.5t-131.5 -51.5z" />
    <glyph glyph-name="uni1E0C" unicode="&#x1e0c;" horiz-adv-x="1369" 
d="M536 -16q-58 1 -116 5t-111.5 7.5t-100.5 3.5h-120l202 1494h126q12 0 45.5 1.5t77.5 4t89 5t81.5 4t52.5 1.5q294 0 430 -162.5t136 -453.5q0 -193 -54.5 -359t-158 -290.5t-249.5 -193.5t-330 -67zM579 187q154 3 260 101q105 98 156 257.5t51 346.5q0 158 -36 250
q-36 90 -111 128t-201 38q-36 0 -84.5 -4.5t-77.5 -11.5l-145 -1080q36 -13 86 -19t102 -6zM543 -513q-54 0 -98 40.5t-44 96.5q0 71 52 122.5t126 51.5q63 0 105 -39t42 -96q0 -74 -51.5 -125t-131.5 -51z" />
    <glyph glyph-name="uni1E0D" unicode="&#x1e0d;" horiz-adv-x="1192" 
d="M389 -16q-162 0 -239 114t-77 306q0 177 75 345q49 111 132 196.5t197.5 134t255.5 48.5q25 0 52.5 -2t55.5 -7l65 479h267l-210 -1598h-245l16 232q-37 -68 -89 -124t-116.5 -90t-139.5 -34zM469 180q42 0 84 31.5t81 81.5t70 104t52 100l60 442q-48 17 -110 17
q-112 0 -190 -80q-79 -81 -119 -203t-40 -247q0 -73 11 -128.5t35.5 -86.5t65.5 -31zM455 -513q-54 0 -98 40.5t-44 96.5q0 71 52 122.5t126 51.5q63 0 105 -39t42 -96q0 -74 -51.5 -125t-131.5 -51z" />
    <glyph glyph-name="uni1E0E" unicode="&#x1e0e;" horiz-adv-x="1369" 
d="M536 -16q-58 1 -116 5t-111.5 7.5t-100.5 3.5h-120l202 1494h126q12 0 45.5 1.5t77.5 4t89 5t81.5 4t52.5 1.5q294 0 430 -162.5t136 -453.5q0 -193 -54.5 -359t-158 -290.5t-249.5 -193.5t-330 -67zM579 187q154 3 260 101q105 98 156 257.5t51 346.5q0 158 -36 250
q-36 90 -111 128t-201 38q-36 0 -84.5 -4.5t-77.5 -11.5l-145 -1080q36 -13 86 -19t102 -6zM295 -386l12 182h540l-12 -182h-540z" />
    <glyph glyph-name="uni1E0F" unicode="&#x1e0f;" horiz-adv-x="1192" 
d="M389 -16q-162 0 -239 114t-77 306q0 177 75 345q49 111 132 196.5t197.5 134t255.5 48.5q25 0 52.5 -2t55.5 -7l65 479h267l-210 -1598h-245l16 232q-37 -68 -89 -124t-116.5 -90t-139.5 -34zM469 180q42 0 84 31.5t81 81.5t70 104t52 100l60 442q-48 17 -110 17
q-112 0 -190 -80q-79 -81 -119 -203t-40 -247q0 -73 11 -128.5t35.5 -86.5t65.5 -31zM207 -386l12 182h540l-12 -182h-540z" />
    <glyph glyph-name="uni1E14" unicode="&#x1e14;" horiz-adv-x="1145" 
d="M88 0l202 1494h824l-22 -214l-558 5l-55 -418l418 6l-24 -218l-422 12l-61 -458l649 12l-26 -221h-925zM483 1649l11 180h541l-13 -180h-539zM875 1960q-37 14 -94 55.5t-117 94.5t-107 103t-63 80l179 166l305 -416z" />
    <glyph glyph-name="uni1E15" unicode="&#x1e15;" horiz-adv-x="1050" 
d="M482 -16q-139 0 -228 61q-92 62 -134.5 162.5t-41.5 219.5q0 195 81 358q79 161 217 252t309 91q100 0 167 -34t101 -91t34 -125q0 -104 -51 -185t-139 -140.5t-199.5 -99t-232.5 -59.5v-15.5v-14.5q4 -84 43.5 -134.5t129.5 -50.5q53 0 111.5 21.5t113 57.5t95.5 79
l72 -139q-29 -40 -79.5 -78.5t-113.5 -69t-129 -48.5t-126 -18zM366 549q59 3 121 28t115 67t85.5 95.5t32.5 112.5q0 58 -23.5 82.5t-72.5 24.5q-40 0 -73.5 -24t-66.5 -65q-57 -67 -84.5 -157t-33.5 -164zM440 1306l20 180h541l-21 -180h-540zM824 1601q-36 14 -93.5 55
t-117 94.5t-106.5 103t-64 80.5l173 166l306 -416z" />
    <glyph glyph-name="uni1E16" unicode="&#x1e16;" horiz-adv-x="1145" 
d="M88 0l202 1494h824l-22 -214l-558 5l-55 -418l418 6l-24 -218l-422 12l-61 -458l649 12l-26 -221h-925zM483 1649l11 180h541l-13 -180h-539zM751 1960l-102 83l315 416l177 -154q-13 -24 -47 -63.5t-80.5 -84t-96 -85.5t-93.5 -71.5t-73 -40.5z" />
    <glyph glyph-name="uni1E17" unicode="&#x1e17;" horiz-adv-x="1050" 
d="M482 -16q-139 0 -228 61q-92 62 -134.5 162.5t-41.5 219.5q0 195 81 358q79 161 217 252t309 91q100 0 167 -34t101 -91t34 -125q0 -104 -51 -185t-139 -140.5t-199.5 -99t-232.5 -59.5v-15.5v-14.5q4 -84 43.5 -134.5t129.5 -50.5q53 0 111.5 21.5t113 57.5t95.5 79
l72 -139q-29 -40 -79.5 -78.5t-113.5 -69t-129 -48.5t-126 -18zM366 549q59 3 121 28t115 67t85.5 95.5t32.5 112.5q0 58 -23.5 82.5t-72.5 24.5q-40 0 -73.5 -24t-66.5 -65q-57 -67 -84.5 -157t-33.5 -164zM440 1306l20 180h541l-21 -180h-540zM691 1601l-95 83l313 416
l172 -154q-13 -24 -47.5 -63.5t-81 -84t-95.5 -85.5t-93 -71.5t-73 -40.5z" />
    <glyph glyph-name="uni1E1C" unicode="&#x1e1c;" horiz-adv-x="1145" 
d="M88 0l202 1494h824l-22 -214l-558 5l-55 -418l418 6l-24 -218l-422 12l-61 -458l649 12l-26 -221h-925zM404 -457q-64 0 -122.5 12.5t-75.5 22.5l30 175q14 -7 43 -13.5t78 -6.5q55 0 100 37.5t46 120.5q1 57 -3 88t-8 51l56 4l76 -4q20 -29 37 -83t17 -127
q0 -141 -75 -209t-199 -68zM749 1634q-109 0 -180.5 45t-101.5 125.5t-17 187.5h160q1 -94 33.5 -136t117.5 -42q56 0 91 22.5t54.5 63t31.5 92.5h155q0 -105 -43.5 -185.5t-121 -126.5t-179.5 -46z" />
    <glyph glyph-name="uni1E1D" unicode="&#x1e1d;" horiz-adv-x="1050" 
d="M482 -16q-139 0 -228 61q-92 62 -134.5 162.5t-41.5 219.5q0 195 81 358q79 161 217 252t309 91q100 0 167 -34t101 -91t34 -125q0 -104 -51 -185t-139 -140.5t-199.5 -99t-232.5 -59.5v-15.5v-14.5q4 -84 43.5 -134.5t129.5 -50.5q53 0 111.5 21.5t113 57.5t95.5 79
l72 -139q-29 -40 -79.5 -78.5t-113.5 -69t-129 -48.5t-126 -18zM366 549q59 3 121 28t115 67t85.5 95.5t32.5 112.5q0 58 -23.5 82.5t-72.5 24.5q-40 0 -73.5 -24t-66.5 -65q-57 -67 -84.5 -157t-33.5 -164zM356 -457q-64 0 -122.5 12.5t-75.5 22.5l30 175q14 -7 43 -13.5
t78 -6.5q55 0 100 37.5t46 120.5q1 57 -3 88t-8 51l56 4l76 -4q20 -29 37 -83t17 -127q0 -141 -75 -209t-199 -68zM715 1263q-109 0 -180.5 45t-102 126t-16.5 187h159q1 -63 15.5 -102t47 -57.5t89.5 -18.5q56 0 90.5 23t54 63t32.5 92h155q0 -104 -43.5 -185t-120.5 -127
t-180 -46z" />
    <glyph glyph-name="uni1E1E" unicode="&#x1e1e;" horiz-adv-x="1044" 
d="M88 0l202 1494h806l-28 -214l-534 6l-57 -435l437 7l-24 -228l-443 12l-86 -642h-273zM692 1635q-55 0 -98.5 40.5t-43.5 96.5q0 71 52 122t125 51q63 0 105 -39t42 -95q0 -73 -51 -124.5t-131 -51.5z" />
    <glyph glyph-name="uni1E1F" unicode="&#x1e1f;" horiz-adv-x="715" 
d="M125 0l127 930h-128l35 184h117l17 97q10 66 30 123.5t51 107.5q59 92 152 143t214 51q50 0 90 -6t71 -19l-56 -196q-16 15 -47 27.5t-72 11.5q-64 0 -104 -49t-54 -141l-24 -150h194l-19 -184h-198l-127 -930h-269zM614 1762q-55 0 -98.5 41t-43.5 97q0 70 52 122
t125 52q63 0 105.5 -39t42.5 -96q0 -74 -51.5 -125.5t-131.5 -51.5z" />
    <glyph glyph-name="uni1E20" unicode="&#x1e20;" horiz-adv-x="1353" 
d="M630 -16q-187 0 -309 89q-121 88 -176 228.5t-57 300.5q-1 264 98 473q100 206 274 320.5t386 114.5q62 0 110.5 -3.5t93.5 -12t97 -23.5t121 -38l-66 -248q-30 22 -89.5 46t-132 40.5t-140.5 16.5q-165 0 -271 -100q-107 -100 -155.5 -251t-48.5 -309q0 -128 33 -226
t101 -153.5t173 -55.5q58 0 129 12.5t125 38.5l44 312h-235l27 219h493l-93 -691q-25 -3 -54.5 -10t-75.5 -20q-103 -30 -199.5 -50t-202.5 -20zM561 1650l11 180h541l-13 -180h-539z" />
    <glyph glyph-name="uni1E21" unicode="&#x1e21;" horiz-adv-x="1188" 
d="M382 -499q-44 0 -97.5 6t-99 15t-66.5 19l49 207q26 -15 70.5 -31.5t97 -28t99.5 -11.5q108 0 162.5 58t74.5 171l56 313q-57 -97 -143 -166t-196 -69q-162 0 -239 114t-77 306q0 177 75 345q49 111 132 196.5t197.5 134t255.5 48.5q55 0 118.5 -11.5t113.5 -26.5l151 38
l-163 -1185q-11 -82 -39 -147t-70 -115q-84 -97 -205 -138.5t-257 -41.5zM469 180q41 0 82 29t78.5 76t69 100.5t53.5 102.5l63 454q-24 7 -51 10.5t-58 3.5q-112 0 -190 -80q-79 -81 -119 -203t-40 -247q0 -73 11 -128.5t35.5 -86.5t65.5 -31zM490 1306l20 180h541
l-21 -180h-540z" />
    <glyph glyph-name="uni1E24" unicode="&#x1e24;" horiz-adv-x="1422" 
d="M82 0l201 1494h274l-89 -659h550l88 659h277l-203 -1494h-275l86 641h-549l-87 -641h-273zM566 -513q-54 0 -98 40.5t-44 96.5q0 71 52 122.5t126 51.5q63 0 105 -39t42 -96q0 -74 -51.5 -125t-131.5 -51z" />
    <glyph glyph-name="uni1E25" unicode="&#x1e25;" horiz-adv-x="1230" 
d="M81 0l210 1598h268l-63 -511l-32 -192q77 106 182 169.5t219 63.5q121 0 182.5 -67t61.5 -221q0 -15 -4.5 -59.5t-13 -112t-19.5 -149.5t-23.5 -171.5t-25.5 -178.5t-26 -169h-274q10 69 18.5 128t15.5 112t14 102t14 96.5t14 97.5q13 99 20 164t8 102q1 60 -21 82.5
t-69 22.5q-44 0 -99.5 -32t-107.5 -81t-86 -101l-94 -693h-269zM473 -513q-54 0 -98 40.5t-44 96.5q0 71 52 122.5t126 51.5q63 0 105 -39t42 -96q0 -74 -51.5 -125t-131.5 -51z" />
    <glyph glyph-name="uni1E2A" unicode="&#x1e2a;" horiz-adv-x="1422" 
d="M82 0l201 1494h274l-89 -659h550l88 659h277l-203 -1494h-275l86 641h-549l-87 -641h-273zM571 -510q-110 0 -182 46t-101.5 126.5t-12.5 185.5h155q6 -89 36.5 -133.5t115.5 -44.5t125.5 49t51.5 129h156q0 -109 -43.5 -189.5t-121 -124.5t-179.5 -44z" />
    <glyph glyph-name="uni1E2B" unicode="&#x1e2b;" horiz-adv-x="1230" 
d="M81 0l210 1598h268l-63 -511l-32 -192q77 106 182 169.5t219 63.5q121 0 182.5 -67t61.5 -221q0 -15 -4.5 -59.5t-13 -112t-19.5 -149.5t-23.5 -171.5t-25.5 -178.5t-26 -169h-274q10 69 18.5 128t15.5 112t14 102t14 96.5t14 97.5q13 99 20 164t8 102q1 60 -21 82.5
t-69 22.5q-44 0 -99.5 -32t-107.5 -81t-86 -101l-94 -693h-269zM478 -510q-110 0 -182 46t-101.5 126.5t-12.5 185.5h155q6 -89 36.5 -133.5t115.5 -44.5t125.5 49t51.5 129h156q0 -109 -43.5 -189.5t-121 -124.5t-179.5 -44z" />
    <glyph glyph-name="uni1E2E" unicode="&#x1e2e;" horiz-adv-x="631" 
d="M109 0l202 1494h274l-202 -1494h-274zM246 1644q-51 0 -90.5 42.5t-39.5 94.5q0 75 46.5 123.5t114.5 48.5q59 0 98.5 -40.5t39.5 -94.5q0 -74 -43.5 -124t-125.5 -50zM690 1644q-51 0 -90 42t-39 95q0 74 46 123t114 49q60 0 99.5 -40.5t39.5 -94.5q0 -73 -44 -123.5
t-126 -50.5zM494 2075l-102 83l315 416l177 -154q-13 -24 -47 -63.5t-80.5 -84t-96 -85.5t-93.5 -71.5t-73 -40.5z" />
    <glyph glyph-name="uni1E2F" unicode="&#x1e2f;" horiz-adv-x="611" 
d="M99 0l151 1114h275l-153 -1114h-273zM179 1307q-47 0 -84 39.5t-37 88.5q0 69 43.5 114t106.5 45q56 0 92 -37t36 -88q0 -69 -40.5 -115.5t-116.5 -46.5zM623 1307q-47 0 -83.5 39.5t-36.5 88.5q0 69 43 114t107 45q55 0 91.5 -37t36.5 -88q0 -68 -41 -115t-117 -47z
M404 1663l-95 83l313 416l172 -154q-13 -24 -47.5 -63.5t-81 -84t-95.5 -85.5t-93 -71.5t-73 -40.5z" />
    <glyph glyph-name="uni1E36" unicode="&#x1e36;" horiz-adv-x="999" 
d="M88 0l202 1494h274l-173 -1275l520 8l-33 -227h-790zM442 -513q-54 0 -98 40.5t-44 96.5q0 71 52 122.5t126 51.5q63 0 105 -39t42 -96q0 -74 -51.5 -125t-131.5 -51z" />
    <glyph glyph-name="uni1E37" unicode="&#x1e37;" horiz-adv-x="612" 
d="M101 2l216 1596h274l-216 -1596h-274zM175 -513q-54 0 -98 40.5t-44 96.5q0 71 52 122.5t126 51.5q63 0 105 -39t42 -96q0 -74 -51.5 -125t-131.5 -51z" />
    <glyph glyph-name="uni1E3A" unicode="&#x1e3a;" horiz-adv-x="999" 
d="M88 0l202 1494h274l-173 -1275l520 8l-33 -227h-790zM194 -386l12 182h540l-12 -182h-540z" />
    <glyph glyph-name="uni1E3B" unicode="&#x1e3b;" horiz-adv-x="612" 
d="M101 2l216 1596h274l-216 -1596h-274zM-73 -386l12 182h540l-12 -182h-540z" />
    <glyph glyph-name="uni1E40" unicode="&#x1e40;" horiz-adv-x="1851" 
d="M723 -18l-135 1086l-19 286l-54 -291l-237 -1063h-272l391 1494h383l109 -1032l10 -193l47 193l381 1032h398l-28 -1494h-276l70 1057l25 297l-101 -275l-427 -1081zM1069 1635q-55 0 -98.5 40.5t-43.5 96.5q0 71 52 122t125 51q63 0 105 -39t42 -95q0 -73 -51 -124.5
t-131 -51.5z" />
    <glyph glyph-name="uni1E41" unicode="&#x1e41;" horiz-adv-x="1828" 
d="M78 2l151 1112h263l-17 -203q76 100 175 158.5t206 58.5q105 0 165 -50t72 -164q75 99 173 156.5t204 57.5q121 0 181 -67t60 -221q0 -31 -9.5 -116t-29.5 -224q-16 -114 -32.5 -232t-39.5 -266h-273q6 53 13.5 103t14.5 99.5t14 101.5t15 109t17 121q13 91 20.5 159
t8.5 107q1 60 -21 82.5t-70 22.5q-55 0 -124.5 -49t-125.5 -129q-3 -25 -8 -64.5t-13 -91.5q-8 -58 -17 -120.5t-17.5 -126t-17.5 -123t-16.5 -111t-13.5 -90.5h-273q6 45 15 108.5t19.5 136t21 147.5t18.5 143q12 95 19.5 164.5t8.5 100.5q1 59 -21 82t-70 23
q-30 0 -67.5 -18t-77 -47.5t-73.5 -67t-59 -76.5l-96 -696h-273zM1009 1282q-55 0 -98.5 41t-43.5 97q0 70 52 122t125 52q63 0 105.5 -39t42.5 -96q0 -74 -51.5 -125.5t-131.5 -51.5z" />
    <glyph glyph-name="uni1E42" unicode="&#x1e42;" horiz-adv-x="1851" 
d="M723 -18l-135 1086l-19 286l-54 -291l-237 -1063h-272l391 1494h383l109 -1032l10 -193l47 193l381 1032h398l-28 -1494h-276l70 1057l25 297l-101 -275l-427 -1081zM785 -513q-54 0 -98 40.5t-44 96.5q0 71 52 122.5t126 51.5q63 0 105 -39t42 -96q0 -74 -51.5 -125
t-131.5 -51z" />
    <glyph glyph-name="uni1E43" unicode="&#x1e43;" horiz-adv-x="1828" 
d="M78 2l151 1112h263l-17 -203q76 100 175 158.5t206 58.5q105 0 165 -50t72 -164q75 99 173 156.5t204 57.5q121 0 181 -67t60 -221q0 -31 -9.5 -116t-29.5 -224q-16 -114 -32.5 -232t-39.5 -266h-273q6 53 13.5 103t14.5 99.5t14 101.5t15 109t17 121q13 91 20.5 159
t8.5 107q1 60 -21 82.5t-70 22.5q-55 0 -124.5 -49t-125.5 -129q-3 -25 -8 -64.5t-13 -91.5q-8 -58 -17 -120.5t-17.5 -126t-17.5 -123t-16.5 -111t-13.5 -90.5h-273q6 45 15 108.5t19.5 136t21 147.5t18.5 143q12 95 19.5 164.5t8.5 100.5q1 59 -21 82t-70 23
q-30 0 -67.5 -18t-77 -47.5t-73.5 -67t-59 -76.5l-96 -696h-273zM773 -513q-54 0 -98 40.5t-44 96.5q0 71 52 122.5t126 51.5q63 0 105 -39t42 -96q0 -74 -51.5 -125t-131.5 -51z" />
    <glyph glyph-name="uni1E44" unicode="&#x1e44;" horiz-adv-x="1419" 
d="M88 0l202 1494h253l386 -898l70 -230l16 249l106 879h263l-202 -1494h-242l-389 926l-75 248l-12 -279l-117 -895h-259zM851 1635q-55 0 -98.5 40.5t-43.5 96.5q0 71 52 122t125 51q63 0 105 -39t42 -95q0 -73 -51 -124.5t-131 -51.5z" />
    <glyph glyph-name="uni1E45" unicode="&#x1e45;" horiz-adv-x="1230" 
d="M77 0l152 1114h261l-17 -210q78 103 181 163.5t214 60.5q122 0 184 -67t62 -221q0 -23 -5.5 -74t-15 -120t-19.5 -145q-3 -23 -9 -64t-13.5 -94.5t-16 -113t-17.5 -118t-17 -111.5h-274q9 60 19.5 136.5t23.5 167.5l28 196q15 114 23.5 188t8.5 114q1 60 -20.5 82.5
t-69.5 22.5q-33 0 -73.5 -18.5t-81.5 -50t-77 -70t-62 -78.5l-96 -690h-273zM710 1282q-55 0 -98.5 41t-43.5 97q0 70 52 122t125 52q63 0 105.5 -39t42.5 -96q0 -74 -51.5 -125.5t-131.5 -51.5z" />
    <glyph glyph-name="uni1E46" unicode="&#x1e46;" horiz-adv-x="1419" 
d="M88 0l202 1494h253l386 -898l70 -230l16 249l106 879h263l-202 -1494h-242l-389 926l-75 248l-12 -279l-117 -895h-259zM567 -513q-54 0 -98 40.5t-44 96.5q0 71 52 122.5t126 51.5q63 0 105 -39t42 -96q0 -74 -51.5 -125t-131.5 -51z" />
    <glyph glyph-name="uni1E47" unicode="&#x1e47;" horiz-adv-x="1230" 
d="M77 0l152 1114h261l-17 -210q78 103 181 163.5t214 60.5q122 0 184 -67t62 -221q0 -23 -5.5 -74t-15 -120t-19.5 -145q-3 -23 -9 -64t-13.5 -94.5t-16 -113t-17.5 -118t-17 -111.5h-274q9 60 19.5 136.5t23.5 167.5l28 196q15 114 23.5 188t8.5 114q1 60 -20.5 82.5
t-69.5 22.5q-33 0 -73.5 -18.5t-81.5 -50t-77 -70t-62 -78.5l-96 -690h-273zM474 -513q-54 0 -98 40.5t-44 96.5q0 71 52 122.5t126 51.5q63 0 105 -39t42 -96q0 -74 -51.5 -125t-131.5 -51z" />
    <glyph glyph-name="uni1E48" unicode="&#x1e48;" horiz-adv-x="1419" 
d="M88 0l202 1494h253l386 -898l70 -230l16 249l106 879h263l-202 -1494h-242l-389 926l-75 248l-12 -279l-117 -895h-259zM319 -386l12 182h540l-12 -182h-540z" />
    </font>
</defs>
</svg>
