<?xml version="1.0" standalone="no"?>
<!DOCTYPE svg PUBLIC "-//W3C//DTD SVG 1.1//EN" "http://www.w3.org/Graphics/SVG/1.1/DTD/svg11.dtd" >
<svg xmlns="http://www.w3.org/2000/svg" xmlns:xlink="http://www.w3.org/1999/xlink" version="1.1">
<metadata>
Created by FontForge 20201107 at Fri Aug 21 16:47:58 2020
 By 
Copyright 2019 The Merriweather Project Authors (https://github.com/SorkinType/Merriweather-Sans)
</metadata>
<defs>
<font id="MerriweatherSans-ExtraBoldItalic" horiz-adv-x="0" >
  <font-face 
    font-family="Merriweather Sans ExtraBold"
    font-weight="800"
    font-style="italic"
    font-stretch="normal"
    units-per-em="2000"
    panose-1="0 0 0 0 0 0 0 0 0 0"
    ascent="1600"
    descent="-400"
    x-height="1114"
    cap-height="1494"
    bbox="-624 -692 2788 2652"
    underline-thickness="110"
    underline-position="-299"
    slope="-7.5"
    unicode-range="U+000D-FB02"
  />
<missing-glyph horiz-adv-x="1828" 
d="M208 0v1382h1382v-1382h-1382zM558 214l338 360l354 -360l120 120l-356 358l356 350l-126 122l-344 -358l-348 360l-120 -124l350 -354l-350 -334z" />
    <glyph glyph-name="fi" unicode="fi" horiz-adv-x="1436" 
d="M108 0l124 902h-120l40 212h108l20 102q8 60 28.5 114t51.5 102q65 95 166.5 146.5t231.5 51.5q56 0 99.5 -6t74.5 -18l-60 -232q-12 12 -48 29t-72 17q-52 0 -83 -34t-45 -118l-28 -154h184l-26 -212h-182l-124 -902h-340zM866 0l152 1114h352l-156 -1114h-348z
M1236 1282q-64 0 -115 48t-51 112q0 84 58 142t148 58q72 0 122 -46.5t50 -111.5q0 -88 -56.5 -145t-155.5 -57z" />
    <glyph glyph-name="fl" unicode="fl" horiz-adv-x="1398" 
d="M108 0l124 902h-120l40 212h108l20 102q8 60 28.5 114t51.5 102q65 95 166.5 146.5t231.5 51.5q56 0 99.5 -6t74.5 -18l-60 -232q-12 12 -48 29t-72 17q-52 0 -83 -34t-45 -118l-28 -154h184l-26 -212h-182l-124 -902h-340zM830 0l214 1596h350l-216 -1596h-348z" />
    <glyph glyph-name="f_f" unicode="ff" horiz-adv-x="1496" 
d="M108 0l124 902h-120l40 212h108l20 102q8 60 28.5 114t51.5 102q65 95 166.5 146.5t231.5 51.5q56 0 99.5 -6t74.5 -18l-60 -232q-12 12 -48 29t-72 17q-52 0 -83 -34t-45 -118l-28 -154h184l-26 -212h-182l-124 -902h-340zM856 0l124 902h-120l40 212h108l20 102
q8 60 28.5 114t51.5 102q65 95 166.5 146.5t231.5 51.5q56 0 99.5 -6t74.5 -18l-60 -232q-12 12 -48 29t-72 17q-52 0 -83 -34t-45 -118l-28 -154h184l-26 -212h-182l-124 -902h-340z" />
    <glyph glyph-name="f_f_i" unicode="ffi" horiz-adv-x="2142" 
d="M108 0l124 902h-120l40 212h108l20 102q8 60 28.5 114t51.5 102q65 95 166.5 146.5t231.5 51.5q56 0 99.5 -6t74.5 -18l-60 -232q-12 12 -48 29t-72 17q-52 0 -83 -34t-45 -118l-28 -154h184l-26 -212h-182l-124 -902h-340zM856 0l124 902h-120l40 212h108l20 102
q8 60 28.5 114t51.5 102q65 95 166.5 146.5t231.5 51.5q56 0 99.5 -6t74.5 -18l-60 -232q-12 12 -48 29t-72 17q-52 0 -83 -34t-45 -118l-28 -154h184l-26 -212h-182l-124 -902h-340zM1614 0l152 1114h352l-156 -1114h-348zM1942 1282q-64 0 -115 48t-51 112q0 84 58 142
t148 58q72 0 122 -46.5t50 -111.5q0 -88 -56.5 -145t-155.5 -57z" />
    <glyph glyph-name="f_f_l" unicode="ffl" horiz-adv-x="2146" 
d="M108 0l124 902h-120l40 212h108l20 102q8 60 28.5 114t51.5 102q65 95 166.5 146.5t231.5 51.5q56 0 99.5 -6t74.5 -18l-60 -232q-12 12 -48 29t-72 17q-52 0 -83 -34t-45 -118l-28 -154h184l-26 -212h-182l-124 -902h-340zM856 0l124 902h-120l40 212h108l20 102
q8 60 28.5 114t51.5 102q65 95 166.5 146.5t231.5 51.5q56 0 99.5 -6t74.5 -18l-60 -232q-12 12 -48 29t-72 17q-52 0 -83 -34t-45 -118l-28 -154h184l-26 -212h-182l-124 -902h-340zM1578 0l214 1596h350l-216 -1596h-348z" />
    <glyph glyph-name=".notdef" horiz-adv-x="1828" 
d="M208 0v1382h1382v-1382h-1382zM558 214l338 360l354 -360l120 120l-356 358l356 350l-126 122l-344 -358l-348 360l-120 -124l350 -354l-350 -334z" />
    <glyph glyph-name="uni0000" 
 />
    <glyph glyph-name="uni0000" 
 />
    <glyph glyph-name="nonmarkingreturn" horiz-adv-x="666" 
 />
    <glyph glyph-name="CR" unicode="&#xd;" 
 />
    <glyph glyph-name="space" unicode=" " horiz-adv-x="360" 
 />
    <glyph glyph-name="exclam" unicode="!" horiz-adv-x="670" 
d="M196 476l134 1260h356l-238 -1260h-252zM246 -18q-72 0 -113 41t-41 107q0 86 57 148t147 62q80 0 119 -40t39 -106q0 -94 -56.5 -153t-151.5 -59z" />
    <glyph glyph-name="quotedbl" unicode="&#x22;" horiz-adv-x="1106" 
d="M210 944l84 704h320l-180 -704h-224zM766 944l84 704h320l-180 -704h-224z" />
    <glyph glyph-name="numbersign" unicode="#" horiz-adv-x="1372" 
d="M222 0l54 314h-170l20 222h180l50 294h-176l18 216h188l46 280h238l-44 -280h226l50 280h238l-46 -280h188l-20 -216h-198l-50 -294h182l-20 -222h-194l-52 -314h-234l46 314h-226l-58 -314h-236zM546 536h228l48 294h-226z" />
    <glyph glyph-name="dollar" unicode="$" horiz-adv-x="1176" 
d="M338 -268l46 258q-64 7 -129 21.5t-115.5 32t-69.5 32.5l112 276q35 -27 81.5 -49t97 -35.5t97.5 -13.5q70 0 116.5 15.5t70 46t23.5 76.5q0 71 -47 127t-139 125q-132 99 -198 207t-66 225q0 111 50.5 196.5t137 142t194.5 79.5l44 256h234l-42 -244q89 -6 155 -28.5
t103 -51.5l-106 -274q-23 23 -67.5 42.5t-97.5 31.5t-101 12q-57 0 -97.5 -16t-62.5 -43.5t-22 -62.5q0 -48 23 -87t67 -78.5t106 -88.5q84 -65 147 -127.5t98.5 -133t36.5 -159.5q1 -127 -45 -220t-135.5 -150t-217.5 -76l-48 -264h-234z" />
    <glyph glyph-name="percent" unicode="%" horiz-adv-x="1958" 
d="M524 0l710 1494h222l-690 -1494h-242zM456 658q-154 0 -245 93t-91 259q0 130 59 240.5t161 178t232 67.5q109 0 184 -39.5t113.5 -114.5t38.5 -182q0 -135 -56 -249t-157.5 -183.5t-238.5 -69.5zM478 860q61 0 104 44t65.5 107.5t22.5 122.5q0 74 -32 118t-88 44
q-63 0 -107.5 -42t-68.5 -104t-24 -122q0 -76 34 -122t94 -46zM1446 58q-84 0 -161 42t-126 121t-49 191q0 128 58.5 238.5t160.5 178t233 67.5q109 0 184 -39.5t113.5 -114.5t38.5 -182q0 -135 -56.5 -249t-158 -183.5t-237.5 -69.5zM1468 260q61 0 104 44t65.5 107.5
t22.5 122.5q0 77 -32 119.5t-88 42.5q-64 0 -108.5 -41.5t-68 -103.5t-23.5 -123q0 -76 34 -122t94 -46z" />
    <glyph glyph-name="ampersand" unicode="&#x26;" horiz-adv-x="1528" 
d="M602 -16q-191 0 -324.5 40.5t-203.5 122t-70 205.5q0 95 30 168.5t102 133t198 112.5q-34 80 -56 164.5t-22 151.5q0 131 62.5 227t172 148.5t249.5 52.5q118 0 206.5 -32t138 -99t49.5 -171q0 -111 -52 -196t-142 -155.5t-204 -138.5q69 -109 141 -198t145 -160
q24 32 36 69t12 79q0 15 -1 33t-3 37q-31 -3 -56 -10.5t-42 -19.5l10 218q18 23 54.5 33.5t91.5 10.5h436l-20 -230h-152q0 -66 -12 -126q-30 -141 -130 -244q51 -18 111.5 -23.5t114.5 -2.5l-40 -176q-19 -7 -61.5 -12.5t-93 -8.5t-93.5 -3q-54 0 -118.5 12.5t-123.5 37.5
q-79 -25 -163.5 -37.5t-176.5 -12.5zM626 212q24 0 45.5 1.5t40.5 2.5q-56 56 -97.5 106t-78.5 104.5t-80 123.5q-54 -16 -83 -70t-29 -98q0 -61 33.5 -98.5t96.5 -54.5t152 -17zM624 922q61 37 104 75.5t65.5 81t22.5 91.5q0 62 -28 93t-88 31q-36 0 -63.5 -22t-43 -61.5
t-15.5 -90.5q0 -43 12 -92.5t34 -105.5z" />
    <glyph glyph-name="quotesingle" unicode="'" horiz-adv-x="550" 
d="M210 944l84 704h320l-180 -704h-224z" />
    <glyph glyph-name="parenleft" unicode="(" horiz-adv-x="834" 
d="M476 -342q-112 89 -190 230.5t-119 308t-41 331.5q0 149 26 297t76 286.5t123 260t167.5 218t209.5 160.5l174 -118q-124 -127 -212.5 -255t-144 -263.5t-81.5 -286t-26 -323.5q0 -126 17.5 -232.5t48.5 -197t72 -168.5t88 -146z" />
    <glyph glyph-name="parenright" unicode=")" horiz-adv-x="830" 
d="M144 -354l-174 116q121 124 210 248.5t147 258t86.5 284t28.5 325.5q0 126 -18.5 235t-51 202.5t-75 172.5t-89.5 146l188 104q116 -97 193.5 -236t116 -302t38.5 -332q0 -180 -46.5 -363t-129 -349.5t-191 -298.5t-233.5 -211z" />
    <glyph glyph-name="asterisk" unicode="*" horiz-adv-x="1278" 
d="M540 566l74 322l28 136l-118 -86l-270 -196l-104 204l318 124l126 54l-114 50l-292 126l126 202l252 -198l96 -78l2 132l-8 322h232l-76 -322l-32 -132l118 78l286 200l94 -204l-320 -126l-124 -52l114 -52l292 -124l-146 -202l-234 198l-100 82l6 -136l12 -322h-238z
" />
    <glyph glyph-name="plus" unicode="+" horiz-adv-x="1320" 
d="M486 244l32 270l24 132l-122 -8h-242l34 258h244l114 -12l8 136l30 272h266l-26 -272l-24 -134l94 10h270l-34 -258h-268l-94 8l-6 -132l-34 -270h-266z" />
    <glyph glyph-name="comma" unicode="," horiz-adv-x="514" 
d="M60 -506l-92 124l4 20q68 35 109 105.5t41 140.5q0 62 -24.5 108.5t-59.5 59.5l6 52l154 184q67 -26 110.5 -78.5t64.5 -116t21 -123.5q0 -104 -40 -206q-42 -97 -117 -168.5t-177 -101.5z" />
    <glyph glyph-name="hyphen" unicode="-" horiz-adv-x="1224" 
d="M204 592l36 244h820l-36 -244h-820z" />
    <glyph glyph-name="period" unicode="." horiz-adv-x="514" 
d="M182 -28q-70 0 -111 41t-41 107q0 86 56 148t146 62q83 0 120.5 -40t37.5 -106q0 -94 -56.5 -153t-151.5 -59z" />
    <glyph glyph-name="slash" unicode="/" horiz-adv-x="834" 
d="M-138 -354l840 1914h268l-844 -1914h-264z" />
    <glyph glyph-name="zero" unicode="0" horiz-adv-x="1358" 
d="M608 -16q-117 0 -211 43t-160 121t-101.5 184t-35.5 232q0 191 50 362t142.5 302.5t223 206.5t290.5 75q156 0 268 -77t172 -209.5t60 -299.5q0 -190 -49 -360t-140.5 -300.5t-220 -205t-288.5 -74.5zM634 244q86 0 146.5 63t98 164.5t54.5 218.5t17 224q0 130 -22 203
t-63 103t-97 30q-67 0 -118.5 -42t-88 -113t-60 -158.5t-34.5 -179.5t-11 -175q0 -117 21.5 -191.5t61.5 -110.5t95 -36z" />
    <glyph glyph-name="one" unicode="1" horiz-adv-x="890" 
d="M254 0l158 1100q-57 -24 -127 -37.5t-135 -18.5l-34 220q68 16 154 52.5t171 86t149 105.5h12l210 -24l-210 -1484h-348z" />
    <glyph glyph-name="two" unicode="2" horiz-adv-x="1232" 
d="M66 0l-52 162q103 74 210 158.5t205 175t175.5 182t122.5 181t45 171.5q0 66 -21 112t-63.5 70t-107.5 24q-56 0 -104.5 -16.5t-91.5 -43t-82 -56.5l-156 164q48 65 126.5 115t176.5 78.5t203 28.5q121 0 211 -36t150 -98t89.5 -141t29.5 -165q0 -120 -45.5 -223
t-120.5 -191.5t-165 -164t-181.5 -140.5t-167.5 -121l626 22l-2 -248h-1010z" />
    <glyph glyph-name="three" unicode="3" horiz-adv-x="1172" 
d="M324 -14q-90 0 -153.5 4t-116.5 8l32 242q42 -4 90.5 -7t79.5 -3q122 0 207 16t137 47t76 75.5t24 101.5q0 35 -21 78.5t-64.5 75.5t-110.5 34l-194 -60l16 232q67 10 136.5 33t128.5 58.5t95 82t36 102.5q0 77 -48 115.5t-126 38.5q-77 0 -135 -20.5t-96.5 -48
t-56.5 -47.5l-140 170q67 67 152.5 109.5t184 62.5t203.5 20q113 0 207 -38.5t150.5 -109t56.5 -166.5q0 -100 -39.5 -179t-116 -137.5t-186.5 -97.5q110 -11 185.5 -56t114 -110t38.5 -136q0 -112 -56.5 -202.5t-157.5 -155t-237 -98.5t-295 -34z" />
    <glyph glyph-name="four" unicode="4" horiz-adv-x="1264" 
d="M622 0l42 300h-578l-78 160q83 135 176 309t184.5 361.5t169.5 363.5h338l56 -58l-490 -810l-76 -90l334 18l70 412l298 34l-64 -438l216 12l-38 -274h-216l-38 -300h-306z" />
    <glyph glyph-name="five" unicode="5" horiz-adv-x="1180" 
d="M198 -16q-24 0 -60.5 3t-65.5 13l36 228q23 -4 41.5 -5t34.5 -1q71 0 159.5 15.5t170 52t134 98t52.5 152.5q0 90 -46.5 150t-165.5 60q-35 0 -77 -7.5t-80.5 -19.5t-62.5 -25l-124 132l150 664h604l20 16h174l-80 -284h-456l-76 -288q27 12 86 23t126 11
q93 0 178.5 -38.5t140.5 -125t55 -230.5q0 -142 -64.5 -252.5t-182 -186.5t-275.5 -115.5t-346 -39.5z" />
    <glyph glyph-name="six" unicode="6" horiz-adv-x="1276" 
d="M582 -16q-160 0 -266.5 68.5t-160 185.5t-53.5 262q0 242 99 448.5t285 353.5t446 210l76 -206q-150 -50 -251 -127.5t-156 -150.5t-67 -110q34 22 79 36t91 21t84 7q121 0 206.5 -59t130.5 -155t45 -206q0 -106 -35 -209t-107.5 -186.5t-183 -133t-262.5 -49.5zM608 216
q65 0 109.5 30t72 77.5t40 102.5t12.5 104q0 75 -24.5 121.5t-69.5 68.5t-106 22q-47 0 -84 -12.5t-63 -30.5t-39 -35q-15 -40 -24.5 -79t-9.5 -71q0 -97 26 -163.5t68.5 -100.5t91.5 -34z" />
    <glyph glyph-name="seven" unicode="7" horiz-adv-x="1122" 
d="M154 0l644 1228h-670l40 266h966l48 -64l-634 -1430h-394z" />
    <glyph glyph-name="eight" unicode="8" horiz-adv-x="1264" 
d="M578 -20q-145 0 -258 45t-177.5 128.5t-64.5 198.5q-1 115 45 193.5t122.5 128t168.5 78.5q-47 44 -88 99t-66.5 119t-25.5 134q0 134 67.5 225t180 137t246.5 46q130 0 231.5 -41.5t160 -116t58.5 -172.5q0 -112 -46.5 -187t-121 -123t-158.5 -78q65 -51 131.5 -110.5
t111.5 -131t45 -158.5q0 -130 -78 -222.5t-206 -142t-278 -49.5zM606 192q56 0 98.5 21.5t66 60.5t23.5 92t-33 100t-86 92t-113 92q-42 -28 -78 -63.5t-58 -83.5t-22 -115q0 -85 62 -140.5t140 -55.5zM722 892q63 42 108.5 104.5t45.5 155.5q0 77 -46 116.5t-108 39.5
q-78 0 -123 -54t-45 -140q0 -60 49 -113t119 -109z" />
    <glyph glyph-name="nine" unicode="9" horiz-adv-x="1268" 
d="M380 -16l-78 206q151 50 254 122.5t159.5 140t68.5 103.5q-51 -28 -120 -42t-126 -14q-121 0 -206.5 63.5t-130.5 164t-45 210.5q0 107 33.5 206.5t104 178t180 125t260.5 46.5q160 0 266.5 -68.5t160 -185.5t53.5 -262q0 -241 -100 -443t-287 -345t-447 -206zM656 740
q47 0 88.5 11.5t72 27.5t43.5 31q15 45 23.5 82.5t8.5 79.5q0 97 -25.5 163.5t-68 100.5t-92.5 34q-64 0 -107 -28t-68.5 -72.5t-37 -97t-11.5 -102.5q0 -112 52.5 -171t121.5 -59z" />
    <glyph glyph-name="colon" unicode=":" horiz-adv-x="514" 
d="M162 -28q-70 0 -111 41t-41 107q0 86 56 148t146 62q83 0 120.5 -40t37.5 -106q0 -94 -56.5 -153t-151.5 -59zM252 762q-70 0 -111 41t-41 107q0 86 56 148t146 62q83 0 120.5 -40t37.5 -106q0 -94 -56.5 -153t-151.5 -59z" />
    <glyph glyph-name="semicolon" unicode=";" horiz-adv-x="514" 
d="M60 -506l-92 124l4 20q68 35 109 105.5t41 140.5q0 62 -24.5 108.5t-59.5 59.5l6 52l154 184q67 -26 110.5 -78.5t64.5 -116t21 -123.5q0 -104 -40 -206q-42 -97 -117 -168.5t-177 -101.5zM256 762q-70 0 -111 41t-41 107q0 86 56 148t146 62q83 0 120.5 -40t37.5 -106
q0 -94 -56.5 -153t-151.5 -59z" />
    <glyph glyph-name="less" unicode="&#x3c;" horiz-adv-x="1362" 
d="M1082 176l-888 508l16 126l1004 508l-36 -304l-606 -278l534 -284z" />
    <glyph glyph-name="equal" unicode="=" horiz-adv-x="1060" 
d="M158 790l36 242h820l-36 -242h-820zM104 308l36 242h820l-36 -242h-820z" />
    <glyph glyph-name="greater" unicode="&#x3e;" horiz-adv-x="1362" 
d="M250 178l36 304l606 280l-534 282l24 278l888 -508l-16 -128z" />
    <glyph glyph-name="question" unicode="?" horiz-adv-x="930" 
d="M214 510q-22 38 -34 77t-12 103q0 48 22 90.5t55.5 79.5t68.5 68q71 62 138 108.5t121.5 88.5t86.5 87.5t32 103.5q0 47 -34 84.5t-100.5 59.5t-163.5 22q-55 0 -106 -5.5t-96 -16.5l54 224q26 23 89 37.5t121 14.5q161 0 284.5 -39.5t193.5 -126.5t70 -230
q0 -117 -71 -214.5t-241 -187.5q-43 -22 -93.5 -57t-96 -77.5t-75 -89t-29.5 -92.5q0 -31 6 -63.5t10 -44.5zM294 -18q-70 0 -111 41t-41 107q0 86 56 148t146 62q83 0 120.5 -40t37.5 -106q0 -94 -56.5 -153t-151.5 -59z" />
    <glyph glyph-name="at" unicode="@" horiz-adv-x="1980" 
d="M916 -430q-246 0 -429.5 97.5t-285 276t-101.5 422.5q0 251 80 460.5t226 362t347.5 236t444.5 83.5q212 0 375 -73.5t255 -212t92 -334.5q0 -162 -44 -318t-125.5 -283t-196.5 -202t-258 -75q-55 0 -85.5 42.5t-30.5 109.5q0 35 3 96t9 104q-47 -108 -104.5 -188
t-122 -124t-133.5 -44q-67 0 -122 34.5t-95 93.5t-61.5 133t-21.5 153q0 132 39 252t112 213t175.5 147t229.5 54q33 0 74 -6.5t78.5 -18t61.5 -27.5l192 28q-5 -21 -17 -92t-26.5 -168.5t-28 -201t-22 -192.5t-8.5 -140q0 -24 3 -37t7 -13q50 0 92.5 41.5t75.5 110.5
t55.5 151.5t34.5 165.5t12 153q0 175 -64.5 279.5t-182.5 150.5t-277 46q-180 0 -328.5 -74t-256.5 -201.5t-166.5 -290.5t-58.5 -342q0 -199 71 -338.5t205 -212.5t324 -73q81 0 141.5 8.5t108 23.5t88.5 34l58 -166q-70 -52 -181 -83t-237 -31zM904 290q29 0 63 40.5
t67.5 104.5t62.5 136.5t48.5 139t24.5 109.5q-19 23 -53 32.5t-69 9.5q-48 0 -89.5 -41.5t-72.5 -104.5t-48.5 -129t-17.5 -115q0 -59 7.5 -99.5t26 -61.5t50.5 -21z" />
    <glyph glyph-name="A" unicode="A" horiz-adv-x="1314" 
d="M-120 0l722 1494h440l222 -1494h-348l-30 280h-510l-116 -280h-380zM470 514h388l-74 660l-6 116l-38 -116z" />
    <glyph glyph-name="B" unicode="B" horiz-adv-x="1320" 
d="M520 -16q-11 0 -54.5 2.5t-96.5 5.5t-95.5 5.5t-51.5 2.5h-152l214 1494h160q12 0 60.5 2t107.5 5t104.5 5t51.5 2q165 0 275.5 -37.5t165.5 -112.5t55 -188q0 -150 -75 -252t-221 -132q88 -19 149 -61.5t93 -105t32 -141.5q0 -171 -84 -280t-245.5 -161.5t-392.5 -52.5z
M568 228q68 0 139.5 30t120 83t48.5 121q0 114 -64 153t-198 39q-30 0 -56.5 -1t-49.5 -3l-58 -416q15 -2 33.5 -3.5t39.5 -2t45 -0.5zM542 886q23 -1 44.5 -2.5t43.5 -1.5q138 0 208 60.5t70 187.5q0 80 -50.5 110t-151.5 30q-22 0 -41.5 -0.5t-36 -1.5t-30.5 -2z" />
    <glyph glyph-name="C" unicode="C" horiz-adv-x="1164" 
d="M610 -16q-192 0 -310 88q-118 89 -168 229t-50 309q0 243 102 450q101 207 281.5 328.5t408.5 121.5q53 0 102 -5.5t106.5 -20.5t135.5 -42l-100 -328q-43 41 -113.5 72.5t-166.5 31.5q-139 0 -228 -86q-91 -87 -133.5 -224t-42.5 -298q0 -119 27.5 -195.5t86.5 -113.5
t154 -37q59 0 117 13.5t106 33.5t77 41l46 -242q-23 -19 -73.5 -41t-114 -41.5t-129.5 -31.5t-121 -12z" />
    <glyph glyph-name="D" unicode="D" horiz-adv-x="1390" 
d="M556 -16q-57 0 -130.5 4t-134.5 8t-81 4h-140l214 1494h152q7 0 44.5 1.5t90 4l105 5t91 4t47.5 1.5q296 0 432 -158t136 -442q0 -200 -55.5 -369t-162.5 -294t-260 -194t-348 -69zM604 238q140 0 236 90q95 90 140.5 243t45.5 345q0 131 -30 206q-30 74 -90.5 103
t-161.5 29q-34 0 -77.5 -3t-72.5 -9l-140 -984q30 -10 67.5 -15t82.5 -5z" />
    <glyph glyph-name="E" unicode="E" horiz-adv-x="1176" 
d="M70 0l214 1494h892l-36 -268l-548 2l-48 -330l410 6l-36 -270l-410 8l-54 -378l618 10l-36 -274h-966z" />
    <glyph glyph-name="F" unicode="F" horiz-adv-x="1054" 
d="M70 0l214 1494h838l-42 -268l-488 4l-52 -364l418 6l-36 -284l-422 6l-84 -594h-346z" />
    <glyph glyph-name="G" unicode="G" horiz-adv-x="1394" 
d="M662 -16q-208 0 -342 88q-132 87 -190 225t-58 295q0 266 106 478q105 209 285.5 324.5t400.5 115.5q69 0 119 -3.5t96 -13t101.5 -26.5t135.5 -45l-72 -314q-31 24 -99 52t-147 48t-142 20q-154 0 -252 -92q-97 -93 -139.5 -233.5t-42.5 -292.5q0 -120 32.5 -201.5
t97 -123t160.5 -41.5q47 0 104.5 7t91.5 25l44 280h-244l34 274h562l-104 -752q-22 -3 -49 -9t-59 -15q-112 -30 -211.5 -50t-218.5 -20z" />
    <glyph glyph-name="H" unicode="H" horiz-adv-x="1464" 
d="M58 0l214 1494h346l-92 -648h470l92 648h350l-214 -1494h-348l86 608h-470l-88 -608h-346z" />
    <glyph glyph-name="I" unicode="I" horiz-adv-x="690" 
d="M96 0l214 1494h346l-214 -1494h-346z" />
    <glyph glyph-name="J" unicode="J" horiz-adv-x="680" 
d="M-132 -348l-44 114q44 11 89.5 45.5t85 82t67 97.5t34.5 93q23 109 46.5 258.5t46.5 315.5t44 327t38 294t29 215h348l-180 -1240q-10 -70 -18.5 -115t-13.5 -65q-39 -153 -122.5 -245.5t-199 -134.5t-250.5 -42z" />
    <glyph glyph-name="K" unicode="K" horiz-adv-x="1294" 
d="M58 0l214 1494h336l-96 -654l526 654h396l-592 -658q14 -26 34.5 -65.5t50 -98t71 -141.5l98.5 -197q26 -53 51 -100.5t48 -89t44.5 -77.5t40.5 -67h-406q-4 7 -15 29t-28 59.5t-40.5 90t-52.5 119.5l-124 286l-160 -168l-60 -416h-336z" />
    <glyph glyph-name="L" unicode="L" horiz-adv-x="1036" 
d="M70 0l214 1494h346l-176 -1224l486 12l-42 -282h-828z" />
    <glyph glyph-name="M" unicode="M" horiz-adv-x="1942" 
d="M718 -18l-116 1130l-2 228l-48 -228l-242 -1112h-340l408 1494h504l66 -1028l6 -220l46 220l348 1028h504l-22 -1494h-346l88 1112l26 228l-72 -228l-428 -1114z" />
    <glyph glyph-name="N" unicode="N" horiz-adv-x="1464" 
d="M70 0l214 1494h300l348 -774l76 -254l14 254l94 774h334l-214 -1494h-290l-340 814l-96 268l2 -268l-112 -814h-330z" />
    <glyph glyph-name="O" unicode="O" horiz-adv-x="1360" 
d="M610 -16q-172 0 -292.5 75t-184 206t-63.5 299q0 191 50.5 362t146 302.5t232.5 206.5t309 75q128 0 227 -44t166.5 -123.5t102 -186.5t34.5 -232q0 -190 -49.5 -360t-143.5 -300.5t-229 -205t-306 -74.5zM636 244q86 0 151 63t108.5 164.5t65 218.5t21.5 224
q0 130 -29.5 203t-78 103t-104.5 30q-84 0 -148 -64t-108 -166.5t-66 -218t-22 -219.5q0 -175 64 -256.5t146 -81.5z" />
    <glyph glyph-name="P" unicode="P" horiz-adv-x="1268" 
d="M70 0l214 1494h152q9 0 50 2.5t94.5 5.5t102 5.5t73.5 2.5q257 0 391.5 -109t134.5 -321q0 -173 -74 -306q-75 -138 -220.5 -218t-345.5 -80q-31 0 -81 1t-77 1l-68 -478h-346zM648 734q147 0 215.5 87t78.5 253q0 98 -57 147t-191 49q-19 0 -44 -2.5t-54 -7.5l-74 -514
q18 -4 54 -8t72 -4z" />
    <glyph glyph-name="Q" unicode="Q" horiz-adv-x="1362" 
d="M852 -410q-112 0 -200.5 26.5t-140 84.5t-51.5 153q0 32 6.5 77.5t19.5 82.5l212 -2v-19v-21q0 -49 28 -72.5t79 -30.5t119 -7q107 0 183 6.5t121 19.5v-198q-30 -28 -97.5 -50.5t-144.5 -36t-134 -13.5zM610 -16q-172 0 -292.5 75t-184 206t-63.5 299q0 191 50.5 362
t146 302.5t232.5 206.5t309 75q128 0 227 -44t166.5 -123.5t102 -186.5t34.5 -232q0 -190 -49.5 -360t-143.5 -300.5t-229 -205t-306 -74.5zM636 244q86 0 151 63t108.5 164.5t65 218.5t21.5 224q0 130 -29.5 203t-78 103t-104.5 30q-84 0 -148 -64t-108 -166.5t-66 -218
t-22 -219.5q0 -175 64 -256.5t146 -81.5z" />
    <glyph glyph-name="R" unicode="R" horiz-adv-x="1312" 
d="M70 0l214 1494h196q34 0 85 4t104 8t93 4q284 0 410 -96.5t126 -287.5q0 -181 -77 -315.5t-241 -184.5q27 -24 50.5 -62.5t44.5 -90.5t41 -115q30 -93 53 -162.5t42.5 -117.5t40.5 -78h-382q-10 14 -22.5 54.5t-25 90t-22.5 92t-16 61.5q-10 41 -25.5 86.5t-34 85.5
t-37 65t-35.5 25h-152l-84 -560h-346zM726 826q82 0 133.5 38.5t76 100.5t24.5 133q0 102 -58.5 137t-171.5 35q-23 0 -48.5 -1t-48 -3.5t-37.5 -5.5l-60 -432q26 -1 73.5 -1.5t116.5 -0.5z" />
    <glyph glyph-name="S" unicode="S" horiz-adv-x="1034" 
d="M382 -16q-41 0 -98 8t-115 21.5t-105 30.5t-68 34l116 282q33 -25 82 -48t103 -37.5t101 -14.5q71 0 115 19t64.5 54t20.5 83q0 68 -46 117.5t-138 118.5q-72 55 -128.5 119t-89 137t-32.5 156q0 143 68.5 242.5t186.5 151.5t267 52q116 0 212.5 -26t139.5 -58l-110 -274
q-34 35 -107 60.5t-145 25.5q-60 0 -100.5 -18.5t-61 -49.5t-20.5 -70q0 -45 25.5 -84.5t67.5 -78t93 -79.5q81 -64 142.5 -127.5t95.5 -132.5t34 -150q0 -159 -75 -261.5t-204 -152.5t-291 -50z" />
    <glyph glyph-name="T" unicode="T" horiz-adv-x="1126" 
d="M306 0l178 1236l-352 -10l44 268h1042l-40 -268l-344 10l-176 -1236h-352z" />
    <glyph glyph-name="U" unicode="U" horiz-adv-x="1406" 
d="M606 -16q-247 0 -369.5 115t-124.5 323q0 35 3.5 75.5t10.5 86.5l128 910h346l-124 -868q-4 -39 -10 -83.5t-6 -98.5q0 -108 46 -151t154 -43q85 0 141 50t88.5 134t48.5 186l124 874h344l-128 -910q-15 -109 -42 -196t-66 -152q-79 -132 -216.5 -192t-347.5 -60z" />
    <glyph glyph-name="V" unicode="V" horiz-adv-x="1204" 
d="M320 0l-220 1494h346l116 -956l16 -256l76 256l346 956h368l-646 -1494h-402z" />
    <glyph glyph-name="W" unicode="W" horiz-adv-x="1760" 
d="M276 0l-182 1494h350l56 -956l20 -218l66 218l252 626l-36 330h338l58 -956l22 -218l52 218l326 956h356l-580 -1494h-404l-56 534l-18 164l-60 -164l-194 -534h-366z" />
    <glyph glyph-name="X" unicode="X" horiz-adv-x="1214" 
d="M-96 0l550 790l-314 704h370l174 -482l310 482h376l-532 -776l340 -718h-378l-196 518l-314 -518h-386z" />
    <glyph glyph-name="Y" unicode="Y" horiz-adv-x="1136" 
d="M310 0l82 576l-310 918h362l138 -512l24 -132l58 132l276 512h384l-586 -918l-82 -576h-346z" />
    <glyph glyph-name="Z" unicode="Z" horiz-adv-x="1130" 
d="M-40 0l-26 86l756 1074l90 66l-572 -10l44 278h954l22 -84l-726 -1062l-82 -72l604 10l-46 -286h-1018z" />
    <glyph glyph-name="bracketleft" unicode="[" horiz-adv-x="816" 
d="M278 -252q-91 0 -142.5 47t-51.5 129q0 29 2 56t6 52l204 1446q20 144 78 213t172 69q47 0 113.5 -8.5t125.5 -19.5t83 -18l-26 -172h-248l-210 -1572h250l-22 -168q-82 -24 -154.5 -39t-179.5 -15z" />
    <glyph glyph-name="backslash" unicode="\" horiz-adv-x="834" 
d="M568 -354l-562 1914h262l564 -1914h-264z" />
    <glyph glyph-name="bracketright" unicode="]" horiz-adv-x="816" 
d="M590 1760q92 0 143 -46.5t51 -129.5q0 -28 -1.5 -55t-6.5 -53l-204 -1446q-19 -144 -77.5 -213t-172.5 -69q-47 0 -113.5 8.5t-125.5 19.5t-83 18l26 172h248l210 1572h-250l22 168q83 24 155.5 39t178.5 15z" />
    <glyph glyph-name="asciicircum" unicode="^" horiz-adv-x="1332" 
d="M124 498l518 998h260l262 -998h-266l-156 634l-350 -634h-268z" />
    <glyph glyph-name="underscore" unicode="_" horiz-adv-x="1304" 
d="M-108 -378l20 196h1344l-18 -196h-1346z" />
    <glyph glyph-name="grave" unicode="`" horiz-adv-x="534" 
d="M398 1198q-39 14 -101.5 57t-127.5 98t-115 105.5t-64 79.5l204 194l326 -438z" />
    <glyph glyph-name="a" unicode="a" horiz-adv-x="1224" 
d="M396 -16q-172 0 -250 116t-78 302q0 154 49 286t140 231t217 154t280 55q59 0 125.5 -13t118.5 -31l178 44l-156 -1128h-312l10 242q-48 -108 -130 -183t-192 -75zM518 218q37 0 74 40.5t70 101t58 123.5t38 109l46 326q-27 6 -74 6q-96 0 -162 -72q-67 -73 -101.5 -189
t-34.5 -241q0 -68 9.5 -113.5t28.5 -68t48 -22.5z" />
    <glyph glyph-name="b" unicode="b" horiz-adv-x="1260" 
d="M504 -16q-58 0 -129 14.5t-121 33.5l-180 -32l220 1596h334l-82 -642l-20 -120q31 80 79 147t113 107t146 40q173 0 250.5 -117t77.5 -303q0 -187 -78 -352q-53 -110 -140 -194t-205 -131t-265 -47zM528 190q95 0 164 72q66 72 100 187.5t34 236.5q0 102 -21 153t-65 51
q-40 0 -79.5 -42.5t-73 -105.5t-58 -128t-35.5 -110l-44 -308q27 -6 78 -6z" />
    <glyph glyph-name="c" unicode="c" horiz-adv-x="934" 
d="M476 -16q-122 0 -213 59t-141 160.5t-50 228.5q0 203 78 362t216 246.5t312 87.5q39 0 87.5 -5.5t93 -15t71.5 -21.5l-84 -334q-19 20 -52 45t-71 43t-71 18q-31 0 -64 -21t-60 -57q-43 -54 -71.5 -133.5t-28.5 -160.5q0 -118 28.5 -184t113.5 -66q59 0 126.5 36.5
t103.5 75.5l86 -168q-33 -52 -90.5 -96.5t-138 -72t-181.5 -27.5z" />
    <glyph glyph-name="d" unicode="d" horiz-adv-x="1244" 
d="M396 -16q-172 0 -250 116t-78 302q0 188 80 354q52 111 139 195t205 130.5t262 46.5q20 0 40.5 -1t39.5 -3l64 472h336l-206 -1596h-312l16 272q-32 -77 -80 -142.5t-112 -105.5t-144 -40zM518 222q38 0 76 42t71.5 104.5t58.5 127t38 110.5l42 310q-29 8 -74 8
q-96 0 -162 -72q-67 -73 -101.5 -189t-34.5 -241q0 -67 9.5 -111.5t28.5 -66.5t48 -22z" />
    <glyph glyph-name="e" unicode="e" horiz-adv-x="1086" 
d="M494 -16q-146 0 -238 62q-96 62 -140 163.5t-44 222.5q0 199 84 358q83 161 226.5 249.5t317.5 88.5q112 0 185.5 -33t110 -90.5t36.5 -132.5q0 -100 -45.5 -178.5t-126.5 -138.5t-189 -104.5t-233 -76.5v-14.5v-13.5q6 -64 38 -95t104 -31q55 0 118 25t117 62t81 73
l90 -168q-37 -50 -92.5 -92t-122 -72.5t-138 -47t-139.5 -16.5zM434 548q47 3 93 28t84.5 66t61.5 91.5t23 104.5q0 53 -16.5 76.5t-57.5 23.5q-36 0 -63 -34t-59 -84q-42 -67 -53 -144t-13 -128z" />
    <glyph glyph-name="f" unicode="f" horiz-adv-x="748" 
d="M108 0l124 902h-120l40 212h108l20 102q8 60 28.5 114t51.5 102q65 95 166.5 146.5t231.5 51.5q56 0 99.5 -6t74.5 -18l-60 -232q-12 12 -48 29t-72 17q-52 0 -83 -34t-45 -118l-28 -154h184l-26 -212h-182l-124 -902h-340z" />
    <glyph glyph-name="g" unicode="g" horiz-adv-x="1240" 
d="M384 -504q-45 0 -98.5 6.5t-99 16.5t-66.5 21l50 248q19 -16 68.5 -36.5t107.5 -36t104 -15.5q98 0 145 52t65 154l62 344q-49 -109 -130.5 -187.5t-195.5 -78.5q-172 0 -250 116t-78 302q0 188 80 354q52 111 139 195t205 130.5t262 46.5q59 0 126 -13t116 -31l184 44
l-160 -1156q-12 -88 -42 -159t-74 -125q-87 -103 -222.5 -147.5t-297.5 -44.5zM518 222q37 0 74 40t70 100.5t58 123t38 108.5l44 326q-15 2 -33 3t-39 1q-96 0 -162 -72q-67 -73 -101.5 -189t-34.5 -241q0 -67 9.5 -111.5t28.5 -66.5t48 -22z" />
    <glyph glyph-name="h" unicode="h" horiz-adv-x="1284" 
d="M76 0l216 1596h338l-72 -550l-28 -146q66 108 161 168t207 60q132 0 201 -68t69 -226q0 -11 -6.5 -69t-17.5 -144t-24 -183t-25.5 -187.5t-22 -158t-14.5 -92.5h-348q9 60 17 116t15 108t13.5 99.5t12 91t10.5 83.5q12 101 19.5 168.5t8.5 103.5q2 53 -18 74.5t-62 21.5
q-36 0 -76 -23t-77 -64.5t-65 -96.5l-92 -682h-340z" />
    <glyph glyph-name="i" unicode="i" horiz-adv-x="648" 
d="M78 0l152 1114h352l-156 -1114h-348zM448 1282q-64 0 -115 48t-51 112q0 84 58 142t148 58q72 0 122 -46.5t50 -111.5q0 -88 -56.5 -145t-155.5 -57z" />
    <glyph glyph-name="j" unicode="j" horiz-adv-x="648" 
d="M-92 -516q-60 0 -106.5 8t-69.5 26l70 182q8 -4 25 -9t29 -5q47 0 85.5 36.5t68 94t49 123.5t27.5 124l144 1050h352l-156 -1114q-19 -150 -90 -266.5t-181 -183t-247 -66.5zM425 1272q-64 0 -115 48t-51 112q0 84 58 142t148 58q72 0 122 -46.5t50 -111.5
q0 -88 -56.5 -145t-155.5 -57z" />
    <glyph glyph-name="k" unicode="k" horiz-adv-x="1198" 
d="M76 0l216 1596h340l-216 -1596h-340zM772 0l-242 616q66 37 130 118t114 182t74 198h344q-3 -76 -32 -151t-76.5 -142.5t-106.5 -122.5t-123 -90l316 -608h-398z" />
    <glyph glyph-name="l" unicode="l" horiz-adv-x="650" 
d="M82 0l214 1596h350l-216 -1596h-348z" />
    <glyph glyph-name="m" unicode="m" horiz-adv-x="1918" 
d="M74 0l152 1114h336l-14 -198q71 101 163.5 156.5t204.5 55.5q113 0 179 -51.5t79 -170.5q68 104 163 163t209 59q128 0 195 -68t67 -226q0 -25 -9 -109t-29 -227q-18 -124 -35 -248.5t-35 -249.5h-348q8 62 16 119t15 109t13 99.5t11.5 90t10.5 80.5q11 83 20 156.5
t10 115.5q2 53 -18 74.5t-62 21.5q-49 0 -104.5 -44.5t-97.5 -121.5q-1 -7 -4 -31.5t-8 -62.5q-8 -56 -18.5 -132.5t-22 -156.5t-21 -150t-16.5 -116t-8 -51h-348q11 75 21 143.5t18.5 131t15.5 118.5t13 105q12 101 19.5 168.5t8.5 103.5q2 53 -18 74.5t-62 21.5
q-26 0 -55 -13t-58.5 -36t-56 -55.5t-48.5 -71.5l-96 -690h-348z" />
    <glyph glyph-name="n" unicode="n" horiz-adv-x="1288" 
d="M74 0l152 1114h334l-14 -202q68 102 160.5 159t201.5 57q132 0 201 -68t69 -226q0 -22 -6.5 -79.5t-16 -127t-17.5 -127.5q-3 -20 -10.5 -74t-17 -123.5t-19 -136.5t-16 -113t-7.5 -53h-348q15 100 27.5 188.5t22.5 166t18 143.5q12 101 19.5 168.5t8.5 103.5
q2 53 -18 74.5t-62 21.5q-27 0 -56.5 -13t-58.5 -37.5t-55.5 -58.5t-47.5 -75l-96 -682h-348z" />
    <glyph glyph-name="o" unicode="o" horiz-adv-x="1154" 
d="M470 -16q-138 0 -228 61.5t-134 168.5t-44 244q0 183 72 336q71 153 210.5 243.5t337.5 90.5q138 0 228 -60.5t134 -167t44 -244.5q0 -181 -70 -336q-72 -153 -212 -244.5t-338 -91.5zM516 194q63 0 106 46t69 120t37.5 160.5t11.5 167.5q0 60 -8 113t-31.5 86t-68.5 33
q-61 0 -103.5 -49.5t-68.5 -126.5t-38 -164t-12 -162q0 -112 27 -168t79 -56z" />
    <glyph glyph-name="p" unicode="p" horiz-adv-x="1254" 
d="M8 -480l218 1594h318l-2 -228q50 102 129 172t187 70q174 0 251 -114t77 -300q0 -189 -78 -354q-52 -112 -139 -196.5t-205.5 -132t-263.5 -47.5q-40 0 -82 6l-66 -470h-344zM524 190q96 0 164 74q66 74 100 190t34 240q0 83 -16.5 139.5t-69.5 56.5q-38 0 -77 -42
t-73 -105t-58.5 -128t-35.5 -111l-44 -310q14 -1 33 -2.5t43 -1.5z" />
    <glyph glyph-name="q" unicode="q" horiz-adv-x="1248" 
d="M622 -480l64 480l44 270q-31 -77 -79 -142t-112 -104.5t-143 -39.5q-172 0 -250 116t-78 302q0 154 49 286t140 231t217 154t280 55q60 0 131 -13t119 -31l174 44l-214 -1608h-342zM518 222q35 0 71 38t68.5 96t58 118.5t38.5 105.5l46 340q-15 2 -32.5 3t-37.5 1
q-78 0 -134.5 -46t-92.5 -120.5t-53.5 -162.5t-17.5 -173q0 -67 9.5 -111.5t28.5 -66.5t48 -22z" />
    <glyph glyph-name="r" unicode="r" horiz-adv-x="884" 
d="M76 0l152 1114h336l-16 -232q22 65 64 121t99 90.5t123 34.5q53 0 68 -12l-62 -354q-7 12 -37 19t-59 7q-43 0 -79.5 -8.5t-70 -27.5t-68.5 -50l-102 -702h-348z" />
    <glyph glyph-name="s" unicode="s" horiz-adv-x="954" 
d="M378 -16q-56 0 -122 9.5t-121.5 25t-80.5 33.5l56 274q19 -21 68 -43.5t103.5 -38.5t88.5 -16q66 0 104 17t38 63q0 34 -24.5 61.5t-70 60t-109.5 82.5q-70 60 -109 128t-39 164q0 111 62 183t164.5 106.5t225.5 34.5q48 0 102 -5.5t97.5 -14t60.5 -16.5l-38 -292
q-20 21 -57.5 41.5t-83 33.5t-89.5 13q-60 0 -91 -21.5t-31 -56.5q0 -37 30.5 -69.5t69 -60.5t62.5 -52q63 -48 107 -93t66.5 -95.5t22.5 -115.5q0 -123 -63 -197.5t-168 -108.5t-231 -34z" />
    <glyph glyph-name="t" unicode="t" horiz-adv-x="820" 
d="M344 -20q-106 0 -168 55t-62 155q0 9 3 43t7.5 76.5t9.5 78.5l70 514h-82l36 212h102l96 268h262l-38 -268h218l-22 -212h-222q-23 -167 -38 -275.5t-24 -172t-13 -96.5t-5.5 -48t-1.5 -28q0 -30 14 -47t54 -17q21 0 53 11.5t64 30t53 38.5l54 -166q-52 -40 -116.5 -74.5
t-140.5 -56t-163 -21.5z" />
    <glyph glyph-name="u" unicode="u" horiz-adv-x="1252" 
d="M382 -20q-120 0 -197 61.5t-77 194.5q0 54 9 140t27 204l24 178l24 178l24 178h346l-14 -108t-14 -107.5l-14 -107t-14 -107.5l-14 -108q-13 -99 -19.5 -162t-6.5 -90q0 -46 20 -71t48 -25q33 0 69 24t71 64.5t64 91.5l98 706h348l-152 -1114h-310l6 190
q-55 -88 -146.5 -149t-199.5 -61z" />
    <glyph glyph-name="v" unicode="v" horiz-adv-x="1112" 
d="M244 -20l-54 366l-100 768h344l60 -650l14 -194l48 64q59 92 103.5 213t62.5 251q7 36 13.5 92.5t10.5 116.5t4 107h320q0 -13 6 -41t6 -115q0 -121 -39 -246.5t-112.5 -250t-178.5 -243.5t-236 -226z" />
    <glyph glyph-name="w" unicode="w" horiz-adv-x="1722" 
d="M244 -12l-54 358l-100 768h352l58 -650l12 -204l58 74q41 63 78.5 138.5t66 157t41.5 162.5l-32 322h334l48 -650l12 -204l58 74q39 61 74 140.5t61 167.5t39 176q8 59 14 142.5t6 153.5h310q0 -12 5 -52.5t5 -103.5q0 -167 -64.5 -328.5t-193 -320t-320.5 -317.5
l-254 -4l-34 220l-18 124q-40 -66 -83.5 -122t-95 -109t-115.5 -109z" />
    <glyph glyph-name="x" unicode="x" horiz-adv-x="1028" 
d="M-102 0l440 586l-294 528h400l124 -308l190 308h348l-412 -568l314 -546h-398l-142 324l-212 -324h-358z" />
    <glyph glyph-name="y" unicode="y" horiz-adv-x="1114" 
d="M164 -504q-72 0 -136.5 21t-117.5 51l88 238q35 -24 83 -41t85 -17q45 0 98 32t104.5 85t91.5 115h-202l-54 366l-112 768h344l72 -670l34 -310q32 68 60.5 141.5t53.5 152.5q34 96 52.5 175.5t28 162.5t15.5 190q3 33 3.5 69.5t0.5 88.5h312q3 -15 4.5 -52.5t1.5 -97.5
q0 -148 -36 -307.5t-110 -332.5q-51 -119 -123 -246t-153 -244t-160 -206q-54 -58 -134 -95t-194 -37z" />
    <glyph glyph-name="z" unicode="z" horiz-adv-x="960" 
d="M-10 0l-34 44l542 772l50 36h-418l36 262h802l34 -44l-532 -774l-42 -30h446l-28 -266h-856z" />
    <glyph glyph-name="braceleft" unicode="{" horiz-adv-x="940" 
d="M400 -266q-103 0 -152.5 47t-39.5 129l82 646q5 36 -29.5 62t-86 43t-96.5 27l32 198q93 21 146 38t76.5 37t27.5 49l72 504q20 134 101 195t177 61q33 0 75 -4t86.5 -12t86.5 -18t74 -22l-30 -172h-270l-78 -582q-7 -49 -39.5 -82t-93.5 -57.5t-153 -46.5
q62 -26 116.5 -51t86 -55t25.5 -70l-88 -628h270l-22 -160q-96 -37 -184.5 -56.5t-171.5 -19.5z" />
    <glyph glyph-name="bar" unicode="|" horiz-adv-x="834" 
d="M312 -182v1920h248v-1920h-248z" />
    <glyph glyph-name="braceright" unicode="}" horiz-adv-x="940" 
d="M592 1770q104 0 153.5 -46.5t38.5 -129.5l-82 -646q-5 -36 29.5 -62t86 -43t96.5 -27l-32 -198q-93 -21 -146 -38t-76.5 -37t-27.5 -49l-72 -504q-19 -133 -100.5 -194.5t-177.5 -61.5q-33 0 -75 4t-86.5 12t-86.5 18t-74 22l30 172h270l78 582q7 49 39.5 82.5t93.5 57.5
t153 46q-62 26 -116.5 51t-86 55t-25.5 70l88 628h-270l22 160q96 38 185 57t171 19z" />
    <glyph glyph-name="asciitilde" unicode="~" horiz-adv-x="1110" 
d="M786 656q-72 0 -126 29.5t-104 68.5q-52 41 -87.5 60.5t-82.5 19.5q-42 0 -84 -26.5t-84 -79.5l-144 138q15 52 70 101t127 81t137 32q72 0 129 -30t109 -66q50 -37 83.5 -54.5t70.5 -17.5q53 0 97 26t81 78l132 -136q-15 -57 -66.5 -108.5t-120.5 -83.5t-137 -32z" />
    <glyph glyph-name="uni00A0" unicode="&#xa0;" horiz-adv-x="360" 
 />
    <glyph glyph-name="exclamdown" unicode="&#xa1;" horiz-adv-x="670" 
d="M18 -424l236 1260h252l-132 -1260h-356zM408 982q-82 0 -120 41t-38 105q0 96 57.5 154t150.5 58q71 0 111.5 -41t40.5 -107q0 -84 -56.5 -147t-145.5 -63z" />
    <glyph glyph-name="cent" unicode="&#xa2;" horiz-adv-x="1052" 
d="M288 -268l50 278q-127 47 -188.5 163.5t-61.5 258.5q0 122 31 233t90.5 201.5t144.5 154t194 91.5l64 282h234l-62 -270q54 -7 95 -16.5t69 -21.5l-84 -334q-20 20 -53.5 45t-71.5 43t-71 18q-55 0 -96.5 -32.5t-70 -86t-43 -119.5t-14.5 -134q0 -118 28.5 -184
t113.5 -66q59 0 126.5 36.5t103.5 75.5l88 -168q-43 -66 -128.5 -121t-207.5 -69l-46 -258h-234z" />
    <glyph glyph-name="sterling" unicode="&#xa3;" horiz-adv-x="1456" 
d="M118 -20q-75 0 -115.5 38.5t-40.5 95.5q0 59 41 102.5t102.5 67.5t124.5 26q20 26 38 63t28 97l40 232h-164l28 226h176l24 146q24 135 94 232.5t178.5 149.5t249.5 52q167 0 258 -36t146 -80l-168 -250q-8 28 -40.5 60.5t-79.5 56t-98 23.5q-60 0 -102.5 -23t-69.5 -74
t-40 -135l-20 -122h298l-28 -226h-308q-6 -42 -13 -84t-13 -84q-16 -91 -45 -156.5t-59 -97.5q35 -11 91 -22.5t116 -19.5t107 -8q122 0 187 38t65 104q0 33 -24.5 68.5t-45.5 45.5l204 166q48 -22 85.5 -70t59 -105.5t21.5 -108.5q0 -104 -41.5 -192.5t-143.5 -142
t-285 -53.5q-134 0 -235 21.5t-189 46.5t-184 36q-37 -46 -97 -75t-113 -29z" />
    <glyph glyph-name="currency" unicode="&#xa4;" horiz-adv-x="1500" 
d="M338 100l-138 138l204 204q-34 50 -52 109t-18 123q0 63 17 120.5t51 109.5l-206 204l138 140l206 -208q103 62 224 62q63 0 121.5 -16.5t112.5 -51.5l202 200l136 -138l-202 -204q60 -99 60 -218q0 -61 -16.5 -118t-49.5 -108l206 -206l-138 -138l-206 206
q-51 -31 -107.5 -47.5t-118.5 -16.5q-60 0 -115 15t-105 45zM764 462q56 0 101.5 29.5t72 77.5t26.5 105q0 58 -26.5 105.5t-72 76t-101.5 28.5t-102 -28.5t-73 -76.5t-27 -105t27 -105t73 -77.5t102 -29.5z" />
    <glyph glyph-name="yen" unicode="&#xa5;" horiz-adv-x="1544" 
d="M504 0l40 316h-394l18 178h398l22 170h-400l20 178h310l-254 652h348l162 -546l28 -106l44 106l270 546h412l-450 -652h296l-18 -178h-400l-26 -170h402l-16 -178h-410l-44 -316h-358z" />
    <glyph glyph-name="brokenbar" unicode="&#xa6;" horiz-adv-x="834" 
d="M312 -182v844h248v-844h-248zM312 894v844h248v-844h-248z" />
    <glyph glyph-name="section" unicode="&#xa7;" horiz-adv-x="1372" 
d="M314 1294q13 89 61.5 153.5t121.5 106t159 61t174 19.5q141 0 229.5 -23t130.5 -49l-86 -260q-27 23 -92.5 52.5t-185.5 27.5q-46 0 -84.5 -9t-64 -31t-31.5 -60q-5 -36 25.5 -64.5t84 -54.5t117.5 -54.5t127 -64.5t113.5 -84.5t75.5 -114.5t13 -155q-18 -129 -113 -226
t-227 -166l-122 46q24 26 61 76t68 104.5t37 95.5q9 62 -22 106.5t-87.5 79.5t-125.5 67t-137 68.5t-122.5 83.5t-82.5 112.5t-15 156.5zM1074 176q-14 -97 -65 -166t-126 -113t-163.5 -64.5t-177.5 -20.5q-139 0 -248.5 29.5t-151.5 60.5l88 262q32 -28 113.5 -63
t204.5 -35q49 1 90.5 11.5t68 34t31.5 62.5q5 34 -26 60t-85 48.5t-119 48t-129 58.5t-115 79.5t-76.5 111.5t-13.5 154q17 117 108 208t218 152l136 -58q-23 -26 -58 -63.5t-64.5 -80.5t-35.5 -84q-8 -58 23.5 -97.5t88.5 -69t126 -56.5t137.5 -59.5t123.5 -78t82.5 -111
t14.5 -160.5z" />
    <glyph glyph-name="dieresis" unicode="&#xa8;" horiz-adv-x="798" 
d="M600 1306q-57 0 -100.5 50t-43.5 110q0 81 48.5 138.5t127.5 57.5q66 0 111 -47t45 -107q0 -88 -48 -145t-140 -57zM140 1306q-58 0 -102 51t-44 109q0 83 49.5 139.5t128.5 56.5q65 0 108.5 -47t43.5 -107q0 -90 -46 -146t-138 -56z" />
    <glyph glyph-name="copyright" unicode="&#xa9;" horiz-adv-x="2042" 
d="M170 940q0 179 65.5 334t182 271.5t270.5 182.5t332 66q179 0 333.5 -66t271 -182.5t182 -271.5t65.5 -334q0 -178 -65.5 -334t-182 -273.5t-271 -184t-333.5 -66.5q-178 0 -332 66.5t-270.5 184t-182 273.5t-65.5 334zM310 940q0 -151 53 -284t149 -233.5t225.5 -157.5
t282.5 -57q154 0 284 57t226 157.5t149 233.5t53 284q0 152 -53 284.5t-149 233t-226 157.5t-284 57q-153 0 -282.5 -57t-225.5 -157.5t-149 -233t-53 -284.5zM584 932q0 138 54.5 248.5t162.5 175t267 64.5q83 0 150.5 -17.5t97.5 -34.5l-36 -202q-30 23 -89 38.5
t-119 15.5q-106 0 -173 -69t-69 -183q-1 -162 68.5 -231t175.5 -69q78 0 134 20.5t84 41.5l44 -170q-45 -39 -128.5 -69.5t-181.5 -30.5q-134 0 -233 65t-153.5 172.5t-55.5 234.5z" />
    <glyph glyph-name="ordfeminine" unicode="&#xaa;" horiz-adv-x="940" 
d="M346 708q-121 0 -188.5 72.5t-67.5 193.5q0 151 76 282q77 129 210.5 206.5t299.5 77.5q47 0 100.5 -9t93.5 -21l156 26l-156 -828h-214l-6 152q-66 -67 -143 -109.5t-161 -42.5zM462 894q38 0 82.5 31.5t87.5 80.5l86 386q-10 3 -22 4.5t-26 1.5q-97 0 -160 -66
q-66 -66 -97 -157.5t-31 -168.5q0 -58 17 -85t63 -27z" />
    <glyph glyph-name="guillemotleft" unicode="&#xab;" horiz-adv-x="1964" 
d="M794 128l-640 390l32 186l724 386l56 -200l-420 -300l356 -294zM1582 128l-640 390l32 186l724 386l56 -200l-420 -300l356 -294z" />
    <glyph glyph-name="logicalnot" unicode="&#xac;" horiz-adv-x="1338" 
d="M848 314l36 298h-686l24 222h938l-60 -520h-252z" />
    <glyph glyph-name="uni00AD" unicode="&#xad;" horiz-adv-x="1224" 
d="M204 592l36 244h820l-36 -244h-820z" />
    <glyph glyph-name="registered" unicode="&#xae;" horiz-adv-x="2042" 
d="M166 940q0 178 66 333t183 272t272 183t333 66q179 0 334 -66t272.5 -183t183.5 -272t66 -333t-66 -334t-183.5 -273.5t-272.5 -184t-334 -66.5q-178 0 -333 66.5t-272 184t-183 273.5t-66 334zM306 940q0 -151 54 -284t151.5 -233.5t227.5 -157.5t281 -57
q152 0 282.5 57t228 157.5t151.5 233.5t54 284t-54 283t-151.5 232.5t-228 157.5t-282.5 57q-151 0 -281 -57t-227.5 -157.5t-151.5 -232.5t-54 -283zM684 474v942h47h47q41 0 75.5 1t76.5 2t106 1q180 0 269 -76t89 -192q0 -108 -40.5 -195t-147.5 -117q49 -28 79.5 -73
t54.5 -96.5t52 -98.5q14 -22 26.5 -42.5t39.5 -53.5h-250q-15 17 -24.5 37t-23.5 47q-19 39 -40 91.5t-51.5 98.5t-76.5 66q-6 -1 -23 -1.5t-35.5 -0.5h-29.5v-340h-220zM904 974q14 -3 34.5 -4.5t42 -1.5h39.5q75 0 114.5 39t39.5 117q0 66 -38.5 102t-133.5 34
q-27 0 -49.5 -1t-48.5 -9v-276z" />
    <glyph glyph-name="macron" unicode="&#xaf;" horiz-adv-x="606" 
d="M16 1362l18 214h582l-18 -214h-582z" />
    <glyph glyph-name="degree" unicode="&#xb0;" horiz-adv-x="934" 
d="M548 894q-93 0 -176 46q-79 47 -124.5 125.5t-45.5 172.5q0 101 48 182q47 83 130.5 129.5t189.5 46.5q95 0 178 -46q81 -46 126.5 -124.5t45.5 -173.5q0 -101 -48 -182q-48 -82 -132.5 -129t-191.5 -47zM556 1076q72 0 118 50.5t46 123.5q0 68 -45.5 117t-110.5 49
q-72 0 -118 -50t-46 -124q0 -67 46 -116.5t110 -49.5z" />
    <glyph glyph-name="plusminus" unicode="&#xb1;" horiz-adv-x="1324" 
d="M486 244l32 270l24 132l-122 -8h-242l34 258h244l114 -12l8 136l30 272h266l-26 -272l-24 -134l94 10h270l-34 -258h-268l-94 8l-6 -132l-34 -270h-266zM160 0l16 202h884l-16 -202h-884z" />
    <glyph glyph-name="uni00B2" unicode="&#xb2;" horiz-adv-x="1078" 
d="M106 0l-40 114q102 80 200.5 161.5t178.5 161t127.5 154.5t47.5 141q0 48 -13.5 82t-44 52t-80.5 18q-67 0 -110.5 -16t-91.5 -48l-112 170q33 24 85 54.5t127 53t176 22.5q81 0 151 -24t122 -69t81.5 -108t29.5 -141q0 -105 -50.5 -192.5t-127 -157.5t-154.5 -122.5
t-134 -87.5l470 8v-226h-838z" />
    <glyph glyph-name="uni00B3" unicode="&#xb3;" horiz-adv-x="1030" 
d="M372 -10q-99 0 -159.5 9.5t-102.5 18.5l30 230q27 -7 72 -16.5t108 -9.5q69 0 126.5 16.5t92.5 47t35 72.5q0 32 -17.5 63.5t-68.5 46.5l-144 -38l12 202q53 5 99.5 20t81 38t54 53.5t19.5 66.5q0 33 -30 59.5t-110 26.5q-13 0 -52 -6.5t-83 -21t-73 -38.5l-92 184
q25 24 86.5 49t142.5 42t165 17q96 0 174.5 -31.5t125 -86.5t46.5 -126q0 -78 -22.5 -138t-76 -105t-145.5 -77q80 -6 141 -26.5t95 -62t34 -111.5q0 -84 -43.5 -152t-121 -116t-180 -74t-219.5 -26z" />
    <glyph glyph-name="acute" unicode="&#xb4;" horiz-adv-x="552" 
d="M140 1198l-122 96l326 438l204 -194q-13 -29 -64 -80t-117.5 -106.5t-128.5 -98t-98 -55.5z" />
    <glyph glyph-name="uni00B5" unicode="&#xb5;" horiz-adv-x="1332" 
d="M50 -364l160 1146q4 17 3.5 42t-8 44.5t-23.5 19.5q-24 0 -42.5 -10.5t-41.5 -33.5l-48 160q23 23 76 52t118.5 50.5t125.5 21.5q92 0 150 -42t58 -126q0 -11 -7 -69.5t-17.5 -140.5l-21 -164t-17.5 -142.5t-7 -73.5q0 -67 26 -100.5t78 -33.5q31 0 69 23t67.5 61
t35.5 84l92 710h342q-16 -136 -30 -252.5t-27.5 -220t-25.5 -200t-23 -191.5q-3 -25 8 -42.5t24 -17.5q26 0 58 21t50 49l76 -130q-39 -39 -81.5 -72.5t-97 -54.5t-129.5 -21q-82 0 -128.5 30t-63.5 108q-27 -47 -60 -77t-72 -44.5t-84 -14.5q-46 0 -99 17t-73 57l-64 -422
h-326z" />
    <glyph glyph-name="paragraph" unicode="&#xb6;" horiz-adv-x="1392" 
d="M366 0l100 662q-107 3 -186.5 56.5t-123.5 142.5t-44 199q0 162 79.5 267t219.5 156t323 51q59 0 134.5 -4.5t144 -9t105.5 -4.5h340l-24 -188l-164 -32l-170 -1296h-274l168 1292h-190l-168 -1292h-270z" />
    <glyph glyph-name="periodcentered" unicode="&#xb7;" horiz-adv-x="670" 
d="M298 602q-70 0 -111 41t-41 107q0 86 56 148t146 62q83 0 120.5 -40t37.5 -106q0 -94 -56.5 -153t-151.5 -59z" />
    <glyph glyph-name="cedilla" unicode="&#xb8;" 
d="M194 -460q-94 0 -162.5 17t-85.5 27l36 198q14 -6 53.5 -16t96.5 -10q59 0 105.5 39.5t46.5 106.5q0 56 -8 81.5t-14 46.5l42 4l100 -4q20 -28 41 -81.5t21 -136.5q0 -136 -74.5 -204t-197.5 -68z" />
    <glyph glyph-name="uni00B9" unicode="&#xb9;" horiz-adv-x="736" 
d="M166 0l118 812q-45 -13 -72 -11.5t-80 -6.5l-38 178q81 18 171 63t153 85h2l214 -22l-152 -1098h-316z" />
    <glyph glyph-name="ordmasculine" unicode="&#xba;" horiz-adv-x="928" 
d="M456 700q-103 0 -184 43.5t-127.5 121.5t-46.5 181q0 150 69 264t185.5 178t259.5 64q115 0 197.5 -42.5t126.5 -120t44 -183.5q0 -158 -68 -271.5t-186.5 -174t-269.5 -60.5zM484 864q79 0 125 51t65.5 131.5t19.5 169.5q0 95 -24 136.5t-84 41.5q-63 0 -109 -47.5
t-71.5 -121t-25.5 -151.5q0 -90 25 -150t79 -60z" />
    <glyph glyph-name="guillemotright" unicode="&#xbb;" horiz-adv-x="1964" 
d="M1066 120l-56 200l420 298l-356 294l106 168l642 -388l-32 -186zM278 120l-56 200l420 298l-356 294l108 168l640 -388l-30 -186z" />
    <glyph glyph-name="onequarter" unicode="&#xbc;" horiz-adv-x="2164" 
d="M248 620l118 812q-45 -13 -72 -11.5t-80 -6.5l-38 178q81 18 171 63t153 85h2l214 -22l-152 -1098h-316zM1334 1896h238l-918 -1998h-238zM1608 0l32 218h-452l-80 162q38 59 86 150t99 196.5t96.5 208.5t76.5 185h370l12 -28l-340 -570l-68 -90l228 14l52 338l280 24
l-40 -356l134 8l-34 -242h-130l-28 -218h-294z" />
    <glyph glyph-name="onehalf" unicode="&#xbd;" horiz-adv-x="2198" 
d="M248 620l118 812q-45 -13 -72 -11.5t-80 -6.5l-38 178q81 18 171 63t153 85h2l214 -22l-152 -1098h-316zM1334 1896h238l-918 -1998h-238zM1226 0l-40 114q102 80 200.5 161.5t178.5 161t127.5 154.5t47.5 141q0 48 -13.5 82t-44 52t-80.5 18q-67 0 -110.5 -16t-91.5 -48
l-112 170q33 24 85 54.5t127 53t176 22.5q81 0 151 -24t122 -69t81.5 -108t29.5 -141q0 -105 -50.5 -192.5t-127 -157.5t-154.5 -122.5t-134 -87.5l470 8v-226h-838z" />
    <glyph glyph-name="threequarters" unicode="&#xbe;" horiz-adv-x="2478" 
d="M454 610q-99 0 -159.5 9.5t-102.5 18.5l30 230q27 -7 72 -16.5t108 -9.5q69 0 126.5 16.5t92.5 47t35 72.5q0 32 -17.5 63.5t-68.5 46.5l-144 -38l12 202q53 5 99.5 20t81 38t54 53.5t19.5 66.5q0 33 -30 59.5t-110 26.5q-13 0 -52 -6.5t-83 -21t-73 -38.5l-92 184
q25 24 86.5 49t142.5 42t165 17q96 0 174.5 -31.5t125 -86.5t46.5 -126q0 -78 -22.5 -138t-76 -105t-145.5 -77q80 -6 141 -26.5t95 -62t34 -111.5q0 -84 -43.5 -152t-121 -116t-180 -74t-219.5 -26zM1648 1896h238l-918 -1998h-238zM1922 0l32 218h-452l-80 162
q38 59 86 150t99 196.5t96.5 208.5t76.5 185h370l12 -28l-340 -570l-68 -90l228 14l52 338l280 24l-40 -356l134 8l-34 -242h-130l-28 -218h-294z" />
    <glyph glyph-name="questiondown" unicode="&#xbf;" horiz-adv-x="930" 
d="M798 812q23 -37 34.5 -76t11.5 -104q0 -48 -22 -90.5t-55.5 -79.5t-68.5 -68q-70 -62 -137 -109t-121.5 -88.5t-87 -86.5t-32.5 -104q0 -47 34 -84.5t100.5 -59.5t163.5 -22q56 0 106.5 6t95.5 16l-54 -224q-25 -22 -88 -37t-122 -15q-161 0 -284.5 39.5t-193.5 126.5
t-70 230q0 117 71.5 214.5t240.5 187.5q43 23 93.5 57.5t96 77t75 89t29.5 92.5q0 32 -5.5 64t-10.5 44zM718 1340q71 0 111.5 -41t40.5 -107q0 -85 -56 -147.5t-146 -62.5q-82 0 -120 40t-38 106q0 95 57 153.5t151 58.5z" />
    <glyph glyph-name="Agrave" unicode="&#xc0;" horiz-adv-x="1314" 
d="M-120 0l722 1494h440l222 -1494h-348l-30 280h-510l-116 -280h-380zM470 514h388l-74 660l-6 116l-38 -116zM942 1634q-39 14 -101.5 57t-128 98t-116 105.5t-64.5 79.5l206 194l326 -438z" />
    <glyph glyph-name="Aacute" unicode="&#xc1;" horiz-adv-x="1314" 
d="M-120 0l722 1494h440l222 -1494h-348l-30 280h-510l-116 -280h-380zM470 514h388l-74 660l-6 116l-38 -116zM814 1634l-122 96l326 438l204 -166q-11 -23 -46.5 -64t-85 -89t-102 -93.5t-99 -78.5t-75.5 -43z" />
    <glyph glyph-name="Acircumflex" unicode="&#xc2;" horiz-adv-x="1314" 
d="M-120 0l722 1494h440l222 -1494h-348l-30 280h-510l-116 -280h-380zM470 514h388l-74 660l-6 116l-38 -116zM596 1618l-134 66l362 364h176l208 -364l-152 -66l-176 170z" />
    <glyph glyph-name="Atilde" unicode="&#xc3;" horiz-adv-x="1314" 
d="M-120 0l722 1494h440l222 -1494h-348l-30 280h-510l-116 -280h-380zM470 514h388l-74 660l-6 116l-38 -116zM1016 1644q-64 0 -110.5 24.5t-81.5 61.5q-28 32 -50 48t-60 16q-39 0 -67 -15t-67 -71l-94 132q29 57 67 96.5t82 59.5t91 20q60 0 104 -19.5t78 -60.5
q27 -31 47.5 -48.5t48.5 -17.5q29 0 54.5 13t47 39.5t38.5 67.5l106 -142q-18 -48 -54.5 -95t-83.5 -78t-96 -31z" />
    <glyph glyph-name="Adieresis" unicode="&#xc4;" horiz-adv-x="1314" 
d="M-120 0l722 1494h440l222 -1494h-348l-30 280h-510l-116 -280h-380zM470 514h388l-74 660l-6 116l-38 -116zM620 1658q-58 0 -102 51t-44 109q0 83 49.5 139.5t128.5 56.5q66 0 110 -47t44 -107q0 -90 -46.5 -146t-139.5 -56zM1080 1658q-57 0 -100.5 50t-43.5 110
q0 81 48.5 138.5t127.5 57.5q66 0 111 -47t45 -107q0 -88 -48 -145t-140 -57z" />
    <glyph glyph-name="Aring" unicode="&#xc5;" horiz-adv-x="1314" 
d="M-120 0l722 1494h440l222 -1494h-348l-30 280h-510l-116 -280h-380zM470 514h388l-74 660l-6 116l-38 -116zM844 1626q-142 0 -224 62t-82 176q0 105 60 174q60 68 147 97t175 29q137 0 217.5 -59t80.5 -173q0 -99 -54 -168q-54 -70 -139.5 -104t-180.5 -34zM866 1766
q68 0 115 31t47 107q0 53 -40.5 88.5t-91.5 35.5q-67 0 -116.5 -35t-49.5 -107q0 -49 42.5 -84.5t93.5 -35.5z" />
    <glyph glyph-name="AE" unicode="&#xc6;" horiz-adv-x="1938" 
d="M-118 0l744 1296l-236 32l28 166h1520l-36 -268l-548 2l-48 -330l410 6l-36 -270l-410 8l-54 -378l618 10l-36 -274h-966l42 290h-456l-154 -290h-382zM550 534h358l102 706l-78 8z" />
    <glyph glyph-name="Ccedilla" unicode="&#xc7;" horiz-adv-x="1164" 
d="M610 -16q-192 0 -310 88q-118 89 -168 229t-50 309q0 243 102 450q101 207 281.5 328.5t408.5 121.5q53 0 102 -5.5t106.5 -20.5t135.5 -42l-100 -328q-43 41 -113.5 72.5t-166.5 31.5q-139 0 -228 -86q-91 -87 -133.5 -224t-42.5 -298q0 -119 27.5 -195.5t86.5 -113.5
t154 -37q59 0 117 13.5t106 33.5t77 41l46 -242q-23 -19 -73.5 -41t-114 -41.5t-129.5 -31.5t-121 -12zM444 -460q-94 0 -162.5 17t-85.5 27l36 198q14 -6 53.5 -16t96.5 -10q59 0 105.5 39.5t46.5 106.5q0 56 -8 81.5t-14 46.5l42 4l100 -4q20 -28 41 -81.5t21 -136.5
q0 -136 -74.5 -204t-197.5 -68z" />
    <glyph glyph-name="Egrave" unicode="&#xc8;" horiz-adv-x="1176" 
d="M70 0l214 1494h892l-36 -268l-548 2l-48 -330l410 6l-36 -270l-410 8l-54 -378l618 10l-36 -274h-966zM864 1634q-39 14 -101.5 57t-128 98t-116 105.5t-64.5 79.5l206 194l326 -438z" />
    <glyph glyph-name="Eacute" unicode="&#xc9;" horiz-adv-x="1176" 
d="M70 0l214 1494h892l-36 -268l-548 2l-48 -330l410 6l-36 -270l-410 8l-54 -378l618 10l-36 -274h-966zM736 1634l-122 96l326 438l204 -166q-11 -23 -46.5 -64t-85 -89t-102 -93.5t-99 -78.5t-75.5 -43z" />
    <glyph glyph-name="Ecircumflex" unicode="&#xca;" horiz-adv-x="1176" 
d="M70 0l214 1494h892l-36 -268l-548 2l-48 -330l410 6l-36 -270l-410 8l-54 -378l618 10l-36 -274h-966zM518 1618l-134 66l362 364h176l208 -364l-152 -66l-176 170z" />
    <glyph glyph-name="Edieresis" unicode="&#xcb;" horiz-adv-x="1176" 
d="M70 0l214 1494h892l-36 -268l-548 2l-48 -330l410 6l-36 -270l-410 8l-54 -378l618 10l-36 -274h-966zM542 1658q-58 0 -102 51t-44 109q0 83 49.5 139.5t128.5 56.5q66 0 110 -47t44 -107q0 -90 -46.5 -146t-139.5 -56zM1002 1658q-57 0 -100.5 50t-43.5 110
q0 81 48.5 138.5t127.5 57.5q66 0 111 -47t45 -107q0 -88 -48 -145t-140 -57z" />
    <glyph glyph-name="Igrave" unicode="&#xcc;" horiz-adv-x="690" 
d="M96 0l214 1494h346l-214 -1494h-346zM594 1634q-39 14 -101.5 57t-128 98t-116 105.5t-64.5 79.5l206 194l326 -438z" />
    <glyph glyph-name="Iacute" unicode="&#xcd;" horiz-adv-x="690" 
d="M96 0l214 1494h346l-214 -1494h-346zM466 1634l-122 96l326 438l204 -166q-11 -23 -46.5 -64t-85 -89t-102 -93.5t-99 -78.5t-75.5 -43z" />
    <glyph glyph-name="Icircumflex" unicode="&#xce;" horiz-adv-x="690" 
d="M96 0l214 1494h346l-214 -1494h-346zM248 1618l-134 66l362 364h176l208 -364l-152 -66l-176 170z" />
    <glyph glyph-name="Idieresis" unicode="&#xcf;" horiz-adv-x="690" 
d="M96 0l214 1494h346l-214 -1494h-346zM272 1658q-58 0 -102 51t-44 109q0 83 49.5 139.5t128.5 56.5q66 0 110 -47t44 -107q0 -90 -46.5 -146t-139.5 -56zM732 1658q-57 0 -100.5 50t-43.5 110q0 81 48.5 138.5t127.5 57.5q66 0 111 -47t45 -107q0 -88 -48 -145t-140 -57z
" />
    <glyph glyph-name="Eth" unicode="&#xd0;" horiz-adv-x="1390" 
d="M844 902l-24 -244h-792l24 244h792zM556 -16q-57 0 -130.5 4t-134.5 8t-81 4h-140l214 1494h152q7 0 44.5 1.5t90 4l105 5t91 4t47.5 1.5q296 0 432 -158t136 -442q0 -200 -55.5 -369t-162.5 -294t-260 -194t-348 -69zM604 238q140 0 236 90q95 90 140.5 243t45.5 345
q0 131 -30 206q-30 74 -90.5 103t-161.5 29q-34 0 -77.5 -3t-72.5 -9l-140 -984q30 -10 67.5 -15t82.5 -5z" />
    <glyph glyph-name="Ntilde" unicode="&#xd1;" horiz-adv-x="1464" 
d="M70 0l214 1494h300l348 -774l76 -254l14 254l94 774h334l-214 -1494h-290l-340 814l-96 268l2 -268l-112 -814h-330zM1046 1644q-64 0 -110.5 24.5t-81.5 61.5q-28 32 -50 48t-60 16q-39 0 -67 -15t-67 -71l-94 132q29 57 67 96.5t82 59.5t91 20q60 0 104 -19.5t78 -60.5
q27 -31 47.5 -48.5t48.5 -17.5q29 0 54.5 13t47 39.5t38.5 67.5l106 -142q-18 -48 -54.5 -95t-83.5 -78t-96 -31z" />
    <glyph glyph-name="Ograve" unicode="&#xd2;" horiz-adv-x="1360" 
d="M610 -16q-172 0 -292.5 75t-184 206t-63.5 299q0 191 50.5 362t146 302.5t232.5 206.5t309 75q128 0 227 -44t166.5 -123.5t102 -186.5t34.5 -232q0 -190 -49.5 -360t-143.5 -300.5t-229 -205t-306 -74.5zM636 244q86 0 151 63t108.5 164.5t65 218.5t21.5 224
q0 130 -29.5 203t-78 103t-104.5 30q-84 0 -148 -64t-108 -166.5t-66 -218t-22 -219.5q0 -175 64 -256.5t146 -81.5zM928 1634q-39 14 -101.5 57t-128 98t-116 105.5t-64.5 79.5l206 194l326 -438z" />
    <glyph glyph-name="Oacute" unicode="&#xd3;" horiz-adv-x="1360" 
d="M610 -16q-172 0 -292.5 75t-184 206t-63.5 299q0 191 50.5 362t146 302.5t232.5 206.5t309 75q128 0 227 -44t166.5 -123.5t102 -186.5t34.5 -232q0 -190 -49.5 -360t-143.5 -300.5t-229 -205t-306 -74.5zM636 244q86 0 151 63t108.5 164.5t65 218.5t21.5 224
q0 130 -29.5 203t-78 103t-104.5 30q-84 0 -148 -64t-108 -166.5t-66 -218t-22 -219.5q0 -175 64 -256.5t146 -81.5zM800 1634l-122 96l326 438l204 -166q-11 -23 -46.5 -64t-85 -89t-102 -93.5t-99 -78.5t-75.5 -43z" />
    <glyph glyph-name="Ocircumflex" unicode="&#xd4;" horiz-adv-x="1360" 
d="M610 -16q-172 0 -292.5 75t-184 206t-63.5 299q0 191 50.5 362t146 302.5t232.5 206.5t309 75q128 0 227 -44t166.5 -123.5t102 -186.5t34.5 -232q0 -190 -49.5 -360t-143.5 -300.5t-229 -205t-306 -74.5zM636 244q86 0 151 63t108.5 164.5t65 218.5t21.5 224
q0 130 -29.5 203t-78 103t-104.5 30q-84 0 -148 -64t-108 -166.5t-66 -218t-22 -219.5q0 -175 64 -256.5t146 -81.5zM582 1618l-134 66l362 364h176l208 -364l-152 -66l-176 170z" />
    <glyph glyph-name="Otilde" unicode="&#xd5;" horiz-adv-x="1360" 
d="M610 -16q-172 0 -292.5 75t-184 206t-63.5 299q0 191 50.5 362t146 302.5t232.5 206.5t309 75q128 0 227 -44t166.5 -123.5t102 -186.5t34.5 -232q0 -190 -49.5 -360t-143.5 -300.5t-229 -205t-306 -74.5zM636 244q86 0 151 63t108.5 164.5t65 218.5t21.5 224
q0 130 -29.5 203t-78 103t-104.5 30q-84 0 -148 -64t-108 -166.5t-66 -218t-22 -219.5q0 -175 64 -256.5t146 -81.5zM1002 1644q-64 0 -110.5 24.5t-81.5 61.5q-28 32 -50 48t-60 16q-39 0 -67 -15t-67 -71l-94 132q29 57 67 96.5t82 59.5t91 20q60 0 104 -19.5t78 -60.5
q27 -31 47.5 -48.5t48.5 -17.5q29 0 54.5 13t47 39.5t38.5 67.5l106 -142q-18 -48 -54.5 -95t-83.5 -78t-96 -31z" />
    <glyph glyph-name="Odieresis" unicode="&#xd6;" horiz-adv-x="1360" 
d="M610 -16q-172 0 -292.5 75t-184 206t-63.5 299q0 191 50.5 362t146 302.5t232.5 206.5t309 75q128 0 227 -44t166.5 -123.5t102 -186.5t34.5 -232q0 -190 -49.5 -360t-143.5 -300.5t-229 -205t-306 -74.5zM636 244q86 0 151 63t108.5 164.5t65 218.5t21.5 224
q0 130 -29.5 203t-78 103t-104.5 30q-84 0 -148 -64t-108 -166.5t-66 -218t-22 -219.5q0 -175 64 -256.5t146 -81.5zM606 1658q-58 0 -102 51t-44 109q0 83 49.5 139.5t128.5 56.5q66 0 110 -47t44 -107q0 -90 -46.5 -146t-139.5 -56zM1066 1658q-57 0 -100.5 50t-43.5 110
q0 81 48.5 138.5t127.5 57.5q66 0 111 -47t45 -107q0 -88 -48 -145t-140 -57z" />
    <glyph glyph-name="multiply" unicode="&#xd7;" horiz-adv-x="1364" 
d="M332 242l-170 202l376 328l-306 328l204 182l284 -354l370 354l170 -202l-384 -330l314 -328l-204 -180l-292 352z" />
    <glyph glyph-name="Oslash" unicode="&#xd8;" horiz-adv-x="1360" 
d="M224 -128l-86 46l116 184q-94 78 -142 199t-48 265q0 258 90 474t257.5 344t390.5 128q159 0 274 -68l106 186l88 -46l-114 -200q86 -79 131 -198.5t45 -259.5q0 -257 -88 -472q-88 -214 -253.5 -341t-386.5 -127q-76 0 -143.5 15.5t-126.5 46.5zM630 246q102 0 184 100
q78 101 120 255.5t42 314.5q0 111 -18 180l-458 -806q44 -44 130 -44zM444 386l462 816q-47 50 -142 50q-102 0 -180 -102q-79 -102 -121.5 -256.5t-42.5 -309.5q0 -123 24 -198z" />
    <glyph glyph-name="Ugrave" unicode="&#xd9;" horiz-adv-x="1406" 
d="M606 -16q-247 0 -369.5 115t-124.5 323q0 35 3.5 75.5t10.5 86.5l128 910h346l-124 -868q-4 -39 -10 -83.5t-6 -98.5q0 -108 46 -151t154 -43q85 0 141 50t88.5 134t48.5 186l124 874h344l-128 -910q-15 -109 -42 -196t-66 -152q-79 -132 -216.5 -192t-347.5 -60z
M944 1634q-39 14 -101.5 57t-128 98t-116 105.5t-64.5 79.5l206 194l326 -438z" />
    <glyph glyph-name="Uacute" unicode="&#xda;" horiz-adv-x="1406" 
d="M606 -16q-247 0 -369.5 115t-124.5 323q0 35 3.5 75.5t10.5 86.5l128 910h346l-124 -868q-4 -39 -10 -83.5t-6 -98.5q0 -108 46 -151t154 -43q85 0 141 50t88.5 134t48.5 186l124 874h344l-128 -910q-15 -109 -42 -196t-66 -152q-79 -132 -216.5 -192t-347.5 -60z
M816 1634l-122 96l326 438l204 -166q-11 -23 -46.5 -64t-85 -89t-102 -93.5t-99 -78.5t-75.5 -43z" />
    <glyph glyph-name="Ucircumflex" unicode="&#xdb;" horiz-adv-x="1406" 
d="M606 -16q-247 0 -369.5 115t-124.5 323q0 35 3.5 75.5t10.5 86.5l128 910h346l-124 -868q-4 -39 -10 -83.5t-6 -98.5q0 -108 46 -151t154 -43q85 0 141 50t88.5 134t48.5 186l124 874h344l-128 -910q-15 -109 -42 -196t-66 -152q-79 -132 -216.5 -192t-347.5 -60z
M598 1618l-134 66l362 364h176l208 -364l-152 -66l-176 170z" />
    <glyph glyph-name="Udieresis" unicode="&#xdc;" horiz-adv-x="1406" 
d="M606 -16q-247 0 -369.5 115t-124.5 323q0 35 3.5 75.5t10.5 86.5l128 910h346l-124 -868q-4 -39 -10 -83.5t-6 -98.5q0 -108 46 -151t154 -43q85 0 141 50t88.5 134t48.5 186l124 874h344l-128 -910q-15 -109 -42 -196t-66 -152q-79 -132 -216.5 -192t-347.5 -60z
M622 1658q-58 0 -102 51t-44 109q0 83 49.5 139.5t128.5 56.5q66 0 110 -47t44 -107q0 -90 -46.5 -146t-139.5 -56zM1082 1658q-57 0 -100.5 50t-43.5 110q0 81 48.5 138.5t127.5 57.5q66 0 111 -47t45 -107q0 -88 -48 -145t-140 -57z" />
    <glyph glyph-name="Yacute" unicode="&#xdd;" horiz-adv-x="1136" 
d="M310 0l82 576l-310 918h362l138 -512l24 -132l58 132l276 512h384l-586 -918l-82 -576h-346zM680 1634l-122 96l326 438l204 -166q-11 -23 -46.5 -64t-85 -89t-102 -93.5t-99 -78.5t-75.5 -43z" />
    <glyph glyph-name="Thorn" unicode="&#xde;" horiz-adv-x="1276" 
d="M74 0l210 1494h352l-34 -242q23 2 45 3.5t43 2t42 0.5q254 0 389 -107t135 -311q0 -163 -74 -296q-75 -133 -220.5 -212.5t-345.5 -79.5q-31 0 -80 6t-72 6l-38 -264h-352zM622 510q149 0 219 84t77 240q0 90 -58 137t-192 47h-44t2.5 -0.5t14.5 -1t-7.5 -0.5h-63.5
l-70 -494q18 -6 52 -9t70 -3z" />
    <glyph glyph-name="germandbls" unicode="&#xdf;" horiz-adv-x="1300" 
d="M792 -16q-91 0 -157.5 12t-108.5 34l24 258q23 -25 76.5 -46.5t101.5 -21.5q71 0 112.5 28t41.5 88q0 45 -19 78.5t-42.5 58t-38.5 41.5q-57 65 -84.5 129t-27.5 119q0 66 38.5 119t87.5 105q66 56 99 110.5t33 121.5q0 48 -36 81t-96 33q-67 0 -116.5 -42t-82.5 -112.5
t-53.5 -156.5t-31.5 -175l-116 -846h-338l120 906q31 217 110 359.5t216 212.5t342 70q116 0 207 -33t143 -99t52 -164q0 -115 -42.5 -183t-105.5 -125q-43 -40 -63.5 -68t-20.5 -66q0 -34 19 -73.5t65 -104.5q59 -78 90.5 -143t31.5 -157q0 -116 -55.5 -193.5t-152.5 -116
t-222 -38.5z" />
    <glyph glyph-name="agrave" unicode="&#xe0;" horiz-adv-x="1224" 
d="M396 -16q-172 0 -250 116t-78 302q0 154 49 286t140 231t217 154t280 55q59 0 125.5 -13t118.5 -31l178 44l-156 -1128h-312l10 242q-48 -108 -130 -183t-192 -75zM518 218q37 0 74 40.5t70 101t58 123.5t38 109l46 326q-27 6 -74 6q-96 0 -162 -72q-67 -73 -101.5 -189
t-34.5 -241q0 -68 9.5 -113.5t28.5 -68t48 -22.5zM840 1250q-39 14 -101.5 57t-128 98t-116 105.5t-64.5 79.5l206 194l326 -438z" />
    <glyph glyph-name="aacute" unicode="&#xe1;" horiz-adv-x="1224" 
d="M396 -16q-172 0 -250 116t-78 302q0 154 49 286t140 231t217 154t280 55q59 0 125.5 -13t118.5 -31l178 44l-156 -1128h-312l10 242q-48 -108 -130 -183t-192 -75zM518 218q37 0 74 40.5t70 101t58 123.5t38 109l46 326q-27 6 -74 6q-96 0 -162 -72q-67 -73 -101.5 -189
t-34.5 -241q0 -68 9.5 -113.5t28.5 -68t48 -22.5zM732 1250l-122 96l326 438l204 -166q-11 -23 -46.5 -64t-85 -89t-102 -93.5t-99 -78.5t-75.5 -43z" />
    <glyph glyph-name="acircumflex" unicode="&#xe2;" horiz-adv-x="1224" 
d="M396 -16q-172 0 -250 116t-78 302q0 154 49 286t140 231t217 154t280 55q59 0 125.5 -13t118.5 -31l178 44l-156 -1128h-312l10 242q-48 -108 -130 -183t-192 -75zM518 218q37 0 74 40.5t70 101t58 123.5t38 109l46 326q-27 6 -74 6q-96 0 -162 -72q-67 -73 -101.5 -189
t-34.5 -241q0 -68 9.5 -113.5t28.5 -68t48 -22.5zM540 1254l-134 66l358 344h176l212 -344l-152 -66l-176 188z" />
    <glyph glyph-name="atilde" unicode="&#xe3;" horiz-adv-x="1224" 
d="M396 -16q-172 0 -250 116t-78 302q0 154 49 286t140 231t217 154t280 55q59 0 125.5 -13t118.5 -31l178 44l-156 -1128h-312l10 242q-48 -108 -130 -183t-192 -75zM518 218q37 0 74 40.5t70 101t58 123.5t38 109l46 326q-27 6 -74 6q-96 0 -162 -72q-67 -73 -101.5 -189
t-34.5 -241q0 -68 9.5 -113.5t28.5 -68t48 -22.5zM948 1230q-64 0 -110.5 24.5t-81.5 61.5q-28 32 -50 48t-60 16q-39 0 -67 -15t-67 -71l-94 132q44 86 107 131t133 45q60 0 104 -19.5t78 -60.5q27 -31 47.5 -48.5t48.5 -17.5q29 0 54.5 13t47 39.5t38.5 67.5l106 -142
q-18 -48 -54.5 -95t-83.5 -78t-96 -31z" />
    <glyph glyph-name="adieresis" unicode="&#xe4;" horiz-adv-x="1224" 
d="M396 -16q-172 0 -250 116t-78 302q0 154 49 286t140 231t217 154t280 55q59 0 125.5 -13t118.5 -31l178 44l-156 -1128h-312l10 242q-48 -108 -130 -183t-192 -75zM518 218q37 0 74 40.5t70 101t58 123.5t38 109l46 326q-27 6 -74 6q-96 0 -162 -72q-67 -73 -101.5 -189
t-34.5 -241q0 -68 9.5 -113.5t28.5 -68t48 -22.5zM548 1312q-52 0 -92 46t-40 98q0 75 45 125.5t115 50.5q60 0 100 -42t40 -96q0 -81 -42 -131.5t-126 -50.5zM1008 1312q-51 0 -90.5 45t-39.5 99q0 74 44 125t116 51q59 0 99.5 -42t40.5 -96q0 -79 -43.5 -130.5
t-126.5 -51.5z" />
    <glyph glyph-name="aring" unicode="&#xe5;" horiz-adv-x="1224" 
d="M396 -16q-172 0 -250 116t-78 302q0 154 49 286t140 231t217 154t280 55q59 0 125.5 -13t118.5 -31l178 44l-156 -1128h-312l10 242q-48 -108 -130 -183t-192 -75zM518 218q37 0 74 40.5t70 101t58 123.5t38 109l46 326q-27 6 -74 6q-96 0 -162 -72q-67 -73 -101.5 -189
t-34.5 -241q0 -68 9.5 -113.5t28.5 -68t48 -22.5zM770 1224q-142 0 -224 62t-82 176q0 105 60 174q60 68 147 97t175 29q137 0 217.5 -59t80.5 -173q0 -99 -54 -168q-54 -70 -139.5 -104t-180.5 -34zM792 1364q68 0 115 31t47 107q0 53 -40.5 88.5t-91.5 35.5
q-67 0 -116.5 -35t-49.5 -107q0 -49 42.5 -84.5t93.5 -35.5z" />
    <glyph glyph-name="ae" unicode="&#xe6;" horiz-adv-x="1708" 
d="M378 -16q-172 0 -245 115.5t-73 302.5q0 159 57.5 292t157.5 230t230.5 150.5t276.5 53.5q74 0 142 -17.5t116 -46.5q131 64 282 64q112 0 185.5 -30t110 -87.5t36.5 -138.5q0 -107 -45 -186.5t-125.5 -137.5t-188.5 -100t-233 -74q0 -52 13 -86t43.5 -51t83.5 -17
q56 0 119 25t116.5 62t80.5 73l90 -168q-37 -51 -92.5 -93t-122 -72t-137.5 -46.5t-140 -16.5q-168 0 -268.5 84t-135.5 220q-55 -127 -136.5 -215.5t-197.5 -88.5zM500 240q29 0 60.5 32.5t60.5 83.5t50.5 106.5t30.5 101.5q8 52 21 99.5t31.5 91t42.5 83t53 74.5
q-45 12 -92 12q-88 0 -154.5 -46.5t-110 -123.5t-65.5 -169t-22 -183q0 -43 10 -80t30.5 -59.5t53.5 -22.5zM1056 548q47 3 94 28t86.5 66t63.5 91.5t24 104.5q0 53 -16.5 76.5t-57.5 23.5q-31 0 -64 -27.5t-54 -66.5q-37 -67 -55.5 -153t-20.5 -143z" />
    <glyph glyph-name="ccedilla" unicode="&#xe7;" horiz-adv-x="934" 
d="M476 -16q-122 0 -213 59t-141 160.5t-50 228.5q0 203 78 362t216 246.5t312 87.5q39 0 87.5 -5.5t93 -15t71.5 -21.5l-84 -334q-19 20 -52 45t-71 43t-71 18q-31 0 -64 -21t-60 -57q-43 -54 -71.5 -133.5t-28.5 -160.5q0 -118 28.5 -184t113.5 -66q59 0 126.5 36.5
t103.5 75.5l86 -168q-33 -52 -90.5 -96.5t-138 -72t-181.5 -27.5zM370 -460q-94 0 -162.5 17t-85.5 27l36 198q14 -6 53.5 -16t96.5 -10q59 0 105.5 39.5t46.5 106.5q0 56 -8 81.5t-14 46.5l42 4l100 -4q20 -28 41 -81.5t21 -136.5q0 -136 -74.5 -204t-197.5 -68z" />
    <glyph glyph-name="egrave" unicode="&#xe8;" horiz-adv-x="1086" 
d="M494 -16q-146 0 -238 62q-96 62 -140 163.5t-44 222.5q0 199 84 358q83 161 226.5 249.5t317.5 88.5q112 0 185.5 -33t110 -90.5t36.5 -132.5q0 -100 -45.5 -178.5t-126.5 -138.5t-189 -104.5t-233 -76.5v-14.5v-13.5q6 -64 38 -95t104 -31q55 0 118 25t117 62t81 73
l90 -168q-37 -50 -92.5 -92t-122 -72.5t-138 -47t-139.5 -16.5zM434 548q47 3 93 28t84.5 66t61.5 91.5t23 104.5q0 53 -16.5 76.5t-57.5 23.5q-36 0 -63 -34t-59 -84q-42 -67 -53 -144t-13 -128zM784 1250q-39 14 -101.5 57t-128 98t-116 105.5t-64.5 79.5l206 194
l326 -438z" />
    <glyph glyph-name="eacute" unicode="&#xe9;" horiz-adv-x="1086" 
d="M494 -16q-146 0 -238 62q-96 62 -140 163.5t-44 222.5q0 199 84 358q83 161 226.5 249.5t317.5 88.5q112 0 185.5 -33t110 -90.5t36.5 -132.5q0 -100 -45.5 -178.5t-126.5 -138.5t-189 -104.5t-233 -76.5v-14.5v-13.5q6 -64 38 -95t104 -31q55 0 118 25t117 62t81 73
l90 -168q-37 -50 -92.5 -92t-122 -72.5t-138 -47t-139.5 -16.5zM434 548q47 3 93 28t84.5 66t61.5 91.5t23 104.5q0 53 -16.5 76.5t-57.5 23.5q-36 0 -63 -34t-59 -84q-42 -67 -53 -144t-13 -128zM676 1250l-122 96l326 438l204 -166q-11 -23 -46.5 -64t-85 -89t-102 -93.5
t-99 -78.5t-75.5 -43z" />
    <glyph glyph-name="ecircumflex" unicode="&#xea;" horiz-adv-x="1086" 
d="M494 -16q-146 0 -238 62q-96 62 -140 163.5t-44 222.5q0 199 84 358q83 161 226.5 249.5t317.5 88.5q112 0 185.5 -33t110 -90.5t36.5 -132.5q0 -100 -45.5 -178.5t-126.5 -138.5t-189 -104.5t-233 -76.5v-14.5v-13.5q6 -64 38 -95t104 -31q55 0 118 25t117 62t81 73
l90 -168q-37 -50 -92.5 -92t-122 -72.5t-138 -47t-139.5 -16.5zM434 548q47 3 93 28t84.5 66t61.5 91.5t23 104.5q0 53 -16.5 76.5t-57.5 23.5q-36 0 -63 -34t-59 -84q-42 -67 -53 -144t-13 -128zM484 1254l-134 66l358 344h176l212 -344l-152 -66l-176 188z" />
    <glyph glyph-name="edieresis" unicode="&#xeb;" horiz-adv-x="1086" 
d="M494 -16q-146 0 -238 62q-96 62 -140 163.5t-44 222.5q0 199 84 358q83 161 226.5 249.5t317.5 88.5q112 0 185.5 -33t110 -90.5t36.5 -132.5q0 -100 -45.5 -178.5t-126.5 -138.5t-189 -104.5t-233 -76.5v-14.5v-13.5q6 -64 38 -95t104 -31q55 0 118 25t117 62t81 73
l90 -168q-37 -50 -92.5 -92t-122 -72.5t-138 -47t-139.5 -16.5zM434 548q47 3 93 28t84.5 66t61.5 91.5t23 104.5q0 53 -16.5 76.5t-57.5 23.5q-36 0 -63 -34t-59 -84q-42 -67 -53 -144t-13 -128zM492 1312q-52 0 -92 46t-40 98q0 75 45 125.5t115 50.5q60 0 100 -42t40 -96
q0 -81 -42 -131.5t-126 -50.5zM952 1312q-51 0 -90.5 45t-39.5 99q0 74 44 125t116 51q59 0 99.5 -42t40.5 -96q0 -79 -43.5 -130.5t-126.5 -51.5z" />
    <glyph glyph-name="igrave" unicode="&#xec;" horiz-adv-x="648" 
d="M78 0l152 1114h352l-156 -1114h-348zM484 1250q-39 14 -101.5 57t-128 98t-116 105.5t-64.5 79.5l206 194l326 -438z" />
    <glyph glyph-name="iacute" unicode="&#xed;" horiz-adv-x="648" 
d="M78 0l152 1114h352l-156 -1114h-348zM376 1250l-122 96l326 438l204 -166q-11 -23 -46.5 -64t-85 -89t-102 -93.5t-99 -78.5t-75.5 -43z" />
    <glyph glyph-name="icircumflex" unicode="&#xee;" horiz-adv-x="648" 
d="M78 0l152 1114h352l-156 -1114h-348zM184 1254l-134 66l358 344h176l212 -344l-152 -66l-176 188z" />
    <glyph glyph-name="idieresis" unicode="&#xef;" horiz-adv-x="648" 
d="M78 0l152 1114h352l-156 -1114h-348zM192 1312q-52 0 -92 46t-40 98q0 75 45 125.5t115 50.5q60 0 100 -42t40 -96q0 -81 -42 -131.5t-126 -50.5zM652 1312q-51 0 -90.5 45t-39.5 99q0 74 44 125t116 51q59 0 99.5 -42t40.5 -96q0 -79 -43.5 -130.5t-126.5 -51.5z" />
    <glyph glyph-name="eth" unicode="&#xf0;" horiz-adv-x="1194" 
d="M514 -16q-120 0 -220.5 56t-161 158t-60.5 240q0 127 34.5 250t103 223t170.5 159.5t236 59.5q63 0 108 -11.5t70 -34.5q-6 102 -41 175t-95 151l84 22l-164 -180l-124 110l186 186l2 -120q-63 63 -126 104.5t-146 63.5l58 176q63 -15 123.5 -40.5t118.5 -61t114 -80.5
l-116 -30l192 218l116 -112l-186 -208l18 114q111 -92 182.5 -218.5t105.5 -272.5t34 -297q0 -227 -70 -410q-70 -181 -209 -285.5t-337 -104.5zM544 178q47 0 84 44t64.5 118.5t45 166t26 187.5t8.5 182q-11 23 -28.5 40t-44 26.5t-63.5 9.5t-69.5 -34t-56.5 -88
q-26 -58 -44 -130.5t-27 -146.5t-9 -135q0 -49 8.5 -92t24 -76.5t36 -52.5t45.5 -19z" />
    <glyph glyph-name="ntilde" unicode="&#xf1;" horiz-adv-x="1288" 
d="M74 0l152 1114h334l-14 -202q68 102 160.5 159t201.5 57q132 0 201 -68t69 -226q0 -22 -6.5 -79.5t-16 -127t-17.5 -127.5q-3 -20 -10.5 -74t-17 -123.5t-19 -136.5t-16 -113t-7.5 -53h-348q15 100 27.5 188.5t22.5 166t18 143.5q12 101 19.5 168.5t8.5 103.5
q2 53 -18 74.5t-62 21.5q-27 0 -56.5 -13t-58.5 -37.5t-55.5 -58.5t-47.5 -75l-96 -682h-348zM912 1230q-64 0 -110.5 24.5t-81.5 61.5q-28 32 -50 48t-60 16q-39 0 -67 -15t-67 -71l-94 132q44 86 107 131t133 45q60 0 104 -19.5t78 -60.5q27 -31 47.5 -48.5t48.5 -17.5
q29 0 54.5 13t47 39.5t38.5 67.5l106 -142q-18 -48 -54.5 -95t-83.5 -78t-96 -31z" />
    <glyph glyph-name="ograve" unicode="&#xf2;" horiz-adv-x="1154" 
d="M470 -16q-138 0 -228 61.5t-134 168.5t-44 244q0 183 72 336q71 153 210.5 243.5t337.5 90.5q138 0 228 -60.5t134 -167t44 -244.5q0 -181 -70 -336q-72 -153 -212 -244.5t-338 -91.5zM516 194q63 0 106 46t69 120t37.5 160.5t11.5 167.5q0 60 -8 113t-31.5 86t-68.5 33
q-61 0 -103.5 -49.5t-68.5 -126.5t-38 -164t-12 -162q0 -112 27 -168t79 -56zM740 1250q-39 14 -101.5 57t-128 98t-116 105.5t-64.5 79.5l206 194l326 -438z" />
    <glyph glyph-name="oacute" unicode="&#xf3;" horiz-adv-x="1154" 
d="M470 -16q-138 0 -228 61.5t-134 168.5t-44 244q0 183 72 336q71 153 210.5 243.5t337.5 90.5q138 0 228 -60.5t134 -167t44 -244.5q0 -181 -70 -336q-72 -153 -212 -244.5t-338 -91.5zM516 194q63 0 106 46t69 120t37.5 160.5t11.5 167.5q0 60 -8 113t-31.5 86t-68.5 33
q-61 0 -103.5 -49.5t-68.5 -126.5t-38 -164t-12 -162q0 -112 27 -168t79 -56zM632 1250l-122 96l326 438l204 -166q-11 -23 -46.5 -64t-85 -89t-102 -93.5t-99 -78.5t-75.5 -43z" />
    <glyph glyph-name="ocircumflex" unicode="&#xf4;" horiz-adv-x="1154" 
d="M470 -16q-138 0 -228 61.5t-134 168.5t-44 244q0 183 72 336q71 153 210.5 243.5t337.5 90.5q138 0 228 -60.5t134 -167t44 -244.5q0 -181 -70 -336q-72 -153 -212 -244.5t-338 -91.5zM516 194q63 0 106 46t69 120t37.5 160.5t11.5 167.5q0 60 -8 113t-31.5 86t-68.5 33
q-61 0 -103.5 -49.5t-68.5 -126.5t-38 -164t-12 -162q0 -112 27 -168t79 -56zM440 1254l-134 66l358 344h176l212 -344l-152 -66l-176 188z" />
    <glyph glyph-name="otilde" unicode="&#xf5;" horiz-adv-x="1154" 
d="M470 -16q-138 0 -228 61.5t-134 168.5t-44 244q0 183 72 336q71 153 210.5 243.5t337.5 90.5q138 0 228 -60.5t134 -167t44 -244.5q0 -181 -70 -336q-72 -153 -212 -244.5t-338 -91.5zM516 194q63 0 106 46t69 120t37.5 160.5t11.5 167.5q0 60 -8 113t-31.5 86t-68.5 33
q-61 0 -103.5 -49.5t-68.5 -126.5t-38 -164t-12 -162q0 -112 27 -168t79 -56zM848 1230q-64 0 -110.5 24.5t-81.5 61.5q-28 32 -50 48t-60 16q-39 0 -67 -15t-67 -71l-94 132q44 86 107 131t133 45q60 0 104 -19.5t78 -60.5q27 -31 47.5 -48.5t48.5 -17.5q29 0 54.5 13
t47 39.5t38.5 67.5l106 -142q-18 -48 -54.5 -95t-83.5 -78t-96 -31z" />
    <glyph glyph-name="odieresis" unicode="&#xf6;" horiz-adv-x="1154" 
d="M470 -16q-138 0 -228 61.5t-134 168.5t-44 244q0 183 72 336q71 153 210.5 243.5t337.5 90.5q138 0 228 -60.5t134 -167t44 -244.5q0 -181 -70 -336q-72 -153 -212 -244.5t-338 -91.5zM516 194q63 0 106 46t69 120t37.5 160.5t11.5 167.5q0 60 -8 113t-31.5 86t-68.5 33
q-61 0 -103.5 -49.5t-68.5 -126.5t-38 -164t-12 -162q0 -112 27 -168t79 -56zM448 1312q-52 0 -92 46t-40 98q0 75 45 125.5t115 50.5q60 0 100 -42t40 -96q0 -81 -42 -131.5t-126 -50.5zM908 1312q-51 0 -90.5 45t-39.5 99q0 74 44 125t116 51q59 0 99.5 -42t40.5 -96
q0 -79 -43.5 -130.5t-126.5 -51.5z" />
    <glyph glyph-name="divide" unicode="&#xf7;" horiz-adv-x="1364" 
d="M218 638l36 258l938 -2l-34 -256h-940zM626 140q-70 0 -111 41t-41 107q0 86 56 148t146 62q83 0 120.5 -40t37.5 -106q0 -94 -56.5 -153t-151.5 -59zM726 1032q-70 0 -111 41t-41 107q0 86 56 148t146 62q83 0 120.5 -40t37.5 -106q0 -94 -56.5 -153t-151.5 -59z" />
    <glyph glyph-name="oslash" unicode="&#xf8;" horiz-adv-x="1154" 
d="M232 -136l-88 38l146 250l60 48l408 792l38 42l130 224l84 -38l-130 -222l-60 -52l-426 -814l-36 -46zM470 -16q-138 0 -228 61.5t-134 168.5t-44 244q0 183 72 336q71 153 210.5 243.5t337.5 90.5q138 0 228 -60.5t134 -167t44 -244.5q0 -181 -70 -336
q-72 -153 -212 -244.5t-338 -91.5zM516 194q63 0 106 46t69 120t37.5 160.5t11.5 167.5q0 60 -8 113t-31.5 86t-68.5 33q-61 0 -103.5 -49.5t-68.5 -126.5t-38 -164t-12 -162q0 -112 27 -168t79 -56z" />
    <glyph glyph-name="ugrave" unicode="&#xf9;" horiz-adv-x="1252" 
d="M382 -20q-120 0 -197 61.5t-77 194.5q0 54 9 140t27 204l24 178l24 178l24 178h346l-14 -108t-14 -107.5l-14 -107t-14 -107.5l-14 -108q-13 -99 -19.5 -162t-6.5 -90q0 -46 20 -71t48 -25q33 0 69 24t71 64.5t64 91.5l98 706h348l-152 -1114h-310l6 190
q-55 -88 -146.5 -149t-199.5 -61zM802 1250q-39 14 -101.5 57t-128 98t-116 105.5t-64.5 79.5l206 194l326 -438z" />
    <glyph glyph-name="uacute" unicode="&#xfa;" horiz-adv-x="1252" 
d="M382 -20q-120 0 -197 61.5t-77 194.5q0 54 9 140t27 204l24 178l24 178l24 178h346l-14 -108t-14 -107.5l-14 -107t-14 -107.5l-14 -108q-13 -99 -19.5 -162t-6.5 -90q0 -46 20 -71t48 -25q33 0 69 24t71 64.5t64 91.5l98 706h348l-152 -1114h-310l6 190
q-55 -88 -146.5 -149t-199.5 -61zM694 1250l-122 96l326 438l204 -166q-11 -23 -46.5 -64t-85 -89t-102 -93.5t-99 -78.5t-75.5 -43z" />
    <glyph glyph-name="ucircumflex" unicode="&#xfb;" horiz-adv-x="1252" 
d="M382 -20q-120 0 -197 61.5t-77 194.5q0 54 9 140t27 204l24 178l24 178l24 178h346l-14 -108t-14 -107.5l-14 -107t-14 -107.5l-14 -108q-13 -99 -19.5 -162t-6.5 -90q0 -46 20 -71t48 -25q33 0 69 24t71 64.5t64 91.5l98 706h348l-152 -1114h-310l6 190
q-55 -88 -146.5 -149t-199.5 -61zM502 1254l-134 66l358 344h176l212 -344l-152 -66l-176 188z" />
    <glyph glyph-name="udieresis" unicode="&#xfc;" horiz-adv-x="1252" 
d="M382 -20q-120 0 -197 61.5t-77 194.5q0 54 9 140t27 204l24 178l24 178l24 178h346l-14 -108t-14 -107.5l-14 -107t-14 -107.5l-14 -108q-13 -99 -19.5 -162t-6.5 -90q0 -46 20 -71t48 -25q33 0 69 24t71 64.5t64 91.5l98 706h348l-152 -1114h-310l6 190
q-55 -88 -146.5 -149t-199.5 -61zM510 1312q-52 0 -92 46t-40 98q0 75 45 125.5t115 50.5q60 0 100 -42t40 -96q0 -81 -42 -131.5t-126 -50.5zM970 1312q-51 0 -90.5 45t-39.5 99q0 74 44 125t116 51q59 0 99.5 -42t40.5 -96q0 -79 -43.5 -130.5t-126.5 -51.5z" />
    <glyph glyph-name="yacute" unicode="&#xfd;" horiz-adv-x="1114" 
d="M164 -504q-72 0 -136.5 21t-117.5 51l88 238q35 -24 83 -41t85 -17q45 0 98 32t104.5 85t91.5 115h-202l-54 366l-112 768h344l72 -670l34 -310q32 68 60.5 141.5t53.5 152.5q34 96 52.5 175.5t28 162.5t15.5 190q3 33 3.5 69.5t0.5 88.5h312q3 -15 4.5 -52.5t1.5 -97.5
q0 -148 -36 -307.5t-110 -332.5q-51 -119 -123 -246t-153 -244t-160 -206q-54 -58 -134 -95t-194 -37zM586 1250l-122 96l326 438l204 -166q-11 -23 -46.5 -64t-85 -89t-102 -93.5t-99 -78.5t-75.5 -43z" />
    <glyph glyph-name="thorn" unicode="&#xfe;" horiz-adv-x="1260" 
d="M8 -480l66 480l220 1596h334l-82 -642l-20 -120q31 80 79 147t113 107t146 40q173 0 250.5 -117t77.5 -303q0 -187 -78 -352q-53 -110 -140 -194t-205 -131t-265 -47q-22 0 -47.5 3t-54.5 7l-10 -132l-38 -342h-346zM528 190q95 0 164 72q66 72 100 187.5t34 236.5
q0 102 -21 153t-65 51q-34 0 -72.5 -39.5t-82 -117t-91.5 -191.5l-44 -346q27 -6 78 -6z" />
    <glyph glyph-name="ydieresis" unicode="&#xff;" horiz-adv-x="1114" 
d="M164 -504q-72 0 -136.5 21t-117.5 51l88 238q35 -24 83 -41t85 -17q45 0 98 32t104.5 85t91.5 115h-202l-54 366l-112 768h344l72 -670l34 -310q32 68 60.5 141.5t53.5 152.5q34 96 52.5 175.5t28 162.5t15.5 190q3 33 3.5 69.5t0.5 88.5h312q3 -15 4.5 -52.5t1.5 -97.5
q0 -148 -36 -307.5t-110 -332.5q-51 -119 -123 -246t-153 -244t-160 -206q-54 -58 -134 -95t-194 -37zM402 1312q-52 0 -92 46t-40 98q0 75 45 125.5t115 50.5q60 0 100 -42t40 -96q0 -81 -42 -131.5t-126 -50.5zM862 1312q-51 0 -90.5 45t-39.5 99q0 74 44 125t116 51
q59 0 99.5 -42t40.5 -96q0 -79 -43.5 -130.5t-126.5 -51.5z" />
    <glyph glyph-name="Amacron" unicode="&#x100;" horiz-adv-x="1314" 
d="M-120 0l722 1494h440l222 -1494h-348l-30 280h-510l-116 -280h-380zM470 514h388l-74 660l-6 116l-38 -116zM558 1634l18 214h582l-18 -214h-582z" />
    <glyph glyph-name="amacron" unicode="&#x101;" horiz-adv-x="1224" 
d="M396 -16q-172 0 -250 116t-78 302q0 154 49 286t140 231t217 154t280 55q59 0 125.5 -13t118.5 -31l178 44l-156 -1128h-312l10 242q-48 -108 -130 -183t-192 -75zM518 218q37 0 74 40.5t70 101t58 123.5t38 109l46 326q-27 6 -74 6q-96 0 -162 -72q-67 -73 -101.5 -189
t-34.5 -241q0 -68 9.5 -113.5t28.5 -68t48 -22.5zM490 1300l26 214h582l-26 -214h-582z" />
    <glyph glyph-name="Abreve" unicode="&#x102;" horiz-adv-x="1314" 
d="M-120 0l722 1494h440l222 -1494h-348l-30 280h-510l-116 -280h-380zM470 514h388l-74 660l-6 116l-38 -116zM854 1634q-122 0 -198 45.5t-103.5 129t-4.5 197.5h184q-10 -90 17.5 -125t120.5 -35q52 0 84.5 20t50 56t25.5 84h180q0 -120 -43 -203t-123 -126t-190 -43z
" />
    <glyph glyph-name="abreve" unicode="&#x103;" horiz-adv-x="1224" 
d="M396 -16q-172 0 -250 116t-78 302q0 154 49 286t140 231t217 154t280 55q59 0 125.5 -13t118.5 -31l178 44l-156 -1128h-312l10 242q-48 -108 -130 -183t-192 -75zM518 218q37 0 74 40.5t70 101t58 123.5t38 109l46 326q-27 6 -74 6q-96 0 -162 -72q-67 -73 -101.5 -189
t-34.5 -241q0 -68 9.5 -113.5t28.5 -68t48 -22.5zM794 1264q-122 0 -198 45.5t-103.5 129t-4.5 197.5h184q-7 -60 2.5 -95t41.5 -50t94 -15q52 0 84.5 20t50 56t25.5 84h180q0 -120 -43 -203t-123 -126t-190 -43z" />
    <glyph glyph-name="Aogonek" unicode="&#x104;" horiz-adv-x="1314" 
d="M-120 0l722 1494h440l222 -1494h-348l-30 280h-510l-116 -280h-380zM470 514h388l-74 660l-6 116l-38 -116zM882 -506q-79 0 -134.5 47.5t-55.5 122.5q0 58 33 110t85.5 96t112 78.5t113.5 57.5l78 33l102 -39q-133 -78 -199.5 -144.5t-66.5 -113.5q0 -40 18.5 -56
t49.5 -16q48 0 85 23.5t83 60.5l54 -110q-44 -45 -91 -78.5t-110.5 -52.5t-156.5 -19z" />
    <glyph glyph-name="aogonek" unicode="&#x105;" horiz-adv-x="1224" 
d="M396 -16q-172 0 -250 116t-78 302q0 154 49 286t140 231t217 154t280 55q59 0 125.5 -13t118.5 -31l178 44l-156 -1128h-312l10 242q-48 -108 -130 -183t-192 -75zM518 218q37 0 74 40.5t70 101t58 123.5t38 109l46 326q-27 6 -74 6q-96 0 -162 -72q-67 -73 -101.5 -189
t-34.5 -241q0 -68 9.5 -113.5t28.5 -68t48 -22.5zM745 -468q-79 0 -134.5 47.5t-55.5 122.5q0 62 37 116.5t95 100.5t119 81l90 51l124 -51q-97 -66 -152 -122.5t-55 -97.5q0 -40 18.5 -56t49.5 -16q38 0 80 23.5t88 60.5l54 -110q-66 -67 -161.5 -108.5t-196.5 -41.5z" />
    <glyph glyph-name="Cacute" unicode="&#x106;" horiz-adv-x="1164" 
d="M610 -16q-192 0 -310 88q-118 89 -168 229t-50 309q0 243 102 450q101 207 281.5 328.5t408.5 121.5q53 0 102 -5.5t106.5 -20.5t135.5 -42l-100 -328q-43 41 -113.5 72.5t-166.5 31.5q-139 0 -228 -86q-91 -87 -133.5 -224t-42.5 -298q0 -119 27.5 -195.5t86.5 -113.5
t154 -37q59 0 117 13.5t106 33.5t77 41l46 -242q-23 -19 -73.5 -41t-114 -41.5t-129.5 -31.5t-121 -12zM858 1634l-122 96l326 438l204 -166q-11 -23 -46.5 -64t-85 -89t-102 -93.5t-99 -78.5t-75.5 -43z" />
    <glyph glyph-name="cacute" unicode="&#x107;" horiz-adv-x="934" 
d="M476 -16q-122 0 -213 59t-141 160.5t-50 228.5q0 203 78 362t216 246.5t312 87.5q39 0 87.5 -5.5t93 -15t71.5 -21.5l-84 -334q-19 20 -52 45t-71 43t-71 18q-31 0 -64 -21t-60 -57q-43 -54 -71.5 -133.5t-28.5 -160.5q0 -118 28.5 -184t113.5 -66q59 0 126.5 36.5
t103.5 75.5l86 -168q-33 -52 -90.5 -96.5t-138 -72t-181.5 -27.5zM636 1250l-122 96l326 438l204 -166q-11 -23 -46.5 -64t-85 -89t-102 -93.5t-99 -78.5t-75.5 -43z" />
    <glyph glyph-name="Ccircumflex" unicode="&#x108;" horiz-adv-x="1164" 
d="M610 -16q-192 0 -310 88q-118 89 -168 229t-50 309q0 243 102 450q101 207 281.5 328.5t408.5 121.5q53 0 102 -5.5t106.5 -20.5t135.5 -42l-100 -328q-43 41 -113.5 72.5t-166.5 31.5q-139 0 -228 -86q-91 -87 -133.5 -224t-42.5 -298q0 -119 27.5 -195.5t86.5 -113.5
t154 -37q59 0 117 13.5t106 33.5t77 41l46 -242q-23 -19 -73.5 -41t-114 -41.5t-129.5 -31.5t-121 -12zM640 1618l-134 66l362 364h176l208 -364l-152 -66l-176 170z" />
    <glyph glyph-name="ccircumflex" unicode="&#x109;" horiz-adv-x="934" 
d="M476 -16q-122 0 -213 59t-141 160.5t-50 228.5q0 203 78 362t216 246.5t312 87.5q39 0 87.5 -5.5t93 -15t71.5 -21.5l-84 -334q-19 20 -52 45t-71 43t-71 18q-31 0 -64 -21t-60 -57q-43 -54 -71.5 -133.5t-28.5 -160.5q0 -118 28.5 -184t113.5 -66q59 0 126.5 36.5
t103.5 75.5l86 -168q-33 -52 -90.5 -96.5t-138 -72t-181.5 -27.5zM444 1254l-134 66l358 344h176l212 -344l-152 -66l-176 188z" />
    <glyph glyph-name="Cdotaccent" unicode="&#x10a;" horiz-adv-x="1164" 
d="M610 -16q-192 0 -310 88q-118 89 -168 229t-50 309q0 243 102 450q101 207 281.5 328.5t408.5 121.5q53 0 102 -5.5t106.5 -20.5t135.5 -42l-100 -328q-43 41 -113.5 72.5t-166.5 31.5q-139 0 -228 -86q-91 -87 -133.5 -224t-42.5 -298q0 -119 27.5 -195.5t86.5 -113.5
t154 -37q59 0 117 13.5t106 33.5t77 41l46 -242q-23 -19 -73.5 -41t-114 -41.5t-129.5 -31.5t-121 -12zM890 1634q-64 0 -116 48t-52 112q0 84 59 142t149 58q72 0 122 -46.5t50 -111.5q0 -88 -56.5 -145t-155.5 -57z" />
    <glyph glyph-name="cdotaccent" unicode="&#x10b;" horiz-adv-x="934" 
d="M476 -16q-122 0 -213 59t-141 160.5t-50 228.5q0 203 78 362t216 246.5t312 87.5q39 0 87.5 -5.5t93 -15t71.5 -21.5l-84 -334q-19 20 -52 45t-71 43t-71 18q-31 0 -64 -21t-60 -57q-43 -54 -71.5 -133.5t-28.5 -160.5q0 -118 28.5 -184t113.5 -66q59 0 126.5 36.5
t103.5 75.5l86 -168q-33 -52 -90.5 -96.5t-138 -72t-181.5 -27.5zM670 1272q-64 0 -116 48t-52 112q0 84 59 142t149 58q72 0 122 -46.5t50 -111.5q0 -88 -56.5 -145t-155.5 -57z" />
    <glyph glyph-name="Ccaron" unicode="&#x10c;" horiz-adv-x="1164" 
d="M610 -16q-192 0 -310 88q-118 89 -168 229t-50 309q0 243 102 450q101 207 281.5 328.5t408.5 121.5q53 0 102 -5.5t106.5 -20.5t135.5 -42l-100 -328q-43 41 -113.5 72.5t-166.5 31.5q-139 0 -228 -86q-91 -87 -133.5 -224t-42.5 -298q0 -119 27.5 -195.5t86.5 -113.5
t154 -37q59 0 117 13.5t106 33.5t77 41l46 -242q-23 -19 -73.5 -41t-114 -41.5t-129.5 -31.5t-121 -12zM794 1634l-206 366l122 66l208 -186l270 186l144 -66l-362 -366h-176z" />
    <glyph glyph-name="ccaron" unicode="&#x10d;" horiz-adv-x="934" 
d="M476 -16q-122 0 -213 59t-141 160.5t-50 228.5q0 203 78 362t216 246.5t312 87.5q39 0 87.5 -5.5t93 -15t71.5 -21.5l-84 -334q-19 20 -52 45t-71 43t-71 18q-31 0 -64 -21t-60 -57q-43 -54 -71.5 -133.5t-28.5 -160.5q0 -118 28.5 -184t113.5 -66q59 0 126.5 36.5
t103.5 75.5l86 -168q-33 -52 -90.5 -96.5t-138 -72t-181.5 -27.5zM592 1266l-238 352l116 92l238 -218l276 218l104 -92l-320 -352h-176z" />
    <glyph glyph-name="Dcaron" unicode="&#x10e;" horiz-adv-x="1390" 
d="M556 -16q-57 0 -130.5 4t-134.5 8t-81 4h-140l214 1494h152q7 0 44.5 1.5t90 4l105 5t91 4t47.5 1.5q296 0 432 -158t136 -442q0 -200 -55.5 -369t-162.5 -294t-260 -194t-348 -69zM604 238q140 0 236 90q95 90 140.5 243t45.5 345q0 131 -30 206q-30 74 -90.5 103
t-161.5 29q-34 0 -77.5 -3t-72.5 -9l-140 -984q30 -10 67.5 -15t82.5 -5zM744 1634l-206 366l122 66l208 -186l270 186l144 -66l-362 -366h-176z" />
    <glyph glyph-name="dcaron" unicode="&#x10f;" horiz-adv-x="1562" 
d="M1504 1012l-146 28l-6 24q18 48 29 130t11 164q0 81 -6 130.5t-18 65.5l18 42l224 46q18 -18 28 -70t10 -114q0 -81 -17.5 -165.5t-49.5 -158.5t-77 -122zM396 -16q-172 0 -250 116t-78 302q0 188 80 354q52 111 139 195t205 130.5t262 46.5q20 0 40.5 -1t39.5 -3l64 472
h336l-206 -1596h-312l16 272q-32 -77 -80 -142.5t-112 -105.5t-144 -40zM518 222q38 0 76 42t71.5 104.5t58.5 127t38 110.5l42 310q-29 8 -74 8q-96 0 -162 -72q-67 -73 -101.5 -189t-34.5 -241q0 -67 9.5 -111.5t28.5 -66.5t48 -22z" />
    <glyph glyph-name="Dcroat" unicode="&#x110;" horiz-adv-x="1390" 
d="M844 902l-24 -244h-792l24 244h792zM556 -16q-57 0 -130.5 4t-134.5 8t-81 4h-140l214 1494h152q7 0 44.5 1.5t90 4l105 5t91 4t47.5 1.5q296 0 432 -158t136 -442q0 -200 -55.5 -369t-162.5 -294t-260 -194t-348 -69zM604 238q140 0 236 90q95 90 140.5 243t45.5 345
q0 131 -30 206q-30 74 -90.5 103t-161.5 29q-34 0 -77.5 -3t-72.5 -9l-140 -984q30 -10 67.5 -15t82.5 -5z" />
    <glyph glyph-name="dcroat" unicode="&#x111;" horiz-adv-x="1244" 
d="M626 1232l16 128h726l-16 -128h-726zM396 -16q-172 0 -250 116t-78 302q0 188 80 354q52 111 139 195t205 130.5t262 46.5q20 0 40.5 -1t39.5 -3l64 472h336l-206 -1596h-312l16 272q-32 -77 -80 -142.5t-112 -105.5t-144 -40zM518 222q38 0 76 42t71.5 104.5t58.5 127
t38 110.5l42 310q-29 8 -74 8q-96 0 -162 -72q-67 -73 -101.5 -189t-34.5 -241q0 -67 9.5 -111.5t28.5 -66.5t48 -22z" />
    <glyph glyph-name="Emacron" unicode="&#x112;" horiz-adv-x="1176" 
d="M70 0l214 1494h892l-36 -268l-548 2l-48 -330l410 6l-36 -270l-410 8l-54 -378l618 10l-36 -274h-966zM480 1634l18 214h582l-18 -214h-582z" />
    <glyph glyph-name="emacron" unicode="&#x113;" horiz-adv-x="1086" 
d="M494 -16q-146 0 -238 62q-96 62 -140 163.5t-44 222.5q0 199 84 358q83 161 226.5 249.5t317.5 88.5q112 0 185.5 -33t110 -90.5t36.5 -132.5q0 -100 -45.5 -178.5t-126.5 -138.5t-189 -104.5t-233 -76.5v-14.5v-13.5q6 -64 38 -95t104 -31q55 0 118 25t117 62t81 73
l90 -168q-37 -50 -92.5 -92t-122 -72.5t-138 -47t-139.5 -16.5zM434 548q47 3 93 28t84.5 66t61.5 91.5t23 104.5q0 53 -16.5 76.5t-57.5 23.5q-36 0 -63 -34t-59 -84q-42 -67 -53 -144t-13 -128zM434 1300l26 214h582l-26 -214h-582z" />
    <glyph glyph-name="Ebreve" unicode="&#x114;" horiz-adv-x="1176" 
d="M70 0l214 1494h892l-36 -268l-548 2l-48 -330l410 6l-36 -270l-410 8l-54 -378l618 10l-36 -274h-966zM776 1634q-122 0 -198 45.5t-103.5 129t-4.5 197.5h184q-10 -90 17.5 -125t120.5 -35q52 0 84.5 20t50 56t25.5 84h180q0 -120 -43 -203t-123 -126t-190 -43z" />
    <glyph glyph-name="ebreve" unicode="&#x115;" horiz-adv-x="1086" 
d="M494 -16q-146 0 -238 62q-96 62 -140 163.5t-44 222.5q0 199 84 358q83 161 226.5 249.5t317.5 88.5q112 0 185.5 -33t110 -90.5t36.5 -132.5q0 -100 -45.5 -178.5t-126.5 -138.5t-189 -104.5t-233 -76.5v-14.5v-13.5q6 -64 38 -95t104 -31q55 0 118 25t117 62t81 73
l90 -168q-37 -50 -92.5 -92t-122 -72.5t-138 -47t-139.5 -16.5zM434 548q47 3 93 28t84.5 66t61.5 91.5t23 104.5q0 53 -16.5 76.5t-57.5 23.5q-36 0 -63 -34t-59 -84q-42 -67 -53 -144t-13 -128zM738 1264q-122 0 -198 45.5t-103.5 129t-4.5 197.5h184q-7 -60 2.5 -95
t41.5 -50t94 -15q52 0 84.5 20t50 56t25.5 84h180q0 -120 -43 -203t-123 -126t-190 -43z" />
    <glyph glyph-name="Edotaccent" unicode="&#x116;" horiz-adv-x="1176" 
d="M70 0l214 1494h892l-36 -268l-548 2l-48 -330l410 6l-36 -270l-410 8l-54 -378l618 10l-36 -274h-966zM768 1634q-64 0 -116 48t-52 112q0 84 59 142t149 58q72 0 122 -46.5t50 -111.5q0 -88 -56.5 -145t-155.5 -57z" />
    <glyph glyph-name="edotaccent" unicode="&#x117;" horiz-adv-x="1086" 
d="M494 -16q-146 0 -238 62q-96 62 -140 163.5t-44 222.5q0 199 84 358q83 161 226.5 249.5t317.5 88.5q112 0 185.5 -33t110 -90.5t36.5 -132.5q0 -100 -45.5 -178.5t-126.5 -138.5t-189 -104.5t-233 -76.5v-14.5v-13.5q6 -64 38 -95t104 -31q55 0 118 25t117 62t81 73
l90 -168q-37 -50 -92.5 -92t-122 -72.5t-138 -47t-139.5 -16.5zM434 548q47 3 93 28t84.5 66t61.5 91.5t23 104.5q0 53 -16.5 76.5t-57.5 23.5q-36 0 -63 -34t-59 -84q-42 -67 -53 -144t-13 -128zM710 1272q-64 0 -116 48t-52 112q0 84 59 142t149 58q72 0 122 -46.5
t50 -111.5q0 -88 -56.5 -145t-155.5 -57z" />
    <glyph glyph-name="Eogonek" unicode="&#x118;" horiz-adv-x="1176" 
d="M70 0l214 1494h892l-36 -268l-548 2l-48 -330l410 6l-36 -270l-410 8l-54 -378l618 10l-36 -274h-966zM628 -506q-79 0 -134.5 47.5t-55.5 122.5q0 58 33 110t85.5 96t112 78.5t113.5 57.5l78 33l102 -39q-133 -78 -199.5 -144.5t-66.5 -113.5q0 -40 18.5 -56t49.5 -16
q48 0 85 23.5t83 60.5l54 -110q-44 -45 -91 -78.5t-110.5 -52.5t-156.5 -19z" />
    <glyph glyph-name="eogonek" unicode="&#x119;" horiz-adv-x="1086" 
d="M494 -16q-146 0 -238 62q-96 62 -140 163.5t-44 222.5q0 199 84 358q83 161 226.5 249.5t317.5 88.5q112 0 185.5 -33t110 -90.5t36.5 -132.5q0 -100 -45.5 -178.5t-126.5 -138.5t-189 -104.5t-233 -76.5v-14.5v-13.5q6 -64 38 -95t104 -31q55 0 118 25t117 62t81 73
l90 -168q-37 -50 -92.5 -92t-122 -72.5t-138 -47t-139.5 -16.5zM434 548q47 3 93 28t84.5 66t61.5 91.5t23 104.5q0 53 -16.5 76.5t-57.5 23.5q-36 0 -63 -34t-59 -84q-42 -67 -53 -144t-13 -128zM337 -468q-79 0 -134.5 47.5t-55.5 122.5q0 62 37 116.5t95 100.5t119 81
l90 51l124 -51q-97 -66 -152 -122.5t-55 -97.5q0 -40 18.5 -56t49.5 -16q38 0 80 23.5t88 60.5l54 -110q-66 -67 -161.5 -108.5t-196.5 -41.5z" />
    <glyph glyph-name="Ecaron" unicode="&#x11a;" horiz-adv-x="1176" 
d="M70 0l214 1494h892l-36 -268l-548 2l-48 -330l410 6l-36 -270l-410 8l-54 -378l618 10l-36 -274h-966zM672 1634l-206 366l122 66l208 -186l270 186l144 -66l-362 -366h-176z" />
    <glyph glyph-name="ecaron" unicode="&#x11b;" horiz-adv-x="1086" 
d="M494 -16q-146 0 -238 62q-96 62 -140 163.5t-44 222.5q0 199 84 358q83 161 226.5 249.5t317.5 88.5q112 0 185.5 -33t110 -90.5t36.5 -132.5q0 -100 -45.5 -178.5t-126.5 -138.5t-189 -104.5t-233 -76.5v-14.5v-13.5q6 -64 38 -95t104 -31q55 0 118 25t117 62t81 73
l90 -168q-37 -50 -92.5 -92t-122 -72.5t-138 -47t-139.5 -16.5zM434 548q47 3 93 28t84.5 66t61.5 91.5t23 104.5q0 53 -16.5 76.5t-57.5 23.5q-36 0 -63 -34t-59 -84q-42 -67 -53 -144t-13 -128zM632 1266l-238 352l116 92l238 -218l276 218l104 -92l-320 -352h-176z" />
    <glyph glyph-name="Gcircumflex" unicode="&#x11c;" horiz-adv-x="1394" 
d="M662 -16q-208 0 -342 88q-132 87 -190 225t-58 295q0 266 106 478q105 209 285.5 324.5t400.5 115.5q69 0 119 -3.5t96 -13t101.5 -26.5t135.5 -45l-72 -314q-31 24 -99 52t-147 48t-142 20q-154 0 -252 -92q-97 -93 -139.5 -233.5t-42.5 -292.5q0 -120 32.5 -201.5
t97 -123t160.5 -41.5q47 0 104.5 7t91.5 25l44 280h-244l34 274h562l-104 -752q-22 -3 -49 -9t-59 -15q-112 -30 -211.5 -50t-218.5 -20zM592 1618l-134 66l362 364h176l208 -364l-152 -66l-176 170z" />
    <glyph glyph-name="gcircumflex" unicode="&#x11d;" horiz-adv-x="1240" 
d="M384 -504q-45 0 -98.5 6.5t-99 16.5t-66.5 21l50 248q19 -16 68.5 -36.5t107.5 -36t104 -15.5q98 0 145 52t65 154l62 344q-49 -109 -130.5 -187.5t-195.5 -78.5q-172 0 -250 116t-78 302q0 188 80 354q52 111 139 195t205 130.5t262 46.5q59 0 126 -13t116 -31l184 44
l-160 -1156q-12 -88 -42 -159t-74 -125q-87 -103 -222.5 -147.5t-297.5 -44.5zM518 222q37 0 74 40t70 100.5t58 123t38 108.5l44 326q-15 2 -33 3t-39 1q-96 0 -162 -72q-67 -73 -101.5 -189t-34.5 -241q0 -67 9.5 -111.5t28.5 -66.5t48 -22zM534 1254l-134 66l358 344h176
l212 -344l-152 -66l-176 188z" />
    <glyph glyph-name="Gbreve" unicode="&#x11e;" horiz-adv-x="1394" 
d="M662 -16q-208 0 -342 88q-132 87 -190 225t-58 295q0 266 106 478q105 209 285.5 324.5t400.5 115.5q69 0 119 -3.5t96 -13t101.5 -26.5t135.5 -45l-72 -314q-31 24 -99 52t-147 48t-142 20q-154 0 -252 -92q-97 -93 -139.5 -233.5t-42.5 -292.5q0 -120 32.5 -201.5
t97 -123t160.5 -41.5q47 0 104.5 7t91.5 25l44 280h-244l34 274h562l-104 -752q-22 -3 -49 -9t-59 -15q-112 -30 -211.5 -50t-218.5 -20zM850 1634q-122 0 -198 45.5t-103.5 129t-4.5 197.5h184q-10 -90 17.5 -125t120.5 -35q52 0 84.5 20t50 56t25.5 84h180
q0 -120 -43 -203t-123 -126t-190 -43z" />
    <glyph glyph-name="gbreve" unicode="&#x11f;" horiz-adv-x="1240" 
d="M384 -504q-45 0 -98.5 6.5t-99 16.5t-66.5 21l50 248q19 -16 68.5 -36.5t107.5 -36t104 -15.5q98 0 145 52t65 154l62 344q-49 -109 -130.5 -187.5t-195.5 -78.5q-172 0 -250 116t-78 302q0 188 80 354q52 111 139 195t205 130.5t262 46.5q59 0 126 -13t116 -31l184 44
l-160 -1156q-12 -88 -42 -159t-74 -125q-87 -103 -222.5 -147.5t-297.5 -44.5zM518 222q37 0 74 40t70 100.5t58 123t38 108.5l44 326q-15 2 -33 3t-39 1q-96 0 -162 -72q-67 -73 -101.5 -189t-34.5 -241q0 -67 9.5 -111.5t28.5 -66.5t48 -22zM788 1264q-122 0 -198 45.5
t-103.5 129t-4.5 197.5h184q-7 -60 2.5 -95t41.5 -50t94 -15q52 0 84.5 20t50 56t25.5 84h180q0 -120 -43 -203t-123 -126t-190 -43z" />
    <glyph glyph-name="Gdotaccent" unicode="&#x120;" horiz-adv-x="1394" 
d="M662 -16q-208 0 -342 88q-132 87 -190 225t-58 295q0 266 106 478q105 209 285.5 324.5t400.5 115.5q69 0 119 -3.5t96 -13t101.5 -26.5t135.5 -45l-72 -314q-31 24 -99 52t-147 48t-142 20q-154 0 -252 -92q-97 -93 -139.5 -233.5t-42.5 -292.5q0 -120 32.5 -201.5
t97 -123t160.5 -41.5q47 0 104.5 7t91.5 25l44 280h-244l34 274h562l-104 -752q-22 -3 -49 -9t-59 -15q-112 -30 -211.5 -50t-218.5 -20zM842 1634q-64 0 -116 48t-52 112q0 84 59 142t149 58q72 0 122 -46.5t50 -111.5q0 -88 -56.5 -145t-155.5 -57z" />
    <glyph glyph-name="gdotaccent" unicode="&#x121;" horiz-adv-x="1240" 
d="M384 -504q-45 0 -98.5 6.5t-99 16.5t-66.5 21l50 248q19 -16 68.5 -36.5t107.5 -36t104 -15.5q98 0 145 52t65 154l62 344q-49 -109 -130.5 -187.5t-195.5 -78.5q-172 0 -250 116t-78 302q0 188 80 354q52 111 139 195t205 130.5t262 46.5q59 0 126 -13t116 -31l184 44
l-160 -1156q-12 -88 -42 -159t-74 -125q-87 -103 -222.5 -147.5t-297.5 -44.5zM518 222q37 0 74 40t70 100.5t58 123t38 108.5l44 326q-15 2 -33 3t-39 1q-96 0 -162 -72q-67 -73 -101.5 -189t-34.5 -241q0 -67 9.5 -111.5t28.5 -66.5t48 -22zM760 1272q-64 0 -116 48
t-52 112q0 84 59 142t149 58q72 0 122 -46.5t50 -111.5q0 -88 -56.5 -145t-155.5 -57z" />
    <glyph glyph-name="uni0122" unicode="&#x122;" horiz-adv-x="1394" 
d="M662 -16q-208 0 -342 88q-132 87 -190 225t-58 295q0 266 106 478q105 209 285.5 324.5t400.5 115.5q69 0 119 -3.5t96 -13t101.5 -26.5t135.5 -45l-72 -314q-31 24 -99 52t-147 48t-142 20q-154 0 -252 -92q-97 -93 -139.5 -233.5t-42.5 -292.5q0 -120 32.5 -201.5
t97 -123t160.5 -41.5q47 0 104.5 7t91.5 25l44 280h-244l34 274h562l-104 -752q-22 -3 -49 -9t-59 -15q-112 -30 -211.5 -50t-218.5 -20zM512 -648l-100 68l4 24q23 14 44.5 47t21.5 79q0 38 -18.5 67t-47.5 33l12 90l152 102q68 -12 111 -72.5t43 -135.5
q0 -74 -31.5 -139.5t-82 -109.5t-108.5 -53z" />
    <glyph glyph-name="uni0123" unicode="&#x123;" horiz-adv-x="1240" 
d="M384 -504q-45 0 -98.5 6.5t-99 16.5t-66.5 21l50 248q19 -16 68.5 -36.5t107.5 -36t104 -15.5q98 0 145 52t65 154l62 344q-49 -109 -130.5 -187.5t-195.5 -78.5q-172 0 -250 116t-78 302q0 188 80 354q52 111 139 195t205 130.5t262 46.5q59 0 126 -13t116 -31l184 44
l-160 -1156q-12 -88 -42 -159t-74 -125q-87 -103 -222.5 -147.5t-297.5 -44.5zM518 222q37 0 74 40t70 100.5t58 123t38 108.5l44 326q-15 2 -33 3t-39 1q-96 0 -162 -72q-67 -73 -101.5 -189t-34.5 -241q0 -67 9.5 -111.5t28.5 -66.5t48 -22zM800 1796l106 -72l-4 -24
q-24 -15 -41 -44.5t-17 -79.5q0 -39 20 -76t50 -42l-12 -84l-132 -92q-38 8 -74 41.5t-59 82.5t-23 102q0 86 43 166t143 122z" />
    <glyph glyph-name="Hcircumflex" unicode="&#x124;" horiz-adv-x="1464" 
d="M58 0l214 1494h346l-92 -648h470l92 648h350l-214 -1494h-348l86 608h-470l-88 -608h-346zM612 1618l-134 66l362 364h176l208 -364l-152 -66l-176 170z" />
    <glyph glyph-name="hcircumflex" unicode="&#x125;" horiz-adv-x="1284" 
d="M76 0l216 1596h338l-72 -550l-28 -146q66 108 161 168t207 60q132 0 201 -68t69 -226q0 -11 -6.5 -69t-17.5 -144t-24 -183t-25.5 -187.5t-22 -158t-14.5 -92.5h-348q9 60 17 116t15 108t13.5 99.5t12 91t10.5 83.5q12 101 19.5 168.5t8.5 103.5q2 53 -18 74.5t-62 21.5
q-36 0 -76 -23t-77 -64.5t-65 -96.5l-92 -682h-340zM228 1640l-134 66l362 364h176l208 -364l-152 -66l-176 170z" />
    <glyph glyph-name="Hbar" unicode="&#x126;" horiz-adv-x="1476" 
d="M82 0l128 896h-210l24 244h222l50 354h346l-52 -354h472l50 354h350l-50 -354h188l-24 -244h-200l-128 -896h-350l62 430h-470l-62 -430h-346zM524 676h472l30 220h-470z" />
    <glyph glyph-name="hbar" unicode="&#x127;" horiz-adv-x="1284" 
d="M124 1232l14 128h666l-14 -128h-666zM76 0l216 1596h338l-72 -550l-28 -146q66 108 161 168t207 60q132 0 201 -68t69 -226q0 -11 -6.5 -69t-17.5 -144t-24 -183t-25.5 -187.5t-22 -158t-14.5 -92.5h-348q9 60 17 116t15 108t13.5 99.5t12 91t10.5 83.5
q12 101 19.5 168.5t8.5 103.5q2 53 -18 74.5t-62 21.5q-36 0 -76 -23t-77 -64.5t-65 -96.5l-92 -682h-340z" />
    <glyph glyph-name="Itilde" unicode="&#x128;" horiz-adv-x="690" 
d="M96 0l214 1494h346l-214 -1494h-346zM668 1644q-64 0 -110.5 24.5t-81.5 61.5q-28 32 -50 48t-60 16q-39 0 -67 -15t-67 -71l-94 132q29 57 67 96.5t82 59.5t91 20q60 0 104 -19.5t78 -60.5q27 -31 47.5 -48.5t48.5 -17.5q29 0 54.5 13t47 39.5t38.5 67.5l106 -142
q-18 -48 -54.5 -95t-83.5 -78t-96 -31z" />
    <glyph glyph-name="itilde" unicode="&#x129;" horiz-adv-x="648" 
d="M78 0l152 1114h352l-156 -1114h-348zM592 1230q-64 0 -110.5 24.5t-81.5 61.5q-28 32 -50 48t-60 16q-39 0 -67 -15t-67 -71l-94 132q44 86 107 131t133 45q60 0 104 -19.5t78 -60.5q27 -31 47.5 -48.5t48.5 -17.5q29 0 54.5 13t47 39.5t38.5 67.5l106 -142
q-18 -48 -54.5 -95t-83.5 -78t-96 -31z" />
    <glyph glyph-name="Imacron" unicode="&#x12a;" horiz-adv-x="690" 
d="M96 0l214 1494h346l-214 -1494h-346zM210 1634l18 214h582l-18 -214h-582z" />
    <glyph glyph-name="imacron" unicode="&#x12b;" horiz-adv-x="648" 
d="M78 0l152 1114h352l-156 -1114h-348zM134 1300l26 214h582l-26 -214h-582z" />
    <glyph glyph-name="Ibreve" unicode="&#x12c;" horiz-adv-x="690" 
d="M96 0l214 1494h346l-214 -1494h-346zM506 1634q-122 0 -198 45.5t-103.5 129t-4.5 197.5h184q-10 -90 17.5 -125t120.5 -35q52 0 84.5 20t50 56t25.5 84h180q0 -120 -43 -203t-123 -126t-190 -43z" />
    <glyph glyph-name="ibreve" unicode="&#x12d;" horiz-adv-x="648" 
d="M78 0l152 1114h352l-156 -1114h-348zM438 1264q-122 0 -198 45.5t-103.5 129t-4.5 197.5h184q-7 -60 2.5 -95t41.5 -50t94 -15q52 0 84.5 20t50 56t25.5 84h180q0 -120 -43 -203t-123 -126t-190 -43z" />
    <glyph glyph-name="Iogonek" unicode="&#x12e;" horiz-adv-x="690" 
d="M96 0l214 1494h346l-214 -1494h-346zM108 -506q-79 0 -134.5 47.5t-55.5 122.5q0 58 33 110t85.5 96t112 78.5t113.5 57.5l78 33l102 -39q-133 -78 -199.5 -144.5t-66.5 -113.5q0 -40 18.5 -56t49.5 -16q48 0 85 23.5t83 60.5l54 -110q-44 -45 -91 -78.5t-110.5 -52.5
t-156.5 -19z" />
    <glyph glyph-name="iogonek" unicode="&#x12f;" horiz-adv-x="648" 
d="M78 0l152 1114h352l-156 -1114h-348zM410 1272q-64 0 -116 48t-52 112q0 84 59 142t149 58q72 0 122 -46.5t50 -111.5q0 -88 -56.5 -145t-155.5 -57zM151 -468q-79 0 -134.5 47.5t-55.5 122.5q0 62 37 116.5t95 100.5t119 81l90 51l124 -51q-97 -66 -152 -122.5
t-55 -97.5q0 -40 18.5 -56t49.5 -16q38 0 80 23.5t88 60.5l54 -110q-66 -67 -161.5 -108.5t-196.5 -41.5z" />
    <glyph glyph-name="Idotaccent" unicode="&#x130;" horiz-adv-x="690" 
d="M96 0l214 1494h346l-214 -1494h-346zM498 1634q-64 0 -116 48t-52 112q0 84 59 142t149 58q72 0 122 -46.5t50 -111.5q0 -88 -56.5 -145t-155.5 -57z" />
    <glyph glyph-name="dotlessi" unicode="&#x131;" horiz-adv-x="648" 
d="M78 0l152 1114h352l-156 -1114h-348z" />
    <glyph glyph-name="IJ" unicode="&#x132;" horiz-adv-x="1370" 
d="M96 0l214 1494h346l-214 -1494h-346zM558 -348l-44 114q44 11 89.5 45.5t85 82t67 97.5t34.5 93q23 109 46.5 258.5t46.5 315.5t44 327t38 294t29 215h348l-180 -1240q-10 -70 -18.5 -115t-13.5 -65q-39 -153 -122.5 -245.5t-199 -134.5t-250.5 -42z" />
    <glyph glyph-name="ij" unicode="&#x133;" horiz-adv-x="1296" 
d="M78 0l152 1114h352l-156 -1114h-348zM448 1282q-64 0 -115 48t-51 112q0 84 58 142t148 58q72 0 122 -46.5t50 -111.5q0 -88 -56.5 -145t-155.5 -57zM556 -516q-60 0 -106.5 8t-69.5 26l70 182q8 -4 25 -9t29 -5q47 0 85.5 36.5t68 94t49 123.5t27.5 124l144 1050h352
l-156 -1114q-19 -150 -90 -266.5t-181 -183t-247 -66.5zM1092 1282q-64 0 -115 48t-51 112q0 84 58 142t148 58q72 0 122 -46.5t50 -111.5q0 -88 -56.5 -145t-155.5 -57z" />
    <glyph glyph-name="Jcircumflex" unicode="&#x134;" horiz-adv-x="680" 
d="M-132 -348l-44 114q44 11 89.5 45.5t85 82t67 97.5t34.5 93q23 109 46.5 258.5t46.5 315.5t44 327t38 294t29 215h348l-180 -1240q-10 -70 -18.5 -115t-13.5 -65q-39 -153 -122.5 -245.5t-199 -134.5t-250.5 -42zM274 1618l-134 66l362 364h176l208 -364l-152 -66
l-176 170z" />
    <glyph glyph-name="jcircumflex" unicode="&#x135;" horiz-adv-x="648" 
d="M-92 -516q-60 0 -106.5 8t-69.5 26l70 182q8 -4 25 -9t29 -5q47 0 85.5 36.5t68 94t49 123.5t27.5 124l144 1050h352l-156 -1114q-19 -150 -90 -266.5t-181 -183t-247 -66.5zM200 1254l-134 66l358 344h176l212 -344l-152 -66l-176 188z" />
    <glyph glyph-name="uni0136" unicode="&#x136;" horiz-adv-x="1294" 
d="M58 0l214 1494h336l-96 -654l526 654h396l-592 -658q14 -26 34.5 -65.5t50 -98t71 -141.5l98.5 -197q26 -53 51 -100.5t48 -89t44.5 -77.5t40.5 -67h-406q-4 7 -15 29t-28 59.5t-40.5 90t-52.5 119.5l-124 286l-160 -168l-60 -416h-336zM536 -648l-100 68l4 24
q23 14 44.5 47t21.5 79q0 38 -18.5 67t-47.5 33l12 90l152 102q68 -12 111 -72.5t43 -135.5q0 -74 -31.5 -139.5t-82 -109.5t-108.5 -53z" />
    <glyph glyph-name="uni0137" unicode="&#x137;" horiz-adv-x="1198" 
d="M76 0l216 1596h340l-216 -1596h-340zM772 0l-242 616q66 37 130 118t114 182t74 198h344q-3 -76 -32 -151t-76.5 -142.5t-106.5 -122.5t-123 -90l316 -608h-398zM448 -654l-94 68l4 24q23 14 41.5 43t18.5 89q0 38 -18.5 67t-47.5 33l12 90l152 102q68 -12 111 -72.5
t43 -135.5q0 -74 -31.5 -141t-82 -112.5t-108.5 -54.5z" />
    <glyph glyph-name="kgreenlandic" unicode="&#x138;" horiz-adv-x="1196" 
d="M792 0l-262 602q50 28 99 85t92 130t75.5 150.5t49.5 146.5h344q-4 -100 -52 -198.5t-123.5 -179.5t-160.5 -128l314 -608h-376zM74 0l152 1114h348l-152 -1114h-348z" />
    <glyph glyph-name="Lacute" unicode="&#x139;" horiz-adv-x="1036" 
d="M70 0l214 1494h346l-176 -1224l486 12l-42 -282h-828zM458 1634l-122 96l326 438l204 -166q-11 -23 -46.5 -64t-85 -89t-102 -93.5t-99 -78.5t-75.5 -43z" />
    <glyph glyph-name="lacute" unicode="&#x13a;" horiz-adv-x="650" 
d="M82 0l214 1596h350l-216 -1596h-348zM452 1708l-122 96l326 438l204 -166q-11 -23 -46.5 -64t-85 -89t-102 -93.5t-99 -78.5t-75.5 -43z" />
    <glyph glyph-name="uni013B" unicode="&#x13b;" horiz-adv-x="1036" 
d="M70 0l214 1494h346l-176 -1224l486 12l-42 -282h-828zM396 -648l-100 68l4 24q23 14 44.5 47t21.5 79q0 38 -18.5 67t-47.5 33l12 90l152 102q68 -12 111 -72.5t43 -135.5q0 -74 -31.5 -139.5t-82 -109.5t-108.5 -53z" />
    <glyph glyph-name="uni013C" unicode="&#x13c;" horiz-adv-x="650" 
d="M82 0l214 1596h350l-216 -1596h-348zM182 -654l-94 68l4 24q23 14 41.5 43t18.5 89q0 38 -18.5 67t-47.5 33l12 90l152 102q68 -12 111 -72.5t43 -135.5q0 -74 -31.5 -141t-82 -112.5t-108.5 -54.5z" />
    <glyph glyph-name="Lcaron" unicode="&#x13d;" horiz-adv-x="1054" 
d="M974 862l-146 28l-6 24q18 48 29 130t11 164q0 81 -6 130.5t-18 65.5l18 42l224 46q18 -18 28 -70t10 -114q0 -81 -17.5 -165.5t-49.5 -158.5t-77 -122zM70 0l214 1494h346l-176 -1224l486 12l-42 -282h-828z" />
    <glyph glyph-name="lcaron" unicode="&#x13e;" horiz-adv-x="822" 
d="M892 982l-146 28l-6 24q18 48 29 130t11 164q0 81 -6 130.5t-18 65.5l18 42l224 46q18 -18 28 -70t10 -114q0 -81 -17.5 -165.5t-49.5 -158.5t-77 -122zM82 0l214 1596h350l-216 -1596h-348z" />
    <glyph glyph-name="Ldot" unicode="&#x13f;" horiz-adv-x="1148" 
d="M70 0l214 1494h346l-176 -1224l486 12l-42 -282h-828zM928 595q-70 0 -111 41t-41 107q0 86 56 148t146 62q83 0 120.5 -40t37.5 -106q0 -94 -56.5 -153t-151.5 -59z" />
    <glyph glyph-name="ldot" unicode="&#x140;" horiz-adv-x="874" 
d="M82 0l214 1596h350l-216 -1596h-348zM772 610q-70 0 -111 41t-41 107q0 86 56 148t146 62q83 0 120.5 -40t37.5 -106q0 -94 -56.5 -153t-151.5 -59z" />
    <glyph glyph-name="Lslash" unicode="&#x141;" horiz-adv-x="1054" 
d="M159 544l-144 -46l-56 180l230 78l332 114l392 138l54 -190l-476 -162zM70 0l214 1494h346l-176 -1224l486 12l-42 -282h-828z" />
    <glyph glyph-name="lslash" unicode="&#x142;" horiz-adv-x="650" 
d="M82 0l92 692l-164 -66v194l192 78l94 698h350l-74 -548l172 72v-204l-200 -78l-114 -838h-348z" />
    <glyph glyph-name="Nacute" unicode="&#x143;" horiz-adv-x="1464" 
d="M70 0l214 1494h300l348 -774l76 -254l14 254l94 774h334l-214 -1494h-290l-340 814l-96 268l2 -268l-112 -814h-330zM844 1634l-122 96l326 438l204 -166q-11 -23 -46.5 -64t-85 -89t-102 -93.5t-99 -78.5t-75.5 -43z" />
    <glyph glyph-name="nacute" unicode="&#x144;" horiz-adv-x="1288" 
d="M74 0l152 1114h334l-14 -202q68 102 160.5 159t201.5 57q132 0 201 -68t69 -226q0 -22 -6.5 -79.5t-16 -127t-17.5 -127.5q-3 -20 -10.5 -74t-17 -123.5t-19 -136.5t-16 -113t-7.5 -53h-348q15 100 27.5 188.5t22.5 166t18 143.5q12 101 19.5 168.5t8.5 103.5
q2 53 -18 74.5t-62 21.5q-27 0 -56.5 -13t-58.5 -37.5t-55.5 -58.5t-47.5 -75l-96 -682h-348zM696 1250l-122 96l326 438l204 -166q-11 -23 -46.5 -64t-85 -89t-102 -93.5t-99 -78.5t-75.5 -43z" />
    <glyph glyph-name="uni0145" unicode="&#x145;" horiz-adv-x="1464" 
d="M70 0l214 1494h300l348 -774l76 -254l14 254l94 774h334l-214 -1494h-290l-340 814l-96 268l2 -268l-112 -814h-330zM546 -648l-100 68l4 24q23 14 44.5 47t21.5 79q0 38 -18.5 67t-47.5 33l12 90l152 102q68 -12 111 -72.5t43 -135.5q0 -74 -31.5 -139.5t-82 -109.5
t-108.5 -53z" />
    <glyph glyph-name="uni0146" unicode="&#x146;" horiz-adv-x="1288" 
d="M74 0l152 1114h334l-14 -202q68 102 160.5 159t201.5 57q132 0 201 -68t69 -226q0 -22 -6.5 -79.5t-16 -127t-17.5 -127.5q-3 -20 -10.5 -74t-17 -123.5t-19 -136.5t-16 -113t-7.5 -53h-348q15 100 27.5 188.5t22.5 166t18 143.5q12 101 19.5 168.5t8.5 103.5
q2 53 -18 74.5t-62 21.5q-27 0 -56.5 -13t-58.5 -37.5t-55.5 -58.5t-47.5 -75l-96 -682h-348zM492 -654l-94 68l4 24q23 14 41.5 43t18.5 89q0 38 -18.5 67t-47.5 33l12 90l152 102q68 -12 111 -72.5t43 -135.5q0 -74 -31.5 -141t-82 -112.5t-108.5 -54.5z" />
    <glyph glyph-name="Ncaron" unicode="&#x147;" horiz-adv-x="1464" 
d="M70 0l214 1494h300l348 -774l76 -254l14 254l94 774h334l-214 -1494h-290l-340 814l-96 268l2 -268l-112 -814h-330zM780 1634l-206 366l122 66l208 -186l270 186l144 -66l-362 -366h-176z" />
    <glyph glyph-name="ncaron" unicode="&#x148;" horiz-adv-x="1288" 
d="M74 0l152 1114h334l-14 -202q68 102 160.5 159t201.5 57q132 0 201 -68t69 -226q0 -22 -6.5 -79.5t-16 -127t-17.5 -127.5q-3 -20 -10.5 -74t-17 -123.5t-19 -136.5t-16 -113t-7.5 -53h-348q15 100 27.5 188.5t22.5 166t18 143.5q12 101 19.5 168.5t8.5 103.5
q2 53 -18 74.5t-62 21.5q-27 0 -56.5 -13t-58.5 -37.5t-55.5 -58.5t-47.5 -75l-96 -682h-348zM652 1266l-238 352l116 92l238 -218l276 218l104 -92l-320 -352h-176z" />
    <glyph glyph-name="napostrophe" unicode="&#x149;" horiz-adv-x="1980" 
d="M368 866l-112 136l2 22q41 21 74 66t52.5 105.5t19.5 128.5q0 89 -22 138.5t-46 73.5l4 40l196 152q40 -22 81 -69.5t69 -117t28 -157.5q0 -113 -46 -217t-124.5 -183t-175.5 -118zM766 0l152 1114h334l-14 -202q68 102 160.5 159t201.5 57q132 0 201 -68t69 -226
q0 -22 -6.5 -79.5t-16 -127t-17.5 -127.5q-3 -20 -10.5 -74t-17 -123.5t-19 -136.5t-16 -113t-7.5 -53h-348q15 100 27.5 188.5t22.5 166t18 143.5q12 101 19.5 168.5t8.5 103.5q2 53 -18 74.5t-62 21.5q-27 0 -56.5 -13t-58.5 -37.5t-55.5 -58.5t-47.5 -75l-96 -682h-348z
" />
    <glyph glyph-name="Eng" unicode="&#x14a;" horiz-adv-x="1488" 
d="M678 -404l-54 124q67 23 137.5 68.5t120.5 110.5t56 147l-320 768l-96 268l2 -268l-112 -814h-330l214 1494h300l348 -774l76 -254l14 254l94 774h334l-214 -1494q-21 -118 -104 -205.5t-205.5 -138.5t-260.5 -60z" />
    <glyph glyph-name="eng" unicode="&#x14b;" horiz-adv-x="1292" 
d="M562 -516q-60 0 -118 10t-72 26l40 134q12 -4 36 -8t36 -4q58 0 107 51.5t83 133.5t46 173q25 173 42 299t28.5 215t17.5 150.5t8 105.5q2 53 -18 74.5t-62 21.5q-27 0 -56.5 -13t-58.5 -37.5t-55.5 -58.5t-47.5 -75l-96 -682h-348l152 1114h334l-14 -202
q45 68 101.5 116.5t122 74t138.5 25.5q132 0 201 -68t69 -226q0 -24 -5.5 -83t-16.5 -139q-12 -95 -27 -206.5t-31 -218.5t-30 -187q-27 -153 -81.5 -269t-156 -181.5t-268.5 -65.5z" />
    <glyph glyph-name="Omacron" unicode="&#x14c;" horiz-adv-x="1360" 
d="M610 -16q-172 0 -292.5 75t-184 206t-63.5 299q0 191 50.5 362t146 302.5t232.5 206.5t309 75q128 0 227 -44t166.5 -123.5t102 -186.5t34.5 -232q0 -190 -49.5 -360t-143.5 -300.5t-229 -205t-306 -74.5zM636 244q86 0 151 63t108.5 164.5t65 218.5t21.5 224
q0 130 -29.5 203t-78 103t-104.5 30q-84 0 -148 -64t-108 -166.5t-66 -218t-22 -219.5q0 -175 64 -256.5t146 -81.5zM544 1634l18 214h582l-18 -214h-582z" />
    <glyph glyph-name="omacron" unicode="&#x14d;" horiz-adv-x="1154" 
d="M470 -16q-138 0 -228 61.5t-134 168.5t-44 244q0 183 72 336q71 153 210.5 243.5t337.5 90.5q138 0 228 -60.5t134 -167t44 -244.5q0 -181 -70 -336q-72 -153 -212 -244.5t-338 -91.5zM516 194q63 0 106 46t69 120t37.5 160.5t11.5 167.5q0 60 -8 113t-31.5 86t-68.5 33
q-61 0 -103.5 -49.5t-68.5 -126.5t-38 -164t-12 -162q0 -112 27 -168t79 -56zM390 1300l26 214h582l-26 -214h-582z" />
    <glyph glyph-name="Obreve" unicode="&#x14e;" horiz-adv-x="1360" 
d="M610 -16q-172 0 -292.5 75t-184 206t-63.5 299q0 191 50.5 362t146 302.5t232.5 206.5t309 75q128 0 227 -44t166.5 -123.5t102 -186.5t34.5 -232q0 -190 -49.5 -360t-143.5 -300.5t-229 -205t-306 -74.5zM636 244q86 0 151 63t108.5 164.5t65 218.5t21.5 224
q0 130 -29.5 203t-78 103t-104.5 30q-84 0 -148 -64t-108 -166.5t-66 -218t-22 -219.5q0 -175 64 -256.5t146 -81.5zM840 1634q-122 0 -198 45.5t-103.5 129t-4.5 197.5h184q-10 -90 17.5 -125t120.5 -35q52 0 84.5 20t50 56t25.5 84h180q0 -120 -43 -203t-123 -126
t-190 -43z" />
    <glyph glyph-name="obreve" unicode="&#x14f;" horiz-adv-x="1154" 
d="M470 -16q-138 0 -228 61.5t-134 168.5t-44 244q0 183 72 336q71 153 210.5 243.5t337.5 90.5q138 0 228 -60.5t134 -167t44 -244.5q0 -181 -70 -336q-72 -153 -212 -244.5t-338 -91.5zM516 194q63 0 106 46t69 120t37.5 160.5t11.5 167.5q0 60 -8 113t-31.5 86t-68.5 33
q-61 0 -103.5 -49.5t-68.5 -126.5t-38 -164t-12 -162q0 -112 27 -168t79 -56zM694 1264q-122 0 -198 45.5t-103.5 129t-4.5 197.5h184q-7 -60 2.5 -95t41.5 -50t94 -15q52 0 84.5 20t50 56t25.5 84h180q0 -120 -43 -203t-123 -126t-190 -43z" />
    <glyph glyph-name="Ohungarumlaut" unicode="&#x150;" horiz-adv-x="1360" 
d="M610 -16q-172 0 -292.5 75t-184 206t-63.5 299q0 191 50.5 362t146 302.5t232.5 206.5t309 75q128 0 227 -44t166.5 -123.5t102 -186.5t34.5 -232q0 -190 -49.5 -360t-143.5 -300.5t-229 -205t-306 -74.5zM636 244q86 0 151 63t108.5 164.5t65 218.5t21.5 224
q0 130 -29.5 203t-78 103t-104.5 30q-84 0 -148 -64t-108 -166.5t-66 -218t-22 -219.5q0 -175 64 -256.5t146 -81.5zM1050 1576l-96 66l264 440l188 -132q-12 -38 -54 -92t-98.5 -110t-111 -102.5t-92.5 -69.5zM580 1576l-104 66l260 440l182 -126q-13 -38 -52.5 -93
t-91.5 -112t-104 -104.5t-90 -70.5z" />
    <glyph glyph-name="ohungarumlaut" unicode="&#x151;" horiz-adv-x="1154" 
d="M470 -16q-138 0 -228 61.5t-134 168.5t-44 244q0 183 72 336q71 153 210.5 243.5t337.5 90.5q138 0 228 -60.5t134 -167t44 -244.5q0 -181 -70 -336q-72 -153 -212 -244.5t-338 -91.5zM516 194q63 0 106 46t69 120t37.5 160.5t11.5 167.5q0 60 -8 113t-31.5 86t-68.5 33
q-61 0 -103.5 -49.5t-68.5 -126.5t-38 -164t-12 -162q0 -112 27 -168t79 -56zM890 1194l-128 82l262 436l212 -140q-9 -38 -49.5 -94t-95 -114.5t-109 -104.5t-92.5 -65zM420 1194l-136 82l258 436l206 -134q-10 -38 -47.5 -95t-88.5 -116.5t-102.5 -106.5t-89.5 -66z" />
    <glyph glyph-name="OE" unicode="&#x152;" horiz-adv-x="2096" 
d="M610 -16q-172 0 -292.5 75t-184 206t-63.5 299q0 191 50.5 362t146 302.5t232.5 206.5t309 75q149 0 249 -59.5t167 -166.5l20 210h852l-36 -268l-568 2l-48 -330l418 6l-36 -270l-418 8l-54 -378l638 10l-36 -274h-926l38 194q-94 -100 -204 -155t-254 -55zM636 244
q86 0 151 63t108.5 164.5t65 218.5t21.5 224q0 91 -22 167.5t-68.5 122.5t-121.5 46q-84 0 -148 -64t-108 -166.5t-66 -218t-22 -219.5q0 -175 65.5 -256.5t144.5 -81.5z" />
    <glyph glyph-name="oe" unicode="&#x153;" horiz-adv-x="1748" 
d="M470 -16q-138 0 -228 61.5t-134 168.5t-44 244q0 183 72 336q71 153 210.5 243.5t337.5 90.5q138 0 228 -60.5t134 -167t44 -244.5q0 -181 -70 -336q-72 -153 -212 -244.5t-338 -91.5zM516 194q63 0 106 46t69 120t37.5 160.5t11.5 167.5q0 60 -8 113t-31.5 86t-68.5 33
q-61 0 -103.5 -49.5t-68.5 -126.5t-38 -164t-12 -162q0 -112 27 -168t79 -56zM1156 -16q-146 0 -238 62q-96 62 -140 163.5t-44 222.5q0 199 84 358q83 161 226.5 249.5t317.5 88.5q112 0 185.5 -33t110 -90.5t36.5 -132.5q0 -100 -45.5 -178.5t-126.5 -138.5t-189 -104.5
t-233 -76.5v-14.5v-13.5q6 -64 38 -95t104 -31q55 0 118 25t117 62t81 73l90 -168q-37 -50 -92.5 -92t-122 -72.5t-138 -47t-139.5 -16.5zM1096 548q47 3 93 28t84.5 66t61.5 91.5t23 104.5q0 53 -16.5 76.5t-57.5 23.5q-36 0 -63 -34t-59 -84q-42 -67 -53 -144t-13 -128z
" />
    <glyph glyph-name="Racute" unicode="&#x154;" horiz-adv-x="1312" 
d="M70 0l214 1494h196q34 0 85 4t104 8t93 4q284 0 410 -96.5t126 -287.5q0 -181 -77 -315.5t-241 -184.5q27 -24 50.5 -62.5t44.5 -90.5t41 -115q30 -93 53 -162.5t42.5 -117.5t40.5 -78h-382q-10 14 -22.5 54.5t-25 90t-22.5 92t-16 61.5q-10 41 -25.5 86.5t-34 85.5
t-37 65t-35.5 25h-152l-84 -560h-346zM726 826q82 0 133.5 38.5t76 100.5t24.5 133q0 102 -58.5 137t-171.5 35q-23 0 -48.5 -1t-48 -3.5t-37.5 -5.5l-60 -432q26 -1 73.5 -1.5t116.5 -0.5zM722 1634l-122 96l326 438l204 -166q-11 -23 -46.5 -64t-85 -89t-102 -93.5
t-99 -78.5t-75.5 -43z" />
    <glyph glyph-name="racute" unicode="&#x155;" horiz-adv-x="884" 
d="M76 0l152 1114h336l-16 -232q22 65 64 121t99 90.5t123 34.5q53 0 68 -12l-62 -354q-7 12 -37 19t-59 7q-43 0 -79.5 -8.5t-70 -27.5t-68.5 -50l-102 -702h-348zM574 1250l-122 96l326 438l204 -166q-11 -23 -46.5 -64t-85 -89t-102 -93.5t-99 -78.5t-75.5 -43z" />
    <glyph glyph-name="uni0156" unicode="&#x156;" horiz-adv-x="1312" 
d="M70 0l214 1494h196q34 0 85 4t104 8t93 4q284 0 410 -96.5t126 -287.5q0 -181 -77 -315.5t-241 -184.5q27 -24 50.5 -62.5t44.5 -90.5t41 -115q30 -93 53 -162.5t42.5 -117.5t40.5 -78h-382q-10 14 -22.5 54.5t-25 90t-22.5 92t-16 61.5q-10 41 -25.5 86.5t-34 85.5
t-37 65t-35.5 25h-152l-84 -560h-346zM726 826q82 0 133.5 38.5t76 100.5t24.5 133q0 102 -58.5 137t-171.5 35q-23 0 -48.5 -1t-48 -3.5t-37.5 -5.5l-60 -432q26 -1 73.5 -1.5t116.5 -0.5zM470 -648l-100 68l4 24q23 14 44.5 47t21.5 79q0 38 -18.5 67t-47.5 33l12 90
l152 102q68 -12 111 -72.5t43 -135.5q0 -74 -31.5 -139.5t-82 -109.5t-108.5 -53z" />
    <glyph glyph-name="uni0157" unicode="&#x157;" horiz-adv-x="884" 
d="M76 0l152 1114h336l-16 -232q22 65 64 121t99 90.5t123 34.5q53 0 68 -12l-62 -354q-7 12 -37 19t-59 7q-43 0 -79.5 -8.5t-70 -27.5t-68.5 -50l-102 -702h-348zM178 -654l-94 68l4 24q23 14 41.5 43t18.5 89q0 38 -18.5 67t-47.5 33l12 90l152 102q68 -12 111 -72.5
t43 -135.5q0 -74 -31.5 -141t-82 -112.5t-108.5 -54.5z" />
    <glyph glyph-name="Rcaron" unicode="&#x158;" horiz-adv-x="1312" 
d="M70 0l214 1494h196q34 0 85 4t104 8t93 4q284 0 410 -96.5t126 -287.5q0 -181 -77 -315.5t-241 -184.5q27 -24 50.5 -62.5t44.5 -90.5t41 -115q30 -93 53 -162.5t42.5 -117.5t40.5 -78h-382q-10 14 -22.5 54.5t-25 90t-22.5 92t-16 61.5q-10 41 -25.5 86.5t-34 85.5
t-37 65t-35.5 25h-152l-84 -560h-346zM726 826q82 0 133.5 38.5t76 100.5t24.5 133q0 102 -58.5 137t-171.5 35q-23 0 -48.5 -1t-48 -3.5t-37.5 -5.5l-60 -432q26 -1 73.5 -1.5t116.5 -0.5zM658 1634l-206 366l122 66l208 -186l270 186l144 -66l-362 -366h-176z" />
    <glyph glyph-name="rcaron" unicode="&#x159;" horiz-adv-x="884" 
d="M76 0l152 1114h336l-16 -232q22 65 64 121t99 90.5t123 34.5q53 0 68 -12l-62 -354q-7 12 -37 19t-59 7q-43 0 -79.5 -8.5t-70 -27.5t-68.5 -50l-102 -702h-348zM530 1266l-238 352l116 92l238 -218l276 218l104 -92l-320 -352h-176z" />
    <glyph glyph-name="Sacute" unicode="&#x15a;" horiz-adv-x="1034" 
d="M382 -16q-41 0 -98 8t-115 21.5t-105 30.5t-68 34l116 282q33 -25 82 -48t103 -37.5t101 -14.5q71 0 115 19t64.5 54t20.5 83q0 68 -46 117.5t-138 118.5q-72 55 -128.5 119t-89 137t-32.5 156q0 143 68.5 242.5t186.5 151.5t267 52q116 0 212.5 -26t139.5 -58l-110 -274
q-34 35 -107 60.5t-145 25.5q-60 0 -100.5 -18.5t-61 -49.5t-20.5 -70q0 -45 25.5 -84.5t67.5 -78t93 -79.5q81 -64 142.5 -127.5t95.5 -132.5t34 -150q0 -159 -75 -261.5t-204 -152.5t-291 -50zM670 1634l-122 96l326 438l204 -166q-11 -23 -46.5 -64t-85 -89t-102 -93.5
t-99 -78.5t-75.5 -43z" />
    <glyph glyph-name="sacute" unicode="&#x15b;" horiz-adv-x="954" 
d="M378 -16q-56 0 -122 9.5t-121.5 25t-80.5 33.5l56 274q19 -21 68 -43.5t103.5 -38.5t88.5 -16q66 0 104 17t38 63q0 34 -24.5 61.5t-70 60t-109.5 82.5q-70 60 -109 128t-39 164q0 111 62 183t164.5 106.5t225.5 34.5q48 0 102 -5.5t97.5 -14t60.5 -16.5l-38 -292
q-20 21 -57.5 41.5t-83 33.5t-89.5 13q-60 0 -91 -21.5t-31 -56.5q0 -37 30.5 -69.5t69 -60.5t62.5 -52q63 -48 107 -93t66.5 -95.5t22.5 -115.5q0 -123 -63 -197.5t-168 -108.5t-231 -34zM590 1250l-122 96l326 438l204 -166q-11 -23 -46.5 -64t-85 -89t-102 -93.5
t-99 -78.5t-75.5 -43z" />
    <glyph glyph-name="Scircumflex" unicode="&#x15c;" horiz-adv-x="1034" 
d="M382 -16q-41 0 -98 8t-115 21.5t-105 30.5t-68 34l116 282q33 -25 82 -48t103 -37.5t101 -14.5q71 0 115 19t64.5 54t20.5 83q0 68 -46 117.5t-138 118.5q-72 55 -128.5 119t-89 137t-32.5 156q0 143 68.5 242.5t186.5 151.5t267 52q116 0 212.5 -26t139.5 -58l-110 -274
q-34 35 -107 60.5t-145 25.5q-60 0 -100.5 -18.5t-61 -49.5t-20.5 -70q0 -45 25.5 -84.5t67.5 -78t93 -79.5q81 -64 142.5 -127.5t95.5 -132.5t34 -150q0 -159 -75 -261.5t-204 -152.5t-291 -50zM452 1618l-134 66l362 364h176l208 -364l-152 -66l-176 170z" />
    <glyph glyph-name="scircumflex" unicode="&#x15d;" horiz-adv-x="954" 
d="M378 -16q-56 0 -122 9.5t-121.5 25t-80.5 33.5l56 274q19 -21 68 -43.5t103.5 -38.5t88.5 -16q66 0 104 17t38 63q0 34 -24.5 61.5t-70 60t-109.5 82.5q-70 60 -109 128t-39 164q0 111 62 183t164.5 106.5t225.5 34.5q48 0 102 -5.5t97.5 -14t60.5 -16.5l-38 -292
q-20 21 -57.5 41.5t-83 33.5t-89.5 13q-60 0 -91 -21.5t-31 -56.5q0 -37 30.5 -69.5t69 -60.5t62.5 -52q63 -48 107 -93t66.5 -95.5t22.5 -115.5q0 -123 -63 -197.5t-168 -108.5t-231 -34zM398 1254l-134 66l358 344h176l212 -344l-152 -66l-176 188z" />
    <glyph glyph-name="Scedilla" unicode="&#x15e;" horiz-adv-x="1034" 
d="M382 -16q-41 0 -98 8t-115 21.5t-105 30.5t-68 34l116 282q33 -25 82 -48t103 -37.5t101 -14.5q71 0 115 19t64.5 54t20.5 83q0 68 -46 117.5t-138 118.5q-72 55 -128.5 119t-89 137t-32.5 156q0 143 68.5 242.5t186.5 151.5t267 52q116 0 212.5 -26t139.5 -58l-110 -274
q-34 35 -107 60.5t-145 25.5q-60 0 -100.5 -18.5t-61 -49.5t-20.5 -70q0 -45 25.5 -84.5t67.5 -78t93 -79.5q81 -64 142.5 -127.5t95.5 -132.5t34 -150q0 -159 -75 -261.5t-204 -152.5t-291 -50zM284 -460q-94 0 -162.5 17t-85.5 27l36 198q14 -6 53.5 -16t96.5 -10
q59 0 105.5 39.5t46.5 106.5q0 56 -8 81.5t-14 46.5l42 4l100 -4q20 -28 41 -81.5t21 -136.5q0 -136 -74.5 -204t-197.5 -68z" />
    <glyph glyph-name="scedilla" unicode="&#x15f;" horiz-adv-x="954" 
d="M378 -16q-56 0 -122 9.5t-121.5 25t-80.5 33.5l56 274q19 -21 68 -43.5t103.5 -38.5t88.5 -16q66 0 104 17t38 63q0 34 -24.5 61.5t-70 60t-109.5 82.5q-70 60 -109 128t-39 164q0 111 62 183t164.5 106.5t225.5 34.5q48 0 102 -5.5t97.5 -14t60.5 -16.5l-38 -292
q-20 21 -57.5 41.5t-83 33.5t-89.5 13q-60 0 -91 -21.5t-31 -56.5q0 -37 30.5 -69.5t69 -60.5t62.5 -52q63 -48 107 -93t66.5 -95.5t22.5 -115.5q0 -123 -63 -197.5t-168 -108.5t-231 -34zM284 -460q-94 0 -162.5 17t-85.5 27l36 198q14 -6 53.5 -16t96.5 -10
q59 0 105.5 39.5t46.5 106.5q0 56 -8 81.5t-14 46.5l42 4l100 -4q20 -28 41 -81.5t21 -136.5q0 -136 -74.5 -204t-197.5 -68z" />
    <glyph glyph-name="Scaron" unicode="&#x160;" horiz-adv-x="1034" 
d="M382 -16q-41 0 -98 8t-115 21.5t-105 30.5t-68 34l116 282q33 -25 82 -48t103 -37.5t101 -14.5q71 0 115 19t64.5 54t20.5 83q0 68 -46 117.5t-138 118.5q-72 55 -128.5 119t-89 137t-32.5 156q0 143 68.5 242.5t186.5 151.5t267 52q116 0 212.5 -26t139.5 -58l-110 -274
q-34 35 -107 60.5t-145 25.5q-60 0 -100.5 -18.5t-61 -49.5t-20.5 -70q0 -45 25.5 -84.5t67.5 -78t93 -79.5q81 -64 142.5 -127.5t95.5 -132.5t34 -150q0 -159 -75 -261.5t-204 -152.5t-291 -50zM606 1634l-206 366l122 66l208 -186l270 186l144 -66l-362 -366h-176z" />
    <glyph glyph-name="scaron" unicode="&#x161;" horiz-adv-x="954" 
d="M378 -16q-56 0 -122 9.5t-121.5 25t-80.5 33.5l56 274q19 -21 68 -43.5t103.5 -38.5t88.5 -16q66 0 104 17t38 63q0 34 -24.5 61.5t-70 60t-109.5 82.5q-70 60 -109 128t-39 164q0 111 62 183t164.5 106.5t225.5 34.5q48 0 102 -5.5t97.5 -14t60.5 -16.5l-38 -292
q-20 21 -57.5 41.5t-83 33.5t-89.5 13q-60 0 -91 -21.5t-31 -56.5q0 -37 30.5 -69.5t69 -60.5t62.5 -52q63 -48 107 -93t66.5 -95.5t22.5 -115.5q0 -123 -63 -197.5t-168 -108.5t-231 -34zM546 1266l-238 352l116 92l238 -218l276 218l104 -92l-320 -352h-176z" />
    <glyph glyph-name="uni0162" unicode="&#x162;" horiz-adv-x="1126" 
d="M306 0l178 1236l-352 -10l44 268h1042l-40 -268l-344 10l-176 -1236h-352zM330 -460q-94 0 -162.5 17t-85.5 27l36 198q14 -6 53.5 -16t96.5 -10q59 0 105.5 39.5t46.5 106.5q0 56 -8 81.5t-14 46.5l42 4l100 -4q20 -28 41 -81.5t21 -136.5q0 -136 -74.5 -204t-197.5 -68
z" />
    <glyph glyph-name="uni0163" unicode="&#x163;" horiz-adv-x="820" 
d="M344 -20q-106 0 -168 55t-62 155q0 9 3 43t7.5 76.5t9.5 78.5l70 514h-82l36 212h102l96 268h262l-38 -268h218l-22 -212h-222q-23 -167 -38 -275.5t-24 -172t-13 -96.5t-5.5 -48t-1.5 -28q0 -30 14 -47t54 -17q21 0 53 11.5t64 30t53 38.5l54 -166q-52 -40 -116.5 -74.5
t-140.5 -56t-163 -21.5zM208 -460q-94 0 -162.5 17t-85.5 27l36 198q14 -6 53.5 -16t96.5 -10q59 0 105.5 39.5t46.5 106.5q0 56 -8 81.5t-14 46.5l42 4l100 -4q20 -28 41 -81.5t21 -136.5q0 -136 -74.5 -204t-197.5 -68z" />
    <glyph glyph-name="Tcaron" unicode="&#x164;" horiz-adv-x="1126" 
d="M306 0l178 1236l-352 -10l44 268h1042l-40 -268l-344 10l-176 -1236h-352zM612 1634l-206 366l122 66l208 -186l270 186l144 -66l-362 -366h-176z" />
    <glyph glyph-name="tcaron" unicode="&#x165;" horiz-adv-x="820" 
d="M910 1218l-146 28l-6 24q18 48 29 130t11 164q0 81 -6 130.5t-18 65.5l18 42l224 46q18 -18 28 -70t10 -114q0 -81 -17 -165.5t-49.5 -158.5t-77.5 -122zM344 -20q-106 0 -168 55t-62 155q0 9 3 43t7.5 76.5t9.5 78.5l70 514h-82l36 212h102l96 268h262l-38 -268h218
l-22 -212h-222q-23 -167 -38 -275.5t-24 -172t-13 -96.5t-5.5 -48t-1.5 -28q0 -30 14 -47t54 -17q21 0 53 11.5t64 30t53 38.5l54 -166q-52 -40 -116.5 -74.5t-140.5 -56t-163 -21.5z" />
    <glyph glyph-name="Tbar" unicode="&#x166;" horiz-adv-x="1138" 
d="M318 0l90 620h-224l28 246h230l54 370l-352 -10l44 268h1042l-40 -268l-344 10l-52 -370h240l-32 -246h-244l-88 -620h-352z" />
    <glyph glyph-name="tbar" unicode="&#x167;" horiz-adv-x="820" 
d="M750 738l-24 -196h-650l24 196h650zM344 -20q-106 0 -168 55t-62 155q0 9 3 43t7.5 76.5t9.5 78.5l70 514h-82l36 212h102l96 268h262l-38 -268h218l-22 -212h-222q-23 -167 -38 -275.5t-24 -172t-13 -96.5t-5.5 -48t-1.5 -28q0 -30 14 -47t54 -17q21 0 53 11.5t64 30
t53 38.5l54 -166q-52 -40 -116.5 -74.5t-140.5 -56t-163 -21.5z" />
    <glyph glyph-name="Utilde" unicode="&#x168;" horiz-adv-x="1406" 
d="M606 -16q-247 0 -369.5 115t-124.5 323q0 35 3.5 75.5t10.5 86.5l128 910h346l-124 -868q-4 -39 -10 -83.5t-6 -98.5q0 -108 46 -151t154 -43q85 0 141 50t88.5 134t48.5 186l124 874h344l-128 -910q-15 -109 -42 -196t-66 -152q-79 -132 -216.5 -192t-347.5 -60z
M1018 1644q-64 0 -110.5 24.5t-81.5 61.5q-28 32 -50 48t-60 16q-39 0 -67 -15t-67 -71l-94 132q29 57 67 96.5t82 59.5t91 20q60 0 104 -19.5t78 -60.5q27 -31 47.5 -48.5t48.5 -17.5q29 0 54.5 13t47 39.5t38.5 67.5l106 -142q-18 -48 -54.5 -95t-83.5 -78t-96 -31z" />
    <glyph glyph-name="utilde" unicode="&#x169;" horiz-adv-x="1252" 
d="M382 -20q-120 0 -197 61.5t-77 194.5q0 54 9 140t27 204l24 178l24 178l24 178h346l-14 -108t-14 -107.5l-14 -107t-14 -107.5l-14 -108q-13 -99 -19.5 -162t-6.5 -90q0 -46 20 -71t48 -25q33 0 69 24t71 64.5t64 91.5l98 706h348l-152 -1114h-310l6 190
q-55 -88 -146.5 -149t-199.5 -61zM910 1230q-64 0 -110.5 24.5t-81.5 61.5q-28 32 -50 48t-60 16q-39 0 -67 -15t-67 -71l-94 132q44 86 107 131t133 45q60 0 104 -19.5t78 -60.5q27 -31 47.5 -48.5t48.5 -17.5q29 0 54.5 13t47 39.5t38.5 67.5l106 -142q-18 -48 -54.5 -95
t-83.5 -78t-96 -31z" />
    <glyph glyph-name="Umacron" unicode="&#x16a;" horiz-adv-x="1406" 
d="M606 -16q-247 0 -369.5 115t-124.5 323q0 35 3.5 75.5t10.5 86.5l128 910h346l-124 -868q-4 -39 -10 -83.5t-6 -98.5q0 -108 46 -151t154 -43q85 0 141 50t88.5 134t48.5 186l124 874h344l-128 -910q-15 -109 -42 -196t-66 -152q-79 -132 -216.5 -192t-347.5 -60z
M560 1634l18 214h582l-18 -214h-582z" />
    <glyph glyph-name="umacron" unicode="&#x16b;" horiz-adv-x="1252" 
d="M382 -20q-120 0 -197 61.5t-77 194.5q0 54 9 140t27 204l24 178l24 178l24 178h346l-14 -108t-14 -107.5l-14 -107t-14 -107.5l-14 -108q-13 -99 -19.5 -162t-6.5 -90q0 -46 20 -71t48 -25q33 0 69 24t71 64.5t64 91.5l98 706h348l-152 -1114h-310l6 190
q-55 -88 -146.5 -149t-199.5 -61zM452 1300l26 214h582l-26 -214h-582z" />
    <glyph glyph-name="Ubreve" unicode="&#x16c;" horiz-adv-x="1406" 
d="M606 -16q-247 0 -369.5 115t-124.5 323q0 35 3.5 75.5t10.5 86.5l128 910h346l-124 -868q-4 -39 -10 -83.5t-6 -98.5q0 -108 46 -151t154 -43q85 0 141 50t88.5 134t48.5 186l124 874h344l-128 -910q-15 -109 -42 -196t-66 -152q-79 -132 -216.5 -192t-347.5 -60z
M856 1634q-122 0 -198 45.5t-103.5 129t-4.5 197.5h184q-10 -90 17.5 -125t120.5 -35q52 0 84.5 20t50 56t25.5 84h180q0 -120 -43 -203t-123 -126t-190 -43z" />
    <glyph glyph-name="ubreve" unicode="&#x16d;" horiz-adv-x="1252" 
d="M382 -20q-120 0 -197 61.5t-77 194.5q0 54 9 140t27 204l24 178l24 178l24 178h346l-14 -108t-14 -107.5l-14 -107t-14 -107.5l-14 -108q-13 -99 -19.5 -162t-6.5 -90q0 -46 20 -71t48 -25q33 0 69 24t71 64.5t64 91.5l98 706h348l-152 -1114h-310l6 190
q-55 -88 -146.5 -149t-199.5 -61zM756 1264q-122 0 -198 45.5t-103.5 129t-4.5 197.5h184q-7 -60 2.5 -95t41.5 -50t94 -15q52 0 84.5 20t50 56t25.5 84h180q0 -120 -43 -203t-123 -126t-190 -43z" />
    <glyph glyph-name="Uring" unicode="&#x16e;" horiz-adv-x="1406" 
d="M606 -16q-247 0 -369.5 115t-124.5 323q0 35 3.5 75.5t10.5 86.5l128 910h346l-124 -868q-4 -39 -10 -83.5t-6 -98.5q0 -108 46 -151t154 -43q85 0 141 50t88.5 134t48.5 186l124 874h344l-128 -910q-15 -109 -42 -196t-66 -152q-79 -132 -216.5 -192t-347.5 -60z
M846 1626q-142 0 -224 62t-82 176q0 105 60 174q60 68 147 97t175 29q137 0 217.5 -59t80.5 -173q0 -99 -54 -168q-54 -70 -139.5 -104t-180.5 -34zM868 1766q68 0 115 31t47 107q0 53 -40.5 88.5t-91.5 35.5q-67 0 -116.5 -35t-49.5 -107q0 -49 42.5 -84.5t93.5 -35.5z" />
    <glyph glyph-name="uring" unicode="&#x16f;" horiz-adv-x="1252" 
d="M382 -20q-120 0 -197 61.5t-77 194.5q0 54 9 140t27 204l24 178l24 178l24 178h346l-14 -108t-14 -107.5l-14 -107t-14 -107.5l-14 -108q-13 -99 -19.5 -162t-6.5 -90q0 -46 20 -71t48 -25q33 0 69 24t71 64.5t64 91.5l98 706h348l-152 -1114h-310l6 190
q-55 -88 -146.5 -149t-199.5 -61zM732 1224q-142 0 -224 62t-82 176q0 105 60 174q60 68 147 97t175 29q137 0 217.5 -59t80.5 -173q0 -99 -54 -168q-54 -70 -139.5 -104t-180.5 -34zM754 1364q68 0 115 31t47 107q0 53 -40.5 88.5t-91.5 35.5q-67 0 -116.5 -35t-49.5 -107
q0 -49 42.5 -84.5t93.5 -35.5z" />
    <glyph glyph-name="Uhungarumlaut" unicode="&#x170;" horiz-adv-x="1406" 
d="M606 -16q-247 0 -369.5 115t-124.5 323q0 35 3.5 75.5t10.5 86.5l128 910h346l-124 -868q-4 -39 -10 -83.5t-6 -98.5q0 -108 46 -151t154 -43q85 0 141 50t88.5 134t48.5 186l124 874h344l-128 -910q-15 -109 -42 -196t-66 -152q-79 -132 -216.5 -192t-347.5 -60z
M1066 1576l-96 66l264 440l188 -132q-12 -38 -54 -92t-98.5 -110t-111 -102.5t-92.5 -69.5zM596 1576l-104 66l260 440l182 -126q-13 -38 -52.5 -93t-91.5 -112t-104 -104.5t-90 -70.5z" />
    <glyph glyph-name="uhungarumlaut" unicode="&#x171;" horiz-adv-x="1252" 
d="M382 -20q-120 0 -197 61.5t-77 194.5q0 54 9 140t27 204l24 178l24 178l24 178h346l-14 -108t-14 -107.5l-14 -107t-14 -107.5l-14 -108q-13 -99 -19.5 -162t-6.5 -90q0 -46 20 -71t48 -25q33 0 69 24t71 64.5t64 91.5l98 706h348l-152 -1114h-310l6 190
q-55 -88 -146.5 -149t-199.5 -61zM952 1194l-128 82l262 436l212 -140q-9 -38 -49.5 -94t-95 -114.5t-109 -104.5t-92.5 -65zM482 1194l-136 82l258 436l206 -134q-10 -38 -47.5 -95t-88.5 -116.5t-102.5 -106.5t-89.5 -66z" />
    <glyph glyph-name="Uogonek" unicode="&#x172;" horiz-adv-x="1406" 
d="M606 -16q-247 0 -369.5 115t-124.5 323q0 35 3.5 75.5t10.5 86.5l128 910h346l-124 -868q-4 -39 -10 -83.5t-6 -98.5q0 -108 46 -151t154 -43q85 0 141 50t88.5 134t48.5 186l124 874h344l-128 -910q-15 -109 -42 -196t-66 -152q-79 -132 -216.5 -192t-347.5 -60z
M459 -506q-79 0 -134.5 47.5t-55.5 122.5q0 58 33 110t85.5 96t112 78.5t113.5 57.5l78 33l102 -39q-133 -78 -199.5 -144.5t-66.5 -113.5q0 -40 18.5 -56t49.5 -16q48 0 85 23.5t83 60.5l54 -110q-44 -45 -91 -78.5t-110.5 -52.5t-156.5 -19z" />
    <glyph glyph-name="uogonek" unicode="&#x173;" horiz-adv-x="1252" 
d="M382 -20q-120 0 -197 61.5t-77 194.5q0 54 9 140t27 204l24 178l24 178l24 178h346l-14 -108t-14 -107.5l-14 -107t-14 -107.5l-14 -108q-13 -99 -19.5 -162t-6.5 -90q0 -46 20 -71t48 -25q33 0 69 24t71 64.5t64 91.5l98 706h348l-152 -1114h-310l6 190
q-55 -88 -146.5 -149t-199.5 -61zM757 -468q-79 0 -134.5 47.5t-55.5 122.5q0 62 37 116.5t95 100.5t119 81l90 51l124 -51q-97 -66 -152 -122.5t-55 -97.5q0 -40 18.5 -56t49.5 -16q38 0 80 23.5t88 60.5l54 -110q-66 -67 -161.5 -108.5t-196.5 -41.5z" />
    <glyph glyph-name="Wcircumflex" unicode="&#x174;" horiz-adv-x="1760" 
d="M276 0l-182 1494h350l56 -956l20 -218l66 218l252 626l-36 330h338l58 -956l22 -218l52 218l326 956h356l-580 -1494h-404l-56 534l-18 164l-60 -164l-194 -534h-366zM774 1618l-134 66l362 364h176l208 -364l-152 -66l-176 170z" />
    <glyph glyph-name="wcircumflex" unicode="&#x175;" horiz-adv-x="1722" 
d="M244 -12l-54 358l-100 768h352l58 -650l12 -204l58 74q41 63 78.5 138.5t66 157t41.5 162.5l-32 322h334l48 -650l12 -204l58 74q39 61 74 140.5t61 167.5t39 176q8 59 14 142.5t6 153.5h310q0 -12 5 -52.5t5 -103.5q0 -167 -64.5 -328.5t-193 -320t-320.5 -317.5
l-254 -4l-34 220l-18 124q-40 -66 -83.5 -122t-95 -109t-115.5 -109zM722 1254l-134 66l358 344h176l212 -344l-152 -66l-176 188z" />
    <glyph glyph-name="Ycircumflex" unicode="&#x176;" horiz-adv-x="1136" 
d="M310 0l82 576l-310 918h362l138 -512l24 -132l58 132l276 512h384l-586 -918l-82 -576h-346zM462 1618l-134 66l362 364h176l208 -364l-152 -66l-176 170z" />
    <glyph glyph-name="ycircumflex" unicode="&#x177;" horiz-adv-x="1114" 
d="M164 -504q-72 0 -136.5 21t-117.5 51l88 238q35 -24 83 -41t85 -17q45 0 98 32t104.5 85t91.5 115h-202l-54 366l-112 768h344l72 -670l34 -310q32 68 60.5 141.5t53.5 152.5q34 96 52.5 175.5t28 162.5t15.5 190q3 33 3.5 69.5t0.5 88.5h312q3 -15 4.5 -52.5t1.5 -97.5
q0 -148 -36 -307.5t-110 -332.5q-51 -119 -123 -246t-153 -244t-160 -206q-54 -58 -134 -95t-194 -37zM394 1254l-134 66l358 344h176l212 -344l-152 -66l-176 188z" />
    <glyph glyph-name="Ydieresis" unicode="&#x178;" horiz-adv-x="1136" 
d="M310 0l82 576l-310 918h362l138 -512l24 -132l58 132l276 512h384l-586 -918l-82 -576h-346zM486 1658q-58 0 -102 51t-44 109q0 83 49.5 139.5t128.5 56.5q66 0 110 -47t44 -107q0 -90 -46.5 -146t-139.5 -56zM946 1658q-57 0 -100.5 50t-43.5 110q0 81 48.5 138.5
t127.5 57.5q66 0 111 -47t45 -107q0 -88 -48 -145t-140 -57z" />
    <glyph glyph-name="Zacute" unicode="&#x179;" horiz-adv-x="1130" 
d="M-40 0l-26 86l756 1074l90 66l-572 -10l44 278h954l22 -84l-726 -1062l-82 -72l604 10l-46 -286h-1018zM734 1634l-122 96l326 438l204 -166q-11 -23 -46.5 -64t-85 -89t-102 -93.5t-99 -78.5t-75.5 -43z" />
    <glyph glyph-name="zacute" unicode="&#x17a;" horiz-adv-x="960" 
d="M-10 0l-34 44l542 772l50 36h-418l36 262h802l34 -44l-532 -774l-42 -30h446l-28 -266h-856zM578 1250l-122 96l326 438l204 -166q-11 -23 -46.5 -64t-85 -89t-102 -93.5t-99 -78.5t-75.5 -43z" />
    <glyph glyph-name="Zdotaccent" unicode="&#x17b;" horiz-adv-x="1130" 
d="M-40 0l-26 86l756 1074l90 66l-572 -10l44 278h954l22 -84l-726 -1062l-82 -72l604 10l-46 -286h-1018zM766 1634q-64 0 -116 48t-52 112q0 84 59 142t149 58q72 0 122 -46.5t50 -111.5q0 -88 -56.5 -145t-155.5 -57z" />
    <glyph glyph-name="zdotaccent" unicode="&#x17c;" horiz-adv-x="960" 
d="M-10 0l-34 44l542 772l50 36h-418l36 262h802l34 -44l-532 -774l-42 -30h446l-28 -266h-856zM612 1272q-64 0 -116 48t-52 112q0 84 59 142t149 58q72 0 122 -46.5t50 -111.5q0 -88 -56.5 -145t-155.5 -57z" />
    <glyph glyph-name="Zcaron" unicode="&#x17d;" horiz-adv-x="1130" 
d="M-40 0l-26 86l756 1074l90 66l-572 -10l44 278h954l22 -84l-726 -1062l-82 -72l604 10l-46 -286h-1018zM670 1634l-206 366l122 66l208 -186l270 186l144 -66l-362 -366h-176z" />
    <glyph glyph-name="zcaron" unicode="&#x17e;" horiz-adv-x="960" 
d="M-10 0l-34 44l542 772l50 36h-418l36 262h802l34 -44l-532 -774l-42 -30h446l-28 -266h-856zM534 1266l-238 352l116 92l238 -218l276 218l104 -92l-320 -352h-176z" />
    <glyph glyph-name="uni018F" unicode="&#x18f;" horiz-adv-x="1340" 
d="M596 -16q-118 0 -213.5 38.5t-164.5 113t-107 182t-41 244.5q-1 62 5.5 129t22.5 139h958l-38 -242h-634q-13 -36 -10 -93t29 -115t79.5 -97t139.5 -39q66 0 128 37t110.5 116.5t77 206t26.5 304.5q-1 133 -38.5 207.5t-102.5 104.5t-147 30q-117 0 -216 -40.5
t-170 -85.5l10 298q45 27 114.5 47t147 30.5t146.5 10.5q152 0 266.5 -44t191 -123.5t114.5 -186.5t38 -232q0 -190 -48 -359.5t-140.5 -300t-226.5 -205.5t-307 -75z" />
    <glyph glyph-name="florin" unicode="&#x192;" horiz-adv-x="1060" 
d="M158 -346l174 1250h-150l22 182l156 30l16 100q20 125 85 218t166 144.5t229 51.5q56 0 99.5 -6t74.5 -18l-60 -232q-13 14 -44 30t-66 16q-48 0 -87 -34t-53 -118l-24 -152h184l-24 -212h-186l-172 -1250h-340z" />
    <glyph glyph-name="Ohorn" unicode="&#x1a0;" horiz-adv-x="1362" 
d="M930 1262l50 190q107 0 166 21.5t87 55t38.5 71.5t20.5 70q5 15 7.5 34.5t2.5 25.5h232q-1 -12 -2.5 -22.5t-3.5 -21.5q-25 -160 -111 -252.5t-213 -132t-274 -39.5zM610 -16q-172 0 -292.5 75t-184 206t-63.5 299q0 191 50.5 362t146 302.5t232.5 206.5t309 75
q128 0 227 -44t166.5 -123.5t102 -186.5t34.5 -232q0 -190 -49.5 -360t-143.5 -300.5t-229 -205t-306 -74.5zM636 244q86 0 151 63t108.5 164.5t65 218.5t21.5 224q0 130 -29.5 203t-78 103t-104.5 30q-84 0 -148 -64t-108 -166.5t-66 -218t-22 -219.5q0 -175 64 -256.5
t146 -81.5z" />
    <glyph glyph-name="ohorn" unicode="&#x1a1;" horiz-adv-x="1154" 
d="M470 -16q-138 0 -228 61.5t-134 168.5t-44 244q0 183 72 336q71 153 210.5 243.5t337.5 90.5q138 0 228 -60.5t134 -167t44 -244.5q0 -181 -70 -336q-72 -153 -212 -244.5t-338 -91.5zM516 194q63 0 106 46t69 120t37.5 160.5t11.5 167.5q0 60 -8 113t-31.5 86t-68.5 33
q-61 0 -103.5 -49.5t-68.5 -126.5t-38 -164t-12 -162q0 -112 27 -168t79 -56zM766 906l28 190q99 0 156.5 20t86.5 51.5t41.5 66.5t21.5 66q3 11 5.5 19.5t0.5 14.5h232q0 -12 1 -22.5t-1 -21.5q-21 -144 -101 -228t-202 -120t-269 -36z" />
    <glyph glyph-name="Uhorn" unicode="&#x1af;" horiz-adv-x="1406" 
d="M606 -16q-247 0 -369.5 115t-124.5 323q0 35 3.5 75.5t10.5 86.5l128 910h346l-124 -868q-4 -39 -10 -83.5t-6 -98.5q0 -108 46 -151t154 -43q85 0 141 50t88.5 134t48.5 186l124 874h344l-128 -910q-15 -109 -42 -196t-66 -152q-79 -132 -216.5 -192t-347.5 -60z
M1001 1302l28 190q99 0 156.5 20t86.5 51.5t41.5 66.5t21.5 66q3 11 5.5 19.5t0.5 14.5h232q0 -12 1 -22.5t-1 -21.5q-21 -144 -101 -228t-202 -120t-269 -36z" />
    <glyph glyph-name="uhorn" unicode="&#x1b0;" horiz-adv-x="1252" 
d="M382 -20q-120 0 -197 61.5t-77 194.5q0 54 9 140t27 204l24 178l24 178l24 178h346l-14 -108t-14 -107.5l-14 -107t-14 -107.5l-14 -108q-13 -99 -19.5 -162t-6.5 -90q0 -46 20 -71t48 -25q33 0 69 24t71 64.5t64 91.5l98 706h348l-152 -1114h-310l6 190
q-55 -88 -146.5 -149t-199.5 -61zM872 922l28 190q99 0 156.5 20t86.5 51.5t41.5 66.5t21.5 66q3 11 5.5 19.5t0.5 14.5h232q0 -12 1 -22.5t-1 -21.5q-21 -144 -101 -228t-202 -120t-269 -36z" />
    <glyph glyph-name="uni01B7" unicode="&#x1b7;" horiz-adv-x="1072" 
d="M276 -14q-40 0 -112.5 7.5t-125.5 14.5l32 252q28 -5 72 -9.5t85.5 -7.5t62.5 -3q145 0 229.5 39t120.5 97t36 116q0 65 -31 103.5t-84.5 55.5t-122.5 17l-102 -32l34 258l278 252l122 84l-580 -4l40 268l888 2l-46 -338l-396 -330q134 -13 211 -58t109 -108.5t32 -131.5
q0 -139 -63.5 -242t-171.5 -169.5t-242 -99.5t-275 -33z" />
    <glyph glyph-name="uni01C4" unicode="&#x1c4;" horiz-adv-x="2520" 
d="M556 -16q-57 0 -130.5 4t-134.5 8t-81 4h-140l214 1494h152q7 0 44.5 1.5t90 4l105 5t91 4t47.5 1.5q296 0 432 -158t136 -442q0 -200 -55.5 -369t-162.5 -294t-260 -194t-348 -69zM604 238q140 0 236 90q95 90 140.5 243t45.5 345q0 131 -30 206q-30 74 -90.5 103
t-161.5 29q-34 0 -77.5 -3t-72.5 -9l-140 -984q30 -10 67.5 -15t82.5 -5zM1350 0l-26 86l756 1074l90 66l-572 -10l44 278h954l22 -84l-726 -1062l-82 -72l604 10l-46 -286h-1018zM2060 1634l-206 366l122 66l208 -186l270 186l144 -66l-362 -366h-176z" />
    <glyph glyph-name="uni01C5" unicode="&#x1c5;" horiz-adv-x="2350" 
d="M556 -16q-57 0 -130.5 4t-134.5 8t-81 4h-140l214 1494h152q7 0 44.5 1.5t90 4l105 5t91 4t47.5 1.5q296 0 432 -158t136 -442q0 -200 -55.5 -369t-162.5 -294t-260 -194t-348 -69zM604 238q140 0 236 90q95 90 140.5 243t45.5 345q0 131 -30 206q-30 74 -90.5 103
t-161.5 29q-34 0 -77.5 -3t-72.5 -9l-140 -984q30 -10 67.5 -15t82.5 -5zM1380 0l-34 44l542 772l50 36h-418l36 262h802l34 -44l-532 -774l-42 -30h446l-28 -266h-856zM1924 1266l-238 352l116 92l238 -218l276 218l104 -92l-320 -352h-176z" />
    <glyph glyph-name="uni01C6" unicode="&#x1c6;" horiz-adv-x="2204" 
d="M396 -16q-172 0 -250 116t-78 302q0 188 80 354q52 111 139 195t205 130.5t262 46.5q20 0 40.5 -1t39.5 -3l64 472h336l-206 -1596h-312l16 272q-32 -77 -80 -142.5t-112 -105.5t-144 -40zM518 222q38 0 76 42t71.5 104.5t58.5 127t38 110.5l42 310q-29 8 -74 8
q-96 0 -162 -72q-67 -73 -101.5 -189t-34.5 -241q0 -67 9.5 -111.5t28.5 -66.5t48 -22zM1234 0l-34 44l542 772l50 36h-418l36 262h802l34 -44l-532 -774l-42 -30h446l-28 -266h-856zM1778 1266l-238 352l116 92l238 -218l276 218l104 -92l-320 -352h-176z" />
    <glyph glyph-name="uni01C7" unicode="&#x1c7;" horiz-adv-x="1736" 
d="M70 0l214 1494h346l-176 -1224l486 12l-42 -282h-828zM924 -348l-44 114q44 11 89.5 45.5t85 82t67 97.5t34.5 93q23 109 46.5 258.5t46.5 315.5t44 327t38 294t29 215h348l-180 -1240q-10 -70 -18.5 -115t-13.5 -65q-39 -153 -122.5 -245.5t-199 -134.5t-250.5 -42z" />
    <glyph glyph-name="uni01C8" unicode="&#x1c8;" horiz-adv-x="1684" 
d="M70 0l214 1494h346l-176 -1224l486 12l-42 -282h-828zM944 -516q-60 0 -106.5 8t-69.5 26l70 182q8 -4 25 -9t29 -5q47 0 85.5 36.5t68 94t49 123.5t27.5 124l144 1050h352l-156 -1114q-19 -150 -90 -266.5t-181 -183t-247 -66.5zM1461 1272q-64 0 -115 48t-51 112
q0 84 58 142t148 58q72 0 122 -46.5t50 -111.5q0 -88 -56.5 -145t-155.5 -57z" />
    <glyph glyph-name="uni01C9" unicode="&#x1c9;" horiz-adv-x="1298" 
d="M82 0l214 1596h350l-216 -1596h-348zM558 -516q-60 0 -106.5 8t-69.5 26l70 182q8 -4 25 -9t29 -5q47 0 85.5 36.5t68 94t49 123.5t27.5 124l144 1050h352l-156 -1114q-19 -150 -90 -266.5t-181 -183t-247 -66.5zM1075 1272q-64 0 -115 48t-51 112q0 84 58 142t148 58
q72 0 122 -46.5t50 -111.5q0 -88 -56.5 -145t-155.5 -57z" />
    <glyph glyph-name="uni01CA" unicode="&#x1ca;" horiz-adv-x="2144" 
d="M70 0l214 1494h300l348 -774l76 -254l14 254l94 774h334l-214 -1494h-290l-340 814l-96 268l2 -268l-112 -814h-330zM1332 -348l-44 114q44 11 89.5 45.5t85 82t67 97.5t34.5 93q23 109 46.5 258.5t46.5 315.5t44 327t38 294t29 215h348l-180 -1240q-10 -70 -18.5 -115
t-13.5 -65q-39 -153 -122.5 -245.5t-199 -134.5t-250.5 -42z" />
    <glyph glyph-name="uni01CB" unicode="&#x1cb;" horiz-adv-x="2112" 
d="M70 0l214 1494h300l348 -774l76 -254l14 254l94 774h334l-214 -1494h-290l-340 814l-96 268l2 -268l-112 -814h-330zM1372 -516q-60 0 -106.5 8t-69.5 26l70 182q8 -4 25 -9t29 -5q47 0 85.5 36.5t68 94t49 123.5t27.5 124l144 1050h352l-156 -1114q-19 -150 -90 -266.5
t-181 -183t-247 -66.5zM1889 1272q-64 0 -115 48t-51 112q0 84 58 142t148 58q72 0 122 -46.5t50 -111.5q0 -88 -56.5 -145t-155.5 -57z" />
    <glyph glyph-name="uni01CC" unicode="&#x1cc;" horiz-adv-x="1936" 
d="M74 0l152 1114h334l-14 -202q68 102 160.5 159t201.5 57q132 0 201 -68t69 -226q0 -22 -6.5 -79.5t-16 -127t-17.5 -127.5q-3 -20 -10.5 -74t-17 -123.5t-19 -136.5t-16 -113t-7.5 -53h-348q15 100 27.5 188.5t22.5 166t18 143.5q12 101 19.5 168.5t8.5 103.5
q2 53 -18 74.5t-62 21.5q-27 0 -56.5 -13t-58.5 -37.5t-55.5 -58.5t-47.5 -75l-96 -682h-348zM1196 -516q-60 0 -106.5 8t-69.5 26l70 182q8 -4 25 -9t29 -5q47 0 85.5 36.5t68 94t49 123.5t27.5 124l144 1050h352l-156 -1114q-19 -150 -90 -266.5t-181 -183t-247 -66.5z
M1713 1272q-64 0 -115 48t-51 112q0 84 58 142t148 58q72 0 122 -46.5t50 -111.5q0 -88 -56.5 -145t-155.5 -57z" />
    <glyph glyph-name="uni01CD" unicode="&#x1cd;" horiz-adv-x="1314" 
d="M-120 0l722 1494h440l222 -1494h-348l-30 280h-510l-116 -280h-380zM470 514h388l-74 660l-6 116l-38 -116zM750 1634l-206 366l122 66l208 -186l270 186l144 -66l-362 -366h-176z" />
    <glyph glyph-name="uni01CE" unicode="&#x1ce;" horiz-adv-x="1224" 
d="M396 -16q-172 0 -250 116t-78 302q0 154 49 286t140 231t217 154t280 55q59 0 125.5 -13t118.5 -31l178 44l-156 -1128h-312l10 242q-48 -108 -130 -183t-192 -75zM518 218q37 0 74 40.5t70 101t58 123.5t38 109l46 326q-27 6 -74 6q-96 0 -162 -72q-67 -73 -101.5 -189
t-34.5 -241q0 -68 9.5 -113.5t28.5 -68t48 -22.5zM688 1266l-238 352l116 92l238 -218l276 218l104 -92l-320 -352h-176z" />
    <glyph glyph-name="uni01CF" unicode="&#x1cf;" horiz-adv-x="690" 
d="M96 0l214 1494h346l-214 -1494h-346zM402 1634l-206 366l122 66l208 -186l270 186l144 -66l-362 -366h-176z" />
    <glyph glyph-name="uni01D0" unicode="&#x1d0;" horiz-adv-x="648" 
d="M78 0l152 1114h352l-156 -1114h-348zM332 1266l-238 352l116 92l238 -218l276 218l104 -92l-320 -352h-176z" />
    <glyph glyph-name="uni01D1" unicode="&#x1d1;" horiz-adv-x="1360" 
d="M610 -16q-172 0 -292.5 75t-184 206t-63.5 299q0 191 50.5 362t146 302.5t232.5 206.5t309 75q128 0 227 -44t166.5 -123.5t102 -186.5t34.5 -232q0 -190 -49.5 -360t-143.5 -300.5t-229 -205t-306 -74.5zM636 244q86 0 151 63t108.5 164.5t65 218.5t21.5 224
q0 130 -29.5 203t-78 103t-104.5 30q-84 0 -148 -64t-108 -166.5t-66 -218t-22 -219.5q0 -175 64 -256.5t146 -81.5zM736 1634l-206 366l122 66l208 -186l270 186l144 -66l-362 -366h-176z" />
    <glyph glyph-name="uni01D2" unicode="&#x1d2;" horiz-adv-x="1154" 
d="M470 -16q-138 0 -228 61.5t-134 168.5t-44 244q0 183 72 336q71 153 210.5 243.5t337.5 90.5q138 0 228 -60.5t134 -167t44 -244.5q0 -181 -70 -336q-72 -153 -212 -244.5t-338 -91.5zM516 194q63 0 106 46t69 120t37.5 160.5t11.5 167.5q0 60 -8 113t-31.5 86t-68.5 33
q-61 0 -103.5 -49.5t-68.5 -126.5t-38 -164t-12 -162q0 -112 27 -168t79 -56zM588 1266l-238 352l116 92l238 -218l276 218l104 -92l-320 -352h-176z" />
    <glyph glyph-name="uni01D3" unicode="&#x1d3;" horiz-adv-x="1406" 
d="M606 -16q-247 0 -369.5 115t-124.5 323q0 35 3.5 75.5t10.5 86.5l128 910h346l-124 -868q-4 -39 -10 -83.5t-6 -98.5q0 -108 46 -151t154 -43q85 0 141 50t88.5 134t48.5 186l124 874h344l-128 -910q-15 -109 -42 -196t-66 -152q-79 -132 -216.5 -192t-347.5 -60z
M752 1634l-206 366l122 66l208 -186l270 186l144 -66l-362 -366h-176z" />
    <glyph glyph-name="uni01D4" unicode="&#x1d4;" horiz-adv-x="1252" 
d="M382 -20q-120 0 -197 61.5t-77 194.5q0 54 9 140t27 204l24 178l24 178l24 178h346l-14 -108t-14 -107.5l-14 -107t-14 -107.5l-14 -108q-13 -99 -19.5 -162t-6.5 -90q0 -46 20 -71t48 -25q33 0 69 24t71 64.5t64 91.5l98 706h348l-152 -1114h-310l6 190
q-55 -88 -146.5 -149t-199.5 -61zM650 1266l-238 352l116 92l238 -218l276 218l104 -92l-320 -352h-176z" />
    <glyph glyph-name="uni01D5" unicode="&#x1d5;" horiz-adv-x="1406" 
d="M606 -16q-247 0 -369.5 115t-124.5 323q0 35 3.5 75.5t10.5 86.5l128 910h346l-124 -868q-4 -39 -10 -83.5t-6 -98.5q0 -108 46 -151t154 -43q85 0 141 50t88.5 134t48.5 186l124 874h344l-128 -910q-15 -109 -42 -196t-66 -152q-79 -132 -216.5 -192t-347.5 -60z
M622 1658q-58 0 -102 51t-44 109q0 83 49.5 139.5t128.5 56.5q66 0 110 -47t44 -107q0 -90 -46.5 -146t-139.5 -56zM1082 1658q-57 0 -100.5 50t-43.5 110q0 81 48.5 138.5t127.5 57.5q66 0 111 -47t45 -107q0 -88 -48 -145t-140 -57zM624 2118l18 214h582l-18 -214h-582z
" />
    <glyph glyph-name="uni01D6" unicode="&#x1d6;" horiz-adv-x="1252" 
d="M382 -20q-120 0 -197 61.5t-77 194.5q0 54 9 140t27 204l24 178l24 178l24 178h346l-14 -108t-14 -107.5l-14 -107t-14 -107.5l-14 -108q-13 -99 -19.5 -162t-6.5 -90q0 -46 20 -71t48 -25q33 0 69 24t71 64.5t64 91.5l98 706h348l-152 -1114h-310l6 190
q-55 -88 -146.5 -149t-199.5 -61zM510 1312q-52 0 -92 46t-40 98q0 75 45 125.5t115 50.5q60 0 100 -42t40 -96q0 -81 -42 -131.5t-126 -50.5zM970 1312q-51 0 -90.5 45t-39.5 99q0 74 44 125t116 51q59 0 99.5 -42t40.5 -96q0 -79 -43.5 -130.5t-126.5 -51.5zM512 1716
l26 214h582l-26 -214h-582z" />
    <glyph glyph-name="uni01D7" unicode="&#x1d7;" horiz-adv-x="1406" 
d="M606 -16q-247 0 -369.5 115t-124.5 323q0 35 3.5 75.5t10.5 86.5l128 910h346l-124 -868q-4 -39 -10 -83.5t-6 -98.5q0 -108 46 -151t154 -43q85 0 141 50t88.5 134t48.5 186l124 874h344l-128 -910q-15 -109 -42 -196t-66 -152q-79 -132 -216.5 -192t-347.5 -60z
M622 1658q-58 0 -102 51t-44 109q0 83 49.5 139.5t128.5 56.5q66 0 110 -47t44 -107q0 -90 -46.5 -146t-139.5 -56zM1082 1658q-57 0 -100.5 50t-43.5 110q0 81 48.5 138.5t127.5 57.5q66 0 111 -47t45 -107q0 -88 -48 -145t-140 -57zM880 2118l-122 96l326 438l204 -166
q-11 -23 -46.5 -64t-85 -89t-102 -93.5t-99 -78.5t-75.5 -43z" />
    <glyph glyph-name="uni01D8" unicode="&#x1d8;" horiz-adv-x="1252" 
d="M382 -20q-120 0 -197 61.5t-77 194.5q0 54 9 140t27 204l24 178l24 178l24 178h346l-14 -108t-14 -107.5l-14 -107t-14 -107.5l-14 -108q-13 -99 -19.5 -162t-6.5 -90q0 -46 20 -71t48 -25q33 0 69 24t71 64.5t64 91.5l98 706h348l-152 -1114h-310l6 190
q-55 -88 -146.5 -149t-199.5 -61zM510 1312q-52 0 -92 46t-40 98q0 75 45 125.5t115 50.5q60 0 100 -42t40 -96q0 -81 -42 -131.5t-126 -50.5zM970 1312q-51 0 -90.5 45t-39.5 99q0 74 44 125t116 51q59 0 99.5 -42t40.5 -96q0 -79 -43.5 -130.5t-126.5 -51.5zM754 1666
l-122 96l326 438l204 -166q-11 -23 -46.5 -64t-85 -89t-102 -93.5t-99 -78.5t-75.5 -43z" />
    <glyph glyph-name="uni01D9" unicode="&#x1d9;" horiz-adv-x="1406" 
d="M606 -16q-247 0 -369.5 115t-124.5 323q0 35 3.5 75.5t10.5 86.5l128 910h346l-124 -868q-4 -39 -10 -83.5t-6 -98.5q0 -108 46 -151t154 -43q85 0 141 50t88.5 134t48.5 186l124 874h344l-128 -910q-15 -109 -42 -196t-66 -152q-79 -132 -216.5 -192t-347.5 -60z
M622 1658q-58 0 -102 51t-44 109q0 83 49.5 139.5t128.5 56.5q66 0 110 -47t44 -107q0 -90 -46.5 -146t-139.5 -56zM1082 1658q-57 0 -100.5 50t-43.5 110q0 81 48.5 138.5t127.5 57.5q66 0 111 -47t45 -107q0 -88 -48 -145t-140 -57zM816 2118l-206 366l122 66l208 -186
l270 186l144 -66l-362 -366h-176z" />
    <glyph glyph-name="uni01DA" unicode="&#x1da;" horiz-adv-x="1252" 
d="M382 -20q-120 0 -197 61.5t-77 194.5q0 54 9 140t27 204l24 178l24 178l24 178h346l-14 -108t-14 -107.5l-14 -107t-14 -107.5l-14 -108q-13 -99 -19.5 -162t-6.5 -90q0 -46 20 -71t48 -25q33 0 69 24t71 64.5t64 91.5l98 706h348l-152 -1114h-310l6 190
q-55 -88 -146.5 -149t-199.5 -61zM510 1312q-52 0 -92 46t-40 98q0 75 45 125.5t115 50.5q60 0 100 -42t40 -96q0 -81 -42 -131.5t-126 -50.5zM970 1312q-51 0 -90.5 45t-39.5 99q0 74 44 125t116 51q59 0 99.5 -42t40.5 -96q0 -79 -43.5 -130.5t-126.5 -51.5zM710 1682
l-238 352l116 92l238 -218l276 218l104 -92l-320 -352h-176z" />
    <glyph glyph-name="uni01DB" unicode="&#x1db;" horiz-adv-x="1406" 
d="M606 -16q-247 0 -369.5 115t-124.5 323q0 35 3.5 75.5t10.5 86.5l128 910h346l-124 -868q-4 -39 -10 -83.5t-6 -98.5q0 -108 46 -151t154 -43q85 0 141 50t88.5 134t48.5 186l124 874h344l-128 -910q-15 -109 -42 -196t-66 -152q-79 -132 -216.5 -192t-347.5 -60z
M622 1658q-58 0 -102 51t-44 109q0 83 49.5 139.5t128.5 56.5q66 0 110 -47t44 -107q0 -90 -46.5 -146t-139.5 -56zM1082 1658q-57 0 -100.5 50t-43.5 110q0 81 48.5 138.5t127.5 57.5q66 0 111 -47t45 -107q0 -88 -48 -145t-140 -57zM1008 2118q-39 14 -101.5 57t-128 98
t-116 105.5t-64.5 79.5l206 194l326 -438z" />
    <glyph glyph-name="uni01DC" unicode="&#x1dc;" horiz-adv-x="1252" 
d="M382 -20q-120 0 -197 61.5t-77 194.5q0 54 9 140t27 204l24 178l24 178l24 178h346l-14 -108t-14 -107.5l-14 -107t-14 -107.5l-14 -108q-13 -99 -19.5 -162t-6.5 -90q0 -46 20 -71t48 -25q33 0 69 24t71 64.5t64 91.5l98 706h348l-152 -1114h-310l6 190
q-55 -88 -146.5 -149t-199.5 -61zM510 1312q-52 0 -92 46t-40 98q0 75 45 125.5t115 50.5q60 0 100 -42t40 -96q0 -81 -42 -131.5t-126 -50.5zM970 1312q-51 0 -90.5 45t-39.5 99q0 74 44 125t116 51q59 0 99.5 -42t40.5 -96q0 -79 -43.5 -130.5t-126.5 -51.5zM862 1666
q-39 14 -101.5 57t-128 98t-116 105.5t-64.5 79.5l206 194l326 -438z" />
    <glyph glyph-name="Gcaron" unicode="&#x1e6;" horiz-adv-x="1394" 
d="M662 -16q-208 0 -342 88q-132 87 -190 225t-58 295q0 266 106 478q105 209 285.5 324.5t400.5 115.5q69 0 119 -3.5t96 -13t101.5 -26.5t135.5 -45l-72 -314q-31 24 -99 52t-147 48t-142 20q-154 0 -252 -92q-97 -93 -139.5 -233.5t-42.5 -292.5q0 -120 32.5 -201.5
t97 -123t160.5 -41.5q47 0 104.5 7t91.5 25l44 280h-244l34 274h562l-104 -752q-22 -3 -49 -9t-59 -15q-112 -30 -211.5 -50t-218.5 -20zM746 1634l-206 366l122 66l208 -186l270 186l144 -66l-362 -366h-176z" />
    <glyph glyph-name="gcaron" unicode="&#x1e7;" horiz-adv-x="1240" 
d="M384 -504q-45 0 -98.5 6.5t-99 16.5t-66.5 21l50 248q19 -16 68.5 -36.5t107.5 -36t104 -15.5q98 0 145 52t65 154l62 344q-49 -109 -130.5 -187.5t-195.5 -78.5q-172 0 -250 116t-78 302q0 188 80 354q52 111 139 195t205 130.5t262 46.5q59 0 126 -13t116 -31l184 44
l-160 -1156q-12 -88 -42 -159t-74 -125q-87 -103 -222.5 -147.5t-297.5 -44.5zM518 222q37 0 74 40t70 100.5t58 123t38 108.5l44 326q-15 2 -33 3t-39 1q-96 0 -162 -72q-67 -73 -101.5 -189t-34.5 -241q0 -67 9.5 -111.5t28.5 -66.5t48 -22zM682 1266l-238 352l116 92
l238 -218l276 218l104 -92l-320 -352h-176z" />
    <glyph glyph-name="uni01EA" unicode="&#x1ea;" horiz-adv-x="1360" 
d="M610 -16q-172 0 -292.5 75t-184 206t-63.5 299q0 191 50.5 362t146 302.5t232.5 206.5t309 75q128 0 227 -44t166.5 -123.5t102 -186.5t34.5 -232q0 -190 -49.5 -360t-143.5 -300.5t-229 -205t-306 -74.5zM636 244q86 0 151 63t108.5 164.5t65 218.5t21.5 224
q0 130 -29.5 203t-78 103t-104.5 30q-84 0 -148 -64t-108 -166.5t-66 -218t-22 -219.5q0 -175 64 -256.5t146 -81.5zM419 -506q-79 0 -134.5 47.5t-55.5 122.5q0 58 33 110t85.5 96t112 78.5t113.5 57.5l78 33l102 -39q-133 -78 -199.5 -144.5t-66.5 -113.5q0 -40 18.5 -56
t49.5 -16q48 0 85 23.5t83 60.5l54 -110q-44 -45 -91 -78.5t-110.5 -52.5t-156.5 -19z" />
    <glyph glyph-name="uni01EB" unicode="&#x1eb;" horiz-adv-x="1154" 
d="M470 -16q-138 0 -228 61.5t-134 168.5t-44 244q0 183 72 336q71 153 210.5 243.5t337.5 90.5q138 0 228 -60.5t134 -167t44 -244.5q0 -181 -70 -336q-72 -153 -212 -244.5t-338 -91.5zM516 194q63 0 106 46t69 120t37.5 160.5t11.5 167.5q0 60 -8 113t-31.5 86t-68.5 33
q-61 0 -103.5 -49.5t-68.5 -126.5t-38 -164t-12 -162q0 -112 27 -168t79 -56zM341 -468q-79 0 -134.5 47.5t-55.5 122.5q0 62 37 116.5t95 100.5t119 81l90 51l124 -51q-97 -66 -152 -122.5t-55 -97.5q0 -40 18.5 -56t49.5 -16q38 0 80 23.5t88 60.5l54 -110
q-66 -67 -161.5 -108.5t-196.5 -41.5z" />
    <glyph glyph-name="uni01EE" unicode="&#x1ee;" horiz-adv-x="1072" 
d="M276 -14q-40 0 -112.5 7.5t-125.5 14.5l32 252q28 -5 72 -9.5t85.5 -7.5t62.5 -3q145 0 229.5 39t120.5 97t36 116q0 65 -31 103.5t-84.5 55.5t-122.5 17l-102 -32l34 258l278 252l122 84l-580 -4l40 268l888 2l-46 -338l-396 -330q134 -13 211 -58t109 -108.5t32 -131.5
q0 -139 -63.5 -242t-171.5 -169.5t-242 -99.5t-275 -33zM558 1634l-206 366l122 66l208 -186l270 186l144 -66l-362 -366h-176z" />
    <glyph glyph-name="uni01EF" unicode="&#x1ef;" horiz-adv-x="972" 
d="M190 -300q-45 3 -90 7t-90 7l38 246q35 -13 71.5 -16.5t70.5 -3.5q155 0 239.5 28.5t117.5 81.5t33 128q0 86 -66 114t-156 28l-152 116l218 300l110 116h-424l36 262h802l34 -44l-454 -574q113 3 184 -26t109 -77t52.5 -104t14.5 -107q-2 -155 -81 -269t-233.5 -171
t-383.5 -42zM514 1266l-238 352l116 92l238 -218l276 218l104 -92l-320 -352h-176z" />
    <glyph glyph-name="uni01F1" unicode="&#x1f1;" horiz-adv-x="2520" 
d="M556 -16q-57 0 -130.5 4t-134.5 8t-81 4h-140l214 1494h152q7 0 44.5 1.5t90 4l105 5t91 4t47.5 1.5q296 0 432 -158t136 -442q0 -200 -55.5 -369t-162.5 -294t-260 -194t-348 -69zM604 238q140 0 236 90q95 90 140.5 243t45.5 345q0 131 -30 206q-30 74 -90.5 103
t-161.5 29q-34 0 -77.5 -3t-72.5 -9l-140 -984q30 -10 67.5 -15t82.5 -5zM1350 0l-26 86l756 1074l90 66l-572 -10l44 278h954l22 -84l-726 -1062l-82 -72l604 10l-46 -286h-1018z" />
    <glyph glyph-name="uni01F2" unicode="&#x1f2;" horiz-adv-x="2350" 
d="M556 -16q-57 0 -130.5 4t-134.5 8t-81 4h-140l214 1494h152q7 0 44.5 1.5t90 4l105 5t91 4t47.5 1.5q296 0 432 -158t136 -442q0 -200 -55.5 -369t-162.5 -294t-260 -194t-348 -69zM604 238q140 0 236 90q95 90 140.5 243t45.5 345q0 131 -30 206q-30 74 -90.5 103
t-161.5 29q-34 0 -77.5 -3t-72.5 -9l-140 -984q30 -10 67.5 -15t82.5 -5zM1380 0l-34 44l542 772l50 36h-418l36 262h802l34 -44l-532 -774l-42 -30h446l-28 -266h-856z" />
    <glyph glyph-name="uni01F3" unicode="&#x1f3;" horiz-adv-x="2204" 
d="M396 -16q-172 0 -250 116t-78 302q0 188 80 354q52 111 139 195t205 130.5t262 46.5q20 0 40.5 -1t39.5 -3l64 472h336l-206 -1596h-312l16 272q-32 -77 -80 -142.5t-112 -105.5t-144 -40zM518 222q38 0 76 42t71.5 104.5t58.5 127t38 110.5l42 310q-29 8 -74 8
q-96 0 -162 -72q-67 -73 -101.5 -189t-34.5 -241q0 -67 9.5 -111.5t28.5 -66.5t48 -22zM1234 0l-34 44l542 772l50 36h-418l36 262h802l34 -44l-532 -774l-42 -30h446l-28 -266h-856z" />
    <glyph glyph-name="Aringacute" unicode="&#x1fa;" horiz-adv-x="1314" 
d="M-120 0l722 1494h440l222 -1494h-348l-30 280h-510l-116 -280h-380zM470 514h388l-74 660l-6 116l-38 -116zM844 1626q-142 0 -224 62t-82 176q0 105 60 174q60 68 147 97t175 29q137 0 217.5 -59t80.5 -173q0 -99 -54 -168q-54 -70 -139.5 -104t-180.5 -34zM866 1766
q68 0 115 31t47 107q0 53 -40.5 88.5t-91.5 35.5q-67 0 -116.5 -35t-49.5 -107q0 -49 42.5 -84.5t93.5 -35.5zM878 2092l-122 96l326 438l204 -166q-11 -23 -46.5 -64t-85 -89t-102 -93.5t-99 -78.5t-75.5 -43z" />
    <glyph glyph-name="aringacute" unicode="&#x1fb;" horiz-adv-x="1224" 
d="M396 -16q-172 0 -250 116t-78 302q0 154 49 286t140 231t217 154t280 55q59 0 125.5 -13t118.5 -31l178 44l-156 -1128h-312l10 242q-48 -108 -130 -183t-192 -75zM518 218q37 0 74 40.5t70 101t58 123.5t38 109l46 326q-27 6 -74 6q-96 0 -162 -72q-67 -73 -101.5 -189
t-34.5 -241q0 -68 9.5 -113.5t28.5 -68t48 -22.5zM770 1224q-142 0 -224 62t-82 176q0 105 60 174q60 68 147 97t175 29q137 0 217.5 -59t80.5 -173q0 -99 -54 -168q-54 -70 -139.5 -104t-180.5 -34zM792 1364q68 0 115 31t47 107q0 53 -40.5 88.5t-91.5 35.5
q-67 0 -116.5 -35t-49.5 -107q0 -49 42.5 -84.5t93.5 -35.5zM908 1620l-122 96l326 438l204 -166q-11 -23 -46.5 -64t-85 -89t-102 -93.5t-99 -78.5t-75.5 -43z" />
    <glyph glyph-name="AEacute" unicode="&#x1fc;" horiz-adv-x="1938" 
d="M-118 0l744 1296l-236 32l28 166h1520l-36 -268l-548 2l-48 -330l410 6l-36 -270l-410 8l-54 -378l618 10l-36 -274h-966l42 290h-456l-154 -290h-382zM550 534h358l102 706l-78 8zM1082 1634l-122 96l326 438l204 -166q-11 -23 -46.5 -64t-85 -89t-102 -93.5t-99 -78.5
t-75.5 -43z" />
    <glyph glyph-name="aeacute" unicode="&#x1fd;" horiz-adv-x="1708" 
d="M378 -16q-172 0 -245 115.5t-73 302.5q0 159 57.5 292t157.5 230t230.5 150.5t276.5 53.5q74 0 142 -17.5t116 -46.5q131 64 282 64q112 0 185.5 -30t110 -87.5t36.5 -138.5q0 -107 -45 -186.5t-125.5 -137.5t-188.5 -100t-233 -74q0 -52 13 -86t43.5 -51t83.5 -17
q56 0 119 25t116.5 62t80.5 73l90 -168q-37 -51 -92.5 -93t-122 -72t-137.5 -46.5t-140 -16.5q-168 0 -268.5 84t-135.5 220q-55 -127 -136.5 -215.5t-197.5 -88.5zM500 240q29 0 60.5 32.5t60.5 83.5t50.5 106.5t30.5 101.5q8 52 21 99.5t31.5 91t42.5 83t53 74.5
q-45 12 -92 12q-88 0 -154.5 -46.5t-110 -123.5t-65.5 -169t-22 -183q0 -43 10 -80t30.5 -59.5t53.5 -22.5zM1056 548q47 3 94 28t86.5 66t63.5 91.5t24 104.5q0 53 -16.5 76.5t-57.5 23.5q-31 0 -64 -27.5t-54 -66.5q-37 -67 -55.5 -153t-20.5 -143zM1020 1250l-122 96
l326 438l204 -166q-11 -23 -46.5 -64t-85 -89t-102 -93.5t-99 -78.5t-75.5 -43z" />
    <glyph glyph-name="Oslashacute" unicode="&#x1fe;" horiz-adv-x="1360" 
d="M224 -128l-86 46l116 184q-94 78 -142 199t-48 265q0 258 90 474t257.5 344t390.5 128q159 0 274 -68l106 186l88 -46l-114 -200q86 -79 131 -198.5t45 -259.5q0 -257 -88 -472q-88 -214 -253.5 -341t-386.5 -127q-76 0 -143.5 15.5t-126.5 46.5zM630 246q102 0 184 100
q78 101 120 255.5t42 314.5q0 111 -18 180l-458 -806q44 -44 130 -44zM444 386l462 816q-47 50 -142 50q-102 0 -180 -102q-79 -102 -121.5 -256.5t-42.5 -309.5q0 -123 24 -198zM786 1634l-122 96l326 438l204 -166q-11 -23 -46.5 -64t-85 -89t-102 -93.5t-99 -78.5
t-75.5 -43z" />
    <glyph glyph-name="oslashacute" unicode="&#x1ff;" horiz-adv-x="1154" 
d="M232 -136l-88 38l146 250l60 48l408 792l38 42l130 224l84 -38l-130 -222l-60 -52l-426 -814l-36 -46zM470 -16q-138 0 -228 61.5t-134 168.5t-44 244q0 183 72 336q71 153 210.5 243.5t337.5 90.5q138 0 228 -60.5t134 -167t44 -244.5q0 -181 -70 -336
q-72 -153 -212 -244.5t-338 -91.5zM516 194q63 0 106 46t69 120t37.5 160.5t11.5 167.5q0 60 -8 113t-31.5 86t-68.5 33q-61 0 -103.5 -49.5t-68.5 -126.5t-38 -164t-12 -162q0 -112 27 -168t79 -56zM632 1250l-122 96l326 438l204 -166q-11 -23 -46.5 -64t-85 -89
t-102 -93.5t-99 -78.5t-75.5 -43z" />
    <glyph glyph-name="uni0200" unicode="&#x200;" horiz-adv-x="1314" 
d="M-120 0l722 1494h440l222 -1494h-348l-30 280h-510l-116 -280h-380zM470 514h388l-74 660l-6 116l-38 -116zM654 1620q-37 19 -90 65t-106.5 104.5t-94.5 114.5t-55 94l184 124l262 -436zM1124 1620q-37 19 -87 66t-99.5 106.5t-88 116.5t-53.5 95l178 118l258 -436z" />
    <glyph glyph-name="uni0201" unicode="&#x201;" horiz-adv-x="1224" 
d="M396 -16q-172 0 -250 116t-78 302q0 154 49 286t140 231t217 154t280 55q59 0 125.5 -13t118.5 -31l178 44l-156 -1128h-312l10 242q-48 -108 -130 -183t-192 -75zM518 218q37 0 74 40.5t70 101t58 123.5t38 109l46 326q-27 6 -74 6q-96 0 -162 -72q-67 -73 -101.5 -189
t-34.5 -241q0 -68 9.5 -113.5t28.5 -68t48 -22.5zM560 1254q-37 19 -92 65t-109.5 104.5t-95 114.5t-49.5 94l212 140l262 -436zM1030 1254q-37 19 -89 66t-103 106.5t-88.5 116.5t-47.5 95l206 134l258 -436z" />
    <glyph glyph-name="uni0202" unicode="&#x202;" horiz-adv-x="1314" 
d="M-120 0l722 1494h440l222 -1494h-348l-30 280h-510l-116 -280h-380zM470 514h388l-74 660l-6 116l-38 -116zM874 2030q122 0 198 -45.5t103.5 -129t4.5 -197.5h-184q11 90 -17 125t-121 35q-52 0 -84.5 -20t-50 -56t-25.5 -84h-180q0 120 43 203t123 126t190 43z" />
    <glyph glyph-name="uni0203" unicode="&#x203;" horiz-adv-x="1224" 
d="M396 -16q-172 0 -250 116t-78 302q0 154 49 286t140 231t217 154t280 55q59 0 125.5 -13t118.5 -31l178 44l-156 -1128h-312l10 242q-48 -108 -130 -183t-192 -75zM518 218q37 0 74 40.5t70 101t58 123.5t38 109l46 326q-27 6 -74 6q-96 0 -162 -72q-67 -73 -101.5 -189
t-34.5 -241q0 -68 9.5 -113.5t28.5 -68t48 -22.5zM794 1668q122 0 198 -45.5t103.5 -129t4.5 -197.5h-184q11 90 -17 125t-121 35q-52 0 -84.5 -20t-50 -56t-25.5 -84h-180q0 120 43 203t123 126t190 43z" />
    <glyph glyph-name="uni0204" unicode="&#x204;" horiz-adv-x="1176" 
d="M70 0l214 1494h892l-36 -268l-548 2l-48 -330l410 6l-36 -270l-410 8l-54 -378l618 10l-36 -274h-966zM576 1620q-37 19 -90 65t-106.5 104.5t-94.5 114.5t-55 94l184 124l262 -436zM1046 1620q-37 19 -87 66t-99.5 106.5t-88 116.5t-53.5 95l178 118l258 -436z" />
    <glyph glyph-name="uni0205" unicode="&#x205;" horiz-adv-x="1086" 
d="M494 -16q-146 0 -238 62q-96 62 -140 163.5t-44 222.5q0 199 84 358q83 161 226.5 249.5t317.5 88.5q112 0 185.5 -33t110 -90.5t36.5 -132.5q0 -100 -45.5 -178.5t-126.5 -138.5t-189 -104.5t-233 -76.5v-14.5v-13.5q6 -64 38 -95t104 -31q55 0 118 25t117 62t81 73
l90 -168q-37 -50 -92.5 -92t-122 -72.5t-138 -47t-139.5 -16.5zM434 548q47 3 93 28t84.5 66t61.5 91.5t23 104.5q0 53 -16.5 76.5t-57.5 23.5q-36 0 -63 -34t-59 -84q-42 -67 -53 -144t-13 -128zM504 1254q-37 19 -92 65t-109.5 104.5t-95 114.5t-49.5 94l212 140l262 -436
zM974 1254q-37 19 -89 66t-103 106.5t-88.5 116.5t-47.5 95l206 134l258 -436z" />
    <glyph glyph-name="uni0206" unicode="&#x206;" horiz-adv-x="1176" 
d="M70 0l214 1494h892l-36 -268l-548 2l-48 -330l410 6l-36 -270l-410 8l-54 -378l618 10l-36 -274h-966zM796 2030q122 0 198 -45.5t103.5 -129t4.5 -197.5h-184q11 90 -17 125t-121 35q-52 0 -84.5 -20t-50 -56t-25.5 -84h-180q0 120 43 203t123 126t190 43z" />
    <glyph glyph-name="uni0207" unicode="&#x207;" horiz-adv-x="1086" 
d="M494 -16q-146 0 -238 62q-96 62 -140 163.5t-44 222.5q0 199 84 358q83 161 226.5 249.5t317.5 88.5q112 0 185.5 -33t110 -90.5t36.5 -132.5q0 -100 -45.5 -178.5t-126.5 -138.5t-189 -104.5t-233 -76.5v-14.5v-13.5q6 -64 38 -95t104 -31q55 0 118 25t117 62t81 73
l90 -168q-37 -50 -92.5 -92t-122 -72.5t-138 -47t-139.5 -16.5zM434 548q47 3 93 28t84.5 66t61.5 91.5t23 104.5q0 53 -16.5 76.5t-57.5 23.5q-36 0 -63 -34t-59 -84q-42 -67 -53 -144t-13 -128zM738 1668q122 0 198 -45.5t103.5 -129t4.5 -197.5h-184q11 90 -17 125
t-121 35q-52 0 -84.5 -20t-50 -56t-25.5 -84h-180q0 120 43 203t123 126t190 43z" />
    <glyph glyph-name="uni0208" unicode="&#x208;" horiz-adv-x="690" 
d="M96 0l214 1494h346l-214 -1494h-346zM306 1620q-37 19 -90 65t-106.5 104.5t-94.5 114.5t-55 94l184 124l262 -436zM776 1620q-37 19 -87 66t-99.5 106.5t-88 116.5t-53.5 95l178 118l258 -436z" />
    <glyph glyph-name="uni0209" unicode="&#x209;" horiz-adv-x="648" 
d="M78 0l152 1114h352l-156 -1114h-348zM204 1254q-37 19 -92 65t-109.5 104.5t-95 114.5t-49.5 94l212 140l262 -436zM674 1254q-37 19 -89 66t-103 106.5t-88.5 116.5t-47.5 95l206 134l258 -436z" />
    <glyph glyph-name="uni020A" unicode="&#x20a;" horiz-adv-x="690" 
d="M96 0l214 1494h346l-214 -1494h-346zM526 2030q122 0 198 -45.5t103.5 -129t4.5 -197.5h-184q11 90 -17 125t-121 35q-52 0 -84.5 -20t-50 -56t-25.5 -84h-180q0 120 43 203t123 126t190 43z" />
    <glyph glyph-name="uni020B" unicode="&#x20b;" horiz-adv-x="648" 
d="M78 0l152 1114h352l-156 -1114h-348zM438 1668q122 0 198 -45.5t103.5 -129t4.5 -197.5h-184q11 90 -17 125t-121 35q-52 0 -84.5 -20t-50 -56t-25.5 -84h-180q0 120 43 203t123 126t190 43z" />
    <glyph glyph-name="uni020C" unicode="&#x20c;" horiz-adv-x="1360" 
d="M610 -16q-172 0 -292.5 75t-184 206t-63.5 299q0 191 50.5 362t146 302.5t232.5 206.5t309 75q128 0 227 -44t166.5 -123.5t102 -186.5t34.5 -232q0 -190 -49.5 -360t-143.5 -300.5t-229 -205t-306 -74.5zM636 244q86 0 151 63t108.5 164.5t65 218.5t21.5 224
q0 130 -29.5 203t-78 103t-104.5 30q-84 0 -148 -64t-108 -166.5t-66 -218t-22 -219.5q0 -175 64 -256.5t146 -81.5zM640 1620q-37 19 -90 65t-106.5 104.5t-94.5 114.5t-55 94l184 124l262 -436zM1110 1620q-37 19 -87 66t-99.5 106.5t-88 116.5t-53.5 95l178 118l258 -436
z" />
    <glyph glyph-name="uni020D" unicode="&#x20d;" horiz-adv-x="1154" 
d="M470 -16q-138 0 -228 61.5t-134 168.5t-44 244q0 183 72 336q71 153 210.5 243.5t337.5 90.5q138 0 228 -60.5t134 -167t44 -244.5q0 -181 -70 -336q-72 -153 -212 -244.5t-338 -91.5zM516 194q63 0 106 46t69 120t37.5 160.5t11.5 167.5q0 60 -8 113t-31.5 86t-68.5 33
q-61 0 -103.5 -49.5t-68.5 -126.5t-38 -164t-12 -162q0 -112 27 -168t79 -56zM460 1254q-37 19 -92 65t-109.5 104.5t-95 114.5t-49.5 94l212 140l262 -436zM930 1254q-37 19 -89 66t-103 106.5t-88.5 116.5t-47.5 95l206 134l258 -436z" />
    <glyph glyph-name="uni020E" unicode="&#x20e;" horiz-adv-x="1360" 
d="M610 -16q-172 0 -292.5 75t-184 206t-63.5 299q0 191 50.5 362t146 302.5t232.5 206.5t309 75q128 0 227 -44t166.5 -123.5t102 -186.5t34.5 -232q0 -190 -49.5 -360t-143.5 -300.5t-229 -205t-306 -74.5zM636 244q86 0 151 63t108.5 164.5t65 218.5t21.5 224
q0 130 -29.5 203t-78 103t-104.5 30q-84 0 -148 -64t-108 -166.5t-66 -218t-22 -219.5q0 -175 64 -256.5t146 -81.5zM860 2030q122 0 198 -45.5t103.5 -129t4.5 -197.5h-184q11 90 -17 125t-121 35q-52 0 -84.5 -20t-50 -56t-25.5 -84h-180q0 120 43 203t123 126t190 43z
" />
    <glyph glyph-name="uni020F" unicode="&#x20f;" horiz-adv-x="1154" 
d="M470 -16q-138 0 -228 61.5t-134 168.5t-44 244q0 183 72 336q71 153 210.5 243.5t337.5 90.5q138 0 228 -60.5t134 -167t44 -244.5q0 -181 -70 -336q-72 -153 -212 -244.5t-338 -91.5zM516 194q63 0 106 46t69 120t37.5 160.5t11.5 167.5q0 60 -8 113t-31.5 86t-68.5 33
q-61 0 -103.5 -49.5t-68.5 -126.5t-38 -164t-12 -162q0 -112 27 -168t79 -56zM694 1668q122 0 198 -45.5t103.5 -129t4.5 -197.5h-184q11 90 -17 125t-121 35q-52 0 -84.5 -20t-50 -56t-25.5 -84h-180q0 120 43 203t123 126t190 43z" />
    <glyph glyph-name="uni0210" unicode="&#x210;" horiz-adv-x="1312" 
d="M70 0l214 1494h196q34 0 85 4t104 8t93 4q284 0 410 -96.5t126 -287.5q0 -181 -77 -315.5t-241 -184.5q27 -24 50.5 -62.5t44.5 -90.5t41 -115q30 -93 53 -162.5t42.5 -117.5t40.5 -78h-382q-10 14 -22.5 54.5t-25 90t-22.5 92t-16 61.5q-10 41 -25.5 86.5t-34 85.5
t-37 65t-35.5 25h-152l-84 -560h-346zM726 826q82 0 133.5 38.5t76 100.5t24.5 133q0 102 -58.5 137t-171.5 35q-23 0 -48.5 -1t-48 -3.5t-37.5 -5.5l-60 -432q26 -1 73.5 -1.5t116.5 -0.5zM562 1620q-37 19 -90 65t-106.5 104.5t-94.5 114.5t-55 94l184 124l262 -436z
M1032 1620q-37 19 -87 66t-99.5 106.5t-88 116.5t-53.5 95l178 118l258 -436z" />
    <glyph glyph-name="uni0211" unicode="&#x211;" horiz-adv-x="884" 
d="M76 0l152 1114h336l-16 -232q22 65 64 121t99 90.5t123 34.5q53 0 68 -12l-62 -354q-7 12 -37 19t-59 7q-43 0 -79.5 -8.5t-70 -27.5t-68.5 -50l-102 -702h-348zM402 1254q-37 19 -92 65t-109.5 104.5t-95 114.5t-49.5 94l212 140l262 -436zM872 1254q-37 19 -89 66
t-103 106.5t-88.5 116.5t-47.5 95l206 134l258 -436z" />
    <glyph glyph-name="uni0212" unicode="&#x212;" horiz-adv-x="1312" 
d="M70 0l214 1494h196q34 0 85 4t104 8t93 4q284 0 410 -96.5t126 -287.5q0 -181 -77 -315.5t-241 -184.5q27 -24 50.5 -62.5t44.5 -90.5t41 -115q30 -93 53 -162.5t42.5 -117.5t40.5 -78h-382q-10 14 -22.5 54.5t-25 90t-22.5 92t-16 61.5q-10 41 -25.5 86.5t-34 85.5
t-37 65t-35.5 25h-152l-84 -560h-346zM726 826q82 0 133.5 38.5t76 100.5t24.5 133q0 102 -58.5 137t-171.5 35q-23 0 -48.5 -1t-48 -3.5t-37.5 -5.5l-60 -432q26 -1 73.5 -1.5t116.5 -0.5zM782 2030q122 0 198 -45.5t103.5 -129t4.5 -197.5h-184q11 90 -17 125t-121 35
q-52 0 -84.5 -20t-50 -56t-25.5 -84h-180q0 120 43 203t123 126t190 43z" />
    <glyph glyph-name="uni0213" unicode="&#x213;" horiz-adv-x="884" 
d="M76 0l152 1114h336l-16 -232q22 65 64 121t99 90.5t123 34.5q53 0 68 -12l-62 -354q-7 12 -37 19t-59 7q-43 0 -79.5 -8.5t-70 -27.5t-68.5 -50l-102 -702h-348zM636 1668q122 0 198 -45.5t103.5 -129t4.5 -197.5h-184q11 90 -17 125t-121 35q-52 0 -84.5 -20t-50 -56
t-25.5 -84h-180q0 120 43 203t123 126t190 43z" />
    <glyph glyph-name="uni0214" unicode="&#x214;" horiz-adv-x="1406" 
d="M606 -16q-247 0 -369.5 115t-124.5 323q0 35 3.5 75.5t10.5 86.5l128 910h346l-124 -868q-4 -39 -10 -83.5t-6 -98.5q0 -108 46 -151t154 -43q85 0 141 50t88.5 134t48.5 186l124 874h344l-128 -910q-15 -109 -42 -196t-66 -152q-79 -132 -216.5 -192t-347.5 -60z
M656 1620q-37 19 -90 65t-106.5 104.5t-94.5 114.5t-55 94l184 124l262 -436zM1126 1620q-37 19 -87 66t-99.5 106.5t-88 116.5t-53.5 95l178 118l258 -436z" />
    <glyph glyph-name="uni0215" unicode="&#x215;" horiz-adv-x="1252" 
d="M382 -20q-120 0 -197 61.5t-77 194.5q0 54 9 140t27 204l24 178l24 178l24 178h346l-14 -108t-14 -107.5l-14 -107t-14 -107.5l-14 -108q-13 -99 -19.5 -162t-6.5 -90q0 -46 20 -71t48 -25q33 0 69 24t71 64.5t64 91.5l98 706h348l-152 -1114h-310l6 190
q-55 -88 -146.5 -149t-199.5 -61zM522 1254q-37 19 -92 65t-109.5 104.5t-95 114.5t-49.5 94l212 140l262 -436zM992 1254q-37 19 -89 66t-103 106.5t-88.5 116.5t-47.5 95l206 134l258 -436z" />
    <glyph glyph-name="uni0216" unicode="&#x216;" horiz-adv-x="1406" 
d="M606 -16q-247 0 -369.5 115t-124.5 323q0 35 3.5 75.5t10.5 86.5l128 910h346l-124 -868q-4 -39 -10 -83.5t-6 -98.5q0 -108 46 -151t154 -43q85 0 141 50t88.5 134t48.5 186l124 874h344l-128 -910q-15 -109 -42 -196t-66 -152q-79 -132 -216.5 -192t-347.5 -60z
M876 2030q122 0 198 -45.5t103.5 -129t4.5 -197.5h-184q11 90 -17 125t-121 35q-52 0 -84.5 -20t-50 -56t-25.5 -84h-180q0 120 43 203t123 126t190 43z" />
    <glyph glyph-name="uni0217" unicode="&#x217;" horiz-adv-x="1252" 
d="M382 -20q-120 0 -197 61.5t-77 194.5q0 54 9 140t27 204l24 178l24 178l24 178h346l-14 -108t-14 -107.5l-14 -107t-14 -107.5l-14 -108q-13 -99 -19.5 -162t-6.5 -90q0 -46 20 -71t48 -25q33 0 69 24t71 64.5t64 91.5l98 706h348l-152 -1114h-310l6 190
q-55 -88 -146.5 -149t-199.5 -61zM756 1668q122 0 198 -45.5t103.5 -129t4.5 -197.5h-184q11 90 -17 125t-121 35q-52 0 -84.5 -20t-50 -56t-25.5 -84h-180q0 120 43 203t123 126t190 43z" />
    <glyph glyph-name="uni0218" unicode="&#x218;" horiz-adv-x="1034" 
d="M382 -16q-41 0 -98 8t-115 21.5t-105 30.5t-68 34l116 282q33 -25 82 -48t103 -37.5t101 -14.5q71 0 115 19t64.5 54t20.5 83q0 68 -46 117.5t-138 118.5q-72 55 -128.5 119t-89 137t-32.5 156q0 143 68.5 242.5t186.5 151.5t267 52q116 0 212.5 -26t139.5 -58l-110 -274
q-34 35 -107 60.5t-145 25.5q-60 0 -100.5 -18.5t-61 -49.5t-20.5 -70q0 -45 25.5 -84.5t67.5 -78t93 -79.5q81 -64 142.5 -127.5t95.5 -132.5t34 -150q0 -159 -75 -261.5t-204 -152.5t-291 -50zM332 -648l-100 68l4 24q23 14 44.5 47t21.5 79q0 38 -18.5 67t-47.5 33l12 90
l152 102q68 -12 111 -72.5t43 -135.5q0 -74 -31.5 -139.5t-82 -109.5t-108.5 -53z" />
    <glyph glyph-name="uni0219" unicode="&#x219;" horiz-adv-x="954" 
d="M378 -16q-56 0 -122 9.5t-121.5 25t-80.5 33.5l56 274q19 -21 68 -43.5t103.5 -38.5t88.5 -16q66 0 104 17t38 63q0 34 -24.5 61.5t-70 60t-109.5 82.5q-70 60 -109 128t-39 164q0 111 62 183t164.5 106.5t225.5 34.5q48 0 102 -5.5t97.5 -14t60.5 -16.5l-38 -292
q-20 21 -57.5 41.5t-83 33.5t-89.5 13q-60 0 -91 -21.5t-31 -56.5q0 -37 30.5 -69.5t69 -60.5t62.5 -52q63 -48 107 -93t66.5 -95.5t22.5 -115.5q0 -123 -63 -197.5t-168 -108.5t-231 -34zM326 -654l-94 68l4 24q23 14 41.5 43t18.5 89q0 38 -18.5 67t-47.5 33l12 90
l152 102q68 -12 111 -72.5t43 -135.5q0 -74 -31.5 -141t-82 -112.5t-108.5 -54.5z" />
    <glyph glyph-name="uni021A" unicode="&#x21a;" horiz-adv-x="1126" 
d="M306 0l178 1236l-352 -10l44 268h1042l-40 -268l-344 10l-176 -1236h-352zM378 -648l-100 68l4 24q23 14 44.5 47t21.5 79q0 38 -18.5 67t-47.5 33l12 90l152 102q68 -12 111 -72.5t43 -135.5q0 -74 -31.5 -139.5t-82 -109.5t-108.5 -53z" />
    <glyph glyph-name="uni021B" unicode="&#x21b;" horiz-adv-x="820" 
d="M344 -20q-106 0 -168 55t-62 155q0 9 3 43t7.5 76.5t9.5 78.5l70 514h-82l36 212h102l96 268h262l-38 -268h218l-22 -212h-222q-23 -167 -38 -275.5t-24 -172t-13 -96.5t-5.5 -48t-1.5 -28q0 -30 14 -47t54 -17q21 0 53 11.5t64 30t53 38.5l54 -166q-52 -40 -116.5 -74.5
t-140.5 -56t-163 -21.5zM250 -654l-94 68l4 24q23 14 41.5 43t18.5 89q0 38 -18.5 67t-47.5 33l12 90l152 102q68 -12 111 -72.5t43 -135.5q0 -74 -31.5 -141t-82 -112.5t-108.5 -54.5z" />
    <glyph glyph-name="uni022A" unicode="&#x22a;" horiz-adv-x="1360" 
d="M610 -16q-172 0 -292.5 75t-184 206t-63.5 299q0 191 50.5 362t146 302.5t232.5 206.5t309 75q128 0 227 -44t166.5 -123.5t102 -186.5t34.5 -232q0 -190 -49.5 -360t-143.5 -300.5t-229 -205t-306 -74.5zM636 244q86 0 151 63t108.5 164.5t65 218.5t21.5 224
q0 130 -29.5 203t-78 103t-104.5 30q-84 0 -148 -64t-108 -166.5t-66 -218t-22 -219.5q0 -175 64 -256.5t146 -81.5zM606 1658q-58 0 -102 51t-44 109q0 83 49.5 139.5t128.5 56.5q66 0 110 -47t44 -107q0 -90 -46.5 -146t-139.5 -56zM1066 1658q-57 0 -100.5 50t-43.5 110
q0 81 48.5 138.5t127.5 57.5q66 0 111 -47t45 -107q0 -88 -48 -145t-140 -57zM608 2118l18 214h582l-18 -214h-582z" />
    <glyph glyph-name="uni022B" unicode="&#x22b;" horiz-adv-x="1154" 
d="M470 -16q-138 0 -228 61.5t-134 168.5t-44 244q0 183 72 336q71 153 210.5 243.5t337.5 90.5q138 0 228 -60.5t134 -167t44 -244.5q0 -181 -70 -336q-72 -153 -212 -244.5t-338 -91.5zM516 194q63 0 106 46t69 120t37.5 160.5t11.5 167.5q0 60 -8 113t-31.5 86t-68.5 33
q-61 0 -103.5 -49.5t-68.5 -126.5t-38 -164t-12 -162q0 -112 27 -168t79 -56zM448 1312q-52 0 -92 46t-40 98q0 75 45 125.5t115 50.5q60 0 100 -42t40 -96q0 -81 -42 -131.5t-126 -50.5zM908 1312q-51 0 -90.5 45t-39.5 99q0 74 44 125t116 51q59 0 99.5 -42t40.5 -96
q0 -79 -43.5 -130.5t-126.5 -51.5zM450 1716l26 214h582l-26 -214h-582z" />
    <glyph glyph-name="uni022C" unicode="&#x22c;" horiz-adv-x="1360" 
d="M610 -16q-172 0 -292.5 75t-184 206t-63.5 299q0 191 50.5 362t146 302.5t232.5 206.5t309 75q128 0 227 -44t166.5 -123.5t102 -186.5t34.5 -232q0 -190 -49.5 -360t-143.5 -300.5t-229 -205t-306 -74.5zM636 244q86 0 151 63t108.5 164.5t65 218.5t21.5 224
q0 130 -29.5 203t-78 103t-104.5 30q-84 0 -148 -64t-108 -166.5t-66 -218t-22 -219.5q0 -175 64 -256.5t146 -81.5zM1002 1644q-64 0 -110.5 24.5t-81.5 61.5q-28 32 -50 48t-60 16q-39 0 -67 -15t-67 -71l-94 132q29 57 67 96.5t82 59.5t91 20q60 0 104 -19.5t78 -60.5
q27 -31 47.5 -48.5t48.5 -17.5q29 0 54.5 13t47 39.5t38.5 67.5l106 -142q-18 -48 -54.5 -95t-83.5 -78t-96 -31zM608 2092l18 214h582l-18 -214h-582z" />
    <glyph glyph-name="uni022D" unicode="&#x22d;" horiz-adv-x="1154" 
d="M470 -16q-138 0 -228 61.5t-134 168.5t-44 244q0 183 72 336q71 153 210.5 243.5t337.5 90.5q138 0 228 -60.5t134 -167t44 -244.5q0 -181 -70 -336q-72 -153 -212 -244.5t-338 -91.5zM516 194q63 0 106 46t69 120t37.5 160.5t11.5 167.5q0 60 -8 113t-31.5 86t-68.5 33
q-61 0 -103.5 -49.5t-68.5 -126.5t-38 -164t-12 -162q0 -112 27 -168t79 -56zM848 1230q-64 0 -110.5 24.5t-81.5 61.5q-28 32 -50 48t-60 16q-39 0 -67 -15t-67 -71l-94 132q44 86 107 131t133 45q60 0 104 -19.5t78 -60.5q27 -31 47.5 -48.5t48.5 -17.5q29 0 54.5 13
t47 39.5t38.5 67.5l106 -142q-18 -48 -54.5 -95t-83.5 -78t-96 -31zM442 1706l26 214h582l-26 -214h-582z" />
    <glyph glyph-name="uni0230" unicode="&#x230;" horiz-adv-x="1360" 
d="M610 -16q-172 0 -292.5 75t-184 206t-63.5 299q0 191 50.5 362t146 302.5t232.5 206.5t309 75q128 0 227 -44t166.5 -123.5t102 -186.5t34.5 -232q0 -190 -49.5 -360t-143.5 -300.5t-229 -205t-306 -74.5zM636 244q86 0 151 63t108.5 164.5t65 218.5t21.5 224
q0 130 -29.5 203t-78 103t-104.5 30q-84 0 -148 -64t-108 -166.5t-66 -218t-22 -219.5q0 -175 64 -256.5t146 -81.5zM832 1634q-64 0 -116 48t-52 112q0 84 59 142t149 58q72 0 122 -46.5t50 -111.5q0 -88 -56.5 -145t-155.5 -57zM602 2078l18 214h582l-18 -214h-582z" />
    <glyph glyph-name="uni0231" unicode="&#x231;" horiz-adv-x="1154" 
d="M470 -16q-138 0 -228 61.5t-134 168.5t-44 244q0 183 72 336q71 153 210.5 243.5t337.5 90.5q138 0 228 -60.5t134 -167t44 -244.5q0 -181 -70 -336q-72 -153 -212 -244.5t-338 -91.5zM516 194q63 0 106 46t69 120t37.5 160.5t11.5 167.5q0 60 -8 113t-31.5 86t-68.5 33
q-61 0 -103.5 -49.5t-68.5 -126.5t-38 -164t-12 -162q0 -112 27 -168t79 -56zM666 1272q-64 0 -116 48t-52 112q0 84 59 142t149 58q72 0 122 -46.5t50 -111.5q0 -88 -56.5 -145t-155.5 -57zM450 1758l26 214h582l-26 -214h-582z" />
    <glyph glyph-name="uni0232" unicode="&#x232;" horiz-adv-x="1136" 
d="M310 0l82 576l-310 918h362l138 -512l24 -132l58 132l276 512h384l-586 -918l-82 -576h-346zM424 1634l18 214h582l-18 -214h-582z" />
    <glyph glyph-name="uni0233" unicode="&#x233;" horiz-adv-x="1114" 
d="M164 -504q-72 0 -136.5 21t-117.5 51l88 238q35 -24 83 -41t85 -17q45 0 98 32t104.5 85t91.5 115h-202l-54 366l-112 768h344l72 -670l34 -310q32 68 60.5 141.5t53.5 152.5q34 96 52.5 175.5t28 162.5t15.5 190q3 33 3.5 69.5t0.5 88.5h312q3 -15 4.5 -52.5t1.5 -97.5
q0 -148 -36 -307.5t-110 -332.5q-51 -119 -123 -246t-153 -244t-160 -206q-54 -58 -134 -95t-194 -37zM344 1300l26 214h582l-26 -214h-582z" />
    <glyph glyph-name="uni0237" unicode="&#x237;" horiz-adv-x="648" 
d="M-92 -516q-60 0 -106.5 8t-69.5 26l70 182q8 -4 25 -9t29 -5q47 0 85.5 36.5t68 94t49 123.5t27.5 124l144 1050h352l-156 -1114q-19 -150 -90 -266.5t-181 -183t-247 -66.5z" />
    <glyph glyph-name="uni0259" unicode="&#x259;" horiz-adv-x="1076" 
d="M592 1130q146 0 238 -62q96 -61 140 -162.5t44 -223.5q0 -199 -84 -358q-82 -160 -226 -249t-318 -89q-112 0 -185.5 33t-110 90.5t-36.5 132.5q0 101 45.5 179t126.5 138t189 104.5t233 76.5v15v13q-6 65 -38 95.5t-104 30.5q-55 0 -118 -25t-117 -62t-81 -73l-90 168
q37 50 92.5 92t122 72.5t138 47t139.5 16.5zM652 566q-46 -3 -92.5 -28t-85 -66t-61.5 -91.5t-23 -104.5q0 -52 17 -76t57 -24q36 0 63.5 34.5t58.5 83.5q42 68 53.5 144.5t12.5 127.5z" />
    <glyph glyph-name="uni0292" unicode="&#x292;" horiz-adv-x="972" 
d="M190 -300q-45 3 -90 7t-90 7l38 246q35 -13 71.5 -16.5t70.5 -3.5q155 0 239.5 28.5t117.5 81.5t33 128q0 86 -66 114t-156 28l-152 116l218 300l110 116h-424l36 262h802l34 -44l-454 -574q113 3 184 -26t109 -77t52.5 -104t14.5 -107q-2 -155 -81 -269t-233.5 -171
t-383.5 -42z" />
    <glyph glyph-name="uni02B9" unicode="&#x2b9;" horiz-adv-x="608" 
d="M220 1162l120 578h298l-186 -578h-232z" />
    <glyph glyph-name="uni02BA" unicode="&#x2ba;" horiz-adv-x="1066" 
d="M220 1162l120 578h298l-186 -578h-232zM678 1162l120 578h298l-186 -578h-232z" />
    <glyph glyph-name="uni02BB" unicode="&#x2bb;" horiz-adv-x="704" 
d="M390 866q-40 22 -80.5 69.5t-68 122t-27.5 176.5q0 108 45.5 206.5t123.5 174.5t175 115l114 -138l-2 -22q-41 -20 -74.5 -65.5t-53.5 -106.5t-20 -128q0 -58 19 -123t43 -89l-6 -40z" />
    <glyph glyph-name="uni02BC" unicode="&#x2bc;" horiz-adv-x="692" 
d="M278 866l-112 136l2 22q41 21 74 66t52.5 105.5t19.5 128.5q0 89 -22 138.5t-46 73.5l4 40l196 152q40 -22 81 -69.5t69 -117t28 -157.5q0 -113 -46 -217t-124.5 -183t-175.5 -118z" />
    <glyph glyph-name="uni02BE" unicode="&#x2be;" horiz-adv-x="473" 
d="M222 1266v164q68 0 111 39.5t43 100.5q0 37 -18 67t-52.5 47.5t-83.5 17.5v160q87 -1 167.5 -29.5t132.5 -92t54 -168.5q3 -147 -93.5 -226.5t-260.5 -79.5z" />
    <glyph glyph-name="uni02BF" unicode="&#x2bf;" horiz-adv-x="473" 
d="M516 1266q-163 0 -260 79.5t-94 226.5q2 105 54 168.5t132.5 92t167.5 29.5v-160q-49 0 -83.5 -17.5t-52.5 -47.5t-18 -67q0 -61 43.5 -100.5t110.5 -39.5v-164z" />
    <glyph glyph-name="circumflex" unicode="&#x2c6;" horiz-adv-x="784" 
d="M168 1200l-134 66l362 364h176l208 -364l-152 -66l-176 170z" />
    <glyph glyph-name="caron" unicode="&#x2c7;" horiz-adv-x="784" 
d="M270 1228l-206 366l122 66l208 -186l270 186l144 -66l-362 -366h-176z" />
    <glyph glyph-name="uni02C8" unicode="&#x2c8;" horiz-adv-x="396" 
d="M257 1216l-54 882h336l-56 -882h-226z" />
    <glyph glyph-name="uni02C9" unicode="&#x2c9;" 
d="M-190 1300l26 214h582l-26 -214h-582z" />
    <glyph glyph-name="uni02CA" unicode="&#x2ca;" 
d="M22 1208l-170 156q45 45 104.5 114.5t120 149t107.5 154.5l236 -184q-23 -55 -75 -116.5t-115 -118t-119.5 -98t-88.5 -57.5z" />
    <glyph glyph-name="uni02CB" unicode="&#x2cb;" 
d="M160 1250q-39 14 -101.5 57t-128 98t-116 105.5t-64.5 79.5l206 194l326 -438z" />
    <glyph glyph-name="uni02CC" unicode="&#x2cc;" horiz-adv-x="396" 
d="M6 -692l-54 882h336l-56 -882h-226z" />
    <glyph glyph-name="breve" unicode="&#x2d8;" horiz-adv-x="708" 
d="M352 1270q-121 0 -196.5 45.5t-103 129t-4.5 197.5h184q-10 -90 16.5 -125t119.5 -35q52 0 84.5 20t50 56t25.5 84h180q0 -120 -43 -203t-123 -126t-190 -43z" />
    <glyph glyph-name="dotaccent" unicode="&#x2d9;" horiz-adv-x="382" 
d="M166 1282q-64 0 -115 48t-51 112q0 84 58 142t148 58q72 0 122 -46.5t50 -111.5q0 -88 -56.5 -145t-155.5 -57z" />
    <glyph glyph-name="ring" unicode="&#x2da;" horiz-adv-x="712" 
d="M356 1224q-142 0 -224 62t-82 176q0 105 60 174q60 68 147 97t175 29q137 0 217.5 -59t80.5 -173q0 -99 -54 -168q-54 -70 -139.5 -104t-180.5 -34zM378 1364q68 0 115 31t47 107q0 53 -40.5 88.5t-91.5 35.5q-67 0 -116.5 -35t-49.5 -107q0 -49 42.5 -84.5t93.5 -35.5z
" />
    <glyph glyph-name="ogonek" unicode="&#x2db;" horiz-adv-x="636" 
d="M182 -468q-79 0 -134.5 47.5t-55.5 122.5q0 58 33 110.5t85 97t112 78.5t114 56l86 14l94 -20q-124 -78 -195 -144.5t-71 -113.5q0 -40 18.5 -56t49.5 -16q38 0 80 23.5t88 60.5l54 -110q-66 -67 -161.5 -108.5t-196.5 -41.5z" />
    <glyph glyph-name="tilde" unicode="&#x2dc;" horiz-adv-x="844" 
d="M688 1250q-64 0 -110.5 24.5t-81.5 61.5q-28 32 -50 48t-60 16q-39 0 -67 -15t-67 -71l-94 132q44 86 107 131t133 45q60 0 104 -19.5t78 -60.5q27 -31 47.5 -48.5t48.5 -17.5q29 0 54.5 13t47 39.5t38.5 67.5l106 -142q-18 -48 -54.5 -95t-83.5 -78t-96 -31z" />
    <glyph glyph-name="hungarumlaut" unicode="&#x2dd;" horiz-adv-x="904" 
d="M742 1194l-128 82l262 436l212 -140q-9 -38 -49 -94t-94.5 -114.5t-109.5 -104.5t-93 -65zM274 1194l-136 82l258 436l204 -134q-9 -38 -46.5 -95t-88.5 -116.5t-102.5 -106.5t-88.5 -66z" />
    <glyph glyph-name="gravecomb" unicode="&#x300;" 
d="M160 1250q-39 14 -101.5 57t-128 98t-116 105.5t-64.5 79.5l206 194l326 -438z" />
    <glyph glyph-name="acutecomb" unicode="&#x301;" 
d="M112 1250l-122 96l326 438l204 -166q-11 -23 -46.5 -64t-85 -89t-102 -93.5t-99 -78.5t-75.5 -43z" />
    <glyph glyph-name="uni0302" unicode="&#x302;" 
d="M-140 1254l-134 66l358 344h176l212 -344l-152 -66l-176 188z" />
    <glyph glyph-name="tildecomb" unicode="&#x303;" 
d="M268 1230q-64 0 -110.5 24.5t-81.5 61.5q-28 32 -50 48t-60 16q-39 0 -67 -15t-67 -71l-94 132q44 86 107 131t133 45q60 0 104 -19.5t78 -60.5q27 -31 47.5 -48.5t48.5 -17.5q29 0 54.5 13t47 39.5t38.5 67.5l106 -142q-18 -48 -54.5 -95t-83.5 -78t-96 -31z" />
    <glyph glyph-name="uni0304" unicode="&#x304;" 
d="M-190 1300l26 214h582l-26 -214h-582z" />
    <glyph glyph-name="uni0306" unicode="&#x306;" 
d="M114 1264q-122 0 -198 45.5t-103.5 129t-4.5 197.5h184q-7 -60 2.5 -95t41.5 -50t94 -15q52 0 84.5 20t50 56t25.5 84h180q0 -120 -43 -203t-123 -126t-190 -43z" />
    <glyph glyph-name="uni0307" unicode="&#x307;" 
d="M86 1272q-64 0 -116 48t-52 112q0 84 59 142t149 58q72 0 122 -46.5t50 -111.5q0 -88 -56.5 -145t-155.5 -57z" />
    <glyph glyph-name="uni0308" unicode="&#x308;" 
d="M-132 1312q-52 0 -92 46t-40 98q0 75 45 125.5t115 50.5q60 0 100 -42t40 -96q0 -81 -42 -131.5t-126 -50.5zM328 1312q-51 0 -90.5 45t-39.5 99q0 74 44 125t116 51q59 0 99.5 -42t40.5 -96q0 -79 -43.5 -130.5t-126.5 -51.5z" />
    <glyph glyph-name="hookabovecomb" unicode="&#x309;" 
d="M2 1266q-9 21 -13.5 39.5t-0.5 48.5q4 34 21 56.5t38 41t37.5 38.5t19.5 48q3 30 -14.5 52t-77.5 22q-37 0 -72.5 -11t-55.5 -25l16 162q36 17 87.5 28.5t120.5 11.5q120 0 193.5 -53t64.5 -133q-5 -43 -26 -78.5t-49.5 -62.5t-54.5 -45q-33 -22 -47.5 -59t-10.5 -81
h-176z" />
    <glyph glyph-name="uni030A" unicode="&#x30a;" 
d="M90 1224q-142 0 -224 62t-82 176q0 105 60 174q60 68 147 97t175 29q137 0 217.5 -59t80.5 -173q0 -99 -54 -168q-54 -70 -139.5 -104t-180.5 -34zM112 1364q68 0 115 31t47 107q0 53 -40.5 88.5t-91.5 35.5q-67 0 -116.5 -35t-49.5 -107q0 -49 42.5 -84.5t93.5 -35.5z
" />
    <glyph glyph-name="uni030B" unicode="&#x30b;" 
d="M310 1194l-128 82l262 436l212 -140q-9 -38 -49.5 -94t-95 -114.5t-109 -104.5t-92.5 -65zM-160 1194l-136 82l258 436l206 -134q-10 -38 -47.5 -95t-88.5 -116.5t-102.5 -106.5t-89.5 -66z" />
    <glyph glyph-name="uni030C" unicode="&#x30c;" 
d="M8 1266l-238 352l116 92l238 -218l276 218l104 -92l-320 -352h-176z" />
    <glyph glyph-name="uni030F" unicode="&#x30f;" 
d="M-120 1254q-37 19 -92 65t-109.5 104.5t-95 114.5t-49.5 94l212 140l262 -436zM350 1254q-37 19 -89 66t-103 106.5t-88.5 116.5t-47.5 95l206 134l258 -436z" />
    <glyph glyph-name="uni0311" unicode="&#x311;" 
d="M114 1668q122 0 198 -45.5t103.5 -129t4.5 -197.5h-184q11 90 -17 125t-121 35q-52 0 -84.5 -20t-50 -56t-25.5 -84h-180q0 120 43 203t123 126t190 43z" />
    <glyph glyph-name="uni0312" unicode="&#x312;" 
d="M126 1796l106 -72l-4 -24q-24 -15 -41 -44.5t-17 -79.5q0 -39 20 -76t50 -42l-12 -84l-132 -92q-38 8 -74 41.5t-59 82.5t-23 102q0 86 43 166t143 122z" />
    <glyph glyph-name="uni031B" unicode="&#x31b;" 
d="M-68 922l28 190q99 0 156.5 20t86.5 51.5t41.5 66.5t21.5 66q3 11 5.5 19.5t0.5 14.5h232q0 -12 1 -22.5t-1 -21.5q-21 -144 -101 -228t-202 -120t-269 -36z" />
    <glyph glyph-name="dotbelowcomb" unicode="&#x323;" 
d="M-70 -546q-64 0 -116 48t-52 112q0 84 59 142t149 58q72 0 122 -46.5t50 -111.5q0 -88 -56.5 -145t-155.5 -57z" />
    <glyph glyph-name="uni0324" unicode="&#x324;" 
d="M-300 -542q-58 0 -102 51t-44 109q0 83 49.5 139.5t128.5 56.5q66 0 110 -47t44 -107q0 -90 -46.5 -146t-139.5 -56zM160 -542q-57 0 -100.5 50t-43.5 110q0 81 48.5 138.5t127.5 57.5q66 0 111 -47t45 -107q0 -88 -48 -145t-140 -57z" />
    <glyph glyph-name="uni0326" unicode="&#x326;" 
d="M-78 -654l-94 68l4 24q23 14 41.5 43t18.5 89q0 38 -18.5 67t-47.5 33l12 90l152 102q68 -12 111 -72.5t43 -135.5q0 -74 -31.5 -141t-82 -112.5t-108.5 -54.5z" />
    <glyph glyph-name="uni0327" unicode="&#x327;" 
d="M-192 -460q-94 0 -162.5 17t-85.5 27l36 198q14 -6 53.5 -16t96.5 -10q59 0 105.5 39.5t46.5 106.5q0 56 -8 81.5t-14 46.5l42 4l100 -4q20 -28 41 -81.5t21 -136.5q0 -136 -74.5 -204t-197.5 -68z" />
    <glyph glyph-name="uni0328" unicode="&#x328;" 
d="M179 -468q-79 0 -134.5 47.5t-55.5 122.5q0 62 37 116.5t95 100.5t119 81l90 51l124 -51q-97 -66 -152 -122.5t-55 -97.5q0 -40 18.5 -56t49.5 -16q38 0 80 23.5t88 60.5l54 -110q-66 -67 -161.5 -108.5t-196.5 -41.5z" />
    <glyph glyph-name="uni032E" unicode="&#x32e;" 
d="M-58 -524q-122 0 -198 45.5t-103.5 129t-4.5 197.5h184q0 -79 22.5 -119.5t115.5 -40.5q78 0 113 44t47 116h180q0 -120 -43 -203t-123 -126t-190 -43z" />
    <glyph glyph-name="uni0331" unicode="&#x331;" 
d="M-340 -402l18 214h582l-18 -214h-582z" />
    <glyph glyph-name="uni0335" unicode="&#x335;" 
d="M410 680v-244h-820v244h820z" />
    <glyph glyph-name="uni0336" unicode="&#x336;" 
d="M574 680v-244h-1148v244h1148z" />
    <glyph glyph-name="uni0337" unicode="&#x337;" 
d="M220 1114l220 -2l-662 -1316l-218 8z" />
    <glyph glyph-name="uni0338" unicode="&#x338;" 
d="M260 1610h240l-742 -1814l-238 8z" />
    <glyph glyph-name="uni0394" unicode="&#x394;" horiz-adv-x="1374" 
d="M-38 0l-12 22l806 1450h32l576 -1446l-18 -26h-1384zM392 268h568l-226 608z" />
    <glyph glyph-name="uni0394" unicode="&#x3b4;" horiz-adv-x="1374" 
d="M-38 0l-12 22l806 1450h32l576 -1446l-18 -26h-1384zM392 268h568l-226 608z" />
    <glyph glyph-name="uni03A9" unicode="&#x3a9;" horiz-adv-x="1620" 
d="M66 0l32 246h298q-52 61 -93.5 130t-70.5 143t-44.5 150t-15.5 151q0 229 83 382t244.5 229.5t398.5 76.5q188 0 325 -64.5t211 -190t74 -309.5q0 -93 -23.5 -189t-65.5 -188t-100 -174t-127 -147h302l-26 -246h-552l-70 184q76 41 137.5 117t105.5 171.5t67.5 197.5
t23.5 196q0 112 -38 196t-109 131t-171 47q-112 0 -196 -47.5t-131 -150t-47 -266.5q0 -72 15.5 -161t43.5 -176t66 -155.5t83 -99.5l-88 -184h-542z" />
    <glyph glyph-name="uni03A9" unicode="&#x3c9;" horiz-adv-x="1620" 
d="M66 0l32 246h298q-52 61 -93.5 130t-70.5 143t-44.5 150t-15.5 151q0 229 83 382t244.5 229.5t398.5 76.5q188 0 325 -64.5t211 -190t74 -309.5q0 -93 -23.5 -189t-65.5 -188t-100 -174t-127 -147h302l-26 -246h-552l-70 184q76 41 137.5 117t105.5 171.5t67.5 197.5
t23.5 196q0 112 -38 196t-109 131t-171 47q-112 0 -196 -47.5t-131 -150t-47 -266.5q0 -72 15.5 -161t43.5 -176t66 -155.5t83 -99.5l-88 -184h-542z" />
    <glyph glyph-name="uni03BC" unicode="&#x3bc;" horiz-adv-x="1332" 
d="M50 -364l160 1146q4 17 3.5 42t-8 44.5t-23.5 19.5q-24 0 -42.5 -10.5t-41.5 -33.5l-48 160q23 23 76 52t118.5 50.5t125.5 21.5q92 0 150 -42t58 -126q0 -11 -7 -69.5t-17.5 -140.5l-21 -164t-17.5 -142.5t-7 -73.5q0 -67 26 -100.5t78 -33.5q31 0 69 23t67.5 61
t35.5 84l92 710h342q-16 -136 -30 -252.5t-27.5 -220t-25.5 -200t-23 -191.5q-3 -25 8 -42.5t24 -17.5q26 0 58 21t50 49l76 -130q-39 -39 -81.5 -72.5t-97 -54.5t-129.5 -21q-82 0 -128.5 30t-63.5 108q-27 -47 -60 -77t-72 -44.5t-84 -14.5q-46 0 -99 17t-73 57l-64 -422
h-326z" />
    <glyph glyph-name="pi" unicode="&#x3c0;" horiz-adv-x="1566" 
d="M318 -16l-198 148q14 2 38 14t46 28q71 56 99.5 130t40.5 180l48 346h-64q-67 0 -108 -21.5t-76 -56.5l-144 62q6 97 56.5 164t130.5 101.5t175 34.5h860q60 0 89.5 16t42.5 56h192q-4 -198 -83.5 -276t-262.5 -78q-3 -61 -6 -121.5t-6 -120.5t-6 -120.5t-6 -121.5
q-6 -116 56 -116q34 0 64.5 18.5t58 45.5t51.5 54l108 -128q-28 -55 -73.5 -99t-103.5 -75t-122 -47.5t-129 -16.5q-112 0 -171 63t-59 181q0 6 0.5 14t2.5 27l6 57t11.5 102t18.5 163t27 241l-234 -2l-30 -432q-6 -111 -47 -204.5t-97 -143.5q-34 -25 -84 -43t-112 -23z
" />
    <glyph glyph-name="uni058F" unicode="&#x58f;" horiz-adv-x="1588" 
d="M788 -16l114 836q21 152 7.5 240.5t-60 126t-123.5 37.5t-138 -36t-101.5 -124t-54.5 -244l-14 -152h-322l22 178q25 201 96.5 349t205.5 228.5t346 80.5q197 0 308 -75.5t147 -217.5t9 -341l-122 -886h-320zM494 166l28 202h922l-28 -202h-922zM572 530l30 200h894
l-28 -200h-896z" />
    <glyph glyph-name="uni1E02" unicode="&#x1e02;" horiz-adv-x="1320" 
d="M520 -16q-11 0 -54.5 2.5t-96.5 5.5t-95.5 5.5t-51.5 2.5h-152l214 1494h160q12 0 60.5 2t107.5 5t104.5 5t51.5 2q165 0 275.5 -37.5t165.5 -112.5t55 -188q0 -150 -75 -252t-221 -132q88 -19 149 -61.5t93 -105t32 -141.5q0 -171 -84 -280t-245.5 -161.5t-392.5 -52.5z
M568 228q68 0 139.5 30t120 83t48.5 121q0 114 -64 153t-198 39q-30 0 -56.5 -1t-49.5 -3l-58 -416q15 -2 33.5 -3.5t39.5 -2t45 -0.5zM542 886q23 -1 44.5 -2.5t43.5 -1.5q138 0 208 60.5t70 187.5q0 80 -50.5 110t-151.5 30q-22 0 -41.5 -0.5t-36 -1.5t-30.5 -2zM804 1634
q-64 0 -116 48t-52 112q0 84 59 142t149 58q72 0 122 -46.5t50 -111.5q0 -88 -56.5 -145t-155.5 -57z" />
    <glyph glyph-name="uni1E03" unicode="&#x1e03;" horiz-adv-x="1260" 
d="M504 -16q-58 0 -129 14.5t-121 33.5l-180 -32l220 1596h334l-82 -642l-20 -120q31 80 79 147t113 107t146 40q173 0 250.5 -117t77.5 -303q0 -187 -78 -352q-53 -110 -140 -194t-205 -131t-265 -47zM528 190q95 0 164 72q66 72 100 187.5t34 236.5q0 102 -21 153t-65 51
q-40 0 -79.5 -42.5t-73 -105.5t-58 -128t-35.5 -110l-44 -308q27 -6 78 -6zM886 1272q-64 0 -116 48t-52 112q0 84 59 142t149 58q72 0 122 -46.5t50 -111.5q0 -88 -56.5 -145t-155.5 -57z" />
    <glyph glyph-name="uni1E08" unicode="&#x1e08;" horiz-adv-x="1164" 
d="M610 -16q-192 0 -310 88q-118 89 -168 229t-50 309q0 243 102 450q101 207 281.5 328.5t408.5 121.5q53 0 102 -5.5t106.5 -20.5t135.5 -42l-100 -328q-43 41 -113.5 72.5t-166.5 31.5q-139 0 -228 -86q-91 -87 -133.5 -224t-42.5 -298q0 -119 27.5 -195.5t86.5 -113.5
t154 -37q59 0 117 13.5t106 33.5t77 41l46 -242q-23 -19 -73.5 -41t-114 -41.5t-129.5 -31.5t-121 -12zM444 -460q-94 0 -162.5 17t-85.5 27l36 198q14 -6 53.5 -16t96.5 -10q59 0 105.5 39.5t46.5 106.5q0 56 -8 81.5t-14 46.5l42 4l100 -4q20 -28 41 -81.5t21 -136.5
q0 -136 -74.5 -204t-197.5 -68zM858 1634l-122 96l326 438l204 -166q-11 -23 -46.5 -64t-85 -89t-102 -93.5t-99 -78.5t-75.5 -43z" />
    <glyph glyph-name="uni1E09" unicode="&#x1e09;" horiz-adv-x="934" 
d="M476 -16q-122 0 -213 59t-141 160.5t-50 228.5q0 203 78 362t216 246.5t312 87.5q39 0 87.5 -5.5t93 -15t71.5 -21.5l-84 -334q-19 20 -52 45t-71 43t-71 18q-31 0 -64 -21t-60 -57q-43 -54 -71.5 -133.5t-28.5 -160.5q0 -118 28.5 -184t113.5 -66q59 0 126.5 36.5
t103.5 75.5l86 -168q-33 -52 -90.5 -96.5t-138 -72t-181.5 -27.5zM370 -460q-94 0 -162.5 17t-85.5 27l36 198q14 -6 53.5 -16t96.5 -10q59 0 105.5 39.5t46.5 106.5q0 56 -8 81.5t-14 46.5l42 4l100 -4q20 -28 41 -81.5t21 -136.5q0 -136 -74.5 -204t-197.5 -68zM636 1250
l-122 96l326 438l204 -166q-11 -23 -46.5 -64t-85 -89t-102 -93.5t-99 -78.5t-75.5 -43z" />
    <glyph glyph-name="uni1E0A" unicode="&#x1e0a;" horiz-adv-x="1390" 
d="M556 -16q-57 0 -130.5 4t-134.5 8t-81 4h-140l214 1494h152q7 0 44.5 1.5t90 4l105 5t91 4t47.5 1.5q296 0 432 -158t136 -442q0 -200 -55.5 -369t-162.5 -294t-260 -194t-348 -69zM604 238q140 0 236 90q95 90 140.5 243t45.5 345q0 131 -30 206q-30 74 -90.5 103
t-161.5 29q-34 0 -77.5 -3t-72.5 -9l-140 -984q30 -10 67.5 -15t82.5 -5zM840 1634q-64 0 -116 48t-52 112q0 84 59 142t149 58q72 0 122 -46.5t50 -111.5q0 -88 -56.5 -145t-155.5 -57z" />
    <glyph glyph-name="uni1E0B" unicode="&#x1e0b;" horiz-adv-x="1244" 
d="M396 -16q-172 0 -250 116t-78 302q0 188 80 354q52 111 139 195t205 130.5t262 46.5q20 0 40.5 -1t39.5 -3l64 472h336l-206 -1596h-312l16 272q-32 -77 -80 -142.5t-112 -105.5t-144 -40zM518 222q38 0 76 42t71.5 104.5t58.5 127t38 110.5l42 310q-29 8 -74 8
q-96 0 -162 -72q-67 -73 -101.5 -189t-34.5 -241q0 -67 9.5 -111.5t28.5 -66.5t48 -22zM542 1272q-64 0 -116 48t-52 112q0 84 59 142t149 58q72 0 122 -46.5t50 -111.5q0 -88 -56.5 -145t-155.5 -57z" />
    <glyph glyph-name="uni1E0C" unicode="&#x1e0c;" horiz-adv-x="1390" 
d="M556 -16q-57 0 -130.5 4t-134.5 8t-81 4h-140l214 1494h152q7 0 44.5 1.5t90 4l105 5t91 4t47.5 1.5q296 0 432 -158t136 -442q0 -200 -55.5 -369t-162.5 -294t-260 -194t-348 -69zM604 238q140 0 236 90q95 90 140.5 243t45.5 345q0 131 -30 206q-30 74 -90.5 103
t-161.5 29q-34 0 -77.5 -3t-72.5 -9l-140 -984q30 -10 67.5 -15t82.5 -5zM552 -546q-64 0 -116 48t-52 112q0 84 59 142t149 58q72 0 122 -46.5t50 -111.5q0 -88 -56.5 -145t-155.5 -57z" />
    <glyph glyph-name="uni1E0D" unicode="&#x1e0d;" horiz-adv-x="1244" 
d="M396 -16q-172 0 -250 116t-78 302q0 188 80 354q52 111 139 195t205 130.5t262 46.5q20 0 40.5 -1t39.5 -3l64 472h336l-206 -1596h-312l16 272q-32 -77 -80 -142.5t-112 -105.5t-144 -40zM518 222q38 0 76 42t71.5 104.5t58.5 127t38 110.5l42 310q-29 8 -74 8
q-96 0 -162 -72q-67 -73 -101.5 -189t-34.5 -241q0 -67 9.5 -111.5t28.5 -66.5t48 -22zM478 -546q-64 0 -116 48t-52 112q0 84 59 142t149 58q72 0 122 -46.5t50 -111.5q0 -88 -56.5 -145t-155.5 -57z" />
    <glyph glyph-name="uni1E0E" unicode="&#x1e0e;" horiz-adv-x="1390" 
d="M556 -16q-57 0 -130.5 4t-134.5 8t-81 4h-140l214 1494h152q7 0 44.5 1.5t90 4l105 5t91 4t47.5 1.5q296 0 432 -158t136 -442q0 -200 -55.5 -369t-162.5 -294t-260 -194t-348 -69zM604 238q140 0 236 90q95 90 140.5 243t45.5 345q0 131 -30 206q-30 74 -90.5 103
t-161.5 29q-34 0 -77.5 -3t-72.5 -9l-140 -984q30 -10 67.5 -15t82.5 -5zM282 -402l18 214h582l-18 -214h-582z" />
    <glyph glyph-name="uni1E0F" unicode="&#x1e0f;" horiz-adv-x="1244" 
d="M396 -16q-172 0 -250 116t-78 302q0 188 80 354q52 111 139 195t205 130.5t262 46.5q20 0 40.5 -1t39.5 -3l64 472h336l-206 -1596h-312l16 272q-32 -77 -80 -142.5t-112 -105.5t-144 -40zM518 222q38 0 76 42t71.5 104.5t58.5 127t38 110.5l42 310q-29 8 -74 8
q-96 0 -162 -72q-67 -73 -101.5 -189t-34.5 -241q0 -67 9.5 -111.5t28.5 -66.5t48 -22zM208 -402l18 214h582l-18 -214h-582z" />
    <glyph glyph-name="uni1E14" unicode="&#x1e14;" horiz-adv-x="1176" 
d="M70 0l214 1494h892l-36 -268l-548 2l-48 -330l410 6l-36 -270l-410 8l-54 -378l618 10l-36 -274h-966zM480 1634l18 214h582l-18 -214h-582zM902 1966q-39 14 -101.5 57t-128 98t-116 105.5t-64.5 79.5l206 194l326 -438z" />
    <glyph glyph-name="uni1E15" unicode="&#x1e15;" horiz-adv-x="1086" 
d="M494 -16q-146 0 -238 62q-96 62 -140 163.5t-44 222.5q0 199 84 358q83 161 226.5 249.5t317.5 88.5q112 0 185.5 -33t110 -90.5t36.5 -132.5q0 -100 -45.5 -178.5t-126.5 -138.5t-189 -104.5t-233 -76.5v-14.5v-13.5q6 -64 38 -95t104 -31q55 0 118 25t117 62t81 73
l90 -168q-37 -50 -92.5 -92t-122 -72.5t-138 -47t-139.5 -16.5zM434 548q47 3 93 28t84.5 66t61.5 91.5t23 104.5q0 53 -16.5 76.5t-57.5 23.5q-36 0 -63 -34t-59 -84q-42 -67 -53 -144t-13 -128zM434 1300l26 214h582l-26 -214h-582zM826 1588q-39 14 -101.5 57t-128 98
t-116 105.5t-64.5 79.5l206 194l326 -438z" />
    <glyph glyph-name="uni1E16" unicode="&#x1e16;" horiz-adv-x="1176" 
d="M70 0l214 1494h892l-36 -268l-548 2l-48 -330l410 6l-36 -270l-410 8l-54 -378l618 10l-36 -274h-966zM480 1634l18 214h582l-18 -214h-582zM774 1966l-122 96l326 438l204 -166q-11 -23 -46.5 -64t-85 -89t-102 -93.5t-99 -78.5t-75.5 -43z" />
    <glyph glyph-name="uni1E17" unicode="&#x1e17;" horiz-adv-x="1086" 
d="M494 -16q-146 0 -238 62q-96 62 -140 163.5t-44 222.5q0 199 84 358q83 161 226.5 249.5t317.5 88.5q112 0 185.5 -33t110 -90.5t36.5 -132.5q0 -100 -45.5 -178.5t-126.5 -138.5t-189 -104.5t-233 -76.5v-14.5v-13.5q6 -64 38 -95t104 -31q55 0 118 25t117 62t81 73
l90 -168q-37 -50 -92.5 -92t-122 -72.5t-138 -47t-139.5 -16.5zM434 548q47 3 93 28t84.5 66t61.5 91.5t23 104.5q0 53 -16.5 76.5t-57.5 23.5q-36 0 -63 -34t-59 -84q-42 -67 -53 -144t-13 -128zM434 1300l26 214h582l-26 -214h-582zM718 1588l-122 96l326 438l204 -166
q-11 -23 -46.5 -64t-85 -89t-102 -93.5t-99 -78.5t-75.5 -43z" />
    <glyph glyph-name="uni1E1C" unicode="&#x1e1c;" horiz-adv-x="1176" 
d="M70 0l214 1494h892l-36 -268l-548 2l-48 -330l410 6l-36 -270l-410 8l-54 -378l618 10l-36 -274h-966zM416 -460q-94 0 -162.5 17t-85.5 27l36 198q14 -6 53.5 -16t96.5 -10q59 0 105.5 39.5t46.5 106.5q0 56 -8 81.5t-14 46.5l42 4l100 -4q20 -28 41 -81.5t21 -136.5
q0 -136 -74.5 -204t-197.5 -68zM776 1634q-122 0 -198 45.5t-103.5 129t-4.5 197.5h184q-10 -90 17.5 -125t120.5 -35q52 0 84.5 20t50 56t25.5 84h180q0 -120 -43 -203t-123 -126t-190 -43z" />
    <glyph glyph-name="uni1E1D" unicode="&#x1e1d;" horiz-adv-x="1086" 
d="M494 -16q-146 0 -238 62q-96 62 -140 163.5t-44 222.5q0 199 84 358q83 161 226.5 249.5t317.5 88.5q112 0 185.5 -33t110 -90.5t36.5 -132.5q0 -100 -45.5 -178.5t-126.5 -138.5t-189 -104.5t-233 -76.5v-14.5v-13.5q6 -64 38 -95t104 -31q55 0 118 25t117 62t81 73
l90 -168q-37 -50 -92.5 -92t-122 -72.5t-138 -47t-139.5 -16.5zM434 548q47 3 93 28t84.5 66t61.5 91.5t23 104.5q0 53 -16.5 76.5t-57.5 23.5q-36 0 -63 -34t-59 -84q-42 -67 -53 -144t-13 -128zM390 -460q-94 0 -162.5 17t-85.5 27l36 198q14 -6 53.5 -16t96.5 -10
q59 0 105.5 39.5t46.5 106.5q0 56 -8 81.5t-14 46.5l42 4l100 -4q20 -28 41 -81.5t21 -136.5q0 -136 -74.5 -204t-197.5 -68zM738 1264q-122 0 -198 45.5t-103.5 129t-4.5 197.5h184q-7 -60 2.5 -95t41.5 -50t94 -15q52 0 84.5 20t50 56t25.5 84h180q0 -120 -43 -203
t-123 -126t-190 -43z" />
    <glyph glyph-name="uni1E1E" unicode="&#x1e1e;" horiz-adv-x="1054" 
d="M70 0l214 1494h838l-42 -268l-488 4l-52 -364l418 6l-36 -284l-422 6l-84 -594h-346zM714 1634q-64 0 -116 48t-52 112q0 84 59 142t149 58q72 0 122 -46.5t50 -111.5q0 -88 -56.5 -145t-155.5 -57z" />
    <glyph glyph-name="uni1E1F" unicode="&#x1e1f;" horiz-adv-x="748" 
d="M108 0l124 902h-120l40 212h108l20 102q8 60 28.5 114t51.5 102q65 95 166.5 146.5t231.5 51.5q56 0 99.5 -6t74.5 -18l-60 -232q-12 12 -48 29t-72 17q-52 0 -83 -34t-45 -118l-28 -154h184l-26 -212h-182l-124 -902h-340zM596 1736q-64 0 -116 48t-52 112q0 84 59 142
t149 58q72 0 122 -46.5t50 -111.5q0 -88 -56.5 -145t-155.5 -57z" />
    <glyph glyph-name="uni1E20" unicode="&#x1e20;" horiz-adv-x="1394" 
d="M662 -16q-208 0 -342 88q-132 87 -190 225t-58 295q0 266 106 478q105 209 285.5 324.5t400.5 115.5q69 0 119 -3.5t96 -13t101.5 -26.5t135.5 -45l-72 -314q-31 24 -99 52t-147 48t-142 20q-154 0 -252 -92q-97 -93 -139.5 -233.5t-42.5 -292.5q0 -120 32.5 -201.5
t97 -123t160.5 -41.5q47 0 104.5 7t91.5 25l44 280h-244l34 274h562l-104 -752q-22 -3 -49 -9t-59 -15q-112 -30 -211.5 -50t-218.5 -20zM554 1634l18 214h582l-18 -214h-582z" />
    <glyph glyph-name="uni1E21" unicode="&#x1e21;" horiz-adv-x="1240" 
d="M384 -504q-45 0 -98.5 6.5t-99 16.5t-66.5 21l50 248q19 -16 68.5 -36.5t107.5 -36t104 -15.5q98 0 145 52t65 154l62 344q-49 -109 -130.5 -187.5t-195.5 -78.5q-172 0 -250 116t-78 302q0 188 80 354q52 111 139 195t205 130.5t262 46.5q59 0 126 -13t116 -31l184 44
l-160 -1156q-12 -88 -42 -159t-74 -125q-87 -103 -222.5 -147.5t-297.5 -44.5zM518 222q37 0 74 40t70 100.5t58 123t38 108.5l44 326q-15 2 -33 3t-39 1q-96 0 -162 -72q-67 -73 -101.5 -189t-34.5 -241q0 -67 9.5 -111.5t28.5 -66.5t48 -22zM484 1300l26 214h582l-26 -214
h-582z" />
    <glyph glyph-name="uni1E24" unicode="&#x1e24;" horiz-adv-x="1464" 
d="M58 0l214 1494h346l-92 -648h470l92 648h350l-214 -1494h-348l86 608h-470l-88 -608h-346zM578 -546q-64 0 -116 48t-52 112q0 84 59 142t149 58q72 0 122 -46.5t50 -111.5q0 -88 -56.5 -145t-155.5 -57z" />
    <glyph glyph-name="uni1E25" unicode="&#x1e25;" horiz-adv-x="1284" 
d="M76 0l216 1596h338l-72 -550l-28 -146q66 108 161 168t207 60q132 0 201 -68t69 -226q0 -11 -6.5 -69t-17.5 -144t-24 -183t-25.5 -187.5t-22 -158t-14.5 -92.5h-348q9 60 17 116t15 108t13.5 99.5t12 91t10.5 83.5q12 101 19.5 168.5t8.5 103.5q2 53 -18 74.5t-62 21.5
q-36 0 -76 -23t-77 -64.5t-65 -96.5l-92 -682h-340zM498 -546q-64 0 -116 48t-52 112q0 84 59 142t149 58q72 0 122 -46.5t50 -111.5q0 -88 -56.5 -145t-155.5 -57z" />
    <glyph glyph-name="uni1E2A" unicode="&#x1e2a;" horiz-adv-x="1464" 
d="M58 0l214 1494h346l-92 -648h470l92 648h350l-214 -1494h-348l86 608h-470l-88 -608h-346zM590 -524q-122 0 -198 45.5t-103.5 129t-4.5 197.5h184q0 -79 22.5 -119.5t115.5 -40.5q78 0 113 44t47 116h180q0 -120 -43 -203t-123 -126t-190 -43z" />
    <glyph glyph-name="uni1E2B" unicode="&#x1e2b;" horiz-adv-x="1284" 
d="M76 0l216 1596h338l-72 -550l-28 -146q66 108 161 168t207 60q132 0 201 -68t69 -226q0 -11 -6.5 -69t-17.5 -144t-24 -183t-25.5 -187.5t-22 -158t-14.5 -92.5h-348q9 60 17 116t15 108t13.5 99.5t12 91t10.5 83.5q12 101 19.5 168.5t8.5 103.5q2 53 -18 74.5t-62 21.5
q-36 0 -76 -23t-77 -64.5t-65 -96.5l-92 -682h-340zM510 -524q-122 0 -198 45.5t-103.5 129t-4.5 197.5h184q0 -79 22.5 -119.5t115.5 -40.5q78 0 113 44t47 116h180q0 -120 -43 -203t-123 -126t-190 -43z" />
    <glyph glyph-name="uni1E2E" unicode="&#x1e2e;" horiz-adv-x="690" 
d="M96 0l214 1494h346l-214 -1494h-346zM272 1658q-58 0 -102 51t-44 109q0 83 49.5 139.5t128.5 56.5q66 0 110 -47t44 -107q0 -90 -46.5 -146t-139.5 -56zM732 1658q-57 0 -100.5 50t-43.5 110q0 81 48.5 138.5t127.5 57.5q66 0 111 -47t45 -107q0 -88 -48 -145t-140 -57z
M530 2118l-122 96l326 438l204 -166q-11 -23 -46.5 -64t-85 -89t-102 -93.5t-99 -78.5t-75.5 -43z" />
    <glyph glyph-name="uni1E2F" unicode="&#x1e2f;" horiz-adv-x="648" 
d="M78 0l152 1114h352l-156 -1114h-348zM192 1312q-52 0 -92 46t-40 98q0 75 45 125.5t115 50.5q60 0 100 -42t40 -96q0 -81 -42 -131.5t-126 -50.5zM652 1312q-51 0 -90.5 45t-39.5 99q0 74 44 125t116 51q59 0 99.5 -42t40.5 -96q0 -79 -43.5 -130.5t-126.5 -51.5z
M436 1666l-122 96l326 438l204 -166q-11 -23 -46.5 -64t-85 -89t-102 -93.5t-99 -78.5t-75.5 -43z" />
    <glyph glyph-name="uni1E36" unicode="&#x1e36;" horiz-adv-x="1036" 
d="M70 0l214 1494h346l-176 -1224l486 12l-42 -282h-828zM438 -546q-64 0 -116 48t-52 112q0 84 59 142t149 58q72 0 122 -46.5t50 -111.5q0 -88 -56.5 -145t-155.5 -57z" />
    <glyph glyph-name="uni1E37" unicode="&#x1e37;" horiz-adv-x="650" 
d="M82 0l214 1596h350l-216 -1596h-348zM190 -546q-64 0 -116 48t-52 112q0 84 59 142t149 58q72 0 122 -46.5t50 -111.5q0 -88 -56.5 -145t-155.5 -57z" />
    <glyph glyph-name="uni1E3A" unicode="&#x1e3a;" horiz-adv-x="1036" 
d="M70 0l214 1494h346l-176 -1224l486 12l-42 -282h-828zM168 -402l18 214h582l-18 -214h-582z" />
    <glyph glyph-name="uni1E3B" unicode="&#x1e3b;" horiz-adv-x="650" 
d="M82 0l214 1596h350l-216 -1596h-348zM-80 -402l18 214h582l-18 -214h-582z" />
    <glyph glyph-name="uni1E40" unicode="&#x1e40;" horiz-adv-x="1942" 
d="M718 -18l-116 1130l-2 228l-48 -228l-242 -1112h-340l408 1494h504l66 -1028l6 -220l46 220l348 1028h504l-22 -1494h-346l88 1112l26 228l-72 -228l-428 -1114zM1116 1634q-64 0 -116 48t-52 112q0 84 59 142t149 58q72 0 122 -46.5t50 -111.5q0 -88 -56.5 -145
t-155.5 -57z" />
    <glyph glyph-name="uni1E41" unicode="&#x1e41;" horiz-adv-x="1918" 
d="M74 0l152 1114h336l-14 -198q71 101 163.5 156.5t204.5 55.5q113 0 179 -51.5t79 -170.5q68 104 163 163t209 59q128 0 195 -68t67 -226q0 -25 -9 -109t-29 -227q-18 -124 -35 -248.5t-35 -249.5h-348q8 62 16 119t15 109t13 99.5t11.5 90t10.5 80.5q11 83 20 156.5
t10 115.5q2 53 -18 74.5t-62 21.5q-49 0 -104.5 -44.5t-97.5 -121.5q-1 -7 -4 -31.5t-8 -62.5q-8 -56 -18.5 -132.5t-22 -156.5t-21 -150t-16.5 -116t-8 -51h-348q11 75 21 143.5t18.5 131t15.5 118.5t13 105q12 101 19.5 168.5t8.5 103.5q2 53 -18 74.5t-62 21.5
q-26 0 -55 -13t-58.5 -36t-56 -55.5t-48.5 -71.5l-96 -690h-348zM1046 1272q-64 0 -116 48t-52 112q0 84 59 142t149 58q72 0 122 -46.5t50 -111.5q0 -88 -56.5 -145t-155.5 -57z" />
    <glyph glyph-name="uni1E42" unicode="&#x1e42;" horiz-adv-x="1942" 
d="M718 -18l-116 1130l-2 228l-48 -228l-242 -1112h-340l408 1494h504l66 -1028l6 -220l46 220l348 1028h504l-22 -1494h-346l88 1112l26 228l-72 -228l-428 -1114zM828 -546q-64 0 -116 48t-52 112q0 84 59 142t149 58q72 0 122 -46.5t50 -111.5q0 -88 -56.5 -145
t-155.5 -57z" />
    <glyph glyph-name="uni1E43" unicode="&#x1e43;" horiz-adv-x="1918" 
d="M74 0l152 1114h336l-14 -198q71 101 163.5 156.5t204.5 55.5q113 0 179 -51.5t79 -170.5q68 104 163 163t209 59q128 0 195 -68t67 -226q0 -25 -9 -109t-29 -227q-18 -124 -35 -248.5t-35 -249.5h-348q8 62 16 119t15 109t13 99.5t11.5 90t10.5 80.5q11 83 20 156.5
t10 115.5q2 53 -18 74.5t-62 21.5q-49 0 -104.5 -44.5t-97.5 -121.5q-1 -7 -4 -31.5t-8 -62.5q-8 -56 -18.5 -132.5t-22 -156.5t-21 -150t-16.5 -116t-8 -51h-348q11 75 21 143.5t18.5 131t15.5 118.5t13 105q12 101 19.5 168.5t8.5 103.5q2 53 -18 74.5t-62 21.5
q-26 0 -55 -13t-58.5 -36t-56 -55.5t-48.5 -71.5l-96 -690h-348zM816 -546q-64 0 -116 48t-52 112q0 84 59 142t149 58q72 0 122 -46.5t50 -111.5q0 -88 -56.5 -145t-155.5 -57z" />
    <glyph glyph-name="uni1E44" unicode="&#x1e44;" horiz-adv-x="1464" 
d="M70 0l214 1494h300l348 -774l76 -254l14 254l94 774h334l-214 -1494h-290l-340 814l-96 268l2 -268l-112 -814h-330zM876 1634q-64 0 -116 48t-52 112q0 84 59 142t149 58q72 0 122 -46.5t50 -111.5q0 -88 -56.5 -145t-155.5 -57z" />
    <glyph glyph-name="uni1E45" unicode="&#x1e45;" horiz-adv-x="1288" 
d="M74 0l152 1114h334l-14 -202q68 102 160.5 159t201.5 57q132 0 201 -68t69 -226q0 -22 -6.5 -79.5t-16 -127t-17.5 -127.5q-3 -20 -10.5 -74t-17 -123.5t-19 -136.5t-16 -113t-7.5 -53h-348q15 100 27.5 188.5t22.5 166t18 143.5q12 101 19.5 168.5t8.5 103.5
q2 53 -18 74.5t-62 21.5q-27 0 -56.5 -13t-58.5 -37.5t-55.5 -58.5t-47.5 -75l-96 -682h-348zM730 1272q-64 0 -116 48t-52 112q0 84 59 142t149 58q72 0 122 -46.5t50 -111.5q0 -88 -56.5 -145t-155.5 -57z" />
    <glyph glyph-name="uni1E46" unicode="&#x1e46;" horiz-adv-x="1464" 
d="M70 0l214 1494h300l348 -774l76 -254l14 254l94 774h334l-214 -1494h-290l-340 814l-96 268l2 -268l-112 -814h-330zM588 -546q-64 0 -116 48t-52 112q0 84 59 142t149 58q72 0 122 -46.5t50 -111.5q0 -88 -56.5 -145t-155.5 -57z" />
    <glyph glyph-name="uni1E47" unicode="&#x1e47;" horiz-adv-x="1288" 
d="M74 0l152 1114h334l-14 -202q68 102 160.5 159t201.5 57q132 0 201 -68t69 -226q0 -22 -6.5 -79.5t-16 -127t-17.5 -127.5q-3 -20 -10.5 -74t-17 -123.5t-19 -136.5t-16 -113t-7.5 -53h-348q15 100 27.5 188.5t22.5 166t18 143.5q12 101 19.5 168.5t8.5 103.5
q2 53 -18 74.5t-62 21.5q-27 0 -56.5 -13t-58.5 -37.5t-55.5 -58.5t-47.5 -75l-96 -682h-348zM500 -546q-64 0 -116 48t-52 112q0 84 59 142t149 58q72 0 122 -46.5t50 -111.5q0 -88 -56.5 -145t-155.5 -57z" />
    <glyph glyph-name="uni1E48" unicode="&#x1e48;" horiz-adv-x="1464" 
d="M70 0l214 1494h300l348 -774l76 -254l14 254l94 774h334l-214 -1494h-290l-340 814l-96 268l2 -268l-112 -814h-330zM318 -402l18 214h582l-18 -214h-582z" />
    <glyph glyph-name="uni1E49" unicode="&#x1e49;" horiz-adv-x="1288" 
d="M74 0l152 1114h334l-14 -202q68 102 160.5 159t201.5 57q132 0 201 -68t69 -226q0 -22 -6.5 -79.5t-16 -127t-17.5 -127.5q-3 -20 -10.5 -74t-17 -123.5t-19 -136.5t-16 -113t-7.5 -53h-348q15 100 27.5 188.5t22.5 166t18 143.5q12 101 19.5 168.5t8.5 103.5
q2 53 -18 74.5t-62 21.5q-27 0 -56.5 -13t-58.5 -37.5t-55.5 -58.5t-47.5 -75l-96 -682h-348zM230 -402l18 214h582l-18 -214h-582z" />
    <glyph glyph-name="uni1E4C" unicode="&#x1e4c;" horiz-adv-x="1360" 
d="M610 -16q-172 0 -292.5 75t-184 206t-63.5 299q0 191 50.5 362t146 302.5t232.5 206.5t309 75q128 0 227 -44t166.5 -123.5t102 -186.5t34.5 -232q0 -190 -49.5 -360t-143.5 -300.5t-229 -205t-306 -74.5zM636 244q86 0 151 63t108.5 164.5t65 218.5t21.5 224
q0 130 -29.5 203t-78 103t-104.5 30q-84 0 -148 -64t-108 -166.5t-66 -218t-22 -219.5q0 -175 64 -256.5t146 -81.5zM1002 1644q-64 0 -110.5 24.5t-81.5 61.5q-28 32 -50 48t-60 16q-39 0 -67 -15t-67 -71l-94 132q29 57 67 96.5t82 59.5t91 20q60 0 104 -19.5t78 -60.5
q27 -31 47.5 -48.5t48.5 -17.5q29 0 54.5 13t47 39.5t38.5 67.5l106 -142q-18 -48 -54.5 -95t-83.5 -78t-96 -31zM864 2092l-122 96l326 438l204 -166q-11 -23 -46.5 -64t-85 -89t-102 -93.5t-99 -78.5t-75.5 -43z" />
    </font>
</defs>
</svg>
